%FSLAX25Y25*%
%MOIN*%
G70*
G01*
G75*
G04 Layer_Color=8421504*
G04:AMPARAMS|DCode=10|XSize=43.31mil|YSize=39.37mil|CornerRadius=0mil|HoleSize=0mil|Usage=FLASHONLY|Rotation=90.000|XOffset=0mil|YOffset=0mil|HoleType=Round|Shape=RoundedRectangle|*
%AMROUNDEDRECTD10*
21,1,0.04331,0.03937,0,0,90.0*
21,1,0.04331,0.03937,0,0,90.0*
1,1,0.00000,0.01969,0.02165*
1,1,0.00000,0.01969,-0.02165*
1,1,0.00000,-0.01969,-0.02165*
1,1,0.00000,-0.01969,0.02165*
%
%ADD10ROUNDEDRECTD10*%
%ADD11R,0.04500X0.05300*%
%ADD12R,0.04100X0.03000*%
%ADD13R,0.03000X0.04100*%
%ADD14R,0.05118X0.10630*%
%ADD15R,0.07795X0.02362*%
G04:AMPARAMS|DCode=16|XSize=23.62mil|YSize=77.95mil|CornerRadius=0mil|HoleSize=0mil|Usage=FLASHONLY|Rotation=270.000|XOffset=0mil|YOffset=0mil|HoleType=Round|Shape=Octagon|*
%AMOCTAGOND16*
4,1,8,0.03898,0.00591,0.03898,-0.00591,0.03307,-0.01181,-0.03307,-0.01181,-0.03898,-0.00591,-0.03898,0.00591,-0.03307,0.01181,0.03307,0.01181,0.03898,0.00591,0.0*
%
%ADD16OCTAGOND16*%

%ADD17R,0.13976X0.10236*%
%ADD18R,0.05906X0.05906*%
G04:AMPARAMS|DCode=19|XSize=118.11mil|YSize=61.02mil|CornerRadius=0mil|HoleSize=0mil|Usage=FLASHONLY|Rotation=270.000|XOffset=0mil|YOffset=0mil|HoleType=Round|Shape=RoundedRectangle|*
%AMROUNDEDRECTD19*
21,1,0.11811,0.06102,0,0,270.0*
21,1,0.11811,0.06102,0,0,270.0*
1,1,0.00000,-0.03051,-0.05906*
1,1,0.00000,-0.03051,0.05906*
1,1,0.00000,0.03051,0.05906*
1,1,0.00000,0.03051,-0.05906*
%
%ADD19ROUNDEDRECTD19*%
G04:AMPARAMS|DCode=20|XSize=43.31mil|YSize=39.37mil|CornerRadius=0mil|HoleSize=0mil|Usage=FLASHONLY|Rotation=180.000|XOffset=0mil|YOffset=0mil|HoleType=Round|Shape=RoundedRectangle|*
%AMROUNDEDRECTD20*
21,1,0.04331,0.03937,0,0,180.0*
21,1,0.04331,0.03937,0,0,180.0*
1,1,0.00000,-0.02165,0.01969*
1,1,0.00000,0.02165,0.01969*
1,1,0.00000,0.02165,-0.01969*
1,1,0.00000,-0.02165,-0.01969*
%
%ADD20ROUNDEDRECTD20*%
%ADD21R,0.10433X0.06890*%
%ADD22R,0.04724X0.08661*%
%ADD23R,0.22835X0.25197*%
%ADD24R,0.03150X0.06299*%
%ADD25R,0.07874X0.21260*%
%ADD26R,0.10630X0.05118*%
%ADD27R,0.10000X0.15000*%
%ADD28R,0.09000X0.05000*%
%ADD29R,0.04500X0.05500*%
%ADD30R,0.07800X0.07000*%
%ADD31R,0.07008X0.02638*%
G04:AMPARAMS|DCode=32|XSize=26.38mil|YSize=70.08mil|CornerRadius=0mil|HoleSize=0mil|Usage=FLASHONLY|Rotation=90.000|XOffset=0mil|YOffset=0mil|HoleType=Round|Shape=Octagon|*
%AMOCTAGOND32*
4,1,8,-0.03504,-0.00660,-0.03504,0.00660,-0.02845,0.01319,0.02845,0.01319,0.03504,0.00660,0.03504,-0.00660,0.02845,-0.01319,-0.02845,-0.01319,-0.03504,-0.00660,0.0*
%
%ADD32OCTAGOND32*%

%ADD33R,0.21260X0.07874*%
%ADD34R,0.06890X0.09646*%
%ADD35C,0.04921*%
%ADD36C,0.05000*%
%ADD37O,0.01400X0.00700*%
%ADD38C,0.03500*%
%ADD39O,0.00700X0.01400*%
%ADD40R,0.08661X0.04724*%
%ADD41R,0.25197X0.22835*%
%ADD42R,0.10236X0.13976*%
%ADD43R,0.02638X0.07008*%
G04:AMPARAMS|DCode=44|XSize=26.38mil|YSize=70.08mil|CornerRadius=0mil|HoleSize=0mil|Usage=FLASHONLY|Rotation=180.000|XOffset=0mil|YOffset=0mil|HoleType=Round|Shape=Octagon|*
%AMOCTAGOND44*
4,1,8,0.00660,-0.03504,-0.00660,-0.03504,-0.01319,-0.02845,-0.01319,0.02845,-0.00660,0.03504,0.00660,0.03504,0.01319,0.02845,0.01319,-0.02845,0.00660,-0.03504,0.0*
%
%ADD44OCTAGOND44*%

%ADD45R,0.07800X0.07000*%
%ADD46R,0.05906X0.05906*%
%ADD47C,0.02362*%
%ADD48C,0.16500*%
%ADD49C,0.09843*%
%ADD50R,0.08661X0.07480*%
%ADD51C,0.08268*%
%ADD52O,0.08268X0.07480*%
%ADD53C,0.18779*%
%ADD54C,0.08661*%
%ADD55C,0.12200*%
%ADD56O,0.08661X0.07480*%
%ADD57C,0.11811*%
%ADD58C,0.15748*%
%ADD59C,0.00600*%
%ADD60C,0.00787*%
%ADD61C,0.00500*%
%ADD62C,0.00800*%
%ADD63C,0.00787*%
%ADD64C,0.01000*%
%ADD65C,0.01200*%
D10*
X-228600Y164854D02*
D03*
Y171546D02*
D03*
X155900Y51653D02*
D03*
Y58346D02*
D03*
X-228600Y204053D02*
D03*
Y210747D02*
D03*
X213535Y51654D02*
D03*
Y58346D02*
D03*
D11*
X30674Y62800D02*
D03*
X23380D02*
D03*
X11320D02*
D03*
X4027D02*
D03*
X-8726D02*
D03*
X-16020D02*
D03*
X23380Y71100D02*
D03*
X30674D02*
D03*
X4027D02*
D03*
X11320D02*
D03*
X-16020D02*
D03*
X-8726D02*
D03*
X-14689Y-89055D02*
D03*
X-7395D02*
D03*
X-14689Y-79055D02*
D03*
X-7395D02*
D03*
X-14689Y-69055D02*
D03*
X-7395D02*
D03*
D12*
X222400Y87197D02*
D03*
Y81403D02*
D03*
X237035Y87243D02*
D03*
Y81450D02*
D03*
X-247400Y180600D02*
D03*
Y186400D02*
D03*
Y142900D02*
D03*
Y148700D02*
D03*
X179400Y87243D02*
D03*
Y81450D02*
D03*
X164400Y87197D02*
D03*
Y81403D02*
D03*
D13*
X65700Y110400D02*
D03*
X59900D02*
D03*
X-187157Y157900D02*
D03*
X-192950D02*
D03*
X141903Y-196055D02*
D03*
X136103D02*
D03*
X163055Y-32655D02*
D03*
X157261D02*
D03*
Y-109255D02*
D03*
X163055D02*
D03*
X157261Y-131655D02*
D03*
X163055D02*
D03*
X157261Y-87155D02*
D03*
X163055D02*
D03*
X157261Y-64855D02*
D03*
X163055D02*
D03*
X157261Y-42655D02*
D03*
X163055D02*
D03*
Y-100055D02*
D03*
X157261D02*
D03*
X163055Y-121755D02*
D03*
X157261D02*
D03*
X163055Y-77655D02*
D03*
X157261D02*
D03*
X163055Y-54855D02*
D03*
X157261D02*
D03*
X141897Y-186055D02*
D03*
X136103D02*
D03*
X141897Y-176055D02*
D03*
X136103D02*
D03*
X141897Y-216055D02*
D03*
X136103D02*
D03*
X141897Y-206055D02*
D03*
X136103D02*
D03*
X84900Y-189000D02*
D03*
X79100D02*
D03*
X123100Y-29000D02*
D03*
X128900D02*
D03*
X26900Y-19000D02*
D03*
X21100D02*
D03*
X117100Y-99000D02*
D03*
X122900D02*
D03*
X237500Y29000D02*
D03*
X231700D02*
D03*
X179500Y27000D02*
D03*
X173700D02*
D03*
X-187157Y180600D02*
D03*
X-192950D02*
D03*
X-187203Y195600D02*
D03*
X-192997D02*
D03*
X11961Y-129055D02*
D03*
X17755D02*
D03*
X-187157Y142900D02*
D03*
X-192950D02*
D03*
D14*
X208646Y240100D02*
D03*
X220063D02*
D03*
X231039D02*
D03*
X242457D02*
D03*
X135757Y252200D02*
D03*
X124339D02*
D03*
Y274000D02*
D03*
X135757D02*
D03*
D15*
X65705Y102500D02*
D03*
Y97500D02*
D03*
Y92500D02*
D03*
Y87500D02*
D03*
X46295Y97500D02*
D03*
Y92500D02*
D03*
Y87500D02*
D03*
D16*
Y102500D02*
D03*
D17*
X-181200Y242750D02*
D03*
Y224050D02*
D03*
D18*
X2069Y-89055D02*
D03*
D19*
X-252004Y20685D02*
D03*
X-263618D02*
D03*
D20*
X-252465Y-22315D02*
D03*
X-259157D02*
D03*
D21*
X238000Y17000D02*
D03*
X221071D02*
D03*
X180365Y17000D02*
D03*
X163435D02*
D03*
X55565Y247200D02*
D03*
X38635D02*
D03*
X98965D02*
D03*
X82035D02*
D03*
X98965Y262300D02*
D03*
X82035D02*
D03*
X55565D02*
D03*
X38635D02*
D03*
D22*
X231524Y131732D02*
D03*
X249476D02*
D03*
X146524D02*
D03*
X164476D02*
D03*
X146524Y182732D02*
D03*
X164476D02*
D03*
X231524D02*
D03*
X249476D02*
D03*
D23*
X240500Y156535D02*
D03*
X155500D02*
D03*
Y207535D02*
D03*
X240500D02*
D03*
D24*
X1858Y-129055D02*
D03*
D25*
X189354Y187800D02*
D03*
X208646D02*
D03*
X189354Y164300D02*
D03*
X208646D02*
D03*
X58854Y198500D02*
D03*
X78146D02*
D03*
X58854Y225500D02*
D03*
X78146D02*
D03*
D26*
X190917Y144661D02*
D03*
Y133243D02*
D03*
X207083Y133339D02*
D03*
Y144757D02*
D03*
X98000Y160339D02*
D03*
Y171757D02*
D03*
X81000Y171661D02*
D03*
Y160243D02*
D03*
D27*
X-270811Y-3815D02*
D03*
D28*
X-246611Y5185D02*
D03*
Y-3815D02*
D03*
Y-12815D02*
D03*
D29*
X63350Y-199000D02*
D03*
X70650D02*
D03*
D30*
X2708Y-79055D02*
D03*
Y-69055D02*
D03*
D31*
X-228613Y142900D02*
D03*
Y147900D02*
D03*
Y152900D02*
D03*
Y157900D02*
D03*
X-210187Y147900D02*
D03*
Y152900D02*
D03*
Y157900D02*
D03*
X-228613Y180600D02*
D03*
Y185600D02*
D03*
Y190600D02*
D03*
Y195600D02*
D03*
X-210187Y185600D02*
D03*
Y190600D02*
D03*
Y195600D02*
D03*
D32*
Y142900D02*
D03*
Y180600D02*
D03*
D33*
X-101000Y169354D02*
D03*
Y188646D02*
D03*
D34*
X-257000Y179535D02*
D03*
Y196465D02*
D03*
Y141535D02*
D03*
Y158465D02*
D03*
D40*
X-86268Y157876D02*
D03*
Y139924D02*
D03*
Y219376D02*
D03*
Y201424D02*
D03*
X-156268Y157876D02*
D03*
Y139924D02*
D03*
Y219376D02*
D03*
Y201424D02*
D03*
D41*
X-61465Y148900D02*
D03*
Y210400D02*
D03*
X-131465Y148900D02*
D03*
Y210400D02*
D03*
D42*
X91350Y116800D02*
D03*
X110050D02*
D03*
D43*
X237500Y49787D02*
D03*
X232500D02*
D03*
X227500D02*
D03*
X222500D02*
D03*
X232500Y68213D02*
D03*
X227500D02*
D03*
X222500D02*
D03*
X179500Y49787D02*
D03*
X174500D02*
D03*
X169500D02*
D03*
X164500D02*
D03*
X174500Y68213D02*
D03*
X169500D02*
D03*
X164500D02*
D03*
D44*
X237500D02*
D03*
X179500D02*
D03*
D45*
X15208Y-79055D02*
D03*
Y-69055D02*
D03*
D46*
X15848Y-89055D02*
D03*
M02*
