%FSLAX25Y25*%
%MOIN*%
G70*
G01*
G75*
G04 Layer_Physical_Order=2*
G04 Layer_Color=16711680*
G04:AMPARAMS|DCode=10|XSize=43.31mil|YSize=39.37mil|CornerRadius=0mil|HoleSize=0mil|Usage=FLASHONLY|Rotation=90.000|XOffset=0mil|YOffset=0mil|HoleType=Round|Shape=RoundedRectangle|*
%AMROUNDEDRECTD10*
21,1,0.04331,0.03937,0,0,90.0*
21,1,0.04331,0.03937,0,0,90.0*
1,1,0.00000,0.01969,0.02165*
1,1,0.00000,0.01969,-0.02165*
1,1,0.00000,-0.01969,-0.02165*
1,1,0.00000,-0.01969,0.02165*
%
%ADD10ROUNDEDRECTD10*%
%ADD11R,0.04500X0.05300*%
%ADD12R,0.04100X0.03000*%
%ADD13R,0.03000X0.04100*%
%ADD14R,0.05118X0.10630*%
%ADD15R,0.07795X0.02362*%
G04:AMPARAMS|DCode=16|XSize=23.62mil|YSize=77.95mil|CornerRadius=0mil|HoleSize=0mil|Usage=FLASHONLY|Rotation=270.000|XOffset=0mil|YOffset=0mil|HoleType=Round|Shape=Octagon|*
%AMOCTAGOND16*
4,1,8,0.03898,0.00591,0.03898,-0.00591,0.03307,-0.01181,-0.03307,-0.01181,-0.03898,-0.00591,-0.03898,0.00591,-0.03307,0.01181,0.03307,0.01181,0.03898,0.00591,0.0*
%
%ADD16OCTAGOND16*%

%ADD17R,0.13976X0.10236*%
%ADD18R,0.05906X0.05906*%
G04:AMPARAMS|DCode=19|XSize=118.11mil|YSize=61.02mil|CornerRadius=0mil|HoleSize=0mil|Usage=FLASHONLY|Rotation=270.000|XOffset=0mil|YOffset=0mil|HoleType=Round|Shape=RoundedRectangle|*
%AMROUNDEDRECTD19*
21,1,0.11811,0.06102,0,0,270.0*
21,1,0.11811,0.06102,0,0,270.0*
1,1,0.00000,-0.03051,-0.05906*
1,1,0.00000,-0.03051,0.05906*
1,1,0.00000,0.03051,0.05906*
1,1,0.00000,0.03051,-0.05906*
%
%ADD19ROUNDEDRECTD19*%
G04:AMPARAMS|DCode=20|XSize=43.31mil|YSize=39.37mil|CornerRadius=0mil|HoleSize=0mil|Usage=FLASHONLY|Rotation=180.000|XOffset=0mil|YOffset=0mil|HoleType=Round|Shape=RoundedRectangle|*
%AMROUNDEDRECTD20*
21,1,0.04331,0.03937,0,0,180.0*
21,1,0.04331,0.03937,0,0,180.0*
1,1,0.00000,-0.02165,0.01969*
1,1,0.00000,0.02165,0.01969*
1,1,0.00000,0.02165,-0.01969*
1,1,0.00000,-0.02165,-0.01969*
%
%ADD20ROUNDEDRECTD20*%
%ADD21R,0.10433X0.06890*%
%ADD22R,0.04724X0.08661*%
%ADD23R,0.22835X0.25197*%
%ADD24R,0.03150X0.06299*%
%ADD25R,0.07874X0.21260*%
%ADD26R,0.10630X0.05118*%
%ADD27R,0.10000X0.15000*%
%ADD28R,0.09000X0.05000*%
%ADD29R,0.04500X0.05500*%
%ADD30R,0.07800X0.07000*%
%ADD31R,0.07008X0.02638*%
G04:AMPARAMS|DCode=32|XSize=26.38mil|YSize=70.08mil|CornerRadius=0mil|HoleSize=0mil|Usage=FLASHONLY|Rotation=90.000|XOffset=0mil|YOffset=0mil|HoleType=Round|Shape=Octagon|*
%AMOCTAGOND32*
4,1,8,-0.03504,-0.00660,-0.03504,0.00660,-0.02845,0.01319,0.02845,0.01319,0.03504,0.00660,0.03504,-0.00660,0.02845,-0.01319,-0.02845,-0.01319,-0.03504,-0.00660,0.0*
%
%ADD32OCTAGOND32*%

%ADD33R,0.21260X0.07874*%
%ADD34R,0.06890X0.09646*%
%ADD35C,0.04921*%
%ADD36C,0.05000*%
%ADD37O,0.01400X0.00700*%
%ADD38C,0.03500*%
%ADD39O,0.00700X0.01400*%
%ADD40R,0.08661X0.04724*%
%ADD41R,0.25197X0.22835*%
%ADD42R,0.10236X0.13976*%
%ADD43R,0.02638X0.07008*%
G04:AMPARAMS|DCode=44|XSize=26.38mil|YSize=70.08mil|CornerRadius=0mil|HoleSize=0mil|Usage=FLASHONLY|Rotation=180.000|XOffset=0mil|YOffset=0mil|HoleType=Round|Shape=Octagon|*
%AMOCTAGOND44*
4,1,8,0.00660,-0.03504,-0.00660,-0.03504,-0.01319,-0.02845,-0.01319,0.02845,-0.00660,0.03504,0.00660,0.03504,0.01319,0.02845,0.01319,-0.02845,0.00660,-0.03504,0.0*
%
%ADD44OCTAGOND44*%

%ADD45R,0.07800X0.07000*%
%ADD46R,0.05906X0.05906*%
%ADD47C,0.02362*%
%ADD48C,0.16500*%
%ADD49C,0.09843*%
%ADD50R,0.08661X0.07480*%
%ADD51C,0.08268*%
%ADD52O,0.08268X0.07480*%
%ADD53C,0.18779*%
%ADD54C,0.08661*%
%ADD55C,0.12200*%
%ADD56O,0.08661X0.07480*%
%ADD57C,0.11811*%
%ADD58C,0.15748*%
G36*
X296105Y-281263D02*
X295829Y-281602D01*
X293742Y-282626D01*
X293179Y-282325D01*
X291621Y-281852D01*
X290000Y-281692D01*
X288379Y-281852D01*
X286821Y-282325D01*
X285384Y-283092D01*
X284126Y-284126D01*
X283092Y-285384D01*
X282325Y-286821D01*
X281852Y-288379D01*
X281692Y-290000D01*
X281852Y-291621D01*
X282325Y-293179D01*
X282626Y-293742D01*
X281602Y-295829D01*
X281263Y-296105D01*
X-133871D01*
X-134341Y-293742D01*
X-133745Y-293496D01*
X-132168Y-292529D01*
X-130761Y-291328D01*
X-129560Y-289921D01*
X-128593Y-288344D01*
X-127885Y-286635D01*
X-127454Y-284836D01*
X-127308Y-282992D01*
X-127454Y-281148D01*
X-127885Y-279349D01*
X-128593Y-277640D01*
X-129560Y-276063D01*
X-130761Y-274657D01*
X-132168Y-273455D01*
X-133745Y-272489D01*
X-135454Y-271781D01*
X-137253Y-271349D01*
X-139097Y-271204D01*
X-140941Y-271349D01*
X-142740Y-271781D01*
X-144449Y-272489D01*
X-146026Y-273455D01*
X-147432Y-274657D01*
X-148634Y-276063D01*
X-149600Y-277640D01*
X-150308Y-279349D01*
X-150740Y-281148D01*
X-150885Y-282992D01*
X-150740Y-284836D01*
X-150308Y-286635D01*
X-149600Y-288344D01*
X-148634Y-289921D01*
X-147432Y-291328D01*
X-146026Y-292529D01*
X-144449Y-293496D01*
X-143853Y-293742D01*
X-144323Y-296105D01*
X-296105D01*
Y296105D01*
X-209031D01*
X-208052Y293742D01*
X-226267Y275527D01*
X-227352Y274257D01*
X-228225Y272833D01*
X-228864Y271289D01*
X-229254Y269665D01*
X-229385Y268000D01*
X-229254Y266335D01*
X-228864Y264710D01*
X-228225Y263167D01*
X-227352Y261743D01*
X-226267Y260473D01*
X-224997Y259388D01*
X-223573Y258515D01*
X-222030Y257876D01*
X-220405Y257486D01*
X-218740Y257355D01*
X-217075Y257486D01*
X-215451Y257876D01*
X-213907Y258515D01*
X-212483Y259388D01*
X-211213Y260473D01*
X-194443Y277243D01*
X-88688D01*
X-87023Y277374D01*
X-85398Y277764D01*
X-83855Y278403D01*
X-82431Y279276D01*
X-81161Y280361D01*
X-80076Y281631D01*
X-79203Y283055D01*
X-78564Y284598D01*
X-78174Y286223D01*
X-78043Y287888D01*
X-78174Y289553D01*
X-78564Y291177D01*
X-79203Y292721D01*
X-79829Y293742D01*
X-79395Y295076D01*
X-78643Y296105D01*
X296105D01*
Y-281263D01*
D02*
G37*
%LPC*%
G36*
X-63063Y-110058D02*
Y-115927D01*
X-57195D01*
X-57539Y-114792D01*
X-58288Y-113390D01*
X-59297Y-112161D01*
X-60526Y-111152D01*
X-61928Y-110403D01*
X-63063Y-110058D01*
D02*
G37*
G36*
X-67000D02*
X-68135Y-110403D01*
X-69537Y-111152D01*
X-70766Y-112161D01*
X-71775Y-113390D01*
X-72524Y-114792D01*
X-72868Y-115927D01*
X-67000D01*
Y-110058D01*
D02*
G37*
G36*
X-139097Y-45220D02*
X-140941Y-45365D01*
X-142740Y-45796D01*
X-144449Y-46504D01*
X-146026Y-47471D01*
X-147432Y-48672D01*
X-148634Y-50079D01*
X-149600Y-51656D01*
X-150308Y-53365D01*
X-150740Y-55164D01*
X-150885Y-57008D01*
X-150740Y-58852D01*
X-150308Y-60651D01*
X-149600Y-62360D01*
X-148634Y-63937D01*
X-147432Y-65343D01*
X-146026Y-66545D01*
X-144449Y-67511D01*
X-142740Y-68219D01*
X-140941Y-68651D01*
X-139097Y-68796D01*
X-137253Y-68651D01*
X-135454Y-68219D01*
X-133745Y-67511D01*
X-132168Y-66545D01*
X-130761Y-65343D01*
X-129560Y-63937D01*
X-128593Y-62360D01*
X-127885Y-60651D01*
X-127454Y-58852D01*
X-127308Y-57008D01*
X-127454Y-55164D01*
X-127885Y-53365D01*
X-128593Y-51656D01*
X-129560Y-50079D01*
X-130761Y-48672D01*
X-132168Y-47471D01*
X-133745Y-46504D01*
X-135454Y-45796D01*
X-137253Y-45365D01*
X-139097Y-45220D01*
D02*
G37*
G36*
X-116213Y-21439D02*
X-122081D01*
X-121737Y-22574D01*
X-120987Y-23976D01*
X-119979Y-25205D01*
X-118750Y-26213D01*
X-117348Y-26963D01*
X-116213Y-27307D01*
Y-21439D01*
D02*
G37*
G36*
X-214567Y-28906D02*
X-215840Y-29031D01*
X-217065Y-29403D01*
X-218193Y-30006D01*
X-219183Y-30817D01*
X-219994Y-31807D01*
X-220023Y-31859D01*
X-226828D01*
X-226856Y-31807D01*
X-227668Y-30817D01*
X-228657Y-30006D01*
X-229785Y-29403D01*
X-231010Y-29031D01*
X-232283Y-28906D01*
X-233557Y-29031D01*
X-234781Y-29403D01*
X-235910Y-30006D01*
X-236899Y-30817D01*
X-237711Y-31807D01*
X-238314Y-32935D01*
X-238685Y-34160D01*
X-238811Y-35433D01*
X-238685Y-36707D01*
X-238314Y-37931D01*
X-237711Y-39060D01*
X-236899Y-40049D01*
X-235910Y-40861D01*
X-234781Y-41464D01*
X-233557Y-41835D01*
X-232283Y-41961D01*
X-231010Y-41835D01*
X-229785Y-41464D01*
X-228657Y-40861D01*
X-227668Y-40049D01*
X-226856Y-39060D01*
X-226828Y-39007D01*
X-220023D01*
X-219994Y-39060D01*
X-219183Y-40049D01*
X-218193Y-40861D01*
X-217065Y-41464D01*
X-215840Y-41835D01*
X-214567Y-41961D01*
X-213294Y-41835D01*
X-212069Y-41464D01*
X-210941Y-40861D01*
X-209951Y-40049D01*
X-209139Y-39060D01*
X-208536Y-37931D01*
X-208165Y-36707D01*
X-208039Y-35433D01*
X-208165Y-34160D01*
X-208536Y-32935D01*
X-209139Y-31807D01*
X-209951Y-30817D01*
X-210941Y-30006D01*
X-212069Y-29403D01*
X-213294Y-29031D01*
X-214567Y-28906D01*
D02*
G37*
G36*
X-57195Y-119864D02*
X-63063D01*
Y-125732D01*
X-61928Y-125388D01*
X-60526Y-124638D01*
X-59297Y-123630D01*
X-58288Y-122401D01*
X-57539Y-120999D01*
X-57195Y-119864D01*
D02*
G37*
G36*
X-67000D02*
X-72868D01*
X-72524Y-120999D01*
X-71775Y-122401D01*
X-70766Y-123630D01*
X-69537Y-124638D01*
X-68135Y-125388D01*
X-67000Y-125732D01*
Y-119864D01*
D02*
G37*
G36*
X-165425Y-110058D02*
X-166560Y-110403D01*
X-167962Y-111152D01*
X-169191Y-112161D01*
X-170200Y-113390D01*
X-170949Y-114792D01*
X-171294Y-115927D01*
X-165425D01*
Y-110058D01*
D02*
G37*
G36*
X-155620Y-119864D02*
X-161488D01*
Y-125732D01*
X-160353Y-125388D01*
X-158951Y-124638D01*
X-157722Y-123630D01*
X-156714Y-122401D01*
X-155964Y-120999D01*
X-155620Y-119864D01*
D02*
G37*
G36*
X-161488Y-110058D02*
Y-115927D01*
X-155620D01*
X-155964Y-114792D01*
X-156714Y-113390D01*
X-157722Y-112161D01*
X-158951Y-111152D01*
X-160353Y-110403D01*
X-161488Y-110058D01*
D02*
G37*
G36*
X-17787Y-21439D02*
X-23656D01*
X-23312Y-22574D01*
X-22562Y-23976D01*
X-21553Y-25205D01*
X-20325Y-26213D01*
X-18923Y-26963D01*
X-17787Y-27307D01*
Y-21439D01*
D02*
G37*
G36*
X-232283Y92558D02*
X-233942Y92395D01*
X-235538Y91911D01*
X-237007Y91125D01*
X-238296Y90068D01*
X-239354Y88779D01*
X-240139Y87309D01*
X-240623Y85714D01*
X-240787Y84055D01*
X-240623Y82396D01*
X-240139Y80801D01*
X-239354Y79331D01*
X-238296Y78043D01*
X-237007Y76985D01*
X-235538Y76199D01*
X-233942Y75715D01*
X-232283Y75552D01*
X-230625Y75715D01*
X-229377Y76094D01*
X-187574Y34291D01*
Y-6204D01*
X-189857Y-7057D01*
X-191308Y-5900D01*
Y19882D01*
X-191430Y20807D01*
X-191787Y21669D01*
X-192355Y22409D01*
X-192355Y22409D01*
X-206528Y36582D01*
X-207268Y37150D01*
X-208130Y37507D01*
X-209055Y37629D01*
X-224599D01*
X-225213Y38779D01*
X-226271Y40068D01*
X-227559Y41125D01*
X-229029Y41911D01*
X-230625Y42395D01*
X-232283Y42558D01*
X-233942Y42395D01*
X-235538Y41911D01*
X-237007Y41125D01*
X-238296Y40068D01*
X-239354Y38779D01*
X-240139Y37309D01*
X-240623Y35714D01*
X-240787Y34055D01*
X-240623Y32396D01*
X-240139Y30801D01*
X-239354Y29331D01*
X-238296Y28043D01*
X-237007Y26985D01*
X-235538Y26199D01*
X-233942Y25715D01*
X-232283Y25552D01*
X-230625Y25715D01*
X-229029Y26199D01*
X-227559Y26985D01*
X-226271Y28043D01*
X-225213Y29331D01*
X-224599Y30481D01*
X-210536D01*
X-198456Y18402D01*
Y-6356D01*
X-198508Y-6384D01*
X-199497Y-7195D01*
X-200309Y-8185D01*
X-200912Y-9313D01*
X-201284Y-10538D01*
X-201409Y-11811D01*
X-201284Y-13084D01*
X-200912Y-14309D01*
X-200309Y-15438D01*
X-199497Y-16427D01*
X-198508Y-17238D01*
X-197380Y-17842D01*
X-196155Y-18213D01*
X-194882Y-18338D01*
X-193608Y-18213D01*
X-192384Y-17842D01*
X-191255Y-17238D01*
X-190266Y-16427D01*
X-189936Y-16024D01*
X-187574Y-16756D01*
Y-23071D01*
X-193551Y-29048D01*
X-193608Y-29031D01*
X-194882Y-28906D01*
X-196155Y-29031D01*
X-197380Y-29403D01*
X-198508Y-30006D01*
X-199497Y-30817D01*
X-200309Y-31807D01*
X-200912Y-32935D01*
X-201284Y-34160D01*
X-201409Y-35433D01*
X-201284Y-36707D01*
X-200912Y-37931D01*
X-200309Y-39060D01*
X-199497Y-40049D01*
X-198508Y-40861D01*
X-198456Y-40889D01*
Y-65402D01*
X-211488Y-78434D01*
X-237434D01*
X-237521Y-78272D01*
X-238357Y-77252D01*
X-239376Y-76416D01*
X-240539Y-75795D01*
X-241801Y-75412D01*
X-243113Y-75283D01*
X-244425Y-75412D01*
X-245686Y-75795D01*
X-246849Y-76416D01*
X-247868Y-77252D01*
X-248705Y-78272D01*
X-249326Y-79434D01*
X-249709Y-80696D01*
X-249838Y-82008D01*
X-249709Y-83320D01*
X-249326Y-84582D01*
X-248705Y-85744D01*
X-247868Y-86763D01*
X-246849Y-87600D01*
X-245686Y-88221D01*
X-244425Y-88604D01*
X-243113Y-88733D01*
X-241801Y-88604D01*
X-240539Y-88221D01*
X-239376Y-87600D01*
X-238357Y-86763D01*
X-237521Y-85744D01*
X-237434Y-85582D01*
X-210008D01*
X-209083Y-85460D01*
X-208578Y-85251D01*
X-208221Y-85103D01*
X-207481Y-84535D01*
X-192355Y-69409D01*
X-192355Y-69409D01*
X-191919Y-68841D01*
X-191787Y-68669D01*
X-191578Y-68164D01*
X-191430Y-67807D01*
X-191416Y-67699D01*
X-191308Y-66882D01*
X-191308Y-66882D01*
Y-40889D01*
X-191255Y-40861D01*
X-190266Y-40049D01*
X-189454Y-39060D01*
X-188851Y-37931D01*
X-188480Y-36707D01*
X-188354Y-35433D01*
X-188480Y-34160D01*
X-188497Y-34102D01*
X-181473Y-27078D01*
X-180905Y-26338D01*
X-180548Y-25476D01*
X-180426Y-24551D01*
X-180426Y-24551D01*
Y5014D01*
X-178993Y5773D01*
X-178064Y5952D01*
X-177007Y5085D01*
X-175538Y4299D01*
X-173942Y3815D01*
X-172283Y3652D01*
X-170625Y3815D01*
X-169029Y4299D01*
X-167559Y5085D01*
X-166271Y6143D01*
X-165213Y7431D01*
X-164428Y8901D01*
X-163944Y10496D01*
X-163780Y12155D01*
X-163944Y13814D01*
X-164428Y15409D01*
X-165213Y16879D01*
X-166271Y18168D01*
X-167559Y19225D01*
X-169029Y20011D01*
X-170625Y20495D01*
X-172283Y20658D01*
X-173942Y20495D01*
X-175538Y20011D01*
X-177007Y19225D01*
X-178064Y18358D01*
X-178993Y18537D01*
X-180426Y19296D01*
Y35772D01*
X-180548Y36697D01*
X-180905Y37559D01*
X-181473Y38299D01*
X-181473Y38299D01*
X-224322Y81148D01*
X-223944Y82396D01*
X-223780Y84055D01*
X-223944Y85714D01*
X-224428Y87309D01*
X-225213Y88779D01*
X-226271Y90068D01*
X-227559Y91125D01*
X-229029Y91911D01*
X-230625Y92395D01*
X-232283Y92558D01*
D02*
G37*
G36*
X183000Y-11633D02*
Y-17502D01*
X188868D01*
X188524Y-16366D01*
X187775Y-14964D01*
X186766Y-13735D01*
X185537Y-12727D01*
X184135Y-11977D01*
X183000Y-11633D01*
D02*
G37*
G36*
X-84784Y20658D02*
X-86442Y20495D01*
X-88038Y20011D01*
X-89508Y19225D01*
X-90796Y18168D01*
X-91854Y16879D01*
X-92639Y15409D01*
X-93123Y13814D01*
X-93287Y12155D01*
X-93123Y10496D01*
X-92639Y8901D01*
X-91854Y7431D01*
X-90796Y6143D01*
X-89508Y5085D01*
X-88038Y4299D01*
X-86442Y3815D01*
X-84784Y3652D01*
X-83125Y3815D01*
X-81529Y4299D01*
X-80059Y5085D01*
X-78771Y6143D01*
X-77713Y7431D01*
X-76928Y8901D01*
X-76444Y10496D01*
X-76280Y12155D01*
X-76444Y13814D01*
X-76928Y15409D01*
X-77713Y16879D01*
X-78771Y18168D01*
X-80059Y19225D01*
X-81529Y20011D01*
X-83125Y20495D01*
X-84784Y20658D01*
D02*
G37*
G36*
X124831Y59431D02*
X118963D01*
X119307Y58297D01*
X120057Y56894D01*
X121065Y55665D01*
X122294Y54657D01*
X123696Y53907D01*
X124831Y53563D01*
Y59431D01*
D02*
G37*
G36*
X206169Y29637D02*
Y23768D01*
X212037D01*
X211693Y24904D01*
X210943Y26306D01*
X209935Y27535D01*
X208706Y28543D01*
X207304Y29293D01*
X206169Y29637D01*
D02*
G37*
G36*
X179063Y-21439D02*
X173195D01*
X173539Y-22574D01*
X174288Y-23976D01*
X175297Y-25205D01*
X176526Y-26213D01*
X177928Y-26963D01*
X179063Y-27307D01*
Y-21439D01*
D02*
G37*
G36*
X-7982D02*
X-13850D01*
Y-27307D01*
X-12715Y-26963D01*
X-11313Y-26213D01*
X-10084Y-25205D01*
X-9076Y-23976D01*
X-8326Y-22574D01*
X-7982Y-21439D01*
D02*
G37*
G36*
X-17787Y-11633D02*
X-18923Y-11977D01*
X-20325Y-12727D01*
X-21553Y-13735D01*
X-22562Y-14964D01*
X-23312Y-16366D01*
X-23656Y-17502D01*
X-17787D01*
Y-11633D01*
D02*
G37*
G36*
X179063D02*
X177928Y-11977D01*
X176526Y-12727D01*
X175297Y-13735D01*
X174288Y-14964D01*
X173539Y-16366D01*
X173195Y-17502D01*
X179063D01*
Y-11633D01*
D02*
G37*
G36*
X-13850D02*
Y-17502D01*
X-7982D01*
X-8326Y-16366D01*
X-9076Y-14964D01*
X-10084Y-13735D01*
X-11313Y-12727D01*
X-12715Y-11977D01*
X-13850Y-11633D01*
D02*
G37*
G36*
X-17787Y-218289D02*
X-23656D01*
X-23312Y-219424D01*
X-22562Y-220826D01*
X-21553Y-222055D01*
X-20325Y-223064D01*
X-18923Y-223813D01*
X-17787Y-224157D01*
Y-218289D01*
D02*
G37*
G36*
X-106407D02*
X-112276D01*
Y-224157D01*
X-111141Y-223813D01*
X-109739Y-223064D01*
X-108510Y-222055D01*
X-107501Y-220826D01*
X-106752Y-219424D01*
X-106407Y-218289D01*
D02*
G37*
G36*
X-7982D02*
X-13850D01*
Y-224157D01*
X-12715Y-223813D01*
X-11313Y-223064D01*
X-10084Y-222055D01*
X-9076Y-220826D01*
X-8326Y-219424D01*
X-7982Y-218289D01*
D02*
G37*
G36*
X-210701Y-208484D02*
Y-214352D01*
X-204832D01*
X-205177Y-213217D01*
X-205926Y-211815D01*
X-206935Y-210586D01*
X-208164Y-209577D01*
X-209566Y-208828D01*
X-210701Y-208484D01*
D02*
G37*
G36*
X-214638D02*
X-215773Y-208828D01*
X-217175Y-209577D01*
X-218404Y-210586D01*
X-219412Y-211815D01*
X-220162Y-213217D01*
X-220506Y-214352D01*
X-214638D01*
Y-208484D01*
D02*
G37*
G36*
X260000Y-269808D02*
X258012Y-270004D01*
X256100Y-270584D01*
X254338Y-271526D01*
X252794Y-272794D01*
X251526Y-274338D01*
X250584Y-276100D01*
X250004Y-278012D01*
X249808Y-280000D01*
X250004Y-281988D01*
X250584Y-283900D01*
X251526Y-285662D01*
X252794Y-287207D01*
X254338Y-288474D01*
X256100Y-289416D01*
X258012Y-289996D01*
X260000Y-290192D01*
X261988Y-289996D01*
X263900Y-289416D01*
X265662Y-288474D01*
X267207Y-287207D01*
X268474Y-285662D01*
X269416Y-283900D01*
X269996Y-281988D01*
X270192Y-280000D01*
X269996Y-278012D01*
X269416Y-276100D01*
X268474Y-274338D01*
X267207Y-272794D01*
X265662Y-271526D01*
X263900Y-270584D01*
X261988Y-270004D01*
X260000Y-269808D01*
D02*
G37*
G36*
X-280000D02*
X-281988Y-270004D01*
X-283900Y-270584D01*
X-285662Y-271526D01*
X-287207Y-272794D01*
X-288474Y-274338D01*
X-289416Y-276100D01*
X-289996Y-278012D01*
X-290192Y-280000D01*
X-289996Y-281988D01*
X-289416Y-283900D01*
X-288474Y-285662D01*
X-287207Y-287207D01*
X-285662Y-288474D01*
X-283900Y-289416D01*
X-281988Y-289996D01*
X-280000Y-290192D01*
X-278012Y-289996D01*
X-276100Y-289416D01*
X-274338Y-288474D01*
X-272794Y-287207D01*
X-271526Y-285662D01*
X-270584Y-283900D01*
X-270004Y-281988D01*
X-269808Y-280000D01*
X-270004Y-278012D01*
X-270584Y-276100D01*
X-271526Y-274338D01*
X-272794Y-272794D01*
X-274338Y-271526D01*
X-276100Y-270584D01*
X-278012Y-270004D01*
X-280000Y-269808D01*
D02*
G37*
G36*
X-214638Y-218289D02*
X-220506D01*
X-220162Y-219424D01*
X-219412Y-220826D01*
X-218404Y-222055D01*
X-217175Y-223064D01*
X-215773Y-223813D01*
X-214638Y-224157D01*
Y-218289D01*
D02*
G37*
G36*
X-116213D02*
X-122081D01*
X-121737Y-219424D01*
X-120987Y-220826D01*
X-119979Y-222055D01*
X-118750Y-223064D01*
X-117348Y-223813D01*
X-116213Y-224157D01*
Y-218289D01*
D02*
G37*
G36*
X-204832D02*
X-210701D01*
Y-224157D01*
X-209566Y-223813D01*
X-208164Y-223064D01*
X-206935Y-222055D01*
X-205926Y-220826D01*
X-205177Y-219424D01*
X-204832Y-218289D01*
D02*
G37*
G36*
X-116213Y-208484D02*
X-117348Y-208828D01*
X-118750Y-209577D01*
X-119979Y-210586D01*
X-120987Y-211815D01*
X-121737Y-213217D01*
X-122081Y-214352D01*
X-116213D01*
Y-208484D01*
D02*
G37*
G36*
X-235070Y-133976D02*
X-241144D01*
Y-140050D01*
X-239933Y-139683D01*
X-238497Y-138916D01*
X-237238Y-137882D01*
X-236205Y-136623D01*
X-235437Y-135187D01*
X-235070Y-133976D01*
D02*
G37*
G36*
X-245081D02*
X-251155D01*
X-250788Y-135187D01*
X-250020Y-136623D01*
X-248987Y-137882D01*
X-247728Y-138916D01*
X-246292Y-139683D01*
X-245081Y-140050D01*
Y-133976D01*
D02*
G37*
G36*
Y-123965D02*
X-246292Y-124332D01*
X-247728Y-125100D01*
X-248987Y-126133D01*
X-250020Y-127392D01*
X-250788Y-128829D01*
X-251155Y-130039D01*
X-245081D01*
Y-123965D01*
D02*
G37*
G36*
X-165425Y-119864D02*
X-171294D01*
X-170949Y-120999D01*
X-170200Y-122401D01*
X-169191Y-123630D01*
X-167962Y-124638D01*
X-166560Y-125388D01*
X-165425Y-125732D01*
Y-119864D01*
D02*
G37*
G36*
X-241144Y-123965D02*
Y-130039D01*
X-235070D01*
X-235437Y-128829D01*
X-236205Y-127392D01*
X-237238Y-126133D01*
X-238497Y-125100D01*
X-239933Y-124332D01*
X-241144Y-123965D01*
D02*
G37*
G36*
X-17787Y-208484D02*
X-18923Y-208828D01*
X-20325Y-209577D01*
X-21553Y-210586D01*
X-22562Y-211815D01*
X-23312Y-213217D01*
X-23656Y-214352D01*
X-17787D01*
Y-208484D01*
D02*
G37*
G36*
X-112276D02*
Y-214352D01*
X-106407D01*
X-106752Y-213217D01*
X-107501Y-211815D01*
X-108510Y-210586D01*
X-109739Y-209577D01*
X-111141Y-208828D01*
X-112276Y-208484D01*
D02*
G37*
G36*
X-13850D02*
Y-214352D01*
X-7982D01*
X-8326Y-213217D01*
X-9076Y-211815D01*
X-10084Y-210586D01*
X-11313Y-209577D01*
X-12715Y-208828D01*
X-13850Y-208484D01*
D02*
G37*
G36*
X275590Y-181552D02*
X273690Y-181702D01*
X271836Y-182147D01*
X270075Y-182876D01*
X268450Y-183872D01*
X267000Y-185110D01*
X265762Y-186560D01*
X264766Y-188186D01*
X264037Y-189947D01*
X263592Y-191800D01*
X263442Y-193701D01*
X263592Y-195601D01*
X264037Y-197455D01*
X264766Y-199216D01*
X265762Y-200841D01*
X267000Y-202291D01*
X268450Y-203529D01*
X270075Y-204525D01*
X271836Y-205255D01*
X273690Y-205700D01*
X275590Y-205849D01*
X277491Y-205700D01*
X279345Y-205255D01*
X281106Y-204525D01*
X282731Y-203529D01*
X284181Y-202291D01*
X285419Y-200841D01*
X286415Y-199216D01*
X287144Y-197455D01*
X287589Y-195601D01*
X287739Y-193701D01*
X287589Y-191800D01*
X287144Y-189947D01*
X286415Y-188186D01*
X285419Y-186560D01*
X284181Y-185110D01*
X282731Y-183872D01*
X281106Y-182876D01*
X279345Y-182147D01*
X277491Y-181702D01*
X275590Y-181552D01*
D02*
G37*
G36*
X-275590D02*
X-277491Y-181702D01*
X-279345Y-182147D01*
X-281106Y-182876D01*
X-282731Y-183872D01*
X-284181Y-185110D01*
X-285419Y-186560D01*
X-286415Y-188186D01*
X-287144Y-189947D01*
X-287589Y-191800D01*
X-287739Y-193701D01*
X-287589Y-195601D01*
X-287144Y-197455D01*
X-286415Y-199216D01*
X-285419Y-200841D01*
X-284181Y-202291D01*
X-282731Y-203529D01*
X-281106Y-204525D01*
X-279345Y-205255D01*
X-277491Y-205700D01*
X-275590Y-205849D01*
X-273690Y-205700D01*
X-271836Y-205255D01*
X-270075Y-204525D01*
X-268450Y-203529D01*
X-267000Y-202291D01*
X-265762Y-200841D01*
X-264766Y-199216D01*
X-264037Y-197455D01*
X-263592Y-195601D01*
X-263442Y-193701D01*
X-263592Y-191800D01*
X-264037Y-189947D01*
X-264766Y-188186D01*
X-265762Y-186560D01*
X-267000Y-185110D01*
X-268450Y-183872D01*
X-270075Y-182876D01*
X-271836Y-182147D01*
X-273690Y-181702D01*
X-275590Y-181552D01*
D02*
G37*
G36*
X124831Y69237D02*
X123696Y68893D01*
X122294Y68143D01*
X121065Y67135D01*
X120057Y65906D01*
X119307Y64504D01*
X118963Y63368D01*
X124831D01*
Y69237D01*
D02*
G37*
G36*
X-203863Y219232D02*
X-209732D01*
Y213363D01*
X-208596Y213707D01*
X-207194Y214457D01*
X-205965Y215465D01*
X-204957Y216694D01*
X-204207Y218096D01*
X-203863Y219232D01*
D02*
G37*
G36*
X-213668D02*
X-219537D01*
X-219193Y218096D01*
X-218443Y216694D01*
X-217435Y215465D01*
X-216206Y214457D01*
X-214804Y213707D01*
X-213668Y213363D01*
Y219232D01*
D02*
G37*
G36*
Y229037D02*
X-214804Y228693D01*
X-216206Y227943D01*
X-217435Y226935D01*
X-218443Y225706D01*
X-219193Y224304D01*
X-219537Y223168D01*
X-213668D01*
Y229037D01*
D02*
G37*
G36*
X-256569Y243531D02*
X-262437D01*
X-262093Y242396D01*
X-261343Y240994D01*
X-260335Y239765D01*
X-259106Y238757D01*
X-257703Y238007D01*
X-256569Y237663D01*
Y243531D01*
D02*
G37*
G36*
X-209732Y229037D02*
Y223168D01*
X-203863D01*
X-204207Y224304D01*
X-204957Y225706D01*
X-205965Y226935D01*
X-207194Y227943D01*
X-208596Y228693D01*
X-209732Y229037D01*
D02*
G37*
G36*
X13069Y153637D02*
Y147768D01*
X18937D01*
X18593Y148904D01*
X17843Y150306D01*
X16835Y151535D01*
X15606Y152543D01*
X14203Y153293D01*
X13069Y153637D01*
D02*
G37*
G36*
X9132D02*
X7997Y153293D01*
X6594Y152543D01*
X5365Y151535D01*
X4357Y150306D01*
X3607Y148904D01*
X3263Y147768D01*
X9132D01*
Y153637D01*
D02*
G37*
G36*
X106273Y192669D02*
X105219Y192530D01*
X104238Y192124D01*
X103396Y191477D01*
X102749Y190634D01*
X102343Y189653D01*
X102204Y188600D01*
X102343Y187547D01*
X102749Y186566D01*
X103396Y185723D01*
X104238Y185076D01*
X105219Y184670D01*
X106273Y184531D01*
X107326Y184670D01*
X108307Y185076D01*
X109150Y185723D01*
X109796Y186566D01*
X110203Y187547D01*
X110341Y188600D01*
X110203Y189653D01*
X109796Y190634D01*
X109150Y191477D01*
X108307Y192124D01*
X107326Y192530D01*
X106273Y192669D01*
D02*
G37*
G36*
X-255800Y222128D02*
X-257073Y222002D01*
X-258298Y221631D01*
X-259426Y221027D01*
X-260416Y220216D01*
X-261227Y219227D01*
X-261831Y218098D01*
X-262202Y216874D01*
X-262328Y215600D01*
X-262202Y214327D01*
X-262185Y214269D01*
X-276227Y200227D01*
X-276795Y199487D01*
X-277152Y198625D01*
X-277274Y197700D01*
Y163756D01*
X-277326Y163727D01*
X-278316Y162916D01*
X-279127Y161926D01*
X-279731Y160798D01*
X-280102Y159573D01*
X-280227Y158300D01*
X-280102Y157027D01*
X-280085Y156969D01*
X-285727Y151327D01*
X-286295Y150587D01*
X-286652Y149725D01*
X-286774Y148800D01*
Y56822D01*
X-286652Y55897D01*
X-286295Y55035D01*
X-285727Y54295D01*
X-220952Y-10481D01*
X-220969Y-10538D01*
X-221094Y-11811D01*
X-220969Y-13084D01*
X-220598Y-14309D01*
X-219994Y-15438D01*
X-219183Y-16427D01*
X-218193Y-17238D01*
X-217065Y-17842D01*
X-215840Y-18213D01*
X-214567Y-18338D01*
X-213294Y-18213D01*
X-212069Y-17842D01*
X-210941Y-17238D01*
X-209951Y-16427D01*
X-209139Y-15438D01*
X-208536Y-14309D01*
X-208165Y-13084D01*
X-208039Y-11811D01*
X-208165Y-10538D01*
X-208536Y-9313D01*
X-209139Y-8185D01*
X-209951Y-7195D01*
X-210941Y-6384D01*
X-211026Y-6338D01*
Y1644D01*
X-210974Y1673D01*
X-209984Y2484D01*
X-209173Y3474D01*
X-208569Y4602D01*
X-208198Y5827D01*
X-208072Y7100D01*
X-208198Y8373D01*
X-208569Y9598D01*
X-209173Y10727D01*
X-209984Y11716D01*
X-210974Y12527D01*
X-212102Y13131D01*
X-213327Y13502D01*
X-214600Y13627D01*
X-215874Y13502D01*
X-217098Y13131D01*
X-218227Y12527D01*
X-219216Y11716D01*
X-220027Y10727D01*
X-220631Y9598D01*
X-221002Y8373D01*
X-221128Y7100D01*
X-221002Y5827D01*
X-220631Y4602D01*
X-220027Y3474D01*
X-219216Y2484D01*
X-218770Y2119D01*
X-218862Y879D01*
X-220873Y-18D01*
X-221300Y-24D01*
X-279626Y58302D01*
Y147320D01*
X-275030Y151915D01*
X-274974Y151898D01*
X-273700Y151772D01*
X-272427Y151898D01*
X-271202Y152269D01*
X-270074Y152873D01*
X-269084Y153684D01*
X-268273Y154674D01*
X-267669Y155802D01*
X-267298Y157027D01*
X-267173Y158300D01*
X-267298Y159573D01*
X-267669Y160798D01*
X-268273Y161926D01*
X-269084Y162916D01*
X-270074Y163727D01*
X-270126Y163756D01*
Y196220D01*
X-257131Y209215D01*
X-257073Y209198D01*
X-255800Y209072D01*
X-254526Y209198D01*
X-253302Y209569D01*
X-252173Y210173D01*
X-251184Y210984D01*
X-250373Y211974D01*
X-249769Y213102D01*
X-249398Y214327D01*
X-249272Y215600D01*
X-249398Y216874D01*
X-249769Y218098D01*
X-250373Y219227D01*
X-251184Y220216D01*
X-252173Y221027D01*
X-253302Y221631D01*
X-254526Y222002D01*
X-255800Y222128D01*
D02*
G37*
G36*
X218922Y277890D02*
X216993Y277700D01*
X215137Y277137D01*
X213428Y276223D01*
X211929Y274993D01*
X210699Y273495D01*
X209785Y271785D01*
X209222Y269930D01*
X209032Y268000D01*
X209128Y267028D01*
X204310Y262210D01*
X203547Y261281D01*
X202980Y260221D01*
X202632Y259071D01*
X202514Y257874D01*
Y233316D01*
X202212Y233068D01*
X201080Y231690D01*
X200239Y230117D01*
X199722Y228410D01*
X199547Y226635D01*
X199722Y224859D01*
X200239Y223153D01*
X201080Y221580D01*
X202212Y220201D01*
X202514Y219953D01*
Y212168D01*
X202212Y211920D01*
X201080Y210541D01*
X200239Y208968D01*
X200234Y208951D01*
X197766D01*
X197761Y208968D01*
X196920Y210541D01*
X195788Y211920D01*
X195486Y212168D01*
Y260088D01*
X195368Y261284D01*
X195019Y262434D01*
X194453Y263494D01*
X193690Y264423D01*
X191223Y266891D01*
X191332Y268000D01*
X191142Y269930D01*
X190579Y271785D01*
X189665Y273495D01*
X188435Y274993D01*
X186937Y276223D01*
X185227Y277137D01*
X183371Y277700D01*
X181442Y277890D01*
X179512Y277700D01*
X177657Y277137D01*
X175947Y276223D01*
X174449Y274993D01*
X173219Y273495D01*
X172305Y271785D01*
X171742Y269930D01*
X171552Y268000D01*
X171742Y266071D01*
X172305Y264215D01*
X173219Y262505D01*
X174449Y261007D01*
X175947Y259777D01*
X177657Y258863D01*
X179512Y258300D01*
X181442Y258110D01*
X183222Y256103D01*
Y212168D01*
X182920Y211920D01*
X181789Y210541D01*
X180948Y208968D01*
X180430Y207261D01*
X180255Y205486D01*
X180430Y203711D01*
X180948Y202004D01*
X181789Y200431D01*
X182920Y199052D01*
X184299Y197921D01*
X185872Y197080D01*
X187579Y196562D01*
X189354Y196387D01*
X191129Y196562D01*
X192836Y197080D01*
X194409Y197921D01*
X195788Y199052D01*
X196920Y200431D01*
X197761Y202004D01*
X197766Y202021D01*
X200234D01*
X200239Y202004D01*
X201080Y200431D01*
X202212Y199052D01*
X203591Y197921D01*
X205164Y197080D01*
X206871Y196562D01*
X208646Y196387D01*
X210421Y196562D01*
X212128Y197080D01*
X213701Y197921D01*
X215080Y199052D01*
X216211Y200431D01*
X217052Y202004D01*
X217570Y203711D01*
X217745Y205486D01*
X217570Y207261D01*
X217052Y208968D01*
X216211Y210541D01*
X215080Y211920D01*
X214778Y212168D01*
Y219953D01*
X215080Y220201D01*
X215586Y220818D01*
X215640Y220867D01*
X218273Y221573D01*
X219402Y220969D01*
X220626Y220598D01*
X221538Y220508D01*
X270226Y171820D01*
Y162432D01*
X267864Y161433D01*
X267627Y161627D01*
X266498Y162231D01*
X265273Y162602D01*
X264000Y162727D01*
X262726Y162602D01*
X261502Y162231D01*
X260373Y161627D01*
X259384Y160816D01*
X258573Y159827D01*
X257969Y158698D01*
X257598Y157474D01*
X257472Y156200D01*
X257598Y154927D01*
X257969Y153702D01*
X258573Y152574D01*
X259384Y151584D01*
X260373Y150773D01*
X260426Y150744D01*
Y77480D01*
X222931Y39985D01*
X222873Y40002D01*
X221600Y40128D01*
X220326Y40002D01*
X219102Y39631D01*
X217973Y39027D01*
X216984Y38216D01*
X216173Y37227D01*
X215569Y36098D01*
X215198Y34874D01*
X215072Y33600D01*
X215198Y32326D01*
X215569Y31102D01*
X216173Y29974D01*
X216984Y28984D01*
X217973Y28173D01*
X219102Y27569D01*
X220326Y27198D01*
X221600Y27073D01*
X222873Y27198D01*
X224098Y27569D01*
X225226Y28173D01*
X226216Y28984D01*
X227027Y29974D01*
X227631Y31102D01*
X228002Y32326D01*
X228128Y33600D01*
X228002Y34874D01*
X227985Y34931D01*
X266527Y73473D01*
X266527Y73473D01*
X266774Y73794D01*
X267095Y74213D01*
X267348Y74823D01*
X267452Y75075D01*
X267466Y75183D01*
X267574Y76000D01*
X267574Y76000D01*
Y148525D01*
X267864Y148717D01*
X270226Y147449D01*
Y65680D01*
X219064Y14519D01*
X211671D01*
X210604Y16881D01*
X210943Y17294D01*
X211693Y18697D01*
X212037Y19831D01*
X196363D01*
X196707Y18697D01*
X197457Y17294D01*
X197796Y16881D01*
X196729Y14519D01*
X109584D01*
X108760Y15945D01*
X109584Y17371D01*
X185745D01*
X186670Y17493D01*
X187532Y17850D01*
X188272Y18418D01*
X194013Y24159D01*
X195135Y23768D01*
X202232D01*
Y30865D01*
X201841Y31987D01*
X231927Y62073D01*
X232495Y62813D01*
X232852Y63675D01*
X232974Y64600D01*
Y87545D01*
X233027Y87573D01*
X234016Y88384D01*
X234827Y89373D01*
X235431Y90502D01*
X235802Y91726D01*
X235928Y93000D01*
X235802Y94274D01*
X235767Y94388D01*
X236599Y95864D01*
X237146Y96489D01*
X237477Y96681D01*
X238309Y96763D01*
X239533Y97134D01*
X240662Y97737D01*
X241651Y98549D01*
X242463Y99538D01*
X243066Y100667D01*
X243438Y101891D01*
X243563Y103165D01*
X243438Y104438D01*
X243066Y105663D01*
X242463Y106791D01*
X241651Y107780D01*
X240662Y108592D01*
X240609Y108620D01*
Y160465D01*
X240609Y160465D01*
X240488Y161390D01*
X240130Y162251D01*
X239563Y162992D01*
X226739Y175816D01*
X226816Y177384D01*
X227627Y178374D01*
X228231Y179502D01*
X228602Y180727D01*
X228728Y182000D01*
X228602Y183273D01*
X228231Y184498D01*
X227627Y185626D01*
X226816Y186616D01*
X225827Y187427D01*
X224698Y188031D01*
X223474Y188402D01*
X222200Y188528D01*
X220926Y188402D01*
X219702Y188031D01*
X218573Y187427D01*
X217584Y186616D01*
X216773Y185626D01*
X216169Y184498D01*
X215798Y183273D01*
X215672Y182000D01*
X215798Y180727D01*
X216169Y179502D01*
X216773Y178374D01*
X217584Y177384D01*
X218573Y176573D01*
X218626Y176544D01*
Y175300D01*
X218748Y174375D01*
X219105Y173513D01*
X219673Y172773D01*
X233462Y158984D01*
Y108620D01*
X233409Y108592D01*
X232420Y107780D01*
X231608Y106791D01*
X231005Y105663D01*
X230633Y104438D01*
X230508Y103165D01*
X230626Y101971D01*
X229435Y100217D01*
X229290Y100015D01*
X228276Y99981D01*
X227700Y100572D01*
X227448Y101005D01*
X227112Y102305D01*
X227195Y102413D01*
X227448Y103023D01*
X227552Y103275D01*
X227566Y103383D01*
X227674Y104200D01*
X227674Y104200D01*
Y125744D01*
X227727Y125773D01*
X228716Y126584D01*
X229527Y127574D01*
X230131Y128702D01*
X230502Y129927D01*
X230627Y131200D01*
X230502Y132474D01*
X230131Y133698D01*
X229527Y134827D01*
X228716Y135816D01*
X227727Y136627D01*
X226598Y137231D01*
X225374Y137602D01*
X224100Y137727D01*
X222827Y137602D01*
X221602Y137231D01*
X220474Y136627D01*
X219484Y135816D01*
X218673Y134827D01*
X218069Y133698D01*
X217698Y132474D01*
X217572Y131200D01*
X217698Y129927D01*
X218069Y128702D01*
X218673Y127574D01*
X219484Y126584D01*
X220474Y125773D01*
X220526Y125744D01*
Y109887D01*
X218164Y109397D01*
X217827Y110027D01*
X217016Y111016D01*
X216026Y111827D01*
X214898Y112431D01*
X213673Y112802D01*
X212400Y112927D01*
X211126Y112802D01*
X209902Y112431D01*
X208773Y111827D01*
X207784Y111016D01*
X206973Y110027D01*
X206944Y109974D01*
X198957D01*
X198032Y109852D01*
X197544Y109650D01*
X196567Y109707D01*
X194874Y110304D01*
X194658Y110495D01*
X194427Y110926D01*
X193616Y111916D01*
X192627Y112727D01*
X191498Y113331D01*
X190273Y113702D01*
X189000Y113828D01*
X187726Y113702D01*
X187670Y113685D01*
X182474Y118880D01*
Y127544D01*
X182527Y127573D01*
X183516Y128384D01*
X184327Y129374D01*
X184931Y130502D01*
X185302Y131727D01*
X185427Y133000D01*
X185302Y134274D01*
X184931Y135498D01*
X184327Y136627D01*
X183516Y137616D01*
X182527Y138427D01*
X181398Y139031D01*
X180174Y139402D01*
X178900Y139527D01*
X177627Y139402D01*
X176402Y139031D01*
X175274Y138427D01*
X174284Y137616D01*
X173473Y136627D01*
X172869Y135498D01*
X172498Y134274D01*
X172372Y133000D01*
X172498Y131727D01*
X172869Y130502D01*
X173473Y129374D01*
X174284Y128384D01*
X175274Y127573D01*
X175326Y127544D01*
Y117400D01*
X175448Y116475D01*
X175805Y115613D01*
X176373Y114873D01*
X182615Y108631D01*
X182598Y108573D01*
X182473Y107300D01*
X182598Y106026D01*
X182740Y105559D01*
X181750Y103727D01*
X181149Y103197D01*
X150258D01*
X139006Y114448D01*
Y126277D01*
X139059Y126305D01*
X140048Y127117D01*
X140860Y128106D01*
X141463Y129234D01*
X141834Y130459D01*
X141960Y131732D01*
X141834Y133006D01*
X141463Y134230D01*
X140860Y135359D01*
X140048Y136348D01*
X139059Y137160D01*
X137930Y137763D01*
X136706Y138134D01*
X135432Y138260D01*
X134159Y138134D01*
X133690Y137992D01*
X131859Y138981D01*
X131328Y139583D01*
Y145758D01*
X133118Y147438D01*
X133135Y147436D01*
X134911Y147611D01*
X136618Y148129D01*
X138190Y148970D01*
X139569Y150101D01*
X140701Y151480D01*
X141542Y153053D01*
X142060Y154760D01*
X142234Y156535D01*
X142060Y158310D01*
X141542Y160018D01*
X140701Y161591D01*
X139569Y162969D01*
X138190Y164101D01*
X136618Y164942D01*
X134911Y165460D01*
X133135Y165634D01*
X131360Y165460D01*
X129653Y164942D01*
X128080Y164101D01*
X126701Y162969D01*
X125570Y161591D01*
X124729Y160018D01*
X124211Y158310D01*
X124189Y158082D01*
X123849Y157865D01*
X121486Y159161D01*
Y172632D01*
X125870Y177015D01*
X125926Y176998D01*
X127200Y176873D01*
X128473Y176998D01*
X129698Y177369D01*
X130826Y177973D01*
X131816Y178784D01*
X132627Y179773D01*
X133231Y180902D01*
X133602Y182126D01*
X133728Y183400D01*
X133602Y184674D01*
X133231Y185898D01*
X132627Y187027D01*
X131816Y188016D01*
X130826Y188827D01*
X129698Y189431D01*
X128473Y189802D01*
X127200Y189927D01*
X125926Y189802D01*
X124702Y189431D01*
X123574Y188827D01*
X122584Y188016D01*
X121773Y187027D01*
X121169Y185898D01*
X120798Y184674D01*
X120673Y183400D01*
X120798Y182126D01*
X120815Y182070D01*
X115385Y176640D01*
X114818Y175900D01*
X114670Y175542D01*
X114461Y175038D01*
X114339Y174113D01*
Y105499D01*
X113384Y104716D01*
X112573Y103726D01*
X111969Y102598D01*
X111598Y101374D01*
X111472Y100100D01*
X111598Y98826D01*
X111969Y97602D01*
X112573Y96473D01*
X113384Y95484D01*
X114374Y94673D01*
X115502Y94069D01*
X116727Y93698D01*
X118000Y93572D01*
X119273Y93698D01*
X120498Y94069D01*
X121626Y94673D01*
X122616Y95484D01*
X123427Y96473D01*
X124031Y97602D01*
X124113Y97874D01*
X126322Y98626D01*
X126746Y98582D01*
X136768Y88560D01*
Y64480D01*
X134406Y64130D01*
X134293Y64504D01*
X133543Y65906D01*
X132535Y67135D01*
X131306Y68143D01*
X129903Y68893D01*
X128769Y69237D01*
Y61400D01*
Y53563D01*
X129903Y53907D01*
X131306Y54657D01*
X132535Y55665D01*
X133543Y56894D01*
X134293Y58297D01*
X134406Y58670D01*
X136768Y58320D01*
Y41100D01*
X136886Y39904D01*
X137235Y38753D01*
X137802Y37693D01*
X138564Y36764D01*
X139239Y36089D01*
X139201Y35700D01*
X139376Y33925D01*
X139894Y32218D01*
X140735Y30645D01*
X141866Y29266D01*
X143245Y28135D01*
X144818Y27294D01*
X146179Y26881D01*
X145828Y24519D01*
X108375D01*
X107025Y26575D01*
X107351Y27538D01*
X107917Y28598D01*
X108266Y29749D01*
X108384Y30945D01*
X108266Y32141D01*
X107917Y33291D01*
X107351Y34352D01*
X106588Y35281D01*
X105774Y35949D01*
Y51445D01*
X105826Y51473D01*
X106816Y52284D01*
X107627Y53273D01*
X108231Y54402D01*
X108602Y55626D01*
X108728Y56900D01*
X108602Y58174D01*
X108231Y59398D01*
X107627Y60527D01*
X106816Y61516D01*
X105826Y62327D01*
X104698Y62931D01*
X103473Y63302D01*
X102200Y63428D01*
X100926Y63302D01*
X99702Y62931D01*
X98738Y62415D01*
X98100Y62597D01*
X96375Y63579D01*
Y107837D01*
X96254Y108762D01*
X95897Y109624D01*
X95329Y110364D01*
X92874Y112819D01*
Y189820D01*
X121969Y218915D01*
X122027Y218898D01*
X123300Y218773D01*
X124574Y218898D01*
X125798Y219269D01*
X126927Y219873D01*
X127916Y220684D01*
X128727Y221673D01*
X129331Y222802D01*
X129702Y224026D01*
X129827Y225300D01*
X129702Y226573D01*
X129331Y227798D01*
X128727Y228926D01*
X127916Y229916D01*
X126927Y230727D01*
X125798Y231331D01*
X124574Y231702D01*
X123300Y231827D01*
X122027Y231702D01*
X120802Y231331D01*
X119674Y230727D01*
X118684Y229916D01*
X117873Y228926D01*
X117269Y227798D01*
X116898Y226573D01*
X116772Y225300D01*
X116898Y224026D01*
X116915Y223970D01*
X86773Y193827D01*
X86205Y193087D01*
X85848Y192225D01*
X85726Y191300D01*
Y149366D01*
X83846Y148008D01*
X83364Y147897D01*
X82370Y148198D01*
X81096Y148324D01*
X79823Y148198D01*
X78598Y147827D01*
X77470Y147223D01*
X76481Y146412D01*
X75669Y145423D01*
X75065Y144294D01*
X74694Y143070D01*
X74569Y141796D01*
X74694Y140523D01*
X75065Y139298D01*
X75669Y138170D01*
X76481Y137180D01*
X77470Y136369D01*
X77522Y136341D01*
Y112861D01*
X77644Y111936D01*
X77944Y111212D01*
X77996Y110963D01*
X77976Y110487D01*
X77515Y108808D01*
X77205Y108358D01*
X76774Y108127D01*
X75784Y107316D01*
X74973Y106326D01*
X74369Y105198D01*
X73998Y103973D01*
X73873Y102700D01*
X73998Y101426D01*
X74369Y100202D01*
X74973Y99073D01*
X75784Y98084D01*
X76774Y97273D01*
X76826Y97245D01*
Y82915D01*
X74644Y82011D01*
X45985Y110670D01*
X46002Y110726D01*
X46128Y112000D01*
X46002Y113274D01*
X45631Y114498D01*
X45027Y115627D01*
X44216Y116616D01*
X43227Y117427D01*
X42098Y118031D01*
X40874Y118402D01*
X39600Y118527D01*
X38326Y118402D01*
X37102Y118031D01*
X35974Y117427D01*
X34984Y116616D01*
X34173Y115627D01*
X33569Y114498D01*
X33198Y113274D01*
X33073Y112000D01*
X33198Y110726D01*
X33569Y109502D01*
X34173Y108373D01*
X34984Y107384D01*
X35974Y106573D01*
X37102Y105969D01*
X38326Y105598D01*
X39600Y105473D01*
X40874Y105598D01*
X40931Y105615D01*
X72102Y74444D01*
Y46939D01*
X69919Y46035D01*
X54485Y61470D01*
X54502Y61527D01*
X54628Y62800D01*
X54502Y64073D01*
X54131Y65298D01*
X53527Y66426D01*
X52716Y67416D01*
X51727Y68227D01*
X50598Y68831D01*
X49373Y69202D01*
X48100Y69327D01*
X46826Y69202D01*
X45602Y68831D01*
X44473Y68227D01*
X43484Y67416D01*
X42673Y66426D01*
X42069Y65298D01*
X41698Y64073D01*
X41572Y62800D01*
X41698Y61527D01*
X42069Y60302D01*
X42673Y59174D01*
X43336Y58365D01*
X43485Y57910D01*
X43279Y55483D01*
X43245Y55430D01*
X42984Y55216D01*
X42173Y54226D01*
X41569Y53098D01*
X41198Y51873D01*
X41072Y50600D01*
X41198Y49327D01*
X41569Y48102D01*
X41658Y47936D01*
X40515Y45724D01*
X40317Y45574D01*
X17529D01*
X17501Y45627D01*
X16689Y46616D01*
X15700Y47427D01*
X14571Y48031D01*
X13347Y48402D01*
X12073Y48528D01*
X10800Y48402D01*
X9576Y48031D01*
X8447Y47427D01*
X7458Y46616D01*
X6646Y45627D01*
X6043Y44498D01*
X5672Y43273D01*
X5546Y42000D01*
X5672Y40727D01*
X6043Y39502D01*
X6646Y38374D01*
X7458Y37384D01*
X8447Y36573D01*
X9576Y35969D01*
X10800Y35598D01*
X12073Y35473D01*
X13347Y35598D01*
X14571Y35969D01*
X15700Y36573D01*
X16689Y37384D01*
X17501Y38374D01*
X17529Y38426D01*
X37505D01*
X38096Y36064D01*
X38058Y36043D01*
X37129Y35281D01*
X36366Y34352D01*
X35799Y33291D01*
X35451Y32141D01*
X35333Y30945D01*
X35451Y29749D01*
X35799Y28598D01*
X36366Y27538D01*
X37129Y26609D01*
Y25281D01*
X36366Y24352D01*
X35799Y23291D01*
X35451Y22141D01*
X35333Y20945D01*
X35451Y19749D01*
X35799Y18598D01*
X36366Y17538D01*
X36904Y15945D01*
X36366Y14352D01*
X35799Y13292D01*
X35451Y12141D01*
X35333Y10945D01*
X35451Y9749D01*
X35799Y8598D01*
X36366Y7538D01*
X37129Y6609D01*
Y5281D01*
X36366Y4352D01*
X35799Y3291D01*
X35451Y2141D01*
X35333Y945D01*
X35451Y-251D01*
X35799Y-1402D01*
X36366Y-2462D01*
X37129Y-3391D01*
Y-4719D01*
X36366Y-5648D01*
X35799Y-6708D01*
X35451Y-7859D01*
X35333Y-9055D01*
X35451Y-10251D01*
X35529Y-10510D01*
X34853Y-11634D01*
X34214Y-12278D01*
X33732Y-12545D01*
X33000Y-12472D01*
X31727Y-12598D01*
X30502Y-12969D01*
X29373Y-13573D01*
X28384Y-14384D01*
X27573Y-15373D01*
X26969Y-16502D01*
X26598Y-17727D01*
X26472Y-19000D01*
X26598Y-20273D01*
X26969Y-21498D01*
X27573Y-22626D01*
X28384Y-23616D01*
X29373Y-24427D01*
X30502Y-25031D01*
X31727Y-25402D01*
X33000Y-25528D01*
X33794Y-25449D01*
X34446Y-25859D01*
X34761Y-26185D01*
X35566Y-27479D01*
X35451Y-27859D01*
X35333Y-29055D01*
X35451Y-30251D01*
X35799Y-31402D01*
X36366Y-32462D01*
X37129Y-33391D01*
Y-34719D01*
X36366Y-35648D01*
X35799Y-36709D01*
X35451Y-37859D01*
X35333Y-39055D01*
X35451Y-40251D01*
X35799Y-41402D01*
X36366Y-42462D01*
X36275Y-43382D01*
X36010Y-43600D01*
X35050Y-44769D01*
X34337Y-46103D01*
X34039Y-47087D01*
X49678D01*
X49379Y-46103D01*
X48666Y-44769D01*
X47707Y-43600D01*
X47441Y-43382D01*
X47350Y-42462D01*
X47917Y-41402D01*
X48266Y-40251D01*
X48384Y-39055D01*
X48266Y-37859D01*
X47917Y-36709D01*
X47350Y-35648D01*
X46588Y-34719D01*
Y-33391D01*
X47350Y-32462D01*
X47917Y-31402D01*
X48266Y-30251D01*
X48384Y-29055D01*
X48266Y-27859D01*
X47917Y-26709D01*
X47350Y-25648D01*
X46588Y-24719D01*
Y-23391D01*
X47350Y-22462D01*
X47917Y-21402D01*
X48266Y-20251D01*
X48384Y-19055D01*
X48266Y-17859D01*
X47917Y-16709D01*
X47350Y-15648D01*
X46588Y-14719D01*
Y-13391D01*
X47350Y-12462D01*
X47917Y-11402D01*
X48266Y-10251D01*
X48384Y-9055D01*
X48266Y-7859D01*
X47917Y-6708D01*
X47350Y-5648D01*
X46588Y-4719D01*
Y-3391D01*
X47350Y-2462D01*
X47917Y-1402D01*
X48266Y-251D01*
X48384Y945D01*
X48266Y2141D01*
X47917Y3291D01*
X47350Y4352D01*
X46588Y5281D01*
Y6609D01*
X47350Y7538D01*
X47917Y8598D01*
X48266Y9749D01*
X48384Y10945D01*
X48266Y12141D01*
X47917Y13292D01*
X47350Y14352D01*
X46812Y15945D01*
X47350Y17538D01*
X47917Y18598D01*
X48266Y19749D01*
X48384Y20945D01*
X48266Y22141D01*
X47917Y23291D01*
X47350Y24352D01*
X46588Y25281D01*
Y26609D01*
X47350Y27538D01*
X47917Y28598D01*
X48266Y29749D01*
X48274Y29831D01*
X50735Y30711D01*
X57929Y23517D01*
Y-123302D01*
X58050Y-124227D01*
X58407Y-125089D01*
X58975Y-125830D01*
X84728Y-151582D01*
X84728Y-151582D01*
X85049Y-151829D01*
X85468Y-152150D01*
X86330Y-152507D01*
X87255Y-152629D01*
X87255Y-152629D01*
X95341D01*
X96692Y-154685D01*
X96366Y-155648D01*
X95799Y-156709D01*
X95451Y-157859D01*
X95333Y-159055D01*
X95451Y-160251D01*
X95799Y-161402D01*
X96366Y-162462D01*
X96904Y-164055D01*
X96366Y-165648D01*
X95799Y-166709D01*
X95451Y-167859D01*
X95333Y-169055D01*
X95451Y-170251D01*
X95799Y-171402D01*
X96366Y-172462D01*
X96904Y-174055D01*
X96366Y-175648D01*
X95799Y-176708D01*
X95451Y-177859D01*
X95333Y-179055D01*
X95451Y-180251D01*
X95649Y-180906D01*
X95160Y-181783D01*
X94991Y-181972D01*
X93855Y-182774D01*
X93274Y-182598D01*
X92000Y-182473D01*
X90727Y-182598D01*
X89502Y-182969D01*
X88374Y-183573D01*
X87384Y-184384D01*
X86573Y-185373D01*
X85969Y-186502D01*
X85598Y-187726D01*
X85473Y-189000D01*
X85598Y-190273D01*
X85969Y-191498D01*
X86573Y-192627D01*
X87384Y-193616D01*
X87606Y-193797D01*
X87727Y-196404D01*
X87672Y-196574D01*
X78764Y-205481D01*
X60066D01*
X59549Y-204816D01*
X59023Y-203119D01*
X59427Y-202626D01*
X60031Y-201498D01*
X60402Y-200273D01*
X60527Y-199000D01*
X60402Y-197727D01*
X60031Y-196502D01*
X59427Y-195373D01*
X58616Y-194384D01*
X57626Y-193573D01*
X56498Y-192969D01*
X55273Y-192598D01*
X54000Y-192473D01*
X52727Y-192598D01*
X51502Y-192969D01*
X50374Y-193573D01*
X47686Y-193021D01*
X47607Y-192890D01*
X47431Y-192310D01*
X47917Y-191402D01*
X48266Y-190251D01*
X48384Y-189055D01*
X48266Y-187859D01*
X47917Y-186708D01*
X47350Y-185648D01*
X46588Y-184719D01*
Y-183391D01*
X47350Y-182462D01*
X47917Y-181402D01*
X48266Y-180251D01*
X48384Y-179055D01*
X48266Y-177859D01*
X47917Y-176708D01*
X47350Y-175648D01*
X46588Y-174719D01*
Y-173391D01*
X47350Y-172462D01*
X47917Y-171402D01*
X48266Y-170251D01*
X48384Y-169055D01*
X48266Y-167859D01*
X47917Y-166709D01*
X47350Y-165648D01*
X46588Y-164719D01*
Y-163391D01*
X47350Y-162462D01*
X47917Y-161402D01*
X48266Y-160251D01*
X48384Y-159055D01*
X48266Y-157859D01*
X47917Y-156709D01*
X47350Y-155648D01*
X46588Y-154719D01*
Y-153391D01*
X47350Y-152462D01*
X47917Y-151402D01*
X48266Y-150251D01*
X48384Y-149055D01*
X48266Y-147859D01*
X47917Y-146709D01*
X47350Y-145648D01*
X46812Y-144055D01*
X47350Y-142462D01*
X47917Y-141402D01*
X48266Y-140251D01*
X48384Y-139055D01*
X48266Y-137859D01*
X47917Y-136708D01*
X47350Y-135648D01*
X46588Y-134719D01*
Y-133391D01*
X47350Y-132462D01*
X47917Y-131402D01*
X48266Y-130251D01*
X48384Y-129055D01*
X48266Y-127859D01*
X47917Y-126708D01*
X47350Y-125648D01*
X46588Y-124719D01*
Y-123391D01*
X47350Y-122462D01*
X47917Y-121402D01*
X48266Y-120251D01*
X48384Y-119055D01*
X48266Y-117859D01*
X47917Y-116709D01*
X47350Y-115648D01*
X46588Y-114719D01*
Y-113391D01*
X47350Y-112462D01*
X47917Y-111402D01*
X48266Y-110251D01*
X48384Y-109055D01*
X48266Y-107859D01*
X47917Y-106709D01*
X47350Y-105648D01*
X46812Y-104055D01*
X47350Y-102462D01*
X47917Y-101402D01*
X48266Y-100251D01*
X48384Y-99055D01*
X48266Y-97859D01*
X47917Y-96709D01*
X47350Y-95648D01*
X46588Y-94719D01*
Y-93391D01*
X47350Y-92462D01*
X47917Y-91402D01*
X48266Y-90251D01*
X48384Y-89055D01*
X48266Y-87859D01*
X47917Y-86709D01*
X47350Y-85648D01*
X46588Y-84719D01*
Y-83391D01*
X47350Y-82462D01*
X47917Y-81402D01*
X48266Y-80251D01*
X48384Y-79055D01*
X48266Y-77859D01*
X47917Y-76709D01*
X47350Y-75648D01*
X46812Y-74055D01*
X47350Y-72462D01*
X47917Y-71402D01*
X48266Y-70251D01*
X48384Y-69055D01*
X48266Y-67859D01*
X47917Y-66709D01*
X47350Y-65648D01*
X46812Y-64055D01*
X47350Y-62462D01*
X47917Y-61402D01*
X48266Y-60251D01*
X48384Y-59055D01*
X48266Y-57859D01*
X47917Y-56709D01*
X47350Y-55648D01*
X47441Y-54728D01*
X47707Y-54510D01*
X48666Y-53341D01*
X49379Y-52007D01*
X49678Y-51024D01*
X34039D01*
X34337Y-52007D01*
X35050Y-53341D01*
X36010Y-54510D01*
X36275Y-54728D01*
X36366Y-55648D01*
X35799Y-56709D01*
X35451Y-57859D01*
X35333Y-59055D01*
X35451Y-60251D01*
X35656Y-60930D01*
X35458Y-61344D01*
X34864Y-62068D01*
X33860Y-62784D01*
X33429Y-62653D01*
X32155Y-62528D01*
X30882Y-62653D01*
X29657Y-63024D01*
X28529Y-63628D01*
X27540Y-64439D01*
X26728Y-65429D01*
X26125Y-66557D01*
X25753Y-67782D01*
X25628Y-69055D01*
X25753Y-70329D01*
X26125Y-71553D01*
X26728Y-72682D01*
X27540Y-73671D01*
X27603Y-73931D01*
X27073Y-76073D01*
Y-76073D01*
X27073Y-76073D01*
Y-76073D01*
X26469Y-77202D01*
X26204Y-78076D01*
X26098Y-78426D01*
X25973Y-79700D01*
X26098Y-80974D01*
X26469Y-82198D01*
X27073Y-83327D01*
X27884Y-84316D01*
Y-85784D01*
X27073Y-86774D01*
X26469Y-87902D01*
X26098Y-89126D01*
X25973Y-90400D01*
X26098Y-91673D01*
X26469Y-92898D01*
X27073Y-94026D01*
X27884Y-95016D01*
X28874Y-95827D01*
X30002Y-96431D01*
X31227Y-96802D01*
X32500Y-96927D01*
X33288Y-96850D01*
X33884Y-97128D01*
X34345Y-97518D01*
X35359Y-98790D01*
X35333Y-99055D01*
X35451Y-100251D01*
X35799Y-101402D01*
X36366Y-102462D01*
X36904Y-104055D01*
X36366Y-105648D01*
X35799Y-106709D01*
X35451Y-107859D01*
X35333Y-109055D01*
X35451Y-110251D01*
X35799Y-111402D01*
X36366Y-112462D01*
X37129Y-113391D01*
Y-114719D01*
X36366Y-115648D01*
X35799Y-116709D01*
X35451Y-117859D01*
X35333Y-119055D01*
X35451Y-120251D01*
X35799Y-121402D01*
X36366Y-122462D01*
X36496Y-122621D01*
X36388Y-123164D01*
X35367Y-124913D01*
X33814Y-124980D01*
X33371Y-124440D01*
X32382Y-123628D01*
X31253Y-123024D01*
X30029Y-122653D01*
X28755Y-122528D01*
X27482Y-122653D01*
X26257Y-123024D01*
X25129Y-123628D01*
X24139Y-124440D01*
X23328Y-125429D01*
X22725Y-126557D01*
X22353Y-127782D01*
X22228Y-129055D01*
X22353Y-130329D01*
X22725Y-131553D01*
X23328Y-132682D01*
X24139Y-133671D01*
X25129Y-134483D01*
X26257Y-135086D01*
X27482Y-135457D01*
X28755Y-135583D01*
X30029Y-135457D01*
X31253Y-135086D01*
X32382Y-134483D01*
X33371Y-133671D01*
X33814Y-133130D01*
X35367Y-133197D01*
X36388Y-134946D01*
X36496Y-135489D01*
X36366Y-135648D01*
X35799Y-136708D01*
X35451Y-137859D01*
X35333Y-139055D01*
X35451Y-140251D01*
X35799Y-141402D01*
X36366Y-142462D01*
X36904Y-144055D01*
X36366Y-145648D01*
X35799Y-146709D01*
X35451Y-147859D01*
X35333Y-149055D01*
X35451Y-150251D01*
X35799Y-151402D01*
X36366Y-152462D01*
X37113Y-153371D01*
X37073Y-153489D01*
X35952Y-155481D01*
X-3864D01*
X-41226Y-118120D01*
Y-66119D01*
X-41348Y-65194D01*
X-41705Y-64332D01*
X-42273Y-63592D01*
X-197526Y91662D01*
Y156054D01*
X-195164Y156700D01*
X-194810Y156428D01*
X-193948Y156071D01*
X-193023Y155949D01*
X-193023Y155949D01*
X-190531D01*
X-189610Y154855D01*
X-189019Y153587D01*
X-189237Y152868D01*
X-173563D01*
X-173907Y154004D01*
X-174657Y155406D01*
X-175665Y156635D01*
X-176894Y157643D01*
X-177292Y157856D01*
X-177938Y160550D01*
X-175563Y162926D01*
X-158756D01*
X-158727Y162873D01*
X-157916Y161884D01*
X-156927Y161073D01*
X-155798Y160469D01*
X-154574Y160098D01*
X-153300Y159973D01*
X-152026Y160098D01*
X-150802Y160469D01*
X-149673Y161073D01*
X-148684Y161884D01*
X-147873Y162873D01*
X-147269Y164002D01*
X-146898Y165226D01*
X-146773Y166500D01*
X-146898Y167773D01*
X-147269Y168998D01*
X-147873Y170126D01*
X-148684Y171116D01*
X-149673Y171927D01*
X-150802Y172531D01*
X-152026Y172902D01*
X-153300Y173028D01*
X-154574Y172902D01*
X-155798Y172531D01*
X-156927Y171927D01*
X-157916Y171116D01*
X-158727Y170126D01*
X-158756Y170074D01*
X-177043D01*
X-177968Y169952D01*
X-178688Y169654D01*
X-178950Y169600D01*
X-179402Y169620D01*
X-181098Y170087D01*
X-181542Y170396D01*
X-181773Y170826D01*
X-182584Y171816D01*
X-183573Y172627D01*
X-183626Y172655D01*
Y178296D01*
X-183253Y178864D01*
X-181264Y180255D01*
X-181000Y180229D01*
X-179727Y180355D01*
X-178502Y180726D01*
X-177374Y181329D01*
X-176384Y182141D01*
X-175573Y183130D01*
X-174969Y184259D01*
X-174598Y185483D01*
X-174472Y186757D01*
X-174598Y188030D01*
X-174615Y188087D01*
X-130176Y232526D01*
X-90355D01*
X-90327Y232473D01*
X-89516Y231484D01*
X-88526Y230673D01*
X-87398Y230069D01*
X-86173Y229698D01*
X-84900Y229573D01*
X-83627Y229698D01*
X-82402Y230069D01*
X-81274Y230673D01*
X-80284Y231484D01*
X-79473Y232473D01*
X-78869Y233602D01*
X-78498Y234826D01*
X-78373Y236100D01*
X-78498Y237373D01*
X-78869Y238598D01*
X-79473Y239726D01*
X-80284Y240716D01*
X-81274Y241527D01*
X-82402Y242131D01*
X-83627Y242502D01*
X-84900Y242628D01*
X-86173Y242502D01*
X-87398Y242131D01*
X-88526Y241527D01*
X-89516Y240716D01*
X-90327Y239726D01*
X-90355Y239674D01*
X-131657D01*
X-132582Y239552D01*
X-133444Y239195D01*
X-134184Y238627D01*
X-149019Y223792D01*
X-151537Y224614D01*
X-151632Y225227D01*
X-151522Y225510D01*
X-150840Y226341D01*
X-150237Y227470D01*
X-149866Y228694D01*
X-149740Y229968D01*
X-149866Y231241D01*
X-150237Y232466D01*
X-150840Y233594D01*
X-151652Y234583D01*
X-152641Y235395D01*
X-153770Y235998D01*
X-154994Y236370D01*
X-155033Y236374D01*
X-155345Y236598D01*
X-156044Y237514D01*
X-156508Y238467D01*
X-156522Y238528D01*
X-156538Y238842D01*
X-156449Y239520D01*
X-156449Y239520D01*
Y242097D01*
X-149635Y248911D01*
X-51156D01*
X-51127Y248859D01*
X-50316Y247869D01*
X-49327Y247058D01*
X-48198Y246454D01*
X-46973Y246083D01*
X-45700Y245958D01*
X-44427Y246083D01*
X-43202Y246454D01*
X-42074Y247058D01*
X-41084Y247869D01*
X-40273Y248859D01*
X-39669Y249987D01*
X-39298Y251212D01*
X-39173Y252485D01*
X-39298Y253759D01*
X-39669Y254983D01*
X-40273Y256112D01*
X-40847Y257800D01*
X-40273Y259489D01*
X-39669Y260617D01*
X-39298Y261842D01*
X-39173Y263115D01*
X-39298Y264388D01*
X-39669Y265613D01*
X-40273Y266741D01*
X-41084Y267731D01*
X-42074Y268542D01*
X-43202Y269146D01*
X-44427Y269517D01*
X-45700Y269642D01*
X-46973Y269517D01*
X-48198Y269146D01*
X-49327Y268542D01*
X-50316Y267731D01*
X-51127Y266741D01*
X-51156Y266689D01*
X-148685D01*
X-149610Y266567D01*
X-150115Y266358D01*
X-150472Y266210D01*
X-151212Y265642D01*
X-167633Y249221D01*
X-167700Y249227D01*
X-168974Y249102D01*
X-170198Y248731D01*
X-171326Y248127D01*
X-172316Y247316D01*
X-173127Y246326D01*
X-173731Y245198D01*
X-174102Y243973D01*
X-174227Y242700D01*
X-174102Y241426D01*
X-173731Y240202D01*
X-173127Y239073D01*
X-172316Y238084D01*
X-171326Y237273D01*
X-170896Y237042D01*
X-170518Y236425D01*
X-170196Y235156D01*
X-170195Y234232D01*
X-170206Y234203D01*
X-170552Y233368D01*
X-170674Y232443D01*
Y229056D01*
X-170727Y229027D01*
X-171716Y228216D01*
X-172527Y227226D01*
X-173131Y226098D01*
X-173502Y224873D01*
X-173627Y223600D01*
X-173502Y222326D01*
X-173131Y221102D01*
X-172527Y219973D01*
X-171716Y218984D01*
X-170727Y218173D01*
X-169746Y217649D01*
X-169586Y217506D01*
X-169103Y214951D01*
X-187757Y196297D01*
X-189921Y197473D01*
X-189971Y197848D01*
X-190328Y198710D01*
X-190896Y199450D01*
X-193815Y202369D01*
X-193798Y202427D01*
X-193673Y203700D01*
X-193798Y204974D01*
X-194169Y206198D01*
X-194773Y207327D01*
X-195584Y208316D01*
X-196573Y209127D01*
X-197702Y209731D01*
X-198926Y210102D01*
X-200200Y210227D01*
X-201473Y210102D01*
X-202698Y209731D01*
X-203826Y209127D01*
X-204816Y208316D01*
X-205627Y207327D01*
X-206231Y206198D01*
X-206602Y204974D01*
X-206728Y203700D01*
X-206602Y202427D01*
X-206231Y201202D01*
X-205627Y200074D01*
X-204816Y199084D01*
X-203826Y198273D01*
X-202698Y197669D01*
X-201473Y197298D01*
X-200200Y197172D01*
X-198926Y197298D01*
X-198870Y197315D01*
X-196997Y195442D01*
Y193451D01*
X-197527Y192850D01*
X-199359Y191860D01*
X-199827Y192002D01*
X-201100Y192128D01*
X-202374Y192002D01*
X-203598Y191631D01*
X-204727Y191027D01*
X-205716Y190216D01*
X-206527Y189226D01*
X-207131Y188098D01*
X-207502Y186873D01*
X-207628Y185600D01*
X-207502Y184327D01*
X-207131Y183102D01*
X-206527Y181974D01*
X-205716Y180984D01*
X-204727Y180173D01*
X-204674Y180145D01*
Y95214D01*
X-206856Y94310D01*
X-215326Y102780D01*
Y161144D01*
X-215273Y161173D01*
X-214284Y161984D01*
X-213473Y162973D01*
X-212869Y164102D01*
X-212498Y165326D01*
X-212372Y166600D01*
X-212498Y167874D01*
X-212869Y169098D01*
X-213473Y170227D01*
X-214284Y171216D01*
X-215273Y172027D01*
X-216402Y172631D01*
X-217627Y173002D01*
X-218900Y173127D01*
X-220174Y173002D01*
X-221398Y172631D01*
X-222527Y172027D01*
X-223516Y171216D01*
X-224327Y170227D01*
X-224931Y169098D01*
X-225302Y167874D01*
X-225428Y166600D01*
X-225302Y165326D01*
X-224931Y164102D01*
X-224327Y162973D01*
X-223516Y161984D01*
X-222527Y161173D01*
X-222474Y161144D01*
Y101300D01*
X-222352Y100375D01*
X-221995Y99513D01*
X-221427Y98773D01*
X-113605Y-9049D01*
X-113998Y-10470D01*
X-114600Y-11395D01*
X-115826Y-11516D01*
X-117348Y-11977D01*
X-118750Y-12727D01*
X-119979Y-13735D01*
X-120987Y-14964D01*
X-121737Y-16366D01*
X-122081Y-17502D01*
X-114244D01*
Y-19470D01*
X-112276D01*
Y-27307D01*
X-111141Y-26963D01*
X-109739Y-26213D01*
X-108510Y-25205D01*
X-107501Y-23976D01*
X-106752Y-22574D01*
X-106290Y-21052D01*
X-106169Y-19826D01*
X-105244Y-19224D01*
X-103824Y-18831D01*
X-53098Y-69556D01*
Y-121557D01*
X-52977Y-122482D01*
X-52619Y-123344D01*
X-52052Y-124084D01*
X-4553Y-171582D01*
X-3813Y-172150D01*
X-2951Y-172507D01*
X-2026Y-172629D01*
X35952D01*
X37073Y-174621D01*
X37113Y-174739D01*
X36366Y-175648D01*
X35799Y-176708D01*
X35451Y-177859D01*
X35333Y-179055D01*
X35451Y-180251D01*
X35799Y-181402D01*
X36366Y-182462D01*
X37129Y-183391D01*
Y-184719D01*
X36366Y-185648D01*
X35799Y-186708D01*
X35451Y-187859D01*
X35333Y-189055D01*
X35451Y-190251D01*
X35799Y-191402D01*
X36366Y-192462D01*
X37129Y-193391D01*
Y-194719D01*
X36366Y-195648D01*
X35799Y-196709D01*
X35451Y-197859D01*
X35333Y-199055D01*
X35451Y-200251D01*
X35799Y-201402D01*
X36366Y-202462D01*
X37129Y-203391D01*
Y-204719D01*
X36366Y-205648D01*
X35799Y-206709D01*
X35451Y-207859D01*
X35333Y-209055D01*
X35451Y-210251D01*
X35799Y-211402D01*
X36366Y-212462D01*
X37129Y-213391D01*
Y-214719D01*
X36366Y-215648D01*
X35799Y-216709D01*
X35451Y-217859D01*
X35333Y-219055D01*
X35451Y-220251D01*
X35799Y-221402D01*
X36366Y-222462D01*
X37129Y-223391D01*
Y-224719D01*
X36366Y-225648D01*
X35799Y-226709D01*
X35451Y-227859D01*
X35333Y-229055D01*
X35451Y-230251D01*
X35799Y-231402D01*
X36366Y-232462D01*
X36904Y-234055D01*
X36366Y-235648D01*
X35799Y-236709D01*
X35451Y-237859D01*
X35333Y-239055D01*
X35451Y-240251D01*
X35799Y-241402D01*
X36366Y-242462D01*
X36904Y-244055D01*
X36366Y-245648D01*
X35799Y-246709D01*
X35451Y-247859D01*
X35333Y-249055D01*
X35451Y-250251D01*
X35799Y-251402D01*
X36366Y-252462D01*
X36904Y-254055D01*
X36366Y-255648D01*
X35799Y-256709D01*
X35451Y-257859D01*
X35333Y-259055D01*
X35451Y-260251D01*
X35799Y-261402D01*
X36366Y-262462D01*
X36904Y-264055D01*
X36366Y-265648D01*
X35799Y-266709D01*
X35451Y-267859D01*
X35333Y-269055D01*
X35451Y-270251D01*
X35799Y-271402D01*
X36366Y-272462D01*
X37129Y-273391D01*
Y-274719D01*
X36366Y-275648D01*
X35799Y-276709D01*
X35451Y-277859D01*
X35333Y-279055D01*
X35451Y-280251D01*
X35799Y-281402D01*
X36366Y-282462D01*
X37129Y-283391D01*
X38058Y-284154D01*
X39118Y-284720D01*
X40268Y-285069D01*
X41465Y-285187D01*
X42252D01*
X43448Y-285069D01*
X44599Y-284720D01*
X45659Y-284154D01*
X46588Y-283391D01*
X47350Y-282462D01*
X47917Y-281402D01*
X48266Y-280251D01*
X48384Y-279055D01*
X48266Y-277859D01*
X47917Y-276709D01*
X47350Y-275648D01*
X46588Y-274719D01*
Y-273391D01*
X47350Y-272462D01*
X47917Y-271402D01*
X48266Y-270251D01*
X48384Y-269055D01*
X48266Y-267859D01*
X47917Y-266709D01*
X47350Y-265648D01*
X46812Y-264055D01*
X47350Y-262462D01*
X47917Y-261402D01*
X48266Y-260251D01*
X48384Y-259055D01*
X48266Y-257859D01*
X47917Y-256709D01*
X47350Y-255648D01*
X46812Y-254055D01*
X47350Y-252462D01*
X47917Y-251402D01*
X48266Y-250251D01*
X48384Y-249055D01*
X48266Y-247859D01*
X47917Y-246709D01*
X47350Y-245648D01*
X46812Y-244055D01*
X47350Y-242462D01*
X47917Y-241402D01*
X48266Y-240251D01*
X48384Y-239055D01*
X48266Y-237859D01*
X47917Y-236709D01*
X47350Y-235648D01*
X46812Y-234055D01*
X47350Y-232462D01*
X47917Y-231402D01*
X48266Y-230251D01*
X48384Y-229055D01*
X48266Y-227859D01*
X47917Y-226709D01*
X47350Y-225648D01*
X46588Y-224719D01*
Y-223391D01*
X47350Y-222462D01*
X47917Y-221402D01*
X48266Y-220251D01*
X48384Y-219055D01*
X48266Y-217859D01*
X47917Y-216709D01*
X47350Y-215648D01*
X46604Y-214739D01*
X46643Y-214621D01*
X47765Y-212629D01*
X80245D01*
X81170Y-212507D01*
X82032Y-212150D01*
X82772Y-211582D01*
X91980Y-202374D01*
X92531Y-202288D01*
X94808Y-202887D01*
X95050Y-203341D01*
X96010Y-204510D01*
X96275Y-204728D01*
X96366Y-205648D01*
X95799Y-206709D01*
X95451Y-207859D01*
X95333Y-209055D01*
X95451Y-210251D01*
X95799Y-211402D01*
X96366Y-212462D01*
X96904Y-214055D01*
X96366Y-215648D01*
X95799Y-216709D01*
X95451Y-217859D01*
X95333Y-219055D01*
X95451Y-220251D01*
X95799Y-221402D01*
X96366Y-222462D01*
X96904Y-224055D01*
X96366Y-225648D01*
X95799Y-226709D01*
X95451Y-227859D01*
X95333Y-229055D01*
X95451Y-230251D01*
X95799Y-231402D01*
X96366Y-232462D01*
X97129Y-233391D01*
Y-234719D01*
X96366Y-235648D01*
X95799Y-236709D01*
X95451Y-237859D01*
X95333Y-239055D01*
X95451Y-240251D01*
X95799Y-241402D01*
X96366Y-242462D01*
X97129Y-243391D01*
Y-244719D01*
X96366Y-245648D01*
X95799Y-246709D01*
X95451Y-247859D01*
X95333Y-249055D01*
X95451Y-250251D01*
X95799Y-251402D01*
X96366Y-252462D01*
X97129Y-253391D01*
Y-254719D01*
X96366Y-255648D01*
X95799Y-256709D01*
X95451Y-257859D01*
X95333Y-259055D01*
X95451Y-260251D01*
X95799Y-261402D01*
X96366Y-262462D01*
X97129Y-263391D01*
Y-264719D01*
X96366Y-265648D01*
X95799Y-266709D01*
X95451Y-267859D01*
X95333Y-269055D01*
X95451Y-270251D01*
X95799Y-271402D01*
X96366Y-272462D01*
X97129Y-273391D01*
Y-274719D01*
X96366Y-275648D01*
X95799Y-276709D01*
X95451Y-277859D01*
X95333Y-279055D01*
X95451Y-280251D01*
X95799Y-281402D01*
X96366Y-282462D01*
X97129Y-283391D01*
X98058Y-284154D01*
X99118Y-284720D01*
X100268Y-285069D01*
X101465Y-285187D01*
X102252D01*
X103448Y-285069D01*
X104599Y-284720D01*
X105659Y-284154D01*
X106588Y-283391D01*
X107213Y-282629D01*
X161070D01*
X161995Y-282507D01*
X162857Y-282150D01*
X163597Y-281582D01*
X225925Y-219255D01*
X225925Y-219255D01*
X226361Y-218687D01*
X226493Y-218515D01*
X226850Y-217653D01*
X226972Y-216728D01*
X226972Y-216728D01*
Y-55921D01*
X226850Y-54996D01*
X226641Y-54491D01*
X226493Y-54134D01*
X225925Y-53394D01*
X202659Y-30128D01*
X201919Y-29560D01*
X201057Y-29203D01*
X200132Y-29081D01*
X197201D01*
Y-26553D01*
X188716D01*
X187598Y-24191D01*
X187775Y-23976D01*
X188524Y-22574D01*
X188868Y-21439D01*
X183000D01*
Y-28663D01*
X183815Y-29256D01*
Y-38758D01*
X181587Y-39081D01*
X179156D01*
X179127Y-39029D01*
X178316Y-38039D01*
X177327Y-37228D01*
X176198Y-36625D01*
X174973Y-36253D01*
X173700Y-36128D01*
X172426Y-36253D01*
X171202Y-36625D01*
X170073Y-37228D01*
X169084Y-38039D01*
X168273Y-39029D01*
X168245Y-39081D01*
X133445D01*
X133445Y-39081D01*
X132520Y-39203D01*
X131658Y-39560D01*
X130918Y-40128D01*
X125565Y-45481D01*
X109966D01*
X109036Y-43950D01*
X108785Y-43119D01*
X109379Y-42007D01*
X109678Y-41024D01*
X94039D01*
X94337Y-42007D01*
X95050Y-43341D01*
X96010Y-44510D01*
X96275Y-44728D01*
X96366Y-45648D01*
X95799Y-46709D01*
X95451Y-47859D01*
X95333Y-49055D01*
X95451Y-50251D01*
X95799Y-51402D01*
X96366Y-52462D01*
X97113Y-53371D01*
X97073Y-53489D01*
X95952Y-55481D01*
X89035D01*
X83974Y-50420D01*
Y-18469D01*
X86336Y-17490D01*
X90428Y-21582D01*
X91168Y-22150D01*
X92030Y-22507D01*
X92955Y-22629D01*
X92955Y-22629D01*
X95952D01*
X97073Y-24621D01*
X97113Y-24739D01*
X96366Y-25648D01*
X95799Y-26709D01*
X95451Y-27859D01*
X95333Y-29055D01*
X95451Y-30251D01*
X95799Y-31402D01*
X96366Y-32462D01*
X96275Y-33382D01*
X96010Y-33600D01*
X95050Y-34769D01*
X94337Y-36103D01*
X94039Y-37087D01*
X109837D01*
X111594Y-35362D01*
X111726Y-35402D01*
X113000Y-35528D01*
X114274Y-35402D01*
X115498Y-35031D01*
X116627Y-34427D01*
X117616Y-33616D01*
X118427Y-32627D01*
X119031Y-31498D01*
X119402Y-30274D01*
X119527Y-29000D01*
X119402Y-27727D01*
X119031Y-26502D01*
X118427Y-25374D01*
X117616Y-24384D01*
X116627Y-23573D01*
X115498Y-22969D01*
X114274Y-22598D01*
X113000Y-22472D01*
X111726Y-22598D01*
X110502Y-22969D01*
X109373Y-23573D01*
X107622Y-21955D01*
X107917Y-21402D01*
X108266Y-20251D01*
X108384Y-19055D01*
X108266Y-17859D01*
X107917Y-16709D01*
X107351Y-15648D01*
X106812Y-14055D01*
X107351Y-12462D01*
X107917Y-11402D01*
X108266Y-10251D01*
X108384Y-9055D01*
X108266Y-7859D01*
X107917Y-6708D01*
X107351Y-5648D01*
X106588Y-4719D01*
Y-3850D01*
X108342Y-1923D01*
X183245D01*
X183273Y-1975D01*
X184084Y-2964D01*
X185073Y-3776D01*
X186202Y-4379D01*
X187426Y-4751D01*
X188700Y-4876D01*
X189973Y-4751D01*
X191198Y-4379D01*
X192326Y-3776D01*
X193316Y-2964D01*
X194127Y-1975D01*
X194731Y-847D01*
X195102Y378D01*
X195228Y1651D01*
X195102Y2925D01*
X194731Y4149D01*
X194271Y5009D01*
X194579Y5984D01*
X195465Y7371D01*
X220545D01*
X221470Y7493D01*
X222332Y7850D01*
X223072Y8418D01*
X276327Y61673D01*
X276895Y62413D01*
X277252Y63275D01*
X277374Y64200D01*
Y173300D01*
X277252Y174225D01*
X276895Y175087D01*
X276327Y175827D01*
X276327Y175827D01*
X227834Y224321D01*
X227931Y224502D01*
X228302Y225727D01*
X228428Y227000D01*
X228302Y228274D01*
X227931Y229498D01*
X227327Y230627D01*
X226516Y231616D01*
X225526Y232427D01*
X224398Y233031D01*
X223173Y233402D01*
X221900Y233527D01*
X220626Y233402D01*
X219402Y233031D01*
X218273Y232427D01*
X218265Y232424D01*
X215546Y232680D01*
X215250Y232861D01*
X215080Y233068D01*
X214778Y233316D01*
Y255334D01*
X217676Y258233D01*
X218922Y258110D01*
X220852Y258300D01*
X222707Y258863D01*
X224417Y259777D01*
X225916Y261007D01*
X227146Y262505D01*
X228060Y264215D01*
X228622Y266071D01*
X228812Y268000D01*
X228622Y269930D01*
X228060Y271785D01*
X227146Y273495D01*
X225916Y274993D01*
X224417Y276223D01*
X222707Y277137D01*
X220852Y277700D01*
X218922Y277890D01*
D02*
G37*
G36*
X-246763Y243531D02*
X-252631D01*
Y237663D01*
X-251497Y238007D01*
X-250094Y238757D01*
X-248865Y239765D01*
X-247857Y240994D01*
X-247107Y242396D01*
X-246763Y243531D01*
D02*
G37*
G36*
X-183957Y263249D02*
X-184051Y262421D01*
X-183949Y262978D01*
X-183950Y263220D01*
X-183957Y263249D01*
D02*
G37*
G36*
X-178559Y263262D02*
X-178569Y263220D01*
X-178572Y262677D01*
X-178531Y262362D01*
X-178410Y261900D01*
X-178559Y263262D01*
D02*
G37*
G36*
X-280000Y290192D02*
X-281988Y289996D01*
X-283900Y289416D01*
X-285662Y288474D01*
X-287207Y287207D01*
X-288474Y285662D01*
X-289416Y283900D01*
X-289996Y281988D01*
X-290192Y280000D01*
X-289996Y278012D01*
X-289416Y276100D01*
X-288474Y274338D01*
X-287207Y272794D01*
X-285662Y271526D01*
X-283900Y270584D01*
X-281988Y270004D01*
X-280000Y269808D01*
X-278012Y270004D01*
X-276100Y270584D01*
X-274338Y271526D01*
X-272794Y272794D01*
X-271526Y274338D01*
X-270584Y276100D01*
X-270004Y278012D01*
X-269808Y280000D01*
X-270004Y281988D01*
X-270584Y283900D01*
X-271526Y285662D01*
X-272794Y287207D01*
X-274338Y288474D01*
X-276100Y289416D01*
X-278012Y289996D01*
X-280000Y290192D01*
D02*
G37*
G36*
X-22000Y279603D02*
X-23259Y279437D01*
X-24431Y278952D01*
X-25439Y278179D01*
X-26211Y277172D01*
X-26697Y275999D01*
X-26863Y274740D01*
X-26697Y273482D01*
X-26211Y272309D01*
X-25439Y271302D01*
X-24431Y270529D01*
X-23259Y270043D01*
X-22000Y269877D01*
X-20741Y270043D01*
X-19569Y270529D01*
X-18561Y271302D01*
X-17789Y272309D01*
X-17303Y273482D01*
X-17137Y274740D01*
X-17303Y275999D01*
X-17789Y277172D01*
X-18561Y278179D01*
X-19569Y278952D01*
X-20741Y279437D01*
X-22000Y279603D01*
D02*
G37*
G36*
X280000Y290192D02*
X278012Y289996D01*
X276100Y289416D01*
X274338Y288474D01*
X272794Y287207D01*
X271526Y285662D01*
X270584Y283900D01*
X270004Y281988D01*
X269808Y280000D01*
X270004Y278012D01*
X270584Y276100D01*
X271526Y274338D01*
X272794Y272794D01*
X274338Y271526D01*
X276100Y270584D01*
X278012Y270004D01*
X280000Y269808D01*
X281988Y270004D01*
X283900Y270584D01*
X285662Y271526D01*
X287207Y272794D01*
X288474Y274338D01*
X289416Y276100D01*
X289996Y278012D01*
X290192Y280000D01*
X289996Y281988D01*
X289416Y283900D01*
X288474Y285662D01*
X287207Y287207D01*
X285662Y288474D01*
X283900Y289416D01*
X281988Y289996D01*
X280000Y290192D01*
D02*
G37*
G36*
X-256569Y253337D02*
X-257703Y252993D01*
X-259106Y252243D01*
X-260335Y251235D01*
X-261343Y250006D01*
X-262093Y248604D01*
X-262437Y247468D01*
X-256569D01*
Y253337D01*
D02*
G37*
G36*
X-280000Y258308D02*
X-281621Y258148D01*
X-283179Y257675D01*
X-284615Y256908D01*
X-285874Y255874D01*
X-286908Y254615D01*
X-287675Y253179D01*
X-288148Y251621D01*
X-288308Y250000D01*
X-288148Y248379D01*
X-287675Y246821D01*
X-286908Y245385D01*
X-285874Y244126D01*
X-284615Y243092D01*
X-283179Y242325D01*
X-281621Y241852D01*
X-280000Y241692D01*
X-278379Y241852D01*
X-276821Y242325D01*
X-275384Y243092D01*
X-274126Y244126D01*
X-273092Y245385D01*
X-272325Y246821D01*
X-271852Y248379D01*
X-271692Y250000D01*
X-271852Y251621D01*
X-272325Y253179D01*
X-273092Y254615D01*
X-274126Y255874D01*
X-275384Y256908D01*
X-276821Y257675D01*
X-278379Y258148D01*
X-280000Y258308D01*
D02*
G37*
G36*
X-252631Y253337D02*
Y247468D01*
X-246763D01*
X-247107Y248604D01*
X-247857Y250006D01*
X-248865Y251235D01*
X-250094Y252243D01*
X-251497Y252993D01*
X-252631Y253337D01*
D02*
G37*
G36*
X124337Y253693D02*
X124337D01*
X124337D01*
X124316Y253689D01*
X124305Y253687D01*
X124264Y253679D01*
X124228Y253672D01*
X124225Y253671D01*
X124224Y253671D01*
X124216Y253669D01*
X124213Y253668D01*
X124159Y253658D01*
X124132Y253652D01*
X123989Y253624D01*
X123915Y253609D01*
X123915D01*
X123915Y253609D01*
X123915D01*
X123909Y253606D01*
X123907Y253604D01*
X123905Y253603D01*
X123888Y253591D01*
X123885Y253589D01*
X123884Y253589D01*
X123883Y253588D01*
X123874Y253582D01*
X123874Y253582D01*
X123874Y253582D01*
X123874Y253582D01*
X123873Y253581D01*
X123872Y253580D01*
X123871Y253580D01*
X123871Y253580D01*
X123866Y253577D01*
X123846Y253564D01*
X123843Y253561D01*
X123800Y253532D01*
X123790Y253526D01*
X123786Y253524D01*
X123781Y253520D01*
X123747Y253497D01*
X123747D01*
X123742Y253494D01*
X123740Y253493D01*
X123737Y253491D01*
X123737Y253490D01*
X123737Y253490D01*
X123718Y253478D01*
D01*
X123718Y253478D01*
X123718Y253478D01*
X123718Y253478D01*
X123718Y253478D01*
X123718Y253478D01*
X123717Y253477D01*
D01*
X123711Y253473D01*
X123709Y253472D01*
X123706Y253470D01*
X123706Y253470D01*
X123705Y253469D01*
X123686Y253457D01*
X123686D01*
X123663Y253441D01*
X123656Y253437D01*
X123642Y253427D01*
X123642Y253427D01*
X123633Y253421D01*
X123557Y253370D01*
X123557D01*
X123557D01*
X123557Y253370D01*
X123553Y253364D01*
X123552Y253363D01*
X123551Y253361D01*
X123550Y253359D01*
X123539Y253344D01*
X123537Y253340D01*
X123536Y253339D01*
X123535Y253338D01*
X123534Y253336D01*
X123527Y253325D01*
X123526Y253324D01*
X123526Y253323D01*
X123525Y253323D01*
X123525Y253322D01*
X123522Y253318D01*
X123522Y253318D01*
X123522Y253318D01*
X123522Y253318D01*
X123522Y253318D01*
X123522Y253317D01*
X123521Y253316D01*
X123521Y253316D01*
X123521Y253316D01*
X123521Y253316D01*
X123519Y253313D01*
X123507Y253295D01*
X123503Y253289D01*
X123500Y253285D01*
X123471Y253241D01*
X123460Y253226D01*
X123458Y253222D01*
X123454Y253217D01*
X123450Y253210D01*
X123450Y253210D01*
X123421Y253166D01*
X123419Y253163D01*
X123418Y253163D01*
X123418Y253162D01*
X123417Y253161D01*
X123417Y253161D01*
X123412Y253153D01*
X123412Y253153D01*
X123412Y253152D01*
X123412Y253152D01*
X123412Y253152D01*
X123411Y253152D01*
X123393Y253125D01*
X123389Y253118D01*
X123382Y253109D01*
X123374Y253097D01*
X123318Y253013D01*
X123318Y253013D01*
Y253013D01*
X123318D01*
X123318Y253013D01*
X123318Y253013D01*
X123317Y253008D01*
X123316Y253003D01*
X123316Y253001D01*
X123313Y252989D01*
X123312Y252981D01*
X123310Y252973D01*
X123310Y252970D01*
X123305Y252949D01*
X123305Y252947D01*
X123305Y252945D01*
X123305Y252945D01*
X123304Y252940D01*
Y252940D01*
Y252940D01*
X123304Y252940D01*
X123300Y252923D01*
X123298Y252912D01*
X123297Y252907D01*
X123296Y252900D01*
X123287Y252854D01*
X123287Y252854D01*
X123286Y252854D01*
X123286Y252854D01*
X123286Y252853D01*
X123286Y252852D01*
X123286Y252851D01*
X123286Y252851D01*
X123285Y252849D01*
X123285Y252849D01*
Y252849D01*
Y252849D01*
X123285Y252849D01*
X123285Y252849D01*
X123285Y252849D01*
X123285Y252848D01*
Y252848D01*
Y252848D01*
X123285Y252848D01*
X123285Y252846D01*
X123285Y252846D01*
X123285Y252846D01*
X123285Y252845D01*
X123285Y252844D01*
X123284Y252840D01*
X123283Y252834D01*
X123281Y252827D01*
X123281Y252824D01*
X123277Y252806D01*
X123275Y252795D01*
X123272Y252783D01*
X123272Y252778D01*
X123268Y252761D01*
X123265Y252745D01*
X123265Y252745D01*
X123265Y252745D01*
X123265Y252745D01*
X123265Y252745D01*
X123264Y252743D01*
X123264Y252740D01*
X123264Y252739D01*
X123262Y252731D01*
X123262Y252730D01*
X123261Y252728D01*
X123261Y252727D01*
X123260Y252721D01*
X123256Y252699D01*
X123250Y252673D01*
X123249Y252667D01*
X123234Y252591D01*
D01*
X123234Y252591D01*
Y252580D01*
Y252570D01*
Y252566D01*
Y252562D01*
Y252539D01*
Y252526D01*
X123234Y252511D01*
Y252507D01*
X123234Y252470D01*
X123234Y252467D01*
Y252465D01*
Y252464D01*
Y252456D01*
Y252425D01*
Y252392D01*
Y252387D01*
Y252294D01*
Y252293D01*
X123234Y252293D01*
X123234Y252230D01*
Y252154D01*
Y252115D01*
Y251942D01*
Y251942D01*
Y251775D01*
Y251769D01*
Y247351D01*
Y247338D01*
Y247010D01*
Y246911D01*
Y246878D01*
Y246867D01*
Y246859D01*
Y246804D01*
Y246596D01*
Y246386D01*
Y246336D01*
Y246327D01*
Y246285D01*
Y246259D01*
Y246256D01*
Y246256D01*
Y246256D01*
X123234D01*
X123234Y246256D01*
Y246180D01*
X123318Y245758D01*
X123557Y245400D01*
X123611Y245347D01*
X123611Y245347D01*
X123611D01*
X123611Y245346D01*
X123611Y245346D01*
X123633Y245324D01*
X123652Y245305D01*
X123667Y245290D01*
X123703Y245254D01*
X123869Y245089D01*
X124128Y244829D01*
X124136Y244821D01*
X124137Y244821D01*
X124139Y244819D01*
X124146Y244812D01*
X124286Y244672D01*
X124422Y244535D01*
X124484Y244474D01*
X217488Y151470D01*
X217685Y151272D01*
X217694Y151264D01*
X217774Y151183D01*
X217844Y151114D01*
X218041Y150916D01*
X218064Y150894D01*
X218069Y150888D01*
X218086Y150872D01*
X218095Y150862D01*
X218097Y150860D01*
X218098Y150860D01*
X218098Y150859D01*
X218098Y150859D01*
X218098Y150859D01*
X218098Y150859D01*
X218099Y150858D01*
X218099Y150858D01*
X218099Y150858D01*
X218100Y150857D01*
X218103Y150854D01*
X218104Y150853D01*
X218105Y150852D01*
X218105Y150852D01*
X218107Y150851D01*
X218107Y150850D01*
X218107Y150850D01*
X218108Y150850D01*
X218108Y150849D01*
X218109Y150849D01*
X218109Y150849D01*
X218105Y150812D01*
X218103Y150787D01*
X218100Y150764D01*
X217997Y149715D01*
X217997Y149715D01*
X216709Y147886D01*
X216380Y147634D01*
X215733Y146791D01*
X215327Y145810D01*
X215188Y144757D01*
X215327Y143704D01*
X215733Y142722D01*
X216380Y141880D01*
X217222Y141233D01*
X218204Y140827D01*
X219257Y140688D01*
X220310Y140827D01*
X221291Y141233D01*
X222134Y141880D01*
X222780Y142722D01*
X223187Y143704D01*
X223325Y144757D01*
X223187Y145810D01*
X222780Y146791D01*
X222134Y147634D01*
X221291Y148280D01*
X220359Y148666D01*
Y148821D01*
Y149599D01*
Y149599D01*
X220359D01*
Y150169D01*
Y150663D01*
Y150708D01*
Y150725D01*
Y150815D01*
Y150820D01*
Y150948D01*
Y151055D01*
Y151103D01*
Y151106D01*
Y151107D01*
Y151114D01*
Y151116D01*
Y151118D01*
D01*
Y151184D01*
X220359D01*
Y151184D01*
X220359Y151184D01*
Y151260D01*
X220275Y151681D01*
X220036Y152039D01*
X219982Y152093D01*
X219982Y152093D01*
X219982D01*
X219976Y152099D01*
X219968Y152108D01*
X219715Y152360D01*
X219683Y152393D01*
X219465Y152610D01*
X219457Y152619D01*
X219454Y152621D01*
X219448Y152627D01*
X219307Y152768D01*
X219171Y152904D01*
X219110Y152965D01*
X126105Y245970D01*
X125908Y246167D01*
X125899Y246176D01*
D01*
X125819Y246256D01*
X125750Y246326D01*
X125552Y246523D01*
X125531Y246545D01*
X125525Y246551D01*
X125508Y246567D01*
X125495Y246580D01*
X125494Y246581D01*
X125491Y246584D01*
X125489Y246586D01*
X125486Y246589D01*
X125470Y246605D01*
X125460Y246615D01*
X125460Y246616D01*
X125459Y246617D01*
X125448Y246627D01*
X125443Y246633D01*
X125441Y246634D01*
X125441Y246634D01*
X125440Y246636D01*
X125439Y246636D01*
X125439Y246636D01*
Y246636D01*
Y246649D01*
X125439Y246661D01*
X125439Y246668D01*
X125439Y246678D01*
Y246688D01*
X125439Y246694D01*
X125439Y246703D01*
Y246710D01*
X125439Y246716D01*
X125439Y246735D01*
Y246750D01*
Y246767D01*
Y246798D01*
Y246911D01*
Y247046D01*
Y247062D01*
Y247111D01*
Y247564D01*
Y251762D01*
Y251811D01*
Y251941D01*
Y251941D01*
Y252121D01*
Y252158D01*
Y252236D01*
X125439Y252269D01*
X125439Y252301D01*
Y252301D01*
Y252302D01*
Y252390D01*
Y252395D01*
Y252427D01*
Y252442D01*
Y252456D01*
Y252458D01*
Y252458D01*
Y252459D01*
Y252459D01*
Y252459D01*
Y252467D01*
Y252468D01*
Y252471D01*
Y252472D01*
Y252473D01*
Y252508D01*
Y252509D01*
Y252513D01*
Y252527D01*
Y252535D01*
Y252541D01*
Y252561D01*
Y252567D01*
Y252570D01*
Y252581D01*
Y252586D01*
Y252591D01*
D01*
Y252591D01*
X125424Y252664D01*
X125423Y252670D01*
X125417Y252698D01*
X125414Y252716D01*
X125414Y252716D01*
X125412Y252725D01*
X125412Y252726D01*
X125411Y252730D01*
X125411Y252732D01*
X125409Y252739D01*
X125409Y252740D01*
X125408Y252743D01*
X125408Y252745D01*
X125408Y252745D01*
X125408Y252745D01*
X125408Y252745D01*
X125408Y252745D01*
X125407Y252749D01*
X125401Y252779D01*
X125401Y252783D01*
X125398Y252796D01*
X125396Y252806D01*
X125392Y252824D01*
X125392Y252827D01*
X125391Y252830D01*
X125391Y252833D01*
X125389Y252840D01*
Y252840D01*
X125388Y252844D01*
X125388Y252845D01*
X125388Y252847D01*
X125388Y252848D01*
X125388Y252849D01*
X125388Y252849D01*
X125388Y252849D01*
X125387Y252849D01*
Y252849D01*
Y252849D01*
X125387Y252849D01*
X125387Y252851D01*
X125387Y252851D01*
X125387Y252852D01*
X125387Y252853D01*
X125387Y252854D01*
X125387Y252854D01*
X125386Y252854D01*
X125386Y252854D01*
X125386Y252855D01*
X125377Y252900D01*
X125376Y252906D01*
X125372Y252926D01*
X125369Y252941D01*
X125369Y252941D01*
X125368Y252945D01*
X125368Y252946D01*
X125368Y252947D01*
X125367Y252949D01*
X125363Y252970D01*
X125363Y252973D01*
X125361Y252981D01*
X125360Y252989D01*
X125357Y253001D01*
X125357Y253003D01*
X125356Y253005D01*
X125356Y253007D01*
X125355Y253013D01*
Y253013D01*
X125355Y253013D01*
D01*
X125355Y253013D01*
X125355Y253013D01*
X125298Y253098D01*
X125298Y253098D01*
X125291Y253109D01*
X125282Y253122D01*
X125261Y253153D01*
X125256Y253161D01*
X125256Y253161D01*
X125255Y253162D01*
X125255Y253163D01*
X125254Y253164D01*
X125252Y253166D01*
X125239Y253185D01*
X125239Y253186D01*
X125238Y253188D01*
X125236Y253191D01*
X125234Y253193D01*
X125230Y253199D01*
X125214Y253224D01*
X125214Y253224D01*
X125211Y253228D01*
X125209Y253230D01*
X125202Y253241D01*
X125174Y253284D01*
X125171Y253288D01*
X125167Y253294D01*
X125155Y253311D01*
X125153Y253315D01*
X125152Y253316D01*
X125152Y253316D01*
X125151Y253318D01*
X125148Y253322D01*
X125148Y253323D01*
X125147Y253323D01*
X125147Y253324D01*
X125146Y253325D01*
X125139Y253336D01*
X125138Y253338D01*
X125137Y253339D01*
X125136Y253340D01*
X125134Y253344D01*
X125123Y253359D01*
X125122Y253361D01*
X125121Y253363D01*
X125119Y253365D01*
X125116Y253370D01*
D01*
X125116D01*
X125116D01*
X125116D01*
X125046Y253417D01*
X125034Y253425D01*
X125033Y253426D01*
X125020Y253435D01*
X125012Y253440D01*
X124990Y253454D01*
X124990D01*
X124969Y253468D01*
X124967Y253469D01*
X124967Y253470D01*
X124963Y253472D01*
X124961Y253474D01*
X124955Y253478D01*
D01*
X124955Y253478D01*
X124955Y253478D01*
X124955Y253478D01*
X124955Y253478D01*
X124955Y253478D01*
D01*
X124937Y253490D01*
X124936Y253490D01*
X124936Y253491D01*
X124933Y253493D01*
X124931Y253494D01*
X124926Y253497D01*
X124926D01*
X124892Y253520D01*
X124891Y253521D01*
X124888Y253522D01*
X124873Y253532D01*
X124831Y253560D01*
X124824Y253565D01*
X124808Y253576D01*
X124802Y253580D01*
X124801Y253580D01*
X124799Y253582D01*
X124796Y253584D01*
X124795Y253584D01*
X124795Y253585D01*
X124794Y253585D01*
X124771Y253601D01*
X124768Y253603D01*
X124766Y253604D01*
X124758Y253609D01*
X124758D01*
X124758Y253609D01*
X124682Y253624D01*
X124542Y253652D01*
X124537Y253653D01*
X124519Y253657D01*
X124462Y253668D01*
X124462D01*
X124462Y253668D01*
X124461Y253668D01*
X124461Y253668D01*
X124461Y253668D01*
D01*
X124457Y253669D01*
X124449Y253671D01*
X124448Y253671D01*
X124445Y253672D01*
X124408Y253679D01*
X124368Y253687D01*
X124357Y253689D01*
X124337Y253693D01*
D02*
G37*
G36*
X113615Y283052D02*
X111840Y282877D01*
X110133Y282360D01*
X108560Y281519D01*
X107181Y280387D01*
X106049Y279008D01*
X105208Y277435D01*
X104691Y275728D01*
X104516Y273953D01*
X104554Y273564D01*
X84232Y253242D01*
X75698D01*
X75450Y253544D01*
X74071Y254676D01*
X72498Y255517D01*
X71020Y255965D01*
X70883Y256283D01*
X70960Y258776D01*
X71803Y259423D01*
X71803Y259423D01*
X71950Y259615D01*
X72449Y260266D01*
X72856Y261247D01*
X72994Y262300D01*
X72856Y263353D01*
X72449Y264334D01*
X71803Y265177D01*
X70960Y265824D01*
X69979Y266230D01*
X68926Y266369D01*
X67873Y266230D01*
X66891Y265824D01*
X66049Y265177D01*
X65402Y264334D01*
X64996Y263353D01*
X64857Y262300D01*
X64996Y261247D01*
X65402Y260266D01*
X66049Y259423D01*
X66891Y258776D01*
X67867Y258372D01*
X67873Y258370D01*
X67859Y258286D01*
X67747Y257571D01*
X67733Y257487D01*
X66257Y255736D01*
X65534Y255517D01*
X63961Y254676D01*
X62582Y253544D01*
X61451Y252165D01*
X60610Y250592D01*
X60092Y248885D01*
X59917Y247110D01*
X59956Y246721D01*
X56626Y243392D01*
X-14300D01*
X-15007Y244253D01*
X-16505Y245483D01*
X-18215Y246397D01*
X-20071Y246960D01*
X-22000Y247150D01*
X-23930Y246960D01*
X-25785Y246397D01*
X-27495Y245483D01*
X-28993Y244253D01*
X-30223Y242755D01*
X-31137Y241045D01*
X-31700Y239189D01*
X-31890Y237260D01*
X-31700Y235330D01*
X-31137Y233475D01*
X-30223Y231765D01*
X-28993Y230266D01*
X-27495Y229036D01*
X-25785Y228122D01*
X-23930Y227560D01*
X-22000Y227370D01*
X-20071Y227560D01*
X-18215Y228122D01*
X-16505Y229036D01*
X-15007Y230266D01*
X-14300Y231128D01*
X59166D01*
X60362Y231246D01*
X61513Y231595D01*
X62573Y232161D01*
X63502Y232924D01*
X68628Y238050D01*
X69016Y238011D01*
X70791Y238186D01*
X72498Y238704D01*
X74071Y239545D01*
X75450Y240676D01*
X75698Y240978D01*
X86772D01*
X87968Y241096D01*
X89118Y241445D01*
X90179Y242012D01*
X91108Y242774D01*
X113226Y264893D01*
X113615Y264854D01*
X115390Y265029D01*
X117097Y265547D01*
X118670Y266388D01*
X120049Y267519D01*
X121180Y268898D01*
X122021Y270471D01*
X122539Y272178D01*
X122714Y273953D01*
X122539Y275728D01*
X122021Y277435D01*
X121180Y279008D01*
X120049Y280387D01*
X118670Y281519D01*
X117097Y282360D01*
X115390Y282877D01*
X113615Y283052D01*
D02*
G37*
G36*
X-67000Y86792D02*
X-68135Y86448D01*
X-69537Y85698D01*
X-70766Y84690D01*
X-71775Y83461D01*
X-72524Y82059D01*
X-72868Y80924D01*
X-67000D01*
Y86792D01*
D02*
G37*
G36*
X-161488D02*
Y80924D01*
X-155620D01*
X-155964Y82059D01*
X-156714Y83461D01*
X-157722Y84690D01*
X-158951Y85698D01*
X-160353Y86448D01*
X-161488Y86792D01*
D02*
G37*
G36*
X-165425D02*
X-166560Y86448D01*
X-167962Y85698D01*
X-169191Y84690D01*
X-170200Y83461D01*
X-170949Y82059D01*
X-171294Y80924D01*
X-165425D01*
Y86792D01*
D02*
G37*
G36*
X14868Y92937D02*
Y87068D01*
X20737D01*
X20393Y88204D01*
X19643Y89606D01*
X18635Y90835D01*
X17406Y91843D01*
X16003Y92593D01*
X14868Y92937D01*
D02*
G37*
G36*
X10932D02*
X9797Y92593D01*
X8394Y91843D01*
X7165Y90835D01*
X6157Y89606D01*
X5407Y88204D01*
X5063Y87068D01*
X10932D01*
Y92937D01*
D02*
G37*
G36*
X-63063Y86792D02*
Y80924D01*
X-57195D01*
X-57539Y82059D01*
X-58288Y83461D01*
X-59297Y84690D01*
X-60526Y85698D01*
X-61928Y86448D01*
X-63063Y86792D01*
D02*
G37*
G36*
X-67000Y76987D02*
X-72868D01*
X-72524Y75852D01*
X-71775Y74449D01*
X-70766Y73221D01*
X-69537Y72212D01*
X-68135Y71463D01*
X-67000Y71118D01*
Y76987D01*
D02*
G37*
G36*
X-155620D02*
X-161488D01*
Y71118D01*
X-160353Y71463D01*
X-158951Y72212D01*
X-157722Y73221D01*
X-156714Y74449D01*
X-155964Y75852D01*
X-155620Y76987D01*
D02*
G37*
G36*
X-165425D02*
X-171294D01*
X-170949Y75852D01*
X-170200Y74449D01*
X-169191Y73221D01*
X-167962Y72212D01*
X-166560Y71463D01*
X-165425Y71118D01*
Y76987D01*
D02*
G37*
G36*
X20737Y83131D02*
X14868D01*
Y77263D01*
X16003Y77607D01*
X17406Y78357D01*
X18635Y79365D01*
X19643Y80594D01*
X20393Y81997D01*
X20737Y83131D01*
D02*
G37*
G36*
X10932D02*
X5063D01*
X5407Y81997D01*
X6157Y80594D01*
X7165Y79365D01*
X8394Y78357D01*
X9797Y77607D01*
X10932Y77263D01*
Y83131D01*
D02*
G37*
G36*
X-57195Y76987D02*
X-63063D01*
Y71118D01*
X-61928Y71463D01*
X-60526Y72212D01*
X-59297Y73221D01*
X-58288Y74449D01*
X-57539Y75852D01*
X-57195Y76987D01*
D02*
G37*
G36*
X9132Y143832D02*
X3263D01*
X3607Y142696D01*
X4357Y141294D01*
X5365Y140065D01*
X6594Y139057D01*
X7997Y138307D01*
X9132Y137963D01*
Y143832D01*
D02*
G37*
G36*
X-101400Y229029D02*
X-103065Y228897D01*
X-104690Y228507D01*
X-106233Y227868D01*
X-107657Y226995D01*
X-108927Y225911D01*
X-110012Y224640D01*
X-110885Y223216D01*
X-111524Y221673D01*
X-111914Y220049D01*
X-112045Y218384D01*
X-111914Y216718D01*
X-111853Y216465D01*
Y201708D01*
X-111722Y200043D01*
X-111332Y198419D01*
X-110693Y196876D01*
X-109820Y195451D01*
X-108735Y194181D01*
X-107465Y193096D01*
X-106041Y192224D01*
X-104498Y191584D01*
X-103460Y191335D01*
X-102742Y189803D01*
X-102647Y188807D01*
X-116027Y175427D01*
X-117112Y174157D01*
X-117985Y172733D01*
X-118624Y171189D01*
X-119014Y169565D01*
X-119024Y169444D01*
X-119145Y167900D01*
X-119145Y167900D01*
Y162471D01*
X-119245Y161200D01*
X-119245Y161200D01*
Y141200D01*
X-119114Y139535D01*
X-118724Y137910D01*
X-118085Y136367D01*
X-117457Y135343D01*
X-117888Y134016D01*
X-118642Y132981D01*
X-180016D01*
X-180629Y133657D01*
X-180755Y134930D01*
X-181126Y136155D01*
X-181729Y137283D01*
X-182541Y138272D01*
X-183530Y139084D01*
X-184659Y139687D01*
X-185883Y140059D01*
X-187157Y140184D01*
X-188430Y140059D01*
X-189655Y139687D01*
X-190783Y139084D01*
X-191772Y138272D01*
X-192584Y137283D01*
X-193187Y136155D01*
X-193559Y134930D01*
X-193684Y133657D01*
X-193559Y132383D01*
X-193187Y131159D01*
X-192584Y130030D01*
X-191772Y129041D01*
X-190783Y128229D01*
X-189655Y127626D01*
X-188430Y127255D01*
X-187157Y127129D01*
X-185883Y127255D01*
X-185826Y127272D01*
X-185434Y126880D01*
X-184694Y126312D01*
X-183832Y125955D01*
X-182907Y125833D01*
X-94493D01*
X-93568Y125955D01*
X-92706Y126312D01*
X-91966Y126880D01*
X-81273Y137573D01*
X-80705Y138313D01*
X-80348Y139175D01*
X-80226Y140100D01*
Y162645D01*
X-80173Y162673D01*
X-79184Y163484D01*
X-78373Y164473D01*
X-77769Y165602D01*
X-77398Y166826D01*
X-77272Y168100D01*
X-77398Y169374D01*
X-77539Y169839D01*
X-76547Y171674D01*
X-75948Y172201D01*
X-46956D01*
X-29527Y154772D01*
X-28257Y153687D01*
X-26833Y152814D01*
X-26474Y152666D01*
Y135509D01*
X-26539Y135401D01*
X-28422Y133680D01*
X-28900Y133728D01*
X-30174Y133602D01*
X-31398Y133231D01*
X-32526Y132627D01*
X-33516Y131816D01*
X-34327Y130826D01*
X-34931Y129698D01*
X-35302Y128473D01*
X-35427Y127200D01*
X-35302Y125926D01*
X-34931Y124702D01*
X-34327Y123574D01*
X-33516Y122584D01*
X-32526Y121773D01*
X-31398Y121169D01*
X-30174Y120798D01*
X-28900Y120673D01*
X-27626Y120798D01*
X-26402Y121169D01*
X-25273Y121773D01*
X-24284Y122584D01*
X-23473Y123574D01*
X-22869Y124702D01*
X-22498Y125926D01*
X-22373Y127200D01*
X-22498Y128473D01*
X-22515Y128531D01*
X-20373Y130673D01*
X-19805Y131413D01*
X-19448Y132275D01*
X-19326Y133200D01*
Y152027D01*
X-18711Y152175D01*
X-17167Y152814D01*
X-15743Y153687D01*
X-14473Y154772D01*
X-13388Y156042D01*
X-12515Y157466D01*
X-11876Y159010D01*
X-11486Y160634D01*
X-11355Y162299D01*
X-11486Y163964D01*
X-11876Y165589D01*
X-12515Y167132D01*
X-11742Y169430D01*
X-11019Y169788D01*
X-8674Y168437D01*
Y132956D01*
X-8726Y132927D01*
X-9716Y132116D01*
X-10527Y131126D01*
X-11131Y129998D01*
X-11502Y128773D01*
X-11627Y127500D01*
X-11502Y126226D01*
X-11131Y125002D01*
X-10527Y123873D01*
X-9716Y122884D01*
X-8726Y122073D01*
X-7598Y121469D01*
X-6373Y121098D01*
X-5100Y120973D01*
X-3827Y121098D01*
X-2602Y121469D01*
X-1474Y122073D01*
X-484Y122884D01*
X327Y123873D01*
X931Y125002D01*
X1302Y126226D01*
X1428Y127500D01*
X1302Y128773D01*
X931Y129998D01*
X327Y131126D01*
X-484Y132116D01*
X-1474Y132927D01*
X-1526Y132956D01*
Y189250D01*
X-1648Y190175D01*
X-2005Y191037D01*
X-2573Y191777D01*
X-11422Y200626D01*
X-11486Y201445D01*
X-11876Y203069D01*
X-12515Y204612D01*
X-13388Y206036D01*
X-14473Y207307D01*
X-16402Y209235D01*
X-17672Y210320D01*
X-19096Y211193D01*
X-20639Y211832D01*
X-22264Y212222D01*
X-22385Y212232D01*
X-23929Y212353D01*
X-23929Y212353D01*
X-90563D01*
Y218192D01*
X-90694Y219857D01*
X-91084Y221481D01*
X-91724Y223025D01*
X-92596Y224449D01*
X-93681Y225719D01*
X-93681Y225719D01*
X-93873Y225911D01*
X-95143Y226995D01*
X-96567Y227868D01*
X-98111Y228507D01*
X-99735Y228897D01*
X-101400Y229029D01*
D02*
G37*
G36*
X18937Y143832D02*
X13069D01*
Y137963D01*
X14203Y138307D01*
X15606Y139057D01*
X16835Y140065D01*
X17843Y141294D01*
X18593Y142696D01*
X18937Y143832D01*
D02*
G37*
G36*
X-173563Y148932D02*
X-179431D01*
Y143063D01*
X-178296Y143407D01*
X-176894Y144157D01*
X-175665Y145165D01*
X-174657Y146394D01*
X-173907Y147796D01*
X-173563Y148932D01*
D02*
G37*
G36*
X-183369D02*
X-189237D01*
X-188893Y147796D01*
X-188143Y146394D01*
X-187135Y145165D01*
X-185906Y144157D01*
X-184503Y143407D01*
X-183369Y143063D01*
Y148932D01*
D02*
G37*
G36*
X-84784Y114458D02*
X-86442Y114295D01*
X-88038Y113811D01*
X-89508Y113025D01*
X-90796Y111968D01*
X-91854Y110679D01*
X-92639Y109209D01*
X-93123Y107614D01*
X-93287Y105955D01*
X-93123Y104296D01*
X-92639Y102701D01*
X-91854Y101231D01*
X-90796Y99942D01*
X-89508Y98885D01*
X-88038Y98099D01*
X-86442Y97615D01*
X-84784Y97452D01*
X-83125Y97615D01*
X-81529Y98099D01*
X-80059Y98885D01*
X-78771Y99942D01*
X-77713Y101231D01*
X-76928Y102701D01*
X-76444Y104296D01*
X-76280Y105955D01*
X-76444Y107614D01*
X-76928Y109209D01*
X-77713Y110679D01*
X-78771Y111968D01*
X-80059Y113025D01*
X-81529Y113811D01*
X-83125Y114295D01*
X-84784Y114458D01*
D02*
G37*
G36*
X-172283D02*
X-173942Y114295D01*
X-175538Y113811D01*
X-177007Y113025D01*
X-178296Y111968D01*
X-179354Y110679D01*
X-180139Y109209D01*
X-180623Y107614D01*
X-180787Y105955D01*
X-180623Y104296D01*
X-180139Y102701D01*
X-179354Y101231D01*
X-178296Y99942D01*
X-177007Y98885D01*
X-175538Y98099D01*
X-173942Y97615D01*
X-172283Y97452D01*
X-170625Y97615D01*
X-169029Y98099D01*
X-167559Y98885D01*
X-166271Y99942D01*
X-165213Y101231D01*
X-164428Y102701D01*
X-163944Y104296D01*
X-163780Y105955D01*
X-163944Y107614D01*
X-164428Y109209D01*
X-165213Y110679D01*
X-166271Y111968D01*
X-167559Y113025D01*
X-169029Y113811D01*
X-170625Y114295D01*
X-172283Y114458D01*
D02*
G37*
G36*
X56221Y131621D02*
X54948Y131495D01*
X53723Y131124D01*
X52595Y130521D01*
X51605Y129709D01*
X50794Y128720D01*
X50766Y128667D01*
X22798D01*
X21873Y128545D01*
X21011Y128188D01*
X20271Y127620D01*
X-9289Y98060D01*
X-9857Y97320D01*
X-10214Y96458D01*
X-10336Y95533D01*
Y32657D01*
X-10389Y32629D01*
X-11378Y31817D01*
X-12190Y30828D01*
X-12793Y29700D01*
X-13164Y28475D01*
X-13290Y27202D01*
X-13164Y25928D01*
X-12793Y24704D01*
X-12190Y23575D01*
X-11378Y22586D01*
X-10389Y21774D01*
X-9260Y21171D01*
X-8036Y20800D01*
X-6762Y20674D01*
X-5489Y20800D01*
X-4264Y21171D01*
X-3136Y21774D01*
X-2147Y22586D01*
X-1335Y23575D01*
X-732Y24704D01*
X-360Y25928D01*
X-235Y27202D01*
X-360Y28475D01*
X-732Y29700D01*
X-1335Y30828D01*
X-2147Y31817D01*
X-3136Y32629D01*
X-3189Y32657D01*
Y94052D01*
X24279Y121519D01*
X50766D01*
X50794Y121467D01*
X51605Y120478D01*
X52595Y119666D01*
X53723Y119063D01*
X54948Y118691D01*
X56221Y118566D01*
X57494Y118691D01*
X58719Y119063D01*
X59847Y119666D01*
X60837Y120478D01*
X61648Y121467D01*
X62252Y122595D01*
X62623Y123820D01*
X62748Y125093D01*
X62623Y126367D01*
X62252Y127591D01*
X61648Y128720D01*
X60837Y129709D01*
X59847Y130521D01*
X58719Y131124D01*
X57494Y131495D01*
X56221Y131621D01*
D02*
G37*
%LPD*%
G36*
X-8674Y187770D02*
Y185013D01*
X-11036Y183896D01*
X-11313Y184124D01*
X-12715Y184873D01*
X-13850Y185217D01*
Y177380D01*
X-17787D01*
Y185217D01*
X-18923Y184873D01*
X-20325Y184124D01*
X-21553Y183115D01*
X-22562Y181886D01*
X-22781Y181476D01*
X-25471Y180824D01*
X-33347Y188701D01*
X-32369Y191063D01*
X-28087D01*
X-26833Y190295D01*
X-25289Y189655D01*
X-23665Y189266D01*
X-22000Y189135D01*
X-20335Y189266D01*
X-18711Y189655D01*
X-17167Y190295D01*
X-15743Y191167D01*
X-14473Y192252D01*
X-13206Y192302D01*
X-8674Y187770D01*
D02*
G37*
G36*
X85028Y-71582D02*
X85768Y-72150D01*
X86630Y-72507D01*
X87555Y-72629D01*
X95952D01*
X97073Y-74621D01*
X97113Y-74739D01*
X96366Y-75648D01*
X95799Y-76709D01*
X95451Y-77859D01*
X95333Y-79055D01*
X95451Y-80251D01*
X95799Y-81402D01*
X96366Y-82462D01*
X96275Y-83382D01*
X96010Y-83600D01*
X95050Y-84769D01*
X94337Y-86103D01*
X94039Y-87087D01*
X109678D01*
X109379Y-86103D01*
X108785Y-84991D01*
X109036Y-84161D01*
X109966Y-82629D01*
X120645D01*
X121570Y-82507D01*
X122432Y-82150D01*
X123172Y-81582D01*
X136225Y-68529D01*
X168600D01*
X168628Y-68582D01*
X169439Y-69571D01*
X170429Y-70382D01*
X171557Y-70986D01*
X172782Y-71357D01*
X174055Y-71483D01*
X175329Y-71357D01*
X176553Y-70986D01*
X177682Y-70382D01*
X178671Y-69571D01*
X179482Y-68582D01*
X179511Y-68529D01*
X182639D01*
X183036Y-69014D01*
X183815Y-71053D01*
X183815D01*
Y-83258D01*
X181587Y-83581D01*
X179700D01*
X179672Y-83529D01*
X178860Y-82539D01*
X177871Y-81728D01*
X176743Y-81125D01*
X175518Y-80753D01*
X174245Y-80628D01*
X172971Y-80753D01*
X171747Y-81125D01*
X170618Y-81728D01*
X169629Y-82539D01*
X168817Y-83529D01*
X168789Y-83581D01*
X135945D01*
X135945Y-83581D01*
X135020Y-83703D01*
X134158Y-84060D01*
X133418Y-84628D01*
X119824Y-98221D01*
X118300Y-97910D01*
X117304Y-97402D01*
X117031Y-96502D01*
X116427Y-95373D01*
X115616Y-94384D01*
X114627Y-93573D01*
X113498Y-92969D01*
X112274Y-92598D01*
X111686Y-92540D01*
X110275Y-91044D01*
X110264Y-91024D01*
X94039D01*
X94337Y-92007D01*
X95050Y-93341D01*
X96010Y-94510D01*
X96275Y-94728D01*
X96366Y-95648D01*
X95799Y-96709D01*
X95451Y-97859D01*
X95333Y-99055D01*
X95451Y-100251D01*
X95799Y-101402D01*
X96366Y-102462D01*
X97129Y-103391D01*
Y-104719D01*
X96366Y-105648D01*
X95799Y-106709D01*
X95451Y-107859D01*
X95333Y-109055D01*
X95451Y-110251D01*
X95799Y-111402D01*
X96366Y-112462D01*
X96904Y-114055D01*
X96366Y-115648D01*
X95799Y-116709D01*
X95451Y-117859D01*
X95333Y-119055D01*
X95451Y-120251D01*
X95799Y-121402D01*
X96366Y-122462D01*
X96692Y-123425D01*
X95341Y-125481D01*
X88936D01*
X74525Y-111071D01*
Y-64166D01*
X76708Y-63262D01*
X85028Y-71582D01*
D02*
G37*
G36*
X200926Y-127864D02*
Y-207420D01*
X191459Y-216886D01*
X190173Y-216572D01*
X189100Y-215905D01*
X188986Y-214738D01*
X188524Y-213217D01*
X187775Y-211815D01*
X186766Y-210586D01*
X185537Y-209577D01*
X184135Y-208828D01*
X183000Y-208484D01*
Y-216320D01*
X181032D01*
Y-218289D01*
X173195D01*
X173539Y-219424D01*
X174288Y-220826D01*
X175297Y-222055D01*
X176526Y-223064D01*
X177928Y-223813D01*
X179449Y-224275D01*
X180616Y-224389D01*
X181283Y-225462D01*
X181597Y-226748D01*
X172864Y-235481D01*
X146499D01*
X145833Y-234008D01*
X145773Y-233119D01*
X146512Y-232512D01*
X147324Y-231523D01*
X147927Y-230395D01*
X148299Y-229170D01*
X148424Y-227897D01*
X148299Y-226623D01*
X148090Y-225936D01*
X148832Y-224430D01*
X149630Y-223574D01*
X155913D01*
X156838Y-223452D01*
X157343Y-223243D01*
X157700Y-223095D01*
X158440Y-222527D01*
X158810Y-222158D01*
X166551D01*
Y-209953D01*
X166551Y-209953D01*
X166360Y-207591D01*
X166463Y-207251D01*
X166581Y-206055D01*
X166463Y-204859D01*
X166114Y-203709D01*
X165547Y-202648D01*
X165638Y-201728D01*
X165904Y-201510D01*
X166863Y-200341D01*
X167576Y-199007D01*
X167874Y-198024D01*
X151842D01*
X152141Y-199007D01*
X152735Y-200119D01*
X152484Y-200950D01*
X151554Y-202481D01*
X127185D01*
X125791Y-200119D01*
X125837Y-199969D01*
X118000D01*
Y-196031D01*
X125837D01*
X125493Y-194896D01*
X124743Y-193494D01*
X124197Y-192829D01*
X125103Y-190792D01*
X125305Y-190574D01*
X150870D01*
X152230Y-192936D01*
X152141Y-193103D01*
X151842Y-194087D01*
X167874D01*
X167576Y-193103D01*
X166863Y-191769D01*
X165904Y-190600D01*
X165638Y-190382D01*
X165547Y-189462D01*
X166114Y-188402D01*
X166463Y-187251D01*
X166581Y-186055D01*
X166463Y-184859D01*
X166114Y-183709D01*
X165547Y-182648D01*
X164785Y-181719D01*
Y-180391D01*
X165547Y-179462D01*
X166114Y-178402D01*
X166463Y-177251D01*
X166581Y-176055D01*
X166463Y-174859D01*
X166114Y-173708D01*
X165547Y-172648D01*
X164785Y-171719D01*
X163856Y-170957D01*
X162795Y-170390D01*
X161645Y-170041D01*
X160449Y-169923D01*
X159268D01*
X158071Y-170041D01*
X156921Y-170390D01*
X155861Y-170957D01*
X154932Y-171719D01*
X154306Y-172481D01*
X149557D01*
X149206Y-170119D01*
X149498Y-170031D01*
X150627Y-169427D01*
X151616Y-168616D01*
X152427Y-167627D01*
X153031Y-166498D01*
X153402Y-165273D01*
X153527Y-164000D01*
X153402Y-162726D01*
X153031Y-161502D01*
X152427Y-160373D01*
X151616Y-159384D01*
X150627Y-158573D01*
X149498Y-157969D01*
X148274Y-157598D01*
X147000Y-157473D01*
X145727Y-157598D01*
X144502Y-157969D01*
X143374Y-158573D01*
X142384Y-159384D01*
X141827Y-160063D01*
X141313Y-160049D01*
X140679Y-159926D01*
X139460Y-159315D01*
X139402Y-158727D01*
X139031Y-157502D01*
X138427Y-156374D01*
X137616Y-155384D01*
X136627Y-154573D01*
X135498Y-153969D01*
X134274Y-153598D01*
X133000Y-153472D01*
X131727Y-153598D01*
X130502Y-153969D01*
X129374Y-154573D01*
X128384Y-155384D01*
X127573Y-156374D01*
X127544Y-156426D01*
X119033D01*
X118129Y-154244D01*
X137144Y-135229D01*
X169334D01*
X169362Y-135282D01*
X170174Y-136271D01*
X171163Y-137083D01*
X172292Y-137686D01*
X173516Y-138057D01*
X174790Y-138183D01*
X176063Y-138057D01*
X177288Y-137686D01*
X178416Y-137083D01*
X179405Y-136271D01*
X180217Y-135282D01*
X180245Y-135229D01*
X184957D01*
X185582Y-135991D01*
X186511Y-136754D01*
X187571Y-137320D01*
X188722Y-137669D01*
X189918Y-137787D01*
X191099D01*
X192295Y-137669D01*
X193446Y-137320D01*
X194506Y-136754D01*
X195435Y-135991D01*
X196197Y-135062D01*
X196764Y-134002D01*
X197113Y-132851D01*
X197231Y-131655D01*
X197113Y-130459D01*
X197010Y-130120D01*
X197201Y-127758D01*
X198992Y-126377D01*
X199038Y-126358D01*
X200926Y-127864D01*
D02*
G37*
%LPC*%
G36*
X179063Y-208484D02*
X177928Y-208828D01*
X176526Y-209577D01*
X175297Y-210586D01*
X174288Y-211815D01*
X173539Y-213217D01*
X173195Y-214352D01*
X179063D01*
Y-208484D01*
D02*
G37*
%LPD*%
D35*
X-280000Y250000D02*
D03*
X290000Y-290000D02*
D03*
D37*
X-15950Y199400D02*
D03*
X-15250D02*
D03*
D39*
X-22900Y155750D02*
D03*
Y156450D02*
D03*
D47*
X112900Y-209000D02*
X120000D01*
X110100Y-206200D02*
X112900Y-209000D01*
X110100Y-206200D02*
Y-196603D01*
X102552Y-189055D02*
X110100Y-196603D01*
X101858Y-189055D02*
X102552D01*
X41858Y-209055D02*
X80245D01*
X92000Y-197300D01*
Y-189000D01*
X101913Y-99000D02*
X111000D01*
X101858Y-29055D02*
X101913Y-29000D01*
X113000D01*
X33055Y-19055D02*
X41858D01*
X33000Y-19000D02*
X33055Y-19055D01*
X92000Y-189000D02*
X101803D01*
X101858Y-189055D01*
X53945Y-199055D02*
X54000Y-199000D01*
X41858Y-199055D02*
X53945D01*
X-214600Y-11778D02*
X-214567Y-11811D01*
X-283200Y56822D02*
X-214600Y-11778D01*
Y7100D01*
X-273700Y197700D02*
X-255800Y215600D01*
X-273700Y158300D02*
Y197700D01*
X-283200Y148800D02*
X-273700Y158300D01*
X-283200Y56822D02*
Y148800D01*
X164389Y-269055D02*
X218673Y-214771D01*
X101858Y-269055D02*
X164389D01*
X161070Y-279055D02*
X223398Y-216728D01*
X101858Y-279055D02*
X161070D01*
X171026Y-249055D02*
X209224Y-210857D01*
X101858Y-249055D02*
X171026D01*
X174345Y-239055D02*
X204500Y-208900D01*
X101858Y-239055D02*
X174345D01*
X167708Y-259055D02*
X213949Y-212814D01*
X101858Y-259055D02*
X167708D01*
X200132Y-121655D02*
X204500Y-126023D01*
X190508Y-121655D02*
X200132D01*
X204500Y-208900D02*
Y-126023D01*
X200132Y-99255D02*
X209224Y-108347D01*
X190508Y-99255D02*
X200132D01*
X209224Y-210857D02*
Y-108347D01*
X200132Y-54955D02*
X218673Y-73496D01*
X190508Y-54955D02*
X200132D01*
X218673Y-214771D02*
Y-73496D01*
X200132Y-77155D02*
X213949Y-90972D01*
X190508Y-77155D02*
X200132D01*
X213949Y-212814D02*
Y-90972D01*
X101858Y-269500D02*
Y-269055D01*
X223398Y-216728D02*
Y-55921D01*
X118000Y-198000D02*
X157913D01*
X120000Y-209000D02*
Y-207110D01*
X119000Y-220000D02*
X155913D01*
X119000Y-187000D02*
X158913D01*
X119055Y-176055D02*
X159858D01*
X115622Y-168378D02*
X142622D01*
X104945Y-179055D02*
X115622Y-168378D01*
X200132Y-32655D02*
X223398Y-55921D01*
X190508Y-32655D02*
X200132D01*
X101858Y-159055D02*
X108264D01*
X135664Y-131655D01*
X174790D01*
X190508D01*
X101858Y-119055D02*
X126145D01*
X135945Y-109255D01*
X174645D01*
X190508D01*
X135945Y-87155D02*
X174245D01*
X114045Y-109055D02*
X135945Y-87155D01*
X101858Y-109055D02*
X114045D01*
X174245Y-87155D02*
X190508D01*
X134745Y-64955D02*
X174055D01*
X120645Y-79055D02*
X134745Y-64955D01*
X101858Y-79055D02*
X120645D01*
X174055Y-64955D02*
X190508D01*
X173700Y-42655D02*
X190508D01*
X133445D02*
X173700D01*
X101858Y-49055D02*
X127045D01*
X133445Y-42655D01*
X88077Y-14177D02*
X92955Y-19055D01*
X101858D01*
X92802Y-5402D02*
Y107837D01*
Y-5402D02*
X96455Y-9055D01*
X88077Y-14177D02*
Y105880D01*
X81096Y112861D02*
X88077Y105880D01*
X81096Y112861D02*
Y141796D01*
X89300Y111338D02*
Y191300D01*
Y111338D02*
X92802Y107837D01*
X87755Y-139055D02*
X101858D01*
X66227Y-117527D02*
X87755Y-139055D01*
X66227Y-117527D02*
Y31973D01*
X87455Y-129055D02*
X101858D01*
X70951Y-112551D02*
X87455Y-129055D01*
X70951Y-112551D02*
Y39949D01*
X87555Y-59055D02*
X101858D01*
X80400Y-51900D02*
X87555Y-59055D01*
X80400Y-51900D02*
Y102700D01*
X87555Y-69055D02*
X101858D01*
X75676Y-57176D02*
X87555Y-69055D01*
X75676Y-57176D02*
Y75924D01*
X87255Y-149055D02*
X101858D01*
X61502Y-123302D02*
X87255Y-149055D01*
X61502Y-123302D02*
Y24998D01*
X48100Y62800D02*
X70951Y39949D01*
X44500Y42000D02*
X61502Y24998D01*
X12073Y42000D02*
X44500D01*
X47600Y50600D02*
X66227Y31973D01*
X96455Y-9055D02*
X101858D01*
X89300Y191300D02*
X123300Y225300D01*
X101858Y945D02*
X102565Y1651D01*
X188700D01*
X178900Y117400D02*
X189000Y107300D01*
X192180Y99623D02*
X198957Y106400D01*
X212400D01*
X178900Y117400D02*
Y133000D01*
X224100Y104200D02*
Y131200D01*
X207097Y87197D02*
X224100Y104200D01*
X153497Y87197D02*
X207097D01*
X101858Y10945D02*
X220545D01*
X273800Y64200D01*
Y173300D01*
X221900Y225200D02*
X273800Y173300D01*
X221900Y225200D02*
Y227000D01*
X39600Y112000D02*
X75676Y75924D01*
X264000Y76000D02*
Y156200D01*
X221600Y33600D02*
X264000Y76000D01*
X229400Y64600D02*
Y93000D01*
X101858Y30945D02*
X102200Y31287D01*
Y56900D01*
X222200Y175300D02*
Y182000D01*
Y175300D02*
X237035Y160465D01*
Y103165D02*
Y160465D01*
X135432Y112968D02*
Y131732D01*
X208646Y226635D02*
Y257874D01*
Y205486D02*
Y226635D01*
Y257874D02*
X219124Y268353D01*
X181442Y268000D02*
X189354Y260088D01*
Y205486D02*
Y260088D01*
X86772Y247110D02*
X113615Y273953D01*
X69016Y247110D02*
X86772D01*
X59166Y237260D02*
X69016Y247110D01*
X-22000Y237260D02*
X59166D01*
X-167100Y223600D02*
Y232443D01*
X-167700Y242700D02*
Y244100D01*
X-148685Y263115D01*
X-167100Y232443D02*
X-160023Y239520D01*
Y243577D02*
X-151115Y252485D01*
X-160023Y239520D02*
Y243577D01*
X-188677Y190323D02*
X-156268Y222732D01*
X-148685Y263115D02*
X-45700D01*
X-151115Y252485D02*
X-45700D01*
X-156268Y222732D02*
Y229968D01*
X-188677Y183577D02*
Y190323D01*
X-5100Y127500D02*
Y189250D01*
X-15250Y199400D02*
X-5100Y189250D01*
X-28900Y127200D02*
X-22900Y133200D01*
Y155750D01*
X-182907Y129407D02*
X-94493D01*
X-187157Y133657D02*
X-182907Y129407D01*
X-94493D02*
X-83800Y140100D01*
Y168100D01*
X-131657Y236100D02*
X-84900D01*
X-181000Y186757D02*
X-131657Y236100D01*
X-44800Y-119600D02*
Y-66119D01*
X-201100Y90181D02*
X-44800Y-66119D01*
X-201100Y90181D02*
Y185600D01*
X-49524Y-121557D02*
Y-68076D01*
X-218900Y101300D02*
X-49524Y-68076D01*
X-2026Y-169055D02*
X41858D01*
X-5345Y-159055D02*
X41858D01*
X-49524Y-121557D02*
X-2026Y-169055D01*
X28755Y-129055D02*
X41858D01*
X-44800Y-119600D02*
X-5345Y-159055D01*
X-184000Y-24551D02*
Y35772D01*
X-200200Y203700D02*
X-193423Y196923D01*
Y182420D02*
Y196923D01*
X-195000Y180843D02*
X-193423Y182420D01*
X-195000Y161500D02*
Y180843D01*
X-188677Y183577D02*
X-187200Y182099D01*
X-195000Y161500D02*
X-193023Y159523D01*
X-177043Y166500D02*
X-153300D01*
X-187200Y167200D02*
Y182099D01*
X33845Y-89055D02*
X41858D01*
X32500Y-90400D02*
X33845Y-89055D01*
X33145Y-79055D02*
X41858D01*
X32500Y-79700D02*
X33145Y-79055D01*
X32155Y-69055D02*
X41858D01*
X101858Y-169055D02*
X104945D01*
X114000Y-160000D01*
X133000D01*
X142622Y-168378D02*
X147000Y-164000D01*
X101858Y-179055D02*
X104945D01*
X101858Y-219055D02*
X105055D01*
X113897Y-227897D01*
X141897D01*
X155913Y-220000D02*
X159858Y-216055D01*
X120000Y-207110D02*
X121055Y-206055D01*
X159858D01*
X157913Y-198000D02*
X159858Y-196055D01*
X158913Y-187000D02*
X159858Y-186055D01*
X-232283Y84055D02*
X-184000Y35772D01*
X-194882Y-35433D02*
X-184000Y-24551D01*
X-243113Y-82008D02*
X-210008D01*
X-194882Y-66882D01*
Y-35433D01*
Y-11811D02*
Y19882D01*
X-209055Y34055D02*
X-194882Y19882D01*
X-232283Y34055D02*
X-209055D01*
X-232283Y-35433D02*
X-214567D01*
X117913Y100187D02*
Y174113D01*
X127200Y183400D01*
X125196Y148596D02*
X133135Y156535D01*
X125196Y127492D02*
Y148596D01*
Y127492D02*
X125284Y127405D01*
Y108716D02*
Y127405D01*
X135432Y112968D02*
X148777Y99623D01*
X192180D01*
X125284Y108716D02*
X142900Y91100D01*
Y41100D02*
Y91100D01*
Y41100D02*
X148300Y35700D01*
X22798Y125093D02*
X56221D01*
X-6762Y95533D02*
X22798Y125093D01*
X-6762Y27202D02*
Y95533D01*
X219257Y144757D02*
Y151260D01*
X124337Y246180D02*
X219257Y151260D01*
X124337Y246180D02*
Y252591D01*
X117913Y100187D02*
X118000Y100100D01*
X-218900Y101300D02*
Y166600D01*
X-193023Y159523D02*
X-184020D01*
X-177043Y166500D01*
X185745Y20945D02*
X229400Y64600D01*
X101858Y20945D02*
X185745D01*
D48*
X-42547Y182846D02*
X-22000Y162299D01*
X-93554Y182846D02*
X-42547D01*
X-108600Y141200D02*
Y161200D01*
X-108500Y161300D01*
X-101400Y218384D02*
X-101208Y218192D01*
Y201708D02*
Y218192D01*
X-108500Y161300D02*
Y167900D01*
X-93554Y182846D01*
X-23929Y201708D02*
X-22000Y199779D01*
X-101208Y201708D02*
X-23929D01*
X-198852Y287888D02*
X-88688D01*
X-218740Y268000D02*
X-198852Y287888D01*
D49*
X-181260Y268000D02*
D03*
X-218740D02*
D03*
X-22000Y237260D02*
D03*
Y274740D02*
D03*
Y162299D02*
D03*
Y199779D02*
D03*
X218922Y268000D02*
D03*
X181442D02*
D03*
D50*
X190508Y-54955D02*
D03*
Y-121655D02*
D03*
Y-99255D02*
D03*
Y-77155D02*
D03*
Y-32655D02*
D03*
X159858Y-216055D02*
D03*
D51*
X-214567Y-35433D02*
D03*
X-194882D02*
D03*
Y-11811D02*
D03*
X-214567D02*
D03*
X181032Y-19470D02*
D03*
Y-216320D02*
D03*
X-15819Y177380D02*
D03*
Y-19470D02*
D03*
Y-216320D02*
D03*
X-65031Y78955D02*
D03*
X-114244Y-19470D02*
D03*
X-65031Y-117895D02*
D03*
X-114244Y-216320D02*
D03*
X-163457Y78955D02*
D03*
Y-117895D02*
D03*
X-212669Y-216320D02*
D03*
X92000Y-189000D02*
D03*
X54000Y-199000D02*
D03*
X-214600Y7100D02*
D03*
X33000Y-19000D02*
D03*
X-255800Y215600D02*
D03*
X-273700Y158300D02*
D03*
X118000Y-198000D02*
D03*
X120000Y-209000D02*
D03*
X119000Y-220000D02*
D03*
Y-187000D02*
D03*
X119055Y-176055D02*
D03*
X174790Y-131655D02*
D03*
X174645Y-109255D02*
D03*
X174245Y-87155D02*
D03*
X174055Y-64955D02*
D03*
X173700Y-42655D02*
D03*
X81096Y141796D02*
D03*
X12073Y42000D02*
D03*
X47600Y50600D02*
D03*
X48100Y62800D02*
D03*
X123300Y225300D02*
D03*
X188700Y1651D02*
D03*
X189000Y107300D02*
D03*
X178900Y133000D02*
D03*
X221900Y227000D02*
D03*
X39600Y112000D02*
D03*
X80400Y102700D02*
D03*
X264000Y156200D02*
D03*
X221600Y33600D02*
D03*
X229400Y93000D02*
D03*
X102200Y56900D02*
D03*
X219257Y144757D02*
D03*
X222200Y182000D02*
D03*
X237035Y103165D02*
D03*
X224100Y131200D02*
D03*
X153497Y87197D02*
D03*
X127200Y183400D02*
D03*
X212400Y106400D02*
D03*
X135432Y131732D02*
D03*
X208646Y226635D02*
D03*
Y205486D02*
D03*
X189354D02*
D03*
X113615Y273953D02*
D03*
X68926Y262300D02*
D03*
X69016Y247110D02*
D03*
X-167100Y223600D02*
D03*
X-167700Y242700D02*
D03*
X-45700Y263115D02*
D03*
Y252485D02*
D03*
X-5100Y127500D02*
D03*
X-28900Y127200D02*
D03*
X-83800Y168100D02*
D03*
X28755Y-129055D02*
D03*
X-201100Y185600D02*
D03*
X-187157Y133657D02*
D03*
X-153300Y166500D02*
D03*
X-200200Y203700D02*
D03*
X-84900Y236100D02*
D03*
X-181000Y186757D02*
D03*
X-187200Y167200D02*
D03*
X-156268Y229968D02*
D03*
X32500Y-90400D02*
D03*
Y-79700D02*
D03*
X32155Y-69055D02*
D03*
X113000Y-29000D02*
D03*
X111000Y-99000D02*
D03*
X133000Y-160000D02*
D03*
X147000Y-164000D02*
D03*
X141897Y-227897D02*
D03*
X-232283Y-35433D02*
D03*
X133135Y156535D02*
D03*
X148300Y35700D02*
D03*
X56221Y125093D02*
D03*
X-6762Y27202D02*
D03*
X118000Y100100D02*
D03*
X126800Y61400D02*
D03*
X11100Y145800D02*
D03*
X12900Y85100D02*
D03*
X-211700Y221200D02*
D03*
X-218900Y166600D02*
D03*
X-254600Y245500D02*
D03*
X-181400Y150900D02*
D03*
X204200Y21800D02*
D03*
X106273Y188600D02*
D03*
D52*
X101858Y30945D02*
D03*
Y20945D02*
D03*
Y10945D02*
D03*
Y945D02*
D03*
Y-9055D02*
D03*
Y-19055D02*
D03*
Y-29055D02*
D03*
Y-39055D02*
D03*
Y-49055D02*
D03*
Y-59055D02*
D03*
Y-69055D02*
D03*
Y-79055D02*
D03*
Y-89055D02*
D03*
Y-99055D02*
D03*
Y-109055D02*
D03*
Y-119055D02*
D03*
Y-129055D02*
D03*
Y-139055D02*
D03*
Y-149055D02*
D03*
Y-159055D02*
D03*
Y-169055D02*
D03*
Y-179055D02*
D03*
Y-189055D02*
D03*
Y-199055D02*
D03*
Y-209055D02*
D03*
Y-219055D02*
D03*
Y-229055D02*
D03*
Y-239055D02*
D03*
Y-249055D02*
D03*
Y-259055D02*
D03*
Y-269055D02*
D03*
Y-279055D02*
D03*
X41858Y30945D02*
D03*
Y20945D02*
D03*
Y10945D02*
D03*
Y945D02*
D03*
Y-9055D02*
D03*
Y-19055D02*
D03*
Y-29055D02*
D03*
Y-39055D02*
D03*
Y-49055D02*
D03*
Y-59055D02*
D03*
Y-69055D02*
D03*
Y-79055D02*
D03*
Y-89055D02*
D03*
Y-99055D02*
D03*
Y-109055D02*
D03*
Y-119055D02*
D03*
Y-129055D02*
D03*
Y-139055D02*
D03*
Y-149055D02*
D03*
Y-159055D02*
D03*
Y-169055D02*
D03*
Y-179055D02*
D03*
Y-189055D02*
D03*
Y-199055D02*
D03*
Y-209055D02*
D03*
Y-219055D02*
D03*
Y-229055D02*
D03*
Y-239055D02*
D03*
Y-249055D02*
D03*
Y-259055D02*
D03*
Y-269055D02*
D03*
Y-279055D02*
D03*
D53*
X-139097Y-282992D02*
D03*
Y-57008D02*
D03*
D54*
X-243113Y-82008D02*
D03*
Y-132008D02*
D03*
D55*
X-232283Y34055D02*
D03*
Y84055D02*
D03*
X-172283Y105955D02*
D03*
X-84784D02*
D03*
X-172283Y12155D02*
D03*
X-84784D02*
D03*
D56*
X190508Y-131655D02*
D03*
Y-109255D02*
D03*
Y-87155D02*
D03*
Y-64955D02*
D03*
Y-42655D02*
D03*
X159858Y-176055D02*
D03*
Y-186055D02*
D03*
Y-196055D02*
D03*
Y-206055D02*
D03*
D57*
X-280000Y280000D02*
D03*
X280000D02*
D03*
X-280000Y-280000D02*
D03*
X260000D02*
D03*
X-196600Y249200D02*
D03*
X-181260Y256360D02*
D03*
X-108300Y156100D02*
D03*
X-108600Y141200D02*
D03*
X-101400Y218384D02*
D03*
X-101208Y201708D02*
D03*
X-88688Y287888D02*
D03*
X-151900D02*
D03*
X-109758D02*
D03*
X-130829D02*
D03*
D58*
X275590Y-193701D02*
D03*
X-275590D02*
D03*
M02*
