M48
;Layer_Color=9474304
;FILE_FORMAT=2:5
INCH,LZ
;TYPE=PLATED
T1F00S00C0.03543
T2F00S00C0.03937
T3F00S00C0.05118
T4F00S00C0.07087
T5F00S00C0.08100
T6F00S00C0.12520
;TYPE=NON_PLATED
T7F00S00C0.11811
T8F00S00C0.15748
%
T01
X-0212669Y-021632
X-0114244
X-0015819
X0054Y-0199
X0092Y-0189
X0119Y-0187
X0119055Y-0176055
X0118Y-0198
X012Y-0209
X0119Y-022
X0141897Y-0227897
X0147Y-0164
X0133Y-016
X0181032Y-021632
X017479Y-0131655
X0174645Y-0109255
X0174245Y-0087155
X0174055Y-0064955
X01737Y-0042655
X0181032Y-001947
X01887Y0001651
X0113Y-0029
X0111Y-0099
X00325Y-00904
Y-00797
X0032155Y-0069055
X0033Y-0019
X0028755Y-0129055
X-0065031Y-0117895
X-0015819Y-001947
X-0114244
X-0194882Y-0011811
X-0214567
X-02146Y00071
X-0214567Y-0035433
X-0232283
X-0194882
X-0163457Y-0117895
Y0078955
X-0187157Y0133657
X-01814Y01509
X-01872Y01672
X-02189Y01666
X-02737Y01583
X-01533Y01665
X-00838Y01681
X-00289Y01272
X-00051Y01275
X-0006762Y0027202
X-0065031Y0078955
X00129Y00851
X0012073Y0042
X00476Y00506
X00481Y00628
X00396Y0112
X0056221Y0125093
X0081096Y0141796
X00804Y01027
X0118Y01001
X01268Y00614
X01022Y00569
X01483Y00357
X0153497Y0087197
X0135432Y0131732
X0133135Y0156535
X00111Y01458
X01789Y0133
X0189Y01073
X02124Y01064
X0237035Y0103165
X02294Y0093
X02241Y01312
X0219257Y0144757
X0264Y01562
X02216Y00336
X02042Y00218
X02222Y0182
X0208646Y0205486
X0189354
X0208646Y0226635
X02219Y0227
X01233Y02253
X01272Y01834
X0106273Y01886
X0113615Y0273953
X0068926Y02623
X0069016Y024711
X-00457Y0252485
Y0263115
X-00849Y02361
X-0015819Y017738
X-0181Y0186757
X-02011Y01856
X-02002Y02037
X-02117Y02212
X-01671Y02236
X-0156268Y0229968
X-01677Y02427
X-02546Y02455
X-02558Y02156
T02
X0041858Y-0279055
Y-0269055
Y-0259055
Y-0249055
Y-0239055
Y-0229055
Y-0219055
Y-0209055
Y-0199055
Y-0189055
Y-0179055
Y-0169055
Y-0159055
Y-0149055
Y-0139055
X0101858
Y-0149055
Y-0159055
Y-0169055
Y-0179055
Y-0189055
Y-0199055
Y-0209055
Y-0219055
Y-0229055
Y-0239055
Y-0249055
Y-0259055
Y-0269055
Y-0279055
X0159858Y-0216055
Y-0206055
Y-0196055
Y-0186055
Y-0176055
X0190508Y-0131655
Y-0121655
Y-0109255
Y-0099255
Y-0087155
Y-0077155
Y-0064955
Y-0054955
Y-0042655
Y-0032655
X0101858Y-0029055
Y-0019055
Y-0009055
Y0000945
Y0010945
Y-0039055
Y-0049055
Y-0059055
Y-0069055
Y-0079055
Y-0089055
Y-0099055
Y-0109055
Y-0119055
Y-0129055
X0041858
Y-0119055
Y-0109055
Y-0099055
Y-0089055
Y-0079055
Y-0069055
Y-0059055
Y-0049055
Y-0039055
Y-0029055
Y-0019055
Y-0009055
Y0000945
Y0010945
X-0243113Y-0082008
Y-0132008
X0041858Y0020945
Y0030945
X0101858
Y0020945
T03
X-0022Y0162299
X0181442Y0268
X0218922
X-0022Y027474
Y023726
Y0199779
X-018126Y0268
X-021874
T04
X-01086Y01412
X-01083Y01561
X-0101208Y0201708
X-01014Y0218384
X-0109758Y0287888
X-0088688
X-0130829
X-01519
X-018126Y025636
X-01966Y02492
T05
X-0084784Y0012155
X-0172283
X-0232283Y0034055
Y0084055
X-0172283Y0105955
X-0084784
T06
X-0139097Y-0282992
Y-0057008
T07
X-028Y-028
X026
X028Y028
X-028
T08
X-027559Y-0193701
X027559
M30
