G04 Layer_Color=8421504*
%FSLAX25Y25*%
%MOIN*%
G70*
G01*
G75*
%ADD10R,0.08661X0.04724*%
%ADD11R,0.25197X0.22835*%
%ADD12R,0.21260X0.07874*%
G04:AMPARAMS|DCode=13|XSize=60.24mil|YSize=110.04mil|CornerRadius=15.06mil|HoleSize=0mil|Usage=FLASHONLY|Rotation=90.000|XOffset=0mil|YOffset=0mil|HoleType=Round|Shape=RoundedRectangle|*
%AMROUNDEDRECTD13*
21,1,0.06024,0.07992,0,0,90.0*
21,1,0.03012,0.11004,0,0,90.0*
1,1,0.03012,0.03996,0.01506*
1,1,0.03012,0.03996,-0.01506*
1,1,0.03012,-0.03996,-0.01506*
1,1,0.03012,-0.03996,0.01506*
%
%ADD13ROUNDEDRECTD13*%
G04:AMPARAMS|DCode=14|XSize=60.24mil|YSize=110.04mil|CornerRadius=15.06mil|HoleSize=0mil|Usage=FLASHONLY|Rotation=0.000|XOffset=0mil|YOffset=0mil|HoleType=Round|Shape=RoundedRectangle|*
%AMROUNDEDRECTD14*
21,1,0.06024,0.07992,0,0,0.0*
21,1,0.03012,0.11004,0,0,0.0*
1,1,0.03012,0.01506,-0.03996*
1,1,0.03012,-0.01506,-0.03996*
1,1,0.03012,-0.01506,0.03996*
1,1,0.03012,0.01506,0.03996*
%
%ADD14ROUNDEDRECTD14*%
D10*
X-99197Y462976D02*
D03*
Y445024D02*
D03*
X-201197Y465681D02*
D03*
Y447728D02*
D03*
Y428437D02*
D03*
Y410484D02*
D03*
X-99197Y429976D02*
D03*
Y412024D02*
D03*
Y290976D02*
D03*
Y273024D02*
D03*
X-201197Y289437D02*
D03*
Y271484D02*
D03*
X-99197Y323976D02*
D03*
Y306024D02*
D03*
X-201197Y326681D02*
D03*
Y308728D02*
D03*
X-108197Y126976D02*
D03*
Y109024D02*
D03*
X-210197Y125437D02*
D03*
Y107484D02*
D03*
X-108197Y159976D02*
D03*
Y142024D02*
D03*
X-210197Y162681D02*
D03*
Y144728D02*
D03*
X-387197Y439976D02*
D03*
Y422024D02*
D03*
X-489197Y438437D02*
D03*
Y420484D02*
D03*
X-387197Y472976D02*
D03*
Y455024D02*
D03*
X-489197Y475681D02*
D03*
Y457728D02*
D03*
X-375197Y281976D02*
D03*
Y264024D02*
D03*
X-477197Y280437D02*
D03*
Y262484D02*
D03*
X-375197Y314976D02*
D03*
Y297024D02*
D03*
X-477197Y317681D02*
D03*
Y299728D02*
D03*
X-367197Y131976D02*
D03*
Y114024D02*
D03*
X-469197Y130437D02*
D03*
Y112484D02*
D03*
X-367197Y164976D02*
D03*
Y147024D02*
D03*
X-469197Y167681D02*
D03*
Y149728D02*
D03*
D11*
X-124000Y454000D02*
D03*
X-226000Y456705D02*
D03*
Y419461D02*
D03*
X-124000Y421000D02*
D03*
Y282000D02*
D03*
X-226000Y280461D02*
D03*
X-124000Y315000D02*
D03*
X-226000Y317705D02*
D03*
X-133000Y118000D02*
D03*
X-235000Y116461D02*
D03*
X-133000Y151000D02*
D03*
X-235000Y153705D02*
D03*
X-412000Y431000D02*
D03*
X-514000Y429461D02*
D03*
X-412000Y464000D02*
D03*
X-514000Y466705D02*
D03*
X-400000Y273000D02*
D03*
X-502000Y271461D02*
D03*
X-400000Y306000D02*
D03*
X-502000Y308705D02*
D03*
X-392000Y123000D02*
D03*
X-494000Y121461D02*
D03*
X-392000Y156000D02*
D03*
X-494000Y158705D02*
D03*
D12*
X-181000Y428437D02*
D03*
Y447728D02*
D03*
X-152000Y428437D02*
D03*
Y447728D02*
D03*
Y289437D02*
D03*
Y308728D02*
D03*
X-181000Y289437D02*
D03*
Y308728D02*
D03*
X-161000Y125437D02*
D03*
Y144728D02*
D03*
X-190000Y125437D02*
D03*
Y144728D02*
D03*
X-440000Y438437D02*
D03*
Y457728D02*
D03*
X-469000Y438437D02*
D03*
Y457728D02*
D03*
X-428000Y280437D02*
D03*
Y299728D02*
D03*
X-457000Y280437D02*
D03*
Y299728D02*
D03*
X-420000Y130437D02*
D03*
Y149728D02*
D03*
X-449000Y130437D02*
D03*
Y149728D02*
D03*
D13*
X-226000Y438732D02*
D03*
X-78000Y412024D02*
D03*
Y429976D02*
D03*
Y445024D02*
D03*
X-201197Y438732D02*
D03*
Y299732D02*
D03*
X-78000Y306024D02*
D03*
Y290976D02*
D03*
Y273024D02*
D03*
X-226000Y299732D02*
D03*
X-210197Y135732D02*
D03*
X-87000Y142024D02*
D03*
Y126976D02*
D03*
Y109024D02*
D03*
X-235000Y135732D02*
D03*
X-489197Y448732D02*
D03*
X-366000Y455024D02*
D03*
Y439976D02*
D03*
Y422024D02*
D03*
X-514000Y448732D02*
D03*
X-477197Y290732D02*
D03*
X-354000Y297024D02*
D03*
Y281976D02*
D03*
Y264024D02*
D03*
X-502000Y290732D02*
D03*
X-469197Y140732D02*
D03*
X-346000Y147024D02*
D03*
Y131976D02*
D03*
Y114024D02*
D03*
X-494000Y140732D02*
D03*
D14*
X-181000Y410484D02*
D03*
X-152000Y413024D02*
D03*
X-181000Y465681D02*
D03*
Y326681D02*
D03*
X-152000Y274024D02*
D03*
X-181000Y271484D02*
D03*
X-190000Y162681D02*
D03*
X-161000Y110024D02*
D03*
X-190000Y107484D02*
D03*
X-469000Y475681D02*
D03*
X-440000Y423024D02*
D03*
X-469000Y420484D02*
D03*
X-457000Y317681D02*
D03*
X-428000Y265024D02*
D03*
X-457000Y262484D02*
D03*
X-449000Y167681D02*
D03*
X-420000Y115024D02*
D03*
X-449000Y112484D02*
D03*
M02*
