G04 Layer_Physical_Order=1*
G04 Layer_Color=255*
%FSLAX25Y25*%
%MOIN*%
G70*
G01*
G75*
%ADD10R,0.08661X0.04724*%
%ADD11R,0.25197X0.22835*%
%ADD12R,0.21260X0.07874*%
G04:AMPARAMS|DCode=13|XSize=60.24mil|YSize=110.04mil|CornerRadius=15.06mil|HoleSize=0mil|Usage=FLASHONLY|Rotation=90.000|XOffset=0mil|YOffset=0mil|HoleType=Round|Shape=RoundedRectangle|*
%AMROUNDEDRECTD13*
21,1,0.06024,0.07992,0,0,90.0*
21,1,0.03012,0.11004,0,0,90.0*
1,1,0.03012,0.03996,0.01506*
1,1,0.03012,0.03996,-0.01506*
1,1,0.03012,-0.03996,-0.01506*
1,1,0.03012,-0.03996,0.01506*
%
%ADD13ROUNDEDRECTD13*%
G04:AMPARAMS|DCode=14|XSize=60.24mil|YSize=110.04mil|CornerRadius=15.06mil|HoleSize=0mil|Usage=FLASHONLY|Rotation=0.000|XOffset=0mil|YOffset=0mil|HoleType=Round|Shape=RoundedRectangle|*
%AMROUNDEDRECTD14*
21,1,0.06024,0.07992,0,0,0.0*
21,1,0.03012,0.11004,0,0,0.0*
1,1,0.03012,0.01506,-0.03996*
1,1,0.03012,-0.01506,-0.03996*
1,1,0.03012,-0.01506,0.03996*
1,1,0.03012,0.01506,0.03996*
%
%ADD14ROUNDEDRECTD14*%
%ADD15C,0.03937*%
G36*
X10000Y-10000D02*
X-587000D01*
X-590000Y-7000D01*
Y590000D01*
X10000D01*
Y-10000D01*
D02*
G37*
%LPC*%
G36*
X-447494Y181103D02*
X-450506D01*
X-452345Y180921D01*
X-454113Y180385D01*
X-455742Y179514D01*
X-457171Y178342D01*
X-457803Y177571D01*
X-462557D01*
X-463323Y177803D01*
X-464866Y177955D01*
X-473528D01*
X-475071Y177803D01*
X-476555Y177353D01*
X-477391Y176907D01*
X-478374Y177432D01*
X-479858Y177882D01*
X-481402Y178034D01*
X-506598D01*
X-508142Y177882D01*
X-509626Y177432D01*
X-510994Y176701D01*
X-512193Y175717D01*
X-513177Y174518D01*
X-513908Y173150D01*
X-514359Y171666D01*
X-514510Y170122D01*
Y147287D01*
X-514359Y145744D01*
X-513908Y144260D01*
X-513177Y142892D01*
X-512193Y141693D01*
X-510994Y140709D01*
X-510291Y140333D01*
Y139833D01*
X-510994Y139457D01*
X-512193Y138473D01*
X-513177Y137274D01*
X-513908Y135906D01*
X-514359Y134422D01*
X-514510Y132878D01*
Y110043D01*
X-514359Y108500D01*
X-513908Y107016D01*
X-513177Y105648D01*
X-512193Y104449D01*
X-510994Y103465D01*
X-509626Y102734D01*
X-508142Y102283D01*
X-506598Y102131D01*
X-481402D01*
X-479858Y102283D01*
X-478374Y102734D01*
X-477391Y103259D01*
X-476555Y102812D01*
X-475071Y102362D01*
X-473528Y102210D01*
X-464866D01*
X-463323Y102362D01*
X-462557Y102594D01*
X-457803D01*
X-457171Y101823D01*
X-455742Y100651D01*
X-454113Y99780D01*
X-452345Y99244D01*
X-450506Y99063D01*
X-447494D01*
X-445655Y99244D01*
X-443887Y99780D01*
X-442258Y100651D01*
X-440829Y101823D01*
X-439657Y103252D01*
X-438786Y104881D01*
X-438250Y106649D01*
X-438069Y108488D01*
Y116480D01*
X-438250Y118319D01*
X-438049Y118620D01*
X-436827Y118740D01*
X-435342Y119190D01*
X-434500Y119640D01*
X-433658Y119190D01*
X-432173Y118740D01*
X-430931Y118618D01*
Y111028D01*
X-430750Y109189D01*
X-430214Y107421D01*
X-429343Y105791D01*
X-428171Y104363D01*
X-426742Y103191D01*
X-425113Y102320D01*
X-423345Y101783D01*
X-421506Y101602D01*
X-418494D01*
X-416655Y101783D01*
X-414887Y102320D01*
X-413258Y103191D01*
X-411829Y104363D01*
X-410668Y105778D01*
X-410615Y105835D01*
X-410048Y105869D01*
X-408994Y105004D01*
X-407626Y104273D01*
X-406142Y103823D01*
X-404598Y103671D01*
X-379402D01*
X-377858Y103823D01*
X-376374Y104273D01*
X-375391Y104798D01*
X-374555Y104352D01*
X-373071Y103901D01*
X-371528Y103749D01*
X-362866D01*
X-361323Y103901D01*
X-360557Y104133D01*
X-354208D01*
X-353603Y103810D01*
X-351835Y103273D01*
X-349996Y103092D01*
X-342004D01*
X-340165Y103273D01*
X-338397Y103810D01*
X-336768Y104681D01*
X-335339Y105853D01*
X-334167Y107281D01*
X-333296Y108911D01*
X-332760Y110679D01*
X-332579Y112518D01*
Y115530D01*
X-332760Y117368D01*
X-333296Y119136D01*
X-334167Y120766D01*
X-334880Y121634D01*
X-334666Y122086D01*
X-332024D01*
X-332024Y122086D01*
X-330094Y122276D01*
X-328239Y122839D01*
X-326529Y123753D01*
X-325030Y124983D01*
X-321007Y129007D01*
X-321007Y129007D01*
X-319777Y130505D01*
X-318863Y132215D01*
X-318300Y134071D01*
X-318110Y136000D01*
X-318110Y136000D01*
Y156000D01*
X-318110Y156000D01*
X-318300Y157930D01*
X-318863Y159785D01*
X-319777Y161495D01*
X-321007Y162993D01*
X-321007Y162993D01*
X-329983Y171970D01*
X-331482Y173200D01*
X-333192Y174114D01*
X-335047Y174677D01*
X-336976Y174866D01*
X-336977Y174866D01*
X-360557D01*
X-361323Y175099D01*
X-362866Y175251D01*
X-371528D01*
X-373071Y175099D01*
X-374555Y174648D01*
X-375391Y174202D01*
X-376374Y174727D01*
X-377858Y175177D01*
X-379402Y175329D01*
X-404598D01*
X-406142Y175177D01*
X-407626Y174727D01*
X-408994Y173996D01*
X-410193Y173012D01*
X-411177Y171813D01*
X-411908Y170445D01*
X-412359Y168961D01*
X-412510Y167417D01*
Y161577D01*
X-430630D01*
X-432173Y161425D01*
X-433658Y160975D01*
X-434500Y160525D01*
X-435342Y160975D01*
X-436827Y161425D01*
X-438049Y161546D01*
X-438250Y161846D01*
X-438069Y163685D01*
Y171677D01*
X-438250Y173516D01*
X-438786Y175284D01*
X-439657Y176914D01*
X-440829Y178342D01*
X-442258Y179514D01*
X-443887Y180385D01*
X-445655Y180921D01*
X-447494Y181103D01*
D02*
G37*
G36*
X-188494Y176102D02*
X-191506D01*
X-193345Y175921D01*
X-195113Y175385D01*
X-196742Y174514D01*
X-198171Y173342D01*
X-198803Y172571D01*
X-203557D01*
X-204323Y172803D01*
X-205866Y172955D01*
X-214528D01*
X-216071Y172803D01*
X-217555Y172353D01*
X-218391Y171907D01*
X-219374Y172432D01*
X-220858Y172882D01*
X-222402Y173034D01*
X-247598D01*
X-249142Y172882D01*
X-250626Y172432D01*
X-251994Y171701D01*
X-253193Y170717D01*
X-254177Y169518D01*
X-254908Y168150D01*
X-255359Y166666D01*
X-255510Y165122D01*
Y142287D01*
X-255359Y140744D01*
X-254908Y139260D01*
X-254177Y137892D01*
X-253193Y136693D01*
X-251994Y135709D01*
X-251291Y135333D01*
Y134833D01*
X-251994Y134457D01*
X-253193Y133473D01*
X-254177Y132274D01*
X-254908Y130906D01*
X-255359Y129421D01*
X-255510Y127878D01*
Y105043D01*
X-255359Y103500D01*
X-254908Y102015D01*
X-254177Y100648D01*
X-253193Y99449D01*
X-251994Y98465D01*
X-250626Y97733D01*
X-249142Y97283D01*
X-247598Y97131D01*
X-222402D01*
X-220858Y97283D01*
X-219374Y97733D01*
X-218391Y98259D01*
X-217555Y97812D01*
X-216071Y97362D01*
X-214528Y97210D01*
X-205866D01*
X-204323Y97362D01*
X-203557Y97594D01*
X-198803D01*
X-198171Y96824D01*
X-196742Y95651D01*
X-195113Y94780D01*
X-193345Y94244D01*
X-191506Y94063D01*
X-188494D01*
X-186655Y94244D01*
X-184887Y94780D01*
X-183258Y95651D01*
X-181829Y96824D01*
X-180657Y98252D01*
X-179786Y99881D01*
X-179250Y101649D01*
X-179069Y103488D01*
Y111480D01*
X-179250Y113319D01*
X-179049Y113619D01*
X-177826Y113740D01*
X-176342Y114190D01*
X-175500Y114640D01*
X-174658Y114190D01*
X-173173Y113740D01*
X-171931Y113618D01*
Y106027D01*
X-171750Y104189D01*
X-171214Y102421D01*
X-170343Y100791D01*
X-169171Y99363D01*
X-167742Y98191D01*
X-166113Y97320D01*
X-164345Y96783D01*
X-162506Y96602D01*
X-159494D01*
X-157655Y96783D01*
X-155887Y97320D01*
X-154258Y98191D01*
X-152829Y99363D01*
X-151668Y100778D01*
X-151615Y100835D01*
X-151049Y100869D01*
X-149994Y100004D01*
X-148626Y99273D01*
X-147142Y98823D01*
X-145598Y98671D01*
X-120402D01*
X-118858Y98823D01*
X-117374Y99273D01*
X-116391Y99798D01*
X-115555Y99352D01*
X-114071Y98901D01*
X-112528Y98749D01*
X-103866D01*
X-102323Y98901D01*
X-101557Y99133D01*
X-95208D01*
X-94603Y98810D01*
X-92835Y98273D01*
X-90996Y98092D01*
X-83004D01*
X-81165Y98273D01*
X-79397Y98810D01*
X-77767Y99681D01*
X-76339Y100853D01*
X-75167Y102281D01*
X-74296Y103911D01*
X-73760Y105679D01*
X-73579Y107518D01*
Y110529D01*
X-73760Y112368D01*
X-74296Y114136D01*
X-75167Y115766D01*
X-75880Y116634D01*
X-75666Y117086D01*
X-73024D01*
X-73024Y117086D01*
X-71094Y117276D01*
X-69239Y117839D01*
X-67529Y118753D01*
X-66030Y119983D01*
X-62007Y124007D01*
X-62007Y124007D01*
X-60777Y125505D01*
X-59863Y127215D01*
X-59300Y129070D01*
X-59110Y131000D01*
X-59110Y131000D01*
Y151000D01*
X-59110Y151000D01*
X-59300Y152929D01*
X-59863Y154785D01*
X-60777Y156495D01*
X-62007Y157993D01*
X-62007Y157993D01*
X-70983Y166970D01*
X-72482Y168200D01*
X-74192Y169114D01*
X-76047Y169676D01*
X-77976Y169867D01*
X-77977Y169867D01*
X-101557D01*
X-102323Y170099D01*
X-103866Y170251D01*
X-112528D01*
X-114071Y170099D01*
X-115555Y169648D01*
X-116391Y169202D01*
X-117374Y169727D01*
X-118858Y170177D01*
X-120402Y170329D01*
X-145598D01*
X-147142Y170177D01*
X-148626Y169727D01*
X-149994Y168996D01*
X-151193Y168012D01*
X-152177Y166813D01*
X-152908Y165445D01*
X-153358Y163961D01*
X-153510Y162417D01*
Y156578D01*
X-171630D01*
X-173173Y156425D01*
X-174658Y155975D01*
X-175500Y155525D01*
X-176342Y155975D01*
X-177826Y156425D01*
X-179049Y156546D01*
X-179250Y156846D01*
X-179069Y158685D01*
Y166677D01*
X-179250Y168516D01*
X-179786Y170284D01*
X-180657Y171914D01*
X-181829Y173342D01*
X-183258Y174514D01*
X-184887Y175385D01*
X-186655Y175921D01*
X-188494Y176102D01*
D02*
G37*
G36*
X-20250Y32640D02*
X-22179Y32450D01*
X-24000Y31898D01*
X-25820Y32450D01*
X-27750Y32640D01*
X-29680Y32450D01*
X-31535Y31887D01*
X-33245Y30973D01*
X-34743Y29743D01*
X-35973Y28245D01*
X-36887Y26535D01*
X-37450Y24679D01*
X-37640Y22750D01*
X-37450Y20820D01*
X-36898Y19000D01*
X-37450Y17179D01*
X-37640Y15250D01*
X-37450Y13320D01*
X-36887Y11465D01*
X-35973Y9755D01*
X-34743Y8257D01*
X-33245Y7027D01*
X-31535Y6113D01*
X-29680Y5550D01*
X-27750Y5360D01*
X-25820Y5550D01*
X-24000Y6102D01*
X-22179Y5550D01*
X-20250Y5360D01*
X-18320Y5550D01*
X-16465Y6113D01*
X-14755Y7027D01*
X-13257Y8257D01*
X-12027Y9755D01*
X-11113Y11465D01*
X-10550Y13320D01*
X-10360Y15250D01*
X-10550Y17179D01*
X-11102Y19000D01*
X-10550Y20820D01*
X-10360Y22750D01*
X-10550Y24679D01*
X-11113Y26535D01*
X-12027Y28245D01*
X-13257Y29743D01*
X-14755Y30973D01*
X-16465Y31887D01*
X-18320Y32450D01*
X-20250Y32640D01*
D02*
G37*
G36*
X-455494Y331102D02*
X-458506D01*
X-460345Y330921D01*
X-462113Y330385D01*
X-463742Y329514D01*
X-465171Y328342D01*
X-465803Y327571D01*
X-470557D01*
X-471323Y327803D01*
X-472866Y327955D01*
X-481528D01*
X-483071Y327803D01*
X-484555Y327353D01*
X-485391Y326907D01*
X-486374Y327432D01*
X-487858Y327882D01*
X-489402Y328034D01*
X-514598D01*
X-516142Y327882D01*
X-517626Y327432D01*
X-518994Y326701D01*
X-520193Y325717D01*
X-521177Y324518D01*
X-521908Y323150D01*
X-522359Y321666D01*
X-522510Y320122D01*
Y297287D01*
X-522359Y295744D01*
X-521908Y294260D01*
X-521177Y292892D01*
X-520193Y291693D01*
X-518994Y290709D01*
X-518291Y290333D01*
Y289833D01*
X-518994Y289457D01*
X-520193Y288473D01*
X-521177Y287274D01*
X-521908Y285906D01*
X-522359Y284421D01*
X-522510Y282878D01*
Y260043D01*
X-522359Y258500D01*
X-521908Y257015D01*
X-521177Y255648D01*
X-520193Y254449D01*
X-518994Y253465D01*
X-517626Y252733D01*
X-516142Y252283D01*
X-514598Y252131D01*
X-489402D01*
X-487858Y252283D01*
X-486374Y252733D01*
X-485391Y253259D01*
X-484555Y252812D01*
X-483071Y252362D01*
X-481528Y252210D01*
X-472866D01*
X-471323Y252362D01*
X-470557Y252594D01*
X-465803D01*
X-465171Y251823D01*
X-463742Y250651D01*
X-462113Y249780D01*
X-460345Y249244D01*
X-458506Y249063D01*
X-455494D01*
X-453655Y249244D01*
X-451887Y249780D01*
X-450258Y250651D01*
X-448829Y251823D01*
X-447657Y253252D01*
X-446786Y254881D01*
X-446250Y256649D01*
X-446069Y258488D01*
Y266480D01*
X-446250Y268319D01*
X-446049Y268619D01*
X-444827Y268740D01*
X-443342Y269190D01*
X-442500Y269640D01*
X-441658Y269190D01*
X-440173Y268740D01*
X-438931Y268618D01*
Y261028D01*
X-438750Y259189D01*
X-438214Y257421D01*
X-437343Y255791D01*
X-436171Y254363D01*
X-434742Y253191D01*
X-433113Y252320D01*
X-431345Y251783D01*
X-429506Y251602D01*
X-426494D01*
X-424655Y251783D01*
X-422887Y252320D01*
X-421258Y253191D01*
X-419829Y254363D01*
X-418668Y255778D01*
X-418615Y255835D01*
X-418048Y255869D01*
X-416994Y255004D01*
X-415626Y254273D01*
X-414142Y253823D01*
X-412598Y253671D01*
X-387402D01*
X-385858Y253823D01*
X-384374Y254273D01*
X-383391Y254798D01*
X-382555Y254352D01*
X-381071Y253901D01*
X-379528Y253749D01*
X-370866D01*
X-369323Y253901D01*
X-368557Y254134D01*
X-362208D01*
X-361603Y253810D01*
X-359835Y253274D01*
X-357996Y253092D01*
X-350004D01*
X-348165Y253274D01*
X-346397Y253810D01*
X-344767Y254681D01*
X-343339Y255853D01*
X-342167Y257281D01*
X-341296Y258911D01*
X-340760Y260679D01*
X-340579Y262518D01*
Y265529D01*
X-340760Y267368D01*
X-341296Y269136D01*
X-342167Y270766D01*
X-342880Y271634D01*
X-342666Y272086D01*
X-340024D01*
X-340024Y272086D01*
X-338094Y272276D01*
X-336239Y272839D01*
X-334529Y273753D01*
X-333030Y274983D01*
X-329007Y279007D01*
X-329007Y279007D01*
X-327777Y280505D01*
X-326863Y282215D01*
X-326300Y284070D01*
X-326110Y286000D01*
X-326110Y286000D01*
Y306000D01*
X-326110Y306000D01*
X-326300Y307929D01*
X-326863Y309785D01*
X-327777Y311495D01*
X-329007Y312993D01*
X-329007Y312993D01*
X-337983Y321970D01*
X-339482Y323200D01*
X-341192Y324114D01*
X-343047Y324676D01*
X-344976Y324867D01*
X-344976Y324867D01*
X-368557D01*
X-369323Y325099D01*
X-370866Y325251D01*
X-379528D01*
X-381071Y325099D01*
X-382555Y324648D01*
X-383391Y324202D01*
X-384374Y324727D01*
X-385858Y325177D01*
X-387402Y325329D01*
X-412598D01*
X-414142Y325177D01*
X-415626Y324727D01*
X-416994Y323996D01*
X-418193Y323012D01*
X-419177Y321813D01*
X-419908Y320445D01*
X-420359Y318961D01*
X-420510Y317417D01*
Y311578D01*
X-438630D01*
X-440173Y311425D01*
X-441658Y310975D01*
X-442500Y310525D01*
X-443342Y310975D01*
X-444827Y311425D01*
X-446049Y311546D01*
X-446250Y311846D01*
X-446069Y313685D01*
Y321677D01*
X-446250Y323516D01*
X-446786Y325284D01*
X-447657Y326914D01*
X-448829Y328342D01*
X-450258Y329514D01*
X-451887Y330385D01*
X-453655Y330921D01*
X-455494Y331102D01*
D02*
G37*
G36*
X-467494Y489103D02*
X-470506D01*
X-472345Y488921D01*
X-474113Y488385D01*
X-475742Y487514D01*
X-477171Y486342D01*
X-477803Y485571D01*
X-482557D01*
X-483323Y485803D01*
X-484866Y485955D01*
X-493528D01*
X-495071Y485803D01*
X-496555Y485353D01*
X-497391Y484907D01*
X-498374Y485432D01*
X-499858Y485882D01*
X-501402Y486034D01*
X-526598D01*
X-528142Y485882D01*
X-529626Y485432D01*
X-530994Y484701D01*
X-532193Y483717D01*
X-533177Y482518D01*
X-533908Y481150D01*
X-534359Y479666D01*
X-534511Y478122D01*
Y455287D01*
X-534359Y453744D01*
X-533908Y452260D01*
X-533177Y450892D01*
X-532193Y449693D01*
X-530994Y448709D01*
X-530291Y448333D01*
Y447833D01*
X-530994Y447457D01*
X-532193Y446473D01*
X-533177Y445274D01*
X-533908Y443906D01*
X-534359Y442421D01*
X-534511Y440878D01*
Y418043D01*
X-534359Y416500D01*
X-533908Y415016D01*
X-533177Y413648D01*
X-532193Y412449D01*
X-530994Y411465D01*
X-529626Y410734D01*
X-528142Y410283D01*
X-526598Y410131D01*
X-501402D01*
X-499858Y410283D01*
X-498374Y410734D01*
X-497391Y411259D01*
X-496555Y410812D01*
X-495071Y410362D01*
X-493528Y410210D01*
X-484866D01*
X-483323Y410362D01*
X-482557Y410594D01*
X-477803D01*
X-477171Y409824D01*
X-475742Y408651D01*
X-474113Y407780D01*
X-472345Y407244D01*
X-470506Y407063D01*
X-467494D01*
X-465655Y407244D01*
X-463887Y407780D01*
X-462258Y408651D01*
X-460829Y409824D01*
X-459657Y411252D01*
X-458786Y412881D01*
X-458250Y414649D01*
X-458069Y416488D01*
Y424480D01*
X-458250Y426319D01*
X-458049Y426619D01*
X-456826Y426740D01*
X-455342Y427190D01*
X-454500Y427640D01*
X-453658Y427190D01*
X-452174Y426740D01*
X-450931Y426618D01*
Y419028D01*
X-450750Y417189D01*
X-450214Y415421D01*
X-449343Y413791D01*
X-448171Y412363D01*
X-446742Y411191D01*
X-445113Y410320D01*
X-443345Y409783D01*
X-441506Y409602D01*
X-438494D01*
X-436655Y409783D01*
X-434887Y410320D01*
X-433258Y411191D01*
X-431829Y412363D01*
X-430668Y413778D01*
X-430615Y413835D01*
X-430049Y413869D01*
X-428994Y413004D01*
X-427626Y412273D01*
X-426142Y411823D01*
X-424598Y411671D01*
X-399402D01*
X-397858Y411823D01*
X-396374Y412273D01*
X-395391Y412798D01*
X-394555Y412352D01*
X-393071Y411901D01*
X-391528Y411749D01*
X-382866D01*
X-381323Y411901D01*
X-380557Y412134D01*
X-374208D01*
X-373603Y411810D01*
X-371835Y411273D01*
X-369996Y411092D01*
X-362004D01*
X-360165Y411273D01*
X-358397Y411810D01*
X-356768Y412681D01*
X-355339Y413853D01*
X-354167Y415281D01*
X-353296Y416911D01*
X-352760Y418679D01*
X-352579Y420518D01*
Y423529D01*
X-352760Y425368D01*
X-353296Y427136D01*
X-354167Y428766D01*
X-354880Y429634D01*
X-354666Y430086D01*
X-352024D01*
X-352024Y430086D01*
X-350094Y430276D01*
X-348239Y430839D01*
X-346529Y431753D01*
X-345030Y432983D01*
X-341007Y437007D01*
X-341007Y437007D01*
X-339777Y438505D01*
X-338863Y440215D01*
X-338300Y442070D01*
X-338110Y444000D01*
X-338110Y444000D01*
Y464000D01*
X-338110Y464000D01*
X-338300Y465930D01*
X-338863Y467785D01*
X-339777Y469495D01*
X-341007Y470993D01*
X-341007Y470993D01*
X-349983Y479970D01*
X-351482Y481200D01*
X-353192Y482114D01*
X-355047Y482677D01*
X-356976Y482866D01*
X-356977Y482866D01*
X-380557D01*
X-381323Y483099D01*
X-382866Y483251D01*
X-391528D01*
X-393071Y483099D01*
X-394555Y482648D01*
X-395391Y482202D01*
X-396374Y482727D01*
X-397858Y483177D01*
X-399402Y483329D01*
X-424598D01*
X-426142Y483177D01*
X-427626Y482727D01*
X-428994Y481996D01*
X-430193Y481012D01*
X-431177Y479813D01*
X-431908Y478445D01*
X-432359Y476961D01*
X-432511Y475417D01*
Y469578D01*
X-450630D01*
X-452174Y469425D01*
X-453658Y468975D01*
X-454500Y468525D01*
X-455342Y468975D01*
X-456826Y469425D01*
X-458049Y469546D01*
X-458250Y469846D01*
X-458069Y471685D01*
Y479677D01*
X-458250Y481516D01*
X-458786Y483284D01*
X-459657Y484914D01*
X-460829Y486342D01*
X-462258Y487514D01*
X-463887Y488385D01*
X-465655Y488921D01*
X-467494Y489103D01*
D02*
G37*
G36*
X-547250Y566640D02*
X-549180Y566450D01*
X-551000Y565898D01*
X-552820Y566450D01*
X-554750Y566640D01*
X-556679Y566450D01*
X-558535Y565887D01*
X-560245Y564973D01*
X-561743Y563743D01*
X-562973Y562245D01*
X-563887Y560535D01*
X-564450Y558679D01*
X-564640Y556750D01*
X-564450Y554820D01*
X-563898Y553000D01*
X-564450Y551180D01*
X-564640Y549250D01*
X-564450Y547321D01*
X-563887Y545465D01*
X-562973Y543755D01*
X-561743Y542257D01*
X-560245Y541027D01*
X-558535Y540113D01*
X-556679Y539550D01*
X-554750Y539360D01*
X-552820Y539550D01*
X-551000Y540102D01*
X-549180Y539550D01*
X-547250Y539360D01*
X-545321Y539550D01*
X-543465Y540113D01*
X-541755Y541027D01*
X-540257Y542257D01*
X-539027Y543755D01*
X-538113Y545465D01*
X-537550Y547321D01*
X-537360Y549250D01*
X-537550Y551180D01*
X-538102Y553000D01*
X-537550Y554820D01*
X-537360Y556750D01*
X-537550Y558679D01*
X-538113Y560535D01*
X-539027Y562245D01*
X-540257Y563743D01*
X-541755Y564973D01*
X-543465Y565887D01*
X-545321Y566450D01*
X-547250Y566640D01*
D02*
G37*
G36*
X-179494Y340103D02*
X-182506D01*
X-184345Y339921D01*
X-186113Y339385D01*
X-187742Y338514D01*
X-189171Y337342D01*
X-189803Y336571D01*
X-194557D01*
X-195323Y336803D01*
X-196866Y336955D01*
X-205528D01*
X-207071Y336803D01*
X-208555Y336353D01*
X-209391Y335907D01*
X-210374Y336432D01*
X-211858Y336882D01*
X-213402Y337034D01*
X-238598D01*
X-240142Y336882D01*
X-241626Y336432D01*
X-242994Y335701D01*
X-244193Y334717D01*
X-245177Y333518D01*
X-245908Y332150D01*
X-246358Y330666D01*
X-246511Y329122D01*
Y306287D01*
X-246358Y304744D01*
X-245908Y303260D01*
X-245177Y301892D01*
X-244193Y300693D01*
X-242994Y299709D01*
X-242291Y299333D01*
Y298833D01*
X-242994Y298457D01*
X-244193Y297473D01*
X-245177Y296274D01*
X-245908Y294906D01*
X-246358Y293422D01*
X-246511Y291878D01*
Y269043D01*
X-246358Y267500D01*
X-245908Y266016D01*
X-245177Y264648D01*
X-244193Y263449D01*
X-242994Y262465D01*
X-241626Y261734D01*
X-240142Y261283D01*
X-238598Y261131D01*
X-213402D01*
X-211858Y261283D01*
X-210374Y261734D01*
X-209391Y262259D01*
X-208555Y261812D01*
X-207071Y261362D01*
X-205528Y261210D01*
X-196866D01*
X-195323Y261362D01*
X-194557Y261594D01*
X-189803D01*
X-189171Y260823D01*
X-187742Y259651D01*
X-186113Y258780D01*
X-184345Y258244D01*
X-182506Y258063D01*
X-179494D01*
X-177655Y258244D01*
X-175887Y258780D01*
X-174258Y259651D01*
X-172829Y260823D01*
X-171657Y262252D01*
X-170786Y263881D01*
X-170250Y265649D01*
X-170069Y267488D01*
Y275480D01*
X-170250Y277319D01*
X-170049Y277620D01*
X-168826Y277740D01*
X-167342Y278190D01*
X-166500Y278640D01*
X-165658Y278190D01*
X-164173Y277740D01*
X-162931Y277618D01*
Y270028D01*
X-162750Y268189D01*
X-162214Y266421D01*
X-161343Y264791D01*
X-160171Y263363D01*
X-158742Y262191D01*
X-157113Y261320D01*
X-155345Y260783D01*
X-153506Y260602D01*
X-150494D01*
X-148655Y260783D01*
X-146887Y261320D01*
X-145258Y262191D01*
X-143829Y263363D01*
X-142668Y264778D01*
X-142615Y264835D01*
X-142049Y264869D01*
X-140994Y264004D01*
X-139626Y263273D01*
X-138142Y262823D01*
X-136598Y262671D01*
X-111402D01*
X-109858Y262823D01*
X-108374Y263273D01*
X-107391Y263798D01*
X-106555Y263352D01*
X-105071Y262901D01*
X-103528Y262749D01*
X-94866D01*
X-93323Y262901D01*
X-92557Y263134D01*
X-86208D01*
X-85603Y262810D01*
X-83835Y262274D01*
X-81996Y262092D01*
X-74004D01*
X-72165Y262274D01*
X-70397Y262810D01*
X-68767Y263681D01*
X-67339Y264853D01*
X-66167Y266281D01*
X-65296Y267911D01*
X-64760Y269679D01*
X-64579Y271518D01*
Y274530D01*
X-64760Y276368D01*
X-65296Y278136D01*
X-66167Y279766D01*
X-66880Y280634D01*
X-66666Y281086D01*
X-64024D01*
X-64024Y281086D01*
X-62094Y281276D01*
X-60239Y281839D01*
X-58529Y282753D01*
X-57030Y283983D01*
X-53007Y288007D01*
X-53007Y288007D01*
X-51777Y289505D01*
X-50863Y291215D01*
X-50300Y293071D01*
X-50110Y295000D01*
X-50110Y295000D01*
Y315000D01*
X-50110Y315000D01*
X-50300Y316930D01*
X-50863Y318785D01*
X-51777Y320495D01*
X-53007Y321993D01*
X-53007Y321993D01*
X-61983Y330970D01*
X-63482Y332200D01*
X-65192Y333114D01*
X-67047Y333677D01*
X-68976Y333867D01*
X-68976Y333867D01*
X-92557D01*
X-93323Y334099D01*
X-94866Y334251D01*
X-103528D01*
X-105071Y334099D01*
X-106555Y333648D01*
X-107391Y333202D01*
X-108374Y333727D01*
X-109858Y334177D01*
X-111402Y334329D01*
X-136598D01*
X-138142Y334177D01*
X-139626Y333727D01*
X-140994Y332996D01*
X-142193Y332012D01*
X-143177Y330813D01*
X-143908Y329445D01*
X-144359Y327961D01*
X-144510Y326417D01*
Y320578D01*
X-162630D01*
X-164173Y320426D01*
X-165658Y319975D01*
X-166500Y319525D01*
X-167342Y319975D01*
X-168826Y320426D01*
X-170049Y320546D01*
X-170250Y320846D01*
X-170069Y322685D01*
Y330677D01*
X-170250Y332516D01*
X-170786Y334284D01*
X-171657Y335914D01*
X-172829Y337342D01*
X-174258Y338514D01*
X-175887Y339385D01*
X-177655Y339921D01*
X-179494Y340103D01*
D02*
G37*
G36*
Y479103D02*
X-182506D01*
X-184345Y478921D01*
X-186113Y478385D01*
X-187742Y477514D01*
X-189171Y476342D01*
X-189803Y475571D01*
X-194557D01*
X-195323Y475803D01*
X-196866Y475955D01*
X-205528D01*
X-207071Y475803D01*
X-208555Y475353D01*
X-209391Y474907D01*
X-210374Y475432D01*
X-211858Y475882D01*
X-213402Y476034D01*
X-238598D01*
X-240142Y475882D01*
X-241626Y475432D01*
X-242994Y474701D01*
X-244193Y473717D01*
X-245177Y472518D01*
X-245908Y471150D01*
X-246358Y469666D01*
X-246511Y468122D01*
Y445287D01*
X-246358Y443744D01*
X-245908Y442260D01*
X-245177Y440892D01*
X-244193Y439693D01*
X-242994Y438709D01*
X-242291Y438333D01*
Y437833D01*
X-242994Y437457D01*
X-244193Y436473D01*
X-245177Y435274D01*
X-245908Y433906D01*
X-246358Y432421D01*
X-246511Y430878D01*
Y408043D01*
X-246358Y406500D01*
X-245908Y405016D01*
X-245177Y403648D01*
X-244193Y402449D01*
X-242994Y401465D01*
X-241626Y400734D01*
X-240142Y400283D01*
X-238598Y400131D01*
X-213402D01*
X-211858Y400283D01*
X-210374Y400734D01*
X-209391Y401259D01*
X-208555Y400812D01*
X-207071Y400362D01*
X-205528Y400210D01*
X-196866D01*
X-195323Y400362D01*
X-194557Y400594D01*
X-189803D01*
X-189171Y399823D01*
X-187742Y398651D01*
X-186113Y397780D01*
X-184345Y397244D01*
X-182506Y397063D01*
X-179494D01*
X-177655Y397244D01*
X-175887Y397780D01*
X-174258Y398651D01*
X-172829Y399823D01*
X-171657Y401252D01*
X-170786Y402881D01*
X-170250Y404649D01*
X-170069Y406488D01*
Y414480D01*
X-170250Y416319D01*
X-170049Y416619D01*
X-168826Y416740D01*
X-167342Y417190D01*
X-166500Y417640D01*
X-165658Y417190D01*
X-164173Y416740D01*
X-162931Y416618D01*
Y409028D01*
X-162750Y407189D01*
X-162214Y405421D01*
X-161343Y403791D01*
X-160171Y402363D01*
X-158742Y401191D01*
X-157113Y400320D01*
X-155345Y399783D01*
X-153506Y399602D01*
X-150494D01*
X-148655Y399783D01*
X-146887Y400320D01*
X-145258Y401191D01*
X-143829Y402363D01*
X-142668Y403778D01*
X-142615Y403835D01*
X-142049Y403869D01*
X-140994Y403004D01*
X-139626Y402273D01*
X-138142Y401823D01*
X-136598Y401671D01*
X-111402D01*
X-109858Y401823D01*
X-108374Y402273D01*
X-107391Y402798D01*
X-106555Y402352D01*
X-105071Y401901D01*
X-103528Y401749D01*
X-94866D01*
X-93323Y401901D01*
X-92557Y402134D01*
X-86208D01*
X-85603Y401810D01*
X-83835Y401273D01*
X-81996Y401092D01*
X-74004D01*
X-72165Y401273D01*
X-70397Y401810D01*
X-68767Y402681D01*
X-67339Y403853D01*
X-66167Y405281D01*
X-65296Y406911D01*
X-64760Y408679D01*
X-64579Y410518D01*
Y413529D01*
X-64760Y415368D01*
X-65296Y417136D01*
X-66167Y418766D01*
X-66880Y419634D01*
X-66666Y420086D01*
X-64024D01*
X-64024Y420086D01*
X-62094Y420276D01*
X-60239Y420839D01*
X-58529Y421753D01*
X-57030Y422983D01*
X-53007Y427007D01*
X-53007Y427007D01*
X-51777Y428505D01*
X-50863Y430215D01*
X-50300Y432070D01*
X-50110Y434000D01*
X-50110Y434000D01*
Y454000D01*
X-50110Y454000D01*
X-50300Y455930D01*
X-50863Y457785D01*
X-51777Y459495D01*
X-53007Y460993D01*
X-53007Y460993D01*
X-61983Y469970D01*
X-63482Y471200D01*
X-65192Y472114D01*
X-67047Y472677D01*
X-68976Y472866D01*
X-68976Y472866D01*
X-92557D01*
X-93323Y473099D01*
X-94866Y473251D01*
X-103528D01*
X-105071Y473099D01*
X-106555Y472648D01*
X-107391Y472202D01*
X-108374Y472727D01*
X-109858Y473177D01*
X-111402Y473329D01*
X-136598D01*
X-138142Y473177D01*
X-139626Y472727D01*
X-140994Y471996D01*
X-142193Y471012D01*
X-143177Y469813D01*
X-143908Y468445D01*
X-144359Y466961D01*
X-144510Y465417D01*
Y459578D01*
X-162630D01*
X-164173Y459425D01*
X-165658Y458975D01*
X-166500Y458525D01*
X-167342Y458975D01*
X-168826Y459425D01*
X-170049Y459546D01*
X-170250Y459846D01*
X-170069Y461685D01*
Y469677D01*
X-170250Y471516D01*
X-170786Y473284D01*
X-171657Y474914D01*
X-172829Y476342D01*
X-174258Y477514D01*
X-175887Y478385D01*
X-177655Y478921D01*
X-179494Y479103D01*
D02*
G37*
%LPD*%
D10*
X-99197Y462976D02*
D03*
Y445024D02*
D03*
X-201197Y465681D02*
D03*
Y447728D02*
D03*
Y428437D02*
D03*
Y410484D02*
D03*
X-99197Y429976D02*
D03*
Y412024D02*
D03*
Y290976D02*
D03*
Y273024D02*
D03*
X-201197Y289437D02*
D03*
Y271484D02*
D03*
X-99197Y323976D02*
D03*
Y306024D02*
D03*
X-201197Y326681D02*
D03*
Y308728D02*
D03*
X-108197Y126976D02*
D03*
Y109024D02*
D03*
X-210197Y125437D02*
D03*
Y107484D02*
D03*
X-108197Y159976D02*
D03*
Y142024D02*
D03*
X-210197Y162681D02*
D03*
Y144728D02*
D03*
X-387197Y439976D02*
D03*
Y422024D02*
D03*
X-489197Y438437D02*
D03*
Y420484D02*
D03*
X-387197Y472976D02*
D03*
Y455024D02*
D03*
X-489197Y475681D02*
D03*
Y457728D02*
D03*
X-375197Y281976D02*
D03*
Y264024D02*
D03*
X-477197Y280437D02*
D03*
Y262484D02*
D03*
X-375197Y314976D02*
D03*
Y297024D02*
D03*
X-477197Y317681D02*
D03*
Y299728D02*
D03*
X-367197Y131976D02*
D03*
Y114024D02*
D03*
X-469197Y130437D02*
D03*
Y112484D02*
D03*
X-367197Y164976D02*
D03*
Y147024D02*
D03*
X-469197Y167681D02*
D03*
Y149728D02*
D03*
D11*
X-124000Y454000D02*
D03*
X-226000Y456705D02*
D03*
Y419461D02*
D03*
X-124000Y421000D02*
D03*
Y282000D02*
D03*
X-226000Y280461D02*
D03*
X-124000Y315000D02*
D03*
X-226000Y317705D02*
D03*
X-133000Y118000D02*
D03*
X-235000Y116461D02*
D03*
X-133000Y151000D02*
D03*
X-235000Y153705D02*
D03*
X-412000Y431000D02*
D03*
X-514000Y429461D02*
D03*
X-412000Y464000D02*
D03*
X-514000Y466705D02*
D03*
X-400000Y273000D02*
D03*
X-502000Y271461D02*
D03*
X-400000Y306000D02*
D03*
X-502000Y308705D02*
D03*
X-392000Y123000D02*
D03*
X-494000Y121461D02*
D03*
X-392000Y156000D02*
D03*
X-494000Y158705D02*
D03*
D12*
X-181000Y428437D02*
D03*
Y447728D02*
D03*
X-152000Y428437D02*
D03*
Y447728D02*
D03*
Y289437D02*
D03*
Y308728D02*
D03*
X-181000Y289437D02*
D03*
Y308728D02*
D03*
X-161000Y125437D02*
D03*
Y144728D02*
D03*
X-190000Y125437D02*
D03*
Y144728D02*
D03*
X-440000Y438437D02*
D03*
Y457728D02*
D03*
X-469000Y438437D02*
D03*
Y457728D02*
D03*
X-428000Y280437D02*
D03*
Y299728D02*
D03*
X-457000Y280437D02*
D03*
Y299728D02*
D03*
X-420000Y130437D02*
D03*
Y149728D02*
D03*
X-449000Y130437D02*
D03*
Y149728D02*
D03*
D13*
X-226000Y438732D02*
D03*
X-78000Y412024D02*
D03*
Y429976D02*
D03*
Y445024D02*
D03*
X-201197Y438732D02*
D03*
Y299732D02*
D03*
X-78000Y306024D02*
D03*
Y290976D02*
D03*
Y273024D02*
D03*
X-226000Y299732D02*
D03*
X-210197Y135732D02*
D03*
X-87000Y142024D02*
D03*
Y126976D02*
D03*
Y109024D02*
D03*
X-235000Y135732D02*
D03*
X-489197Y448732D02*
D03*
X-366000Y455024D02*
D03*
Y439976D02*
D03*
Y422024D02*
D03*
X-514000Y448732D02*
D03*
X-477197Y290732D02*
D03*
X-354000Y297024D02*
D03*
Y281976D02*
D03*
Y264024D02*
D03*
X-502000Y290732D02*
D03*
X-469197Y140732D02*
D03*
X-346000Y147024D02*
D03*
Y131976D02*
D03*
Y114024D02*
D03*
X-494000Y140732D02*
D03*
D14*
X-181000Y410484D02*
D03*
X-152000Y413024D02*
D03*
X-181000Y465681D02*
D03*
Y326681D02*
D03*
X-152000Y274024D02*
D03*
X-181000Y271484D02*
D03*
X-190000Y162681D02*
D03*
X-161000Y110024D02*
D03*
X-190000Y107484D02*
D03*
X-469000Y475681D02*
D03*
X-440000Y423024D02*
D03*
X-469000Y420484D02*
D03*
X-457000Y317681D02*
D03*
X-428000Y265024D02*
D03*
X-457000Y262484D02*
D03*
X-449000Y167681D02*
D03*
X-420000Y115024D02*
D03*
X-449000Y112484D02*
D03*
D15*
X-226000Y419461D02*
Y438732D01*
Y456705D01*
X-201197Y410484D02*
X-181000D01*
X-152000Y413024D02*
Y428437D01*
X-131437D01*
X-152000Y447728D02*
X-130272D01*
X-201197Y465681D02*
X-181000D01*
Y447728D02*
Y465681D01*
X-201197Y438732D02*
Y447728D01*
Y428437D02*
X-181000D01*
Y447728D02*
X-152000D01*
X-181000Y428437D02*
X-152000D01*
X-99197Y429976D02*
X-78000D01*
X-99197Y445024D02*
X-78000D01*
X-99197Y412024D02*
X-78000D01*
X-99197Y462976D02*
X-68976D01*
X-60000Y454000D01*
Y434000D02*
Y454000D01*
X-64024Y429976D02*
X-60000Y434000D01*
X-78000Y429976D02*
X-64024D01*
X-27750Y15250D02*
X-20250Y22750D01*
X-27750D02*
X-20250Y15250D01*
X-554750Y549250D02*
X-547250Y556750D01*
X-554750D02*
X-547250Y549250D01*
X-78000Y290976D02*
X-64024D01*
X-60000Y295000D01*
Y315000D01*
X-68976Y323976D02*
X-60000Y315000D01*
X-99197Y323976D02*
X-68976D01*
X-99197Y273024D02*
X-78000D01*
X-99197Y306024D02*
X-78000D01*
X-99197Y290976D02*
X-78000D01*
X-181000Y289437D02*
X-152000D01*
X-181000Y308728D02*
X-152000D01*
X-201197Y289437D02*
X-181000D01*
X-201197Y299732D02*
Y308728D01*
X-181000D02*
Y326681D01*
X-201197D02*
X-181000D01*
X-152000Y308728D02*
X-130272D01*
X-152000Y289437D02*
X-131437D01*
X-152000Y274024D02*
Y289437D01*
X-201197Y271484D02*
X-181000D01*
X-226000Y299732D02*
Y317705D01*
Y280461D02*
Y299732D01*
X-87000Y126976D02*
X-73024D01*
X-69000Y131000D01*
Y151000D01*
X-77976Y159976D02*
X-69000Y151000D01*
X-108197Y159976D02*
X-77976D01*
X-108197Y109024D02*
X-87000D01*
X-108197Y142024D02*
X-87000D01*
X-108197Y126976D02*
X-87000D01*
X-190000Y125437D02*
X-161000D01*
X-190000Y144728D02*
X-161000D01*
X-210197Y125437D02*
X-190000D01*
X-210197Y135732D02*
Y144728D01*
X-190000D02*
Y162681D01*
X-210197D02*
X-190000D01*
X-161000Y144728D02*
X-139272D01*
X-161000Y125437D02*
X-140437D01*
X-161000Y110024D02*
Y125437D01*
X-210197Y107484D02*
X-190000D01*
X-235000Y135732D02*
Y153705D01*
Y116461D02*
Y135732D01*
X-366000Y439976D02*
X-352024D01*
X-348000Y444000D01*
Y464000D01*
X-356976Y472976D02*
X-348000Y464000D01*
X-387197Y472976D02*
X-356976D01*
X-387197Y422024D02*
X-366000D01*
X-387197Y455024D02*
X-366000D01*
X-387197Y439976D02*
X-366000D01*
X-469000Y438437D02*
X-440000D01*
X-469000Y457728D02*
X-440000D01*
X-489197Y438437D02*
X-469000D01*
X-489197Y448732D02*
Y457728D01*
X-469000D02*
Y475681D01*
X-489197D02*
X-469000D01*
X-440000Y457728D02*
X-418272D01*
X-440000Y438437D02*
X-419437D01*
X-440000Y423024D02*
Y438437D01*
X-489197Y420484D02*
X-469000D01*
X-514000Y448732D02*
Y466705D01*
Y429461D02*
Y448732D01*
X-354000Y281976D02*
X-340024D01*
X-336000Y286000D01*
Y306000D01*
X-344976Y314976D02*
X-336000Y306000D01*
X-375197Y314976D02*
X-344976D01*
X-375197Y264024D02*
X-354000D01*
X-375197Y297024D02*
X-354000D01*
X-375197Y281976D02*
X-354000D01*
X-457000Y280437D02*
X-428000D01*
X-457000Y299728D02*
X-428000D01*
X-477197Y280437D02*
X-457000D01*
X-477197Y290732D02*
Y299728D01*
X-457000D02*
Y317681D01*
X-477197D02*
X-457000D01*
X-428000Y299728D02*
X-406272D01*
X-428000Y280437D02*
X-407437D01*
X-428000Y265024D02*
Y280437D01*
X-477197Y262484D02*
X-457000D01*
X-502000Y290732D02*
Y308705D01*
Y271461D02*
Y290732D01*
X-346000Y131976D02*
X-332024D01*
X-328000Y136000D01*
Y156000D01*
X-336976Y164976D02*
X-328000Y156000D01*
X-367197Y164976D02*
X-336976D01*
X-367197Y114024D02*
X-346000D01*
X-367197Y147024D02*
X-346000D01*
X-367197Y131976D02*
X-346000D01*
X-449000Y130437D02*
X-420000D01*
X-449000Y149728D02*
X-420000D01*
X-469197Y130437D02*
X-449000D01*
X-469197Y140732D02*
Y149728D01*
X-449000D02*
Y167681D01*
X-469197D02*
X-449000D01*
X-420000Y149728D02*
X-398272D01*
X-420000Y130437D02*
X-399437D01*
X-420000Y115024D02*
Y130437D01*
X-469197Y112484D02*
X-449000D01*
X-494000Y140732D02*
Y158705D01*
Y121461D02*
Y140732D01*
M02*
