G04 Layer_Color=16711935*
%FSLAX25Y25*%
%MOIN*%
G70*
G01*
G75*
%ADD40C,0.07868*%
D40*
X255900Y322300D02*
D03*
X288000Y352700D02*
D03*
X176200Y379600D02*
D03*
X182700Y429200D02*
D03*
X230000Y399900D02*
D03*
X219700Y434900D02*
D03*
X284800Y413900D02*
D03*
X239261Y432576D02*
D03*
X287000Y440200D02*
D03*
X67600Y402800D02*
D03*
X95800Y376900D02*
D03*
X79300Y401200D02*
D03*
X63900Y438600D02*
D03*
X138119Y343919D02*
D03*
X278012Y335112D02*
D03*
X404400Y290900D02*
D03*
X556600Y172700D02*
D03*
X588700Y203100D02*
D03*
X476900Y230000D02*
D03*
X483400Y279600D02*
D03*
X530700Y250300D02*
D03*
X520400Y285300D02*
D03*
X585500Y264300D02*
D03*
X539961Y282976D02*
D03*
X587700Y290600D02*
D03*
X368300Y253200D02*
D03*
X396500Y227300D02*
D03*
X380000Y251600D02*
D03*
X364600Y289000D02*
D03*
X438819Y194319D02*
D03*
X578712Y185512D02*
D03*
X149800Y149900D02*
D03*
X300400Y149400D02*
D03*
X449200D02*
D03*
X449700Y300500D02*
D03*
X299100D02*
D03*
X149300Y299600D02*
D03*
Y449800D02*
D03*
X299500D02*
D03*
X450000Y450000D02*
D03*
X578712Y485512D02*
D03*
X438819Y494319D02*
D03*
X364600Y589000D02*
D03*
X380000Y551600D02*
D03*
X396500Y527300D02*
D03*
X368300Y553200D02*
D03*
X405800Y592000D02*
D03*
X587700Y590600D02*
D03*
X539961Y582976D02*
D03*
X585500Y564300D02*
D03*
X520400Y585300D02*
D03*
X530700Y550300D02*
D03*
X483400Y579600D02*
D03*
X476900Y530000D02*
D03*
X588700Y503100D02*
D03*
X556600Y472700D02*
D03*
X103500Y440400D02*
D03*
M02*
