G04 Layer_Color=8388736*
%FSLAX25Y25*%
%MOIN*%
G70*
G01*
G75*
%ADD29C,0.05400*%
G04:AMPARAMS|DCode=30|XSize=70.99mil|YSize=78.87mil|CornerRadius=0mil|HoleSize=0mil|Usage=FLASHONLY|Rotation=270.000|XOffset=0mil|YOffset=0mil|HoleType=Round|Shape=RoundedRectangle|*
%AMROUNDEDRECTD30*
21,1,0.07099,0.07887,0,0,270.0*
21,1,0.07099,0.07887,0,0,270.0*
1,1,0.00000,-0.03943,-0.03550*
1,1,0.00000,-0.03943,0.03550*
1,1,0.00000,0.03943,0.03550*
1,1,0.00000,0.03943,-0.03550*
%
%ADD30ROUNDEDRECTD30*%
%ADD31R,0.11233X0.07690*%
%ADD32R,0.07000X0.11200*%
%ADD33R,0.22200X0.22800*%
%ADD34R,0.07000X0.11100*%
%ADD35R,0.03800X0.05800*%
%ADD36R,0.05800X0.03800*%
G04:AMPARAMS|DCode=37|XSize=70.99mil|YSize=78.87mil|CornerRadius=0mil|HoleSize=0mil|Usage=FLASHONLY|Rotation=0.000|XOffset=0mil|YOffset=0mil|HoleType=Round|Shape=RoundedRectangle|*
%AMROUNDEDRECTD37*
21,1,0.07099,0.07887,0,0,0.0*
21,1,0.07099,0.07887,0,0,0.0*
1,1,0.00000,0.03550,-0.03943*
1,1,0.00000,-0.03550,-0.03943*
1,1,0.00000,-0.03550,0.03943*
1,1,0.00000,0.03550,0.03943*
%
%ADD37ROUNDEDRECTD37*%
%ADD38R,0.08674X0.22060*%
%ADD39C,0.11811*%
%ADD40C,0.07868*%
D29*
X229300Y349600D02*
D03*
X77765Y349600D02*
D03*
X229300Y309600D02*
D03*
X173100Y426300D02*
D03*
X169300Y319600D02*
D03*
X79300Y309600D02*
D03*
X39300Y369600D02*
D03*
X8700Y322600D02*
D03*
X149300Y299600D02*
D03*
X287000Y431300D02*
D03*
X139100Y439200D02*
D03*
X158600Y439500D02*
D03*
X530000Y200000D02*
D03*
X378465Y200000D02*
D03*
X530000Y160000D02*
D03*
X473800Y276700D02*
D03*
X470000Y170000D02*
D03*
X380000Y160000D02*
D03*
X340000Y220000D02*
D03*
X309400Y173000D02*
D03*
X450000Y150000D02*
D03*
X587700Y281700D02*
D03*
X439800Y289600D02*
D03*
X459300Y289900D02*
D03*
Y589900D02*
D03*
X439800Y589600D02*
D03*
X470000Y470000D02*
D03*
X530000Y500000D02*
D03*
X587700Y581700D02*
D03*
X309400Y473000D02*
D03*
X473800Y576700D02*
D03*
X340000Y520000D02*
D03*
X530000Y460000D02*
D03*
X380000D02*
D03*
X450000Y450000D02*
D03*
X378465Y500000D02*
D03*
D30*
X209300Y375112D02*
D03*
Y364088D02*
D03*
X57765Y375112D02*
D03*
Y364088D02*
D03*
X289300Y324088D02*
D03*
Y335112D02*
D03*
X249300Y435112D02*
D03*
Y424088D02*
D03*
X219300Y324088D02*
D03*
Y335112D02*
D03*
X138119Y324088D02*
D03*
Y335112D02*
D03*
X93050Y439112D02*
D03*
Y428088D02*
D03*
X64812Y324088D02*
D03*
Y335112D02*
D03*
X46500Y425112D02*
D03*
Y414088D02*
D03*
X510000Y225512D02*
D03*
Y214488D02*
D03*
X358465Y225512D02*
D03*
Y214488D02*
D03*
X590000Y174488D02*
D03*
Y185512D02*
D03*
X550000Y285512D02*
D03*
Y274488D02*
D03*
X520000Y174488D02*
D03*
Y185512D02*
D03*
X438819Y174488D02*
D03*
Y185512D02*
D03*
X393750Y289512D02*
D03*
Y278488D02*
D03*
X365512Y174488D02*
D03*
Y185512D02*
D03*
X347200Y275512D02*
D03*
Y264488D02*
D03*
X358465Y525512D02*
D03*
Y514488D02*
D03*
X510000Y525512D02*
D03*
Y514488D02*
D03*
X365512Y474488D02*
D03*
Y485512D02*
D03*
X347200Y575512D02*
D03*
Y564488D02*
D03*
X393750Y589512D02*
D03*
Y578488D02*
D03*
X438819Y474488D02*
D03*
Y485512D02*
D03*
X520000Y474488D02*
D03*
Y485512D02*
D03*
X550000Y585512D02*
D03*
Y574488D02*
D03*
X590000Y474488D02*
D03*
Y485512D02*
D03*
D31*
X197765Y389600D02*
D03*
X180835D02*
D03*
X46229Y389600D02*
D03*
X29300D02*
D03*
X237765Y389600D02*
D03*
X220835D02*
D03*
X86229Y389600D02*
D03*
X69300D02*
D03*
X498465Y240000D02*
D03*
X481535D02*
D03*
X346929Y240000D02*
D03*
X330000D02*
D03*
X538465Y240000D02*
D03*
X521535D02*
D03*
X386929Y240000D02*
D03*
X370000D02*
D03*
X538465Y540000D02*
D03*
X521535D02*
D03*
X498465D02*
D03*
X481535D02*
D03*
X386929Y540000D02*
D03*
X370000D02*
D03*
X346929D02*
D03*
X330000D02*
D03*
D32*
X128300Y402300D02*
D03*
X278300D02*
D03*
X128300Y352300D02*
D03*
X278300D02*
D03*
X429000Y252700D02*
D03*
X579000D02*
D03*
X429000Y202700D02*
D03*
X579000D02*
D03*
X429000Y552700D02*
D03*
X579000D02*
D03*
X429000Y502700D02*
D03*
X579000D02*
D03*
D33*
X119300Y429600D02*
D03*
X269300D02*
D03*
X119300Y379600D02*
D03*
X269300D02*
D03*
X420000Y280000D02*
D03*
X570000D02*
D03*
X420000Y230000D02*
D03*
X570000D02*
D03*
X420000Y580000D02*
D03*
X570000D02*
D03*
X420000Y530000D02*
D03*
X570000D02*
D03*
D34*
X110300Y402300D02*
D03*
X260300D02*
D03*
X110300Y352300D02*
D03*
X260300D02*
D03*
X411000Y252700D02*
D03*
X561000D02*
D03*
X411000Y202700D02*
D03*
X561000D02*
D03*
X411000Y552700D02*
D03*
X561000D02*
D03*
X411000Y502700D02*
D03*
X561000D02*
D03*
D35*
X269300Y333600D02*
D03*
X273050Y325600D02*
D03*
X265550D02*
D03*
X239300Y413600D02*
D03*
X243050Y405600D02*
D03*
X235550D02*
D03*
X209300Y353600D02*
D03*
X213050Y345600D02*
D03*
X205550D02*
D03*
X118119Y333600D02*
D03*
X121869Y325600D02*
D03*
X114369D02*
D03*
X83050Y417600D02*
D03*
X86800Y409600D02*
D03*
X79300D02*
D03*
X54812Y353600D02*
D03*
X58562Y345600D02*
D03*
X51062D02*
D03*
X243300Y338100D02*
D03*
X247050Y330100D02*
D03*
X239550D02*
D03*
X229300Y433600D02*
D03*
X233050Y425600D02*
D03*
X225550D02*
D03*
X199300Y333600D02*
D03*
X203050Y325600D02*
D03*
X195550D02*
D03*
X97100Y336900D02*
D03*
X100850Y328900D02*
D03*
X93350D02*
D03*
X73050Y437600D02*
D03*
X76800Y429600D02*
D03*
X69300D02*
D03*
X44812Y333600D02*
D03*
X48562Y325600D02*
D03*
X41062D02*
D03*
X570000Y184000D02*
D03*
X573750Y176000D02*
D03*
X566250D02*
D03*
X540000Y264000D02*
D03*
X543750Y256000D02*
D03*
X536250D02*
D03*
X510000Y204000D02*
D03*
X513750Y196000D02*
D03*
X506250D02*
D03*
X418819Y184000D02*
D03*
X422569Y176000D02*
D03*
X415069D02*
D03*
X383750Y268000D02*
D03*
X387500Y260000D02*
D03*
X380000D02*
D03*
X355512Y204000D02*
D03*
X359262Y196000D02*
D03*
X351762D02*
D03*
X544000Y188500D02*
D03*
X547750Y180500D02*
D03*
X540250D02*
D03*
X530000Y284000D02*
D03*
X533750Y276000D02*
D03*
X526250D02*
D03*
X500000Y184000D02*
D03*
X503750Y176000D02*
D03*
X496250D02*
D03*
X397800Y187300D02*
D03*
X401550Y179300D02*
D03*
X394050D02*
D03*
X373750Y288000D02*
D03*
X377500Y280000D02*
D03*
X370000D02*
D03*
X345512Y184000D02*
D03*
X349262Y176000D02*
D03*
X341762D02*
D03*
X355512Y504000D02*
D03*
X359262Y496000D02*
D03*
X351762D02*
D03*
X345512Y484000D02*
D03*
X349262Y476000D02*
D03*
X341762D02*
D03*
X373750Y588000D02*
D03*
X377500Y580000D02*
D03*
X370000D02*
D03*
X397800Y487300D02*
D03*
X401550Y479300D02*
D03*
X394050D02*
D03*
X500000Y484000D02*
D03*
X503750Y476000D02*
D03*
X496250D02*
D03*
X530000Y584000D02*
D03*
X533750Y576000D02*
D03*
X526250D02*
D03*
X544000Y488500D02*
D03*
X547750Y480500D02*
D03*
X540250D02*
D03*
X383750Y568000D02*
D03*
X387500Y560000D02*
D03*
X380000D02*
D03*
X418819Y484000D02*
D03*
X422569Y476000D02*
D03*
X415069D02*
D03*
X510000Y504000D02*
D03*
X513750Y496000D02*
D03*
X506250D02*
D03*
X540000Y564000D02*
D03*
X543750Y556000D02*
D03*
X536250D02*
D03*
X570000Y484000D02*
D03*
X573750Y476000D02*
D03*
X566250D02*
D03*
D36*
X173300Y339600D02*
D03*
X165300Y335850D02*
D03*
Y343350D02*
D03*
X28812Y329600D02*
D03*
X20812Y325850D02*
D03*
Y333350D02*
D03*
X474000Y190000D02*
D03*
X466000Y186250D02*
D03*
Y193750D02*
D03*
X329512Y180000D02*
D03*
X321512Y176250D02*
D03*
Y183750D02*
D03*
X474000Y490000D02*
D03*
X466000Y486250D02*
D03*
Y493750D02*
D03*
X329512Y480000D02*
D03*
X321512Y476250D02*
D03*
Y483750D02*
D03*
D37*
X254812Y309600D02*
D03*
X243788D02*
D03*
X184812Y409600D02*
D03*
X173788D02*
D03*
X174812Y309600D02*
D03*
X163788D02*
D03*
X103631D02*
D03*
X92607D02*
D03*
X28562Y413600D02*
D03*
X17538D02*
D03*
X20324Y309600D02*
D03*
X9300D02*
D03*
X284812D02*
D03*
X273788D02*
D03*
X214812Y409600D02*
D03*
X203788D02*
D03*
X204812Y309600D02*
D03*
X193788D02*
D03*
X133631D02*
D03*
X122607D02*
D03*
X50324D02*
D03*
X39300D02*
D03*
X174812Y359600D02*
D03*
X163788D02*
D03*
X30324Y349600D02*
D03*
X19300D02*
D03*
X153788Y379600D02*
D03*
X164812D02*
D03*
X9300Y369600D02*
D03*
X20324D02*
D03*
X555512Y160000D02*
D03*
X544488D02*
D03*
X485512Y260000D02*
D03*
X474488D02*
D03*
X475512Y160000D02*
D03*
X464488D02*
D03*
X404331D02*
D03*
X393307D02*
D03*
X329262Y264000D02*
D03*
X318238D02*
D03*
X321024Y160000D02*
D03*
X310000D02*
D03*
X585512D02*
D03*
X574488D02*
D03*
X515512Y260000D02*
D03*
X504488D02*
D03*
X505512Y160000D02*
D03*
X494488D02*
D03*
X434331D02*
D03*
X423307D02*
D03*
X351024D02*
D03*
X340000D02*
D03*
X475512Y210000D02*
D03*
X464488D02*
D03*
X331024Y200000D02*
D03*
X320000D02*
D03*
X454488Y230000D02*
D03*
X465512D02*
D03*
X310000Y220000D02*
D03*
X321024D02*
D03*
X475512Y510000D02*
D03*
X464488D02*
D03*
X454488Y530000D02*
D03*
X465512D02*
D03*
X321024Y460000D02*
D03*
X310000D02*
D03*
X351024D02*
D03*
X340000D02*
D03*
X310000Y520000D02*
D03*
X321024D02*
D03*
X331024Y500000D02*
D03*
X320000D02*
D03*
X434331Y460000D02*
D03*
X423307D02*
D03*
X505512D02*
D03*
X494488D02*
D03*
X515512Y560000D02*
D03*
X504488D02*
D03*
X585512Y460000D02*
D03*
X574488D02*
D03*
X329262Y564000D02*
D03*
X318238D02*
D03*
X404331Y460000D02*
D03*
X393307D02*
D03*
X475512D02*
D03*
X464488D02*
D03*
X485512Y560000D02*
D03*
X474488D02*
D03*
X555512Y460000D02*
D03*
X544488D02*
D03*
D38*
X139655Y420700D02*
D03*
X158947D02*
D03*
X139655Y397200D02*
D03*
X158947D02*
D03*
X440355Y271100D02*
D03*
X459647D02*
D03*
X440355Y247600D02*
D03*
X459647D02*
D03*
X440355Y547600D02*
D03*
X459647D02*
D03*
X440355Y571100D02*
D03*
X459647D02*
D03*
D39*
X590000Y10000D02*
D03*
X20000Y550000D02*
D03*
D40*
X255900Y322300D02*
D03*
X288000Y352700D02*
D03*
X176200Y379600D02*
D03*
X182700Y429200D02*
D03*
X230000Y399900D02*
D03*
X219700Y434900D02*
D03*
X284800Y413900D02*
D03*
X239261Y432576D02*
D03*
X287000Y440200D02*
D03*
X67600Y402800D02*
D03*
X95800Y376900D02*
D03*
X79300Y401200D02*
D03*
X63900Y438600D02*
D03*
X138119Y343919D02*
D03*
X278012Y335112D02*
D03*
X404400Y290900D02*
D03*
X556600Y172700D02*
D03*
X588700Y203100D02*
D03*
X476900Y230000D02*
D03*
X483400Y279600D02*
D03*
X530700Y250300D02*
D03*
X520400Y285300D02*
D03*
X585500Y264300D02*
D03*
X539961Y282976D02*
D03*
X587700Y290600D02*
D03*
X368300Y253200D02*
D03*
X396500Y227300D02*
D03*
X380000Y251600D02*
D03*
X364600Y289000D02*
D03*
X438819Y194319D02*
D03*
X578712Y185512D02*
D03*
X149800Y149900D02*
D03*
X300400Y149400D02*
D03*
X449200D02*
D03*
X449700Y300500D02*
D03*
X299100D02*
D03*
X149300Y299600D02*
D03*
Y449800D02*
D03*
X299500D02*
D03*
X450000Y450000D02*
D03*
X578712Y485512D02*
D03*
X438819Y494319D02*
D03*
X364600Y589000D02*
D03*
X380000Y551600D02*
D03*
X396500Y527300D02*
D03*
X368300Y553200D02*
D03*
X405800Y592000D02*
D03*
X587700Y590600D02*
D03*
X539961Y582976D02*
D03*
X585500Y564300D02*
D03*
X520400Y585300D02*
D03*
X530700Y550300D02*
D03*
X483400Y579600D02*
D03*
X476900Y530000D02*
D03*
X588700Y503100D02*
D03*
X556600Y472700D02*
D03*
X103500Y440400D02*
D03*
M02*
