G04 Layer_Color=2752767*
%FSLAX25Y25*%
%MOIN*%
G70*
G01*
G75*
%ADD42C,0.00500*%
D42*
X253900Y320300D02*
Y324300D01*
X257900D01*
Y320300D01*
X253900D01*
X286000Y350700D02*
Y354700D01*
X290000D01*
Y350700D01*
X286000D01*
X174200Y377600D02*
Y381600D01*
X178200D01*
Y377600D01*
X174200D01*
X180700Y427200D02*
Y431200D01*
X184700D01*
Y427200D01*
X180700D01*
X228000Y397900D02*
Y401900D01*
X232000D01*
Y397900D01*
X228000D01*
X217700Y432900D02*
Y436900D01*
X221700D01*
Y432900D01*
X217700D01*
X282800Y411900D02*
Y415900D01*
X286800D01*
Y411900D01*
X282800D01*
X237261Y430576D02*
Y434576D01*
X241261D01*
Y430576D01*
X237261D01*
X285000Y438200D02*
Y442200D01*
X289000D01*
Y438200D01*
X285000D01*
X65600Y400800D02*
Y404800D01*
X69600D01*
Y400800D01*
X65600D01*
X93800Y374900D02*
Y378900D01*
X97800D01*
Y374900D01*
X93800D01*
X77300Y399200D02*
Y403200D01*
X81300D01*
Y399200D01*
X77300D01*
X61900Y436600D02*
Y440600D01*
X65900D01*
Y436600D01*
X61900D01*
X136119Y341919D02*
Y345919D01*
X140119D01*
Y341919D01*
X136119D01*
X276012Y333112D02*
Y337112D01*
X280012D01*
Y333112D01*
X276012D01*
X402400Y288900D02*
Y292900D01*
X406400D01*
Y288900D01*
X402400D01*
X554600Y170700D02*
Y174700D01*
X558600D01*
Y170700D01*
X554600D01*
X586700Y201100D02*
Y205100D01*
X590700D01*
Y201100D01*
X586700D01*
X474900Y228000D02*
Y232000D01*
X478900D01*
Y228000D01*
X474900D01*
X481400Y277600D02*
Y281600D01*
X485400D01*
Y277600D01*
X481400D01*
X528700Y248300D02*
Y252300D01*
X532700D01*
Y248300D01*
X528700D01*
X518400Y283300D02*
Y287300D01*
X522400D01*
Y283300D01*
X518400D01*
X583500Y262300D02*
Y266300D01*
X587500D01*
Y262300D01*
X583500D01*
X537961Y280976D02*
Y284976D01*
X541961D01*
Y280976D01*
X537961D01*
X585700Y288600D02*
Y292600D01*
X589700D01*
Y288600D01*
X585700D01*
X366300Y251200D02*
Y255200D01*
X370300D01*
Y251200D01*
X366300D01*
X394500Y225300D02*
Y229300D01*
X398500D01*
Y225300D01*
X394500D01*
X378000Y249600D02*
Y253600D01*
X382000D01*
Y249600D01*
X378000D01*
X362600Y287000D02*
Y291000D01*
X366600D01*
Y287000D01*
X362600D01*
X436819Y192319D02*
Y196319D01*
X440819D01*
Y192319D01*
X436819D01*
X576712Y183512D02*
Y187512D01*
X580712D01*
Y183512D01*
X576712D01*
X147800Y147900D02*
Y151900D01*
X151800D01*
Y147900D01*
X147800D01*
X298400Y147400D02*
Y151400D01*
X302400D01*
Y147400D01*
X298400D01*
X447200D02*
Y151400D01*
X451200D01*
Y147400D01*
X447200D01*
X447700Y298500D02*
Y302500D01*
X451700D01*
Y298500D01*
X447700D01*
X297100D02*
Y302500D01*
X301100D01*
Y298500D01*
X297100D01*
X147300Y297600D02*
Y301600D01*
X151300D01*
Y297600D01*
X147300D01*
Y447800D02*
Y451800D01*
X151300D01*
Y447800D01*
X147300D01*
X297500D02*
Y451800D01*
X301500D01*
Y447800D01*
X297500D01*
X448000Y448000D02*
Y452000D01*
X452000D01*
Y448000D01*
X448000D01*
X576712Y483512D02*
Y487512D01*
X580712D01*
Y483512D01*
X576712D01*
X436819Y492319D02*
Y496319D01*
X440819D01*
Y492319D01*
X436819D01*
X362600Y587000D02*
Y591000D01*
X366600D01*
Y587000D01*
X362600D01*
X378000Y549600D02*
Y553600D01*
X382000D01*
Y549600D01*
X378000D01*
X394500Y525300D02*
Y529300D01*
X398500D01*
Y525300D01*
X394500D01*
X366300Y551200D02*
Y555200D01*
X370300D01*
Y551200D01*
X366300D01*
X403800Y590000D02*
Y594000D01*
X407800D01*
Y590000D01*
X403800D01*
X585700Y588600D02*
Y592600D01*
X589700D01*
Y588600D01*
X585700D01*
X537961Y580976D02*
Y584976D01*
X541961D01*
Y580976D01*
X537961D01*
X583500Y562300D02*
Y566300D01*
X587500D01*
Y562300D01*
X583500D01*
X518400Y583300D02*
Y587300D01*
X522400D01*
Y583300D01*
X518400D01*
X528700Y548300D02*
Y552300D01*
X532700D01*
Y548300D01*
X528700D01*
X481400Y577600D02*
Y581600D01*
X485400D01*
Y577600D01*
X481400D01*
X474900Y528000D02*
Y532000D01*
X478900D01*
Y528000D01*
X474900D01*
X586700Y501100D02*
Y505100D01*
X590700D01*
Y501100D01*
X586700D01*
X554600Y470700D02*
Y474700D01*
X558600D01*
Y470700D01*
X554600D01*
X101500Y438400D02*
Y442400D01*
X105500D01*
Y438400D01*
X101500D01*
M02*
