G04 Layer_Physical_Order=1*
G04 Layer_Color=255*
%FSLAX25Y25*%
%MOIN*%
G70*
G01*
G75*
%ADD10C,0.04600*%
G04:AMPARAMS|DCode=11|XSize=62.99mil|YSize=70.87mil|CornerRadius=0mil|HoleSize=0mil|Usage=FLASHONLY|Rotation=270.000|XOffset=0mil|YOffset=0mil|HoleType=Round|Shape=RoundedRectangle|*
%AMROUNDEDRECTD11*
21,1,0.06299,0.07087,0,0,270.0*
21,1,0.06299,0.07087,0,0,270.0*
1,1,0.00000,-0.03543,-0.03150*
1,1,0.00000,-0.03543,0.03150*
1,1,0.00000,0.03543,0.03150*
1,1,0.00000,0.03543,-0.03150*
%
%ADD11ROUNDEDRECTD11*%
%ADD12R,0.10433X0.06890*%
%ADD13R,0.06200X0.10400*%
%ADD14R,0.21400X0.22000*%
%ADD15R,0.06200X0.10300*%
%ADD16R,0.03000X0.05000*%
%ADD17R,0.05000X0.03000*%
G04:AMPARAMS|DCode=18|XSize=62.99mil|YSize=70.87mil|CornerRadius=0mil|HoleSize=0mil|Usage=FLASHONLY|Rotation=0.000|XOffset=0mil|YOffset=0mil|HoleType=Round|Shape=RoundedRectangle|*
%AMROUNDEDRECTD18*
21,1,0.06299,0.07087,0,0,0.0*
21,1,0.06299,0.07087,0,0,0.0*
1,1,0.00000,0.03150,-0.03543*
1,1,0.00000,-0.03150,-0.03543*
1,1,0.00000,-0.03150,0.03543*
1,1,0.00000,0.03150,0.03543*
%
%ADD18ROUNDEDRECTD18*%
%ADD19R,0.07874X0.21260*%
%ADD20C,0.03937*%
%ADD21C,0.03937*%
%ADD22C,0.00787*%
%ADD23C,0.08268*%
G36*
X388172Y582844D02*
X387982Y582559D01*
X387798Y581638D01*
Y575339D01*
X387982Y574417D01*
X388504Y573635D01*
X389285Y573113D01*
X389382Y573094D01*
Y568059D01*
X388850Y567527D01*
X388104Y567895D01*
X388118Y568000D01*
X387969Y569131D01*
X387659Y569881D01*
Y570500D01*
X387475Y571422D01*
X386953Y572203D01*
X386172Y572725D01*
X385250Y572908D01*
X382250D01*
X381328Y572725D01*
X380794Y572368D01*
X377875D01*
X376745Y572219D01*
X375691Y571783D01*
X374787Y571089D01*
X362599Y558901D01*
X362599Y558901D01*
X357893Y554195D01*
X339827D01*
X338696Y554046D01*
X337643Y553610D01*
X336738Y552915D01*
X329676Y545853D01*
X324783D01*
X323862Y545670D01*
X323394Y545357D01*
X322606Y545748D01*
Y558430D01*
X323091Y558754D01*
X323277Y559031D01*
X324224D01*
X324409Y558754D01*
X325191Y558231D01*
X326112Y558048D01*
X332412D01*
X333333Y558231D01*
X334115Y558754D01*
X334637Y559535D01*
X334656Y559632D01*
X341959D01*
X342735Y559113D01*
X343657Y558930D01*
X350743D01*
X351665Y559113D01*
X352446Y559635D01*
X352770Y560120D01*
X354488D01*
X355619Y560269D01*
X356672Y560705D01*
X357577Y561400D01*
X371269Y575092D01*
X371500D01*
X372422Y575275D01*
X372635Y575418D01*
X373192Y574692D01*
X374014Y574061D01*
X374972Y573664D01*
X376000Y573529D01*
X376750D01*
Y580000D01*
X377500D01*
Y580750D01*
X382971D01*
Y582500D01*
X382926Y582844D01*
X383615Y583632D01*
X387751D01*
X388172Y582844D01*
D02*
G37*
G36*
X534500Y569529D02*
X534798D01*
X534992Y569360D01*
X535300Y568834D01*
X535003Y568368D01*
X534125D01*
X532995Y568219D01*
X531941Y567783D01*
X531037Y567089D01*
X527129Y563181D01*
X526013Y563034D01*
X524960Y562598D01*
X524055Y561903D01*
X523360Y561208D01*
X522632Y561509D01*
Y563543D01*
X522497Y564571D01*
X522100Y565529D01*
X521469Y566351D01*
X520647Y566982D01*
X519689Y567379D01*
X518661Y567514D01*
X516262D01*
Y560000D01*
X514762D01*
Y567514D01*
X512362D01*
X511334Y567379D01*
X510377Y566982D01*
X509644Y566420D01*
X509281Y566502D01*
X508856Y566735D01*
Y568779D01*
X511709Y571632D01*
X523294D01*
X523828Y571275D01*
X524750Y571092D01*
X527750D01*
X528672Y571275D01*
X528885Y571418D01*
X529442Y570692D01*
X530264Y570061D01*
X531222Y569664D01*
X532250Y569529D01*
X533000D01*
Y576000D01*
X534500D01*
Y569529D01*
D02*
G37*
G36*
X596104Y507932D02*
X595317Y507759D01*
X594435Y508835D01*
X593206Y509843D01*
X591804Y510593D01*
X590282Y511054D01*
X589450Y511136D01*
Y503100D01*
Y495064D01*
X590282Y495146D01*
X591804Y495607D01*
X593206Y496357D01*
X594435Y497365D01*
X595317Y498441D01*
X596104Y498268D01*
Y490497D01*
X595317Y490259D01*
X595246Y490365D01*
X594465Y490887D01*
X593543Y491070D01*
X586457D01*
X585535Y490887D01*
X584754Y490365D01*
X584430Y489880D01*
X583531D01*
X583327Y490127D01*
X582338Y490939D01*
X581210Y491542D01*
X579985Y491914D01*
X578712Y492039D01*
X577438Y491914D01*
X576214Y491542D01*
X575155Y490977D01*
X574709Y491110D01*
X574368Y491271D01*
Y493021D01*
X574519Y493214D01*
X575155Y493627D01*
X575900Y493529D01*
X578250D01*
Y501950D01*
X571929D01*
Y498977D01*
X571202Y498676D01*
X566508Y503369D01*
Y507850D01*
X566325Y508772D01*
X565803Y509553D01*
X565022Y510075D01*
X564100Y510258D01*
X557900D01*
X556978Y510075D01*
X556197Y509553D01*
X555675Y508772D01*
X555491Y507850D01*
Y497550D01*
X555675Y496628D01*
X556197Y495847D01*
X556978Y495325D01*
X557900Y495142D01*
X562381D01*
X565632Y491891D01*
Y484859D01*
X564845Y484533D01*
X557789Y491589D01*
X556884Y492283D01*
X555830Y492719D01*
X554700Y492868D01*
X546956D01*
X546422Y493225D01*
X545500Y493408D01*
X542500D01*
X541578Y493225D01*
X540797Y492703D01*
X540275Y491922D01*
X540091Y491000D01*
Y490381D01*
X539781Y489631D01*
X539632Y488500D01*
X539781Y487369D01*
X540091Y486619D01*
Y486000D01*
X539606Y485408D01*
X538750D01*
X537828Y485225D01*
X537047Y484703D01*
X536525Y483922D01*
X536341Y483000D01*
Y482381D01*
X536031Y481631D01*
X535882Y480500D01*
Y476029D01*
X536031Y474899D01*
X536467Y473845D01*
X537161Y472941D01*
X538066Y472246D01*
X539119Y471810D01*
X539376Y471776D01*
X544473Y466679D01*
X544171Y465952D01*
X541339D01*
X540417Y465768D01*
X539636Y465246D01*
X539113Y464465D01*
X539094Y464368D01*
X531637D01*
X531217Y464542D01*
X530000Y464702D01*
X528783Y464542D01*
X527649Y464072D01*
X526675Y463325D01*
X525928Y462351D01*
X525458Y461217D01*
X525298Y460000D01*
X525458Y458783D01*
X525928Y457649D01*
X526675Y456675D01*
X527649Y455928D01*
X528783Y455458D01*
X530000Y455298D01*
X531217Y455458D01*
X531637Y455632D01*
X539094D01*
X539113Y455535D01*
X539636Y454754D01*
X540417Y454232D01*
X541339Y454048D01*
X547638D01*
X548560Y454232D01*
X549341Y454754D01*
X549527Y455031D01*
X550473D01*
X550659Y454754D01*
X551440Y454232D01*
X552362Y454048D01*
X558661D01*
X559583Y454232D01*
X560364Y454754D01*
X560887Y455535D01*
X560906Y455632D01*
X569094D01*
X569113Y455535D01*
X569635Y454754D01*
X570417Y454232D01*
X571339Y454048D01*
X577638D01*
X578559Y454232D01*
X578920Y454472D01*
X578923Y454471D01*
X579554Y453649D01*
X580377Y453018D01*
X581334Y452621D01*
X582362Y452486D01*
X584762D01*
Y460000D01*
X585512D01*
Y460750D01*
X592632D01*
Y463543D01*
X592497Y464571D01*
X592100Y465529D01*
X591469Y466351D01*
X590647Y466982D01*
X590037Y467235D01*
X589796Y468106D01*
X590619Y468930D01*
X593543D01*
X594465Y469113D01*
X595246Y469635D01*
X595317Y469741D01*
X596104Y469502D01*
Y207932D01*
X595317Y207759D01*
X594435Y208835D01*
X593206Y209843D01*
X591804Y210593D01*
X590282Y211054D01*
X589450Y211136D01*
Y203100D01*
Y195064D01*
X590282Y195146D01*
X591804Y195607D01*
X593206Y196357D01*
X594435Y197365D01*
X595317Y198441D01*
X596104Y198268D01*
Y190498D01*
X595317Y190259D01*
X595246Y190365D01*
X594465Y190887D01*
X593543Y191070D01*
X586457D01*
X585535Y190887D01*
X584754Y190365D01*
X584430Y189880D01*
X583531D01*
X583327Y190127D01*
X582338Y190939D01*
X581210Y191542D01*
X579985Y191914D01*
X578712Y192039D01*
X577438Y191914D01*
X576214Y191542D01*
X575155Y190977D01*
X574709Y191110D01*
X574368Y191271D01*
Y193021D01*
X574519Y193213D01*
X575155Y193627D01*
X575900Y193529D01*
X578250D01*
Y201950D01*
X571929D01*
Y198977D01*
X571202Y198676D01*
X566508Y203369D01*
Y207850D01*
X566325Y208772D01*
X565803Y209553D01*
X565022Y210075D01*
X564100Y210259D01*
X557900D01*
X556978Y210075D01*
X556197Y209553D01*
X555675Y208772D01*
X555491Y207850D01*
Y197550D01*
X555675Y196628D01*
X556197Y195847D01*
X556978Y195325D01*
X557900Y195141D01*
X562381D01*
X565632Y191891D01*
Y184859D01*
X564845Y184533D01*
X557789Y191589D01*
X556884Y192283D01*
X555830Y192719D01*
X554700Y192868D01*
X546956D01*
X546422Y193225D01*
X545500Y193409D01*
X542500D01*
X541578Y193225D01*
X540797Y192703D01*
X540275Y191922D01*
X540091Y191000D01*
Y190381D01*
X539781Y189630D01*
X539632Y188500D01*
X539781Y187370D01*
X540091Y186619D01*
Y186000D01*
X539606Y185408D01*
X538750D01*
X537828Y185225D01*
X537047Y184703D01*
X536525Y183922D01*
X536341Y183000D01*
Y182381D01*
X536031Y181631D01*
X535882Y180500D01*
Y176029D01*
X536031Y174899D01*
X536467Y173845D01*
X537161Y172941D01*
X538066Y172246D01*
X539119Y171810D01*
X539376Y171776D01*
X544473Y166679D01*
X544171Y165952D01*
X541339D01*
X540417Y165769D01*
X539636Y165246D01*
X539113Y164465D01*
X539094Y164368D01*
X531637D01*
X531217Y164542D01*
X530000Y164702D01*
X528783Y164542D01*
X527649Y164072D01*
X526675Y163325D01*
X525928Y162351D01*
X525458Y161217D01*
X525298Y160000D01*
X525458Y158783D01*
X525928Y157649D01*
X526675Y156675D01*
X527649Y155928D01*
X528783Y155458D01*
X530000Y155298D01*
X531217Y155458D01*
X531637Y155632D01*
X539094D01*
X539113Y155535D01*
X539636Y154754D01*
X540417Y154232D01*
X541339Y154048D01*
X547638D01*
X548560Y154232D01*
X549341Y154754D01*
X549527Y155032D01*
X550473D01*
X550659Y154754D01*
X551440Y154232D01*
X552362Y154048D01*
X558661D01*
X559583Y154232D01*
X560364Y154754D01*
X560887Y155535D01*
X560906Y155632D01*
X569094D01*
X569113Y155535D01*
X569635Y154754D01*
X570417Y154232D01*
X571339Y154048D01*
X577638D01*
X578559Y154232D01*
X578920Y154472D01*
X578923Y154471D01*
X579554Y153649D01*
X580377Y153018D01*
X581334Y152621D01*
X582362Y152486D01*
X584762D01*
Y160000D01*
X585512D01*
Y160750D01*
X592632D01*
Y163543D01*
X592497Y164571D01*
X592100Y165529D01*
X591469Y166351D01*
X590647Y166982D01*
X590037Y167235D01*
X589796Y168106D01*
X590619Y168930D01*
X593543D01*
X594465Y169113D01*
X595246Y169635D01*
X595317Y169741D01*
X596104Y169502D01*
Y36410D01*
X595317Y36021D01*
X595140Y36157D01*
X594469Y36435D01*
X593750Y36530D01*
X593031Y36435D01*
X592360Y36157D01*
X591784Y35715D01*
X590000Y33931D01*
X588215Y35715D01*
X587640Y36157D01*
X586969Y36435D01*
X586250Y36530D01*
X585531Y36435D01*
X584860Y36157D01*
X584284Y35715D01*
X583843Y35140D01*
X583565Y34469D01*
X583470Y33750D01*
X583565Y33031D01*
X583843Y32360D01*
X584284Y31784D01*
X586069Y30000D01*
X584284Y28216D01*
X583843Y27640D01*
X583565Y26969D01*
X583470Y26250D01*
X583565Y25531D01*
X583843Y24860D01*
X584284Y24284D01*
X584860Y23843D01*
X585531Y23565D01*
X586250Y23470D01*
X586969Y23565D01*
X587640Y23843D01*
X588215Y24284D01*
X590000Y26069D01*
X591784Y24284D01*
X592360Y23843D01*
X593031Y23565D01*
X593750Y23470D01*
X594469Y23565D01*
X595140Y23843D01*
X595317Y23979D01*
X596104Y23590D01*
Y16704D01*
X595317Y16332D01*
X594616Y16908D01*
X593179Y17675D01*
X591621Y18148D01*
X590000Y18308D01*
X588379Y18148D01*
X586821Y17675D01*
X585385Y16908D01*
X584126Y15874D01*
X583092Y14615D01*
X582325Y13179D01*
X581852Y11621D01*
X581692Y10000D01*
X581852Y8379D01*
X582325Y6821D01*
X583092Y5384D01*
X583668Y4683D01*
X583296Y3895D01*
X3895D01*
Y303847D01*
X3941Y303889D01*
X4683Y304196D01*
X5229Y303832D01*
X6150Y303648D01*
X12450D01*
X13371Y303832D01*
X14153Y304354D01*
X14338Y304631D01*
X15285D01*
X15471Y304354D01*
X16252Y303832D01*
X17174Y303648D01*
X23473D01*
X24395Y303832D01*
X25176Y304354D01*
X25698Y305135D01*
X25718Y305232D01*
X33906D01*
X33925Y305135D01*
X34447Y304354D01*
X35229Y303832D01*
X36150Y303648D01*
X42450D01*
X43371Y303832D01*
X43731Y304072D01*
X43735Y304071D01*
X44366Y303249D01*
X45189Y302618D01*
X46146Y302221D01*
X47174Y302086D01*
X49574D01*
Y309600D01*
Y317114D01*
X47174D01*
X46217Y316988D01*
X45973Y317028D01*
X45430Y317391D01*
Y318773D01*
X46217Y319240D01*
X47062Y319129D01*
X47812D01*
Y325600D01*
X49312D01*
Y319129D01*
X50062D01*
X51090Y319264D01*
X52047Y319661D01*
X52870Y320292D01*
X53501Y321114D01*
X53897Y322072D01*
X53917Y322223D01*
X54749Y322505D01*
X56254Y321000D01*
X57158Y320305D01*
X58212Y319869D01*
X59232Y319735D01*
X59566Y319235D01*
X60347Y318713D01*
X61269Y318530D01*
X68355D01*
X69277Y318713D01*
X70058Y319235D01*
X70580Y320017D01*
X70764Y320939D01*
Y327238D01*
X70580Y328159D01*
X70058Y328941D01*
X69780Y329127D01*
Y330073D01*
X70058Y330259D01*
X70580Y331041D01*
X70764Y331962D01*
Y338261D01*
X70580Y339183D01*
X70058Y339965D01*
X69277Y340487D01*
X68355Y340670D01*
X65431D01*
X62930Y343171D01*
Y343791D01*
X64371Y345232D01*
X76127D01*
X76547Y345058D01*
X77765Y344898D01*
X78982Y345058D01*
X80116Y345528D01*
X81090Y346275D01*
X81837Y347249D01*
X82307Y348383D01*
X82467Y349600D01*
X82307Y350817D01*
X81837Y351951D01*
X81090Y352925D01*
X80116Y353673D01*
X78982Y354142D01*
X77765Y354303D01*
X76547Y354142D01*
X76127Y353968D01*
X62562D01*
X62180Y353918D01*
X62058Y354005D01*
X61661Y354644D01*
X61984Y355422D01*
X62133Y356553D01*
Y358694D01*
X62230Y358714D01*
X63011Y359236D01*
X63533Y360017D01*
X63716Y360939D01*
Y367238D01*
X63533Y368160D01*
X63011Y368941D01*
X62733Y369127D01*
Y370074D01*
X63011Y370259D01*
X63533Y371041D01*
X63716Y371962D01*
Y377839D01*
X69624Y383747D01*
X74516D01*
X75438Y383930D01*
X76220Y384452D01*
X76742Y385233D01*
X76925Y386155D01*
Y393045D01*
X76742Y393967D01*
X76386Y394499D01*
X76669Y394955D01*
X76906Y395138D01*
X78026Y394798D01*
X78500Y394751D01*
X78795Y394127D01*
X78781Y393932D01*
X78604Y393045D01*
Y386155D01*
X78787Y385233D01*
X79310Y384452D01*
X80091Y383930D01*
X81013Y383747D01*
X91446D01*
X92367Y383930D01*
X93149Y384452D01*
X93671Y385233D01*
X93854Y386155D01*
Y393045D01*
X93671Y393967D01*
X93149Y394748D01*
X92367Y395270D01*
X92133Y395317D01*
Y405232D01*
X101191D01*
X104791Y401631D01*
Y397150D01*
X104975Y396228D01*
X105497Y395447D01*
X106278Y394925D01*
X107200Y394742D01*
X113400D01*
X114322Y394925D01*
X115103Y395447D01*
X115625Y396228D01*
X115808Y397150D01*
Y407450D01*
X115625Y408372D01*
X115103Y409153D01*
X114322Y409675D01*
X113400Y409859D01*
X108919D01*
X106089Y412689D01*
X105184Y413383D01*
X104130Y413819D01*
X103000Y413968D01*
X97667D01*
X97274Y414555D01*
X97274Y414755D01*
X97418Y415850D01*
Y422694D01*
X97515Y422713D01*
X98296Y423236D01*
X98818Y424017D01*
X99002Y424939D01*
Y431238D01*
X98818Y432160D01*
X98296Y432941D01*
X98019Y433126D01*
Y434073D01*
X98296Y434259D01*
X98723Y434898D01*
X99575Y435217D01*
X99874Y434973D01*
X101002Y434369D01*
X102226Y433998D01*
X103500Y433873D01*
X104773Y433998D01*
X105404Y434189D01*
X106192Y433605D01*
Y418600D01*
X106375Y417678D01*
X106897Y416897D01*
X107678Y416375D01*
X108600Y416191D01*
X130000D01*
X130922Y416375D01*
X131703Y416897D01*
X132225Y417678D01*
X132408Y418600D01*
Y440600D01*
X132225Y441522D01*
X131703Y442303D01*
X130922Y442825D01*
X130000Y443009D01*
X112069D01*
X110389Y444689D01*
X109484Y445383D01*
X108431Y445819D01*
X107300Y445968D01*
X106863D01*
X105998Y446431D01*
X104773Y446802D01*
X103500Y446927D01*
X102226Y446802D01*
X101002Y446431D01*
X99874Y445827D01*
X98884Y445016D01*
X98119Y444083D01*
X97515Y444487D01*
X96593Y444670D01*
X89507D01*
X88585Y444487D01*
X87804Y443964D01*
X87282Y443183D01*
X87098Y442261D01*
Y441968D01*
X76006D01*
X75472Y442325D01*
X74550Y442509D01*
X73931D01*
X73181Y442819D01*
X72050Y442968D01*
X68719D01*
X68516Y443216D01*
X67527Y444027D01*
X66398Y444631D01*
X65174Y445002D01*
X63900Y445127D01*
X62626Y445002D01*
X61402Y444631D01*
X60273Y444027D01*
X59284Y443216D01*
X58473Y442227D01*
X57869Y441098D01*
X57498Y439873D01*
X57372Y438600D01*
X57498Y437327D01*
X57869Y436102D01*
X58473Y434973D01*
X59284Y433984D01*
X60273Y433173D01*
X61402Y432569D01*
X62626Y432198D01*
X63900Y432072D01*
X64545Y432136D01*
X64903Y431380D01*
X52399Y418877D01*
X51746Y418941D01*
X51468Y419127D01*
Y420074D01*
X51746Y420259D01*
X52268Y421040D01*
X52452Y421962D01*
Y428261D01*
X52268Y429183D01*
X51746Y429964D01*
X50965Y430487D01*
X50043Y430670D01*
X42957D01*
X42035Y430487D01*
X41254Y429964D01*
X40930Y429480D01*
X3895D01*
Y596104D01*
X362930D01*
X363046Y595317D01*
X362102Y595031D01*
X360974Y594427D01*
X359984Y593616D01*
X359173Y592626D01*
X358569Y591498D01*
X358198Y590273D01*
X358072Y589000D01*
X358198Y587727D01*
X358569Y586502D01*
X359173Y585373D01*
X359984Y584384D01*
X360974Y583573D01*
X362102Y582969D01*
X363327Y582598D01*
X364600Y582473D01*
X365245Y582536D01*
X365603Y581780D01*
X355406Y571583D01*
X354660Y571951D01*
X354714Y572362D01*
Y574762D01*
X347200D01*
X339686D01*
Y572362D01*
X339821Y571334D01*
X340218Y570377D01*
X340849Y569554D01*
X341369Y569156D01*
X341101Y568368D01*
X334656D01*
X334637Y568465D01*
X334115Y569246D01*
X333333Y569768D01*
X332412Y569952D01*
X326112D01*
X325191Y569768D01*
X324409Y569246D01*
X324224Y568968D01*
X323277D01*
X323091Y569246D01*
X322309Y569768D01*
X321388Y569952D01*
X315089D01*
X314167Y569768D01*
X313386Y569246D01*
X312863Y568465D01*
X312680Y567543D01*
Y560457D01*
X312863Y559535D01*
X313386Y558754D01*
X313870Y558430D01*
Y528017D01*
X313278Y527497D01*
X313150Y527514D01*
X310750D01*
Y520000D01*
Y512486D01*
X313150D01*
X314177Y512621D01*
X314844Y512897D01*
X315632Y512486D01*
Y505570D01*
X315147Y505246D01*
X314625Y504465D01*
X314442Y503543D01*
Y496457D01*
X314625Y495535D01*
X315147Y494754D01*
X315929Y494232D01*
X316850Y494048D01*
X321442D01*
X321743Y493321D01*
X318423Y490000D01*
X317729Y489096D01*
X317293Y488042D01*
X317144Y486912D01*
Y486706D01*
X316787Y486172D01*
X316603Y485250D01*
Y482250D01*
X316787Y481328D01*
X316929Y481115D01*
X316204Y480558D01*
X315573Y479736D01*
X315176Y478778D01*
X315041Y477750D01*
Y477000D01*
X321512D01*
Y476250D01*
X322262D01*
Y470779D01*
X324012D01*
X325040Y470914D01*
X325997Y471311D01*
X326820Y471942D01*
X327451Y472765D01*
X327848Y473722D01*
X327983Y474750D01*
Y475171D01*
X328770Y475730D01*
X329512Y475632D01*
X330642Y475781D01*
X331393Y476092D01*
X332012D01*
X332933Y476275D01*
X333715Y476797D01*
X334237Y477578D01*
X334420Y478500D01*
Y478731D01*
X340450Y484761D01*
X341195Y484393D01*
X341144Y484000D01*
X341293Y482869D01*
X341603Y482119D01*
Y481500D01*
X341118Y480908D01*
X340262D01*
X339340Y480725D01*
X338559Y480203D01*
X338037Y479422D01*
X337853Y478500D01*
Y477881D01*
X337543Y477131D01*
X337394Y476000D01*
Y465952D01*
X336850D01*
X335929Y465768D01*
X335147Y465246D01*
X334625Y464465D01*
X334606Y464368D01*
X326418D01*
X326398Y464465D01*
X325876Y465246D01*
X325095Y465768D01*
X324173Y465952D01*
X317874D01*
X316952Y465768D01*
X316171Y465246D01*
X315985Y464968D01*
X315038D01*
X314853Y465246D01*
X314071Y465768D01*
X313768Y465829D01*
Y471362D01*
X313942Y471783D01*
X314102Y473000D01*
X313942Y474217D01*
X313472Y475351D01*
X312725Y476325D01*
X311751Y477072D01*
X310617Y477542D01*
X309400Y477702D01*
X308183Y477542D01*
X307049Y477072D01*
X306075Y476325D01*
X305328Y475351D01*
X304858Y474217D01*
X304698Y473000D01*
X304858Y471783D01*
X305032Y471362D01*
Y465074D01*
X304625Y464465D01*
X304442Y463543D01*
Y457171D01*
X304428Y457151D01*
X303655Y456731D01*
X302604Y457293D01*
X301082Y457754D01*
X300250Y457836D01*
Y450550D01*
X307536D01*
X307454Y451382D01*
X306993Y452904D01*
X306788Y453287D01*
X307274Y454048D01*
X313150D01*
X314071Y454232D01*
X314853Y454754D01*
X315038Y455031D01*
X315985D01*
X316171Y454754D01*
X316952Y454232D01*
X317874Y454048D01*
X324173D01*
X325095Y454232D01*
X325876Y454754D01*
X326398Y455535D01*
X326418Y455632D01*
X334606D01*
X334625Y455535D01*
X335147Y454754D01*
X335929Y454232D01*
X336850Y454048D01*
X343150D01*
X344071Y454232D01*
X344431Y454472D01*
X344435Y454471D01*
X345066Y453649D01*
X345888Y453018D01*
X346846Y452621D01*
X347874Y452486D01*
X350274D01*
Y460000D01*
Y467514D01*
X347874D01*
X346917Y467388D01*
X346673Y467428D01*
X346130Y467791D01*
Y469173D01*
X346917Y469640D01*
X347762Y469529D01*
X348512D01*
Y476000D01*
X350012D01*
Y469529D01*
X350762D01*
X351789Y469664D01*
X352747Y470061D01*
X353570Y470692D01*
X354201Y471515D01*
X354597Y472472D01*
X354617Y472623D01*
X355449Y472905D01*
X356954Y471399D01*
X357858Y470705D01*
X358912Y470269D01*
X359932Y470135D01*
X360265Y469635D01*
X361047Y469113D01*
X361968Y468930D01*
X369055D01*
X369977Y469113D01*
X370758Y469635D01*
X371280Y470417D01*
X371464Y471339D01*
Y477638D01*
X371280Y478559D01*
X370758Y479341D01*
X370480Y479527D01*
Y480474D01*
X370758Y480659D01*
X371280Y481440D01*
X371464Y482362D01*
Y488661D01*
X371280Y489583D01*
X370758Y490365D01*
X369977Y490887D01*
X369055Y491070D01*
X366131D01*
X363630Y493571D01*
Y494191D01*
X365071Y495632D01*
X376827D01*
X377248Y495458D01*
X378465Y495298D01*
X379682Y495458D01*
X380816Y495928D01*
X381790Y496675D01*
X382537Y497649D01*
X383007Y498783D01*
X383167Y500000D01*
X383007Y501217D01*
X382537Y502351D01*
X381790Y503325D01*
X380816Y504073D01*
X379682Y504542D01*
X378465Y504703D01*
X377248Y504542D01*
X376827Y504368D01*
X363262D01*
X362880Y504318D01*
X362758Y504405D01*
X362361Y505044D01*
X362684Y505822D01*
X362833Y506953D01*
Y509094D01*
X362930Y509114D01*
X363711Y509636D01*
X364233Y510417D01*
X364416Y511339D01*
Y517638D01*
X364233Y518560D01*
X363711Y519341D01*
X363433Y519527D01*
Y520474D01*
X363711Y520659D01*
X364233Y521441D01*
X364416Y522362D01*
Y528239D01*
X370324Y534147D01*
X375217D01*
X376138Y534330D01*
X376920Y534852D01*
X377442Y535633D01*
X377625Y536555D01*
Y543445D01*
X377442Y544367D01*
X377086Y544899D01*
X377369Y545355D01*
X377606Y545538D01*
X378727Y545198D01*
X379200Y545151D01*
X379495Y544527D01*
X379481Y544332D01*
X379304Y543445D01*
Y536555D01*
X379487Y535633D01*
X380010Y534852D01*
X380791Y534330D01*
X381713Y534147D01*
X392146D01*
X393067Y534330D01*
X393849Y534852D01*
X394371Y535633D01*
X394554Y536555D01*
Y543445D01*
X394371Y544367D01*
X393849Y545148D01*
X393067Y545670D01*
X392833Y545717D01*
Y555632D01*
X401891D01*
X405491Y552031D01*
Y547550D01*
X405675Y546628D01*
X406197Y545847D01*
X406978Y545325D01*
X407900Y545142D01*
X414100D01*
X415022Y545325D01*
X415803Y545847D01*
X416325Y546628D01*
X416508Y547550D01*
Y557850D01*
X416325Y558772D01*
X415803Y559553D01*
X415022Y560075D01*
X414100Y560258D01*
X409619D01*
X406789Y563089D01*
X405884Y563783D01*
X404831Y564219D01*
X403700Y564368D01*
X398367D01*
X397974Y564955D01*
X397974Y565156D01*
X398118Y566250D01*
Y573094D01*
X398215Y573113D01*
X398996Y573635D01*
X399518Y574417D01*
X399702Y575339D01*
Y581638D01*
X399518Y582559D01*
X398996Y583341D01*
X398719Y583527D01*
Y584474D01*
X398996Y584659D01*
X399518Y585440D01*
X399702Y586362D01*
Y587983D01*
X399948Y588126D01*
X400489Y588231D01*
X401184Y587384D01*
X402174Y586573D01*
X403302Y585969D01*
X404527Y585598D01*
X405800Y585472D01*
X406308Y585523D01*
X406891Y584994D01*
Y569000D01*
X407075Y568078D01*
X407597Y567297D01*
X408378Y566775D01*
X409300Y566592D01*
X430700D01*
X431622Y566775D01*
X432403Y567297D01*
X432925Y568078D01*
X433109Y569000D01*
Y591000D01*
X432925Y591922D01*
X432403Y592703D01*
X431622Y593225D01*
X430700Y593408D01*
X412769D01*
X411897Y594281D01*
X411831Y594498D01*
X411393Y595317D01*
X411792Y596104D01*
X531013D01*
X531340Y595317D01*
X526911Y590889D01*
X526217Y589984D01*
X526086Y589668D01*
X525219D01*
X525016Y589916D01*
X524026Y590727D01*
X522898Y591331D01*
X521673Y591702D01*
X520400Y591827D01*
X519127Y591702D01*
X517902Y591331D01*
X516774Y590727D01*
X515784Y589916D01*
X514973Y588927D01*
X514369Y587798D01*
X513998Y586573D01*
X513872Y585300D01*
X513998Y584027D01*
X514369Y582802D01*
X514973Y581673D01*
X515398Y581155D01*
X515025Y580368D01*
X509900D01*
X508770Y580219D01*
X507716Y579783D01*
X506811Y579089D01*
X501400Y573677D01*
X500705Y572772D01*
X500269Y571719D01*
X500120Y570588D01*
Y565570D01*
X499636Y565246D01*
X499113Y564465D01*
X499094Y564368D01*
X490906D01*
X490887Y564465D01*
X490365Y565246D01*
X489583Y565768D01*
X488661Y565952D01*
X482362D01*
X481440Y565768D01*
X480659Y565246D01*
X480474Y564968D01*
X479527D01*
X479341Y565246D01*
X478559Y565768D01*
X478168Y565846D01*
Y574494D01*
X478377Y574660D01*
X478956Y574844D01*
X479774Y574173D01*
X480902Y573569D01*
X482127Y573198D01*
X483400Y573072D01*
X484673Y573198D01*
X485898Y573569D01*
X487027Y574173D01*
X488016Y574984D01*
X488827Y575974D01*
X489431Y577102D01*
X489802Y578327D01*
X489927Y579600D01*
X489802Y580873D01*
X489431Y582098D01*
X488827Y583226D01*
X488016Y584216D01*
X487027Y585027D01*
X485898Y585631D01*
X484673Y586002D01*
X483400Y586128D01*
X482127Y586002D01*
X480902Y585631D01*
X479774Y585027D01*
X478784Y584216D01*
X478581Y583968D01*
X476700D01*
X475569Y583819D01*
X474516Y583383D01*
X473611Y582689D01*
X471869Y580947D01*
X471449Y580772D01*
X470475Y580025D01*
X469728Y579051D01*
X469258Y577917D01*
X469098Y576700D01*
X469258Y575483D01*
X469432Y575063D01*
Y564942D01*
X469113Y564465D01*
X468930Y563543D01*
Y556457D01*
X469113Y555535D01*
X469635Y554754D01*
X470417Y554232D01*
X471339Y554048D01*
X477638D01*
X478559Y554232D01*
X479341Y554754D01*
X479527Y555031D01*
X480474D01*
X480659Y554754D01*
X481440Y554232D01*
X482362Y554048D01*
X488661D01*
X489583Y554232D01*
X490365Y554754D01*
X490887Y555535D01*
X490906Y555632D01*
X492306D01*
X492514Y554845D01*
X491790Y554289D01*
X483411Y545910D01*
X483368Y545853D01*
X476319D01*
X475397Y545670D01*
X474616Y545148D01*
X474095Y544368D01*
X465992D01*
Y558230D01*
X465809Y559152D01*
X465676Y559350D01*
X465809Y559548D01*
X465992Y560470D01*
Y581730D01*
X465809Y582652D01*
X465287Y583433D01*
X464505Y583955D01*
X463668Y584122D01*
Y588263D01*
X463842Y588683D01*
X464002Y589900D01*
X463842Y591117D01*
X463372Y592251D01*
X462625Y593225D01*
X461651Y593972D01*
X460517Y594442D01*
X459300Y594602D01*
X458083Y594442D01*
X456949Y593972D01*
X455975Y593225D01*
X455228Y592251D01*
X454758Y591117D01*
X454598Y589900D01*
X454758Y588683D01*
X454932Y588263D01*
Y583984D01*
X454788Y583955D01*
X454007Y583433D01*
X453485Y582652D01*
X453301Y581730D01*
Y560470D01*
X453485Y559548D01*
X453617Y559350D01*
X453485Y559152D01*
X453301Y558230D01*
Y537514D01*
X451339D01*
X450311Y537379D01*
X449353Y536982D01*
X448531Y536351D01*
X447900Y535529D01*
X447503Y534571D01*
X447368Y533543D01*
Y530750D01*
X454488D01*
Y530000D01*
X455238D01*
Y522486D01*
X457638D01*
X458666Y522621D01*
X459333Y522897D01*
X460120Y522486D01*
Y515570D01*
X459635Y515246D01*
X459113Y514465D01*
X458930Y513543D01*
Y506457D01*
X459113Y505535D01*
X459635Y504754D01*
X460417Y504232D01*
X461339Y504048D01*
X467638D01*
X468560Y504232D01*
X469272Y504708D01*
X469423Y504737D01*
X470175Y504585D01*
X470317Y504244D01*
X463731Y497659D01*
X463500D01*
X462578Y497475D01*
X461797Y496953D01*
X461275Y496172D01*
X461092Y495250D01*
Y492250D01*
X461275Y491328D01*
X461418Y491115D01*
X460692Y490558D01*
X460061Y489736D01*
X459664Y488778D01*
X459529Y487750D01*
Y487000D01*
X466000D01*
Y486250D01*
X466750D01*
Y480779D01*
X468500D01*
X469528Y480914D01*
X470485Y481311D01*
X471308Y481942D01*
X471939Y482765D01*
X472336Y483722D01*
X472471Y484750D01*
Y485171D01*
X473258Y485730D01*
X474000Y485632D01*
X475131Y485781D01*
X475881Y486092D01*
X476500D01*
X477422Y486275D01*
X478203Y486797D01*
X478725Y487578D01*
X478908Y488500D01*
Y488731D01*
X490609Y500432D01*
X502253D01*
X502674Y499645D01*
X502525Y499422D01*
X502341Y498500D01*
Y497881D01*
X502031Y497130D01*
X501882Y496000D01*
Y489222D01*
X501500Y488908D01*
X498500D01*
X497578Y488725D01*
X496797Y488203D01*
X496275Y487422D01*
X496091Y486500D01*
Y485881D01*
X495781Y485131D01*
X495632Y484000D01*
X495781Y482869D01*
X496091Y482119D01*
Y481500D01*
X495606Y480908D01*
X494750D01*
X493828Y480725D01*
X493047Y480203D01*
X492525Y479422D01*
X492341Y478500D01*
Y478269D01*
X491399Y477327D01*
X490705Y476422D01*
X490269Y475369D01*
X490120Y474238D01*
Y465570D01*
X489636Y465246D01*
X489113Y464465D01*
X489094Y464368D01*
X480906D01*
X480887Y464465D01*
X480365Y465246D01*
X479583Y465768D01*
X478661Y465952D01*
X473571D01*
X473470Y466248D01*
X473375Y466739D01*
X474072Y467649D01*
X474542Y468783D01*
X474702Y470000D01*
X474542Y471217D01*
X474072Y472351D01*
X473325Y473325D01*
X472351Y474072D01*
X471217Y474542D01*
X470000Y474702D01*
X468783Y474542D01*
X467649Y474072D01*
X466675Y473325D01*
X465928Y472351D01*
X465753Y471931D01*
X461400Y467577D01*
X460705Y466672D01*
X460298Y465689D01*
X459635Y465246D01*
X459113Y464465D01*
X458930Y463543D01*
Y456457D01*
X459113Y455535D01*
X459635Y454754D01*
X460417Y454232D01*
X461339Y454048D01*
X467638D01*
X468560Y454232D01*
X469341Y454754D01*
X469526Y455031D01*
X470473D01*
X470659Y454754D01*
X471441Y454232D01*
X472362Y454048D01*
X478661D01*
X479583Y454232D01*
X480365Y454754D01*
X480887Y455535D01*
X480906Y455632D01*
X489094D01*
X489113Y455535D01*
X489636Y454754D01*
X490417Y454232D01*
X491339Y454048D01*
X497638D01*
X498560Y454232D01*
X498920Y454472D01*
X498923Y454471D01*
X499554Y453649D01*
X500377Y453018D01*
X501334Y452621D01*
X502362Y452486D01*
X504762D01*
Y460000D01*
Y467514D01*
X502362D01*
X501334Y467379D01*
X500377Y466982D01*
X499644Y466420D01*
X499281Y466502D01*
X498856Y466735D01*
Y470190D01*
X498981Y470297D01*
X499644Y470537D01*
X500264Y470061D01*
X501222Y469664D01*
X502250Y469529D01*
X503000D01*
Y476000D01*
X504500D01*
Y469529D01*
X505250D01*
X506278Y469664D01*
X507235Y470061D01*
X508058Y470692D01*
X508689Y471515D01*
X509086Y472472D01*
X509185Y473224D01*
X509956Y473566D01*
X512123Y471399D01*
X513028Y470705D01*
X514081Y470269D01*
X514354Y470233D01*
X514754Y469635D01*
X515535Y469113D01*
X516457Y468930D01*
X523543D01*
X524465Y469113D01*
X525246Y469635D01*
X525769Y470417D01*
X525952Y471339D01*
Y477638D01*
X525769Y478559D01*
X525246Y479341D01*
X524968Y479527D01*
Y480474D01*
X525246Y480659D01*
X525769Y481440D01*
X525952Y482362D01*
Y488661D01*
X525769Y489583D01*
X525246Y490365D01*
X524465Y490887D01*
X523543Y491070D01*
X520619D01*
X518118Y493571D01*
Y494191D01*
X519559Y495632D01*
X528363D01*
X528783Y495458D01*
X530000Y495298D01*
X531217Y495458D01*
X532351Y495928D01*
X533325Y496675D01*
X534072Y497649D01*
X534542Y498783D01*
X534702Y500000D01*
X534542Y501217D01*
X534072Y502351D01*
X533325Y503325D01*
X532351Y504072D01*
X531217Y504542D01*
X530000Y504702D01*
X528783Y504542D01*
X528363Y504368D01*
X517750D01*
X516619Y504219D01*
X515566Y503783D01*
X515085Y503414D01*
X514347Y503840D01*
X514368Y504000D01*
Y509094D01*
X514465Y509113D01*
X515246Y509635D01*
X515768Y510417D01*
X515952Y511339D01*
Y517638D01*
X515768Y518560D01*
X515246Y519341D01*
X514968Y519526D01*
Y520473D01*
X515246Y520659D01*
X515768Y521441D01*
X515952Y522362D01*
Y528239D01*
X521860Y534147D01*
X526752D01*
X527674Y534330D01*
X528455Y534852D01*
X528977Y535633D01*
X529160Y536555D01*
Y543156D01*
X529195Y543252D01*
X529628Y543710D01*
X529882Y543853D01*
X530113Y543830D01*
X530750Y543492D01*
X530840Y542995D01*
Y536555D01*
X531023Y535633D01*
X531545Y534852D01*
X532326Y534330D01*
X533248Y534147D01*
X543681D01*
X544603Y534330D01*
X545384Y534852D01*
X545906Y535633D01*
X546090Y536555D01*
Y541448D01*
X546839Y542197D01*
X547533Y543101D01*
X547969Y544155D01*
X548118Y545285D01*
Y551632D01*
X555491D01*
Y547550D01*
X555675Y546628D01*
X556197Y545847D01*
X556978Y545325D01*
X557900Y545142D01*
X564100D01*
X565022Y545325D01*
X565803Y545847D01*
X566325Y546628D01*
X566508Y547550D01*
Y557850D01*
X566325Y558772D01*
X565803Y559553D01*
X565022Y560075D01*
X564100Y560258D01*
X558532D01*
X557700Y560368D01*
X554368D01*
Y569094D01*
X554465Y569113D01*
X555246Y569635D01*
X555768Y570417D01*
X555952Y571339D01*
Y577638D01*
X555768Y578559D01*
X555246Y579341D01*
X554969Y579527D01*
Y580474D01*
X555246Y580659D01*
X555768Y581440D01*
X555952Y582362D01*
Y588661D01*
X555768Y589583D01*
X555246Y590365D01*
X554465Y590887D01*
X553543Y591070D01*
X550619D01*
X546372Y595317D01*
X546698Y596104D01*
X582926D01*
X583208Y595317D01*
X583084Y595216D01*
X582273Y594227D01*
X581755Y593259D01*
X581622Y593225D01*
X580700Y593408D01*
X559300D01*
X558378Y593225D01*
X557597Y592703D01*
X557075Y591922D01*
X556891Y591000D01*
Y569000D01*
X557075Y568078D01*
X557597Y567297D01*
X558378Y566775D01*
X559300Y566592D01*
X578746D01*
X579215Y565959D01*
X579098Y565573D01*
X578972Y564300D01*
X579004Y563981D01*
X575911Y560889D01*
X575388Y560207D01*
X574978Y560125D01*
X574197Y559603D01*
X573675Y558822D01*
X573491Y557900D01*
Y547500D01*
X573675Y546578D01*
X574197Y545797D01*
X574632Y545506D01*
Y543408D01*
X559300D01*
X558378Y543225D01*
X557597Y542703D01*
X557075Y541922D01*
X556891Y541000D01*
Y519000D01*
X557075Y518078D01*
X557597Y517297D01*
X558378Y516775D01*
X559300Y516592D01*
X580700D01*
X581622Y516775D01*
X582403Y517297D01*
X582925Y518078D01*
X583109Y519000D01*
Y537602D01*
X583219Y537870D01*
X583368Y539000D01*
Y545506D01*
X583803Y545797D01*
X584325Y546578D01*
X584509Y547500D01*
Y557131D01*
X585181Y557804D01*
X585500Y557772D01*
X586773Y557898D01*
X587998Y558269D01*
X589126Y558873D01*
X590116Y559684D01*
X590927Y560674D01*
X591531Y561802D01*
X591902Y563027D01*
X592028Y564300D01*
X591902Y565573D01*
X591531Y566798D01*
X590927Y567927D01*
X590116Y568916D01*
X589126Y569727D01*
X587998Y570331D01*
X586773Y570702D01*
X585500Y570827D01*
X584227Y570702D01*
X583741Y570555D01*
X583109Y571024D01*
Y577332D01*
X586062D01*
X586483Y577158D01*
X587700Y576998D01*
X588917Y577158D01*
X590051Y577628D01*
X591025Y578375D01*
X591772Y579349D01*
X592242Y580483D01*
X592402Y581700D01*
X592242Y582917D01*
X592068Y583337D01*
Y585781D01*
X592316Y585984D01*
X593127Y586973D01*
X593731Y588102D01*
X594102Y589327D01*
X594228Y590600D01*
X594102Y591873D01*
X593731Y593098D01*
X593127Y594227D01*
X592316Y595216D01*
X592192Y595317D01*
X592474Y596104D01*
X596104D01*
Y507932D01*
D02*
G37*
%LPC*%
G36*
X382971Y579250D02*
X378250D01*
Y573529D01*
X379000D01*
X380028Y573664D01*
X380985Y574061D01*
X381808Y574692D01*
X382439Y575515D01*
X382836Y576472D01*
X382971Y577500D01*
Y579250D01*
D02*
G37*
G36*
X148550Y298850D02*
X141264D01*
X141346Y298018D01*
X141807Y296497D01*
X142557Y295094D01*
X143565Y293865D01*
X144794Y292857D01*
X146196Y292107D01*
X147718Y291646D01*
X148550Y291564D01*
Y298850D01*
D02*
G37*
G36*
X542917Y296963D02*
X534795D01*
X533664Y296814D01*
X532611Y296377D01*
X531706Y295683D01*
X526911Y290889D01*
X526217Y289984D01*
X526086Y289668D01*
X525219D01*
X525016Y289916D01*
X524026Y290727D01*
X522898Y291331D01*
X521673Y291702D01*
X520400Y291828D01*
X519127Y291702D01*
X517902Y291331D01*
X516774Y290727D01*
X515784Y289916D01*
X514973Y288927D01*
X514369Y287798D01*
X513998Y286574D01*
X513872Y285300D01*
X513998Y284027D01*
X514369Y282802D01*
X514973Y281674D01*
X515398Y281155D01*
X515025Y280368D01*
X509900D01*
X508770Y280219D01*
X507716Y279783D01*
X506811Y279089D01*
X501400Y273677D01*
X500705Y272772D01*
X500269Y271719D01*
X500120Y270588D01*
Y265570D01*
X499636Y265246D01*
X499113Y264465D01*
X499094Y264368D01*
X490906D01*
X490887Y264465D01*
X490365Y265246D01*
X489583Y265768D01*
X488661Y265952D01*
X482362D01*
X481440Y265768D01*
X480659Y265246D01*
X480474Y264968D01*
X479527D01*
X479341Y265246D01*
X478559Y265768D01*
X478168Y265846D01*
Y274494D01*
X478377Y274660D01*
X478956Y274844D01*
X479774Y274173D01*
X480902Y273569D01*
X482127Y273198D01*
X483400Y273073D01*
X484673Y273198D01*
X485898Y273569D01*
X487027Y274173D01*
X488016Y274984D01*
X488827Y275974D01*
X489431Y277102D01*
X489802Y278327D01*
X489927Y279600D01*
X489802Y280873D01*
X489431Y282098D01*
X488827Y283226D01*
X488016Y284216D01*
X487027Y285027D01*
X485898Y285631D01*
X484673Y286002D01*
X483400Y286127D01*
X482127Y286002D01*
X480902Y285631D01*
X479774Y285027D01*
X478784Y284216D01*
X478581Y283968D01*
X476700D01*
X475569Y283819D01*
X474516Y283383D01*
X473611Y282689D01*
X471869Y280946D01*
X471449Y280772D01*
X470475Y280025D01*
X469728Y279051D01*
X469258Y277917D01*
X469098Y276700D01*
X469258Y275483D01*
X469432Y275062D01*
Y264942D01*
X469113Y264465D01*
X468930Y263543D01*
Y256457D01*
X469113Y255535D01*
X469635Y254754D01*
X470417Y254232D01*
X471339Y254048D01*
X477638D01*
X478559Y254232D01*
X479341Y254754D01*
X479527Y255031D01*
X480474D01*
X480659Y254754D01*
X481440Y254232D01*
X482362Y254048D01*
X488661D01*
X489583Y254232D01*
X490365Y254754D01*
X490887Y255535D01*
X490906Y255632D01*
X492306D01*
X492514Y254844D01*
X491790Y254289D01*
X483411Y245910D01*
X483368Y245853D01*
X476319D01*
X475397Y245670D01*
X474616Y245148D01*
X474095Y244368D01*
X465992D01*
Y258230D01*
X465809Y259152D01*
X465676Y259350D01*
X465809Y259548D01*
X465992Y260470D01*
Y281730D01*
X465809Y282652D01*
X465287Y283433D01*
X464505Y283955D01*
X463668Y284122D01*
Y288263D01*
X463842Y288683D01*
X464002Y289900D01*
X463842Y291117D01*
X463372Y292251D01*
X462625Y293225D01*
X461651Y293972D01*
X460517Y294442D01*
X459300Y294602D01*
X458083Y294442D01*
X456949Y293972D01*
X455975Y293225D01*
X455228Y292251D01*
X454758Y291117D01*
X454598Y289900D01*
X454758Y288683D01*
X454932Y288263D01*
Y283984D01*
X454788Y283955D01*
X454007Y283433D01*
X453485Y282652D01*
X453301Y281730D01*
Y260470D01*
X453485Y259548D01*
X453617Y259350D01*
X453485Y259152D01*
X453301Y258230D01*
Y237514D01*
X451339D01*
X450311Y237379D01*
X449353Y236982D01*
X448531Y236351D01*
X447900Y235529D01*
X447503Y234571D01*
X447368Y233543D01*
Y230750D01*
X454488D01*
Y230000D01*
X455238D01*
Y222486D01*
X457638D01*
X458666Y222621D01*
X459333Y222897D01*
X460120Y222486D01*
Y215570D01*
X459635Y215246D01*
X459113Y214465D01*
X458930Y213543D01*
Y206457D01*
X459113Y205535D01*
X459635Y204754D01*
X460417Y204232D01*
X461339Y204048D01*
X467638D01*
X468560Y204232D01*
X469272Y204708D01*
X469423Y204737D01*
X470175Y204585D01*
X470317Y204244D01*
X463731Y197659D01*
X463500D01*
X462578Y197475D01*
X461797Y196953D01*
X461275Y196172D01*
X461092Y195250D01*
Y192250D01*
X461275Y191328D01*
X461418Y191115D01*
X460692Y190558D01*
X460061Y189736D01*
X459664Y188778D01*
X459529Y187750D01*
Y187000D01*
X466000D01*
Y186250D01*
X466750D01*
Y180779D01*
X468500D01*
X469528Y180914D01*
X470485Y181311D01*
X471308Y181942D01*
X471939Y182765D01*
X472336Y183722D01*
X472471Y184750D01*
Y185171D01*
X473258Y185730D01*
X474000Y185632D01*
X475131Y185781D01*
X475881Y186092D01*
X476500D01*
X477422Y186275D01*
X478203Y186797D01*
X478725Y187578D01*
X478908Y188500D01*
Y188731D01*
X490609Y200432D01*
X502253D01*
X502674Y199644D01*
X502525Y199422D01*
X502341Y198500D01*
Y197881D01*
X502031Y197131D01*
X501882Y196000D01*
Y189222D01*
X501500Y188909D01*
X498500D01*
X497578Y188725D01*
X496797Y188203D01*
X496275Y187422D01*
X496091Y186500D01*
Y185881D01*
X495781Y185131D01*
X495632Y184000D01*
X495781Y182870D01*
X496091Y182119D01*
Y181500D01*
X495606Y180909D01*
X494750D01*
X493828Y180725D01*
X493047Y180203D01*
X492525Y179422D01*
X492341Y178500D01*
Y178269D01*
X491399Y177327D01*
X490705Y176422D01*
X490269Y175369D01*
X490120Y174238D01*
Y165570D01*
X489636Y165246D01*
X489113Y164465D01*
X489094Y164368D01*
X480906D01*
X480887Y164465D01*
X480365Y165246D01*
X479583Y165769D01*
X478661Y165952D01*
X473571D01*
X473470Y166248D01*
X473375Y166739D01*
X474072Y167649D01*
X474542Y168783D01*
X474702Y170000D01*
X474542Y171217D01*
X474072Y172351D01*
X473325Y173325D01*
X472351Y174072D01*
X471217Y174542D01*
X470000Y174702D01*
X468783Y174542D01*
X467649Y174072D01*
X466675Y173325D01*
X465928Y172351D01*
X465753Y171931D01*
X461400Y167577D01*
X460705Y166672D01*
X460298Y165689D01*
X459635Y165246D01*
X459113Y164465D01*
X458930Y163543D01*
Y156457D01*
X459113Y155535D01*
X459635Y154754D01*
X460417Y154232D01*
X461339Y154048D01*
X467638D01*
X468560Y154232D01*
X469341Y154754D01*
X469526Y155032D01*
X470473D01*
X470659Y154754D01*
X471441Y154232D01*
X472362Y154048D01*
X478661D01*
X479583Y154232D01*
X480365Y154754D01*
X480887Y155535D01*
X480906Y155632D01*
X489094D01*
X489113Y155535D01*
X489636Y154754D01*
X490417Y154232D01*
X491339Y154048D01*
X497638D01*
X498560Y154232D01*
X498920Y154472D01*
X498923Y154471D01*
X499554Y153649D01*
X500377Y153018D01*
X501334Y152621D01*
X502362Y152486D01*
X504762D01*
Y160000D01*
Y167514D01*
X502362D01*
X501334Y167379D01*
X500377Y166982D01*
X499644Y166420D01*
X499281Y166501D01*
X498856Y166735D01*
Y170190D01*
X498981Y170297D01*
X499644Y170537D01*
X500264Y170061D01*
X501222Y169664D01*
X502250Y169529D01*
X503000D01*
Y176000D01*
X504500D01*
Y169529D01*
X505250D01*
X506278Y169664D01*
X507235Y170061D01*
X508058Y170692D01*
X508689Y171514D01*
X509086Y172472D01*
X509185Y173224D01*
X509956Y173566D01*
X512123Y171399D01*
X513028Y170705D01*
X514081Y170269D01*
X514354Y170233D01*
X514754Y169635D01*
X515535Y169113D01*
X516457Y168930D01*
X523543D01*
X524465Y169113D01*
X525246Y169635D01*
X525769Y170417D01*
X525952Y171339D01*
Y177638D01*
X525769Y178560D01*
X525246Y179341D01*
X524968Y179526D01*
Y180473D01*
X525246Y180659D01*
X525769Y181440D01*
X525952Y182362D01*
Y188661D01*
X525769Y189583D01*
X525246Y190365D01*
X524465Y190887D01*
X523543Y191070D01*
X520619D01*
X518118Y193571D01*
Y194191D01*
X519559Y195632D01*
X528363D01*
X528783Y195458D01*
X530000Y195298D01*
X531217Y195458D01*
X532351Y195928D01*
X533325Y196675D01*
X534072Y197649D01*
X534542Y198783D01*
X534702Y200000D01*
X534542Y201217D01*
X534072Y202351D01*
X533325Y203325D01*
X532351Y204072D01*
X531217Y204542D01*
X530000Y204702D01*
X528783Y204542D01*
X528363Y204368D01*
X517750D01*
X516619Y204219D01*
X515566Y203783D01*
X515085Y203414D01*
X514347Y203840D01*
X514368Y204000D01*
Y209094D01*
X514465Y209113D01*
X515246Y209635D01*
X515768Y210417D01*
X515952Y211339D01*
Y217638D01*
X515768Y218560D01*
X515246Y219341D01*
X514968Y219527D01*
Y220474D01*
X515246Y220659D01*
X515768Y221441D01*
X515952Y222362D01*
Y228239D01*
X521860Y234147D01*
X526752D01*
X527674Y234330D01*
X528455Y234852D01*
X528977Y235633D01*
X529160Y236555D01*
Y243156D01*
X529195Y243252D01*
X529628Y243710D01*
X529882Y243853D01*
X530113Y243830D01*
X530750Y243492D01*
X530840Y242995D01*
Y236555D01*
X531023Y235633D01*
X531545Y234852D01*
X532326Y234330D01*
X533248Y234147D01*
X543681D01*
X544603Y234330D01*
X545384Y234852D01*
X545906Y235633D01*
X546090Y236555D01*
Y241448D01*
X546839Y242197D01*
X547533Y243101D01*
X547969Y244155D01*
X548118Y245285D01*
Y251632D01*
X555491D01*
Y247550D01*
X555675Y246628D01*
X556197Y245847D01*
X556978Y245325D01*
X557900Y245142D01*
X564100D01*
X565022Y245325D01*
X565803Y245847D01*
X566325Y246628D01*
X566508Y247550D01*
Y257850D01*
X566325Y258772D01*
X565803Y259553D01*
X565022Y260075D01*
X564100Y260259D01*
X558532D01*
X557700Y260368D01*
X554368D01*
Y269094D01*
X554465Y269113D01*
X555246Y269636D01*
X555768Y270417D01*
X555952Y271339D01*
Y277638D01*
X555768Y278559D01*
X555246Y279341D01*
X554969Y279526D01*
Y280473D01*
X555246Y280659D01*
X555768Y281440D01*
X555952Y282362D01*
Y288661D01*
X555768Y289583D01*
X555246Y290365D01*
X554465Y290887D01*
X553543Y291070D01*
X550619D01*
X546006Y295683D01*
X545101Y296377D01*
X544048Y296814D01*
X542917Y296963D01*
D02*
G37*
G36*
X350743Y282632D02*
X347950D01*
Y276262D01*
X354714D01*
Y278661D01*
X354579Y279689D01*
X354182Y280647D01*
X353551Y281469D01*
X352729Y282100D01*
X351771Y282497D01*
X350743Y282632D01*
D02*
G37*
G36*
X157336Y298850D02*
X150050D01*
Y291564D01*
X150882Y291646D01*
X152403Y292107D01*
X153806Y292857D01*
X155035Y293865D01*
X156043Y295094D01*
X156793Y296497D01*
X157254Y298018D01*
X157336Y298850D01*
D02*
G37*
G36*
X307136Y299750D02*
X299850D01*
Y292464D01*
X300682Y292546D01*
X302203Y293007D01*
X303606Y293757D01*
X304835Y294765D01*
X305843Y295994D01*
X306593Y297396D01*
X307054Y298918D01*
X307136Y299750D01*
D02*
G37*
G36*
X298350D02*
X291064D01*
X291146Y298918D01*
X291607Y297396D01*
X292357Y295994D01*
X293365Y294765D01*
X294594Y293757D01*
X295996Y293007D01*
X297518Y292546D01*
X298350Y292464D01*
Y299750D01*
D02*
G37*
G36*
X309250Y227514D02*
X306850D01*
X305823Y227379D01*
X304865Y226982D01*
X304043Y226351D01*
X303411Y225529D01*
X303015Y224571D01*
X302879Y223543D01*
Y220750D01*
X309250D01*
Y227514D01*
D02*
G37*
G36*
Y219250D02*
X302879D01*
Y216457D01*
X303015Y215429D01*
X303411Y214471D01*
X304043Y213649D01*
X304865Y213018D01*
X305823Y212621D01*
X306850Y212486D01*
X309250D01*
Y219250D01*
D02*
G37*
G36*
X578250Y211871D02*
X575900D01*
X574872Y211736D01*
X573914Y211339D01*
X573092Y210708D01*
X572461Y209886D01*
X572064Y208928D01*
X571929Y207900D01*
Y203450D01*
X578250D01*
Y211871D01*
D02*
G37*
G36*
X346450Y282632D02*
X343657D01*
X342629Y282497D01*
X341671Y282100D01*
X340849Y281469D01*
X340218Y280647D01*
X339821Y279689D01*
X339686Y278661D01*
Y276262D01*
X346450D01*
Y282632D01*
D02*
G37*
G36*
X439800Y294302D02*
X438583Y294142D01*
X437449Y293672D01*
X436475Y292925D01*
X435728Y291951D01*
X435258Y290817D01*
X435098Y289600D01*
X435258Y288383D01*
X435432Y287963D01*
Y283912D01*
X434715Y283433D01*
X434193Y282652D01*
X434010Y281730D01*
Y260470D01*
X434023Y260403D01*
X433315Y259929D01*
X433022Y260125D01*
X432100Y260309D01*
X425900D01*
X424978Y260125D01*
X424197Y259603D01*
X423675Y258822D01*
X423491Y257900D01*
Y247500D01*
X423675Y246578D01*
X424197Y245797D01*
X424632Y245506D01*
Y243408D01*
X409300D01*
X408378Y243225D01*
X407597Y242703D01*
X407075Y241922D01*
X406891Y241000D01*
Y234368D01*
X399200D01*
X398070Y234219D01*
X397016Y233783D01*
X397009Y233777D01*
X396500Y233827D01*
X395227Y233702D01*
X394002Y233331D01*
X392874Y232727D01*
X391884Y231916D01*
X391073Y230926D01*
X390469Y229798D01*
X390098Y228573D01*
X389972Y227300D01*
X390098Y226027D01*
X390469Y224802D01*
X391073Y223674D01*
X391884Y222684D01*
X392874Y221873D01*
X394002Y221269D01*
X395227Y220898D01*
X396500Y220773D01*
X397774Y220898D01*
X398998Y221269D01*
X400127Y221873D01*
X401116Y222684D01*
X401927Y223674D01*
X402531Y224802D01*
X402782Y225632D01*
X406891D01*
Y219000D01*
X407075Y218078D01*
X407597Y217297D01*
X408378Y216775D01*
X409300Y216592D01*
X430700D01*
X431622Y216775D01*
X432403Y217297D01*
X432925Y218078D01*
X433109Y219000D01*
Y237140D01*
X433222Y237260D01*
X433953Y236991D01*
X434014Y236950D01*
X434193Y236048D01*
X434715Y235267D01*
X435497Y234745D01*
X436418Y234562D01*
X444292D01*
X445214Y234745D01*
X445996Y235267D01*
X446518Y236048D01*
X446701Y236970D01*
Y258230D01*
X446518Y259152D01*
X446385Y259350D01*
X446518Y259548D01*
X446701Y260470D01*
Y281730D01*
X446518Y282652D01*
X445996Y283433D01*
X445214Y283955D01*
X444292Y284138D01*
X444168D01*
Y287963D01*
X444342Y288383D01*
X444502Y289600D01*
X444342Y290817D01*
X443872Y291951D01*
X443125Y292925D01*
X442151Y293672D01*
X441017Y294142D01*
X439800Y294302D01*
D02*
G37*
G36*
X453738Y229250D02*
X447368D01*
Y226457D01*
X447503Y225429D01*
X447900Y224471D01*
X448531Y223649D01*
X449353Y223018D01*
X450311Y222621D01*
X451339Y222486D01*
X453738D01*
Y229250D01*
D02*
G37*
G36*
X448950Y308536D02*
X448118Y308454D01*
X446596Y307993D01*
X445194Y307243D01*
X443965Y306235D01*
X442957Y305006D01*
X442207Y303604D01*
X441746Y302082D01*
X441664Y301250D01*
X448950D01*
Y308536D01*
D02*
G37*
G36*
X299850D02*
Y301250D01*
X307136D01*
X307054Y302082D01*
X306593Y303604D01*
X305843Y305006D01*
X304835Y306235D01*
X303606Y307243D01*
X302203Y307993D01*
X300682Y308454D01*
X299850Y308536D01*
D02*
G37*
G36*
X291932Y308850D02*
X285562D01*
Y302086D01*
X287961D01*
X288989Y302221D01*
X289947Y302618D01*
X290649Y303156D01*
X291082Y302974D01*
X291346Y302742D01*
X291146Y302082D01*
X291064Y301250D01*
X298350D01*
Y308536D01*
X297518Y308454D01*
X295996Y307993D01*
X294594Y307243D01*
X293365Y306235D01*
X292632Y305341D01*
X291881Y305667D01*
X291932Y306057D01*
Y308850D01*
D02*
G37*
G36*
X140751D02*
X134381D01*
Y302086D01*
X136780D01*
X137808Y302221D01*
X138766Y302618D01*
X139588Y303249D01*
X140219Y304071D01*
X140616Y305029D01*
X140751Y306057D01*
Y308850D01*
D02*
G37*
G36*
X57444D02*
X51074D01*
Y302086D01*
X53473D01*
X54501Y302221D01*
X55459Y302618D01*
X56281Y303249D01*
X56912Y304071D01*
X57309Y305029D01*
X57444Y306057D01*
Y308850D01*
D02*
G37*
G36*
X450450Y308536D02*
Y301250D01*
X457736D01*
X457654Y302082D01*
X457193Y303604D01*
X456443Y305006D01*
X455435Y306235D01*
X454206Y307243D01*
X452804Y307993D01*
X451282Y308454D01*
X450450Y308536D01*
D02*
G37*
G36*
X587700Y297128D02*
X586427Y297002D01*
X585202Y296631D01*
X584073Y296027D01*
X583084Y295216D01*
X582273Y294227D01*
X581755Y293259D01*
X581622Y293225D01*
X580700Y293408D01*
X559300D01*
X558378Y293225D01*
X557597Y292703D01*
X557075Y291922D01*
X556891Y291000D01*
Y269000D01*
X557075Y268078D01*
X557597Y267297D01*
X558378Y266775D01*
X559300Y266592D01*
X578746D01*
X579215Y265959D01*
X579098Y265574D01*
X578972Y264300D01*
X579004Y263981D01*
X575911Y260889D01*
X575388Y260207D01*
X574978Y260125D01*
X574197Y259603D01*
X573675Y258822D01*
X573491Y257900D01*
Y247500D01*
X573675Y246578D01*
X574197Y245797D01*
X574632Y245506D01*
Y243408D01*
X559300D01*
X558378Y243225D01*
X557597Y242703D01*
X557075Y241922D01*
X556891Y241000D01*
Y219000D01*
X557075Y218078D01*
X557597Y217297D01*
X558378Y216775D01*
X559300Y216592D01*
X580700D01*
X581622Y216775D01*
X582403Y217297D01*
X582925Y218078D01*
X583109Y219000D01*
Y237602D01*
X583219Y237870D01*
X583368Y239000D01*
Y245506D01*
X583803Y245797D01*
X584325Y246578D01*
X584509Y247500D01*
Y257131D01*
X585181Y257804D01*
X585500Y257772D01*
X586773Y257898D01*
X587998Y258269D01*
X589126Y258873D01*
X590116Y259684D01*
X590927Y260673D01*
X591531Y261802D01*
X591902Y263026D01*
X592028Y264300D01*
X591902Y265574D01*
X591531Y266798D01*
X590927Y267927D01*
X590116Y268916D01*
X589126Y269727D01*
X587998Y270331D01*
X586773Y270702D01*
X585500Y270828D01*
X584227Y270702D01*
X583741Y270555D01*
X583109Y271024D01*
Y277332D01*
X586062D01*
X586483Y277158D01*
X587700Y276998D01*
X588917Y277158D01*
X590051Y277628D01*
X591025Y278375D01*
X591772Y279349D01*
X592242Y280483D01*
X592402Y281700D01*
X592242Y282917D01*
X592068Y283337D01*
Y285781D01*
X592316Y285984D01*
X593127Y286974D01*
X593731Y288102D01*
X594102Y289327D01*
X594228Y290600D01*
X594102Y291874D01*
X593731Y293098D01*
X593127Y294227D01*
X592316Y295216D01*
X591327Y296027D01*
X590198Y296631D01*
X588973Y297002D01*
X587700Y297128D01*
D02*
G37*
G36*
X457736Y299750D02*
X450450D01*
Y292464D01*
X451282Y292546D01*
X452804Y293007D01*
X454206Y293757D01*
X455435Y294765D01*
X456443Y295994D01*
X457193Y297396D01*
X457654Y298918D01*
X457736Y299750D01*
D02*
G37*
G36*
X448950D02*
X441664D01*
X441746Y298918D01*
X442207Y297396D01*
X442957Y295994D01*
X443965Y294765D01*
X445194Y293757D01*
X446596Y293007D01*
X448118Y292546D01*
X448950Y292464D01*
Y299750D01*
D02*
G37*
G36*
X150050Y307636D02*
Y300350D01*
X157336D01*
X157254Y301182D01*
X156793Y302703D01*
X156043Y304106D01*
X155035Y305335D01*
X153806Y306343D01*
X152403Y307093D01*
X150882Y307554D01*
X150050Y307636D01*
D02*
G37*
G36*
X148550D02*
X147718Y307554D01*
X146196Y307093D01*
X144794Y306343D01*
X143565Y305335D01*
X142557Y304106D01*
X141807Y302703D01*
X141346Y301182D01*
X141264Y300350D01*
X148550D01*
Y307636D01*
D02*
G37*
G36*
X404400Y297428D02*
X403126Y297302D01*
X401902Y296931D01*
X400773Y296327D01*
X399784Y295516D01*
X398973Y294527D01*
X398814Y294487D01*
X398215Y294887D01*
X397293Y295070D01*
X390207D01*
X389285Y294887D01*
X388504Y294365D01*
X387982Y293583D01*
X387798Y292661D01*
Y292368D01*
X376706D01*
X376172Y292725D01*
X375250Y292909D01*
X374631D01*
X373881Y293219D01*
X372750Y293368D01*
X369419D01*
X369216Y293616D01*
X368227Y294427D01*
X367098Y295031D01*
X365874Y295402D01*
X364600Y295528D01*
X363327Y295402D01*
X362102Y295031D01*
X360974Y294427D01*
X359984Y293616D01*
X359173Y292627D01*
X358569Y291498D01*
X358198Y290273D01*
X358072Y289000D01*
X358198Y287726D01*
X358569Y286502D01*
X359173Y285373D01*
X359984Y284384D01*
X360974Y283573D01*
X362102Y282969D01*
X363327Y282598D01*
X364600Y282472D01*
X365245Y282536D01*
X365603Y281780D01*
X355406Y271583D01*
X354660Y271951D01*
X354714Y272362D01*
Y274762D01*
X347200D01*
X339686D01*
Y272362D01*
X339821Y271334D01*
X340218Y270377D01*
X340849Y269554D01*
X341369Y269156D01*
X341101Y268368D01*
X334656D01*
X334637Y268465D01*
X334115Y269246D01*
X333333Y269768D01*
X332412Y269952D01*
X326112D01*
X325191Y269768D01*
X324409Y269246D01*
X324224Y268969D01*
X323277D01*
X323091Y269246D01*
X322309Y269768D01*
X321388Y269952D01*
X315089D01*
X314167Y269768D01*
X313386Y269246D01*
X312863Y268465D01*
X312680Y267543D01*
Y260457D01*
X312863Y259535D01*
X313386Y258754D01*
X313870Y258430D01*
Y228016D01*
X313278Y227497D01*
X313150Y227514D01*
X310750D01*
Y220000D01*
Y212486D01*
X313150D01*
X314177Y212621D01*
X314844Y212897D01*
X315632Y212486D01*
Y205570D01*
X315147Y205246D01*
X314625Y204465D01*
X314442Y203543D01*
Y196457D01*
X314625Y195535D01*
X315147Y194754D01*
X315929Y194231D01*
X316850Y194048D01*
X321442D01*
X321743Y193321D01*
X318423Y190000D01*
X317729Y189096D01*
X317293Y188042D01*
X317144Y186912D01*
Y186706D01*
X316787Y186172D01*
X316603Y185250D01*
Y182250D01*
X316787Y181328D01*
X316929Y181115D01*
X316204Y180558D01*
X315573Y179736D01*
X315176Y178778D01*
X315041Y177750D01*
Y177000D01*
X321512D01*
Y176250D01*
X322262D01*
Y170779D01*
X324012D01*
X325040Y170914D01*
X325997Y171311D01*
X326820Y171942D01*
X327451Y172765D01*
X327848Y173722D01*
X327983Y174750D01*
Y175171D01*
X328770Y175730D01*
X329512Y175632D01*
X330642Y175781D01*
X331393Y176092D01*
X332012D01*
X332933Y176275D01*
X333715Y176797D01*
X334237Y177578D01*
X334420Y178500D01*
Y178731D01*
X340450Y184760D01*
X341195Y184393D01*
X341144Y184000D01*
X341293Y182870D01*
X341603Y182119D01*
Y181500D01*
X341118Y180909D01*
X340262D01*
X339340Y180725D01*
X338559Y180203D01*
X338037Y179422D01*
X337853Y178500D01*
Y177881D01*
X337543Y177130D01*
X337394Y176000D01*
Y165952D01*
X336850D01*
X335929Y165769D01*
X335147Y165246D01*
X334625Y164465D01*
X334606Y164368D01*
X326418D01*
X326398Y164465D01*
X325876Y165246D01*
X325095Y165769D01*
X324173Y165952D01*
X317874D01*
X316952Y165769D01*
X316171Y165246D01*
X315985Y164969D01*
X315038D01*
X314853Y165246D01*
X314071Y165769D01*
X313768Y165829D01*
Y171362D01*
X313942Y171783D01*
X314102Y173000D01*
X313942Y174217D01*
X313472Y175351D01*
X312725Y176325D01*
X311751Y177072D01*
X310617Y177542D01*
X309400Y177702D01*
X308183Y177542D01*
X307049Y177072D01*
X306075Y176325D01*
X305328Y175351D01*
X304858Y174217D01*
X304698Y173000D01*
X304858Y171783D01*
X305032Y171362D01*
Y165074D01*
X304625Y164465D01*
X304442Y163543D01*
Y157284D01*
X303655Y156812D01*
X303503Y156893D01*
X301982Y157354D01*
X301150Y157436D01*
Y150150D01*
X308436D01*
X308354Y150982D01*
X307893Y152504D01*
X307488Y153261D01*
X307960Y154048D01*
X313150D01*
X314071Y154232D01*
X314853Y154754D01*
X315038Y155032D01*
X315985D01*
X316171Y154754D01*
X316952Y154232D01*
X317874Y154048D01*
X324173D01*
X325095Y154232D01*
X325876Y154754D01*
X326398Y155535D01*
X326418Y155632D01*
X334606D01*
X334625Y155535D01*
X335147Y154754D01*
X335929Y154232D01*
X336850Y154048D01*
X343150D01*
X344071Y154232D01*
X344431Y154472D01*
X344435Y154471D01*
X345066Y153649D01*
X345888Y153018D01*
X346846Y152621D01*
X347874Y152486D01*
X350274D01*
Y160000D01*
Y167514D01*
X347874D01*
X346917Y167388D01*
X346673Y167428D01*
X346130Y167791D01*
Y169173D01*
X346917Y169640D01*
X347762Y169529D01*
X348512D01*
Y176000D01*
X350012D01*
Y169529D01*
X350762D01*
X351789Y169664D01*
X352747Y170061D01*
X353570Y170692D01*
X354201Y171514D01*
X354597Y172472D01*
X354617Y172623D01*
X355449Y172905D01*
X356954Y171399D01*
X357858Y170705D01*
X358912Y170269D01*
X359932Y170135D01*
X360265Y169635D01*
X361047Y169113D01*
X361968Y168930D01*
X369055D01*
X369977Y169113D01*
X370758Y169635D01*
X371280Y170417D01*
X371464Y171339D01*
Y177638D01*
X371280Y178560D01*
X370758Y179341D01*
X370480Y179526D01*
Y180473D01*
X370758Y180659D01*
X371280Y181440D01*
X371464Y182362D01*
Y188661D01*
X371280Y189583D01*
X370758Y190365D01*
X369977Y190887D01*
X369055Y191070D01*
X366131D01*
X363630Y193571D01*
Y194191D01*
X365071Y195632D01*
X376827D01*
X377248Y195458D01*
X378465Y195298D01*
X379682Y195458D01*
X380816Y195928D01*
X381790Y196675D01*
X382537Y197649D01*
X383007Y198783D01*
X383167Y200000D01*
X383007Y201217D01*
X382537Y202351D01*
X381790Y203325D01*
X380816Y204072D01*
X379682Y204542D01*
X378465Y204702D01*
X377248Y204542D01*
X376827Y204368D01*
X363262D01*
X362880Y204318D01*
X362758Y204405D01*
X362361Y205044D01*
X362684Y205822D01*
X362833Y206953D01*
Y209094D01*
X362930Y209114D01*
X363711Y209636D01*
X364233Y210417D01*
X364416Y211339D01*
Y217638D01*
X364233Y218560D01*
X363711Y219341D01*
X363433Y219527D01*
Y220474D01*
X363711Y220659D01*
X364233Y221441D01*
X364416Y222362D01*
Y228239D01*
X370324Y234147D01*
X375217D01*
X376138Y234330D01*
X376920Y234852D01*
X377442Y235633D01*
X377625Y236555D01*
Y243445D01*
X377442Y244367D01*
X377086Y244899D01*
X377369Y245355D01*
X377606Y245538D01*
X378727Y245198D01*
X379200Y245151D01*
X379495Y244528D01*
X379481Y244332D01*
X379304Y243445D01*
Y236555D01*
X379487Y235633D01*
X380010Y234852D01*
X380791Y234330D01*
X381713Y234147D01*
X392146D01*
X393067Y234330D01*
X393849Y234852D01*
X394371Y235633D01*
X394554Y236555D01*
Y243445D01*
X394371Y244367D01*
X393849Y245148D01*
X393067Y245670D01*
X392833Y245717D01*
Y255632D01*
X401891D01*
X405491Y252031D01*
Y247550D01*
X405675Y246628D01*
X406197Y245847D01*
X406978Y245325D01*
X407900Y245142D01*
X414100D01*
X415022Y245325D01*
X415803Y245847D01*
X416325Y246628D01*
X416508Y247550D01*
Y257850D01*
X416325Y258772D01*
X415803Y259553D01*
X415022Y260075D01*
X414100Y260259D01*
X409619D01*
X406789Y263089D01*
X405884Y263783D01*
X404831Y264219D01*
X403700Y264368D01*
X398367D01*
X397974Y264955D01*
X397974Y265156D01*
X398118Y266250D01*
Y273094D01*
X398215Y273113D01*
X398996Y273636D01*
X399518Y274417D01*
X399702Y275339D01*
Y281638D01*
X399518Y282559D01*
X398996Y283341D01*
X398719Y283526D01*
Y284473D01*
X398996Y284659D01*
X399518Y285440D01*
X399526Y285478D01*
X400390Y285787D01*
X400773Y285473D01*
X401902Y284869D01*
X403126Y284498D01*
X404400Y284372D01*
X405674Y284498D01*
X406259Y284676D01*
X406891Y284207D01*
Y269000D01*
X407075Y268078D01*
X407597Y267297D01*
X408378Y266775D01*
X409300Y266592D01*
X430700D01*
X431622Y266775D01*
X432403Y267297D01*
X432925Y268078D01*
X433109Y269000D01*
Y291000D01*
X432925Y291922D01*
X432403Y292703D01*
X431622Y293225D01*
X430700Y293408D01*
X412769D01*
X411089Y295089D01*
X410184Y295783D01*
X409130Y296219D01*
X408000Y296368D01*
X407950D01*
X406898Y296931D01*
X405674Y297302D01*
X404400Y297428D01*
D02*
G37*
G36*
X448450Y157436D02*
X447618Y157354D01*
X446097Y156893D01*
X444694Y156143D01*
X443465Y155135D01*
X442457Y153906D01*
X441707Y152504D01*
X441246Y150982D01*
X441164Y150150D01*
X448450D01*
Y157436D01*
D02*
G37*
G36*
X299650D02*
X298818Y157354D01*
X297297Y156893D01*
X295894Y156143D01*
X294665Y155135D01*
X293657Y153906D01*
X292907Y152504D01*
X292446Y150982D01*
X292364Y150150D01*
X299650D01*
Y157436D01*
D02*
G37*
G36*
X157836Y149150D02*
X150550D01*
Y141864D01*
X151382Y141946D01*
X152903Y142407D01*
X154306Y143157D01*
X155535Y144165D01*
X156543Y145394D01*
X157293Y146797D01*
X157754Y148318D01*
X157836Y149150D01*
D02*
G37*
G36*
X150550Y157936D02*
Y150650D01*
X157836D01*
X157754Y151482D01*
X157293Y153004D01*
X156543Y154406D01*
X155535Y155635D01*
X154306Y156643D01*
X152903Y157393D01*
X151382Y157854D01*
X150550Y157936D01*
D02*
G37*
G36*
X149050D02*
X148218Y157854D01*
X146696Y157393D01*
X145294Y156643D01*
X144065Y155635D01*
X143057Y154406D01*
X142307Y153004D01*
X141846Y151482D01*
X141764Y150650D01*
X149050D01*
Y157936D01*
D02*
G37*
G36*
X449950Y157436D02*
Y150150D01*
X457236D01*
X457154Y150982D01*
X456693Y152504D01*
X455943Y153906D01*
X454935Y155135D01*
X453706Y156143D01*
X452304Y156893D01*
X450782Y157354D01*
X449950Y157436D01*
D02*
G37*
G36*
X308436Y148650D02*
X301150D01*
Y141364D01*
X301982Y141446D01*
X303503Y141907D01*
X304906Y142657D01*
X306135Y143665D01*
X307143Y144894D01*
X307893Y146297D01*
X308354Y147818D01*
X308436Y148650D01*
D02*
G37*
G36*
X299650D02*
X292364D01*
X292446Y147818D01*
X292907Y146297D01*
X293657Y144894D01*
X294665Y143665D01*
X295894Y142657D01*
X297297Y141907D01*
X298818Y141446D01*
X299650Y141364D01*
Y148650D01*
D02*
G37*
G36*
X590362Y128770D02*
X457638D01*
Y47638D01*
X590362D01*
Y128770D01*
D02*
G37*
G36*
X149050Y149150D02*
X141764D01*
X141846Y148318D01*
X142307Y146797D01*
X143057Y145394D01*
X144065Y144165D01*
X145294Y143157D01*
X146696Y142407D01*
X148218Y141946D01*
X149050Y141864D01*
Y149150D01*
D02*
G37*
G36*
X457236Y148650D02*
X449950D01*
Y141364D01*
X450782Y141446D01*
X452304Y141907D01*
X453706Y142657D01*
X454935Y143665D01*
X455943Y144894D01*
X456693Y146297D01*
X457154Y147818D01*
X457236Y148650D01*
D02*
G37*
G36*
X448450D02*
X441164D01*
X441246Y147818D01*
X441707Y146297D01*
X442457Y144894D01*
X443465Y143665D01*
X444694Y142657D01*
X446097Y141907D01*
X447618Y141446D01*
X448450Y141364D01*
Y148650D01*
D02*
G37*
G36*
X414100Y210259D02*
X407900D01*
X406978Y210075D01*
X406197Y209553D01*
X405675Y208772D01*
X405491Y207850D01*
Y197550D01*
X405675Y196628D01*
X406197Y195847D01*
X406978Y195325D01*
X407900Y195141D01*
X412381D01*
X414451Y193072D01*
Y184000D01*
X414465Y183895D01*
X413719Y183527D01*
X406857Y190389D01*
X405953Y191083D01*
X404899Y191519D01*
X403769Y191668D01*
X400756D01*
X400222Y192025D01*
X399300Y192209D01*
X396300D01*
X395378Y192025D01*
X394597Y191503D01*
X394075Y190722D01*
X393891Y189800D01*
Y189181D01*
X393581Y188431D01*
X393432Y187300D01*
X393581Y186170D01*
X393891Y185419D01*
Y184800D01*
X393406Y184209D01*
X392550D01*
X391628Y184025D01*
X390847Y183503D01*
X390325Y182722D01*
X390141Y181800D01*
Y180775D01*
X389831Y180025D01*
X389682Y178894D01*
Y171750D01*
X389831Y170619D01*
X390267Y169566D01*
X390961Y168661D01*
X392883Y166739D01*
X392557Y165952D01*
X390158D01*
X389236Y165769D01*
X388454Y165246D01*
X387932Y164465D01*
X387913Y164368D01*
X381638D01*
X381217Y164542D01*
X380000Y164702D01*
X378783Y164542D01*
X377649Y164072D01*
X376675Y163325D01*
X375928Y162351D01*
X375458Y161217D01*
X375298Y160000D01*
X375458Y158783D01*
X375928Y157649D01*
X376675Y156675D01*
X377649Y155928D01*
X378783Y155458D01*
X380000Y155298D01*
X381217Y155458D01*
X381638Y155632D01*
X387913D01*
X387932Y155535D01*
X388454Y154754D01*
X389236Y154232D01*
X390158Y154048D01*
X396457D01*
X397378Y154232D01*
X398160Y154754D01*
X398345Y155032D01*
X399292D01*
X399478Y154754D01*
X400259Y154232D01*
X401181Y154048D01*
X407480D01*
X408402Y154232D01*
X409183Y154754D01*
X409705Y155535D01*
X409725Y155632D01*
X417913D01*
X417932Y155535D01*
X418454Y154754D01*
X419236Y154232D01*
X420157Y154048D01*
X426457D01*
X427378Y154232D01*
X427739Y154472D01*
X427742Y154471D01*
X428373Y153649D01*
X429196Y153018D01*
X430153Y152621D01*
X431181Y152486D01*
X433581D01*
Y160000D01*
X434331D01*
Y160750D01*
X441451D01*
Y163543D01*
X441316Y164571D01*
X440919Y165529D01*
X440288Y166351D01*
X439466Y166982D01*
X438856Y167235D01*
X438615Y168106D01*
X439438Y168930D01*
X442362D01*
X443284Y169113D01*
X444065Y169635D01*
X444587Y170417D01*
X444771Y171339D01*
Y177638D01*
X444587Y178560D01*
X444065Y179341D01*
X443787Y179526D01*
Y180473D01*
X444065Y180659D01*
X444587Y181440D01*
X444771Y182362D01*
Y188661D01*
X444587Y189583D01*
X444065Y190365D01*
X444052Y190455D01*
X444246Y190692D01*
X444849Y191821D01*
X445221Y193045D01*
X445346Y194319D01*
X445221Y195592D01*
X444849Y196817D01*
X444246Y197945D01*
X443434Y198934D01*
X442445Y199746D01*
X441317Y200349D01*
X440092Y200721D01*
X438819Y200846D01*
X437545Y200721D01*
X436858Y200513D01*
X436071Y201085D01*
Y201950D01*
X429750D01*
Y193529D01*
X432100D01*
X432392Y193297D01*
X432417Y193045D01*
X432788Y191821D01*
X433392Y190692D01*
X433496Y190565D01*
X433064Y189880D01*
X432081D01*
X430950Y189731D01*
X429897Y189295D01*
X428992Y188601D01*
X423919Y183527D01*
X423173Y183895D01*
X423187Y184000D01*
Y193729D01*
X423893Y194078D01*
X423914Y194061D01*
X424872Y193664D01*
X425900Y193529D01*
X428250D01*
Y201950D01*
X421929D01*
Y199062D01*
X421142Y198736D01*
X416508Y203369D01*
Y207850D01*
X416325Y208772D01*
X415803Y209553D01*
X415022Y210075D01*
X414100Y210259D01*
D02*
G37*
G36*
X465250Y185500D02*
X459529D01*
Y184750D01*
X459664Y183722D01*
X460061Y182765D01*
X460692Y181942D01*
X461515Y181311D01*
X462472Y180914D01*
X463500Y180779D01*
X465250D01*
Y185500D01*
D02*
G37*
G36*
X320762Y175500D02*
X315041D01*
Y174750D01*
X315176Y173722D01*
X315573Y172765D01*
X316204Y171942D01*
X317026Y171311D01*
X317984Y170914D01*
X319012Y170779D01*
X320762D01*
Y175500D01*
D02*
G37*
G36*
X432100Y211871D02*
X429750D01*
Y203450D01*
X436071D01*
Y207900D01*
X435936Y208928D01*
X435539Y209886D01*
X434908Y210708D01*
X434086Y211339D01*
X433128Y211736D01*
X432100Y211871D01*
D02*
G37*
G36*
X428250D02*
X425900D01*
X424872Y211736D01*
X423914Y211339D01*
X423092Y210708D01*
X422461Y209886D01*
X422064Y208928D01*
X421929Y207900D01*
Y203450D01*
X428250D01*
Y211871D01*
D02*
G37*
G36*
X582100D02*
X579750D01*
Y202700D01*
Y193529D01*
X582100D01*
X583128Y193664D01*
X584086Y194061D01*
X584908Y194692D01*
X585539Y195515D01*
X585574Y195599D01*
X585597Y195607D01*
X587118Y195146D01*
X587950Y195064D01*
Y203100D01*
Y211136D01*
X587118Y211054D01*
X585597Y210593D01*
X585171Y210365D01*
X584908Y210708D01*
X584086Y211339D01*
X583128Y211736D01*
X582100Y211871D01*
D02*
G37*
G36*
X512632Y159250D02*
X506262D01*
Y152486D01*
X508661D01*
X509689Y152621D01*
X510647Y153018D01*
X511469Y153649D01*
X512100Y154471D01*
X512497Y155429D01*
X512632Y156457D01*
Y159250D01*
D02*
G37*
G36*
X441451D02*
X435081D01*
Y152486D01*
X437480D01*
X438508Y152621D01*
X439466Y153018D01*
X440288Y153649D01*
X440919Y154471D01*
X441316Y155429D01*
X441451Y156457D01*
Y159250D01*
D02*
G37*
G36*
X358144D02*
X351774D01*
Y152486D01*
X354173D01*
X355201Y152621D01*
X356159Y153018D01*
X356981Y153649D01*
X357612Y154471D01*
X358009Y155429D01*
X358144Y156457D01*
Y159250D01*
D02*
G37*
G36*
X508661Y167514D02*
X506262D01*
Y160750D01*
X512632D01*
Y163543D01*
X512497Y164571D01*
X512100Y165529D01*
X511469Y166351D01*
X510647Y166982D01*
X509689Y167379D01*
X508661Y167514D01*
D02*
G37*
G36*
X354173D02*
X351774D01*
Y160750D01*
X358144D01*
Y163543D01*
X358009Y164571D01*
X357612Y165529D01*
X356981Y166351D01*
X356159Y166982D01*
X355201Y167379D01*
X354173Y167514D01*
D02*
G37*
G36*
X592632Y159250D02*
X586262D01*
Y152486D01*
X588661D01*
X589689Y152621D01*
X590647Y153018D01*
X591469Y153649D01*
X592100Y154471D01*
X592497Y155429D01*
X592632Y156457D01*
Y159250D01*
D02*
G37*
G36*
X211932Y308850D02*
X205562D01*
Y302086D01*
X207961D01*
X208989Y302221D01*
X209947Y302618D01*
X210769Y303249D01*
X211400Y304071D01*
X211797Y305029D01*
X211932Y306057D01*
Y308850D01*
D02*
G37*
G36*
X320762Y475500D02*
X315041D01*
Y474750D01*
X315176Y473722D01*
X315573Y472765D01*
X316204Y471942D01*
X317026Y471311D01*
X317984Y470914D01*
X319012Y470779D01*
X320762D01*
Y475500D01*
D02*
G37*
G36*
X508661Y467514D02*
X506262D01*
Y460750D01*
X512632D01*
Y463543D01*
X512497Y464571D01*
X512100Y465529D01*
X511469Y466351D01*
X510647Y466982D01*
X509689Y467379D01*
X508661Y467514D01*
D02*
G37*
G36*
X354173D02*
X351774D01*
Y460750D01*
X358144D01*
Y463543D01*
X358009Y464571D01*
X357612Y465529D01*
X356981Y466351D01*
X356159Y466982D01*
X355201Y467379D01*
X354173Y467514D01*
D02*
G37*
G36*
X582100Y511871D02*
X579750D01*
Y502700D01*
Y493529D01*
X582100D01*
X583128Y493664D01*
X584086Y494061D01*
X584908Y494692D01*
X585539Y495514D01*
X585574Y495599D01*
X585597Y495607D01*
X587118Y495146D01*
X587950Y495064D01*
Y503100D01*
Y511136D01*
X587118Y511054D01*
X585597Y510593D01*
X585171Y510365D01*
X584908Y510708D01*
X584086Y511339D01*
X583128Y511736D01*
X582100Y511871D01*
D02*
G37*
G36*
X414100Y510258D02*
X407900D01*
X406978Y510075D01*
X406197Y509553D01*
X405675Y508772D01*
X405491Y507850D01*
Y497550D01*
X405675Y496628D01*
X406197Y495847D01*
X406978Y495325D01*
X407900Y495142D01*
X412381D01*
X414451Y493072D01*
Y484000D01*
X414465Y483895D01*
X413719Y483527D01*
X406857Y490389D01*
X405953Y491083D01*
X404899Y491519D01*
X403769Y491668D01*
X400756D01*
X400222Y492025D01*
X399300Y492208D01*
X396300D01*
X395378Y492025D01*
X394597Y491503D01*
X394075Y490722D01*
X393891Y489800D01*
Y489181D01*
X393581Y488431D01*
X393432Y487300D01*
X393581Y486169D01*
X393891Y485419D01*
Y484800D01*
X393406Y484208D01*
X392550D01*
X391628Y484025D01*
X390847Y483503D01*
X390325Y482722D01*
X390141Y481800D01*
Y480775D01*
X389831Y480025D01*
X389682Y478895D01*
Y471750D01*
X389831Y470619D01*
X390267Y469566D01*
X390961Y468661D01*
X392883Y466739D01*
X392557Y465952D01*
X390158D01*
X389236Y465768D01*
X388454Y465246D01*
X387932Y464465D01*
X387913Y464368D01*
X381638D01*
X381217Y464542D01*
X380000Y464702D01*
X378783Y464542D01*
X377649Y464072D01*
X376675Y463325D01*
X375928Y462351D01*
X375458Y461217D01*
X375298Y460000D01*
X375458Y458783D01*
X375928Y457649D01*
X376675Y456675D01*
X377649Y455928D01*
X378783Y455458D01*
X380000Y455298D01*
X381217Y455458D01*
X381638Y455632D01*
X387913D01*
X387932Y455535D01*
X388454Y454754D01*
X389236Y454232D01*
X390158Y454048D01*
X396457D01*
X397378Y454232D01*
X398160Y454754D01*
X398345Y455031D01*
X399292D01*
X399478Y454754D01*
X400259Y454232D01*
X401181Y454048D01*
X407480D01*
X408402Y454232D01*
X409183Y454754D01*
X409705Y455535D01*
X409725Y455632D01*
X417913D01*
X417932Y455535D01*
X418454Y454754D01*
X419236Y454232D01*
X420157Y454048D01*
X426457D01*
X427378Y454232D01*
X427739Y454472D01*
X427742Y454471D01*
X428373Y453649D01*
X429196Y453018D01*
X430153Y452621D01*
X431181Y452486D01*
X433581D01*
Y460000D01*
X434331D01*
Y460750D01*
X441451D01*
Y463543D01*
X441316Y464571D01*
X440919Y465529D01*
X440288Y466351D01*
X439466Y466982D01*
X438856Y467235D01*
X438615Y468106D01*
X439438Y468930D01*
X442362D01*
X443284Y469113D01*
X444065Y469635D01*
X444587Y470417D01*
X444771Y471339D01*
Y477638D01*
X444587Y478559D01*
X444065Y479341D01*
X443787Y479527D01*
Y480474D01*
X444065Y480659D01*
X444587Y481440D01*
X444771Y482362D01*
Y488661D01*
X444587Y489583D01*
X444065Y490365D01*
X444052Y490455D01*
X444246Y490692D01*
X444849Y491821D01*
X445221Y493045D01*
X445346Y494319D01*
X445221Y495592D01*
X444849Y496817D01*
X444246Y497945D01*
X443434Y498935D01*
X442445Y499746D01*
X441317Y500350D01*
X440092Y500721D01*
X438819Y500846D01*
X437545Y500721D01*
X436858Y500513D01*
X436071Y501086D01*
Y501950D01*
X429750D01*
Y493529D01*
X432100D01*
X432392Y493297D01*
X432417Y493045D01*
X432788Y491821D01*
X433392Y490692D01*
X433496Y490565D01*
X433064Y489880D01*
X432081D01*
X430950Y489731D01*
X429897Y489295D01*
X428992Y488600D01*
X423919Y483527D01*
X423173Y483895D01*
X423187Y484000D01*
Y493729D01*
X423893Y494077D01*
X423914Y494061D01*
X424872Y493664D01*
X425900Y493529D01*
X428250D01*
Y501950D01*
X421929D01*
Y499062D01*
X421142Y498736D01*
X416508Y503369D01*
Y507850D01*
X416325Y508772D01*
X415803Y509553D01*
X415022Y510075D01*
X414100Y510258D01*
D02*
G37*
G36*
X465250Y485500D02*
X459529D01*
Y484750D01*
X459664Y483722D01*
X460061Y482765D01*
X460692Y481942D01*
X461515Y481311D01*
X462472Y480914D01*
X463500Y480779D01*
X465250D01*
Y485500D01*
D02*
G37*
G36*
X358144Y459250D02*
X351774D01*
Y452486D01*
X354173D01*
X355201Y452621D01*
X356159Y453018D01*
X356981Y453649D01*
X357612Y454471D01*
X358009Y455429D01*
X358144Y456457D01*
Y459250D01*
D02*
G37*
G36*
X450750Y458036D02*
Y450750D01*
X458036D01*
X457954Y451582D01*
X457493Y453103D01*
X456743Y454506D01*
X455735Y455735D01*
X454506Y456743D01*
X453103Y457493D01*
X451582Y457954D01*
X450750Y458036D01*
D02*
G37*
G36*
X449250D02*
X448418Y457954D01*
X446897Y457493D01*
X445494Y456743D01*
X444265Y455735D01*
X443257Y454506D01*
X442507Y453103D01*
X442046Y451582D01*
X441964Y450750D01*
X449250D01*
Y458036D01*
D02*
G37*
G36*
X592632Y459250D02*
X586262D01*
Y452486D01*
X588661D01*
X589689Y452621D01*
X590647Y453018D01*
X591469Y453649D01*
X592100Y454471D01*
X592497Y455429D01*
X592632Y456457D01*
Y459250D01*
D02*
G37*
G36*
X512632D02*
X506262D01*
Y452486D01*
X508661D01*
X509689Y452621D01*
X510647Y453018D01*
X511469Y453649D01*
X512100Y454471D01*
X512497Y455429D01*
X512632Y456457D01*
Y459250D01*
D02*
G37*
G36*
X441451D02*
X435081D01*
Y452486D01*
X437480D01*
X438508Y452621D01*
X439466Y453018D01*
X440288Y453649D01*
X440919Y454471D01*
X441316Y455429D01*
X441451Y456457D01*
Y459250D01*
D02*
G37*
G36*
X439800Y594302D02*
X438583Y594142D01*
X437449Y593672D01*
X436475Y592925D01*
X435728Y591951D01*
X435258Y590817D01*
X435098Y589600D01*
X435258Y588383D01*
X435432Y587962D01*
Y583912D01*
X434715Y583433D01*
X434193Y582652D01*
X434010Y581730D01*
Y560470D01*
X434023Y560403D01*
X433315Y559929D01*
X433022Y560125D01*
X432100Y560309D01*
X425900D01*
X424978Y560125D01*
X424197Y559603D01*
X423675Y558822D01*
X423491Y557900D01*
Y547500D01*
X423675Y546578D01*
X424197Y545797D01*
X424632Y545506D01*
Y543408D01*
X409300D01*
X408378Y543225D01*
X407597Y542703D01*
X407075Y541922D01*
X406891Y541000D01*
Y534368D01*
X399200D01*
X398070Y534219D01*
X397016Y533783D01*
X397009Y533777D01*
X396500Y533827D01*
X395227Y533702D01*
X394002Y533331D01*
X392874Y532727D01*
X391884Y531916D01*
X391073Y530927D01*
X390469Y529798D01*
X390098Y528573D01*
X389972Y527300D01*
X390098Y526027D01*
X390469Y524802D01*
X391073Y523673D01*
X391884Y522684D01*
X392874Y521873D01*
X394002Y521269D01*
X395227Y520898D01*
X396500Y520773D01*
X397774Y520898D01*
X398998Y521269D01*
X400127Y521873D01*
X401116Y522684D01*
X401927Y523673D01*
X402531Y524802D01*
X402782Y525632D01*
X406891D01*
Y519000D01*
X407075Y518078D01*
X407597Y517297D01*
X408378Y516775D01*
X409300Y516592D01*
X430700D01*
X431622Y516775D01*
X432403Y517297D01*
X432925Y518078D01*
X433109Y519000D01*
Y537140D01*
X433222Y537260D01*
X433953Y536991D01*
X434014Y536950D01*
X434193Y536048D01*
X434715Y535267D01*
X435497Y534745D01*
X436418Y534562D01*
X444292D01*
X445214Y534745D01*
X445996Y535267D01*
X446518Y536048D01*
X446701Y536970D01*
Y558230D01*
X446518Y559152D01*
X446385Y559350D01*
X446518Y559548D01*
X446701Y560470D01*
Y581730D01*
X446518Y582652D01*
X445996Y583433D01*
X445214Y583955D01*
X444292Y584138D01*
X444168D01*
Y587962D01*
X444342Y588383D01*
X444502Y589600D01*
X444342Y590817D01*
X443872Y591951D01*
X443125Y592925D01*
X442151Y593672D01*
X441017Y594142D01*
X439800Y594302D01*
D02*
G37*
G36*
X20000Y558308D02*
X18379Y558148D01*
X16821Y557675D01*
X15384Y556908D01*
X14126Y555874D01*
X13092Y554615D01*
X12325Y553179D01*
X11852Y551621D01*
X11692Y550000D01*
X11852Y548379D01*
X12325Y546821D01*
X13092Y545385D01*
X14126Y544126D01*
X15384Y543092D01*
X16821Y542325D01*
X18379Y541852D01*
X20000Y541692D01*
X21621Y541852D01*
X23179Y542325D01*
X24615Y543092D01*
X25874Y544126D01*
X26908Y545385D01*
X27675Y546821D01*
X28148Y548379D01*
X28308Y550000D01*
X28148Y551621D01*
X27675Y553179D01*
X26908Y554615D01*
X25874Y555874D01*
X24615Y556908D01*
X23179Y557675D01*
X21621Y558148D01*
X20000Y558308D01*
D02*
G37*
G36*
X23750Y536530D02*
X23031Y536435D01*
X22360Y536157D01*
X21784Y535715D01*
X20000Y533931D01*
X18215Y535715D01*
X17640Y536157D01*
X16969Y536435D01*
X16250Y536530D01*
X15531Y536435D01*
X14860Y536157D01*
X14285Y535715D01*
X13843Y535140D01*
X13565Y534469D01*
X13470Y533750D01*
X13565Y533031D01*
X13843Y532360D01*
X14285Y531784D01*
X16069Y530000D01*
X14285Y528216D01*
X13843Y527640D01*
X13565Y526969D01*
X13470Y526250D01*
X13565Y525531D01*
X13843Y524860D01*
X14285Y524285D01*
X14860Y523843D01*
X15531Y523565D01*
X16250Y523470D01*
X16969Y523565D01*
X17640Y523843D01*
X18215Y524285D01*
X20000Y526069D01*
X21784Y524285D01*
X22360Y523843D01*
X23031Y523565D01*
X23750Y523470D01*
X24469Y523565D01*
X25140Y523843D01*
X25716Y524285D01*
X26157Y524860D01*
X26435Y525531D01*
X26530Y526250D01*
X26435Y526969D01*
X26157Y527640D01*
X25716Y528216D01*
X23931Y530000D01*
X25716Y531784D01*
X26157Y532360D01*
X26435Y533031D01*
X26530Y533750D01*
X26435Y534469D01*
X26157Y535140D01*
X25716Y535715D01*
X25140Y536157D01*
X24469Y536435D01*
X23750Y536530D01*
D02*
G37*
G36*
X350743Y582632D02*
X347950D01*
Y576262D01*
X354714D01*
Y578661D01*
X354579Y579689D01*
X354182Y580647D01*
X353551Y581469D01*
X352729Y582100D01*
X351771Y582497D01*
X350743Y582632D01*
D02*
G37*
G36*
X346450D02*
X343657D01*
X342629Y582497D01*
X341671Y582100D01*
X340849Y581469D01*
X340218Y580647D01*
X339821Y579689D01*
X339686Y578661D01*
Y576262D01*
X346450D01*
Y582632D01*
D02*
G37*
G36*
X578250Y511871D02*
X575900D01*
X574872Y511736D01*
X573914Y511339D01*
X573092Y510708D01*
X572461Y509886D01*
X572064Y508928D01*
X571929Y507900D01*
Y503450D01*
X578250D01*
Y511871D01*
D02*
G37*
G36*
X432100D02*
X429750D01*
Y503450D01*
X436071D01*
Y507900D01*
X435936Y508928D01*
X435539Y509886D01*
X434908Y510708D01*
X434086Y511339D01*
X433128Y511736D01*
X432100Y511871D01*
D02*
G37*
G36*
X428250D02*
X425900D01*
X424872Y511736D01*
X423914Y511339D01*
X423092Y510708D01*
X422461Y509886D01*
X422064Y508928D01*
X421929Y507900D01*
Y503450D01*
X428250D01*
Y511871D01*
D02*
G37*
G36*
X453738Y529250D02*
X447368D01*
Y526457D01*
X447503Y525429D01*
X447900Y524471D01*
X448531Y523649D01*
X449353Y523018D01*
X450311Y522621D01*
X451339Y522486D01*
X453738D01*
Y529250D01*
D02*
G37*
G36*
X309250Y527514D02*
X306850D01*
X305823Y527379D01*
X304865Y526982D01*
X304043Y526351D01*
X303411Y525529D01*
X303015Y524571D01*
X302879Y523543D01*
Y520750D01*
X309250D01*
Y527514D01*
D02*
G37*
G36*
Y519250D02*
X302879D01*
Y516457D01*
X303015Y515429D01*
X303411Y514471D01*
X304043Y513649D01*
X304865Y513018D01*
X305823Y512621D01*
X306850Y512486D01*
X309250D01*
Y519250D01*
D02*
G37*
G36*
X131400Y361471D02*
X129050D01*
Y353050D01*
X135371D01*
Y357500D01*
X135236Y358528D01*
X134839Y359486D01*
X134208Y360308D01*
X133386Y360939D01*
X132428Y361336D01*
X131400Y361471D01*
D02*
G37*
G36*
X127550D02*
X125200D01*
X124172Y361336D01*
X123214Y360939D01*
X122392Y360308D01*
X121761Y359486D01*
X121364Y358528D01*
X121229Y357500D01*
Y353050D01*
X127550D01*
Y361471D01*
D02*
G37*
G36*
X296036Y351950D02*
X288750D01*
Y344664D01*
X289582Y344746D01*
X291104Y345207D01*
X292506Y345957D01*
X293735Y346965D01*
X294743Y348194D01*
X295493Y349597D01*
X295954Y351118D01*
X296036Y351950D01*
D02*
G37*
G36*
X153038Y378850D02*
X146668D01*
Y376057D01*
X146803Y375029D01*
X147200Y374071D01*
X147831Y373249D01*
X148653Y372618D01*
X149611Y372221D01*
X150639Y372086D01*
X153038D01*
Y378850D01*
D02*
G37*
G36*
X288750Y360736D02*
Y353450D01*
X296036D01*
X295954Y354282D01*
X295493Y355803D01*
X294743Y357206D01*
X293735Y358435D01*
X292506Y359443D01*
X291104Y360193D01*
X289582Y360654D01*
X288750Y360736D01*
D02*
G37*
G36*
X277550Y361471D02*
X275200D01*
X274172Y361336D01*
X273215Y360939D01*
X272392Y360308D01*
X271761Y359486D01*
X271364Y358528D01*
X271229Y357500D01*
Y353050D01*
X277550D01*
Y361471D01*
D02*
G37*
G36*
X164550Y335100D02*
X158829D01*
Y334350D01*
X158964Y333322D01*
X159361Y332365D01*
X159992Y331542D01*
X160814Y330911D01*
X161772Y330514D01*
X162800Y330379D01*
X164550D01*
Y335100D01*
D02*
G37*
G36*
X207961Y317114D02*
X205562D01*
Y310350D01*
X211932D01*
Y313143D01*
X211797Y314171D01*
X211400Y315129D01*
X210769Y315951D01*
X209947Y316582D01*
X208989Y316979D01*
X207961Y317114D01*
D02*
G37*
G36*
X53473D02*
X51074D01*
Y310350D01*
X57444D01*
Y313143D01*
X57309Y314171D01*
X56912Y315129D01*
X56281Y315951D01*
X55459Y316582D01*
X54501Y316979D01*
X53473Y317114D01*
D02*
G37*
G36*
X281400Y361471D02*
X279050D01*
Y352300D01*
Y343129D01*
X281400D01*
X282428Y343264D01*
X283385Y343661D01*
X284208Y344292D01*
X284839Y345114D01*
X284874Y345199D01*
X284896Y345207D01*
X286418Y344746D01*
X287250Y344664D01*
Y352700D01*
Y360736D01*
X286418Y360654D01*
X284896Y360193D01*
X284471Y359965D01*
X284208Y360308D01*
X283385Y360939D01*
X282428Y361336D01*
X281400Y361471D01*
D02*
G37*
G36*
X263400Y359858D02*
X257200D01*
X256278Y359675D01*
X255497Y359153D01*
X254975Y358372D01*
X254791Y357450D01*
Y347150D01*
X254975Y346228D01*
X255497Y345447D01*
X256278Y344925D01*
X257200Y344742D01*
X261681D01*
X264932Y341491D01*
Y334459D01*
X264144Y334133D01*
X257089Y341189D01*
X256184Y341883D01*
X255131Y342319D01*
X254000Y342468D01*
X246256D01*
X245722Y342825D01*
X244800Y343008D01*
X241800D01*
X240878Y342825D01*
X240097Y342303D01*
X239575Y341522D01*
X239391Y340600D01*
Y339981D01*
X239081Y339230D01*
X238932Y338100D01*
X239081Y336969D01*
X239391Y336219D01*
Y335600D01*
X238906Y335009D01*
X238050D01*
X237128Y334825D01*
X236347Y334303D01*
X235825Y333522D01*
X235641Y332600D01*
Y331981D01*
X235331Y331230D01*
X235182Y330100D01*
Y325629D01*
X235331Y324499D01*
X235767Y323445D01*
X236461Y322541D01*
X237366Y321846D01*
X238419Y321410D01*
X238676Y321376D01*
X243773Y316279D01*
X243471Y315552D01*
X240639D01*
X239717Y315368D01*
X238935Y314846D01*
X238413Y314065D01*
X238394Y313968D01*
X230938D01*
X230517Y314142D01*
X229300Y314302D01*
X228083Y314142D01*
X226949Y313672D01*
X225975Y312925D01*
X225228Y311951D01*
X224758Y310817D01*
X224598Y309600D01*
X224758Y308383D01*
X225228Y307249D01*
X225975Y306275D01*
X226949Y305528D01*
X228083Y305058D01*
X229300Y304898D01*
X230517Y305058D01*
X230938Y305232D01*
X238394D01*
X238413Y305135D01*
X238935Y304354D01*
X239717Y303832D01*
X240639Y303648D01*
X246938D01*
X247860Y303832D01*
X248641Y304354D01*
X248827Y304631D01*
X249774D01*
X249959Y304354D01*
X250741Y303832D01*
X251662Y303648D01*
X257961D01*
X258883Y303832D01*
X259665Y304354D01*
X260187Y305135D01*
X260206Y305232D01*
X268394D01*
X268413Y305135D01*
X268935Y304354D01*
X269717Y303832D01*
X270639Y303648D01*
X276938D01*
X277859Y303832D01*
X278220Y304072D01*
X278223Y304071D01*
X278854Y303249D01*
X279677Y302618D01*
X280634Y302221D01*
X281662Y302086D01*
X284062D01*
Y309600D01*
X284812D01*
Y310350D01*
X291932D01*
Y313143D01*
X291797Y314171D01*
X291400Y315129D01*
X290769Y315951D01*
X289947Y316582D01*
X289337Y316835D01*
X289096Y317706D01*
X289919Y318530D01*
X292843D01*
X293765Y318713D01*
X294546Y319235D01*
X295068Y320017D01*
X295252Y320939D01*
Y327238D01*
X295068Y328159D01*
X294546Y328941D01*
X294268Y329127D01*
Y330073D01*
X294546Y330259D01*
X295068Y331041D01*
X295252Y331962D01*
Y338261D01*
X295068Y339183D01*
X294546Y339965D01*
X293765Y340487D01*
X292843Y340670D01*
X285757D01*
X284835Y340487D01*
X284054Y339965D01*
X283730Y339480D01*
X282831D01*
X282627Y339727D01*
X281638Y340539D01*
X280510Y341142D01*
X279285Y341514D01*
X278012Y341639D01*
X276738Y341514D01*
X275514Y341142D01*
X274455Y340577D01*
X274009Y340710D01*
X273668Y340871D01*
Y342621D01*
X273819Y342813D01*
X274455Y343227D01*
X275200Y343129D01*
X277550D01*
Y351550D01*
X271229D01*
Y348577D01*
X270501Y348276D01*
X265809Y352969D01*
Y357450D01*
X265625Y358372D01*
X265103Y359153D01*
X264322Y359675D01*
X263400Y359858D01*
D02*
G37*
G36*
X113400D02*
X107200D01*
X106278Y359675D01*
X105497Y359153D01*
X104975Y358372D01*
X104791Y357450D01*
Y347150D01*
X104975Y346228D01*
X105497Y345447D01*
X106278Y344925D01*
X107200Y344742D01*
X111681D01*
X113751Y342672D01*
Y333600D01*
X113765Y333495D01*
X113019Y333127D01*
X106158Y339989D01*
X105253Y340683D01*
X104199Y341119D01*
X103069Y341268D01*
X100056D01*
X99522Y341625D01*
X98600Y341809D01*
X95600D01*
X94678Y341625D01*
X93897Y341103D01*
X93375Y340322D01*
X93191Y339400D01*
Y338781D01*
X92881Y338031D01*
X92732Y336900D01*
X92881Y335770D01*
X93191Y335019D01*
Y334400D01*
X92706Y333808D01*
X91850D01*
X90928Y333625D01*
X90147Y333103D01*
X89625Y332322D01*
X89441Y331400D01*
Y330375D01*
X89131Y329625D01*
X88982Y328495D01*
Y321350D01*
X89131Y320219D01*
X89567Y319166D01*
X90261Y318261D01*
X92183Y316339D01*
X91857Y315552D01*
X89457D01*
X88536Y315368D01*
X87754Y314846D01*
X87232Y314065D01*
X87213Y313968D01*
X80937D01*
X80517Y314142D01*
X79300Y314302D01*
X78083Y314142D01*
X76949Y313672D01*
X75975Y312925D01*
X75228Y311951D01*
X74758Y310817D01*
X74598Y309600D01*
X74758Y308383D01*
X75228Y307249D01*
X75975Y306275D01*
X76949Y305528D01*
X78083Y305058D01*
X79300Y304898D01*
X80517Y305058D01*
X80937Y305232D01*
X87213D01*
X87232Y305135D01*
X87754Y304354D01*
X88536Y303832D01*
X89457Y303648D01*
X95757D01*
X96678Y303832D01*
X97460Y304354D01*
X97645Y304631D01*
X98592D01*
X98778Y304354D01*
X99559Y303832D01*
X100481Y303648D01*
X106780D01*
X107702Y303832D01*
X108483Y304354D01*
X109005Y305135D01*
X109025Y305232D01*
X117213D01*
X117232Y305135D01*
X117754Y304354D01*
X118536Y303832D01*
X119457Y303648D01*
X125757D01*
X126678Y303832D01*
X127039Y304072D01*
X127042Y304071D01*
X127673Y303249D01*
X128496Y302618D01*
X129453Y302221D01*
X130481Y302086D01*
X132881D01*
Y309600D01*
X133631D01*
Y310350D01*
X140751D01*
Y313143D01*
X140616Y314171D01*
X140219Y315129D01*
X139588Y315951D01*
X138766Y316582D01*
X138156Y316835D01*
X137915Y317706D01*
X138738Y318530D01*
X141662D01*
X142584Y318713D01*
X143365Y319235D01*
X143887Y320017D01*
X144071Y320939D01*
Y327238D01*
X143887Y328159D01*
X143365Y328941D01*
X143087Y329127D01*
Y330073D01*
X143365Y330259D01*
X143887Y331041D01*
X144071Y331962D01*
Y338261D01*
X143887Y339183D01*
X143365Y339964D01*
X143352Y340055D01*
X143546Y340292D01*
X144149Y341421D01*
X144521Y342645D01*
X144646Y343919D01*
X144521Y345192D01*
X144149Y346417D01*
X143546Y347545D01*
X142735Y348534D01*
X141745Y349346D01*
X140617Y349950D01*
X139392Y350321D01*
X138119Y350446D01*
X136846Y350321D01*
X136158Y350113D01*
X135371Y350686D01*
Y351550D01*
X129050D01*
Y343129D01*
X131400D01*
X131692Y342897D01*
X131717Y342645D01*
X132088Y341421D01*
X132692Y340292D01*
X132796Y340165D01*
X132364Y339480D01*
X131381D01*
X130250Y339331D01*
X129197Y338895D01*
X128292Y338200D01*
X123219Y333127D01*
X122473Y333495D01*
X122487Y333600D01*
Y343329D01*
X123193Y343677D01*
X123214Y343661D01*
X124172Y343264D01*
X125200Y343129D01*
X127550D01*
Y351550D01*
X121229D01*
Y348662D01*
X120442Y348336D01*
X115808Y352969D01*
Y357450D01*
X115625Y358372D01*
X115103Y359153D01*
X114322Y359675D01*
X113400Y359858D01*
D02*
G37*
G36*
X287000Y446728D02*
X285726Y446602D01*
X284502Y446231D01*
X283373Y445627D01*
X282384Y444816D01*
X281573Y443826D01*
X281055Y442859D01*
X280922Y442825D01*
X280000Y443009D01*
X258600D01*
X257678Y442825D01*
X256897Y442303D01*
X256375Y441522D01*
X256191Y440600D01*
Y418600D01*
X256375Y417678D01*
X256897Y416897D01*
X257678Y416375D01*
X258600Y416191D01*
X278046D01*
X278515Y415559D01*
X278398Y415173D01*
X278273Y413900D01*
X278304Y413581D01*
X275211Y410489D01*
X274688Y409807D01*
X274278Y409725D01*
X273497Y409203D01*
X272975Y408422D01*
X272792Y407500D01*
Y397100D01*
X272975Y396178D01*
X273497Y395397D01*
X273932Y395106D01*
Y393008D01*
X258600D01*
X257678Y392825D01*
X256897Y392303D01*
X256375Y391522D01*
X256191Y390600D01*
Y368600D01*
X256375Y367678D01*
X256897Y366897D01*
X257678Y366375D01*
X258600Y366192D01*
X280000D01*
X280922Y366375D01*
X281703Y366897D01*
X282225Y367678D01*
X282408Y368600D01*
Y387202D01*
X282519Y387470D01*
X282668Y388600D01*
Y395106D01*
X283103Y395397D01*
X283625Y396178D01*
X283808Y397100D01*
Y406731D01*
X284481Y407404D01*
X284800Y407373D01*
X286073Y407498D01*
X287298Y407869D01*
X288426Y408473D01*
X289416Y409284D01*
X290227Y410274D01*
X290831Y411402D01*
X291202Y412627D01*
X291328Y413900D01*
X291202Y415173D01*
X290831Y416398D01*
X290227Y417526D01*
X289416Y418516D01*
X288426Y419327D01*
X287298Y419931D01*
X286073Y420302D01*
X284800Y420428D01*
X283526Y420302D01*
X283041Y420155D01*
X282408Y420624D01*
Y426932D01*
X285363D01*
X285783Y426758D01*
X287000Y426598D01*
X288217Y426758D01*
X289351Y427228D01*
X290325Y427975D01*
X291072Y428949D01*
X291542Y430083D01*
X291702Y431300D01*
X291542Y432517D01*
X291368Y432937D01*
Y435381D01*
X291616Y435584D01*
X292427Y436574D01*
X293031Y437702D01*
X293402Y438927D01*
X293528Y440200D01*
X293402Y441473D01*
X293031Y442698D01*
X292427Y443826D01*
X291616Y444816D01*
X290627Y445627D01*
X289498Y446231D01*
X288274Y446602D01*
X287000Y446728D01*
D02*
G37*
G36*
X458036Y449250D02*
X450750D01*
Y441964D01*
X451582Y442046D01*
X453103Y442507D01*
X454506Y443257D01*
X455735Y444265D01*
X456743Y445494D01*
X457493Y446897D01*
X457954Y448418D01*
X458036Y449250D01*
D02*
G37*
G36*
X449250D02*
X441964D01*
X442046Y448418D01*
X442507Y446897D01*
X443257Y445494D01*
X444265Y444265D01*
X445494Y443257D01*
X446897Y442507D01*
X448418Y442046D01*
X449250Y441964D01*
Y449250D01*
D02*
G37*
G36*
X298750Y457836D02*
X297918Y457754D01*
X296396Y457293D01*
X294994Y456543D01*
X293765Y455535D01*
X292757Y454306D01*
X292007Y452904D01*
X291546Y451382D01*
X291464Y450550D01*
X298750D01*
Y457836D01*
D02*
G37*
G36*
X150050D02*
Y450550D01*
X157336D01*
X157254Y451382D01*
X156793Y452904D01*
X156043Y454306D01*
X155035Y455535D01*
X153806Y456543D01*
X152403Y457293D01*
X150882Y457754D01*
X150050Y457836D01*
D02*
G37*
G36*
X148550D02*
X147718Y457754D01*
X146196Y457293D01*
X144794Y456543D01*
X143565Y455535D01*
X142557Y454306D01*
X141807Y452904D01*
X141346Y451382D01*
X141264Y450550D01*
X148550D01*
Y457836D01*
D02*
G37*
G36*
Y449050D02*
X141264D01*
X141346Y448218D01*
X141807Y446697D01*
X142557Y445294D01*
X143565Y444065D01*
X144794Y443057D01*
X146196Y442307D01*
X147718Y441846D01*
X148550Y441764D01*
Y449050D01*
D02*
G37*
G36*
X242217Y446563D02*
X234095D01*
X232964Y446414D01*
X231910Y445977D01*
X231006Y445283D01*
X226211Y440489D01*
X225517Y439584D01*
X225386Y439268D01*
X224519D01*
X224316Y439516D01*
X223326Y440327D01*
X222198Y440931D01*
X220973Y441302D01*
X219700Y441428D01*
X218426Y441302D01*
X217202Y440931D01*
X216073Y440327D01*
X215084Y439516D01*
X214273Y438526D01*
X213669Y437398D01*
X213298Y436173D01*
X213173Y434900D01*
X213298Y433627D01*
X213669Y432402D01*
X214273Y431274D01*
X214698Y430756D01*
X214325Y429968D01*
X209200D01*
X208069Y429819D01*
X207016Y429383D01*
X206111Y428689D01*
X200699Y423277D01*
X200005Y422372D01*
X199569Y421319D01*
X199420Y420188D01*
Y415170D01*
X198935Y414846D01*
X198413Y414065D01*
X198394Y413968D01*
X190206D01*
X190187Y414065D01*
X189664Y414846D01*
X188883Y415369D01*
X187961Y415552D01*
X181662D01*
X180740Y415369D01*
X179959Y414846D01*
X179773Y414569D01*
X178826D01*
X178641Y414846D01*
X177859Y415369D01*
X177468Y415446D01*
Y424094D01*
X177677Y424261D01*
X178255Y424444D01*
X179074Y423773D01*
X180202Y423169D01*
X181427Y422798D01*
X182700Y422673D01*
X183974Y422798D01*
X185198Y423169D01*
X186327Y423773D01*
X187316Y424584D01*
X188127Y425573D01*
X188731Y426702D01*
X189102Y427927D01*
X189227Y429200D01*
X189102Y430473D01*
X188731Y431698D01*
X188127Y432827D01*
X187316Y433816D01*
X186327Y434627D01*
X185198Y435231D01*
X183974Y435602D01*
X182700Y435728D01*
X181427Y435602D01*
X180202Y435231D01*
X179074Y434627D01*
X178084Y433816D01*
X177881Y433568D01*
X176000D01*
X174870Y433419D01*
X173816Y432983D01*
X172911Y432289D01*
X171169Y430547D01*
X170749Y430372D01*
X169775Y429625D01*
X169028Y428651D01*
X168558Y427517D01*
X168398Y426300D01*
X168558Y425083D01*
X168732Y424662D01*
Y414542D01*
X168413Y414065D01*
X168230Y413143D01*
Y406057D01*
X168413Y405135D01*
X168936Y404354D01*
X169717Y403832D01*
X170639Y403648D01*
X176938D01*
X177859Y403832D01*
X178641Y404354D01*
X178826Y404632D01*
X179773D01*
X179959Y404354D01*
X180740Y403832D01*
X181662Y403648D01*
X187961D01*
X188883Y403832D01*
X189664Y404354D01*
X190187Y405135D01*
X190206Y405232D01*
X191606D01*
X191814Y404445D01*
X191090Y403889D01*
X182711Y395510D01*
X182668Y395453D01*
X175619D01*
X174697Y395270D01*
X173916Y394748D01*
X173395Y393968D01*
X165292D01*
Y407830D01*
X165109Y408752D01*
X164976Y408950D01*
X165109Y409148D01*
X165292Y410070D01*
Y431330D01*
X165109Y432252D01*
X164587Y433033D01*
X163805Y433555D01*
X162968Y433722D01*
Y437862D01*
X163142Y438283D01*
X163302Y439500D01*
X163142Y440717D01*
X162672Y441851D01*
X161925Y442825D01*
X160951Y443572D01*
X159817Y444042D01*
X158600Y444202D01*
X157383Y444042D01*
X156249Y443572D01*
X155275Y442825D01*
X154528Y441851D01*
X154058Y440717D01*
X153898Y439500D01*
X154058Y438283D01*
X154232Y437862D01*
Y433584D01*
X154088Y433555D01*
X153307Y433033D01*
X152785Y432252D01*
X152601Y431330D01*
Y410070D01*
X152785Y409148D01*
X152917Y408950D01*
X152785Y408752D01*
X152601Y407830D01*
Y387114D01*
X150639D01*
X149611Y386979D01*
X148653Y386582D01*
X147831Y385951D01*
X147200Y385129D01*
X146803Y384171D01*
X146668Y383143D01*
Y380350D01*
X153788D01*
Y379600D01*
X154538D01*
Y372086D01*
X156938D01*
X157966Y372221D01*
X158633Y372497D01*
X159420Y372086D01*
Y365170D01*
X158935Y364846D01*
X158413Y364065D01*
X158230Y363143D01*
Y356057D01*
X158413Y355135D01*
X158935Y354354D01*
X159717Y353832D01*
X160639Y353648D01*
X166938D01*
X167859Y353832D01*
X168572Y354308D01*
X168723Y354337D01*
X169475Y354185D01*
X169617Y353844D01*
X163031Y347259D01*
X162800D01*
X161878Y347075D01*
X161097Y346553D01*
X160575Y345772D01*
X160391Y344850D01*
Y341850D01*
X160575Y340928D01*
X160718Y340715D01*
X159992Y340158D01*
X159361Y339336D01*
X158964Y338378D01*
X158829Y337350D01*
Y336600D01*
X165300D01*
Y335850D01*
X166050D01*
Y330379D01*
X167800D01*
X168828Y330514D01*
X169785Y330911D01*
X170608Y331542D01*
X171239Y332365D01*
X171636Y333322D01*
X171771Y334350D01*
Y334771D01*
X172558Y335330D01*
X173300Y335232D01*
X174431Y335381D01*
X175181Y335692D01*
X175800D01*
X176722Y335875D01*
X177503Y336397D01*
X178025Y337178D01*
X178208Y338100D01*
Y338331D01*
X189909Y350032D01*
X201553D01*
X201974Y349244D01*
X201825Y349022D01*
X201642Y348100D01*
Y347481D01*
X201331Y346730D01*
X201182Y345600D01*
Y338822D01*
X200800Y338509D01*
X197800D01*
X196878Y338325D01*
X196097Y337803D01*
X195575Y337022D01*
X195391Y336100D01*
Y335481D01*
X195081Y334731D01*
X194932Y333600D01*
X195081Y332470D01*
X195391Y331719D01*
Y331100D01*
X194906Y330508D01*
X194050D01*
X193128Y330325D01*
X192347Y329803D01*
X191825Y329022D01*
X191641Y328100D01*
Y327869D01*
X190700Y326927D01*
X190005Y326022D01*
X189569Y324969D01*
X189420Y323838D01*
Y315170D01*
X188935Y314846D01*
X188413Y314065D01*
X188394Y313968D01*
X180206D01*
X180187Y314065D01*
X179665Y314846D01*
X178883Y315368D01*
X177961Y315552D01*
X172871D01*
X172770Y315848D01*
X172675Y316339D01*
X173372Y317249D01*
X173842Y318383D01*
X174002Y319600D01*
X173842Y320817D01*
X173372Y321951D01*
X172625Y322925D01*
X171651Y323672D01*
X170517Y324142D01*
X169300Y324302D01*
X168083Y324142D01*
X166949Y323672D01*
X165975Y322925D01*
X165228Y321951D01*
X165053Y321531D01*
X160699Y317177D01*
X160005Y316272D01*
X159598Y315289D01*
X158935Y314846D01*
X158413Y314065D01*
X158230Y313143D01*
Y306057D01*
X158413Y305135D01*
X158935Y304354D01*
X159717Y303832D01*
X160639Y303648D01*
X166938D01*
X167859Y303832D01*
X168641Y304354D01*
X168826Y304631D01*
X169773D01*
X169959Y304354D01*
X170740Y303832D01*
X171662Y303648D01*
X177961D01*
X178883Y303832D01*
X179665Y304354D01*
X180187Y305135D01*
X180206Y305232D01*
X188394D01*
X188413Y305135D01*
X188935Y304354D01*
X189717Y303832D01*
X190639Y303648D01*
X196938D01*
X197860Y303832D01*
X198220Y304072D01*
X198223Y304071D01*
X198854Y303249D01*
X199677Y302618D01*
X200634Y302221D01*
X201662Y302086D01*
X204062D01*
Y309600D01*
Y317114D01*
X201662D01*
X200634Y316979D01*
X199677Y316582D01*
X198944Y316020D01*
X198581Y316102D01*
X198156Y316335D01*
Y319790D01*
X198281Y319897D01*
X198944Y320137D01*
X199564Y319661D01*
X200522Y319264D01*
X201550Y319129D01*
X202300D01*
Y325600D01*
X203800D01*
Y319129D01*
X204550D01*
X205578Y319264D01*
X206535Y319661D01*
X207358Y320292D01*
X207989Y321114D01*
X208386Y322072D01*
X208485Y322824D01*
X209256Y323166D01*
X211423Y321000D01*
X212328Y320305D01*
X213381Y319869D01*
X213654Y319833D01*
X214054Y319235D01*
X214835Y318713D01*
X215757Y318530D01*
X222843D01*
X223765Y318713D01*
X224546Y319235D01*
X225068Y320017D01*
X225252Y320939D01*
Y327238D01*
X225068Y328159D01*
X224546Y328941D01*
X224269Y329127D01*
Y330073D01*
X224546Y330259D01*
X225068Y331041D01*
X225252Y331962D01*
Y338261D01*
X225068Y339183D01*
X224546Y339965D01*
X223765Y340487D01*
X222843Y340670D01*
X219919D01*
X217418Y343171D01*
Y343791D01*
X218859Y345232D01*
X227662D01*
X228083Y345058D01*
X229300Y344898D01*
X230517Y345058D01*
X231651Y345528D01*
X232625Y346275D01*
X233372Y347249D01*
X233842Y348383D01*
X234002Y349600D01*
X233842Y350817D01*
X233372Y351951D01*
X232625Y352925D01*
X231651Y353672D01*
X230517Y354142D01*
X229300Y354302D01*
X228083Y354142D01*
X227662Y353968D01*
X217050D01*
X215919Y353819D01*
X214866Y353383D01*
X214385Y353014D01*
X213647Y353440D01*
X213668Y353600D01*
Y358694D01*
X213765Y358713D01*
X214546Y359236D01*
X215068Y360017D01*
X215252Y360939D01*
Y367238D01*
X215068Y368160D01*
X214546Y368941D01*
X214268Y369127D01*
Y370074D01*
X214546Y370259D01*
X215068Y371041D01*
X215252Y371962D01*
Y377839D01*
X221160Y383747D01*
X226052D01*
X226974Y383930D01*
X227755Y384452D01*
X228277Y385233D01*
X228460Y386155D01*
Y392756D01*
X228495Y392852D01*
X228928Y393310D01*
X229182Y393453D01*
X229413Y393430D01*
X230050Y393092D01*
X230140Y392595D01*
Y386155D01*
X230323Y385233D01*
X230845Y384452D01*
X231626Y383930D01*
X232548Y383747D01*
X242981D01*
X243903Y383930D01*
X244684Y384452D01*
X245206Y385233D01*
X245390Y386155D01*
Y391048D01*
X246139Y391797D01*
X246833Y392701D01*
X247269Y393755D01*
X247418Y394885D01*
Y401232D01*
X254791D01*
Y397150D01*
X254975Y396228D01*
X255497Y395447D01*
X256278Y394925D01*
X257200Y394742D01*
X263400D01*
X264322Y394925D01*
X265103Y395447D01*
X265625Y396228D01*
X265809Y397150D01*
Y407450D01*
X265625Y408372D01*
X265103Y409153D01*
X264322Y409675D01*
X263400Y409859D01*
X257832D01*
X257000Y409968D01*
X253668D01*
Y418694D01*
X253765Y418713D01*
X254546Y419236D01*
X255068Y420017D01*
X255252Y420939D01*
Y427238D01*
X255068Y428160D01*
X254546Y428941D01*
X254269Y429127D01*
Y430073D01*
X254546Y430259D01*
X255068Y431040D01*
X255252Y431962D01*
Y438261D01*
X255068Y439183D01*
X254546Y439964D01*
X253765Y440487D01*
X252843Y440670D01*
X249919D01*
X245306Y445283D01*
X244401Y445977D01*
X243348Y446414D01*
X242217Y446563D01*
D02*
G37*
G36*
X139100Y443902D02*
X137883Y443742D01*
X136749Y443272D01*
X135775Y442525D01*
X135028Y441551D01*
X134558Y440417D01*
X134398Y439200D01*
X134558Y437983D01*
X134732Y437563D01*
Y433512D01*
X134015Y433033D01*
X133493Y432252D01*
X133310Y431330D01*
Y410070D01*
X133323Y410003D01*
X132615Y409529D01*
X132322Y409725D01*
X131400Y409908D01*
X125200D01*
X124278Y409725D01*
X123497Y409203D01*
X122975Y408422D01*
X122792Y407500D01*
Y397100D01*
X122975Y396178D01*
X123497Y395397D01*
X123932Y395106D01*
Y393008D01*
X108600D01*
X107678Y392825D01*
X106897Y392303D01*
X106375Y391522D01*
X106192Y390600D01*
Y383968D01*
X98500D01*
X97369Y383819D01*
X96316Y383383D01*
X96309Y383377D01*
X95800Y383428D01*
X94526Y383302D01*
X93302Y382931D01*
X92173Y382327D01*
X91184Y381516D01*
X90373Y380526D01*
X89769Y379398D01*
X89398Y378173D01*
X89272Y376900D01*
X89398Y375626D01*
X89769Y374402D01*
X90373Y373273D01*
X91184Y372284D01*
X92173Y371473D01*
X93302Y370869D01*
X94526Y370498D01*
X95800Y370373D01*
X97074Y370498D01*
X98298Y370869D01*
X99427Y371473D01*
X100416Y372284D01*
X101227Y373273D01*
X101831Y374402D01*
X102082Y375232D01*
X106192D01*
Y368600D01*
X106375Y367678D01*
X106897Y366897D01*
X107678Y366375D01*
X108600Y366192D01*
X130000D01*
X130922Y366375D01*
X131703Y366897D01*
X132225Y367678D01*
X132408Y368600D01*
Y386740D01*
X132523Y386860D01*
X133253Y386591D01*
X133314Y386550D01*
X133493Y385648D01*
X134015Y384867D01*
X134797Y384345D01*
X135718Y384162D01*
X143593D01*
X144514Y384345D01*
X145296Y384867D01*
X145818Y385648D01*
X146001Y386570D01*
Y407830D01*
X145818Y408752D01*
X145685Y408950D01*
X145818Y409148D01*
X146001Y410070D01*
Y431330D01*
X145818Y432252D01*
X145296Y433033D01*
X144514Y433555D01*
X143593Y433738D01*
X143468D01*
Y437563D01*
X143642Y437983D01*
X143802Y439200D01*
X143642Y440417D01*
X143172Y441551D01*
X142425Y442525D01*
X141451Y443272D01*
X140317Y443742D01*
X139100Y443902D01*
D02*
G37*
G36*
X307536Y449050D02*
X300250D01*
Y441764D01*
X301082Y441846D01*
X302604Y442307D01*
X304006Y443057D01*
X305235Y444065D01*
X306243Y445294D01*
X306993Y446697D01*
X307454Y448218D01*
X307536Y449050D01*
D02*
G37*
G36*
X298750D02*
X291464D01*
X291546Y448218D01*
X292007Y446697D01*
X292757Y445294D01*
X293765Y444065D01*
X294994Y443057D01*
X296396Y442307D01*
X297918Y441846D01*
X298750Y441764D01*
Y449050D01*
D02*
G37*
G36*
X157336D02*
X150050D01*
Y441764D01*
X150882Y441846D01*
X152403Y442307D01*
X153806Y443057D01*
X155035Y444065D01*
X156043Y445294D01*
X156793Y446697D01*
X157254Y448218D01*
X157336Y449050D01*
D02*
G37*
%LPD*%
G36*
X588000Y108483D02*
Y89767D01*
Y70977D01*
Y50000D01*
X460000D01*
Y70977D01*
Y89767D01*
Y108483D01*
Y126408D01*
X588000D01*
Y108483D01*
D02*
G37*
%LPC*%
G36*
X506294Y82390D02*
X503256D01*
X501144Y76690D01*
X501019Y76340D01*
X500969Y76190D01*
X500919Y76040D01*
X500881Y75928D01*
X500844Y75827D01*
X500831Y75778D01*
X500819Y75753D01*
X500794Y75640D01*
X500744Y75503D01*
X500694Y75340D01*
X500644Y75178D01*
X500594Y75028D01*
X500556Y74902D01*
X500544Y74865D01*
X500531Y74827D01*
X500519Y74803D01*
Y74790D01*
X499906Y76690D01*
X497819Y82390D01*
X494719D01*
X499206Y71240D01*
X501869D01*
X506294Y82390D01*
D02*
G37*
G36*
X540906Y74190D02*
X537956D01*
Y71240D01*
X540906D01*
Y74190D01*
D02*
G37*
G36*
X539731Y101418D02*
X539619D01*
X539219Y101405D01*
X538831Y101355D01*
X538456Y101268D01*
X538119Y101168D01*
X537794Y101055D01*
X537494Y100917D01*
X537206Y100780D01*
X536956Y100630D01*
X536731Y100480D01*
X536531Y100343D01*
X536356Y100205D01*
X536219Y100092D01*
X536106Y99993D01*
X536019Y99905D01*
X535969Y99855D01*
X535956Y99843D01*
X535706Y99530D01*
X535481Y99205D01*
X535294Y98855D01*
X535131Y98505D01*
X534981Y98142D01*
X534869Y97780D01*
X534769Y97430D01*
X534694Y97080D01*
X534644Y96755D01*
X534594Y96468D01*
X534569Y96193D01*
X534544Y95968D01*
X534531Y95767D01*
X534519Y95692D01*
Y95630D01*
Y95580D01*
Y95543D01*
Y95517D01*
Y95505D01*
X534531Y95080D01*
X534569Y94668D01*
X534619Y94292D01*
X534694Y93918D01*
X534769Y93580D01*
X534869Y93268D01*
X534969Y92980D01*
X535069Y92705D01*
X535169Y92467D01*
X535269Y92255D01*
X535369Y92080D01*
X535444Y91930D01*
X535519Y91817D01*
X535569Y91730D01*
X535606Y91667D01*
X535619Y91655D01*
X535894Y91317D01*
X536206Y91030D01*
X536531Y90780D01*
X536869Y90567D01*
X537231Y90380D01*
X537581Y90230D01*
X537944Y90105D01*
X538281Y90005D01*
X538606Y89930D01*
X538919Y89868D01*
X539194Y89830D01*
X539431Y89793D01*
X539631Y89780D01*
X539706D01*
X539781Y89767D01*
X539906D01*
X540244Y89780D01*
X540569Y89805D01*
X540869Y89842D01*
X541156Y89905D01*
X541431Y89968D01*
X541681Y90030D01*
X541906Y90105D01*
X542119Y90193D01*
X542306Y90267D01*
X542481Y90342D01*
X542619Y90405D01*
X542744Y90480D01*
X542831Y90530D01*
X542906Y90567D01*
X542944Y90592D01*
X542956Y90605D01*
X543181Y90768D01*
X543381Y90955D01*
X543581Y91155D01*
X543756Y91355D01*
X543919Y91555D01*
X544069Y91768D01*
X544194Y91967D01*
X544319Y92168D01*
X544419Y92343D01*
X544506Y92518D01*
X544581Y92680D01*
X544644Y92817D01*
X544694Y92930D01*
X544731Y93005D01*
X544744Y93068D01*
X544756Y93080D01*
X541819Y93568D01*
X541719Y93268D01*
X541606Y93018D01*
X541481Y92805D01*
X541369Y92642D01*
X541256Y92505D01*
X541169Y92418D01*
X541119Y92355D01*
X541094Y92343D01*
X540906Y92217D01*
X540719Y92130D01*
X540531Y92055D01*
X540344Y92018D01*
X540181Y91992D01*
X540056Y91980D01*
X540006Y91967D01*
X539944D01*
X539756Y91980D01*
X539581Y92005D01*
X539406Y92030D01*
X539256Y92080D01*
X538956Y92193D01*
X538719Y92330D01*
X538606Y92392D01*
X538519Y92467D01*
X538431Y92530D01*
X538369Y92580D01*
X538319Y92630D01*
X538281Y92668D01*
X538256Y92680D01*
X538244Y92693D01*
X538131Y92830D01*
X538019Y92993D01*
X537931Y93155D01*
X537856Y93318D01*
X537731Y93655D01*
X537644Y93993D01*
X537606Y94143D01*
X537594Y94280D01*
X537569Y94418D01*
X537556Y94530D01*
Y94617D01*
X537544Y94680D01*
Y94730D01*
Y94743D01*
X544919D01*
Y95355D01*
X544881Y95930D01*
X544819Y96468D01*
X544731Y96955D01*
X544631Y97405D01*
X544506Y97817D01*
X544381Y98193D01*
X544256Y98530D01*
X544119Y98817D01*
X543994Y99067D01*
X543881Y99280D01*
X543769Y99455D01*
X543681Y99593D01*
X543606Y99692D01*
X543556Y99743D01*
X543544Y99768D01*
X543269Y100055D01*
X542969Y100318D01*
X542644Y100530D01*
X542319Y100717D01*
X541994Y100880D01*
X541669Y101017D01*
X541356Y101130D01*
X541044Y101217D01*
X540756Y101280D01*
X540481Y101330D01*
X540244Y101367D01*
X540031Y101392D01*
X539856Y101405D01*
X539731Y101418D01*
D02*
G37*
G36*
X520394Y101168D02*
X517444D01*
Y90017D01*
X520394D01*
Y101168D01*
D02*
G37*
G36*
X499556Y105405D02*
X493581D01*
Y90017D01*
X499731D01*
X500031Y90030D01*
X500306Y90043D01*
X500569Y90067D01*
X500819Y90092D01*
X501044Y90118D01*
X501244Y90155D01*
X501431Y90180D01*
X501606Y90205D01*
X501756Y90242D01*
X501881Y90267D01*
X501981Y90293D01*
X502056Y90317D01*
X502119Y90330D01*
X502156Y90342D01*
X502169D01*
X502419Y90430D01*
X502656Y90517D01*
X502881Y90618D01*
X503081Y90718D01*
X503281Y90817D01*
X503456Y90917D01*
X503619Y91018D01*
X503769Y91118D01*
X503894Y91205D01*
X504019Y91293D01*
X504119Y91368D01*
X504194Y91443D01*
X504256Y91492D01*
X504306Y91530D01*
X504331Y91555D01*
X504344Y91567D01*
X504544Y91768D01*
X504719Y91980D01*
X505056Y92430D01*
X505344Y92880D01*
X505456Y93105D01*
X505569Y93318D01*
X505669Y93518D01*
X505756Y93692D01*
X505831Y93855D01*
X505894Y94005D01*
X505931Y94117D01*
X505969Y94205D01*
X505981Y94267D01*
X505994Y94280D01*
X506156Y94818D01*
X506269Y95367D01*
X506356Y95917D01*
X506381Y96180D01*
X506406Y96430D01*
X506431Y96667D01*
X506444Y96880D01*
X506456Y97067D01*
Y97242D01*
X506469Y97368D01*
Y97467D01*
Y97530D01*
Y97555D01*
Y97955D01*
X506444Y98330D01*
X506419Y98693D01*
X506394Y99030D01*
X506356Y99355D01*
X506306Y99655D01*
X506256Y99930D01*
X506219Y100180D01*
X506169Y100417D01*
X506119Y100618D01*
X506081Y100780D01*
X506031Y100930D01*
X506006Y101042D01*
X505981Y101130D01*
X505956Y101180D01*
Y101192D01*
X505756Y101717D01*
X505631Y101968D01*
X505519Y102205D01*
X505394Y102418D01*
X505269Y102630D01*
X505156Y102817D01*
X505044Y102992D01*
X504931Y103142D01*
X504831Y103280D01*
X504731Y103405D01*
X504656Y103505D01*
X504581Y103580D01*
X504531Y103630D01*
X504506Y103667D01*
X504494Y103680D01*
X504306Y103867D01*
X504119Y104030D01*
X503919Y104192D01*
X503719Y104330D01*
X503531Y104467D01*
X503331Y104580D01*
X503144Y104680D01*
X502969Y104780D01*
X502806Y104855D01*
X502656Y104930D01*
X502519Y104980D01*
X502394Y105030D01*
X502306Y105068D01*
X502231Y105080D01*
X502181Y105105D01*
X502169D01*
X501969Y105155D01*
X501756Y105205D01*
X501531Y105243D01*
X501294Y105280D01*
X500806Y105330D01*
X500331Y105368D01*
X500106Y105380D01*
X499906Y105393D01*
X499719D01*
X499556Y105405D01*
D02*
G37*
G36*
X532919Y86690D02*
X530519D01*
X530419Y86427D01*
X530294Y86177D01*
X530156Y85940D01*
X530019Y85715D01*
X529869Y85490D01*
X529706Y85290D01*
X529556Y85102D01*
X529406Y84927D01*
X529256Y84777D01*
X529119Y84640D01*
X528994Y84515D01*
X528881Y84415D01*
X528781Y84340D01*
X528719Y84277D01*
X528669Y84240D01*
X528656Y84228D01*
X528406Y84040D01*
X528156Y83865D01*
X527919Y83702D01*
X527694Y83565D01*
X527481Y83428D01*
X527269Y83315D01*
X527081Y83215D01*
X526906Y83127D01*
X526731Y83040D01*
X526594Y82977D01*
X526469Y82928D01*
X526356Y82877D01*
X526269Y82840D01*
X526206Y82815D01*
X526169Y82802D01*
X526156D01*
Y80128D01*
X526556Y80265D01*
X526944Y80427D01*
X527319Y80603D01*
X527681Y80778D01*
X528006Y80965D01*
X528319Y81140D01*
X528619Y81327D01*
X528881Y81502D01*
X529131Y81678D01*
X529344Y81840D01*
X529531Y81977D01*
X529681Y82103D01*
X529806Y82203D01*
X529894Y82290D01*
X529956Y82340D01*
X529969Y82353D01*
Y71240D01*
X532919D01*
Y86690D01*
D02*
G37*
G36*
X532444Y67900D02*
X532256D01*
X531669Y67875D01*
X531106Y67813D01*
X530569Y67700D01*
X530069Y67563D01*
X529606Y67413D01*
X529181Y67225D01*
X528781Y67037D01*
X528431Y66838D01*
X528106Y66637D01*
X527831Y66450D01*
X527594Y66263D01*
X527394Y66113D01*
X527231Y65975D01*
X527119Y65863D01*
X527056Y65800D01*
X527031Y65775D01*
X526681Y65363D01*
X526381Y64912D01*
X526119Y64438D01*
X525894Y63950D01*
X525694Y63450D01*
X525544Y62950D01*
X525406Y62463D01*
X525306Y62000D01*
X525219Y61550D01*
X525156Y61137D01*
X525119Y60763D01*
X525106Y60600D01*
X525094Y60450D01*
X525081Y60300D01*
X525069Y60175D01*
Y60075D01*
X525056Y59987D01*
Y59913D01*
Y59863D01*
Y59825D01*
Y59812D01*
X525081Y59150D01*
X525144Y58525D01*
X525244Y57938D01*
X525369Y57388D01*
X525506Y56875D01*
X525681Y56400D01*
X525856Y55975D01*
X526044Y55588D01*
X526219Y55238D01*
X526394Y54937D01*
X526569Y54688D01*
X526719Y54475D01*
X526844Y54300D01*
X526931Y54188D01*
X526994Y54112D01*
X527019Y54088D01*
X527406Y53725D01*
X527806Y53400D01*
X528219Y53125D01*
X528644Y52875D01*
X529069Y52675D01*
X529481Y52513D01*
X529894Y52375D01*
X530281Y52263D01*
X530644Y52175D01*
X530981Y52113D01*
X531281Y52062D01*
X531544Y52038D01*
X531656Y52025D01*
X531756Y52012D01*
X531844D01*
X531919Y52000D01*
X532056D01*
X532506Y52012D01*
X532944Y52050D01*
X533356Y52113D01*
X533744Y52188D01*
X534106Y52288D01*
X534444Y52387D01*
X534744Y52500D01*
X535031Y52613D01*
X535281Y52725D01*
X535506Y52838D01*
X535694Y52938D01*
X535856Y53038D01*
X535981Y53113D01*
X536069Y53175D01*
X536131Y53212D01*
X536144Y53225D01*
X536431Y53475D01*
X536706Y53737D01*
X536956Y54025D01*
X537181Y54325D01*
X537394Y54637D01*
X537581Y54950D01*
X537756Y55263D01*
X537906Y55563D01*
X538031Y55850D01*
X538156Y56112D01*
X538244Y56350D01*
X538319Y56563D01*
X538381Y56738D01*
X538419Y56862D01*
X538444Y56912D01*
Y56950D01*
X538456Y56963D01*
Y56975D01*
X535444Y57925D01*
X535369Y57613D01*
X535269Y57325D01*
X535181Y57063D01*
X535069Y56825D01*
X534969Y56600D01*
X534856Y56388D01*
X534756Y56213D01*
X534656Y56050D01*
X534556Y55900D01*
X534456Y55775D01*
X534369Y55675D01*
X534306Y55588D01*
X534244Y55525D01*
X534194Y55475D01*
X534169Y55450D01*
X534156Y55437D01*
X533981Y55300D01*
X533806Y55175D01*
X533631Y55075D01*
X533456Y54988D01*
X533269Y54913D01*
X533094Y54838D01*
X532756Y54750D01*
X532606Y54712D01*
X532469Y54688D01*
X532344Y54675D01*
X532244Y54663D01*
X532156Y54650D01*
X532031D01*
X531719Y54663D01*
X531431Y54700D01*
X531156Y54763D01*
X530894Y54850D01*
X530644Y54937D01*
X530419Y55037D01*
X530219Y55150D01*
X530031Y55275D01*
X529869Y55388D01*
X529719Y55500D01*
X529594Y55600D01*
X529481Y55700D01*
X529406Y55775D01*
X529344Y55838D01*
X529306Y55875D01*
X529294Y55888D01*
X529106Y56138D01*
X528956Y56425D01*
X528819Y56725D01*
X528694Y57063D01*
X528594Y57400D01*
X528506Y57750D01*
X528444Y58087D01*
X528381Y58425D01*
X528344Y58750D01*
X528306Y59050D01*
X528294Y59325D01*
X528269Y59562D01*
Y59763D01*
X528256Y59838D01*
Y59913D01*
Y59962D01*
Y60000D01*
Y60025D01*
Y60037D01*
X528269Y60537D01*
X528306Y61000D01*
X528356Y61425D01*
X528419Y61825D01*
X528506Y62175D01*
X528594Y62500D01*
X528694Y62800D01*
X528794Y63063D01*
X528881Y63288D01*
X528981Y63475D01*
X529069Y63650D01*
X529156Y63775D01*
X529219Y63888D01*
X529269Y63950D01*
X529306Y64000D01*
X529319Y64012D01*
X529531Y64225D01*
X529744Y64425D01*
X529969Y64587D01*
X530206Y64725D01*
X530431Y64850D01*
X530669Y64950D01*
X530894Y65025D01*
X531106Y65100D01*
X531306Y65150D01*
X531494Y65188D01*
X531669Y65213D01*
X531806Y65225D01*
X531931Y65237D01*
X532019Y65250D01*
X532094D01*
X532319Y65237D01*
X532544Y65225D01*
X532944Y65137D01*
X533131Y65087D01*
X533306Y65025D01*
X533456Y64963D01*
X533606Y64900D01*
X533744Y64837D01*
X533856Y64775D01*
X533956Y64713D01*
X534044Y64662D01*
X534106Y64613D01*
X534156Y64575D01*
X534181Y64562D01*
X534194Y64550D01*
X534356Y64412D01*
X534494Y64275D01*
X534631Y64125D01*
X534744Y63963D01*
X534944Y63650D01*
X535094Y63350D01*
X535156Y63213D01*
X535206Y63087D01*
X535256Y62975D01*
X535294Y62875D01*
X535319Y62787D01*
X535331Y62725D01*
X535344Y62687D01*
Y62675D01*
X538419Y63412D01*
X538319Y63750D01*
X538206Y64062D01*
X538081Y64350D01*
X537956Y64625D01*
X537819Y64875D01*
X537694Y65113D01*
X537556Y65325D01*
X537431Y65513D01*
X537319Y65675D01*
X537206Y65825D01*
X537106Y65938D01*
X537019Y66050D01*
X536944Y66125D01*
X536894Y66175D01*
X536856Y66212D01*
X536844Y66225D01*
X536506Y66525D01*
X536131Y66775D01*
X535756Y67000D01*
X535381Y67200D01*
X534994Y67350D01*
X534619Y67488D01*
X534244Y67600D01*
X533881Y67687D01*
X533544Y67763D01*
X533244Y67813D01*
X532969Y67850D01*
X532719Y67875D01*
X532531Y67888D01*
X532444Y67900D01*
D02*
G37*
G36*
X516931D02*
X516744D01*
X516156Y67875D01*
X515594Y67813D01*
X515056Y67700D01*
X514556Y67563D01*
X514094Y67413D01*
X513669Y67225D01*
X513269Y67037D01*
X512919Y66838D01*
X512594Y66637D01*
X512319Y66450D01*
X512081Y66263D01*
X511881Y66113D01*
X511719Y65975D01*
X511606Y65863D01*
X511544Y65800D01*
X511519Y65775D01*
X511169Y65363D01*
X510869Y64912D01*
X510606Y64438D01*
X510381Y63950D01*
X510181Y63450D01*
X510031Y62950D01*
X509894Y62463D01*
X509794Y62000D01*
X509706Y61550D01*
X509644Y61137D01*
X509606Y60763D01*
X509594Y60600D01*
X509581Y60450D01*
X509569Y60300D01*
X509556Y60175D01*
Y60075D01*
X509544Y59987D01*
Y59913D01*
Y59863D01*
Y59825D01*
Y59812D01*
X509569Y59150D01*
X509631Y58525D01*
X509731Y57938D01*
X509856Y57388D01*
X509994Y56875D01*
X510169Y56400D01*
X510344Y55975D01*
X510531Y55588D01*
X510706Y55238D01*
X510881Y54937D01*
X511056Y54688D01*
X511206Y54475D01*
X511331Y54300D01*
X511419Y54188D01*
X511481Y54112D01*
X511506Y54088D01*
X511894Y53725D01*
X512294Y53400D01*
X512706Y53125D01*
X513131Y52875D01*
X513556Y52675D01*
X513969Y52513D01*
X514381Y52375D01*
X514769Y52263D01*
X515131Y52175D01*
X515469Y52113D01*
X515769Y52062D01*
X516031Y52038D01*
X516144Y52025D01*
X516244Y52012D01*
X516331D01*
X516406Y52000D01*
X516544D01*
X516994Y52012D01*
X517431Y52050D01*
X517844Y52113D01*
X518231Y52188D01*
X518594Y52288D01*
X518931Y52387D01*
X519231Y52500D01*
X519519Y52613D01*
X519769Y52725D01*
X519994Y52838D01*
X520181Y52938D01*
X520344Y53038D01*
X520469Y53113D01*
X520556Y53175D01*
X520619Y53212D01*
X520631Y53225D01*
X520919Y53475D01*
X521194Y53737D01*
X521444Y54025D01*
X521669Y54325D01*
X521881Y54637D01*
X522069Y54950D01*
X522244Y55263D01*
X522394Y55563D01*
X522519Y55850D01*
X522644Y56112D01*
X522731Y56350D01*
X522806Y56563D01*
X522869Y56738D01*
X522906Y56862D01*
X522931Y56912D01*
Y56950D01*
X522944Y56963D01*
Y56975D01*
X519931Y57925D01*
X519856Y57613D01*
X519756Y57325D01*
X519669Y57063D01*
X519556Y56825D01*
X519456Y56600D01*
X519344Y56388D01*
X519244Y56213D01*
X519144Y56050D01*
X519044Y55900D01*
X518944Y55775D01*
X518856Y55675D01*
X518794Y55588D01*
X518731Y55525D01*
X518681Y55475D01*
X518656Y55450D01*
X518644Y55437D01*
X518469Y55300D01*
X518294Y55175D01*
X518119Y55075D01*
X517944Y54988D01*
X517756Y54913D01*
X517581Y54838D01*
X517244Y54750D01*
X517094Y54712D01*
X516956Y54688D01*
X516831Y54675D01*
X516731Y54663D01*
X516644Y54650D01*
X516519D01*
X516206Y54663D01*
X515919Y54700D01*
X515644Y54763D01*
X515381Y54850D01*
X515131Y54937D01*
X514906Y55037D01*
X514706Y55150D01*
X514519Y55275D01*
X514356Y55388D01*
X514206Y55500D01*
X514081Y55600D01*
X513969Y55700D01*
X513894Y55775D01*
X513831Y55838D01*
X513794Y55875D01*
X513781Y55888D01*
X513594Y56138D01*
X513444Y56425D01*
X513306Y56725D01*
X513181Y57063D01*
X513081Y57400D01*
X512994Y57750D01*
X512931Y58087D01*
X512869Y58425D01*
X512831Y58750D01*
X512794Y59050D01*
X512781Y59325D01*
X512756Y59562D01*
Y59763D01*
X512744Y59838D01*
Y59913D01*
Y59962D01*
Y60000D01*
Y60025D01*
Y60037D01*
X512756Y60537D01*
X512794Y61000D01*
X512844Y61425D01*
X512906Y61825D01*
X512994Y62175D01*
X513081Y62500D01*
X513181Y62800D01*
X513281Y63063D01*
X513369Y63288D01*
X513469Y63475D01*
X513556Y63650D01*
X513644Y63775D01*
X513706Y63888D01*
X513756Y63950D01*
X513794Y64000D01*
X513806Y64012D01*
X514019Y64225D01*
X514231Y64425D01*
X514456Y64587D01*
X514694Y64725D01*
X514919Y64850D01*
X515156Y64950D01*
X515381Y65025D01*
X515594Y65100D01*
X515794Y65150D01*
X515981Y65188D01*
X516156Y65213D01*
X516294Y65225D01*
X516419Y65237D01*
X516506Y65250D01*
X516581D01*
X516806Y65237D01*
X517031Y65225D01*
X517431Y65137D01*
X517619Y65087D01*
X517794Y65025D01*
X517944Y64963D01*
X518094Y64900D01*
X518231Y64837D01*
X518344Y64775D01*
X518444Y64713D01*
X518531Y64662D01*
X518594Y64613D01*
X518644Y64575D01*
X518669Y64562D01*
X518681Y64550D01*
X518844Y64412D01*
X518981Y64275D01*
X519119Y64125D01*
X519231Y63963D01*
X519431Y63650D01*
X519581Y63350D01*
X519644Y63213D01*
X519694Y63087D01*
X519744Y62975D01*
X519781Y62875D01*
X519806Y62787D01*
X519819Y62725D01*
X519831Y62687D01*
Y62675D01*
X522906Y63412D01*
X522806Y63750D01*
X522694Y64062D01*
X522569Y64350D01*
X522444Y64625D01*
X522306Y64875D01*
X522181Y65113D01*
X522044Y65325D01*
X521919Y65513D01*
X521806Y65675D01*
X521694Y65825D01*
X521594Y65938D01*
X521506Y66050D01*
X521431Y66125D01*
X521381Y66175D01*
X521344Y66212D01*
X521331Y66225D01*
X520994Y66525D01*
X520619Y66775D01*
X520244Y67000D01*
X519869Y67200D01*
X519481Y67350D01*
X519106Y67488D01*
X518731Y67600D01*
X518369Y67687D01*
X518031Y67763D01*
X517731Y67813D01*
X517456Y67850D01*
X517206Y67875D01*
X517019Y67888D01*
X516931Y67900D01*
D02*
G37*
G36*
X512531Y86690D02*
X512431D01*
X512019Y86677D01*
X511644Y86628D01*
X511281Y86540D01*
X510944Y86440D01*
X510631Y86327D01*
X510344Y86190D01*
X510081Y86053D01*
X509844Y85903D01*
X509644Y85752D01*
X509456Y85615D01*
X509306Y85478D01*
X509169Y85365D01*
X509069Y85265D01*
X509006Y85177D01*
X508956Y85128D01*
X508944Y85115D01*
X508806Y84927D01*
X508681Y84728D01*
X508444Y84303D01*
X508244Y83828D01*
X508081Y83328D01*
X507931Y82815D01*
X507806Y82290D01*
X507706Y81778D01*
X507631Y81265D01*
X507569Y80778D01*
X507519Y80327D01*
X507506Y80115D01*
X507494Y79915D01*
X507481Y79740D01*
X507469Y79565D01*
X507456Y79403D01*
Y79265D01*
X507444Y79140D01*
Y79040D01*
Y78965D01*
Y78903D01*
Y78865D01*
Y78852D01*
Y78440D01*
X507456Y78053D01*
X507481Y77678D01*
X507506Y77315D01*
X507531Y76977D01*
X507569Y76640D01*
X507606Y76328D01*
X507656Y76028D01*
X507706Y75740D01*
X507756Y75465D01*
X507819Y75203D01*
X507881Y74965D01*
X507931Y74727D01*
X507994Y74515D01*
X508056Y74315D01*
X508131Y74115D01*
X508194Y73940D01*
X508256Y73778D01*
X508319Y73628D01*
X508381Y73478D01*
X508494Y73240D01*
X508594Y73040D01*
X508681Y72890D01*
X508744Y72790D01*
X508794Y72728D01*
X508806Y72702D01*
X509069Y72403D01*
X509356Y72127D01*
X509656Y71903D01*
X509956Y71702D01*
X510256Y71540D01*
X510556Y71403D01*
X510856Y71290D01*
X511131Y71190D01*
X511406Y71127D01*
X511644Y71065D01*
X511869Y71027D01*
X512056Y71003D01*
X512219Y70990D01*
X512331Y70977D01*
X512431D01*
X512844Y70990D01*
X513219Y71040D01*
X513581Y71127D01*
X513919Y71228D01*
X514231Y71340D01*
X514519Y71478D01*
X514781Y71615D01*
X515019Y71765D01*
X515219Y71903D01*
X515406Y72040D01*
X515556Y72177D01*
X515694Y72303D01*
X515794Y72390D01*
X515856Y72478D01*
X515906Y72527D01*
X515919Y72540D01*
X516056Y72728D01*
X516181Y72927D01*
X516419Y73365D01*
X516619Y73827D01*
X516794Y74327D01*
X516944Y74840D01*
X517056Y75365D01*
X517156Y75890D01*
X517244Y76402D01*
X517306Y76890D01*
X517356Y77340D01*
X517369Y77552D01*
X517381Y77753D01*
X517394Y77940D01*
X517406Y78115D01*
X517419Y78277D01*
Y78415D01*
X517431Y78527D01*
Y78640D01*
Y78715D01*
Y78777D01*
Y78815D01*
Y78828D01*
Y79228D01*
X517419Y79615D01*
X517394Y79990D01*
X517369Y80352D01*
X517331Y80703D01*
X517294Y81028D01*
X517244Y81353D01*
X517194Y81652D01*
X517144Y81940D01*
X517081Y82215D01*
X517019Y82477D01*
X516956Y82727D01*
X516881Y82965D01*
X516819Y83190D01*
X516744Y83403D01*
X516681Y83602D01*
X516606Y83790D01*
X516531Y83952D01*
X516469Y84115D01*
X516394Y84265D01*
X516269Y84515D01*
X516156Y84728D01*
X516056Y84890D01*
X515981Y85002D01*
X515931Y85065D01*
X515919Y85090D01*
X515669Y85378D01*
X515406Y85615D01*
X515131Y85827D01*
X514844Y86015D01*
X514556Y86165D01*
X514269Y86303D01*
X513981Y86402D01*
X513706Y86490D01*
X513444Y86553D01*
X513206Y86602D01*
X512994Y86640D01*
X512806Y86665D01*
X512644Y86677D01*
X512531Y86690D01*
D02*
G37*
G36*
X522981Y74190D02*
X520031D01*
Y71240D01*
X522981D01*
Y74190D01*
D02*
G37*
G36*
X548381Y86690D02*
X548281D01*
X547869Y86677D01*
X547494Y86628D01*
X547131Y86540D01*
X546794Y86440D01*
X546481Y86327D01*
X546194Y86190D01*
X545931Y86053D01*
X545694Y85903D01*
X545494Y85752D01*
X545306Y85615D01*
X545156Y85478D01*
X545019Y85365D01*
X544919Y85265D01*
X544856Y85177D01*
X544806Y85128D01*
X544794Y85115D01*
X544656Y84927D01*
X544531Y84728D01*
X544294Y84303D01*
X544094Y83828D01*
X543931Y83328D01*
X543781Y82815D01*
X543656Y82290D01*
X543556Y81778D01*
X543481Y81265D01*
X543419Y80778D01*
X543369Y80327D01*
X543356Y80115D01*
X543344Y79915D01*
X543331Y79740D01*
X543319Y79565D01*
X543306Y79403D01*
Y79265D01*
X543294Y79140D01*
Y79040D01*
Y78965D01*
Y78903D01*
Y78865D01*
Y78852D01*
Y78440D01*
X543306Y78053D01*
X543331Y77678D01*
X543356Y77315D01*
X543381Y76977D01*
X543419Y76640D01*
X543456Y76328D01*
X543506Y76028D01*
X543556Y75740D01*
X543606Y75465D01*
X543669Y75203D01*
X543731Y74965D01*
X543781Y74727D01*
X543844Y74515D01*
X543906Y74315D01*
X543981Y74115D01*
X544044Y73940D01*
X544106Y73778D01*
X544169Y73628D01*
X544231Y73478D01*
X544344Y73240D01*
X544444Y73040D01*
X544531Y72890D01*
X544594Y72790D01*
X544644Y72728D01*
X544656Y72702D01*
X544919Y72403D01*
X545206Y72127D01*
X545506Y71903D01*
X545806Y71702D01*
X546106Y71540D01*
X546406Y71403D01*
X546706Y71290D01*
X546981Y71190D01*
X547256Y71127D01*
X547494Y71065D01*
X547719Y71027D01*
X547906Y71003D01*
X548069Y70990D01*
X548181Y70977D01*
X548281D01*
X548694Y70990D01*
X549069Y71040D01*
X549431Y71127D01*
X549769Y71228D01*
X550081Y71340D01*
X550369Y71478D01*
X550631Y71615D01*
X550869Y71765D01*
X551069Y71903D01*
X551256Y72040D01*
X551406Y72177D01*
X551544Y72303D01*
X551644Y72390D01*
X551706Y72478D01*
X551756Y72527D01*
X551769Y72540D01*
X551906Y72728D01*
X552031Y72927D01*
X552269Y73365D01*
X552469Y73827D01*
X552644Y74327D01*
X552794Y74840D01*
X552906Y75365D01*
X553006Y75890D01*
X553094Y76402D01*
X553156Y76890D01*
X553206Y77340D01*
X553219Y77552D01*
X553231Y77753D01*
X553244Y77940D01*
X553256Y78115D01*
X553269Y78277D01*
Y78415D01*
X553281Y78527D01*
Y78640D01*
Y78715D01*
Y78777D01*
Y78815D01*
Y78828D01*
Y79228D01*
X553269Y79615D01*
X553244Y79990D01*
X553219Y80352D01*
X553181Y80703D01*
X553144Y81028D01*
X553094Y81353D01*
X553044Y81652D01*
X552994Y81940D01*
X552931Y82215D01*
X552869Y82477D01*
X552806Y82727D01*
X552731Y82965D01*
X552669Y83190D01*
X552594Y83403D01*
X552531Y83602D01*
X552456Y83790D01*
X552381Y83952D01*
X552319Y84115D01*
X552244Y84265D01*
X552119Y84515D01*
X552006Y84728D01*
X551906Y84890D01*
X551831Y85002D01*
X551781Y85065D01*
X551769Y85090D01*
X551519Y85378D01*
X551256Y85615D01*
X550981Y85827D01*
X550694Y86015D01*
X550406Y86165D01*
X550119Y86303D01*
X549831Y86402D01*
X549556Y86490D01*
X549294Y86553D01*
X549056Y86602D01*
X548844Y86640D01*
X548656Y86665D01*
X548494Y86677D01*
X548381Y86690D01*
D02*
G37*
G36*
X539756Y124158D02*
X529206D01*
Y108770D01*
X532306D01*
Y115307D01*
X538744D01*
Y117908D01*
X532306D01*
Y121557D01*
X539756D01*
Y124158D01*
D02*
G37*
G36*
X505094Y124407D02*
X504944D01*
X504594Y124395D01*
X504269Y124382D01*
X503944Y124357D01*
X503631Y124308D01*
X503344Y124270D01*
X503069Y124220D01*
X502819Y124158D01*
X502581Y124108D01*
X502369Y124045D01*
X502181Y123995D01*
X502019Y123933D01*
X501881Y123895D01*
X501781Y123857D01*
X501694Y123820D01*
X501644Y123808D01*
X501631Y123795D01*
X501244Y123608D01*
X500869Y123395D01*
X500531Y123158D01*
X500381Y123045D01*
X500231Y122933D01*
X500106Y122833D01*
X499994Y122732D01*
X499894Y122645D01*
X499806Y122557D01*
X499731Y122495D01*
X499681Y122445D01*
X499656Y122420D01*
X499644Y122407D01*
X499319Y122045D01*
X499044Y121683D01*
X498794Y121333D01*
X498594Y120995D01*
X498506Y120858D01*
X498431Y120720D01*
X498369Y120595D01*
X498319Y120495D01*
X498269Y120407D01*
X498244Y120345D01*
X498231Y120308D01*
X498219Y120295D01*
X498094Y119995D01*
X497994Y119670D01*
X497894Y119345D01*
X497819Y119008D01*
X497694Y118358D01*
X497644Y118033D01*
X497606Y117733D01*
X497581Y117445D01*
X497556Y117183D01*
X497544Y116957D01*
X497531Y116745D01*
X497519Y116583D01*
Y116457D01*
Y116420D01*
Y116383D01*
Y116370D01*
Y116358D01*
X497544Y115682D01*
X497606Y115058D01*
X497706Y114457D01*
X497831Y113908D01*
X497981Y113395D01*
X498156Y112920D01*
X498344Y112483D01*
X498531Y112095D01*
X498719Y111758D01*
X498894Y111445D01*
X499069Y111195D01*
X499219Y110983D01*
X499344Y110808D01*
X499444Y110695D01*
X499506Y110620D01*
X499531Y110595D01*
X499931Y110232D01*
X500344Y109907D01*
X500794Y109633D01*
X501244Y109382D01*
X501694Y109183D01*
X502144Y109020D01*
X502594Y108882D01*
X503019Y108770D01*
X503431Y108683D01*
X503794Y108620D01*
X504131Y108570D01*
X504281Y108557D01*
X504431Y108545D01*
X504556Y108533D01*
X504669Y108520D01*
X504756D01*
X504844Y108508D01*
X504994D01*
X505619Y108533D01*
X506194Y108595D01*
X506756Y108707D01*
X507269Y108833D01*
X507756Y108995D01*
X508194Y109170D01*
X508606Y109358D01*
X508969Y109557D01*
X509294Y109757D01*
X509581Y109945D01*
X509831Y110120D01*
X510031Y110283D01*
X510194Y110420D01*
X510319Y110520D01*
X510381Y110582D01*
X510406Y110608D01*
X510769Y111020D01*
X511081Y111458D01*
X511344Y111920D01*
X511581Y112408D01*
X511769Y112895D01*
X511931Y113370D01*
X512069Y113845D01*
X512181Y114307D01*
X512256Y114745D01*
X512319Y115145D01*
X512369Y115507D01*
X512381Y115670D01*
X512406Y115820D01*
Y115957D01*
X512419Y116070D01*
Y116182D01*
X512431Y116270D01*
Y116345D01*
Y116395D01*
Y116420D01*
Y116432D01*
X512406Y117120D01*
X512344Y117757D01*
X512244Y118370D01*
X512106Y118932D01*
X511956Y119457D01*
X511781Y119932D01*
X511594Y120370D01*
X511406Y120770D01*
X511219Y121120D01*
X511031Y121432D01*
X510856Y121695D01*
X510706Y121907D01*
X510569Y122070D01*
X510469Y122195D01*
X510406Y122270D01*
X510381Y122295D01*
X509981Y122670D01*
X509569Y122995D01*
X509119Y123270D01*
X508669Y123520D01*
X508219Y123720D01*
X507769Y123895D01*
X507319Y124032D01*
X506894Y124145D01*
X506494Y124232D01*
X506131Y124295D01*
X505794Y124345D01*
X505644Y124357D01*
X505506Y124370D01*
X505381Y124382D01*
X505269Y124395D01*
X505169D01*
X505094Y124407D01*
D02*
G37*
G36*
X520394Y105405D02*
X517444D01*
Y102680D01*
X520394D01*
Y105405D01*
D02*
G37*
G36*
X553719Y124158D02*
X542331D01*
Y108770D01*
X554019D01*
Y111370D01*
X545431D01*
Y115545D01*
X553144D01*
Y118145D01*
X545431D01*
Y121557D01*
X553719D01*
Y124158D01*
D02*
G37*
G36*
X520431Y124407D02*
X519906D01*
X519594Y124382D01*
X519294Y124357D01*
X519006Y124320D01*
X518744Y124283D01*
X518494Y124232D01*
X518256Y124195D01*
X518044Y124145D01*
X517856Y124095D01*
X517681Y124045D01*
X517544Y123995D01*
X517419Y123958D01*
X517319Y123920D01*
X517256Y123895D01*
X517206Y123882D01*
X517194Y123870D01*
X516969Y123770D01*
X516756Y123645D01*
X516556Y123532D01*
X516369Y123395D01*
X516194Y123270D01*
X516044Y123145D01*
X515894Y123008D01*
X515769Y122882D01*
X515656Y122770D01*
X515556Y122658D01*
X515469Y122557D01*
X515406Y122483D01*
X515356Y122407D01*
X515319Y122357D01*
X515294Y122320D01*
X515281Y122308D01*
X515169Y122120D01*
X515069Y121920D01*
X514969Y121720D01*
X514894Y121532D01*
X514781Y121158D01*
X514706Y120820D01*
X514669Y120670D01*
X514656Y120533D01*
X514644Y120407D01*
X514631Y120308D01*
X514619Y120220D01*
Y120158D01*
Y120120D01*
Y120107D01*
X514631Y119770D01*
X514681Y119445D01*
X514744Y119145D01*
X514844Y118858D01*
X514944Y118582D01*
X515069Y118320D01*
X515194Y118095D01*
X515331Y117870D01*
X515456Y117683D01*
X515581Y117508D01*
X515706Y117358D01*
X515806Y117233D01*
X515906Y117132D01*
X515969Y117070D01*
X516019Y117020D01*
X516031Y117008D01*
X516244Y116845D01*
X516469Y116683D01*
X516731Y116533D01*
X517006Y116395D01*
X517594Y116132D01*
X518169Y115908D01*
X518444Y115807D01*
X518694Y115733D01*
X518931Y115657D01*
X519144Y115595D01*
X519306Y115545D01*
X519431Y115507D01*
X519481Y115495D01*
X519519D01*
X519531Y115482D01*
X519544D01*
X519894Y115395D01*
X520206Y115320D01*
X520494Y115245D01*
X520756Y115182D01*
X520981Y115120D01*
X521194Y115070D01*
X521369Y115020D01*
X521519Y114970D01*
X521644Y114933D01*
X521756Y114908D01*
X521844Y114883D01*
X521919Y114857D01*
X521969Y114845D01*
X522006Y114832D01*
X522031Y114820D01*
X522306Y114708D01*
X522544Y114595D01*
X522744Y114482D01*
X522894Y114370D01*
X523006Y114283D01*
X523094Y114207D01*
X523144Y114157D01*
X523156Y114145D01*
X523269Y113995D01*
X523344Y113845D01*
X523406Y113682D01*
X523444Y113545D01*
X523469Y113420D01*
X523481Y113307D01*
Y113245D01*
Y113233D01*
Y113220D01*
X523469Y113057D01*
X523444Y112908D01*
X523406Y112770D01*
X523369Y112633D01*
X523244Y112370D01*
X523106Y112157D01*
X522956Y111983D01*
X522844Y111845D01*
X522794Y111795D01*
X522756Y111758D01*
X522731Y111745D01*
X522719Y111732D01*
X522569Y111620D01*
X522406Y111532D01*
X522231Y111445D01*
X522044Y111370D01*
X521669Y111258D01*
X521294Y111182D01*
X521119Y111158D01*
X520969Y111145D01*
X520819Y111133D01*
X520694Y111120D01*
X520594Y111108D01*
X520444D01*
X520181Y111120D01*
X519944Y111133D01*
X519706Y111170D01*
X519494Y111220D01*
X519294Y111270D01*
X519106Y111332D01*
X518944Y111395D01*
X518794Y111470D01*
X518656Y111532D01*
X518531Y111595D01*
X518431Y111658D01*
X518344Y111707D01*
X518281Y111758D01*
X518231Y111795D01*
X518206Y111808D01*
X518194Y111820D01*
X518044Y111958D01*
X517906Y112120D01*
X517781Y112295D01*
X517669Y112470D01*
X517481Y112845D01*
X517331Y113207D01*
X517269Y113382D01*
X517219Y113532D01*
X517181Y113682D01*
X517144Y113807D01*
X517119Y113908D01*
X517106Y113995D01*
X517094Y114045D01*
Y114058D01*
X514069Y113758D01*
X514144Y113283D01*
X514231Y112845D01*
X514356Y112433D01*
X514481Y112045D01*
X514631Y111695D01*
X514794Y111370D01*
X514956Y111082D01*
X515119Y110820D01*
X515269Y110582D01*
X515419Y110382D01*
X515556Y110207D01*
X515681Y110070D01*
X515781Y109958D01*
X515869Y109882D01*
X515919Y109833D01*
X515931Y109820D01*
X516244Y109582D01*
X516569Y109382D01*
X516931Y109195D01*
X517294Y109045D01*
X517669Y108920D01*
X518044Y108808D01*
X518406Y108720D01*
X518756Y108645D01*
X519094Y108595D01*
X519406Y108557D01*
X519694Y108520D01*
X519944Y108508D01*
X520144Y108495D01*
X520219Y108483D01*
X520419D01*
X520781Y108495D01*
X521131Y108508D01*
X521469Y108533D01*
X521781Y108570D01*
X522081Y108607D01*
X522356Y108658D01*
X522606Y108707D01*
X522844Y108757D01*
X523044Y108808D01*
X523231Y108858D01*
X523381Y108907D01*
X523519Y108945D01*
X523619Y108983D01*
X523694Y109008D01*
X523744Y109032D01*
X523756D01*
X524006Y109145D01*
X524231Y109270D01*
X524456Y109395D01*
X524656Y109532D01*
X524844Y109683D01*
X525006Y109820D01*
X525169Y109958D01*
X525306Y110095D01*
X525431Y110232D01*
X525544Y110357D01*
X525631Y110458D01*
X525706Y110557D01*
X525769Y110633D01*
X525806Y110695D01*
X525831Y110732D01*
X525844Y110745D01*
X525969Y110970D01*
X526094Y111182D01*
X526181Y111407D01*
X526269Y111620D01*
X526344Y111832D01*
X526406Y112045D01*
X526456Y112245D01*
X526494Y112420D01*
X526519Y112595D01*
X526544Y112758D01*
X526556Y112895D01*
X526569Y113007D01*
X526581Y113108D01*
Y113170D01*
Y113220D01*
Y113233D01*
X526569Y113507D01*
X526556Y113758D01*
X526519Y114007D01*
X526481Y114233D01*
X526431Y114445D01*
X526381Y114645D01*
X526331Y114832D01*
X526269Y115007D01*
X526206Y115157D01*
X526156Y115295D01*
X526106Y115408D01*
X526056Y115507D01*
X526019Y115583D01*
X525981Y115632D01*
X525969Y115670D01*
X525956Y115682D01*
X525706Y116033D01*
X525431Y116345D01*
X525144Y116607D01*
X524881Y116832D01*
X524631Y117008D01*
X524531Y117083D01*
X524431Y117145D01*
X524356Y117183D01*
X524306Y117220D01*
X524269Y117233D01*
X524256Y117245D01*
X524044Y117358D01*
X523806Y117457D01*
X523544Y117558D01*
X523269Y117657D01*
X522719Y117845D01*
X522444Y117932D01*
X522169Y118008D01*
X521919Y118082D01*
X521681Y118145D01*
X521469Y118208D01*
X521281Y118257D01*
X521119Y118295D01*
X521006Y118320D01*
X520931Y118345D01*
X520906D01*
X520506Y118445D01*
X520131Y118545D01*
X519806Y118645D01*
X519506Y118733D01*
X519244Y118820D01*
X519006Y118907D01*
X518806Y118995D01*
X518631Y119070D01*
X518481Y119132D01*
X518356Y119195D01*
X518256Y119245D01*
X518169Y119295D01*
X518119Y119333D01*
X518069Y119358D01*
X518056Y119383D01*
X518044D01*
X517894Y119533D01*
X517781Y119695D01*
X517706Y119845D01*
X517656Y119995D01*
X517619Y120120D01*
X517606Y120232D01*
X517594Y120295D01*
Y120320D01*
X517619Y120533D01*
X517669Y120720D01*
X517744Y120882D01*
X517844Y121020D01*
X517931Y121120D01*
X518006Y121207D01*
X518056Y121257D01*
X518081Y121270D01*
X518231Y121370D01*
X518394Y121458D01*
X518744Y121595D01*
X519094Y121695D01*
X519431Y121757D01*
X519594Y121783D01*
X519744Y121808D01*
X519869Y121820D01*
X519981D01*
X520081Y121833D01*
X520444D01*
X520669Y121808D01*
X520881Y121783D01*
X521069Y121745D01*
X521244Y121707D01*
X521406Y121670D01*
X521556Y121620D01*
X521681Y121570D01*
X521806Y121520D01*
X521906Y121470D01*
X521994Y121432D01*
X522056Y121395D01*
X522106Y121358D01*
X522156Y121333D01*
X522169Y121320D01*
X522181Y121308D01*
X522306Y121207D01*
X522406Y121082D01*
X522594Y120820D01*
X522744Y120545D01*
X522856Y120257D01*
X522944Y120008D01*
X522981Y119895D01*
X523006Y119795D01*
X523019Y119720D01*
X523031Y119658D01*
X523044Y119620D01*
Y119607D01*
X526144Y119745D01*
X526119Y120133D01*
X526056Y120495D01*
X525969Y120845D01*
X525869Y121170D01*
X525756Y121470D01*
X525619Y121745D01*
X525481Y121995D01*
X525344Y122232D01*
X525206Y122432D01*
X525069Y122620D01*
X524944Y122770D01*
X524831Y122895D01*
X524731Y123008D01*
X524656Y123070D01*
X524606Y123120D01*
X524594Y123133D01*
X524306Y123357D01*
X523981Y123557D01*
X523644Y123720D01*
X523294Y123870D01*
X522931Y123995D01*
X522569Y124095D01*
X522206Y124182D01*
X521869Y124245D01*
X521531Y124295D01*
X521231Y124345D01*
X520944Y124370D01*
X520706Y124382D01*
X520506Y124395D01*
X520431Y124407D01*
D02*
G37*
G36*
X495056Y124158D02*
X490394D01*
X487644Y113657D01*
X484869Y124158D01*
X480219D01*
Y108770D01*
X483094D01*
Y120882D01*
X486131Y108770D01*
X489119D01*
X492169Y120882D01*
X492181Y108770D01*
X495056D01*
Y124158D01*
D02*
G37*
G36*
X567781D02*
X555569D01*
Y121557D01*
X560131D01*
Y108770D01*
X563231D01*
Y121557D01*
X567781D01*
Y124158D01*
D02*
G37*
G36*
X514331Y101418D02*
X514231D01*
X513969Y101405D01*
X513731Y101367D01*
X513519Y101305D01*
X513331Y101242D01*
X513169Y101168D01*
X513056Y101118D01*
X512981Y101067D01*
X512969Y101055D01*
X512956D01*
X512844Y100980D01*
X512744Y100892D01*
X512631Y100793D01*
X512519Y100680D01*
X512306Y100430D01*
X512119Y100192D01*
X511944Y99955D01*
X511869Y99855D01*
X511806Y99768D01*
X511756Y99692D01*
X511731Y99630D01*
X511706Y99593D01*
X511694Y99580D01*
Y101168D01*
X508956D01*
Y90017D01*
X511906D01*
Y93455D01*
Y93967D01*
X511919Y94430D01*
X511931Y94855D01*
X511944Y95230D01*
X511956Y95580D01*
X511981Y95880D01*
X512006Y96155D01*
X512031Y96380D01*
X512044Y96580D01*
X512069Y96755D01*
X512094Y96892D01*
X512106Y96992D01*
X512119Y97080D01*
X512131Y97142D01*
X512144Y97167D01*
Y97180D01*
X512194Y97342D01*
X512244Y97492D01*
X512294Y97630D01*
X512356Y97755D01*
X512469Y97967D01*
X512581Y98142D01*
X512669Y98268D01*
X512744Y98355D01*
X512806Y98405D01*
X512819Y98418D01*
X512994Y98530D01*
X513169Y98618D01*
X513344Y98680D01*
X513506Y98730D01*
X513656Y98755D01*
X513769Y98768D01*
X513869D01*
X514106Y98743D01*
X514356Y98693D01*
X514594Y98618D01*
X514806Y98530D01*
X514981Y98430D01*
X515069Y98392D01*
X515131Y98355D01*
X515181Y98330D01*
X515219Y98305D01*
X515244Y98280D01*
X515256D01*
X516181Y100855D01*
X516006Y100955D01*
X515831Y101042D01*
X515481Y101180D01*
X515156Y101280D01*
X514856Y101342D01*
X514719Y101367D01*
X514606Y101392D01*
X514494Y101405D01*
X514406D01*
X514331Y101418D01*
D02*
G37*
G36*
X533581Y101168D02*
X530544D01*
X528431Y95468D01*
X528306Y95117D01*
X528256Y94968D01*
X528206Y94818D01*
X528169Y94705D01*
X528131Y94605D01*
X528119Y94555D01*
X528106Y94530D01*
X528081Y94418D01*
X528031Y94280D01*
X527981Y94117D01*
X527931Y93955D01*
X527881Y93805D01*
X527844Y93680D01*
X527831Y93642D01*
X527819Y93605D01*
X527806Y93580D01*
Y93568D01*
X527194Y95468D01*
X525106Y101168D01*
X522006D01*
X526494Y90017D01*
X529156D01*
X533581Y101168D01*
D02*
G37*
G36*
X552569Y101418D02*
X552469D01*
X552206Y101405D01*
X551969Y101367D01*
X551756Y101305D01*
X551569Y101242D01*
X551406Y101168D01*
X551294Y101118D01*
X551219Y101067D01*
X551206Y101055D01*
X551194D01*
X551081Y100980D01*
X550981Y100892D01*
X550869Y100793D01*
X550756Y100680D01*
X550544Y100430D01*
X550356Y100192D01*
X550181Y99955D01*
X550106Y99855D01*
X550044Y99768D01*
X549994Y99692D01*
X549969Y99630D01*
X549944Y99593D01*
X549931Y99580D01*
Y101168D01*
X547194D01*
Y90017D01*
X550144D01*
Y93455D01*
Y93967D01*
X550156Y94430D01*
X550169Y94855D01*
X550181Y95230D01*
X550194Y95580D01*
X550219Y95880D01*
X550244Y96155D01*
X550269Y96380D01*
X550281Y96580D01*
X550306Y96755D01*
X550331Y96892D01*
X550344Y96992D01*
X550356Y97080D01*
X550369Y97142D01*
X550381Y97167D01*
Y97180D01*
X550431Y97342D01*
X550481Y97492D01*
X550531Y97630D01*
X550594Y97755D01*
X550706Y97967D01*
X550819Y98142D01*
X550906Y98268D01*
X550981Y98355D01*
X551044Y98405D01*
X551056Y98418D01*
X551231Y98530D01*
X551406Y98618D01*
X551581Y98680D01*
X551744Y98730D01*
X551894Y98755D01*
X552006Y98768D01*
X552106D01*
X552344Y98743D01*
X552594Y98693D01*
X552831Y98618D01*
X553044Y98530D01*
X553219Y98430D01*
X553306Y98392D01*
X553369Y98355D01*
X553419Y98330D01*
X553456Y98305D01*
X553481Y98280D01*
X553494D01*
X554419Y100855D01*
X554244Y100955D01*
X554069Y101042D01*
X553719Y101180D01*
X553394Y101280D01*
X553094Y101342D01*
X552956Y101367D01*
X552844Y101392D01*
X552731Y101405D01*
X552644D01*
X552569Y101418D01*
D02*
G37*
%LPD*%
G36*
X539956Y99155D02*
X540119Y99142D01*
X540406Y99067D01*
X540669Y98955D01*
X540894Y98830D01*
X541069Y98705D01*
X541144Y98655D01*
X541206Y98593D01*
X541256Y98555D01*
X541294Y98518D01*
X541306Y98505D01*
X541319Y98492D01*
X541431Y98355D01*
X541531Y98217D01*
X541694Y97905D01*
X541819Y97580D01*
X541894Y97268D01*
X541931Y97118D01*
X541944Y96980D01*
X541969Y96855D01*
X541981Y96755D01*
Y96667D01*
X541994Y96605D01*
Y96555D01*
Y96543D01*
X537594D01*
Y96767D01*
X537619Y96968D01*
X537644Y97167D01*
X537681Y97342D01*
X537731Y97518D01*
X537781Y97680D01*
X537844Y97817D01*
X537894Y97955D01*
X537956Y98067D01*
X538006Y98168D01*
X538056Y98255D01*
X538106Y98330D01*
X538144Y98380D01*
X538181Y98418D01*
X538194Y98443D01*
X538206Y98455D01*
X538331Y98580D01*
X538456Y98693D01*
X538581Y98780D01*
X538719Y98867D01*
X538856Y98943D01*
X538981Y98993D01*
X539231Y99080D01*
X539456Y99130D01*
X539556Y99142D01*
X539631Y99155D01*
X539706Y99168D01*
X539794D01*
X539956Y99155D01*
D02*
G37*
G36*
X499006Y102793D02*
X499269Y102780D01*
X499506Y102768D01*
X499719Y102755D01*
X499906Y102743D01*
X500069Y102730D01*
X500206Y102717D01*
X500319Y102705D01*
X500419Y102692D01*
X500494Y102680D01*
X500556Y102667D01*
X500594D01*
X500619Y102655D01*
X500631D01*
X500944Y102568D01*
X501219Y102468D01*
X501456Y102342D01*
X501669Y102217D01*
X501831Y102105D01*
X501956Y102017D01*
X502031Y101955D01*
X502056Y101943D01*
Y101930D01*
X502256Y101717D01*
X502444Y101468D01*
X502594Y101217D01*
X502719Y100980D01*
X502819Y100768D01*
X502856Y100668D01*
X502881Y100593D01*
X502906Y100517D01*
X502931Y100468D01*
X502944Y100443D01*
Y100430D01*
X503006Y100242D01*
X503056Y100042D01*
X503131Y99605D01*
X503194Y99155D01*
X503231Y98717D01*
X503244Y98505D01*
X503256Y98317D01*
Y98142D01*
X503269Y97992D01*
Y97880D01*
Y97780D01*
Y97730D01*
Y97705D01*
Y97380D01*
X503256Y97067D01*
X503244Y96780D01*
X503219Y96505D01*
X503194Y96255D01*
X503169Y96030D01*
X503131Y95818D01*
X503106Y95618D01*
X503081Y95455D01*
X503044Y95305D01*
X503019Y95180D01*
X502994Y95068D01*
X502969Y94993D01*
X502956Y94930D01*
X502944Y94893D01*
Y94880D01*
X502881Y94692D01*
X502819Y94517D01*
X502756Y94367D01*
X502681Y94217D01*
X502619Y94080D01*
X502544Y93955D01*
X502419Y93755D01*
X502306Y93593D01*
X502219Y93480D01*
X502156Y93418D01*
X502131Y93392D01*
X501931Y93243D01*
X501731Y93105D01*
X501519Y92993D01*
X501319Y92905D01*
X501144Y92843D01*
X501006Y92792D01*
X500956Y92780D01*
X500919Y92768D01*
X500894Y92755D01*
X500881D01*
X500769Y92730D01*
X500631Y92705D01*
X500344Y92680D01*
X500031Y92655D01*
X499719Y92630D01*
X499431D01*
X499319Y92617D01*
X496681D01*
Y102805D01*
X498719D01*
X499006Y102793D01*
D02*
G37*
G36*
X512631Y84228D02*
X512806Y84190D01*
X512969Y84127D01*
X513106Y84065D01*
X513219Y84003D01*
X513306Y83940D01*
X513369Y83903D01*
X513381Y83890D01*
X513456Y83815D01*
X513531Y83740D01*
X513669Y83540D01*
X513781Y83315D01*
X513881Y83090D01*
X513956Y82877D01*
X513994Y82790D01*
X514019Y82702D01*
X514044Y82640D01*
X514056Y82590D01*
X514069Y82552D01*
Y82540D01*
X514119Y82328D01*
X514156Y82090D01*
X514194Y81827D01*
X514231Y81528D01*
X514256Y81227D01*
X514281Y80915D01*
X514306Y80303D01*
X514319Y80015D01*
X514331Y79740D01*
Y79490D01*
X514344Y79265D01*
Y79078D01*
Y79015D01*
Y78940D01*
Y78890D01*
Y78852D01*
Y78840D01*
Y78828D01*
Y78340D01*
X514331Y77890D01*
X514319Y77465D01*
X514294Y77090D01*
X514269Y76740D01*
X514244Y76428D01*
X514219Y76140D01*
X514194Y75890D01*
X514156Y75678D01*
X514131Y75490D01*
X514106Y75340D01*
X514081Y75203D01*
X514056Y75115D01*
X514044Y75040D01*
X514031Y75002D01*
Y74990D01*
X513981Y74827D01*
X513944Y74677D01*
X513831Y74427D01*
X513731Y74215D01*
X513619Y74040D01*
X513531Y73915D01*
X513456Y73827D01*
X513406Y73778D01*
X513381Y73765D01*
X513219Y73652D01*
X513056Y73565D01*
X512894Y73515D01*
X512756Y73465D01*
X512619Y73440D01*
X512519Y73427D01*
X512431D01*
X512231Y73440D01*
X512056Y73478D01*
X511894Y73527D01*
X511756Y73590D01*
X511644Y73652D01*
X511556Y73703D01*
X511506Y73740D01*
X511481Y73752D01*
X511406Y73827D01*
X511331Y73902D01*
X511206Y74102D01*
X511081Y74327D01*
X510981Y74553D01*
X510906Y74765D01*
X510869Y74853D01*
X510844Y74940D01*
X510819Y75002D01*
X510806Y75052D01*
X510794Y75090D01*
Y75103D01*
X510744Y75315D01*
X510706Y75552D01*
X510669Y75827D01*
X510644Y76115D01*
X510619Y76415D01*
X510594Y76727D01*
X510569Y77340D01*
X510556Y77640D01*
X510544Y77915D01*
Y78165D01*
X510531Y78390D01*
Y78565D01*
Y78640D01*
Y78715D01*
Y78765D01*
Y78803D01*
Y78815D01*
Y78828D01*
Y79315D01*
X510544Y79765D01*
X510556Y80190D01*
X510581Y80565D01*
X510606Y80915D01*
X510631Y81227D01*
X510656Y81515D01*
X510681Y81765D01*
X510706Y81977D01*
X510731Y82165D01*
X510756Y82315D01*
X510781Y82440D01*
X510806Y82540D01*
X510819Y82615D01*
X510831Y82652D01*
Y82665D01*
X510881Y82828D01*
X510919Y82977D01*
X511031Y83227D01*
X511131Y83440D01*
X511231Y83615D01*
X511331Y83740D01*
X511406Y83828D01*
X511456Y83877D01*
X511469Y83890D01*
X511631Y84003D01*
X511794Y84090D01*
X511956Y84153D01*
X512106Y84202D01*
X512244Y84228D01*
X512344Y84240D01*
X512431D01*
X512631Y84228D01*
D02*
G37*
G36*
X548481D02*
X548656Y84190D01*
X548819Y84127D01*
X548956Y84065D01*
X549069Y84003D01*
X549156Y83940D01*
X549219Y83903D01*
X549231Y83890D01*
X549306Y83815D01*
X549381Y83740D01*
X549519Y83540D01*
X549631Y83315D01*
X549731Y83090D01*
X549806Y82877D01*
X549844Y82790D01*
X549869Y82702D01*
X549894Y82640D01*
X549906Y82590D01*
X549919Y82552D01*
Y82540D01*
X549969Y82328D01*
X550006Y82090D01*
X550044Y81827D01*
X550081Y81528D01*
X550106Y81227D01*
X550131Y80915D01*
X550156Y80303D01*
X550169Y80015D01*
X550181Y79740D01*
Y79490D01*
X550194Y79265D01*
Y79078D01*
Y79015D01*
Y78940D01*
Y78890D01*
Y78852D01*
Y78840D01*
Y78828D01*
Y78340D01*
X550181Y77890D01*
X550169Y77465D01*
X550144Y77090D01*
X550119Y76740D01*
X550094Y76428D01*
X550069Y76140D01*
X550044Y75890D01*
X550006Y75678D01*
X549981Y75490D01*
X549956Y75340D01*
X549931Y75203D01*
X549906Y75115D01*
X549894Y75040D01*
X549881Y75002D01*
Y74990D01*
X549831Y74827D01*
X549794Y74677D01*
X549681Y74427D01*
X549581Y74215D01*
X549469Y74040D01*
X549381Y73915D01*
X549306Y73827D01*
X549256Y73778D01*
X549231Y73765D01*
X549069Y73652D01*
X548906Y73565D01*
X548744Y73515D01*
X548606Y73465D01*
X548469Y73440D01*
X548369Y73427D01*
X548281D01*
X548081Y73440D01*
X547906Y73478D01*
X547744Y73527D01*
X547606Y73590D01*
X547494Y73652D01*
X547406Y73703D01*
X547356Y73740D01*
X547331Y73752D01*
X547256Y73827D01*
X547181Y73902D01*
X547056Y74102D01*
X546931Y74327D01*
X546831Y74553D01*
X546756Y74765D01*
X546719Y74853D01*
X546694Y74940D01*
X546669Y75002D01*
X546656Y75052D01*
X546644Y75090D01*
Y75103D01*
X546594Y75315D01*
X546556Y75552D01*
X546519Y75827D01*
X546494Y76115D01*
X546469Y76415D01*
X546444Y76727D01*
X546419Y77340D01*
X546406Y77640D01*
X546394Y77915D01*
Y78165D01*
X546381Y78390D01*
Y78565D01*
Y78640D01*
Y78715D01*
Y78765D01*
Y78803D01*
Y78815D01*
Y78828D01*
Y79315D01*
X546394Y79765D01*
X546406Y80190D01*
X546431Y80565D01*
X546456Y80915D01*
X546481Y81227D01*
X546506Y81515D01*
X546531Y81765D01*
X546556Y81977D01*
X546581Y82165D01*
X546606Y82315D01*
X546631Y82440D01*
X546656Y82540D01*
X546669Y82615D01*
X546681Y82652D01*
Y82665D01*
X546731Y82828D01*
X546769Y82977D01*
X546881Y83227D01*
X546981Y83440D01*
X547081Y83615D01*
X547181Y83740D01*
X547256Y83828D01*
X547306Y83877D01*
X547319Y83890D01*
X547481Y84003D01*
X547644Y84090D01*
X547806Y84153D01*
X547956Y84202D01*
X548094Y84228D01*
X548194Y84240D01*
X548281D01*
X548481Y84228D01*
D02*
G37*
G36*
X505331Y121745D02*
X505669Y121707D01*
X505981Y121633D01*
X506281Y121557D01*
X506556Y121458D01*
X506806Y121345D01*
X507031Y121220D01*
X507244Y121107D01*
X507431Y120983D01*
X507594Y120858D01*
X507744Y120745D01*
X507856Y120645D01*
X507944Y120570D01*
X508019Y120508D01*
X508056Y120457D01*
X508069Y120445D01*
X508269Y120183D01*
X508456Y119907D01*
X508606Y119595D01*
X508744Y119282D01*
X508856Y118957D01*
X508944Y118632D01*
X509019Y118307D01*
X509081Y117995D01*
X509131Y117695D01*
X509169Y117408D01*
X509194Y117157D01*
X509219Y116945D01*
Y116758D01*
X509231Y116683D01*
Y116620D01*
Y116570D01*
Y116533D01*
Y116520D01*
Y116507D01*
X509219Y116020D01*
X509181Y115570D01*
X509119Y115145D01*
X509044Y114758D01*
X508956Y114395D01*
X508856Y114058D01*
X508744Y113770D01*
X508631Y113495D01*
X508519Y113258D01*
X508406Y113057D01*
X508306Y112882D01*
X508219Y112745D01*
X508144Y112633D01*
X508081Y112557D01*
X508044Y112507D01*
X508031Y112495D01*
X507806Y112258D01*
X507556Y112057D01*
X507306Y111870D01*
X507056Y111720D01*
X506794Y111595D01*
X506544Y111483D01*
X506294Y111395D01*
X506056Y111320D01*
X505844Y111270D01*
X505631Y111232D01*
X505444Y111195D01*
X505294Y111182D01*
X505156Y111170D01*
X505069Y111158D01*
X504981D01*
X504644Y111170D01*
X504319Y111220D01*
X504006Y111283D01*
X503719Y111370D01*
X503456Y111470D01*
X503194Y111583D01*
X502969Y111707D01*
X502756Y111832D01*
X502569Y111958D01*
X502406Y112070D01*
X502256Y112182D01*
X502144Y112283D01*
X502044Y112370D01*
X501969Y112433D01*
X501931Y112483D01*
X501919Y112495D01*
X501706Y112758D01*
X501519Y113057D01*
X501369Y113357D01*
X501231Y113682D01*
X501106Y114007D01*
X501006Y114345D01*
X500931Y114670D01*
X500869Y114982D01*
X500819Y115282D01*
X500781Y115558D01*
X500756Y115807D01*
X500744Y116033D01*
X500731Y116208D01*
X500719Y116345D01*
Y116395D01*
Y116432D01*
Y116445D01*
Y116457D01*
X500731Y116945D01*
X500769Y117395D01*
X500831Y117807D01*
X500906Y118208D01*
X500994Y118558D01*
X501094Y118883D01*
X501194Y119183D01*
X501306Y119445D01*
X501419Y119670D01*
X501519Y119883D01*
X501619Y120045D01*
X501706Y120183D01*
X501781Y120295D01*
X501844Y120370D01*
X501881Y120420D01*
X501894Y120432D01*
X502119Y120670D01*
X502369Y120870D01*
X502619Y121045D01*
X502869Y121195D01*
X503131Y121333D01*
X503381Y121432D01*
X503644Y121520D01*
X503881Y121595D01*
X504106Y121645D01*
X504319Y121683D01*
X504506Y121720D01*
X504669Y121732D01*
X504794Y121745D01*
X504894Y121757D01*
X504981D01*
X505331Y121745D01*
D02*
G37*
D10*
X229300Y349600D02*
D03*
X77765Y349600D02*
D03*
X229300Y309600D02*
D03*
X173100Y426300D02*
D03*
X169300Y319600D02*
D03*
X79300Y309600D02*
D03*
X39300Y369600D02*
D03*
X8700Y322600D02*
D03*
X149300Y299600D02*
D03*
X287000Y431300D02*
D03*
X139100Y439200D02*
D03*
X158600Y439500D02*
D03*
X530000Y200000D02*
D03*
X378465Y200000D02*
D03*
X530000Y160000D02*
D03*
X473800Y276700D02*
D03*
X470000Y170000D02*
D03*
X380000Y160000D02*
D03*
X340000Y220000D02*
D03*
X309400Y173000D02*
D03*
X450000Y150000D02*
D03*
X587700Y281700D02*
D03*
X439800Y289600D02*
D03*
X459300Y289900D02*
D03*
Y589900D02*
D03*
X439800Y589600D02*
D03*
X470000Y470000D02*
D03*
X530000Y500000D02*
D03*
X587700Y581700D02*
D03*
X309400Y473000D02*
D03*
X473800Y576700D02*
D03*
X340000Y520000D02*
D03*
X530000Y460000D02*
D03*
X380000D02*
D03*
X450000Y450000D02*
D03*
X378465Y500000D02*
D03*
D11*
X209300Y375112D02*
D03*
Y364088D02*
D03*
X57765Y375112D02*
D03*
Y364088D02*
D03*
X289300Y324088D02*
D03*
Y335112D02*
D03*
X249300Y435112D02*
D03*
Y424088D02*
D03*
X219300Y324088D02*
D03*
Y335112D02*
D03*
X138119Y324088D02*
D03*
Y335112D02*
D03*
X93050Y439112D02*
D03*
Y428088D02*
D03*
X64812Y324088D02*
D03*
Y335112D02*
D03*
X46500Y425112D02*
D03*
Y414088D02*
D03*
X510000Y225512D02*
D03*
Y214488D02*
D03*
X358465Y225512D02*
D03*
Y214488D02*
D03*
X590000Y174488D02*
D03*
Y185512D02*
D03*
X550000Y285512D02*
D03*
Y274488D02*
D03*
X520000Y174488D02*
D03*
Y185512D02*
D03*
X438819Y174488D02*
D03*
Y185512D02*
D03*
X393750Y289512D02*
D03*
Y278488D02*
D03*
X365512Y174488D02*
D03*
Y185512D02*
D03*
X347200Y275512D02*
D03*
Y264488D02*
D03*
X358465Y525512D02*
D03*
Y514488D02*
D03*
X510000Y525512D02*
D03*
Y514488D02*
D03*
X365512Y474488D02*
D03*
Y485512D02*
D03*
X347200Y575512D02*
D03*
Y564488D02*
D03*
X393750Y589512D02*
D03*
Y578488D02*
D03*
X438819Y474488D02*
D03*
Y485512D02*
D03*
X520000Y474488D02*
D03*
Y485512D02*
D03*
X550000Y585512D02*
D03*
Y574488D02*
D03*
X590000Y474488D02*
D03*
Y485512D02*
D03*
D12*
X197765Y389600D02*
D03*
X180835D02*
D03*
X46229Y389600D02*
D03*
X29300D02*
D03*
X237765Y389600D02*
D03*
X220835D02*
D03*
X86229Y389600D02*
D03*
X69300D02*
D03*
X498465Y240000D02*
D03*
X481535D02*
D03*
X346929Y240000D02*
D03*
X330000D02*
D03*
X538465Y240000D02*
D03*
X521535D02*
D03*
X386929Y240000D02*
D03*
X370000D02*
D03*
X538465Y540000D02*
D03*
X521535D02*
D03*
X498465D02*
D03*
X481535D02*
D03*
X386929Y540000D02*
D03*
X370000D02*
D03*
X346929D02*
D03*
X330000D02*
D03*
D13*
X128300Y402300D02*
D03*
X278300D02*
D03*
X128300Y352300D02*
D03*
X278300D02*
D03*
X429000Y252700D02*
D03*
X579000D02*
D03*
X429000Y202700D02*
D03*
X579000D02*
D03*
X429000Y552700D02*
D03*
X579000D02*
D03*
X429000Y502700D02*
D03*
X579000D02*
D03*
D14*
X119300Y429600D02*
D03*
X269300D02*
D03*
X119300Y379600D02*
D03*
X269300D02*
D03*
X420000Y280000D02*
D03*
X570000D02*
D03*
X420000Y230000D02*
D03*
X570000D02*
D03*
X420000Y580000D02*
D03*
X570000D02*
D03*
X420000Y530000D02*
D03*
X570000D02*
D03*
D15*
X110300Y402300D02*
D03*
X260300D02*
D03*
X110300Y352300D02*
D03*
X260300D02*
D03*
X411000Y252700D02*
D03*
X561000D02*
D03*
X411000Y202700D02*
D03*
X561000D02*
D03*
X411000Y552700D02*
D03*
X561000D02*
D03*
X411000Y502700D02*
D03*
X561000D02*
D03*
D16*
X269300Y333600D02*
D03*
X273050Y325600D02*
D03*
X265550D02*
D03*
X239300Y413600D02*
D03*
X243050Y405600D02*
D03*
X235550D02*
D03*
X209300Y353600D02*
D03*
X213050Y345600D02*
D03*
X205550D02*
D03*
X118119Y333600D02*
D03*
X121869Y325600D02*
D03*
X114369D02*
D03*
X83050Y417600D02*
D03*
X86800Y409600D02*
D03*
X79300D02*
D03*
X54812Y353600D02*
D03*
X58562Y345600D02*
D03*
X51062D02*
D03*
X243300Y338100D02*
D03*
X247050Y330100D02*
D03*
X239550D02*
D03*
X229300Y433600D02*
D03*
X233050Y425600D02*
D03*
X225550D02*
D03*
X199300Y333600D02*
D03*
X203050Y325600D02*
D03*
X195550D02*
D03*
X97100Y336900D02*
D03*
X100850Y328900D02*
D03*
X93350D02*
D03*
X73050Y437600D02*
D03*
X76800Y429600D02*
D03*
X69300D02*
D03*
X44812Y333600D02*
D03*
X48562Y325600D02*
D03*
X41062D02*
D03*
X570000Y184000D02*
D03*
X573750Y176000D02*
D03*
X566250D02*
D03*
X540000Y264000D02*
D03*
X543750Y256000D02*
D03*
X536250D02*
D03*
X510000Y204000D02*
D03*
X513750Y196000D02*
D03*
X506250D02*
D03*
X418819Y184000D02*
D03*
X422569Y176000D02*
D03*
X415069D02*
D03*
X383750Y268000D02*
D03*
X387500Y260000D02*
D03*
X380000D02*
D03*
X355512Y204000D02*
D03*
X359262Y196000D02*
D03*
X351762D02*
D03*
X544000Y188500D02*
D03*
X547750Y180500D02*
D03*
X540250D02*
D03*
X530000Y284000D02*
D03*
X533750Y276000D02*
D03*
X526250D02*
D03*
X500000Y184000D02*
D03*
X503750Y176000D02*
D03*
X496250D02*
D03*
X397800Y187300D02*
D03*
X401550Y179300D02*
D03*
X394050D02*
D03*
X373750Y288000D02*
D03*
X377500Y280000D02*
D03*
X370000D02*
D03*
X345512Y184000D02*
D03*
X349262Y176000D02*
D03*
X341762D02*
D03*
X355512Y504000D02*
D03*
X359262Y496000D02*
D03*
X351762D02*
D03*
X345512Y484000D02*
D03*
X349262Y476000D02*
D03*
X341762D02*
D03*
X373750Y588000D02*
D03*
X377500Y580000D02*
D03*
X370000D02*
D03*
X397800Y487300D02*
D03*
X401550Y479300D02*
D03*
X394050D02*
D03*
X500000Y484000D02*
D03*
X503750Y476000D02*
D03*
X496250D02*
D03*
X530000Y584000D02*
D03*
X533750Y576000D02*
D03*
X526250D02*
D03*
X544000Y488500D02*
D03*
X547750Y480500D02*
D03*
X540250D02*
D03*
X383750Y568000D02*
D03*
X387500Y560000D02*
D03*
X380000D02*
D03*
X418819Y484000D02*
D03*
X422569Y476000D02*
D03*
X415069D02*
D03*
X510000Y504000D02*
D03*
X513750Y496000D02*
D03*
X506250D02*
D03*
X540000Y564000D02*
D03*
X543750Y556000D02*
D03*
X536250D02*
D03*
X570000Y484000D02*
D03*
X573750Y476000D02*
D03*
X566250D02*
D03*
D17*
X173300Y339600D02*
D03*
X165300Y335850D02*
D03*
Y343350D02*
D03*
X28812Y329600D02*
D03*
X20812Y325850D02*
D03*
Y333350D02*
D03*
X474000Y190000D02*
D03*
X466000Y186250D02*
D03*
Y193750D02*
D03*
X329512Y180000D02*
D03*
X321512Y176250D02*
D03*
Y183750D02*
D03*
X474000Y490000D02*
D03*
X466000Y486250D02*
D03*
Y493750D02*
D03*
X329512Y480000D02*
D03*
X321512Y476250D02*
D03*
Y483750D02*
D03*
D18*
X254812Y309600D02*
D03*
X243788D02*
D03*
X184812Y409600D02*
D03*
X173788D02*
D03*
X174812Y309600D02*
D03*
X163788D02*
D03*
X103631D02*
D03*
X92607D02*
D03*
X28562Y413600D02*
D03*
X17538D02*
D03*
X20324Y309600D02*
D03*
X9300D02*
D03*
X284812D02*
D03*
X273788D02*
D03*
X214812Y409600D02*
D03*
X203788D02*
D03*
X204812Y309600D02*
D03*
X193788D02*
D03*
X133631D02*
D03*
X122607D02*
D03*
X50324D02*
D03*
X39300D02*
D03*
X174812Y359600D02*
D03*
X163788D02*
D03*
X30324Y349600D02*
D03*
X19300D02*
D03*
X153788Y379600D02*
D03*
X164812D02*
D03*
X9300Y369600D02*
D03*
X20324D02*
D03*
X555512Y160000D02*
D03*
X544488D02*
D03*
X485512Y260000D02*
D03*
X474488D02*
D03*
X475512Y160000D02*
D03*
X464488D02*
D03*
X404331D02*
D03*
X393307D02*
D03*
X329262Y264000D02*
D03*
X318238D02*
D03*
X321024Y160000D02*
D03*
X310000D02*
D03*
X585512D02*
D03*
X574488D02*
D03*
X515512Y260000D02*
D03*
X504488D02*
D03*
X505512Y160000D02*
D03*
X494488D02*
D03*
X434331D02*
D03*
X423307D02*
D03*
X351024D02*
D03*
X340000D02*
D03*
X475512Y210000D02*
D03*
X464488D02*
D03*
X331024Y200000D02*
D03*
X320000D02*
D03*
X454488Y230000D02*
D03*
X465512D02*
D03*
X310000Y220000D02*
D03*
X321024D02*
D03*
X475512Y510000D02*
D03*
X464488D02*
D03*
X454488Y530000D02*
D03*
X465512D02*
D03*
X321024Y460000D02*
D03*
X310000D02*
D03*
X351024D02*
D03*
X340000D02*
D03*
X310000Y520000D02*
D03*
X321024D02*
D03*
X331024Y500000D02*
D03*
X320000D02*
D03*
X434331Y460000D02*
D03*
X423307D02*
D03*
X505512D02*
D03*
X494488D02*
D03*
X515512Y560000D02*
D03*
X504488D02*
D03*
X585512Y460000D02*
D03*
X574488D02*
D03*
X329262Y564000D02*
D03*
X318238D02*
D03*
X404331Y460000D02*
D03*
X393307D02*
D03*
X475512D02*
D03*
X464488D02*
D03*
X485512Y560000D02*
D03*
X474488D02*
D03*
X555512Y460000D02*
D03*
X544488D02*
D03*
D19*
X139655Y420700D02*
D03*
X158947D02*
D03*
X139655Y397200D02*
D03*
X158947D02*
D03*
X440355Y271100D02*
D03*
X459647D02*
D03*
X440355Y247600D02*
D03*
X459647D02*
D03*
X440355Y547600D02*
D03*
X459647D02*
D03*
X440355Y571100D02*
D03*
X459647D02*
D03*
D20*
X590000Y10000D02*
D03*
X20000Y550000D02*
D03*
D21*
X158947Y397200D02*
Y420700D01*
Y390653D02*
Y397200D01*
Y390653D02*
X160000Y389600D01*
X180835D01*
X184812Y409600D02*
X203788D01*
X209200Y425600D02*
X225550D01*
X203788Y420188D02*
X209200Y425600D01*
X203788Y409600D02*
Y420188D01*
X278300Y388600D02*
Y402300D01*
X158600Y421047D02*
Y439500D01*
X139100Y421255D02*
Y439200D01*
X139655Y397200D02*
Y420700D01*
X128300Y402300D02*
X139255D01*
X128300Y388600D02*
Y402300D01*
X121869Y325600D02*
X131381Y335112D01*
X138119D01*
X118119Y333600D02*
Y344481D01*
X110300Y352300D02*
X118119Y344481D01*
X133631Y309600D02*
X134600Y308631D01*
X133631Y300131D02*
Y309600D01*
X133100Y299600D02*
X133631Y300131D01*
X103631Y309600D02*
X122607D01*
X103631D02*
Y317080D01*
X101662Y319049D02*
X103631Y317080D01*
X95651Y319049D02*
X101662D01*
X93350Y321350D02*
X95651Y319049D01*
X93350Y321350D02*
Y328495D01*
X79300Y309600D02*
X92607D01*
X97100Y336900D02*
X103069D01*
X114369Y325600D01*
X132531Y318500D02*
X138119Y324088D01*
X118300Y318500D02*
X132531D01*
X114369Y322431D02*
X118300Y318500D01*
X114369Y322431D02*
Y325600D01*
X50324Y299724D02*
Y309600D01*
X50200Y299600D02*
X50324Y299724D01*
X41062Y311362D02*
Y325600D01*
X39300Y309600D02*
X41062Y311362D01*
X20324Y309600D02*
X39300D01*
X48562Y311362D02*
Y325600D01*
X14827Y325850D02*
X20812D01*
X11446Y329231D02*
X14827Y325850D01*
X-531Y329231D02*
X11446D01*
X-700Y329400D02*
X-531Y329231D01*
X8700Y310200D02*
Y322600D01*
X54812Y353600D02*
X57765Y356553D01*
Y364088D01*
X62562Y349600D02*
X77765D01*
X58562Y345600D02*
X62562Y349600D01*
X58562Y341362D02*
Y345600D01*
Y341362D02*
X64812Y335112D01*
X51062Y339850D02*
Y345600D01*
X44812Y333600D02*
X51062Y339850D01*
X59342Y324088D02*
X64812D01*
X54392Y329038D02*
X59342Y324088D01*
X54392Y329038D02*
Y329894D01*
X50686Y333600D02*
X54392Y329894D01*
X44812Y333600D02*
X50686D01*
X19300Y349600D02*
Y368576D01*
X20324Y369600D01*
X39300D01*
X-600D02*
X9300D01*
X-700Y369500D02*
X-600Y369600D01*
X46229Y389600D02*
X57765Y378065D01*
X69300Y389600D01*
X29300D02*
X39127Y399427D01*
X-700Y405700D02*
X-674Y405726D01*
X46500Y414088D02*
X53788D01*
X28562Y413600D02*
X47538D01*
X17538Y372385D02*
Y413600D01*
Y372385D02*
X20324Y369600D01*
X388Y425112D02*
X46500D01*
X-700Y426200D02*
X388Y425112D01*
X91538Y437600D02*
X93050Y439112D01*
X52812Y353600D02*
X54812D01*
X28812Y329600D02*
X44763Y345551D01*
Y348209D01*
X45231Y348678D01*
Y349894D01*
X47768Y352431D01*
X51642D01*
X52812Y353600D01*
X20812Y333350D02*
Y336512D01*
X30324Y346024D01*
Y349600D01*
X39127Y399427D02*
X59002D01*
X86800Y409600D02*
X93050Y415850D01*
Y428088D01*
X77175Y417600D02*
X83050D01*
X53788Y414088D02*
X69300Y429600D01*
X73050Y437600D02*
X91538D01*
X173100Y410288D02*
Y426300D01*
X271000Y431300D02*
X287000D01*
X257000Y405600D02*
X260300Y402300D01*
X243050Y405600D02*
X257000D01*
X243050D02*
X249300D01*
X197765Y389600D02*
X209300Y378064D01*
Y375112D02*
Y378064D01*
X220835Y389600D01*
X260300Y352300D02*
X269300Y343300D01*
Y333600D02*
Y343300D01*
X284812Y299988D02*
Y309600D01*
Y299988D02*
X285200Y299600D01*
X229300Y309600D02*
X243788D01*
X217050Y349600D02*
X229300D01*
X213050Y345600D02*
X217050Y349600D01*
X213050Y341362D02*
Y345600D01*
Y341362D02*
X219300Y335112D01*
X214512Y324088D02*
X219300D01*
X208881Y329719D02*
X214512Y324088D01*
X208881Y329719D02*
Y329894D01*
X205174Y333600D02*
X208881Y329894D01*
X199300Y333600D02*
X205174D01*
X205550Y333976D02*
Y345600D01*
X174812Y309600D02*
X193788D01*
X204812Y299788D02*
Y309600D01*
X203050Y311362D02*
Y325600D01*
Y311362D02*
X204812Y309600D01*
X163788Y314088D02*
X169300Y319600D01*
X163788Y309600D02*
Y314088D01*
X193788Y309600D02*
Y323838D01*
X195550Y325600D01*
X173300Y339600D02*
X188100Y354400D01*
X208500D01*
X209300Y353600D01*
Y364088D01*
X209300Y364088D01*
X174812Y352862D02*
Y359600D01*
X165300Y343350D02*
X174812Y352862D01*
X164650Y335200D02*
X165300Y335850D01*
X149300Y335200D02*
X164650D01*
X163788Y359600D02*
Y378576D01*
X164812Y379600D01*
X180835Y389600D02*
X185800D01*
Y392421D02*
X194179Y400800D01*
X185800Y389600D02*
Y392421D01*
X254812Y309600D02*
X273788D01*
X265550Y322975D02*
Y325600D01*
X243300Y338100D02*
X254000D01*
X265550Y326550D01*
Y325600D02*
Y326550D01*
X247050Y330100D02*
X255150Y322000D01*
X255450Y322300D01*
X255900D01*
X239550Y325629D02*
Y330100D01*
Y325629D02*
X240600D01*
X254812Y311418D01*
Y309600D02*
Y311418D01*
X265550Y322975D02*
X270825Y317700D01*
X282912D01*
X289300Y324088D01*
X278300Y352300D02*
X287600D01*
X288000Y352700D01*
X164812Y379600D02*
X176200D01*
X176000Y429200D02*
X182700D01*
X173100Y426300D02*
X176000Y429200D01*
X237765Y389600D02*
X243050Y394885D01*
Y405600D01*
X233425Y413600D02*
X239300D01*
X225631Y414714D02*
X231665Y420748D01*
X226444Y408415D02*
X228240D01*
X194179Y400800D02*
X218829D01*
X226444Y408415D01*
X214812Y409600D02*
X219926Y414714D01*
X225631D01*
X228240Y408415D02*
X233425Y413600D01*
X230000Y400050D02*
X235550Y405600D01*
X230000Y399900D02*
Y400050D01*
X219700Y434900D02*
X228000D01*
X229300Y433600D01*
X231665Y420748D02*
X233050D01*
Y425195D01*
X249300Y405600D02*
Y424088D01*
X239261Y413639D02*
X239300Y413600D01*
X239261Y413639D02*
Y418051D01*
X239349Y418139D01*
Y432488D01*
X278300Y407400D02*
X284800Y413900D01*
X278300Y402300D02*
Y407400D01*
X229300Y433600D02*
Y437400D01*
X234095Y442195D01*
X239261Y432576D02*
X239349Y432488D01*
X234095Y442195D02*
X242217D01*
X249300Y435112D01*
X287000Y431300D02*
Y440200D01*
X107300Y441600D02*
X119300Y429600D01*
X105100Y441600D02*
X107300D01*
X64988Y405412D02*
X67600Y402800D01*
X95800Y376900D02*
X98500Y379600D01*
X119300D01*
X59002Y399427D02*
X64988Y405412D01*
X77175Y417600D01*
X86800Y409600D02*
X103000D01*
X110300Y402300D01*
X86229Y389600D02*
X87765Y391135D01*
X86229Y409029D02*
X87765Y407494D01*
Y391135D02*
Y407494D01*
X79300Y401200D02*
Y409600D01*
X63900Y438600D02*
X72050D01*
X73050Y437600D01*
X128300Y352300D02*
X128384Y352383D01*
X148817D02*
X148900Y352300D01*
X128384Y352383D02*
X148817D01*
X138119Y335112D02*
Y343919D01*
X273050Y325600D02*
X282562Y335112D01*
X278012D02*
X282562D01*
X289300D01*
X459647Y247600D02*
Y271100D01*
Y241053D02*
Y247600D01*
Y241053D02*
X460700Y240000D01*
X481535D01*
X485512Y260000D02*
X504488D01*
X509900Y276000D02*
X526250D01*
X504488Y270588D02*
X509900Y276000D01*
X504488Y260000D02*
Y270588D01*
X579000Y239000D02*
Y252700D01*
X459300Y271447D02*
Y289900D01*
X439800Y271655D02*
Y289600D01*
X440355Y247600D02*
Y271100D01*
X429000Y252700D02*
X439955D01*
X429000Y239000D02*
Y252700D01*
X422569Y176000D02*
X432081Y185512D01*
X438819D01*
X418819Y184000D02*
Y194881D01*
X411000Y202700D02*
X418819Y194881D01*
X434331Y160000D02*
X435300Y159031D01*
X434331Y150531D02*
Y160000D01*
X433800Y150000D02*
X434331Y150531D01*
X404331Y160000D02*
X423307D01*
X404331D02*
Y167480D01*
X402362Y169449D02*
X404331Y167480D01*
X396351Y169449D02*
X402362D01*
X394050Y171750D02*
X396351Y169449D01*
X394050Y171750D02*
Y178894D01*
X380000Y160000D02*
X393307D01*
X397800Y187300D02*
X403769D01*
X415069Y176000D01*
X433231Y168900D02*
X438819Y174488D01*
X419000Y168900D02*
X433231D01*
X415069Y172831D02*
X419000Y168900D01*
X415069Y172831D02*
Y176000D01*
X351024Y150124D02*
Y160000D01*
X350900Y150000D02*
X351024Y150124D01*
X341762Y161762D02*
Y176000D01*
X340000Y160000D02*
X341762Y161762D01*
X321024Y160000D02*
X340000D01*
X349262Y161762D02*
Y176000D01*
X315527Y176250D02*
X321512D01*
X312146Y179631D02*
X315527Y176250D01*
X300169Y179631D02*
X312146D01*
X300000Y179800D02*
X300169Y179631D01*
X309400Y160600D02*
Y173000D01*
X355512Y204000D02*
X358465Y206953D01*
Y214488D01*
X363262Y200000D02*
X378465D01*
X359262Y196000D02*
X363262Y200000D01*
X359262Y191762D02*
Y196000D01*
Y191762D02*
X365512Y185512D01*
X351762Y190250D02*
Y196000D01*
X345512Y184000D02*
X351762Y190250D01*
X360043Y174488D02*
X365512D01*
X355093Y179438D02*
X360043Y174488D01*
X355093Y179438D02*
Y180294D01*
X351386Y184000D02*
X355093Y180294D01*
X345512Y184000D02*
X351386D01*
X320000Y200000D02*
Y218976D01*
X321024Y220000D01*
X340000D01*
X300100D02*
X310000D01*
X300000Y219900D02*
X300100Y220000D01*
X346929Y240000D02*
X358465Y228465D01*
X370000Y240000D01*
X330000D02*
X339827Y249827D01*
X300000Y256100D02*
X300026Y256126D01*
X347200Y264488D02*
X354488D01*
X329262Y264000D02*
X348238D01*
X318238Y222785D02*
Y264000D01*
Y222785D02*
X321024Y220000D01*
X301088Y275512D02*
X347200D01*
X300000Y276600D02*
X301088Y275512D01*
X392238Y288000D02*
X393750Y289512D01*
X353512Y204000D02*
X355512D01*
X329512Y180000D02*
X345462Y195951D01*
Y198609D01*
X345931Y199078D01*
Y200294D01*
X348468Y202831D01*
X352343D01*
X353512Y204000D01*
X321512Y183750D02*
Y186912D01*
X331024Y196424D01*
Y200000D01*
X339827Y249827D02*
X359702D01*
X387500Y260000D02*
X393750Y266250D01*
Y278488D01*
X377875Y268000D02*
X383750D01*
X354488Y264488D02*
X370000Y280000D01*
X373750Y288000D02*
X392238D01*
X473800Y260688D02*
Y276700D01*
X571700Y281700D02*
X587700D01*
X557700Y256000D02*
X561000Y252700D01*
X543750Y256000D02*
X557700D01*
X543750D02*
X550000D01*
X498465Y240000D02*
X510000Y228465D01*
Y225512D02*
Y228465D01*
X521535Y240000D01*
X561000Y202700D02*
X570000Y193700D01*
Y184000D02*
Y193700D01*
X585512Y150388D02*
Y160000D01*
Y150388D02*
X585900Y150000D01*
X530000Y160000D02*
X544488D01*
X517750Y200000D02*
X530000D01*
X513750Y196000D02*
X517750Y200000D01*
X513750Y191762D02*
Y196000D01*
Y191762D02*
X520000Y185512D01*
X515212Y174488D02*
X520000D01*
X509581Y180119D02*
X515212Y174488D01*
X509581Y180119D02*
Y180294D01*
X505874Y184000D02*
X509581Y180294D01*
X500000Y184000D02*
X505874D01*
X506250Y184376D02*
Y196000D01*
X475512Y160000D02*
X494488D01*
X505512Y150188D02*
Y160000D01*
X503750Y161762D02*
Y176000D01*
Y161762D02*
X505512Y160000D01*
X464488Y164488D02*
X470000Y170000D01*
X464488Y160000D02*
Y164488D01*
X494488Y160000D02*
Y174238D01*
X496250Y176000D01*
X474000Y190000D02*
X488800Y204800D01*
X509200D01*
X510000Y204000D01*
Y214488D01*
X510000Y214488D01*
X475512Y203262D02*
Y210000D01*
X466000Y193750D02*
X475512Y203262D01*
X465350Y185600D02*
X466000Y186250D01*
X450000Y185600D02*
X465350D01*
X464488Y210000D02*
Y228976D01*
X465512Y230000D01*
X481535Y240000D02*
X486500D01*
Y242821D02*
X494879Y251200D01*
X486500Y240000D02*
Y242821D01*
X555512Y160000D02*
X574488D01*
X566250Y173375D02*
Y176000D01*
X544000Y188500D02*
X554700D01*
X566250Y176950D01*
Y176000D02*
Y176950D01*
X547750Y180500D02*
X555850Y172400D01*
X556150Y172700D01*
X556600D01*
X540250Y176029D02*
Y180500D01*
Y176029D02*
X541300D01*
X555512Y161818D01*
Y160000D02*
Y161818D01*
X566250Y173375D02*
X571525Y168100D01*
X583612D01*
X590000Y174488D01*
X579000Y202700D02*
X588300D01*
X588700Y203100D01*
X465512Y230000D02*
X476900D01*
X476700Y279600D02*
X483400D01*
X473800Y276700D02*
X476700Y279600D01*
X538465Y240000D02*
X543750Y245285D01*
Y256000D01*
X534125Y264000D02*
X540000D01*
X526331Y265114D02*
X532365Y271148D01*
X527144Y258815D02*
X528940D01*
X494879Y251200D02*
X519529D01*
X527144Y258815D01*
X515512Y260000D02*
X520626Y265114D01*
X526331D01*
X528940Y258815D02*
X534125Y264000D01*
X530700Y250450D02*
X536250Y256000D01*
X530700Y250300D02*
Y250450D01*
X520400Y285300D02*
X528700D01*
X530000Y284000D01*
X532365Y271148D02*
X533750D01*
Y275594D01*
X550000Y256000D02*
Y274488D01*
X539961Y264039D02*
X540000Y264000D01*
X539961Y264039D02*
Y268451D01*
X540049Y268539D01*
Y282888D01*
X579000Y257800D02*
X585500Y264300D01*
X579000Y252700D02*
Y257800D01*
X530000Y284000D02*
Y287800D01*
X534795Y292595D01*
X539961Y282976D02*
X540049Y282888D01*
X534795Y292595D02*
X542917D01*
X550000Y285512D01*
X587700Y281700D02*
Y290600D01*
X408000Y292000D02*
X420000Y280000D01*
X405800Y292000D02*
X408000D01*
X365688Y255812D02*
X368300Y253200D01*
X396500Y227300D02*
X399200Y230000D01*
X420000D01*
X359702Y249827D02*
X365688Y255812D01*
X377875Y268000D01*
X387500Y260000D02*
X403700D01*
X411000Y252700D01*
X386929Y240000D02*
X388465Y241535D01*
X386929Y259429D02*
X388465Y257894D01*
Y241535D02*
Y257894D01*
X380000Y251600D02*
Y260000D01*
X364600Y289000D02*
X372750D01*
X373750Y288000D01*
X429000Y202700D02*
X429083Y202783D01*
X449516D02*
X449600Y202700D01*
X429083Y202783D02*
X449516D01*
X438819Y185512D02*
Y194319D01*
X573750Y176000D02*
X583262Y185512D01*
X578712D02*
X583262D01*
X590000D01*
X583262Y485512D02*
X590000D01*
X578712D02*
X583262D01*
X573750Y476000D02*
X583262Y485512D01*
X438819D02*
Y494319D01*
X429083Y502783D02*
X449516D01*
X449600Y502700D01*
X429000D02*
X429083Y502783D01*
X372750Y589000D02*
X373750Y588000D01*
X364600Y589000D02*
X372750D01*
X380000Y551600D02*
Y560000D01*
X388465Y541535D02*
Y557894D01*
X386929Y559429D02*
X388465Y557894D01*
X386929Y540000D02*
X388465Y541535D01*
X403700Y560000D02*
X411000Y552700D01*
X387500Y560000D02*
X403700D01*
X365688Y555812D02*
X377875Y568000D01*
X359702Y549827D02*
X365688Y555812D01*
X399200Y530000D02*
X420000D01*
X396500Y527300D02*
X399200Y530000D01*
X365688Y555812D02*
X368300Y553200D01*
X405800Y592000D02*
X408000D01*
X420000Y580000D01*
X587700Y581700D02*
Y590600D01*
X542917Y592594D02*
X550000Y585512D01*
X534795Y592594D02*
X542917D01*
X539961Y582976D02*
X540049Y582888D01*
X530000Y587800D02*
X534795Y592594D01*
X530000Y584000D02*
Y587800D01*
X579000Y552700D02*
Y557800D01*
X585500Y564300D01*
X540049Y568539D02*
Y582888D01*
X539961Y568451D02*
X540049Y568539D01*
X539961Y564039D02*
Y568451D01*
Y564039D02*
X540000Y564000D01*
X550000Y556000D02*
Y574488D01*
X533750Y571148D02*
Y575595D01*
X532365Y571148D02*
X533750D01*
X528700Y585300D02*
X530000Y584000D01*
X520400Y585300D02*
X528700D01*
X530700Y550300D02*
Y550450D01*
X536250Y556000D01*
X528940Y558815D02*
X534125Y564000D01*
X520626Y565114D02*
X526331D01*
X515512Y560000D02*
X520626Y565114D01*
X519529Y551200D02*
X527144Y558815D01*
X494879Y551200D02*
X519529D01*
X527144Y558815D02*
X528940D01*
X526331Y565114D02*
X532365Y571148D01*
X534125Y564000D02*
X540000D01*
X543750Y545285D02*
Y556000D01*
X538465Y540000D02*
X543750Y545285D01*
X473800Y576700D02*
X476700Y579600D01*
X483400D01*
X465512Y530000D02*
X476900D01*
X10000Y450000D02*
X590000D01*
X588300Y502700D02*
X588700Y503100D01*
X579000Y502700D02*
X588300D01*
X583612Y468100D02*
X590000Y474488D01*
X571525Y468100D02*
X583612D01*
X566250Y473376D02*
X571525Y468100D01*
X555512Y460000D02*
Y461818D01*
X541300Y476029D02*
X555512Y461818D01*
X540250Y476029D02*
X541300D01*
X540250D02*
Y480500D01*
X556150Y472700D02*
X556600D01*
X555850Y472400D02*
X556150Y472700D01*
X547750Y480500D02*
X555850Y472400D01*
X566250Y476000D02*
Y476950D01*
X554700Y488500D02*
X566250Y476950D01*
X544000Y488500D02*
X554700D01*
X566250Y473376D02*
Y476000D01*
X555512Y460000D02*
X574488D01*
X486500Y540000D02*
Y542821D01*
X494879Y551200D01*
X481535Y540000D02*
X486500D01*
X464488Y528976D02*
X465512Y530000D01*
X464488Y510000D02*
Y528976D01*
X450000Y10000D02*
Y590000D01*
Y485600D02*
X465350D01*
X466000Y486250D01*
Y493750D02*
X475512Y503262D01*
Y510000D01*
X510000Y514488D02*
X510000Y514488D01*
X510000Y504000D02*
Y514488D01*
X509200Y504800D02*
X510000Y504000D01*
X488800Y504800D02*
X509200D01*
X474000Y490000D02*
X488800Y504800D01*
X494488Y474238D02*
X496250Y476000D01*
X494488Y460000D02*
Y474238D01*
X464488Y460000D02*
Y464488D01*
X470000Y470000D01*
X503750Y461762D02*
X505512Y460000D01*
X503750Y461762D02*
Y476000D01*
X505512Y450188D02*
Y460000D01*
X475512D02*
X494488D01*
X506250Y484375D02*
Y496000D01*
X500000Y484000D02*
X505874D01*
X509581Y480294D01*
Y480119D02*
Y480294D01*
Y480119D02*
X515212Y474488D01*
X520000D01*
X513750Y491762D02*
X520000Y485512D01*
X513750Y491762D02*
Y496000D01*
X517750Y500000D01*
X530000D01*
Y460000D02*
X544488D01*
X585512Y450388D02*
X585900Y450000D01*
X585512Y450388D02*
Y460000D01*
X570000Y484000D02*
Y493700D01*
X561000Y502700D02*
X570000Y493700D01*
X510000Y528465D02*
X521535Y540000D01*
X510000Y525512D02*
Y528465D01*
X498465Y540000D02*
X510000Y528465D01*
X543750Y556000D02*
X550000D01*
X543750D02*
X557700D01*
X561000Y552700D01*
X571700Y581700D02*
X587700D01*
X473800Y560688D02*
Y576700D01*
X373750Y588000D02*
X392238D01*
X354488Y564488D02*
X370000Y580000D01*
X377875Y568000D02*
X383750D01*
X393750Y566250D02*
Y578488D01*
X387500Y560000D02*
X393750Y566250D01*
X339827Y549827D02*
X359702D01*
X331024Y496424D02*
Y500000D01*
X321512Y486912D02*
X331024Y496424D01*
X321512Y483750D02*
Y486912D01*
X352343Y502831D02*
X353512Y504000D01*
X348468Y502831D02*
X352343D01*
X345931Y500294D02*
X348468Y502831D01*
X345931Y499078D02*
Y500294D01*
X345462Y498609D02*
X345931Y499078D01*
X345462Y495951D02*
Y498609D01*
X329512Y480000D02*
X345462Y495951D01*
X353512Y504000D02*
X355512D01*
X392238Y588000D02*
X393750Y589512D01*
X300000Y10000D02*
Y590000D01*
Y576600D02*
X301088Y575512D01*
X347200D01*
X318238Y522785D02*
X321024Y520000D01*
X318238Y522785D02*
Y564000D01*
X329262D02*
X348238D01*
X347200Y564488D02*
X354488D01*
X300000Y556100D02*
X300026Y556126D01*
X330000Y540000D02*
X339827Y549827D01*
X358465Y528465D02*
X370000Y540000D01*
X346929D02*
X358465Y528465D01*
X300000Y519900D02*
X300100Y520000D01*
X310000D01*
X321024D02*
X340000D01*
X320000Y518976D02*
X321024Y520000D01*
X320000Y500000D02*
Y518976D01*
X345512Y484000D02*
X351386D01*
X355093Y480294D01*
Y479438D02*
Y480294D01*
Y479438D02*
X360043Y474488D01*
X365512D01*
X345512Y484000D02*
X351762Y490250D01*
Y496000D01*
X359262Y491762D02*
X365512Y485512D01*
X359262Y491762D02*
Y496000D01*
X363262Y500000D01*
X378465D01*
X358465Y506953D02*
Y514488D01*
X355512Y504000D02*
X358465Y506953D01*
X309400Y460600D02*
Y473000D01*
X300000Y479800D02*
X300169Y479631D01*
X312146D01*
X315527Y476250D01*
X321512D01*
X349262Y461762D02*
Y476000D01*
X321024Y460000D02*
X340000D01*
X341762Y461762D01*
Y476000D01*
X350900Y450000D02*
X351024Y450124D01*
Y460000D01*
X415069Y472831D02*
Y476000D01*
Y472831D02*
X419000Y468900D01*
X433231D01*
X438819Y474488D01*
X403769Y487300D02*
X415069Y476000D01*
X397800Y487300D02*
X403769D01*
X380000Y460000D02*
X393307D01*
X394050Y471750D02*
Y478895D01*
Y471750D02*
X396351Y469449D01*
X402362D01*
X404331Y467480D01*
Y460000D02*
Y467480D01*
Y460000D02*
X423307D01*
X433800Y450000D02*
X434331Y450531D01*
Y460000D01*
X435300Y459031D01*
X411000Y502700D02*
X418819Y494881D01*
Y484000D02*
Y494881D01*
X432081Y485512D02*
X438819D01*
X422569Y476000D02*
X432081Y485512D01*
X429000Y539000D02*
Y552700D01*
X439955D01*
X440355Y547600D02*
Y571100D01*
X439800Y571655D02*
Y589600D01*
X459300Y571447D02*
Y589900D01*
X579000Y539000D02*
Y552700D01*
X504488Y560000D02*
Y570588D01*
X509900Y576000D01*
X526250D01*
X485512Y560000D02*
X504488D01*
X460700Y540000D02*
X481535D01*
X459647Y541053D02*
X460700Y540000D01*
X459647Y541053D02*
Y547600D01*
Y571100D01*
X150000Y10000D02*
Y590000D01*
X10000Y300000D02*
X590000D01*
X10000Y150000D02*
X590000D01*
D22*
X16250Y533750D02*
X23750Y526250D01*
X16250D02*
X23750Y533750D01*
X586250Y33750D02*
X593750Y26250D01*
X586250D02*
X593750Y33750D01*
D23*
X255900Y322300D02*
D03*
X288000Y352700D02*
D03*
X176200Y379600D02*
D03*
X182700Y429200D02*
D03*
X230000Y399900D02*
D03*
X219700Y434900D02*
D03*
X284800Y413900D02*
D03*
X239261Y432576D02*
D03*
X287000Y440200D02*
D03*
X67600Y402800D02*
D03*
X95800Y376900D02*
D03*
X79300Y401200D02*
D03*
X63900Y438600D02*
D03*
X138119Y343919D02*
D03*
X278012Y335112D02*
D03*
X404400Y290900D02*
D03*
X556600Y172700D02*
D03*
X588700Y203100D02*
D03*
X476900Y230000D02*
D03*
X483400Y279600D02*
D03*
X530700Y250300D02*
D03*
X520400Y285300D02*
D03*
X585500Y264300D02*
D03*
X539961Y282976D02*
D03*
X587700Y290600D02*
D03*
X368300Y253200D02*
D03*
X396500Y227300D02*
D03*
X380000Y251600D02*
D03*
X364600Y289000D02*
D03*
X438819Y194319D02*
D03*
X578712Y185512D02*
D03*
X149800Y149900D02*
D03*
X300400Y149400D02*
D03*
X449200D02*
D03*
X449700Y300500D02*
D03*
X299100D02*
D03*
X149300Y299600D02*
D03*
Y449800D02*
D03*
X299500D02*
D03*
X450000Y450000D02*
D03*
X578712Y485512D02*
D03*
X438819Y494319D02*
D03*
X364600Y589000D02*
D03*
X380000Y551600D02*
D03*
X396500Y527300D02*
D03*
X368300Y553200D02*
D03*
X405800Y592000D02*
D03*
X587700Y590600D02*
D03*
X539961Y582976D02*
D03*
X585500Y564300D02*
D03*
X520400Y585300D02*
D03*
X530700Y550300D02*
D03*
X483400Y579600D02*
D03*
X476900Y530000D02*
D03*
X588700Y503100D02*
D03*
X556600Y472700D02*
D03*
X103500Y440400D02*
D03*
M02*
