G04 Layer_Color=65535*
%FSLAX25Y25*%
%MOIN*%
G70*
G01*
G75*
%ADD22C,0.00787*%
%ADD24C,0.00700*%
%ADD25C,0.00800*%
%ADD26C,0.00787*%
%ADD27C,0.00600*%
%ADD28C,0.01000*%
D22*
X144601Y410064D02*
X153901D01*
X144601Y431336D02*
X153901D01*
X144601Y386564D02*
X153901D01*
X144601Y407836D02*
X153901D01*
X445301Y260464D02*
X454601D01*
X445301Y281736D02*
X454601D01*
X445301Y236964D02*
X454601D01*
X445301Y258236D02*
X454601D01*
X445301Y536964D02*
X454601D01*
X445301Y558236D02*
X454601D01*
X445301Y560464D02*
X454601D01*
X445301Y581736D02*
X454601D01*
D24*
X232900Y349600D02*
G03*
X232900Y349600I-3600J0D01*
G01*
X81365Y349600D02*
G03*
X81365Y349600I-3600J0D01*
G01*
X232900Y309600D02*
G03*
X232900Y309600I-3600J0D01*
G01*
X176700Y426300D02*
G03*
X176700Y426300I-3600J0D01*
G01*
X172900Y319600D02*
G03*
X172900Y319600I-3600J0D01*
G01*
X82900Y309600D02*
G03*
X82900Y309600I-3600J0D01*
G01*
X42900Y369600D02*
G03*
X42900Y369600I-3600J0D01*
G01*
X12300Y322600D02*
G03*
X12300Y322600I-3600J0D01*
G01*
X152900Y299600D02*
G03*
X152900Y299600I-3600J0D01*
G01*
X290600Y431300D02*
G03*
X290600Y431300I-3600J0D01*
G01*
X142700Y439200D02*
G03*
X142700Y439200I-3600J0D01*
G01*
X162200Y439500D02*
G03*
X162200Y439500I-3600J0D01*
G01*
X533600Y200000D02*
G03*
X533600Y200000I-3600J0D01*
G01*
X382065Y200000D02*
G03*
X382065Y200000I-3600J0D01*
G01*
X533600Y160000D02*
G03*
X533600Y160000I-3600J0D01*
G01*
X477400Y276700D02*
G03*
X477400Y276700I-3600J0D01*
G01*
X473600Y170000D02*
G03*
X473600Y170000I-3600J0D01*
G01*
X383600Y160000D02*
G03*
X383600Y160000I-3600J0D01*
G01*
X343600Y220000D02*
G03*
X343600Y220000I-3600J0D01*
G01*
X313000Y173000D02*
G03*
X313000Y173000I-3600J0D01*
G01*
X453600Y150000D02*
G03*
X453600Y150000I-3600J0D01*
G01*
X591300Y281700D02*
G03*
X591300Y281700I-3600J0D01*
G01*
X443400Y289600D02*
G03*
X443400Y289600I-3600J0D01*
G01*
X462900Y289900D02*
G03*
X462900Y289900I-3600J0D01*
G01*
Y589900D02*
G03*
X462900Y589900I-3600J0D01*
G01*
X443400Y589600D02*
G03*
X443400Y589600I-3600J0D01*
G01*
X473600Y470000D02*
G03*
X473600Y470000I-3600J0D01*
G01*
X533600Y500000D02*
G03*
X533600Y500000I-3600J0D01*
G01*
X591300Y581700D02*
G03*
X591300Y581700I-3600J0D01*
G01*
X313000Y473000D02*
G03*
X313000Y473000I-3600J0D01*
G01*
X477400Y576700D02*
G03*
X477400Y576700I-3600J0D01*
G01*
X343600Y520000D02*
G03*
X343600Y520000I-3600J0D01*
G01*
X533600Y460000D02*
G03*
X533600Y460000I-3600J0D01*
G01*
X383600D02*
G03*
X383600Y460000I-3600J0D01*
G01*
X453600Y450000D02*
G03*
X453600Y450000I-3600J0D01*
G01*
X382065Y500000D02*
G03*
X382065Y500000I-3600J0D01*
G01*
X204576Y359757D02*
X214024D01*
Y379443D01*
X204576Y359757D02*
Y379443D01*
X214024D01*
X53040Y359757D02*
X62489D01*
Y379443D01*
X53040Y359757D02*
Y379443D01*
X62489D01*
X505276Y210157D02*
X514724D01*
Y229842D01*
X505276Y210157D02*
Y229842D01*
X514724D01*
X353740Y210157D02*
X363189D01*
Y229843D01*
X353740Y210157D02*
Y229843D01*
X363189D01*
X353740Y510157D02*
X363189D01*
Y529843D01*
X353740Y510157D02*
Y529843D01*
X363189D01*
X505276Y510157D02*
X514724D01*
Y529843D01*
X505276Y510157D02*
Y529843D01*
X514724D01*
D25*
X174300Y383793D02*
X201524D01*
X204300Y385875D01*
Y393325D01*
X201524Y395407D02*
X204300Y393325D01*
X174300Y395407D02*
X201524D01*
X174300Y383793D02*
Y395407D01*
X22765Y383793D02*
X49988D01*
X52765Y385875D01*
Y393325D01*
X49988Y395407D02*
X52765Y393325D01*
X22765Y395407D02*
X49988D01*
X22765Y383793D02*
Y395407D01*
X214300Y383793D02*
X241524D01*
X244300Y385875D01*
Y393325D01*
X241524Y395407D02*
X244300Y393325D01*
X214300Y395407D02*
X241524D01*
X214300Y383793D02*
Y395407D01*
X62765Y383793D02*
X89988D01*
X92765Y385875D01*
Y393325D01*
X89988Y395407D02*
X92765Y393325D01*
X62765Y395407D02*
X89988D01*
X62765Y383793D02*
Y395407D01*
X125300Y408600D02*
X128200D01*
X110300Y408700D02*
X113200D01*
X131300Y441600D02*
X133300D01*
Y417600D02*
Y441600D01*
X105300Y417600D02*
X133300D01*
X105300D02*
Y441600D01*
X131300D01*
X128300Y408600D02*
Y417600D01*
X124300Y408600D02*
X125300D01*
X124300Y395530D02*
Y408600D01*
Y395530D02*
X132300D01*
Y408600D01*
X128300D02*
X132300D01*
X113200Y408700D02*
X114300D01*
Y395600D02*
Y408700D01*
X106300Y395600D02*
X114300D01*
X106300D02*
Y408700D01*
X110300D01*
Y417600D01*
X275300Y408600D02*
X278200D01*
X260300Y408700D02*
X263200D01*
X281300Y441600D02*
X283300D01*
Y417600D02*
Y441600D01*
X255300Y417600D02*
X283300D01*
X255300D02*
Y441600D01*
X281300D01*
X278300Y408600D02*
Y417600D01*
X274300Y408600D02*
X275300D01*
X274300Y395530D02*
Y408600D01*
Y395530D02*
X282300D01*
Y408600D01*
X278300D02*
X282300D01*
X263200Y408700D02*
X264300D01*
Y395600D02*
Y408700D01*
X256300Y395600D02*
X264300D01*
X256300D02*
Y408700D01*
X260300D01*
Y417600D01*
X125300Y358600D02*
X128200D01*
X110300Y358700D02*
X113200D01*
X131300Y391600D02*
X133300D01*
Y367600D02*
Y391600D01*
X105300Y367600D02*
X133300D01*
X105300D02*
Y391600D01*
X131300D01*
X128300Y358600D02*
Y367600D01*
X124300Y358600D02*
X125300D01*
X124300Y345530D02*
Y358600D01*
Y345530D02*
X132300D01*
Y358600D01*
X128300D02*
X132300D01*
X113200Y358700D02*
X114300D01*
Y345600D02*
Y358700D01*
X106300Y345600D02*
X114300D01*
X106300D02*
Y358700D01*
X110300D01*
Y367600D01*
X275300Y358600D02*
X278200D01*
X260300Y358700D02*
X263200D01*
X281300Y391600D02*
X283300D01*
Y367600D02*
Y391600D01*
X255300Y367600D02*
X283300D01*
X255300D02*
Y391600D01*
X281300D01*
X278300Y358600D02*
Y367600D01*
X274300Y358600D02*
X275300D01*
X274300Y345530D02*
Y358600D01*
Y345530D02*
X282300D01*
Y358600D01*
X278300D02*
X282300D01*
X263200Y358700D02*
X264300D01*
Y345600D02*
Y358700D01*
X256300Y345600D02*
X264300D01*
X256300D02*
Y358700D01*
X260300D01*
Y367600D01*
X262800Y326850D02*
X263050Y326600D01*
X262800Y332600D02*
X266800D01*
X262800Y326850D02*
Y332600D01*
X268300Y326600D02*
X270300D01*
X275550D02*
X275800Y326850D01*
X271800Y332600D02*
X275800D01*
Y326850D02*
Y332600D01*
X232800Y406850D02*
X233050Y406600D01*
X232800Y412600D02*
X236800D01*
X232800Y406850D02*
Y412600D01*
X238300Y406600D02*
X240300D01*
X245550D02*
X245800Y406850D01*
X241800Y412600D02*
X245800D01*
Y406850D02*
Y412600D01*
X202800Y346850D02*
X203050Y346600D01*
X202800Y352600D02*
X206800D01*
X202800Y346850D02*
Y352600D01*
X208300Y346600D02*
X210300D01*
X215550D02*
X215800Y346850D01*
X211800Y352600D02*
X215800D01*
Y346850D02*
Y352600D01*
X111619Y326850D02*
X111869Y326600D01*
X111619Y332600D02*
X115619D01*
X111619Y326850D02*
Y332600D01*
X117119Y326600D02*
X119119D01*
X124369D02*
X124619Y326850D01*
X120619Y332600D02*
X124619D01*
Y326850D02*
Y332600D01*
X76550Y410850D02*
X76800Y410600D01*
X76550Y416600D02*
X80550D01*
X76550Y410850D02*
Y416600D01*
X82050Y410600D02*
X84050D01*
X89300D02*
X89550Y410850D01*
X85550Y416600D02*
X89550D01*
Y410850D02*
Y416600D01*
X48312Y346850D02*
X48562Y346600D01*
X48312Y352600D02*
X52312D01*
X48312Y346850D02*
Y352600D01*
X53812Y346600D02*
X55812D01*
X61062D02*
X61312Y346850D01*
X57312Y352600D02*
X61312D01*
Y346850D02*
Y352600D01*
X236800Y331350D02*
X237050Y331100D01*
X236800Y337100D02*
X240800D01*
X236800Y331350D02*
Y337100D01*
X242300Y331100D02*
X244300D01*
X249550D02*
X249800Y331350D01*
X245800Y337100D02*
X249800D01*
Y331350D02*
Y337100D01*
X222800Y426850D02*
X223050Y426600D01*
X222800Y432600D02*
X226800D01*
X222800Y426850D02*
Y432600D01*
X228300Y426600D02*
X230300D01*
X235550D02*
X235800Y426850D01*
X231800Y432600D02*
X235800D01*
Y426850D02*
Y432600D01*
X192800Y326850D02*
X193050Y326600D01*
X192800Y332600D02*
X196800D01*
X192800Y326850D02*
Y332600D01*
X198300Y326600D02*
X200300D01*
X205550D02*
X205800Y326850D01*
X201800Y332600D02*
X205800D01*
Y326850D02*
Y332600D01*
X90600Y330150D02*
X90850Y329900D01*
X90600Y335900D02*
X94600D01*
X90600Y330150D02*
Y335900D01*
X96100Y329900D02*
X98100D01*
X103350D02*
X103600Y330150D01*
X99600Y335900D02*
X103600D01*
Y330150D02*
Y335900D01*
X66550Y430850D02*
X66800Y430600D01*
X66550Y436600D02*
X70550D01*
X66550Y430850D02*
Y436600D01*
X72050Y430600D02*
X74050D01*
X79300D02*
X79550Y430850D01*
X75550Y436600D02*
X79550D01*
Y430850D02*
Y436600D01*
X38312Y326850D02*
X38562Y326600D01*
X38312Y332600D02*
X42312D01*
X38312Y326850D02*
Y332600D01*
X43812Y326600D02*
X45812D01*
X51062D02*
X51312Y326850D01*
X47312Y332600D02*
X51312D01*
Y326850D02*
Y332600D01*
X166300Y345850D02*
X166550Y346100D01*
X172300Y342100D02*
Y346100D01*
X166550D02*
X172300D01*
X166300Y338600D02*
Y340600D01*
Y333350D02*
X166550Y333100D01*
X172300D02*
Y337100D01*
X166550Y333100D02*
X172300D01*
X21812Y335850D02*
X22062Y336100D01*
X27812Y332100D02*
Y336100D01*
X22062D02*
X27812D01*
X21812Y328600D02*
Y330600D01*
Y323350D02*
X22062Y323100D01*
X27812D02*
Y327100D01*
X22062Y323100D02*
X27812D01*
X475000Y234193D02*
X502224D01*
X505000Y236275D01*
Y243725D01*
X502224Y245807D02*
X505000Y243725D01*
X475000Y245807D02*
X502224D01*
X475000Y234193D02*
Y245807D01*
X323465Y234193D02*
X350689D01*
X353465Y236275D01*
Y243725D01*
X350688Y245807D02*
X353465Y243725D01*
X323465Y245807D02*
X350688D01*
X323465Y234193D02*
Y245807D01*
X515000Y234193D02*
X542224D01*
X545000Y236275D01*
Y243725D01*
X542224Y245807D02*
X545000Y243725D01*
X515000Y245807D02*
X542224D01*
X515000Y234193D02*
Y245807D01*
X363465Y234193D02*
X390688D01*
X393465Y236275D01*
Y243725D01*
X390688Y245807D02*
X393465Y243725D01*
X363465Y245807D02*
X390688D01*
X363465Y234193D02*
Y245807D01*
X426000Y259000D02*
X428900D01*
X411000Y259100D02*
X413900D01*
X432000Y292000D02*
X434000D01*
Y268000D02*
Y292000D01*
X406000Y268000D02*
X434000D01*
X406000D02*
Y292000D01*
X432000D01*
X429000Y259000D02*
Y268000D01*
X425000Y259000D02*
X426000D01*
X425000Y245930D02*
Y259000D01*
Y245930D02*
X433000D01*
Y259000D01*
X429000D02*
X433000D01*
X413900Y259100D02*
X415000D01*
Y246000D02*
Y259100D01*
X407000Y246000D02*
X415000D01*
X407000D02*
Y259100D01*
X411000D01*
Y268000D01*
X576000Y259000D02*
X578900D01*
X561000Y259100D02*
X563900D01*
X582000Y292000D02*
X584000D01*
Y268000D02*
Y292000D01*
X556000Y268000D02*
X584000D01*
X556000D02*
Y292000D01*
X582000D01*
X579000Y259000D02*
Y268000D01*
X575000Y259000D02*
X576000D01*
X575000Y245930D02*
Y259000D01*
Y245930D02*
X583000D01*
Y259000D01*
X579000D02*
X583000D01*
X563900Y259100D02*
X565000D01*
Y246000D02*
Y259100D01*
X557000Y246000D02*
X565000D01*
X557000D02*
Y259100D01*
X561000D01*
Y268000D01*
X426000Y209000D02*
X428900D01*
X411000Y209100D02*
X413900D01*
X432000Y242000D02*
X434000D01*
Y218000D02*
Y242000D01*
X406000Y218000D02*
X434000D01*
X406000D02*
Y242000D01*
X432000D01*
X429000Y209000D02*
Y218000D01*
X425000Y209000D02*
X426000D01*
X425000Y195930D02*
Y209000D01*
Y195930D02*
X433000D01*
Y209000D01*
X429000D02*
X433000D01*
X413900Y209100D02*
X415000D01*
Y196000D02*
Y209100D01*
X407000Y196000D02*
X415000D01*
X407000D02*
Y209100D01*
X411000D01*
Y218000D01*
X576000Y209000D02*
X578900D01*
X561000Y209100D02*
X563900D01*
X582000Y242000D02*
X584000D01*
Y218000D02*
Y242000D01*
X556000Y218000D02*
X584000D01*
X556000D02*
Y242000D01*
X582000D01*
X579000Y209000D02*
Y218000D01*
X575000Y209000D02*
X576000D01*
X575000Y195930D02*
Y209000D01*
Y195930D02*
X583000D01*
Y209000D01*
X579000D02*
X583000D01*
X563900Y209100D02*
X565000D01*
Y196000D02*
Y209100D01*
X557000Y196000D02*
X565000D01*
X557000D02*
Y209100D01*
X561000D01*
Y218000D01*
X563500Y177250D02*
X563750Y177000D01*
X563500Y183000D02*
X567500D01*
X563500Y177250D02*
Y183000D01*
X569000Y177000D02*
X571000D01*
X576250D02*
X576500Y177250D01*
X572500Y183000D02*
X576500D01*
Y177250D02*
Y183000D01*
X533500Y257250D02*
X533750Y257000D01*
X533500Y263000D02*
X537500D01*
X533500Y257250D02*
Y263000D01*
X539000Y257000D02*
X541000D01*
X546250D02*
X546500Y257250D01*
X542500Y263000D02*
X546500D01*
Y257250D02*
Y263000D01*
X503500Y197250D02*
X503750Y197000D01*
X503500Y203000D02*
X507500D01*
X503500Y197250D02*
Y203000D01*
X509000Y197000D02*
X511000D01*
X516250D02*
X516500Y197250D01*
X512500Y203000D02*
X516500D01*
Y197250D02*
Y203000D01*
X412319Y177250D02*
X412569Y177000D01*
X412319Y183000D02*
X416319D01*
X412319Y177250D02*
Y183000D01*
X417819Y177000D02*
X419819D01*
X425069D02*
X425319Y177250D01*
X421319Y183000D02*
X425319D01*
Y177250D02*
Y183000D01*
X377250Y261250D02*
X377500Y261000D01*
X377250Y267000D02*
X381250D01*
X377250Y261250D02*
Y267000D01*
X382750Y261000D02*
X384750D01*
X390000D02*
X390250Y261250D01*
X386250Y267000D02*
X390250D01*
Y261250D02*
Y267000D01*
X349012Y197250D02*
X349262Y197000D01*
X349012Y203000D02*
X353012D01*
X349012Y197250D02*
Y203000D01*
X354512Y197000D02*
X356512D01*
X361762D02*
X362012Y197250D01*
X358012Y203000D02*
X362012D01*
Y197250D02*
Y203000D01*
X537500Y181750D02*
X537750Y181500D01*
X537500Y187500D02*
X541500D01*
X537500Y181750D02*
Y187500D01*
X543000Y181500D02*
X545000D01*
X550250D02*
X550500Y181750D01*
X546500Y187500D02*
X550500D01*
Y181750D02*
Y187500D01*
X523500Y277250D02*
X523750Y277000D01*
X523500Y283000D02*
X527500D01*
X523500Y277250D02*
Y283000D01*
X529000Y277000D02*
X531000D01*
X536250D02*
X536500Y277250D01*
X532500Y283000D02*
X536500D01*
Y277250D02*
Y283000D01*
X493500Y177250D02*
X493750Y177000D01*
X493500Y183000D02*
X497500D01*
X493500Y177250D02*
Y183000D01*
X499000Y177000D02*
X501000D01*
X506250D02*
X506500Y177250D01*
X502500Y183000D02*
X506500D01*
Y177250D02*
Y183000D01*
X391300Y180550D02*
X391550Y180300D01*
X391300Y186300D02*
X395300D01*
X391300Y180550D02*
Y186300D01*
X396800Y180300D02*
X398800D01*
X404050D02*
X404300Y180550D01*
X400300Y186300D02*
X404300D01*
Y180550D02*
Y186300D01*
X367250Y281250D02*
X367500Y281000D01*
X367250Y287000D02*
X371250D01*
X367250Y281250D02*
Y287000D01*
X372750Y281000D02*
X374750D01*
X380000D02*
X380250Y281250D01*
X376250Y287000D02*
X380250D01*
Y281250D02*
Y287000D01*
X339012Y177250D02*
X339262Y177000D01*
X339012Y183000D02*
X343012D01*
X339012Y177250D02*
Y183000D01*
X344512Y177000D02*
X346512D01*
X351762D02*
X352012Y177250D01*
X348012Y183000D02*
X352012D01*
Y177250D02*
Y183000D01*
X467000Y196250D02*
X467250Y196500D01*
X473000Y192500D02*
Y196500D01*
X467250D02*
X473000D01*
X467000Y189000D02*
Y191000D01*
Y183750D02*
X467250Y183500D01*
X473000D02*
Y187500D01*
X467250Y183500D02*
X473000D01*
X322512Y186250D02*
X322762Y186500D01*
X328512Y182500D02*
Y186500D01*
X322762D02*
X328512D01*
X322512Y179000D02*
Y181000D01*
Y173750D02*
X322762Y173500D01*
X328512D02*
Y177500D01*
X322762Y173500D02*
X328512D01*
X467000Y496250D02*
X467250Y496500D01*
X473000Y492500D02*
Y496500D01*
X467250D02*
X473000D01*
X467000Y489000D02*
Y491000D01*
Y483750D02*
X467250Y483500D01*
X473000D02*
Y487500D01*
X467250Y483500D02*
X473000D01*
X349012Y497250D02*
X349262Y497000D01*
X349012Y503000D02*
X353012D01*
X349012Y497250D02*
Y503000D01*
X354512Y497000D02*
X356512D01*
X361762D02*
X362012Y497250D01*
X358012Y503000D02*
X362012D01*
Y497250D02*
Y503000D01*
X339012Y477250D02*
X339262Y477000D01*
X339012Y483000D02*
X343012D01*
X339012Y477250D02*
Y483000D01*
X344512Y477000D02*
X346512D01*
X351762D02*
X352012Y477250D01*
X348012Y483000D02*
X352012D01*
Y477250D02*
Y483000D01*
X515000Y534193D02*
X542224D01*
X545000Y536275D01*
Y543725D01*
X542224Y545807D02*
X545000Y543725D01*
X515000Y545807D02*
X542224D01*
X515000Y534193D02*
Y545807D01*
X475000Y534193D02*
X502224D01*
X505000Y536275D01*
Y543725D01*
X502224Y545807D02*
X505000Y543725D01*
X475000Y545807D02*
X502224D01*
X475000Y534193D02*
Y545807D01*
X426000Y559000D02*
X428900D01*
X411000Y559100D02*
X413900D01*
X432000Y592000D02*
X434000D01*
Y568000D02*
Y592000D01*
X406000Y568000D02*
X434000D01*
X406000D02*
Y592000D01*
X432000D01*
X429000Y559000D02*
Y568000D01*
X425000Y559000D02*
X426000D01*
X425000Y545930D02*
Y559000D01*
Y545930D02*
X433000D01*
Y559000D01*
X429000D02*
X433000D01*
X413900Y559100D02*
X415000D01*
Y546000D02*
Y559100D01*
X407000Y546000D02*
X415000D01*
X407000D02*
Y559100D01*
X411000D01*
Y568000D01*
X576000Y559000D02*
X578900D01*
X561000Y559100D02*
X563900D01*
X582000Y592000D02*
X584000D01*
Y568000D02*
Y592000D01*
X556000Y568000D02*
X584000D01*
X556000D02*
Y592000D01*
X582000D01*
X579000Y559000D02*
Y568000D01*
X575000Y559000D02*
X576000D01*
X575000Y545930D02*
Y559000D01*
Y545930D02*
X583000D01*
Y559000D01*
X579000D02*
X583000D01*
X563900Y559100D02*
X565000D01*
Y546000D02*
Y559100D01*
X557000Y546000D02*
X565000D01*
X557000D02*
Y559100D01*
X561000D01*
Y568000D01*
X426000Y509000D02*
X428900D01*
X411000Y509100D02*
X413900D01*
X432000Y542000D02*
X434000D01*
Y518000D02*
Y542000D01*
X406000Y518000D02*
X434000D01*
X406000D02*
Y542000D01*
X432000D01*
X429000Y509000D02*
Y518000D01*
X425000Y509000D02*
X426000D01*
X425000Y495930D02*
Y509000D01*
Y495930D02*
X433000D01*
Y509000D01*
X429000D02*
X433000D01*
X413900Y509100D02*
X415000D01*
Y496000D02*
Y509100D01*
X407000Y496000D02*
X415000D01*
X407000D02*
Y509100D01*
X411000D01*
Y518000D01*
X576000Y509000D02*
X578900D01*
X561000Y509100D02*
X563900D01*
X582000Y542000D02*
X584000D01*
Y518000D02*
Y542000D01*
X556000Y518000D02*
X584000D01*
X556000D02*
Y542000D01*
X582000D01*
X579000Y509000D02*
Y518000D01*
X575000Y509000D02*
X576000D01*
X575000Y495930D02*
Y509000D01*
Y495930D02*
X583000D01*
Y509000D01*
X579000D02*
X583000D01*
X563900Y509100D02*
X565000D01*
Y496000D02*
Y509100D01*
X557000Y496000D02*
X565000D01*
X557000D02*
Y509100D01*
X561000D01*
Y518000D01*
X322512Y486250D02*
X322762Y486500D01*
X328512Y482500D02*
Y486500D01*
X322762D02*
X328512D01*
X322512Y479000D02*
Y481000D01*
Y473750D02*
X322762Y473500D01*
X328512D02*
Y477500D01*
X322762Y473500D02*
X328512D01*
X367250Y581250D02*
X367500Y581000D01*
X367250Y587000D02*
X371250D01*
X367250Y581250D02*
Y587000D01*
X372750Y581000D02*
X374750D01*
X380000D02*
X380250Y581250D01*
X376250Y587000D02*
X380250D01*
Y581250D02*
Y587000D01*
X391300Y480550D02*
X391550Y480300D01*
X391300Y486300D02*
X395300D01*
X391300Y480550D02*
Y486300D01*
X396800Y480300D02*
X398800D01*
X404050D02*
X404300Y480550D01*
X400300Y486300D02*
X404300D01*
Y480550D02*
Y486300D01*
X493500Y477250D02*
X493750Y477000D01*
X493500Y483000D02*
X497500D01*
X493500Y477250D02*
Y483000D01*
X499000Y477000D02*
X501000D01*
X506250D02*
X506500Y477250D01*
X502500Y483000D02*
X506500D01*
Y477250D02*
Y483000D01*
X523500Y577250D02*
X523750Y577000D01*
X523500Y583000D02*
X527500D01*
X523500Y577250D02*
Y583000D01*
X529000Y577000D02*
X531000D01*
X536250D02*
X536500Y577250D01*
X532500Y583000D02*
X536500D01*
Y577250D02*
Y583000D01*
X537500Y481750D02*
X537750Y481500D01*
X537500Y487500D02*
X541500D01*
X537500Y481750D02*
Y487500D01*
X543000Y481500D02*
X545000D01*
X550250D02*
X550500Y481750D01*
X546500Y487500D02*
X550500D01*
Y481750D02*
Y487500D01*
X377250Y561250D02*
X377500Y561000D01*
X377250Y567000D02*
X381250D01*
X377250Y561250D02*
Y567000D01*
X382750Y561000D02*
X384750D01*
X390000D02*
X390250Y561250D01*
X386250Y567000D02*
X390250D01*
Y561250D02*
Y567000D01*
X412319Y477250D02*
X412569Y477000D01*
X412319Y483000D02*
X416319D01*
X412319Y477250D02*
Y483000D01*
X417819Y477000D02*
X419819D01*
X425069D02*
X425319Y477250D01*
X421319Y483000D02*
X425319D01*
Y477250D02*
Y483000D01*
X503500Y497250D02*
X503750Y497000D01*
X503500Y503000D02*
X507500D01*
X503500Y497250D02*
Y503000D01*
X509000Y497000D02*
X511000D01*
X516250D02*
X516500Y497250D01*
X512500Y503000D02*
X516500D01*
Y497250D02*
Y503000D01*
X533500Y557250D02*
X533750Y557000D01*
X533500Y563000D02*
X537500D01*
X533500Y557250D02*
Y563000D01*
X539000Y557000D02*
X541000D01*
X546250D02*
X546500Y557250D01*
X542500Y563000D02*
X546500D01*
Y557250D02*
Y563000D01*
X563500Y477250D02*
X563750Y477000D01*
X563500Y483000D02*
X567500D01*
X563500Y477250D02*
Y483000D01*
X569000Y477000D02*
X571000D01*
X576250D02*
X576500Y477250D01*
X572500Y483000D02*
X576500D01*
Y477250D02*
Y483000D01*
X363465Y534193D02*
X390688D01*
X393465Y536275D01*
Y543725D01*
X390688Y545807D02*
X393465Y543725D01*
X363465Y545807D02*
X390688D01*
X363465Y534193D02*
Y545807D01*
X323465Y534193D02*
X350689D01*
X353465Y536275D01*
Y543725D01*
X350688Y545807D02*
X353465Y543725D01*
X323465Y545807D02*
X350688D01*
X323465Y534193D02*
Y545807D01*
D26*
X284576Y339442D02*
X294024D01*
Y319758D02*
Y339442D01*
X284576Y319758D02*
X294024D01*
X284576D02*
Y339442D01*
X244576Y419758D02*
X254024D01*
X244576D02*
Y439442D01*
X254024D01*
Y419758D02*
Y439442D01*
X214576Y339442D02*
X224024D01*
Y319758D02*
Y339442D01*
X214576Y319758D02*
X224024D01*
X214576D02*
Y339442D01*
X133395D02*
X142843D01*
Y319758D02*
Y339442D01*
X133395Y319758D02*
X142843D01*
X133395D02*
Y339442D01*
X88326Y423758D02*
X97774D01*
X88326D02*
Y443442D01*
X97774D01*
Y423758D02*
Y443442D01*
X60087Y339442D02*
X69536D01*
Y319758D02*
Y339442D01*
X60087Y319758D02*
X69536D01*
X60087D02*
Y339442D01*
X239458Y304876D02*
Y314324D01*
X259142D01*
Y304876D02*
Y314324D01*
X239458Y304876D02*
X259142D01*
X169457Y404876D02*
Y414324D01*
X189143D01*
Y404876D02*
Y414324D01*
X169457Y404876D02*
X189143D01*
X159458Y304876D02*
Y314324D01*
X179142D01*
Y304876D02*
Y314324D01*
X159458Y304876D02*
X179142D01*
X88276D02*
Y314324D01*
X107961D01*
Y304876D02*
Y314324D01*
X88276Y304876D02*
X107961D01*
X13208Y408876D02*
Y418324D01*
X32893D01*
Y408876D02*
Y418324D01*
X13208Y408876D02*
X32893D01*
X4969Y304876D02*
Y314324D01*
X24654D01*
Y304876D02*
Y314324D01*
X4969Y304876D02*
X24654D01*
X269458D02*
Y314324D01*
X289142D01*
Y304876D02*
Y314324D01*
X269458Y304876D02*
X289142D01*
X199458Y404876D02*
Y414324D01*
X219143D01*
Y404876D02*
Y414324D01*
X199458Y404876D02*
X219143D01*
X189457Y304876D02*
Y314324D01*
X209142D01*
Y304876D02*
Y314324D01*
X189457Y304876D02*
X209142D01*
X118276D02*
Y314324D01*
X137961D01*
Y304876D02*
Y314324D01*
X118276Y304876D02*
X137961D01*
X41776Y409758D02*
X51224D01*
X41776D02*
Y429443D01*
X51224D01*
Y409758D02*
Y429443D01*
X34969Y304876D02*
Y314324D01*
X54654D01*
Y304876D02*
Y314324D01*
X34969Y304876D02*
X54654D01*
X159458Y354876D02*
Y364324D01*
X179142D01*
Y354876D02*
Y364324D01*
X159458Y354876D02*
X179142D01*
X14969Y344876D02*
Y354324D01*
X34654D01*
Y344876D02*
Y354324D01*
X14969Y344876D02*
X34654D01*
X169142Y374876D02*
Y384324D01*
X149458Y374876D02*
X169142D01*
X149458D02*
Y384324D01*
X169142D01*
X24654Y364876D02*
Y374324D01*
X4969Y364876D02*
X24654D01*
X4969D02*
Y374324D01*
X24654D01*
X585276Y189842D02*
X594724D01*
Y170158D02*
Y189842D01*
X585276Y170158D02*
X594724D01*
X585276D02*
Y189842D01*
X545276Y270158D02*
X554724D01*
X545276D02*
Y289843D01*
X554724D01*
Y270158D02*
Y289843D01*
X515276Y189842D02*
X524724D01*
Y170158D02*
Y189842D01*
X515276Y170158D02*
X524724D01*
X515276D02*
Y189842D01*
X434094D02*
X443543D01*
Y170158D02*
Y189842D01*
X434094Y170158D02*
X443543D01*
X434094D02*
Y189842D01*
X389026Y274158D02*
X398475D01*
X389026D02*
Y293843D01*
X398475D01*
Y274158D02*
Y293843D01*
X360787Y189842D02*
X370236D01*
Y170158D02*
Y189842D01*
X360787Y170158D02*
X370236D01*
X360787D02*
Y189842D01*
X540158Y155276D02*
Y164724D01*
X559842D01*
Y155276D02*
Y164724D01*
X540158Y155276D02*
X559842D01*
X470157Y255276D02*
Y264724D01*
X489843D01*
Y255276D02*
Y264724D01*
X470157Y255276D02*
X489843D01*
X460157Y155276D02*
Y164724D01*
X479843D01*
Y155276D02*
Y164724D01*
X460157Y155276D02*
X479843D01*
X388976D02*
Y164724D01*
X408661D01*
Y155276D02*
Y164724D01*
X388976Y155276D02*
X408661D01*
X313908Y259276D02*
Y268724D01*
X333593D01*
Y259276D02*
Y268724D01*
X313908Y259276D02*
X333593D01*
X305669Y155276D02*
Y164724D01*
X325354D01*
Y155276D02*
Y164724D01*
X305669Y155276D02*
X325354D01*
X570157D02*
Y164724D01*
X589843D01*
Y155276D02*
Y164724D01*
X570157Y155276D02*
X589843D01*
X500157Y255276D02*
Y264724D01*
X519842D01*
Y255276D02*
Y264724D01*
X500157Y255276D02*
X519842D01*
X490158Y155276D02*
Y164724D01*
X509842D01*
Y155276D02*
Y164724D01*
X490158Y155276D02*
X509842D01*
X418976D02*
Y164724D01*
X438661D01*
Y155276D02*
Y164724D01*
X418976Y155276D02*
X438661D01*
X342476Y260157D02*
X351924D01*
X342476D02*
Y279842D01*
X351924D01*
Y260157D02*
Y279842D01*
X335669Y155276D02*
Y164724D01*
X355354D01*
Y155276D02*
Y164724D01*
X335669Y155276D02*
X355354D01*
X460157Y205276D02*
Y214724D01*
X479843D01*
Y205276D02*
Y214724D01*
X460157Y205276D02*
X479843D01*
X315669Y195276D02*
Y204724D01*
X335354D01*
Y195276D02*
Y204724D01*
X315669Y195276D02*
X335354D01*
X469842Y225276D02*
Y234724D01*
X450157Y225276D02*
X469842D01*
X450157D02*
Y234724D01*
X469842D01*
X325354Y215276D02*
Y224724D01*
X305669Y215276D02*
X325354D01*
X305669D02*
Y224724D01*
X325354D01*
X460157Y505276D02*
Y514724D01*
X479843D01*
Y505276D02*
Y514724D01*
X460157Y505276D02*
X479843D01*
X469842Y525276D02*
Y534724D01*
X450157Y525276D02*
X469842D01*
X450157D02*
Y534724D01*
X469842D01*
X360787Y489843D02*
X370236D01*
Y470157D02*
Y489843D01*
X360787Y470157D02*
X370236D01*
X360787D02*
Y489843D01*
X305669Y455276D02*
Y464724D01*
X325354D01*
Y455276D02*
Y464724D01*
X305669Y455276D02*
X325354D01*
X335669D02*
Y464724D01*
X355354D01*
Y455276D02*
Y464724D01*
X335669Y455276D02*
X355354D01*
X325354Y515276D02*
Y524724D01*
X305669Y515276D02*
X325354D01*
X305669D02*
Y524724D01*
X325354D01*
X315669Y495276D02*
Y504724D01*
X335354D01*
Y495276D02*
Y504724D01*
X315669Y495276D02*
X335354D01*
X342476Y560157D02*
X351924D01*
X342476D02*
Y579843D01*
X351924D01*
Y560157D02*
Y579843D01*
X418976Y455276D02*
Y464724D01*
X438661D01*
Y455276D02*
Y464724D01*
X418976Y455276D02*
X438661D01*
X490158D02*
Y464724D01*
X509842D01*
Y455276D02*
Y464724D01*
X490158Y455276D02*
X509842D01*
X500157Y555276D02*
Y564724D01*
X519842D01*
Y555276D02*
Y564724D01*
X500157Y555276D02*
X519842D01*
X570157Y455276D02*
Y464724D01*
X589843D01*
Y455276D02*
Y464724D01*
X570157Y455276D02*
X589843D01*
X313908Y559276D02*
Y568724D01*
X333593D01*
Y559276D02*
Y568724D01*
X313908Y559276D02*
X333593D01*
X388976Y455276D02*
Y464724D01*
X408661D01*
Y455276D02*
Y464724D01*
X388976Y455276D02*
X408661D01*
X460157D02*
Y464724D01*
X479843D01*
Y455276D02*
Y464724D01*
X460157Y455276D02*
X479843D01*
X470157Y555276D02*
Y564724D01*
X489843D01*
Y555276D02*
Y564724D01*
X470157Y555276D02*
X489843D01*
X540158Y455276D02*
Y464724D01*
X559842D01*
Y455276D02*
Y464724D01*
X540158Y455276D02*
X559842D01*
X389026Y574157D02*
X398475D01*
X389026D02*
Y593843D01*
X398475D01*
Y574157D02*
Y593843D01*
X434094Y489843D02*
X443543D01*
Y470157D02*
Y489843D01*
X434094Y470157D02*
X443543D01*
X434094D02*
Y489843D01*
X515276D02*
X524724D01*
Y470157D02*
Y489843D01*
X515276Y470157D02*
X524724D01*
X515276D02*
Y489843D01*
X545276Y570157D02*
X554724D01*
X545276D02*
Y589843D01*
X554724D01*
Y570157D02*
Y589843D01*
X585276Y489843D02*
X594724D01*
Y470157D02*
Y489843D01*
X585276Y470157D02*
X594724D01*
X585276D02*
Y489843D01*
D27*
X225927Y356165D02*
X226926D01*
X226427D01*
Y359163D01*
X225927Y358664D01*
X228426D02*
X228926Y359163D01*
X229925D01*
X230425Y358664D01*
Y356664D01*
X229925Y356165D01*
X228926D01*
X228426Y356664D01*
Y358664D01*
X231425Y359163D02*
Y357164D01*
X232425Y356165D01*
X233424Y357164D01*
Y359163D01*
X234424D02*
Y356165D01*
X235924D01*
X236423Y356664D01*
Y358664D01*
X235924Y359163D01*
X234424D01*
X239422Y358664D02*
X238923Y359163D01*
X237923D01*
X237423Y358664D01*
Y356664D01*
X237923Y356165D01*
X238923D01*
X239422Y356664D01*
X240422Y356165D02*
Y358164D01*
X241422Y359163D01*
X242421Y358164D01*
Y356165D01*
Y357664D01*
X240422D01*
X243421Y355665D02*
X245420D01*
X248419Y356165D02*
X246420D01*
X248419Y358164D01*
Y358664D01*
X247920Y359163D01*
X246920D01*
X246420Y358664D01*
X74391Y356165D02*
X75391D01*
X74891D01*
Y359164D01*
X74391Y358664D01*
X76890D02*
X77390Y359164D01*
X78390D01*
X78890Y358664D01*
Y356664D01*
X78390Y356165D01*
X77390D01*
X76890Y356664D01*
Y358664D01*
X79890Y359164D02*
Y357164D01*
X80889Y356165D01*
X81889Y357164D01*
Y359164D01*
X82889D02*
Y356165D01*
X84388D01*
X84888Y356664D01*
Y358664D01*
X84388Y359164D01*
X82889D01*
X87887Y358664D02*
X87387Y359164D01*
X86387D01*
X85888Y358664D01*
Y356664D01*
X86387Y356165D01*
X87387D01*
X87887Y356664D01*
X88887Y359164D02*
Y356165D01*
X90386D01*
X90886Y356664D01*
Y357164D01*
X90386Y357664D01*
X88887D01*
X90386D01*
X90886Y358164D01*
Y358664D01*
X90386Y359164D01*
X88887D01*
X91886Y355665D02*
X93885D01*
X96884Y356165D02*
X94885D01*
X96884Y358164D01*
Y358664D01*
X96384Y359164D01*
X95385D01*
X94885Y358664D01*
X206826Y384899D02*
X206326Y385399D01*
X205327D01*
X204827Y384899D01*
Y382900D01*
X205327Y382400D01*
X206326D01*
X206826Y382900D01*
X207826Y382400D02*
X208825D01*
X208326D01*
Y385399D01*
X207826Y384899D01*
X210325Y382400D02*
Y384399D01*
X211325Y385399D01*
X212324Y384399D01*
Y382400D01*
Y383899D01*
X210325D01*
X213324Y381900D02*
X215323D01*
X218322Y382400D02*
X216323D01*
X218322Y384399D01*
Y384899D01*
X217823Y385399D01*
X216823D01*
X216323Y384899D01*
X55291Y384899D02*
X54791Y385399D01*
X53791D01*
X53291Y384899D01*
Y382900D01*
X53791Y382400D01*
X54791D01*
X55291Y382900D01*
X56290Y382400D02*
X57290D01*
X56790D01*
Y385399D01*
X56290Y384899D01*
X58789Y385399D02*
Y382400D01*
X60289D01*
X60789Y382900D01*
Y383400D01*
X60289Y383899D01*
X58789D01*
X60289D01*
X60789Y384399D01*
Y384899D01*
X60289Y385399D01*
X58789D01*
X61788Y381900D02*
X63788D01*
X66787Y382400D02*
X64788D01*
X66787Y384399D01*
Y384899D01*
X66287Y385399D01*
X65287D01*
X64788Y384899D01*
X227899Y319599D02*
X227399Y320099D01*
X226400D01*
X225900Y319599D01*
Y317600D01*
X226400Y317100D01*
X227399D01*
X227899Y317600D01*
X228899Y320099D02*
X229899D01*
X229399D01*
Y317100D01*
X228899D01*
X229899D01*
X231398D02*
Y320099D01*
X233398Y317100D01*
Y320099D01*
X237396D02*
Y317100D01*
X238896D01*
X239396Y317600D01*
Y318100D01*
X238896Y318600D01*
X237396D01*
X238896D01*
X239396Y319099D01*
Y319599D01*
X238896Y320099D01*
X237396D01*
X240895Y317100D02*
X241895D01*
X242395Y317600D01*
Y318600D01*
X241895Y319099D01*
X240895D01*
X240395Y318600D01*
Y317600D01*
X240895Y317100D01*
X243894Y319599D02*
Y319099D01*
X243394D01*
X244394D01*
X243894D01*
Y317600D01*
X244394Y317100D01*
X246393Y319599D02*
Y319099D01*
X245894D01*
X246893D01*
X246393D01*
Y317600D01*
X246893Y317100D01*
X248893D02*
X249892D01*
X250392Y317600D01*
Y318600D01*
X249892Y319099D01*
X248893D01*
X248393Y318600D01*
Y317600D01*
X248893Y317100D01*
X251392D02*
Y319099D01*
X251892D01*
X252391Y318600D01*
Y317100D01*
Y318600D01*
X252891Y319099D01*
X253391Y318600D01*
Y317100D01*
X257390Y320099D02*
X259389D01*
X258389D01*
Y317100D01*
X260389Y319099D02*
Y317100D01*
Y318100D01*
X260889Y318600D01*
X261388Y319099D01*
X261888D01*
X263388Y317100D02*
X264388D01*
X263888D01*
Y319099D01*
X263388D01*
X266887Y316100D02*
X267387D01*
X267886Y316600D01*
Y319099D01*
X266387D01*
X265887Y318600D01*
Y317600D01*
X266387Y317100D01*
X267886D01*
X269886Y316100D02*
X270386D01*
X270885Y316600D01*
Y319099D01*
X269386D01*
X268886Y318600D01*
Y317600D01*
X269386Y317100D01*
X270885D01*
X273385D02*
X272385D01*
X271885Y317600D01*
Y318600D01*
X272385Y319099D01*
X273385D01*
X273885Y318600D01*
Y318100D01*
X271885D01*
X274884Y319099D02*
Y317100D01*
Y318100D01*
X275384Y318600D01*
X275884Y319099D01*
X276384D01*
X277883Y317100D02*
X278883D01*
X278383D01*
Y320099D01*
X277883Y319599D01*
X280382Y316600D02*
X282382D01*
X285381Y317100D02*
X283381D01*
X285381Y319099D01*
Y319599D01*
X284881Y320099D01*
X283881D01*
X283381Y319599D01*
X171699Y436299D02*
X171200Y436799D01*
X170200D01*
X169700Y436299D01*
Y434300D01*
X170200Y433800D01*
X171200D01*
X171699Y434300D01*
X172699Y436799D02*
X173699D01*
X173199D01*
Y433800D01*
X172699D01*
X173699D01*
X175198D02*
Y436799D01*
X177198Y433800D01*
Y436799D01*
X181196D02*
X183196D01*
X182196D01*
Y433800D01*
X184695D02*
X185695D01*
X186195Y434300D01*
Y435299D01*
X185695Y435799D01*
X184695D01*
X184195Y435299D01*
Y434300D01*
X184695Y433800D01*
X187194Y432800D02*
Y435799D01*
X188694D01*
X189194Y435299D01*
Y434300D01*
X188694Y433800D01*
X187194D01*
X194692Y436799D02*
X193692D01*
X193192Y436299D01*
Y434300D01*
X193692Y433800D01*
X194692D01*
X195192Y434300D01*
Y436299D01*
X194692Y436799D01*
X196691Y433800D02*
Y436299D01*
Y435299D01*
X196191D01*
X197191D01*
X196691D01*
Y436299D01*
X197191Y436799D01*
X199190Y433800D02*
Y436299D01*
Y435299D01*
X198691D01*
X199690D01*
X199190D01*
Y436299D01*
X199690Y436799D01*
X201190Y433800D02*
X202189D01*
X201690D01*
Y436799D01*
X201190Y436299D01*
X203689Y433300D02*
X205688D01*
X208687Y433800D02*
X206688D01*
X208687Y435799D01*
Y436299D01*
X208188Y436799D01*
X207188D01*
X206688Y436299D01*
X161299Y332099D02*
X160800Y332599D01*
X159800D01*
X159300Y332099D01*
Y330100D01*
X159800Y329600D01*
X160800D01*
X161299Y330100D01*
X162299Y332599D02*
X163299D01*
X162799D01*
Y329600D01*
X162299D01*
X163299D01*
X164798D02*
Y332599D01*
X166798Y329600D01*
Y332599D01*
X170796D02*
X172796D01*
X171796D01*
Y329600D01*
X174295D02*
X175295D01*
X175795Y330100D01*
Y331100D01*
X175295Y331599D01*
X174295D01*
X173795Y331100D01*
Y330100D01*
X174295Y329600D01*
X176794Y328600D02*
Y331599D01*
X178294D01*
X178794Y331100D01*
Y330100D01*
X178294Y329600D01*
X176794D01*
X184292Y332599D02*
X183292D01*
X182792Y332099D01*
Y330100D01*
X183292Y329600D01*
X184292D01*
X184792Y330100D01*
Y332099D01*
X184292Y332599D01*
X185791Y329600D02*
Y331599D01*
X187291D01*
X187791Y331100D01*
Y329600D01*
X188791D02*
X189790D01*
X189290D01*
Y332599D01*
X188791Y332099D01*
X191290Y329100D02*
X193289D01*
X196288Y329600D02*
X194289D01*
X196288Y331599D01*
Y332099D01*
X195788Y332599D01*
X194789D01*
X194289Y332099D01*
X174527Y401599D02*
Y398600D01*
X176026D01*
X176526Y399100D01*
Y401099D01*
X176026Y401599D01*
X174527D01*
X177526Y398600D02*
X178525D01*
X178025D01*
Y401599D01*
X177526Y401099D01*
X180025Y398600D02*
Y400599D01*
X181025Y401599D01*
X182024Y400599D01*
Y398600D01*
Y400099D01*
X180025D01*
X183024Y398100D02*
X185023D01*
X188022Y398600D02*
X186023D01*
X188022Y400599D01*
Y401099D01*
X187522Y401599D01*
X186523D01*
X186023Y401099D01*
X22991Y401599D02*
Y398600D01*
X24491D01*
X24991Y399100D01*
Y401099D01*
X24491Y401599D01*
X22991D01*
X25990Y398600D02*
X26990D01*
X26490D01*
Y401599D01*
X25990Y401099D01*
X28490Y401599D02*
Y398600D01*
X29989D01*
X30489Y399100D01*
Y399600D01*
X29989Y400100D01*
X28490D01*
X29989D01*
X30489Y400599D01*
Y401099D01*
X29989Y401599D01*
X28490D01*
X31488Y398100D02*
X33488D01*
X36487Y398600D02*
X34488D01*
X36487Y400599D01*
Y401099D01*
X35987Y401599D01*
X34987D01*
X34488Y401099D01*
X214527Y401599D02*
Y398600D01*
X216026D01*
X216526Y399100D01*
Y401099D01*
X216026Y401599D01*
X214527D01*
X219525Y398600D02*
X217526D01*
X219525Y400599D01*
Y401099D01*
X219025Y401599D01*
X218025D01*
X217526Y401099D01*
X220525Y398600D02*
Y400599D01*
X221524Y401599D01*
X222524Y400599D01*
Y398600D01*
Y400099D01*
X220525D01*
X223524Y398100D02*
X225523D01*
X228522Y398600D02*
X226523D01*
X228522Y400599D01*
Y401099D01*
X228022Y401599D01*
X227023D01*
X226523Y401099D01*
X62991Y401599D02*
Y398600D01*
X64491D01*
X64991Y399100D01*
Y401099D01*
X64491Y401599D01*
X62991D01*
X67990Y398600D02*
X65990D01*
X67990Y400599D01*
Y401099D01*
X67490Y401599D01*
X66490D01*
X65990Y401099D01*
X68989Y401599D02*
Y398600D01*
X70489D01*
X70989Y399100D01*
Y399600D01*
X70489Y400100D01*
X68989D01*
X70489D01*
X70989Y400599D01*
Y401099D01*
X70489Y401599D01*
X68989D01*
X71988Y398100D02*
X73988D01*
X76987Y398600D02*
X74987D01*
X76987Y400599D01*
Y401099D01*
X76487Y401599D01*
X75487D01*
X74987Y401099D01*
X75900Y320099D02*
Y317100D01*
X77399D01*
X77899Y317600D01*
Y319599D01*
X77399Y320099D01*
X75900D01*
X78899D02*
X79899D01*
X79399D01*
Y317100D01*
X78899D01*
X79899D01*
X81398D02*
Y320099D01*
X83398Y317100D01*
Y320099D01*
X87396D02*
Y317100D01*
X88896D01*
X89396Y317600D01*
Y318100D01*
X88896Y318600D01*
X87396D01*
X88896D01*
X89396Y319099D01*
Y319599D01*
X88896Y320099D01*
X87396D01*
X90895Y317100D02*
X91895D01*
X92395Y317600D01*
Y318600D01*
X91895Y319099D01*
X90895D01*
X90395Y318600D01*
Y317600D01*
X90895Y317100D01*
X93894Y319599D02*
Y319099D01*
X93394D01*
X94394D01*
X93894D01*
Y317600D01*
X94394Y317100D01*
X96393Y319599D02*
Y319099D01*
X95894D01*
X96893D01*
X96393D01*
Y317600D01*
X96893Y317100D01*
X98893D02*
X99892D01*
X100392Y317600D01*
Y318600D01*
X99892Y319099D01*
X98893D01*
X98393Y318600D01*
Y317600D01*
X98893Y317100D01*
X101392D02*
Y319099D01*
X101892D01*
X102391Y318600D01*
Y317100D01*
Y318600D01*
X102891Y319099D01*
X103391Y318600D01*
Y317100D01*
X107390Y320099D02*
X109389D01*
X108389D01*
Y317100D01*
X110389Y319099D02*
Y317100D01*
Y318100D01*
X110889Y318600D01*
X111389Y319099D01*
X111888D01*
X113388Y317100D02*
X114388D01*
X113888D01*
Y319099D01*
X113388D01*
X116887Y316100D02*
X117387D01*
X117886Y316600D01*
Y319099D01*
X116387D01*
X115887Y318600D01*
Y317600D01*
X116387Y317100D01*
X117886D01*
X119886Y316100D02*
X120386D01*
X120885Y316600D01*
Y319099D01*
X119386D01*
X118886Y318600D01*
Y317600D01*
X119386Y317100D01*
X120885D01*
X123385D02*
X122385D01*
X121885Y317600D01*
Y318600D01*
X122385Y319099D01*
X123385D01*
X123884Y318600D01*
Y318100D01*
X121885D01*
X124884Y319099D02*
Y317100D01*
Y318100D01*
X125384Y318600D01*
X125884Y319099D01*
X126384D01*
X127883Y317100D02*
X128883D01*
X128383D01*
Y320099D01*
X127883Y319599D01*
X130382Y316600D02*
X132382D01*
X135381Y317100D02*
X133381D01*
X135381Y319099D01*
Y319599D01*
X134881Y320099D01*
X133881D01*
X133381Y319599D01*
X35900Y380099D02*
Y377100D01*
X37400D01*
X37899Y377600D01*
Y379599D01*
X37400Y380099D01*
X35900D01*
X38899D02*
X39899D01*
X39399D01*
Y377100D01*
X38899D01*
X39899D01*
X41398D02*
Y380099D01*
X43398Y377100D01*
Y380099D01*
X47396D02*
X49396D01*
X48396D01*
Y377100D01*
X50895D02*
X51895D01*
X52395Y377600D01*
Y378600D01*
X51895Y379099D01*
X50895D01*
X50395Y378600D01*
Y377600D01*
X50895Y377100D01*
X53394Y376100D02*
Y379099D01*
X54894D01*
X55394Y378600D01*
Y377600D01*
X54894Y377100D01*
X53394D01*
X60892Y380099D02*
X59892D01*
X59392Y379599D01*
Y377600D01*
X59892Y377100D01*
X60892D01*
X61392Y377600D01*
Y379599D01*
X60892Y380099D01*
X62891Y377100D02*
Y379599D01*
Y378600D01*
X62391D01*
X63391D01*
X62891D01*
Y379599D01*
X63391Y380099D01*
X65390Y377100D02*
Y379599D01*
Y378600D01*
X64891D01*
X65890D01*
X65390D01*
Y379599D01*
X65890Y380099D01*
X67390Y377100D02*
X68389D01*
X67890D01*
Y380099D01*
X67390Y379599D01*
X69889Y376600D02*
X71888D01*
X74887Y377100D02*
X72888D01*
X74887Y379099D01*
Y379599D01*
X74388Y380099D01*
X73388D01*
X72888Y379599D01*
X5300Y333099D02*
Y330100D01*
X6799D01*
X7299Y330600D01*
Y332599D01*
X6799Y333099D01*
X5300D01*
X8299D02*
X9299D01*
X8799D01*
Y330100D01*
X8299D01*
X9299D01*
X10798D02*
Y333099D01*
X12798Y330100D01*
Y333099D01*
X16796D02*
X18796D01*
X17796D01*
Y330100D01*
X20295D02*
X21295D01*
X21795Y330600D01*
Y331599D01*
X21295Y332099D01*
X20295D01*
X19795Y331599D01*
Y330600D01*
X20295Y330100D01*
X22794Y329100D02*
Y332099D01*
X24294D01*
X24794Y331599D01*
Y330600D01*
X24294Y330100D01*
X22794D01*
X30292Y333099D02*
X29292D01*
X28792Y332599D01*
Y330600D01*
X29292Y330100D01*
X30292D01*
X30792Y330600D01*
Y332599D01*
X30292Y333099D01*
X31791Y330100D02*
Y332099D01*
X33291D01*
X33791Y331599D01*
Y330100D01*
X34791D02*
X35790D01*
X35290D01*
Y333099D01*
X34791Y332599D01*
X37290Y329600D02*
X39289D01*
X42288Y330100D02*
X40289D01*
X42288Y332099D01*
Y332599D01*
X41788Y333099D01*
X40788D01*
X40289Y332599D01*
X147899Y308699D02*
X147399Y309199D01*
X146400D01*
X145900Y308699D01*
Y306700D01*
X146400Y306200D01*
X147399D01*
X147899Y306700D01*
Y307699D01*
X146900D01*
X148899Y306200D02*
Y309199D01*
X150898Y306200D01*
Y309199D01*
X151898D02*
Y306200D01*
X153398D01*
X153897Y306700D01*
Y308699D01*
X153398Y309199D01*
X151898D01*
X154897Y306200D02*
X155897D01*
X155397D01*
Y309199D01*
X154897Y308699D01*
X157396Y305700D02*
X159396D01*
X162395Y306200D02*
X160395D01*
X162395Y308199D01*
Y308699D01*
X161895Y309199D01*
X160895D01*
X160395Y308699D01*
X283600Y440899D02*
Y437900D01*
Y439399D01*
X285599D01*
Y440899D01*
Y437900D01*
X286599Y440899D02*
Y438900D01*
X287599Y437900D01*
X288598Y438900D01*
Y440899D01*
X289598Y437900D02*
X290598D01*
X290098D01*
Y439899D01*
X289598D01*
X292097Y437900D02*
Y439899D01*
X293597D01*
X294097Y439399D01*
Y437900D01*
X295096D02*
X296096D01*
X295596D01*
Y440899D01*
X295096Y440399D01*
X297596Y437400D02*
X299595D01*
X302594Y437900D02*
X300594D01*
X302594Y439899D01*
Y440399D01*
X302094Y440899D01*
X301094D01*
X300594Y440399D01*
X107399Y445200D02*
Y447199D01*
X106899Y447699D01*
X105900D01*
X105400Y447199D01*
Y445200D01*
X105900Y444700D01*
X106899D01*
X106400Y445700D02*
X107399Y444700D01*
X106899D02*
X107399Y445200D01*
X108399Y444700D02*
X109399D01*
X108899D01*
Y447699D01*
X108399Y447199D01*
X110898Y444200D02*
X112898D01*
X115897Y444700D02*
X113897D01*
X115897Y446699D01*
Y447199D01*
X115397Y447699D01*
X114397D01*
X113897Y447199D01*
X257426Y445200D02*
Y447199D01*
X256926Y447699D01*
X255926D01*
X255427Y447199D01*
Y445200D01*
X255926Y444700D01*
X256926D01*
X256426Y445700D02*
X257426Y444700D01*
X256926D02*
X257426Y445200D01*
X260425Y444700D02*
X258426D01*
X260425Y446699D01*
Y447199D01*
X259925Y447699D01*
X258926D01*
X258426Y447199D01*
X261425Y444200D02*
X263424D01*
X266423Y444700D02*
X264424D01*
X266423Y446699D01*
Y447199D01*
X265923Y447699D01*
X264924D01*
X264424Y447199D01*
X107399Y395200D02*
Y397199D01*
X106899Y397699D01*
X105900D01*
X105400Y397199D01*
Y395200D01*
X105900Y394700D01*
X106899D01*
X106400Y395700D02*
X107399Y394700D01*
X106899D02*
X107399Y395200D01*
X108399Y397199D02*
X108899Y397699D01*
X109899D01*
X110398Y397199D01*
Y396699D01*
X109899Y396199D01*
X109399D01*
X109899D01*
X110398Y395700D01*
Y395200D01*
X109899Y394700D01*
X108899D01*
X108399Y395200D01*
X111398Y394200D02*
X113397D01*
X116396Y394700D02*
X114397D01*
X116396Y396699D01*
Y397199D01*
X115897Y397699D01*
X114897D01*
X114397Y397199D01*
X257426Y395200D02*
Y397199D01*
X256926Y397699D01*
X255926D01*
X255427Y397199D01*
Y395200D01*
X255926Y394700D01*
X256926D01*
X256426Y395700D02*
X257426Y394700D01*
X256926D02*
X257426Y395200D01*
X259925Y394700D02*
Y397699D01*
X258426Y396199D01*
X260425D01*
X261425Y394200D02*
X263424D01*
X266423Y394700D02*
X264424D01*
X266423Y396699D01*
Y397199D01*
X265923Y397699D01*
X264924D01*
X264424Y397199D01*
X265026Y339600D02*
Y341599D01*
X264526Y342099D01*
X263526D01*
X263027Y341599D01*
Y339600D01*
X263526Y339100D01*
X264526D01*
X264026Y340100D02*
X265026Y339100D01*
X264526D02*
X265026Y339600D01*
X268025Y342099D02*
X266026D01*
Y340599D01*
X267025Y341099D01*
X267525D01*
X268025Y340599D01*
Y339600D01*
X267525Y339100D01*
X266526D01*
X266026Y339600D01*
X269025Y339100D02*
Y341099D01*
X270024Y342099D01*
X271024Y341099D01*
Y339100D01*
Y340599D01*
X269025D01*
X272024Y338600D02*
X274023D01*
X277022Y339100D02*
X275023D01*
X277022Y341099D01*
Y341599D01*
X276522Y342099D01*
X275523D01*
X275023Y341599D01*
X235026Y419600D02*
Y421599D01*
X234526Y422099D01*
X233526D01*
X233027Y421599D01*
Y419600D01*
X233526Y419100D01*
X234526D01*
X234026Y420100D02*
X235026Y419100D01*
X234526D02*
X235026Y419600D01*
X238025Y422099D02*
X236026D01*
Y420599D01*
X237025Y421099D01*
X237525D01*
X238025Y420599D01*
Y419600D01*
X237525Y419100D01*
X236526D01*
X236026Y419600D01*
X239025Y422099D02*
Y419100D01*
X240524D01*
X241024Y419600D01*
Y420100D01*
X240524Y420599D01*
X239025D01*
X240524D01*
X241024Y421099D01*
Y421599D01*
X240524Y422099D01*
X239025D01*
X242024Y418600D02*
X244023D01*
X247022Y419100D02*
X245023D01*
X247022Y421099D01*
Y421599D01*
X246522Y422099D01*
X245523D01*
X245023Y421599D01*
X205026Y359600D02*
Y361599D01*
X204526Y362099D01*
X203526D01*
X203027Y361599D01*
Y359600D01*
X203526Y359100D01*
X204526D01*
X204026Y360100D02*
X205026Y359100D01*
X204526D02*
X205026Y359600D01*
X208025Y362099D02*
X206026D01*
Y360599D01*
X207025Y361099D01*
X207525D01*
X208025Y360599D01*
Y359600D01*
X207525Y359100D01*
X206525D01*
X206026Y359600D01*
X211024Y361599D02*
X210524Y362099D01*
X209524D01*
X209025Y361599D01*
Y359600D01*
X209524Y359100D01*
X210524D01*
X211024Y359600D01*
X212024Y358600D02*
X214023D01*
X217022Y359100D02*
X215023D01*
X217022Y361099D01*
Y361599D01*
X216522Y362099D01*
X215523D01*
X215023Y361599D01*
X113845Y339600D02*
Y341599D01*
X113345Y342099D01*
X112345D01*
X111846Y341599D01*
Y339600D01*
X112345Y339100D01*
X113345D01*
X112845Y340100D02*
X113845Y339100D01*
X113345D02*
X113845Y339600D01*
X116844Y342099D02*
X114845D01*
Y340599D01*
X115844Y341099D01*
X116344D01*
X116844Y340599D01*
Y339600D01*
X116344Y339100D01*
X115344D01*
X114845Y339600D01*
X117844Y342099D02*
Y339100D01*
X119343D01*
X119843Y339600D01*
Y341599D01*
X119343Y342099D01*
X117844D01*
X120843Y338600D02*
X122842D01*
X125841Y339100D02*
X123842D01*
X125841Y341099D01*
Y341599D01*
X125341Y342099D01*
X124341D01*
X123842Y341599D01*
X78776Y423600D02*
Y425599D01*
X78276Y426099D01*
X77276D01*
X76777Y425599D01*
Y423600D01*
X77276Y423100D01*
X78276D01*
X77776Y424100D02*
X78776Y423100D01*
X78276D02*
X78776Y423600D01*
X81775Y426099D02*
X79776D01*
Y424599D01*
X80775Y425099D01*
X81275D01*
X81775Y424599D01*
Y423600D01*
X81275Y423100D01*
X80275D01*
X79776Y423600D01*
X84774Y426099D02*
X82775D01*
Y423100D01*
X84774D01*
X82775Y424599D02*
X83774D01*
X85774Y422600D02*
X87773D01*
X90772Y423100D02*
X88773D01*
X90772Y425099D01*
Y425599D01*
X90272Y426099D01*
X89273D01*
X88773Y425599D01*
X50538Y359600D02*
Y361599D01*
X50038Y362099D01*
X49038D01*
X48538Y361599D01*
Y359600D01*
X49038Y359100D01*
X50038D01*
X49538Y360100D02*
X50538Y359100D01*
X50038D02*
X50538Y359600D01*
X53537Y362099D02*
X51537D01*
Y360599D01*
X52537Y361099D01*
X53037D01*
X53537Y360599D01*
Y359600D01*
X53037Y359100D01*
X52037D01*
X51537Y359600D01*
X56536Y362099D02*
X54536D01*
Y360599D01*
X55536D01*
X54536D01*
Y359100D01*
X57535Y358600D02*
X59535D01*
X62534Y359100D02*
X60535D01*
X62534Y361099D01*
Y361599D01*
X62034Y362099D01*
X61034D01*
X60535Y361599D01*
X239026Y344100D02*
Y346099D01*
X238526Y346599D01*
X237526D01*
X237027Y346099D01*
Y344100D01*
X237526Y343600D01*
X238526D01*
X238026Y344600D02*
X239026Y343600D01*
X238526D02*
X239026Y344100D01*
X242025Y346599D02*
X241025Y346099D01*
X240026Y345099D01*
Y344100D01*
X240526Y343600D01*
X241525D01*
X242025Y344100D01*
Y344600D01*
X241525Y345099D01*
X240026D01*
X243025Y343600D02*
Y345599D01*
X244024Y346599D01*
X245024Y345599D01*
Y343600D01*
Y345099D01*
X243025D01*
X246024Y343100D02*
X248023D01*
X251022Y343600D02*
X249023D01*
X251022Y345599D01*
Y346099D01*
X250522Y346599D01*
X249523D01*
X249023Y346099D01*
X225026Y439600D02*
Y441599D01*
X224526Y442099D01*
X223526D01*
X223027Y441599D01*
Y439600D01*
X223526Y439100D01*
X224526D01*
X224026Y440100D02*
X225026Y439100D01*
X224526D02*
X225026Y439600D01*
X228025Y442099D02*
X227025Y441599D01*
X226026Y440599D01*
Y439600D01*
X226525Y439100D01*
X227525D01*
X228025Y439600D01*
Y440100D01*
X227525Y440599D01*
X226026D01*
X229025Y442099D02*
Y439100D01*
X230524D01*
X231024Y439600D01*
Y440100D01*
X230524Y440599D01*
X229025D01*
X230524D01*
X231024Y441099D01*
Y441599D01*
X230524Y442099D01*
X229025D01*
X232024Y438600D02*
X234023D01*
X237022Y439100D02*
X235023D01*
X237022Y441099D01*
Y441599D01*
X236522Y442099D01*
X235523D01*
X235023Y441599D01*
X195026Y339600D02*
Y341599D01*
X194526Y342099D01*
X193526D01*
X193027Y341599D01*
Y339600D01*
X193526Y339100D01*
X194526D01*
X194026Y340100D02*
X195026Y339100D01*
X194526D02*
X195026Y339600D01*
X198025Y342099D02*
X197025Y341599D01*
X196026Y340599D01*
Y339600D01*
X196526Y339100D01*
X197525D01*
X198025Y339600D01*
Y340100D01*
X197525Y340599D01*
X196026D01*
X201024Y341599D02*
X200524Y342099D01*
X199524D01*
X199025Y341599D01*
Y339600D01*
X199524Y339100D01*
X200524D01*
X201024Y339600D01*
X202024Y338600D02*
X204023D01*
X207022Y339100D02*
X205023D01*
X207022Y341099D01*
Y341599D01*
X206522Y342099D01*
X205523D01*
X205023Y341599D01*
X92826Y342900D02*
Y344899D01*
X92326Y345399D01*
X91326D01*
X90827Y344899D01*
Y342900D01*
X91326Y342400D01*
X92326D01*
X91826Y343400D02*
X92826Y342400D01*
X92326D02*
X92826Y342900D01*
X95825Y345399D02*
X94825Y344899D01*
X93826Y343899D01*
Y342900D01*
X94326Y342400D01*
X95325D01*
X95825Y342900D01*
Y343400D01*
X95325Y343899D01*
X93826D01*
X96825Y345399D02*
Y342400D01*
X98324D01*
X98824Y342900D01*
Y344899D01*
X98324Y345399D01*
X96825D01*
X99824Y341900D02*
X101823D01*
X104822Y342400D02*
X102823D01*
X104822Y344399D01*
Y344899D01*
X104322Y345399D01*
X103323D01*
X102823Y344899D01*
X68776Y443600D02*
Y445599D01*
X68276Y446099D01*
X67277D01*
X66777Y445599D01*
Y443600D01*
X67277Y443100D01*
X68276D01*
X67776Y444100D02*
X68776Y443100D01*
X68276D02*
X68776Y443600D01*
X71775Y446099D02*
X70775Y445599D01*
X69776Y444599D01*
Y443600D01*
X70275Y443100D01*
X71275D01*
X71775Y443600D01*
Y444100D01*
X71275Y444599D01*
X69776D01*
X74774Y446099D02*
X72775D01*
Y443100D01*
X74774D01*
X72775Y444599D02*
X73774D01*
X75774Y442600D02*
X77773D01*
X80772Y443100D02*
X78773D01*
X80772Y445099D01*
Y445599D01*
X80272Y446099D01*
X79273D01*
X78773Y445599D01*
X40538Y339600D02*
Y341599D01*
X40038Y342099D01*
X39038D01*
X38538Y341599D01*
Y339600D01*
X39038Y339100D01*
X40038D01*
X39538Y340100D02*
X40538Y339100D01*
X40038D02*
X40538Y339600D01*
X43537Y342099D02*
X42537Y341599D01*
X41537Y340599D01*
Y339600D01*
X42037Y339100D01*
X43037D01*
X43537Y339600D01*
Y340100D01*
X43037Y340599D01*
X41537D01*
X46536Y342099D02*
X44537D01*
Y340599D01*
X45536D01*
X44537D01*
Y339100D01*
X47535Y338600D02*
X49535D01*
X52534Y339100D02*
X50534D01*
X52534Y341099D01*
Y341599D01*
X52034Y342099D01*
X51034D01*
X50534Y341599D01*
X165026Y349600D02*
Y351599D01*
X164526Y352099D01*
X163526D01*
X163027Y351599D01*
Y349600D01*
X163526Y349100D01*
X164526D01*
X164026Y350100D02*
X165026Y349100D01*
X164526D02*
X165026Y349600D01*
X166026Y352099D02*
X168025D01*
Y351599D01*
X166026Y349600D01*
Y349100D01*
X169025D02*
Y351099D01*
X170024Y352099D01*
X171024Y351099D01*
Y349100D01*
Y350599D01*
X169025D01*
X172024Y348600D02*
X174023D01*
X177022Y349100D02*
X175023D01*
X177022Y351099D01*
Y351599D01*
X176522Y352099D01*
X175523D01*
X175023Y351599D01*
X20538Y339600D02*
Y341599D01*
X20038Y342099D01*
X19038D01*
X18539Y341599D01*
Y339600D01*
X19038Y339100D01*
X20038D01*
X19538Y340100D02*
X20538Y339100D01*
X20038D02*
X20538Y339600D01*
X21538Y342099D02*
X23537D01*
Y341599D01*
X21538Y339600D01*
Y339100D01*
X24536Y342099D02*
Y339100D01*
X26036D01*
X26536Y339600D01*
Y340100D01*
X26036Y340599D01*
X24536D01*
X26036D01*
X26536Y341099D01*
Y341599D01*
X26036Y342099D01*
X24536D01*
X27536Y338600D02*
X29535D01*
X32534Y339100D02*
X30535D01*
X32534Y341099D01*
Y341599D01*
X32034Y342099D01*
X31034D01*
X30535Y341599D01*
X284827Y342400D02*
Y345399D01*
X286326D01*
X286826Y344899D01*
Y343899D01*
X286326Y343400D01*
X284827D01*
X285826D02*
X286826Y342400D01*
X289825D02*
X287826D01*
X289825Y344399D01*
Y344899D01*
X289325Y345399D01*
X288326D01*
X287826Y344899D01*
X290825Y342400D02*
Y344399D01*
X291824Y345399D01*
X292824Y344399D01*
Y342400D01*
Y343899D01*
X290825D01*
X293824Y341900D02*
X295823D01*
X298822Y342400D02*
X296823D01*
X298822Y344399D01*
Y344899D01*
X298322Y345399D01*
X297323D01*
X296823Y344899D01*
X244827Y442400D02*
Y445399D01*
X246326D01*
X246826Y444899D01*
Y443899D01*
X246326Y443400D01*
X244827D01*
X245826D02*
X246826Y442400D01*
X249825D02*
X247826D01*
X249825Y444399D01*
Y444899D01*
X249325Y445399D01*
X248325D01*
X247826Y444899D01*
X250825Y445399D02*
Y442400D01*
X252324D01*
X252824Y442900D01*
Y443400D01*
X252324Y443899D01*
X250825D01*
X252324D01*
X252824Y444399D01*
Y444899D01*
X252324Y445399D01*
X250825D01*
X253824Y441900D02*
X255823D01*
X258822Y442400D02*
X256823D01*
X258822Y444399D01*
Y444899D01*
X258322Y445399D01*
X257323D01*
X256823Y444899D01*
X214827Y342400D02*
Y345399D01*
X216326D01*
X216826Y344899D01*
Y343899D01*
X216326Y343400D01*
X214827D01*
X215826D02*
X216826Y342400D01*
X219825D02*
X217826D01*
X219825Y344399D01*
Y344899D01*
X219325Y345399D01*
X218325D01*
X217826Y344899D01*
X222824D02*
X222324Y345399D01*
X221325D01*
X220825Y344899D01*
Y342900D01*
X221325Y342400D01*
X222324D01*
X222824Y342900D01*
X223824Y341900D02*
X225823D01*
X228822Y342400D02*
X226823D01*
X228822Y344399D01*
Y344899D01*
X228322Y345399D01*
X227323D01*
X226823Y344899D01*
X133646Y342400D02*
Y345399D01*
X135145D01*
X135645Y344899D01*
Y343899D01*
X135145Y343400D01*
X133646D01*
X134645D02*
X135645Y342400D01*
X138644D02*
X136645D01*
X138644Y344399D01*
Y344899D01*
X138144Y345399D01*
X137144D01*
X136645Y344899D01*
X139644Y345399D02*
Y342400D01*
X141143D01*
X141643Y342900D01*
Y344899D01*
X141143Y345399D01*
X139644D01*
X142643Y341900D02*
X144642D01*
X147641Y342400D02*
X145642D01*
X147641Y344399D01*
Y344899D01*
X147141Y345399D01*
X146142D01*
X145642Y344899D01*
X88577Y446400D02*
Y449399D01*
X90076D01*
X90576Y448899D01*
Y447899D01*
X90076Y447400D01*
X88577D01*
X89576D02*
X90576Y446400D01*
X93575D02*
X91576D01*
X93575Y448399D01*
Y448899D01*
X93075Y449399D01*
X92076D01*
X91576Y448899D01*
X96574Y449399D02*
X94575D01*
Y446400D01*
X96574D01*
X94575Y447899D02*
X95574D01*
X97574Y445900D02*
X99573D01*
X102572Y446400D02*
X100573D01*
X102572Y448399D01*
Y448899D01*
X102072Y449399D01*
X101073D01*
X100573Y448899D01*
X60338Y342400D02*
Y345399D01*
X61838D01*
X62338Y344899D01*
Y343899D01*
X61838Y343400D01*
X60338D01*
X61338D02*
X62338Y342400D01*
X65337D02*
X63337D01*
X65337Y344399D01*
Y344899D01*
X64837Y345399D01*
X63837D01*
X63337Y344899D01*
X68336Y345399D02*
X66337D01*
Y343899D01*
X67336D01*
X66337D01*
Y342400D01*
X69336Y341900D02*
X71335D01*
X74334Y342400D02*
X72335D01*
X74334Y344399D01*
Y344899D01*
X73834Y345399D01*
X72834D01*
X72335Y344899D01*
X239647Y317318D02*
Y320317D01*
X241146D01*
X241646Y319817D01*
Y318817D01*
X241146Y318318D01*
X239647D01*
X240646D02*
X241646Y317318D01*
X242646Y319817D02*
X243145Y320317D01*
X244145D01*
X244645Y319817D01*
Y319317D01*
X244145Y318817D01*
X243645D01*
X244145D01*
X244645Y318318D01*
Y317818D01*
X244145Y317318D01*
X243145D01*
X242646Y317818D01*
X245645Y317318D02*
Y319317D01*
X246644Y320317D01*
X247644Y319317D01*
Y317318D01*
Y318817D01*
X245645D01*
X248644Y316818D02*
X250643D01*
X253642Y317318D02*
X251643D01*
X253642Y319317D01*
Y319817D01*
X253142Y320317D01*
X252143D01*
X251643Y319817D01*
X169647Y417318D02*
Y420317D01*
X171146D01*
X171646Y419817D01*
Y418817D01*
X171146Y418318D01*
X169647D01*
X170646D02*
X171646Y417318D01*
X172646Y419817D02*
X173145Y420317D01*
X174145D01*
X174645Y419817D01*
Y419317D01*
X174145Y418817D01*
X173645D01*
X174145D01*
X174645Y418318D01*
Y417818D01*
X174145Y417318D01*
X173145D01*
X172646Y417818D01*
X175645Y420317D02*
Y417318D01*
X177144D01*
X177644Y417818D01*
Y418318D01*
X177144Y418817D01*
X175645D01*
X177144D01*
X177644Y419317D01*
Y419817D01*
X177144Y420317D01*
X175645D01*
X178644Y416818D02*
X180643D01*
X183642Y417318D02*
X181643D01*
X183642Y419317D01*
Y419817D01*
X183142Y420317D01*
X182142D01*
X181643Y419817D01*
X159647Y317318D02*
Y320317D01*
X161146D01*
X161646Y319817D01*
Y318817D01*
X161146Y318318D01*
X159647D01*
X160646D02*
X161646Y317318D01*
X162646Y319817D02*
X163145Y320317D01*
X164145D01*
X164645Y319817D01*
Y319317D01*
X164145Y318817D01*
X163645D01*
X164145D01*
X164645Y318318D01*
Y317818D01*
X164145Y317318D01*
X163145D01*
X162646Y317818D01*
X167644Y319817D02*
X167144Y320317D01*
X166145D01*
X165645Y319817D01*
Y317818D01*
X166145Y317318D01*
X167144D01*
X167644Y317818D01*
X168644Y316818D02*
X170643D01*
X173642Y317318D02*
X171643D01*
X173642Y319317D01*
Y319817D01*
X173142Y320317D01*
X172143D01*
X171643Y319817D01*
X88465Y317318D02*
Y320317D01*
X89965D01*
X90465Y319817D01*
Y318817D01*
X89965Y318318D01*
X88465D01*
X89465D02*
X90465Y317318D01*
X91465Y319817D02*
X91964Y320317D01*
X92964D01*
X93464Y319817D01*
Y319317D01*
X92964Y318817D01*
X92464D01*
X92964D01*
X93464Y318318D01*
Y317818D01*
X92964Y317318D01*
X91964D01*
X91465Y317818D01*
X94463Y320317D02*
Y317318D01*
X95963D01*
X96463Y317818D01*
Y319817D01*
X95963Y320317D01*
X94463D01*
X97463Y316818D02*
X99462D01*
X102461Y317318D02*
X100462D01*
X102461Y319317D01*
Y319817D01*
X101961Y320317D01*
X100961D01*
X100462Y319817D01*
X13397Y421318D02*
Y424317D01*
X14896D01*
X15396Y423817D01*
Y422817D01*
X14896Y422318D01*
X13397D01*
X14396D02*
X15396Y421318D01*
X16396Y423817D02*
X16895Y424317D01*
X17895D01*
X18395Y423817D01*
Y423317D01*
X17895Y422817D01*
X17395D01*
X17895D01*
X18395Y422318D01*
Y421818D01*
X17895Y421318D01*
X16895D01*
X16396Y421818D01*
X21394Y424317D02*
X19395D01*
Y421318D01*
X21394D01*
X19395Y422817D02*
X20394D01*
X22394Y420818D02*
X24393D01*
X27392Y421318D02*
X25393D01*
X27392Y423317D01*
Y423817D01*
X26892Y424317D01*
X25893D01*
X25393Y423817D01*
X5158Y317318D02*
Y320317D01*
X6658D01*
X7158Y319817D01*
Y318817D01*
X6658Y318318D01*
X5158D01*
X6158D02*
X7158Y317318D01*
X8157Y319817D02*
X8657Y320317D01*
X9657D01*
X10157Y319817D01*
Y319317D01*
X9657Y318817D01*
X9157D01*
X9657D01*
X10157Y318318D01*
Y317818D01*
X9657Y317318D01*
X8657D01*
X8157Y317818D01*
X13156Y320317D02*
X11156D01*
Y318817D01*
X12156D01*
X11156D01*
Y317318D01*
X14155Y316818D02*
X16155D01*
X19154Y317318D02*
X17154D01*
X19154Y319317D01*
Y319817D01*
X18654Y320317D01*
X17654D01*
X17154Y319817D01*
X269619Y317318D02*
Y320317D01*
X271118D01*
X271618Y319817D01*
Y318817D01*
X271118Y318318D01*
X269619D01*
X270618D02*
X271618Y317318D01*
X274117D02*
Y320317D01*
X272618Y318817D01*
X274617D01*
X275617Y317318D02*
Y319317D01*
X276616Y320317D01*
X277616Y319317D01*
Y317318D01*
Y318817D01*
X275617D01*
X278616Y316818D02*
X280615D01*
X283614Y317318D02*
X281615D01*
X283614Y319317D01*
Y319817D01*
X283114Y320317D01*
X282115D01*
X281615Y319817D01*
X199627Y417300D02*
Y420299D01*
X201126D01*
X201626Y419799D01*
Y418799D01*
X201126Y418300D01*
X199627D01*
X200626D02*
X201626Y417300D01*
X204125D02*
Y420299D01*
X202626Y418799D01*
X204625D01*
X205625Y420299D02*
Y417300D01*
X207124D01*
X207624Y417800D01*
Y418300D01*
X207124Y418799D01*
X205625D01*
X207124D01*
X207624Y419299D01*
Y419799D01*
X207124Y420299D01*
X205625D01*
X208624Y416800D02*
X210623D01*
X213622Y417300D02*
X211623D01*
X213622Y419299D01*
Y419799D01*
X213122Y420299D01*
X212123D01*
X211623Y419799D01*
X189619Y317318D02*
Y320317D01*
X191118D01*
X191618Y319817D01*
Y318817D01*
X191118Y318318D01*
X189619D01*
X190618D02*
X191618Y317318D01*
X194117D02*
Y320317D01*
X192618Y318817D01*
X194617D01*
X197616Y319817D02*
X197116Y320317D01*
X196116D01*
X195617Y319817D01*
Y317818D01*
X196116Y317318D01*
X197116D01*
X197616Y317818D01*
X198616Y316818D02*
X200615D01*
X203614Y317318D02*
X201615D01*
X203614Y319317D01*
Y319817D01*
X203114Y320317D01*
X202115D01*
X201615Y319817D01*
X118438Y317318D02*
Y320317D01*
X119937D01*
X120437Y319817D01*
Y318817D01*
X119937Y318318D01*
X118438D01*
X119437D02*
X120437Y317318D01*
X122936D02*
Y320317D01*
X121437Y318817D01*
X123436D01*
X124436Y320317D02*
Y317318D01*
X125935D01*
X126435Y317818D01*
Y319817D01*
X125935Y320317D01*
X124436D01*
X127435Y316818D02*
X129434D01*
X132433Y317318D02*
X130434D01*
X132433Y319317D01*
Y319817D01*
X131933Y320317D01*
X130933D01*
X130434Y319817D01*
X41977Y432400D02*
Y435399D01*
X43476D01*
X43976Y434899D01*
Y433899D01*
X43476Y433400D01*
X41977D01*
X42976D02*
X43976Y432400D01*
X46475D02*
Y435399D01*
X44976Y433899D01*
X46975D01*
X49974Y435399D02*
X47975D01*
Y432400D01*
X49974D01*
X47975Y433899D02*
X48974D01*
X50974Y431900D02*
X52973D01*
X55972Y432400D02*
X53973D01*
X55972Y434399D01*
Y434899D01*
X55472Y435399D01*
X54473D01*
X53973Y434899D01*
X35130Y317318D02*
Y320317D01*
X36630D01*
X37130Y319817D01*
Y318817D01*
X36630Y318318D01*
X35130D01*
X36130D02*
X37130Y317318D01*
X39629D02*
Y320317D01*
X38129Y318817D01*
X40129D01*
X43128Y320317D02*
X41129D01*
Y318817D01*
X42128D01*
X41129D01*
Y317318D01*
X44128Y316818D02*
X46127D01*
X49126Y317318D02*
X47126D01*
X49126Y319317D01*
Y319817D01*
X48626Y320317D01*
X47626D01*
X47126Y319817D01*
X159627Y367300D02*
Y370299D01*
X161126D01*
X161626Y369799D01*
Y368799D01*
X161126Y368300D01*
X159627D01*
X160626D02*
X161626Y367300D01*
X164625Y370299D02*
X162626D01*
Y368799D01*
X163625Y369299D01*
X164125D01*
X164625Y368799D01*
Y367800D01*
X164125Y367300D01*
X163126D01*
X162626Y367800D01*
X165625Y367300D02*
Y369299D01*
X166624Y370299D01*
X167624Y369299D01*
Y367300D01*
Y368799D01*
X165625D01*
X168624Y366800D02*
X170623D01*
X173622Y367300D02*
X171623D01*
X173622Y369299D01*
Y369799D01*
X173122Y370299D01*
X172123D01*
X171623Y369799D01*
X15138Y357300D02*
Y360299D01*
X16638D01*
X17138Y359799D01*
Y358799D01*
X16638Y358300D01*
X15138D01*
X16138D02*
X17138Y357300D01*
X20137Y360299D02*
X18137D01*
Y358799D01*
X19137Y359299D01*
X19637D01*
X20137Y358799D01*
Y357800D01*
X19637Y357300D01*
X18637D01*
X18137Y357800D01*
X21136Y360299D02*
Y357300D01*
X22636D01*
X23136Y357800D01*
Y358300D01*
X22636Y358799D01*
X21136D01*
X22636D01*
X23136Y359299D01*
Y359799D01*
X22636Y360299D01*
X21136D01*
X24136Y356800D02*
X26135D01*
X29134Y357300D02*
X27135D01*
X29134Y359299D01*
Y359799D01*
X28634Y360299D01*
X27634D01*
X27135Y359799D01*
X149627Y387300D02*
Y390299D01*
X151126D01*
X151626Y389799D01*
Y388799D01*
X151126Y388300D01*
X149627D01*
X150626D02*
X151626Y387300D01*
X154625Y390299D02*
X153625Y389799D01*
X152626Y388799D01*
Y387800D01*
X153126Y387300D01*
X154125D01*
X154625Y387800D01*
Y388300D01*
X154125Y388799D01*
X152626D01*
X155625Y387300D02*
Y389299D01*
X156624Y390299D01*
X157624Y389299D01*
Y387300D01*
Y388799D01*
X155625D01*
X158624Y386800D02*
X160623D01*
X163622Y387300D02*
X161623D01*
X163622Y389299D01*
Y389799D01*
X163122Y390299D01*
X162123D01*
X161623Y389799D01*
X5139Y377300D02*
Y380299D01*
X6638D01*
X7138Y379799D01*
Y378799D01*
X6638Y378300D01*
X5139D01*
X6138D02*
X7138Y377300D01*
X10137Y380299D02*
X9137Y379799D01*
X8138Y378799D01*
Y377800D01*
X8637Y377300D01*
X9637D01*
X10137Y377800D01*
Y378300D01*
X9637Y378799D01*
X8138D01*
X11136Y380299D02*
Y377300D01*
X12636D01*
X13136Y377800D01*
Y378300D01*
X12636Y378799D01*
X11136D01*
X12636D01*
X13136Y379299D01*
Y379799D01*
X12636Y380299D01*
X11136D01*
X14136Y376800D02*
X16135D01*
X19134Y377300D02*
X17135D01*
X19134Y379299D01*
Y379799D01*
X18634Y380299D01*
X17634D01*
X17135Y379799D01*
X129727Y421699D02*
X129227Y422199D01*
X128228D01*
X127728Y421699D01*
Y419700D01*
X128228Y419200D01*
X129227D01*
X129727Y419700D01*
X130727Y421699D02*
X131227Y422199D01*
X132226D01*
X132726Y421699D01*
Y421199D01*
X132226Y420699D01*
X131727D01*
X132226D01*
X132726Y420200D01*
Y419700D01*
X132226Y419200D01*
X131227D01*
X130727Y419700D01*
X133726Y418700D02*
X135725D01*
X138724Y419200D02*
X136725D01*
X138724Y421199D01*
Y421699D01*
X138224Y422199D01*
X137225D01*
X136725Y421699D01*
X129727Y398199D02*
X129227Y398699D01*
X128228D01*
X127728Y398199D01*
Y396200D01*
X128228Y395700D01*
X129227D01*
X129727Y396200D01*
X132726Y395700D02*
X130727D01*
X132726Y397699D01*
Y398199D01*
X132226Y398699D01*
X131227D01*
X130727Y398199D01*
X133726Y395200D02*
X135725D01*
X138724Y395700D02*
X136725D01*
X138724Y397699D01*
Y398199D01*
X138224Y398699D01*
X137225D01*
X136725Y398199D01*
X526627Y206564D02*
X527626D01*
X527127D01*
Y209563D01*
X526627Y209064D01*
X529126D02*
X529626Y209563D01*
X530625D01*
X531125Y209064D01*
Y207064D01*
X530625Y206564D01*
X529626D01*
X529126Y207064D01*
Y209064D01*
X532125Y209563D02*
Y207564D01*
X533125Y206564D01*
X534124Y207564D01*
Y209563D01*
X535124D02*
Y206564D01*
X536623D01*
X537123Y207064D01*
Y209064D01*
X536623Y209563D01*
X535124D01*
X540122Y209064D02*
X539622Y209563D01*
X538623D01*
X538123Y209064D01*
Y207064D01*
X538623Y206564D01*
X539622D01*
X540122Y207064D01*
X541122Y206564D02*
Y208564D01*
X542122Y209563D01*
X543121Y208564D01*
Y206564D01*
Y208064D01*
X541122D01*
X544121Y206065D02*
X546120D01*
X547120Y206564D02*
X548120D01*
X547620D01*
Y209563D01*
X547120Y209064D01*
X375091Y206565D02*
X376091D01*
X375591D01*
Y209564D01*
X375091Y209064D01*
X377590D02*
X378090Y209564D01*
X379090D01*
X379590Y209064D01*
Y207064D01*
X379090Y206565D01*
X378090D01*
X377590Y207064D01*
Y209064D01*
X380590Y209564D02*
Y207564D01*
X381589Y206565D01*
X382589Y207564D01*
Y209564D01*
X383589D02*
Y206565D01*
X385088D01*
X385588Y207064D01*
Y209064D01*
X385088Y209564D01*
X383589D01*
X388587Y209064D02*
X388087Y209564D01*
X387087D01*
X386588Y209064D01*
Y207064D01*
X387087Y206565D01*
X388087D01*
X388587Y207064D01*
X389587Y209564D02*
Y206565D01*
X391086D01*
X391586Y207064D01*
Y207564D01*
X391086Y208064D01*
X389587D01*
X391086D01*
X391586Y208564D01*
Y209064D01*
X391086Y209564D01*
X389587D01*
X392586Y206065D02*
X394585D01*
X395585Y206565D02*
X396584D01*
X396084D01*
Y209564D01*
X395585Y209064D01*
X507526Y235299D02*
X507026Y235799D01*
X506027D01*
X505527Y235299D01*
Y233300D01*
X506027Y232800D01*
X507026D01*
X507526Y233300D01*
X508526Y232800D02*
X509525D01*
X509025D01*
Y235799D01*
X508526Y235299D01*
X511025Y232800D02*
Y234799D01*
X512025Y235799D01*
X513024Y234799D01*
Y232800D01*
Y234299D01*
X511025D01*
X514024Y232300D02*
X516023D01*
X517023Y232800D02*
X518023D01*
X517523D01*
Y235799D01*
X517023Y235299D01*
X355991Y235299D02*
X355491Y235799D01*
X354491D01*
X353991Y235299D01*
Y233300D01*
X354491Y232800D01*
X355491D01*
X355991Y233300D01*
X356990Y232800D02*
X357990D01*
X357490D01*
Y235799D01*
X356990Y235299D01*
X359489Y235799D02*
Y232800D01*
X360989D01*
X361489Y233300D01*
Y233800D01*
X360989Y234299D01*
X359489D01*
X360989D01*
X361489Y234799D01*
Y235299D01*
X360989Y235799D01*
X359489D01*
X362489Y232300D02*
X364488D01*
X365488Y232800D02*
X366487D01*
X365987D01*
Y235799D01*
X365488Y235299D01*
X528599Y169999D02*
X528099Y170499D01*
X527100D01*
X526600Y169999D01*
Y168000D01*
X527100Y167500D01*
X528099D01*
X528599Y168000D01*
X529599Y170499D02*
X530599D01*
X530099D01*
Y167500D01*
X529599D01*
X530599D01*
X532098D02*
Y170499D01*
X534098Y167500D01*
Y170499D01*
X538096D02*
Y167500D01*
X539596D01*
X540096Y168000D01*
Y168500D01*
X539596Y169000D01*
X538096D01*
X539596D01*
X540096Y169499D01*
Y169999D01*
X539596Y170499D01*
X538096D01*
X541595Y167500D02*
X542595D01*
X543095Y168000D01*
Y169000D01*
X542595Y169499D01*
X541595D01*
X541095Y169000D01*
Y168000D01*
X541595Y167500D01*
X544594Y169999D02*
Y169499D01*
X544094D01*
X545094D01*
X544594D01*
Y168000D01*
X545094Y167500D01*
X547093Y169999D02*
Y169499D01*
X546594D01*
X547593D01*
X547093D01*
Y168000D01*
X547593Y167500D01*
X549593D02*
X550592D01*
X551092Y168000D01*
Y169000D01*
X550592Y169499D01*
X549593D01*
X549093Y169000D01*
Y168000D01*
X549593Y167500D01*
X552092D02*
Y169499D01*
X552592D01*
X553091Y169000D01*
Y167500D01*
Y169000D01*
X553591Y169499D01*
X554091Y169000D01*
Y167500D01*
X558090Y170499D02*
X560089D01*
X559090D01*
Y167500D01*
X561089Y169499D02*
Y167500D01*
Y168500D01*
X561589Y169000D01*
X562088Y169499D01*
X562588D01*
X564088Y167500D02*
X565088D01*
X564588D01*
Y169499D01*
X564088D01*
X567587Y166500D02*
X568087D01*
X568586Y167000D01*
Y169499D01*
X567087D01*
X566587Y169000D01*
Y168000D01*
X567087Y167500D01*
X568586D01*
X570586Y166500D02*
X571086D01*
X571585Y167000D01*
Y169499D01*
X570086D01*
X569586Y169000D01*
Y168000D01*
X570086Y167500D01*
X571585D01*
X574085D02*
X573085D01*
X572585Y168000D01*
Y169000D01*
X573085Y169499D01*
X574085D01*
X574584Y169000D01*
Y168500D01*
X572585D01*
X575584Y169499D02*
Y167500D01*
Y168500D01*
X576084Y169000D01*
X576584Y169499D01*
X577084D01*
X578583Y167500D02*
X579583D01*
X579083D01*
Y170499D01*
X578583Y169999D01*
X581082Y167000D02*
X583082D01*
X584081Y167500D02*
X585081D01*
X584581D01*
Y170499D01*
X584081Y169999D01*
X472399Y286699D02*
X471900Y287199D01*
X470900D01*
X470400Y286699D01*
Y284700D01*
X470900Y284200D01*
X471900D01*
X472399Y284700D01*
X473399Y287199D02*
X474399D01*
X473899D01*
Y284200D01*
X473399D01*
X474399D01*
X475898D02*
Y287199D01*
X477898Y284200D01*
Y287199D01*
X481896D02*
X483896D01*
X482896D01*
Y284200D01*
X485395D02*
X486395D01*
X486895Y284700D01*
Y285700D01*
X486395Y286199D01*
X485395D01*
X484895Y285700D01*
Y284700D01*
X485395Y284200D01*
X487894Y283200D02*
Y286199D01*
X489394D01*
X489894Y285700D01*
Y284700D01*
X489394Y284200D01*
X487894D01*
X495392Y287199D02*
X494392D01*
X493892Y286699D01*
Y284700D01*
X494392Y284200D01*
X495392D01*
X495892Y284700D01*
Y286699D01*
X495392Y287199D01*
X497391Y284200D02*
Y286699D01*
Y285700D01*
X496891D01*
X497891D01*
X497391D01*
Y286699D01*
X497891Y287199D01*
X499891Y284200D02*
Y286699D01*
Y285700D01*
X499391D01*
X500390D01*
X499891D01*
Y286699D01*
X500390Y287199D01*
X501890Y284200D02*
X502889D01*
X502390D01*
Y287199D01*
X501890Y286699D01*
X504389Y283700D02*
X506388D01*
X507388Y284200D02*
X508388D01*
X507888D01*
Y287199D01*
X507388Y286699D01*
X461999Y182499D02*
X461500Y182999D01*
X460500D01*
X460000Y182499D01*
Y180500D01*
X460500Y180000D01*
X461500D01*
X461999Y180500D01*
X462999Y182999D02*
X463999D01*
X463499D01*
Y180000D01*
X462999D01*
X463999D01*
X465498D02*
Y182999D01*
X467498Y180000D01*
Y182999D01*
X471496D02*
X473496D01*
X472496D01*
Y180000D01*
X474995D02*
X475995D01*
X476495Y180500D01*
Y181500D01*
X475995Y181999D01*
X474995D01*
X474495Y181500D01*
Y180500D01*
X474995Y180000D01*
X477494Y179000D02*
Y181999D01*
X478994D01*
X479494Y181500D01*
Y180500D01*
X478994Y180000D01*
X477494D01*
X484992Y182999D02*
X483992D01*
X483492Y182499D01*
Y180500D01*
X483992Y180000D01*
X484992D01*
X485492Y180500D01*
Y182499D01*
X484992Y182999D01*
X486491Y180000D02*
Y181999D01*
X487991D01*
X488491Y181500D01*
Y180000D01*
X489491D02*
X490490D01*
X489990D01*
Y182999D01*
X489491Y182499D01*
X491990Y179500D02*
X493989D01*
X494989Y180000D02*
X495988D01*
X495489D01*
Y182999D01*
X494989Y182499D01*
X475227Y251999D02*
Y249000D01*
X476726D01*
X477226Y249500D01*
Y251499D01*
X476726Y251999D01*
X475227D01*
X478226Y249000D02*
X479225D01*
X478725D01*
Y251999D01*
X478226Y251499D01*
X480725Y249000D02*
Y250999D01*
X481725Y251999D01*
X482724Y250999D01*
Y249000D01*
Y250499D01*
X480725D01*
X483724Y248500D02*
X485723D01*
X486723Y249000D02*
X487723D01*
X487223D01*
Y251999D01*
X486723Y251499D01*
X323691Y251999D02*
Y249000D01*
X325191D01*
X325691Y249500D01*
Y251499D01*
X325191Y251999D01*
X323691D01*
X326690Y249000D02*
X327690D01*
X327190D01*
Y251999D01*
X326690Y251499D01*
X329189Y251999D02*
Y249000D01*
X330689D01*
X331189Y249500D01*
Y250000D01*
X330689Y250500D01*
X329189D01*
X330689D01*
X331189Y250999D01*
Y251499D01*
X330689Y251999D01*
X329189D01*
X332189Y248500D02*
X334188D01*
X335188Y249000D02*
X336187D01*
X335687D01*
Y251999D01*
X335188Y251499D01*
X515227Y251999D02*
Y249000D01*
X516726D01*
X517226Y249500D01*
Y251499D01*
X516726Y251999D01*
X515227D01*
X520225Y249000D02*
X518226D01*
X520225Y250999D01*
Y251499D01*
X519725Y251999D01*
X518725D01*
X518226Y251499D01*
X521225Y249000D02*
Y250999D01*
X522224Y251999D01*
X523224Y250999D01*
Y249000D01*
Y250499D01*
X521225D01*
X524224Y248500D02*
X526223D01*
X527223Y249000D02*
X528223D01*
X527723D01*
Y251999D01*
X527223Y251499D01*
X363691Y251999D02*
Y249000D01*
X365191D01*
X365691Y249500D01*
Y251499D01*
X365191Y251999D01*
X363691D01*
X368690Y249000D02*
X366690D01*
X368690Y250999D01*
Y251499D01*
X368190Y251999D01*
X367190D01*
X366690Y251499D01*
X369689Y251999D02*
Y249000D01*
X371189D01*
X371689Y249500D01*
Y250000D01*
X371189Y250500D01*
X369689D01*
X371189D01*
X371689Y250999D01*
Y251499D01*
X371189Y251999D01*
X369689D01*
X372688Y248500D02*
X374688D01*
X375687Y249000D02*
X376687D01*
X376187D01*
Y251999D01*
X375687Y251499D01*
X376600Y170499D02*
Y167500D01*
X378099D01*
X378599Y168000D01*
Y169999D01*
X378099Y170499D01*
X376600D01*
X379599D02*
X380599D01*
X380099D01*
Y167500D01*
X379599D01*
X380599D01*
X382098D02*
Y170499D01*
X384098Y167500D01*
Y170499D01*
X388096D02*
Y167500D01*
X389596D01*
X390096Y168000D01*
Y168500D01*
X389596Y169000D01*
X388096D01*
X389596D01*
X390096Y169499D01*
Y169999D01*
X389596Y170499D01*
X388096D01*
X391595Y167500D02*
X392595D01*
X393095Y168000D01*
Y169000D01*
X392595Y169499D01*
X391595D01*
X391095Y169000D01*
Y168000D01*
X391595Y167500D01*
X394594Y169999D02*
Y169499D01*
X394094D01*
X395094D01*
X394594D01*
Y168000D01*
X395094Y167500D01*
X397093Y169999D02*
Y169499D01*
X396593D01*
X397593D01*
X397093D01*
Y168000D01*
X397593Y167500D01*
X399593D02*
X400592D01*
X401092Y168000D01*
Y169000D01*
X400592Y169499D01*
X399593D01*
X399093Y169000D01*
Y168000D01*
X399593Y167500D01*
X402092D02*
Y169499D01*
X402592D01*
X403091Y169000D01*
Y167500D01*
Y169000D01*
X403591Y169499D01*
X404091Y169000D01*
Y167500D01*
X408090Y170499D02*
X410089D01*
X409090D01*
Y167500D01*
X411089Y169499D02*
Y167500D01*
Y168500D01*
X411589Y169000D01*
X412088Y169499D01*
X412588D01*
X414088Y167500D02*
X415088D01*
X414588D01*
Y169499D01*
X414088D01*
X417587Y166500D02*
X418087D01*
X418586Y167000D01*
Y169499D01*
X417087D01*
X416587Y169000D01*
Y168000D01*
X417087Y167500D01*
X418586D01*
X420586Y166500D02*
X421086D01*
X421585Y167000D01*
Y169499D01*
X420086D01*
X419586Y169000D01*
Y168000D01*
X420086Y167500D01*
X421585D01*
X424085D02*
X423085D01*
X422585Y168000D01*
Y169000D01*
X423085Y169499D01*
X424085D01*
X424584Y169000D01*
Y168500D01*
X422585D01*
X425584Y169499D02*
Y167500D01*
Y168500D01*
X426084Y169000D01*
X426584Y169499D01*
X427084D01*
X428583Y167500D02*
X429583D01*
X429083D01*
Y170499D01*
X428583Y169999D01*
X431082Y167000D02*
X433082D01*
X434081Y167500D02*
X435081D01*
X434581D01*
Y170499D01*
X434081Y169999D01*
X336600Y230499D02*
Y227500D01*
X338100D01*
X338599Y228000D01*
Y229999D01*
X338100Y230499D01*
X336600D01*
X339599D02*
X340599D01*
X340099D01*
Y227500D01*
X339599D01*
X340599D01*
X342098D02*
Y230499D01*
X344098Y227500D01*
Y230499D01*
X348096D02*
X350096D01*
X349096D01*
Y227500D01*
X351595D02*
X352595D01*
X353095Y228000D01*
Y228999D01*
X352595Y229499D01*
X351595D01*
X351095Y228999D01*
Y228000D01*
X351595Y227500D01*
X354094Y226500D02*
Y229499D01*
X355594D01*
X356094Y228999D01*
Y228000D01*
X355594Y227500D01*
X354094D01*
X361592Y230499D02*
X360592D01*
X360092Y229999D01*
Y228000D01*
X360592Y227500D01*
X361592D01*
X362092Y228000D01*
Y229999D01*
X361592Y230499D01*
X363591Y227500D02*
Y229999D01*
Y228999D01*
X363091D01*
X364091D01*
X363591D01*
Y229999D01*
X364091Y230499D01*
X366090Y227500D02*
Y229999D01*
Y228999D01*
X365591D01*
X366590D01*
X366090D01*
Y229999D01*
X366590Y230499D01*
X368090Y227500D02*
X369090D01*
X368590D01*
Y230499D01*
X368090Y229999D01*
X370589Y227000D02*
X372588D01*
X373588Y227500D02*
X374588D01*
X374088D01*
Y230499D01*
X373588Y229999D01*
X306000Y183499D02*
Y180500D01*
X307500D01*
X307999Y181000D01*
Y182999D01*
X307500Y183499D01*
X306000D01*
X308999D02*
X309999D01*
X309499D01*
Y180500D01*
X308999D01*
X309999D01*
X311498D02*
Y183499D01*
X313498Y180500D01*
Y183499D01*
X317496D02*
X319496D01*
X318496D01*
Y180500D01*
X320995D02*
X321995D01*
X322495Y181000D01*
Y182000D01*
X321995Y182499D01*
X320995D01*
X320495Y182000D01*
Y181000D01*
X320995Y180500D01*
X323494Y179500D02*
Y182499D01*
X324994D01*
X325494Y182000D01*
Y181000D01*
X324994Y180500D01*
X323494D01*
X330992Y183499D02*
X329992D01*
X329492Y182999D01*
Y181000D01*
X329992Y180500D01*
X330992D01*
X331492Y181000D01*
Y182999D01*
X330992Y183499D01*
X332491Y180500D02*
Y182499D01*
X333991D01*
X334491Y182000D01*
Y180500D01*
X335490D02*
X336490D01*
X335990D01*
Y183499D01*
X335490Y182999D01*
X337990Y180000D02*
X339989D01*
X340989Y180500D02*
X341988D01*
X341489D01*
Y183499D01*
X340989Y182999D01*
X448599Y159099D02*
X448100Y159599D01*
X447100D01*
X446600Y159099D01*
Y157100D01*
X447100Y156600D01*
X448100D01*
X448599Y157100D01*
Y158099D01*
X447600D01*
X449599Y156600D02*
Y159599D01*
X451598Y156600D01*
Y159599D01*
X452598D02*
Y156600D01*
X454098D01*
X454597Y157100D01*
Y159099D01*
X454098Y159599D01*
X452598D01*
X455597Y156600D02*
X456597D01*
X456097D01*
Y159599D01*
X455597Y159099D01*
X458096Y156100D02*
X460096D01*
X461095Y156600D02*
X462095D01*
X461595D01*
Y159599D01*
X461095Y159099D01*
X584300Y291299D02*
Y288300D01*
Y289799D01*
X586299D01*
Y291299D01*
Y288300D01*
X587299Y291299D02*
Y289300D01*
X588299Y288300D01*
X589298Y289300D01*
Y291299D01*
X590298Y288300D02*
X591298D01*
X590798D01*
Y290299D01*
X590298D01*
X592797Y288300D02*
Y290299D01*
X594297D01*
X594797Y289799D01*
Y288300D01*
X595796D02*
X596796D01*
X596296D01*
Y291299D01*
X595796Y290799D01*
X598295Y287800D02*
X600295D01*
X601295Y288300D02*
X602294D01*
X601794D01*
Y291299D01*
X601295Y290799D01*
X408099Y295600D02*
Y297599D01*
X407599Y298099D01*
X406600D01*
X406100Y297599D01*
Y295600D01*
X406600Y295100D01*
X407599D01*
X407100Y296100D02*
X408099Y295100D01*
X407599D02*
X408099Y295600D01*
X409099Y295100D02*
X410099D01*
X409599D01*
Y298099D01*
X409099Y297599D01*
X411598Y294600D02*
X413598D01*
X414597Y295100D02*
X415597D01*
X415097D01*
Y298099D01*
X414597Y297599D01*
X558126Y295600D02*
Y297599D01*
X557626Y298099D01*
X556627D01*
X556127Y297599D01*
Y295600D01*
X556627Y295100D01*
X557626D01*
X557126Y296100D02*
X558126Y295100D01*
X557626D02*
X558126Y295600D01*
X561125Y295100D02*
X559126D01*
X561125Y297099D01*
Y297599D01*
X560625Y298099D01*
X559625D01*
X559126Y297599D01*
X562125Y294600D02*
X564124D01*
X565124Y295100D02*
X566123D01*
X565624D01*
Y298099D01*
X565124Y297599D01*
X408099Y245600D02*
Y247599D01*
X407599Y248099D01*
X406600D01*
X406100Y247599D01*
Y245600D01*
X406600Y245100D01*
X407599D01*
X407100Y246100D02*
X408099Y245100D01*
X407599D02*
X408099Y245600D01*
X409099Y247599D02*
X409599Y248099D01*
X410599D01*
X411098Y247599D01*
Y247099D01*
X410599Y246600D01*
X410099D01*
X410599D01*
X411098Y246100D01*
Y245600D01*
X410599Y245100D01*
X409599D01*
X409099Y245600D01*
X412098Y244600D02*
X414097D01*
X415097Y245100D02*
X416097D01*
X415597D01*
Y248099D01*
X415097Y247599D01*
X558126Y245600D02*
Y247599D01*
X557626Y248099D01*
X556627D01*
X556127Y247599D01*
Y245600D01*
X556627Y245100D01*
X557626D01*
X557126Y246100D02*
X558126Y245100D01*
X557626D02*
X558126Y245600D01*
X560625Y245100D02*
Y248099D01*
X559126Y246599D01*
X561125D01*
X562125Y244600D02*
X564124D01*
X565124Y245100D02*
X566123D01*
X565624D01*
Y248099D01*
X565124Y247599D01*
X565726Y190000D02*
Y191999D01*
X565226Y192499D01*
X564226D01*
X563727Y191999D01*
Y190000D01*
X564226Y189500D01*
X565226D01*
X564726Y190500D02*
X565726Y189500D01*
X565226D02*
X565726Y190000D01*
X568725Y192499D02*
X566726D01*
Y190999D01*
X567725Y191499D01*
X568225D01*
X568725Y190999D01*
Y190000D01*
X568225Y189500D01*
X567226D01*
X566726Y190000D01*
X569725Y189500D02*
Y191499D01*
X570724Y192499D01*
X571724Y191499D01*
Y189500D01*
Y190999D01*
X569725D01*
X572724Y189000D02*
X574723D01*
X575723Y189500D02*
X576722D01*
X576223D01*
Y192499D01*
X575723Y191999D01*
X535726Y270000D02*
Y271999D01*
X535226Y272499D01*
X534226D01*
X533727Y271999D01*
Y270000D01*
X534226Y269500D01*
X535226D01*
X534726Y270500D02*
X535726Y269500D01*
X535226D02*
X535726Y270000D01*
X538725Y272499D02*
X536726D01*
Y270999D01*
X537725Y271499D01*
X538225D01*
X538725Y270999D01*
Y270000D01*
X538225Y269500D01*
X537225D01*
X536726Y270000D01*
X539725Y272499D02*
Y269500D01*
X541224D01*
X541724Y270000D01*
Y270500D01*
X541224Y270999D01*
X539725D01*
X541224D01*
X541724Y271499D01*
Y271999D01*
X541224Y272499D01*
X539725D01*
X542724Y269000D02*
X544723D01*
X545723Y269500D02*
X546722D01*
X546223D01*
Y272499D01*
X545723Y271999D01*
X505726Y210000D02*
Y211999D01*
X505226Y212499D01*
X504226D01*
X503727Y211999D01*
Y210000D01*
X504226Y209500D01*
X505226D01*
X504726Y210500D02*
X505726Y209500D01*
X505226D02*
X505726Y210000D01*
X508725Y212499D02*
X506726D01*
Y210999D01*
X507725Y211499D01*
X508225D01*
X508725Y210999D01*
Y210000D01*
X508225Y209500D01*
X507226D01*
X506726Y210000D01*
X511724Y211999D02*
X511224Y212499D01*
X510224D01*
X509725Y211999D01*
Y210000D01*
X510224Y209500D01*
X511224D01*
X511724Y210000D01*
X512724Y209000D02*
X514723D01*
X515723Y209500D02*
X516722D01*
X516223D01*
Y212499D01*
X515723Y211999D01*
X414545Y190000D02*
Y191999D01*
X414045Y192499D01*
X413045D01*
X412545Y191999D01*
Y190000D01*
X413045Y189500D01*
X414045D01*
X413545Y190500D02*
X414545Y189500D01*
X414045D02*
X414545Y190000D01*
X417544Y192499D02*
X415545D01*
Y190999D01*
X416544Y191499D01*
X417044D01*
X417544Y190999D01*
Y190000D01*
X417044Y189500D01*
X416044D01*
X415545Y190000D01*
X418544Y192499D02*
Y189500D01*
X420043D01*
X420543Y190000D01*
Y191999D01*
X420043Y192499D01*
X418544D01*
X421543Y189000D02*
X423542D01*
X424542Y189500D02*
X425541D01*
X425041D01*
Y192499D01*
X424542Y191999D01*
X379476Y274000D02*
Y275999D01*
X378976Y276499D01*
X377976D01*
X377477Y275999D01*
Y274000D01*
X377976Y273500D01*
X378976D01*
X378476Y274500D02*
X379476Y273500D01*
X378976D02*
X379476Y274000D01*
X382475Y276499D02*
X380476D01*
Y274999D01*
X381475Y275499D01*
X381975D01*
X382475Y274999D01*
Y274000D01*
X381975Y273500D01*
X380976D01*
X380476Y274000D01*
X385474Y276499D02*
X383475D01*
Y273500D01*
X385474D01*
X383475Y274999D02*
X384474D01*
X386474Y273000D02*
X388473D01*
X389473Y273500D02*
X390473D01*
X389973D01*
Y276499D01*
X389473Y275999D01*
X351238Y210000D02*
Y211999D01*
X350738Y212499D01*
X349738D01*
X349238Y211999D01*
Y210000D01*
X349738Y209500D01*
X350738D01*
X350238Y210500D02*
X351238Y209500D01*
X350738D02*
X351238Y210000D01*
X354237Y212499D02*
X352237D01*
Y210999D01*
X353237Y211499D01*
X353737D01*
X354237Y210999D01*
Y210000D01*
X353737Y209500D01*
X352737D01*
X352237Y210000D01*
X357236Y212499D02*
X355237D01*
Y210999D01*
X356236D01*
X355237D01*
Y209500D01*
X358236Y209000D02*
X360235D01*
X361234Y209500D02*
X362234D01*
X361734D01*
Y212499D01*
X361234Y211999D01*
X539726Y194500D02*
Y196499D01*
X539226Y196999D01*
X538226D01*
X537727Y196499D01*
Y194500D01*
X538226Y194000D01*
X539226D01*
X538726Y195000D02*
X539726Y194000D01*
X539226D02*
X539726Y194500D01*
X542725Y196999D02*
X541725Y196499D01*
X540726Y195500D01*
Y194500D01*
X541225Y194000D01*
X542225D01*
X542725Y194500D01*
Y195000D01*
X542225Y195500D01*
X540726D01*
X543725Y194000D02*
Y195999D01*
X544724Y196999D01*
X545724Y195999D01*
Y194000D01*
Y195500D01*
X543725D01*
X546724Y193500D02*
X548723D01*
X549723Y194000D02*
X550722D01*
X550223D01*
Y196999D01*
X549723Y196499D01*
X525726Y290000D02*
Y291999D01*
X525226Y292499D01*
X524226D01*
X523727Y291999D01*
Y290000D01*
X524226Y289500D01*
X525226D01*
X524726Y290500D02*
X525726Y289500D01*
X525226D02*
X525726Y290000D01*
X528725Y292499D02*
X527725Y291999D01*
X526726Y290999D01*
Y290000D01*
X527225Y289500D01*
X528225D01*
X528725Y290000D01*
Y290500D01*
X528225Y290999D01*
X526726D01*
X529725Y292499D02*
Y289500D01*
X531224D01*
X531724Y290000D01*
Y290500D01*
X531224Y290999D01*
X529725D01*
X531224D01*
X531724Y291499D01*
Y291999D01*
X531224Y292499D01*
X529725D01*
X532724Y289000D02*
X534723D01*
X535723Y289500D02*
X536722D01*
X536223D01*
Y292499D01*
X535723Y291999D01*
X495726Y190000D02*
Y191999D01*
X495226Y192499D01*
X494226D01*
X493727Y191999D01*
Y190000D01*
X494226Y189500D01*
X495226D01*
X494726Y190500D02*
X495726Y189500D01*
X495226D02*
X495726Y190000D01*
X498725Y192499D02*
X497725Y191999D01*
X496726Y190999D01*
Y190000D01*
X497226Y189500D01*
X498225D01*
X498725Y190000D01*
Y190500D01*
X498225Y190999D01*
X496726D01*
X501724Y191999D02*
X501224Y192499D01*
X500224D01*
X499725Y191999D01*
Y190000D01*
X500224Y189500D01*
X501224D01*
X501724Y190000D01*
X502724Y189000D02*
X504723D01*
X505723Y189500D02*
X506722D01*
X506223D01*
Y192499D01*
X505723Y191999D01*
X393526Y193300D02*
Y195299D01*
X393026Y195799D01*
X392026D01*
X391527Y195299D01*
Y193300D01*
X392026Y192800D01*
X393026D01*
X392526Y193800D02*
X393526Y192800D01*
X393026D02*
X393526Y193300D01*
X396525Y195799D02*
X395525Y195299D01*
X394526Y194299D01*
Y193300D01*
X395025Y192800D01*
X396025D01*
X396525Y193300D01*
Y193800D01*
X396025Y194299D01*
X394526D01*
X397525Y195799D02*
Y192800D01*
X399024D01*
X399524Y193300D01*
Y195299D01*
X399024Y195799D01*
X397525D01*
X400524Y192300D02*
X402523D01*
X403523Y192800D02*
X404522D01*
X404023D01*
Y195799D01*
X403523Y195299D01*
X369476Y294000D02*
Y295999D01*
X368976Y296499D01*
X367976D01*
X367477Y295999D01*
Y294000D01*
X367976Y293500D01*
X368976D01*
X368476Y294500D02*
X369476Y293500D01*
X368976D02*
X369476Y294000D01*
X372475Y296499D02*
X371475Y295999D01*
X370476Y294999D01*
Y294000D01*
X370975Y293500D01*
X371975D01*
X372475Y294000D01*
Y294500D01*
X371975Y294999D01*
X370476D01*
X375474Y296499D02*
X373475D01*
Y293500D01*
X375474D01*
X373475Y294999D02*
X374474D01*
X376474Y293000D02*
X378473D01*
X379473Y293500D02*
X380472D01*
X379973D01*
Y296499D01*
X379473Y295999D01*
X341238Y190000D02*
Y191999D01*
X340738Y192499D01*
X339738D01*
X339238Y191999D01*
Y190000D01*
X339738Y189500D01*
X340738D01*
X340238Y190500D02*
X341238Y189500D01*
X340738D02*
X341238Y190000D01*
X344237Y192499D02*
X343237Y191999D01*
X342237Y190999D01*
Y190000D01*
X342737Y189500D01*
X343737D01*
X344237Y190000D01*
Y190500D01*
X343737Y190999D01*
X342237D01*
X347236Y192499D02*
X345236D01*
Y190999D01*
X346236D01*
X345236D01*
Y189500D01*
X348236Y189000D02*
X350235D01*
X351235Y189500D02*
X352234D01*
X351734D01*
Y192499D01*
X351235Y191999D01*
X465726Y200000D02*
Y201999D01*
X465226Y202499D01*
X464226D01*
X463727Y201999D01*
Y200000D01*
X464226Y199500D01*
X465226D01*
X464726Y200500D02*
X465726Y199500D01*
X465226D02*
X465726Y200000D01*
X466726Y202499D02*
X468725D01*
Y201999D01*
X466726Y200000D01*
Y199500D01*
X469725D02*
Y201499D01*
X470724Y202499D01*
X471724Y201499D01*
Y199500D01*
Y200999D01*
X469725D01*
X472724Y199000D02*
X474723D01*
X475723Y199500D02*
X476722D01*
X476223D01*
Y202499D01*
X475723Y201999D01*
X321238Y190000D02*
Y191999D01*
X320738Y192499D01*
X319738D01*
X319238Y191999D01*
Y190000D01*
X319738Y189500D01*
X320738D01*
X320238Y190500D02*
X321238Y189500D01*
X320738D02*
X321238Y190000D01*
X322237Y192499D02*
X324237D01*
Y191999D01*
X322237Y190000D01*
Y189500D01*
X325237Y192499D02*
Y189500D01*
X326736D01*
X327236Y190000D01*
Y190500D01*
X326736Y190999D01*
X325237D01*
X326736D01*
X327236Y191499D01*
Y191999D01*
X326736Y192499D01*
X325237D01*
X328236Y189000D02*
X330235D01*
X331235Y189500D02*
X332234D01*
X331734D01*
Y192499D01*
X331235Y191999D01*
X585527Y192800D02*
Y195799D01*
X587026D01*
X587526Y195299D01*
Y194299D01*
X587026Y193800D01*
X585527D01*
X586526D02*
X587526Y192800D01*
X590525D02*
X588526D01*
X590525Y194799D01*
Y195299D01*
X590025Y195799D01*
X589025D01*
X588526Y195299D01*
X591525Y192800D02*
Y194799D01*
X592524Y195799D01*
X593524Y194799D01*
Y192800D01*
Y194299D01*
X591525D01*
X594524Y192300D02*
X596523D01*
X597523Y192800D02*
X598523D01*
X598023D01*
Y195799D01*
X597523Y195299D01*
X545527Y292800D02*
Y295799D01*
X547026D01*
X547526Y295299D01*
Y294299D01*
X547026Y293800D01*
X545527D01*
X546526D02*
X547526Y292800D01*
X550525D02*
X548526D01*
X550525Y294799D01*
Y295299D01*
X550025Y295799D01*
X549025D01*
X548526Y295299D01*
X551525Y295799D02*
Y292800D01*
X553024D01*
X553524Y293300D01*
Y293800D01*
X553024Y294299D01*
X551525D01*
X553024D01*
X553524Y294799D01*
Y295299D01*
X553024Y295799D01*
X551525D01*
X554524Y292300D02*
X556523D01*
X557523Y292800D02*
X558523D01*
X558023D01*
Y295799D01*
X557523Y295299D01*
X515527Y192800D02*
Y195799D01*
X517026D01*
X517526Y195299D01*
Y194299D01*
X517026Y193800D01*
X515527D01*
X516526D02*
X517526Y192800D01*
X520525D02*
X518526D01*
X520525Y194799D01*
Y195299D01*
X520025Y195799D01*
X519026D01*
X518526Y195299D01*
X523524D02*
X523024Y195799D01*
X522025D01*
X521525Y195299D01*
Y193300D01*
X522025Y192800D01*
X523024D01*
X523524Y193300D01*
X524524Y192300D02*
X526523D01*
X527523Y192800D02*
X528522D01*
X528023D01*
Y195799D01*
X527523Y195299D01*
X434346Y192800D02*
Y195799D01*
X435845D01*
X436345Y195299D01*
Y194299D01*
X435845Y193800D01*
X434346D01*
X435345D02*
X436345Y192800D01*
X439344D02*
X437345D01*
X439344Y194799D01*
Y195299D01*
X438844Y195799D01*
X437844D01*
X437345Y195299D01*
X440344Y195799D02*
Y192800D01*
X441843D01*
X442343Y193300D01*
Y195299D01*
X441843Y195799D01*
X440344D01*
X443343Y192300D02*
X445342D01*
X446342Y192800D02*
X447341D01*
X446841D01*
Y195799D01*
X446342Y195299D01*
X389277Y296800D02*
Y299799D01*
X390776D01*
X391276Y299299D01*
Y298299D01*
X390776Y297800D01*
X389277D01*
X390276D02*
X391276Y296800D01*
X394275D02*
X392276D01*
X394275Y298799D01*
Y299299D01*
X393775Y299799D01*
X392776D01*
X392276Y299299D01*
X397274Y299799D02*
X395275D01*
Y296800D01*
X397274D01*
X395275Y298299D02*
X396274D01*
X398274Y296300D02*
X400273D01*
X401273Y296800D02*
X402273D01*
X401773D01*
Y299799D01*
X401273Y299299D01*
X361038Y192800D02*
Y195799D01*
X362538D01*
X363038Y195299D01*
Y194299D01*
X362538Y193800D01*
X361038D01*
X362038D02*
X363038Y192800D01*
X366037D02*
X364037D01*
X366037Y194799D01*
Y195299D01*
X365537Y195799D01*
X364537D01*
X364037Y195299D01*
X369036Y195799D02*
X367037D01*
Y194299D01*
X368036D01*
X367037D01*
Y192800D01*
X370036Y192300D02*
X372035D01*
X373035Y192800D02*
X374034D01*
X373534D01*
Y195799D01*
X373035Y195299D01*
X540347Y167718D02*
Y170717D01*
X541846D01*
X542346Y170217D01*
Y169217D01*
X541846Y168718D01*
X540347D01*
X541346D02*
X542346Y167718D01*
X543346Y170217D02*
X543845Y170717D01*
X544845D01*
X545345Y170217D01*
Y169717D01*
X544845Y169217D01*
X544345D01*
X544845D01*
X545345Y168718D01*
Y168218D01*
X544845Y167718D01*
X543845D01*
X543346Y168218D01*
X546345Y167718D02*
Y169717D01*
X547344Y170717D01*
X548344Y169717D01*
Y167718D01*
Y169217D01*
X546345D01*
X549344Y167218D02*
X551343D01*
X552343Y167718D02*
X553342D01*
X552843D01*
Y170717D01*
X552343Y170217D01*
X470347Y267718D02*
Y270717D01*
X471846D01*
X472346Y270217D01*
Y269217D01*
X471846Y268718D01*
X470347D01*
X471346D02*
X472346Y267718D01*
X473346Y270217D02*
X473845Y270717D01*
X474845D01*
X475345Y270217D01*
Y269717D01*
X474845Y269217D01*
X474345D01*
X474845D01*
X475345Y268718D01*
Y268218D01*
X474845Y267718D01*
X473845D01*
X473346Y268218D01*
X476345Y270717D02*
Y267718D01*
X477844D01*
X478344Y268218D01*
Y268718D01*
X477844Y269217D01*
X476345D01*
X477844D01*
X478344Y269717D01*
Y270217D01*
X477844Y270717D01*
X476345D01*
X479344Y267218D02*
X481343D01*
X482343Y267718D02*
X483342D01*
X482842D01*
Y270717D01*
X482343Y270217D01*
X460347Y167718D02*
Y170717D01*
X461846D01*
X462346Y170217D01*
Y169217D01*
X461846Y168718D01*
X460347D01*
X461346D02*
X462346Y167718D01*
X463346Y170217D02*
X463845Y170717D01*
X464845D01*
X465345Y170217D01*
Y169717D01*
X464845Y169217D01*
X464345D01*
X464845D01*
X465345Y168718D01*
Y168218D01*
X464845Y167718D01*
X463845D01*
X463346Y168218D01*
X468344Y170217D02*
X467844Y170717D01*
X466845D01*
X466345Y170217D01*
Y168218D01*
X466845Y167718D01*
X467844D01*
X468344Y168218D01*
X469344Y167218D02*
X471343D01*
X472343Y167718D02*
X473342D01*
X472843D01*
Y170717D01*
X472343Y170217D01*
X389165Y167718D02*
Y170717D01*
X390665D01*
X391165Y170217D01*
Y169217D01*
X390665Y168718D01*
X389165D01*
X390165D02*
X391165Y167718D01*
X392164Y170217D02*
X392664Y170717D01*
X393664D01*
X394164Y170217D01*
Y169717D01*
X393664Y169217D01*
X393164D01*
X393664D01*
X394164Y168718D01*
Y168218D01*
X393664Y167718D01*
X392664D01*
X392164Y168218D01*
X395163Y170717D02*
Y167718D01*
X396663D01*
X397163Y168218D01*
Y170217D01*
X396663Y170717D01*
X395163D01*
X398163Y167218D02*
X400162D01*
X401162Y167718D02*
X402161D01*
X401661D01*
Y170717D01*
X401162Y170217D01*
X314097Y271718D02*
Y274717D01*
X315596D01*
X316096Y274217D01*
Y273217D01*
X315596Y272717D01*
X314097D01*
X315096D02*
X316096Y271718D01*
X317096Y274217D02*
X317596Y274717D01*
X318595D01*
X319095Y274217D01*
Y273717D01*
X318595Y273217D01*
X318095D01*
X318595D01*
X319095Y272717D01*
Y272218D01*
X318595Y271718D01*
X317596D01*
X317096Y272218D01*
X322094Y274717D02*
X320095D01*
Y271718D01*
X322094D01*
X320095Y273217D02*
X321094D01*
X323094Y271218D02*
X325093D01*
X326093Y271718D02*
X327092D01*
X326593D01*
Y274717D01*
X326093Y274217D01*
X305858Y167718D02*
Y170717D01*
X307358D01*
X307858Y170217D01*
Y169217D01*
X307358Y168718D01*
X305858D01*
X306858D02*
X307858Y167718D01*
X308857Y170217D02*
X309357Y170717D01*
X310357D01*
X310857Y170217D01*
Y169717D01*
X310357Y169217D01*
X309857D01*
X310357D01*
X310857Y168718D01*
Y168218D01*
X310357Y167718D01*
X309357D01*
X308857Y168218D01*
X313856Y170717D02*
X311856D01*
Y169217D01*
X312856D01*
X311856D01*
Y167718D01*
X314856Y167218D02*
X316855D01*
X317854Y167718D02*
X318854D01*
X318354D01*
Y170717D01*
X317854Y170217D01*
X570319Y167718D02*
Y170717D01*
X571818D01*
X572318Y170217D01*
Y169217D01*
X571818Y168718D01*
X570319D01*
X571318D02*
X572318Y167718D01*
X574817D02*
Y170717D01*
X573318Y169217D01*
X575317D01*
X576317Y167718D02*
Y169717D01*
X577316Y170717D01*
X578316Y169717D01*
Y167718D01*
Y169217D01*
X576317D01*
X579316Y167218D02*
X581315D01*
X582315Y167718D02*
X583314D01*
X582815D01*
Y170717D01*
X582315Y170217D01*
X500327Y267700D02*
Y270699D01*
X501826D01*
X502326Y270199D01*
Y269199D01*
X501826Y268700D01*
X500327D01*
X501326D02*
X502326Y267700D01*
X504825D02*
Y270699D01*
X503326Y269199D01*
X505325D01*
X506325Y270699D02*
Y267700D01*
X507824D01*
X508324Y268200D01*
Y268700D01*
X507824Y269199D01*
X506325D01*
X507824D01*
X508324Y269699D01*
Y270199D01*
X507824Y270699D01*
X506325D01*
X509324Y267200D02*
X511323D01*
X512323Y267700D02*
X513322D01*
X512823D01*
Y270699D01*
X512323Y270199D01*
X490319Y167718D02*
Y170717D01*
X491818D01*
X492318Y170217D01*
Y169217D01*
X491818Y168718D01*
X490319D01*
X491318D02*
X492318Y167718D01*
X494817D02*
Y170717D01*
X493318Y169217D01*
X495317D01*
X498316Y170217D02*
X497816Y170717D01*
X496816D01*
X496317Y170217D01*
Y168218D01*
X496816Y167718D01*
X497816D01*
X498316Y168218D01*
X499316Y167218D02*
X501315D01*
X502315Y167718D02*
X503314D01*
X502815D01*
Y170717D01*
X502315Y170217D01*
X419137Y167718D02*
Y170717D01*
X420637D01*
X421137Y170217D01*
Y169217D01*
X420637Y168718D01*
X419137D01*
X420137D02*
X421137Y167718D01*
X423636D02*
Y170717D01*
X422136Y169217D01*
X424136D01*
X425136Y170717D02*
Y167718D01*
X426635D01*
X427135Y168218D01*
Y170217D01*
X426635Y170717D01*
X425136D01*
X428135Y167218D02*
X430134D01*
X431134Y167718D02*
X432133D01*
X431634D01*
Y170717D01*
X431134Y170217D01*
X342677Y282800D02*
Y285799D01*
X344176D01*
X344676Y285299D01*
Y284299D01*
X344176Y283800D01*
X342677D01*
X343676D02*
X344676Y282800D01*
X347175D02*
Y285799D01*
X345676Y284299D01*
X347675D01*
X350674Y285799D02*
X348675D01*
Y282800D01*
X350674D01*
X348675Y284299D02*
X349674D01*
X351674Y282300D02*
X353673D01*
X354673Y282800D02*
X355672D01*
X355173D01*
Y285799D01*
X354673Y285299D01*
X335830Y167718D02*
Y170717D01*
X337330D01*
X337830Y170217D01*
Y169217D01*
X337330Y168718D01*
X335830D01*
X336830D02*
X337830Y167718D01*
X340329D02*
Y170717D01*
X338829Y169217D01*
X340829D01*
X343828Y170717D02*
X341828D01*
Y169217D01*
X342828D01*
X341828D01*
Y167718D01*
X344828Y167218D02*
X346827D01*
X347827Y167718D02*
X348826D01*
X348326D01*
Y170717D01*
X347827Y170217D01*
X460327Y217700D02*
Y220699D01*
X461826D01*
X462326Y220199D01*
Y219199D01*
X461826Y218700D01*
X460327D01*
X461326D02*
X462326Y217700D01*
X465325Y220699D02*
X463326D01*
Y219199D01*
X464325Y219699D01*
X464825D01*
X465325Y219199D01*
Y218200D01*
X464825Y217700D01*
X463826D01*
X463326Y218200D01*
X466325Y217700D02*
Y219699D01*
X467324Y220699D01*
X468324Y219699D01*
Y217700D01*
Y219199D01*
X466325D01*
X469324Y217200D02*
X471323D01*
X472323Y217700D02*
X473322D01*
X472823D01*
Y220699D01*
X472323Y220199D01*
X315839Y207700D02*
Y210699D01*
X317338D01*
X317838Y210199D01*
Y209199D01*
X317338Y208700D01*
X315839D01*
X316838D02*
X317838Y207700D01*
X320837Y210699D02*
X318837D01*
Y209199D01*
X319837Y209699D01*
X320337D01*
X320837Y209199D01*
Y208200D01*
X320337Y207700D01*
X319337D01*
X318837Y208200D01*
X321836Y210699D02*
Y207700D01*
X323336D01*
X323836Y208200D01*
Y208700D01*
X323336Y209199D01*
X321836D01*
X323336D01*
X323836Y209699D01*
Y210199D01*
X323336Y210699D01*
X321836D01*
X324836Y207200D02*
X326835D01*
X327835Y207700D02*
X328834D01*
X328334D01*
Y210699D01*
X327835Y210199D01*
X450327Y237700D02*
Y240699D01*
X451826D01*
X452326Y240199D01*
Y239199D01*
X451826Y238700D01*
X450327D01*
X451326D02*
X452326Y237700D01*
X455325Y240699D02*
X454325Y240199D01*
X453326Y239199D01*
Y238200D01*
X453826Y237700D01*
X454825D01*
X455325Y238200D01*
Y238700D01*
X454825Y239199D01*
X453326D01*
X456325Y237700D02*
Y239699D01*
X457324Y240699D01*
X458324Y239699D01*
Y237700D01*
Y239199D01*
X456325D01*
X459324Y237200D02*
X461323D01*
X462323Y237700D02*
X463322D01*
X462823D01*
Y240699D01*
X462323Y240199D01*
X305838Y227700D02*
Y230699D01*
X307338D01*
X307838Y230199D01*
Y229199D01*
X307338Y228700D01*
X305838D01*
X306838D02*
X307838Y227700D01*
X310837Y230699D02*
X309837Y230199D01*
X308838Y229199D01*
Y228200D01*
X309337Y227700D01*
X310337D01*
X310837Y228200D01*
Y228700D01*
X310337Y229199D01*
X308838D01*
X311837Y230699D02*
Y227700D01*
X313336D01*
X313836Y228200D01*
Y228700D01*
X313336Y229199D01*
X311837D01*
X313336D01*
X313836Y229699D01*
Y230199D01*
X313336Y230699D01*
X311837D01*
X314836Y227200D02*
X316835D01*
X317835Y227700D02*
X318834D01*
X318334D01*
Y230699D01*
X317835Y230199D01*
X430427Y272099D02*
X429927Y272599D01*
X428928D01*
X428428Y272099D01*
Y270100D01*
X428928Y269600D01*
X429927D01*
X430427Y270100D01*
X431427Y272099D02*
X431927Y272599D01*
X432926D01*
X433426Y272099D01*
Y271599D01*
X432926Y271099D01*
X432427D01*
X432926D01*
X433426Y270600D01*
Y270100D01*
X432926Y269600D01*
X431927D01*
X431427Y270100D01*
X434426Y269100D02*
X436425D01*
X437425Y269600D02*
X438424D01*
X437925D01*
Y272599D01*
X437425Y272099D01*
X430427Y248599D02*
X429927Y249099D01*
X428928D01*
X428428Y248599D01*
Y246600D01*
X428928Y246100D01*
X429927D01*
X430427Y246600D01*
X433426Y246100D02*
X431427D01*
X433426Y248099D01*
Y248599D01*
X432926Y249099D01*
X431927D01*
X431427Y248599D01*
X434426Y245600D02*
X436425D01*
X437425Y246100D02*
X438424D01*
X437925D01*
Y249099D01*
X437425Y248599D01*
X430427Y548599D02*
X429927Y549099D01*
X428928D01*
X428428Y548599D01*
Y546600D01*
X428928Y546100D01*
X429927D01*
X430427Y546600D01*
X433426Y546100D02*
X431427D01*
X433426Y548099D01*
Y548599D01*
X432926Y549099D01*
X431927D01*
X431427Y548599D01*
X430427Y572099D02*
X429927Y572599D01*
X428928D01*
X428428Y572099D01*
Y570100D01*
X428928Y569600D01*
X429927D01*
X430427Y570100D01*
X431427Y572099D02*
X431927Y572599D01*
X432926D01*
X433426Y572099D01*
Y571599D01*
X432926Y571099D01*
X432427D01*
X432926D01*
X433426Y570600D01*
Y570100D01*
X432926Y569600D01*
X431927D01*
X431427Y570100D01*
X305838Y527700D02*
Y530699D01*
X307338D01*
X307838Y530199D01*
Y529199D01*
X307338Y528700D01*
X305838D01*
X306838D02*
X307838Y527700D01*
X310837Y530699D02*
X309837Y530199D01*
X308838Y529199D01*
Y528200D01*
X309337Y527700D01*
X310337D01*
X310837Y528200D01*
Y528700D01*
X310337Y529199D01*
X308838D01*
X311837Y530699D02*
Y527700D01*
X313336D01*
X313836Y528200D01*
Y528700D01*
X313336Y529199D01*
X311837D01*
X313336D01*
X313836Y529699D01*
Y530199D01*
X313336Y530699D01*
X311837D01*
X450327Y537700D02*
Y540699D01*
X451826D01*
X452326Y540199D01*
Y539199D01*
X451826Y538700D01*
X450327D01*
X451326D02*
X452326Y537700D01*
X455325Y540699D02*
X454325Y540199D01*
X453326Y539199D01*
Y538200D01*
X453826Y537700D01*
X454825D01*
X455325Y538200D01*
Y538700D01*
X454825Y539199D01*
X453326D01*
X456325Y537700D02*
Y539699D01*
X457324Y540699D01*
X458324Y539699D01*
Y537700D01*
Y539199D01*
X456325D01*
X315839Y507700D02*
Y510699D01*
X317338D01*
X317838Y510199D01*
Y509199D01*
X317338Y508700D01*
X315839D01*
X316838D02*
X317838Y507700D01*
X320837Y510699D02*
X318837D01*
Y509199D01*
X319837Y509699D01*
X320337D01*
X320837Y509199D01*
Y508200D01*
X320337Y507700D01*
X319337D01*
X318837Y508200D01*
X321836Y510699D02*
Y507700D01*
X323336D01*
X323836Y508200D01*
Y508700D01*
X323336Y509199D01*
X321836D01*
X323336D01*
X323836Y509699D01*
Y510199D01*
X323336Y510699D01*
X321836D01*
X460327Y517700D02*
Y520699D01*
X461826D01*
X462326Y520199D01*
Y519199D01*
X461826Y518700D01*
X460327D01*
X461326D02*
X462326Y517700D01*
X465325Y520699D02*
X463326D01*
Y519199D01*
X464325Y519699D01*
X464825D01*
X465325Y519199D01*
Y518200D01*
X464825Y517700D01*
X463826D01*
X463326Y518200D01*
X466325Y517700D02*
Y519699D01*
X467324Y520699D01*
X468324Y519699D01*
Y517700D01*
Y519199D01*
X466325D01*
X335830Y467718D02*
Y470717D01*
X337330D01*
X337830Y470217D01*
Y469217D01*
X337330Y468717D01*
X335830D01*
X336830D02*
X337830Y467718D01*
X340329D02*
Y470717D01*
X338829Y469217D01*
X340829D01*
X343828Y470717D02*
X341828D01*
Y469217D01*
X342828D01*
X341828D01*
Y467718D01*
X342677Y582800D02*
Y585799D01*
X344176D01*
X344676Y585299D01*
Y584299D01*
X344176Y583800D01*
X342677D01*
X343676D02*
X344676Y582800D01*
X347175D02*
Y585799D01*
X345676Y584299D01*
X347675D01*
X350674Y585799D02*
X348675D01*
Y582800D01*
X350674D01*
X348675Y584299D02*
X349674D01*
X419137Y467718D02*
Y470717D01*
X420637D01*
X421137Y470217D01*
Y469217D01*
X420637Y468717D01*
X419137D01*
X420137D02*
X421137Y467718D01*
X423636D02*
Y470717D01*
X422136Y469217D01*
X424136D01*
X425136Y470717D02*
Y467718D01*
X426635D01*
X427135Y468218D01*
Y470217D01*
X426635Y470717D01*
X425136D01*
X490319Y467718D02*
Y470717D01*
X491818D01*
X492318Y470217D01*
Y469217D01*
X491818Y468717D01*
X490319D01*
X491318D02*
X492318Y467718D01*
X494817D02*
Y470717D01*
X493318Y469217D01*
X495317D01*
X498316Y470217D02*
X497816Y470717D01*
X496816D01*
X496317Y470217D01*
Y468218D01*
X496816Y467718D01*
X497816D01*
X498316Y468218D01*
X500327Y567700D02*
Y570699D01*
X501826D01*
X502326Y570199D01*
Y569199D01*
X501826Y568700D01*
X500327D01*
X501326D02*
X502326Y567700D01*
X504825D02*
Y570699D01*
X503326Y569199D01*
X505325D01*
X506325Y570699D02*
Y567700D01*
X507824D01*
X508324Y568200D01*
Y568700D01*
X507824Y569199D01*
X506325D01*
X507824D01*
X508324Y569699D01*
Y570199D01*
X507824Y570699D01*
X506325D01*
X570319Y467718D02*
Y470717D01*
X571818D01*
X572318Y470217D01*
Y469217D01*
X571818Y468717D01*
X570319D01*
X571318D02*
X572318Y467718D01*
X574817D02*
Y470717D01*
X573318Y469217D01*
X575317D01*
X576317Y467718D02*
Y469717D01*
X577316Y470717D01*
X578316Y469717D01*
Y467718D01*
Y469217D01*
X576317D01*
X305858Y467718D02*
Y470717D01*
X307358D01*
X307858Y470217D01*
Y469217D01*
X307358Y468717D01*
X305858D01*
X306858D02*
X307858Y467718D01*
X308857Y470217D02*
X309357Y470717D01*
X310357D01*
X310857Y470217D01*
Y469717D01*
X310357Y469217D01*
X309857D01*
X310357D01*
X310857Y468717D01*
Y468218D01*
X310357Y467718D01*
X309357D01*
X308857Y468218D01*
X313856Y470717D02*
X311856D01*
Y469217D01*
X312856D01*
X311856D01*
Y467718D01*
X314097Y571718D02*
Y574717D01*
X315596D01*
X316096Y574217D01*
Y573217D01*
X315596Y572718D01*
X314097D01*
X315096D02*
X316096Y571718D01*
X317096Y574217D02*
X317596Y574717D01*
X318595D01*
X319095Y574217D01*
Y573717D01*
X318595Y573217D01*
X318095D01*
X318595D01*
X319095Y572718D01*
Y572218D01*
X318595Y571718D01*
X317596D01*
X317096Y572218D01*
X322094Y574717D02*
X320095D01*
Y571718D01*
X322094D01*
X320095Y573217D02*
X321094D01*
X389165Y467718D02*
Y470717D01*
X390665D01*
X391165Y470217D01*
Y469217D01*
X390665Y468717D01*
X389165D01*
X390165D02*
X391165Y467718D01*
X392164Y470217D02*
X392664Y470717D01*
X393664D01*
X394164Y470217D01*
Y469717D01*
X393664Y469217D01*
X393164D01*
X393664D01*
X394164Y468717D01*
Y468218D01*
X393664Y467718D01*
X392664D01*
X392164Y468218D01*
X395163Y470717D02*
Y467718D01*
X396663D01*
X397163Y468218D01*
Y470217D01*
X396663Y470717D01*
X395163D01*
X460347Y467718D02*
Y470717D01*
X461846D01*
X462346Y470217D01*
Y469217D01*
X461846Y468717D01*
X460347D01*
X461346D02*
X462346Y467718D01*
X463346Y470217D02*
X463845Y470717D01*
X464845D01*
X465345Y470217D01*
Y469717D01*
X464845Y469217D01*
X464345D01*
X464845D01*
X465345Y468717D01*
Y468218D01*
X464845Y467718D01*
X463845D01*
X463346Y468218D01*
X468344Y470217D02*
X467844Y470717D01*
X466845D01*
X466345Y470217D01*
Y468218D01*
X466845Y467718D01*
X467844D01*
X468344Y468218D01*
X470347Y567718D02*
Y570717D01*
X471846D01*
X472346Y570217D01*
Y569217D01*
X471846Y568717D01*
X470347D01*
X471346D02*
X472346Y567718D01*
X473346Y570217D02*
X473845Y570717D01*
X474845D01*
X475345Y570217D01*
Y569717D01*
X474845Y569217D01*
X474345D01*
X474845D01*
X475345Y568717D01*
Y568218D01*
X474845Y567718D01*
X473845D01*
X473346Y568218D01*
X476345Y570717D02*
Y567718D01*
X477844D01*
X478344Y568218D01*
Y568717D01*
X477844Y569217D01*
X476345D01*
X477844D01*
X478344Y569717D01*
Y570217D01*
X477844Y570717D01*
X476345D01*
X540347Y467718D02*
Y470717D01*
X541846D01*
X542346Y470217D01*
Y469217D01*
X541846Y468717D01*
X540347D01*
X541346D02*
X542346Y467718D01*
X543346Y470217D02*
X543845Y470717D01*
X544845D01*
X545345Y470217D01*
Y469717D01*
X544845Y469217D01*
X544345D01*
X544845D01*
X545345Y468717D01*
Y468218D01*
X544845Y467718D01*
X543845D01*
X543346Y468218D01*
X546345Y467718D02*
Y469717D01*
X547344Y470717D01*
X548344Y469717D01*
Y467718D01*
Y469217D01*
X546345D01*
X361038Y492800D02*
Y495799D01*
X362538D01*
X363038Y495299D01*
Y494299D01*
X362538Y493800D01*
X361038D01*
X362038D02*
X363038Y492800D01*
X366037D02*
X364037D01*
X366037Y494799D01*
Y495299D01*
X365537Y495799D01*
X364537D01*
X364037Y495299D01*
X369036Y495799D02*
X367037D01*
Y494299D01*
X368036D01*
X367037D01*
Y492800D01*
X389277Y596800D02*
Y599799D01*
X390776D01*
X391276Y599299D01*
Y598299D01*
X390776Y597800D01*
X389277D01*
X390276D02*
X391276Y596800D01*
X394275D02*
X392276D01*
X394275Y598799D01*
Y599299D01*
X393775Y599799D01*
X392776D01*
X392276Y599299D01*
X397274Y599799D02*
X395275D01*
Y596800D01*
X397274D01*
X395275Y598299D02*
X396274D01*
X434346Y492800D02*
Y495799D01*
X435845D01*
X436345Y495299D01*
Y494299D01*
X435845Y493800D01*
X434346D01*
X435345D02*
X436345Y492800D01*
X439344D02*
X437345D01*
X439344Y494799D01*
Y495299D01*
X438844Y495799D01*
X437844D01*
X437345Y495299D01*
X440344Y495799D02*
Y492800D01*
X441843D01*
X442343Y493300D01*
Y495299D01*
X441843Y495799D01*
X440344D01*
X515527Y492800D02*
Y495799D01*
X517026D01*
X517526Y495299D01*
Y494299D01*
X517026Y493800D01*
X515527D01*
X516526D02*
X517526Y492800D01*
X520525D02*
X518526D01*
X520525Y494799D01*
Y495299D01*
X520025Y495799D01*
X519026D01*
X518526Y495299D01*
X523524D02*
X523024Y495799D01*
X522025D01*
X521525Y495299D01*
Y493300D01*
X522025Y492800D01*
X523024D01*
X523524Y493300D01*
X545527Y592800D02*
Y595799D01*
X547026D01*
X547526Y595299D01*
Y594299D01*
X547026Y593800D01*
X545527D01*
X546526D02*
X547526Y592800D01*
X550525D02*
X548526D01*
X550525Y594799D01*
Y595299D01*
X550025Y595799D01*
X549025D01*
X548526Y595299D01*
X551525Y595799D02*
Y592800D01*
X553024D01*
X553524Y593300D01*
Y593800D01*
X553024Y594299D01*
X551525D01*
X553024D01*
X553524Y594799D01*
Y595299D01*
X553024Y595799D01*
X551525D01*
X585527Y492800D02*
Y495799D01*
X587026D01*
X587526Y495299D01*
Y494299D01*
X587026Y493800D01*
X585527D01*
X586526D02*
X587526Y492800D01*
X590525D02*
X588526D01*
X590525Y494799D01*
Y495299D01*
X590025Y495799D01*
X589025D01*
X588526Y495299D01*
X591525Y492800D02*
Y494799D01*
X592524Y495799D01*
X593524Y494799D01*
Y492800D01*
Y494299D01*
X591525D01*
X321238Y490000D02*
Y491999D01*
X320738Y492499D01*
X319738D01*
X319238Y491999D01*
Y490000D01*
X319738Y489500D01*
X320738D01*
X320238Y490500D02*
X321238Y489500D01*
X320738D02*
X321238Y490000D01*
X322237Y492499D02*
X324237D01*
Y491999D01*
X322237Y490000D01*
Y489500D01*
X325237Y492499D02*
Y489500D01*
X326736D01*
X327236Y490000D01*
Y490500D01*
X326736Y490999D01*
X325237D01*
X326736D01*
X327236Y491499D01*
Y491999D01*
X326736Y492499D01*
X325237D01*
X465726Y500000D02*
Y501999D01*
X465226Y502499D01*
X464226D01*
X463727Y501999D01*
Y500000D01*
X464226Y499500D01*
X465226D01*
X464726Y500500D02*
X465726Y499500D01*
X465226D02*
X465726Y500000D01*
X466726Y502499D02*
X468725D01*
Y501999D01*
X466726Y500000D01*
Y499500D01*
X469725D02*
Y501499D01*
X470724Y502499D01*
X471724Y501499D01*
Y499500D01*
Y500999D01*
X469725D01*
X341238Y490000D02*
Y491999D01*
X340738Y492499D01*
X339738D01*
X339238Y491999D01*
Y490000D01*
X339738Y489500D01*
X340738D01*
X340238Y490500D02*
X341238Y489500D01*
X340738D02*
X341238Y490000D01*
X344237Y492499D02*
X343237Y491999D01*
X342237Y490999D01*
Y490000D01*
X342737Y489500D01*
X343737D01*
X344237Y490000D01*
Y490500D01*
X343737Y490999D01*
X342237D01*
X347236Y492499D02*
X345236D01*
Y490999D01*
X346236D01*
X345236D01*
Y489500D01*
X369476Y594000D02*
Y595999D01*
X368976Y596499D01*
X367976D01*
X367477Y595999D01*
Y594000D01*
X367976Y593500D01*
X368976D01*
X368476Y594500D02*
X369476Y593500D01*
X368976D02*
X369476Y594000D01*
X372475Y596499D02*
X371475Y595999D01*
X370476Y594999D01*
Y594000D01*
X370975Y593500D01*
X371975D01*
X372475Y594000D01*
Y594500D01*
X371975Y594999D01*
X370476D01*
X375474Y596499D02*
X373475D01*
Y593500D01*
X375474D01*
X373475Y594999D02*
X374474D01*
X393526Y493300D02*
Y495299D01*
X393026Y495799D01*
X392026D01*
X391527Y495299D01*
Y493300D01*
X392026Y492800D01*
X393026D01*
X392526Y493800D02*
X393526Y492800D01*
X393026D02*
X393526Y493300D01*
X396525Y495799D02*
X395525Y495299D01*
X394526Y494299D01*
Y493300D01*
X395025Y492800D01*
X396025D01*
X396525Y493300D01*
Y493800D01*
X396025Y494299D01*
X394526D01*
X397525Y495799D02*
Y492800D01*
X399024D01*
X399524Y493300D01*
Y495299D01*
X399024Y495799D01*
X397525D01*
X495726Y490000D02*
Y491999D01*
X495226Y492499D01*
X494226D01*
X493727Y491999D01*
Y490000D01*
X494226Y489500D01*
X495226D01*
X494726Y490500D02*
X495726Y489500D01*
X495226D02*
X495726Y490000D01*
X498725Y492499D02*
X497725Y491999D01*
X496726Y490999D01*
Y490000D01*
X497226Y489500D01*
X498225D01*
X498725Y490000D01*
Y490500D01*
X498225Y490999D01*
X496726D01*
X501724Y491999D02*
X501224Y492499D01*
X500224D01*
X499725Y491999D01*
Y490000D01*
X500224Y489500D01*
X501224D01*
X501724Y490000D01*
X525726Y590000D02*
Y591999D01*
X525226Y592499D01*
X524226D01*
X523727Y591999D01*
Y590000D01*
X524226Y589500D01*
X525226D01*
X524726Y590500D02*
X525726Y589500D01*
X525226D02*
X525726Y590000D01*
X528725Y592499D02*
X527725Y591999D01*
X526726Y590999D01*
Y590000D01*
X527225Y589500D01*
X528225D01*
X528725Y590000D01*
Y590500D01*
X528225Y590999D01*
X526726D01*
X529725Y592499D02*
Y589500D01*
X531224D01*
X531724Y590000D01*
Y590500D01*
X531224Y590999D01*
X529725D01*
X531224D01*
X531724Y591499D01*
Y591999D01*
X531224Y592499D01*
X529725D01*
X539726Y494500D02*
Y496499D01*
X539226Y496999D01*
X538226D01*
X537727Y496499D01*
Y494500D01*
X538226Y494000D01*
X539226D01*
X538726Y495000D02*
X539726Y494000D01*
X539226D02*
X539726Y494500D01*
X542725Y496999D02*
X541725Y496499D01*
X540726Y495499D01*
Y494500D01*
X541225Y494000D01*
X542225D01*
X542725Y494500D01*
Y495000D01*
X542225Y495499D01*
X540726D01*
X543725Y494000D02*
Y495999D01*
X544724Y496999D01*
X545724Y495999D01*
Y494000D01*
Y495499D01*
X543725D01*
X351238Y510000D02*
Y511999D01*
X350738Y512499D01*
X349738D01*
X349238Y511999D01*
Y510000D01*
X349738Y509500D01*
X350738D01*
X350238Y510500D02*
X351238Y509500D01*
X350738D02*
X351238Y510000D01*
X354237Y512499D02*
X352237D01*
Y510999D01*
X353237Y511499D01*
X353737D01*
X354237Y510999D01*
Y510000D01*
X353737Y509500D01*
X352737D01*
X352237Y510000D01*
X357236Y512499D02*
X355237D01*
Y510999D01*
X356236D01*
X355237D01*
Y509500D01*
X379476Y574000D02*
Y575999D01*
X378976Y576499D01*
X377976D01*
X377477Y575999D01*
Y574000D01*
X377976Y573500D01*
X378976D01*
X378476Y574500D02*
X379476Y573500D01*
X378976D02*
X379476Y574000D01*
X382475Y576499D02*
X380476D01*
Y574999D01*
X381475Y575499D01*
X381975D01*
X382475Y574999D01*
Y574000D01*
X381975Y573500D01*
X380976D01*
X380476Y574000D01*
X385474Y576499D02*
X383475D01*
Y573500D01*
X385474D01*
X383475Y574999D02*
X384474D01*
X414545Y490000D02*
Y491999D01*
X414045Y492499D01*
X413045D01*
X412545Y491999D01*
Y490000D01*
X413045Y489500D01*
X414045D01*
X413545Y490500D02*
X414545Y489500D01*
X414045D02*
X414545Y490000D01*
X417544Y492499D02*
X415545D01*
Y490999D01*
X416544Y491499D01*
X417044D01*
X417544Y490999D01*
Y490000D01*
X417044Y489500D01*
X416044D01*
X415545Y490000D01*
X418544Y492499D02*
Y489500D01*
X420043D01*
X420543Y490000D01*
Y491999D01*
X420043Y492499D01*
X418544D01*
X505726Y510000D02*
Y511999D01*
X505226Y512499D01*
X504226D01*
X503727Y511999D01*
Y510000D01*
X504226Y509500D01*
X505226D01*
X504726Y510500D02*
X505726Y509500D01*
X505226D02*
X505726Y510000D01*
X508725Y512499D02*
X506726D01*
Y510999D01*
X507725Y511499D01*
X508225D01*
X508725Y510999D01*
Y510000D01*
X508225Y509500D01*
X507226D01*
X506726Y510000D01*
X511724Y511999D02*
X511224Y512499D01*
X510224D01*
X509725Y511999D01*
Y510000D01*
X510224Y509500D01*
X511224D01*
X511724Y510000D01*
X535726Y570000D02*
Y571999D01*
X535226Y572499D01*
X534226D01*
X533727Y571999D01*
Y570000D01*
X534226Y569500D01*
X535226D01*
X534726Y570500D02*
X535726Y569500D01*
X535226D02*
X535726Y570000D01*
X538725Y572499D02*
X536726D01*
Y570999D01*
X537725Y571499D01*
X538225D01*
X538725Y570999D01*
Y570000D01*
X538225Y569500D01*
X537225D01*
X536726Y570000D01*
X539725Y572499D02*
Y569500D01*
X541224D01*
X541724Y570000D01*
Y570500D01*
X541224Y570999D01*
X539725D01*
X541224D01*
X541724Y571499D01*
Y571999D01*
X541224Y572499D01*
X539725D01*
X565726Y490000D02*
Y491999D01*
X565226Y492499D01*
X564226D01*
X563727Y491999D01*
Y490000D01*
X564226Y489500D01*
X565226D01*
X564726Y490500D02*
X565726Y489500D01*
X565226D02*
X565726Y490000D01*
X568725Y492499D02*
X566726D01*
Y490999D01*
X567725Y491499D01*
X568225D01*
X568725Y490999D01*
Y490000D01*
X568225Y489500D01*
X567226D01*
X566726Y490000D01*
X569725Y489500D02*
Y491499D01*
X570724Y492499D01*
X571724Y491499D01*
Y489500D01*
Y490999D01*
X569725D01*
X558126Y545600D02*
Y547599D01*
X557626Y548099D01*
X556627D01*
X556127Y547599D01*
Y545600D01*
X556627Y545100D01*
X557626D01*
X557126Y546100D02*
X558126Y545100D01*
X557626D02*
X558126Y545600D01*
X560625Y545100D02*
Y548099D01*
X559126Y546599D01*
X561125D01*
X408099Y545600D02*
Y547599D01*
X407599Y548099D01*
X406600D01*
X406100Y547599D01*
Y545600D01*
X406600Y545100D01*
X407599D01*
X407100Y546100D02*
X408099Y545100D01*
X407599D02*
X408099Y545600D01*
X409099Y547599D02*
X409599Y548099D01*
X410599D01*
X411098Y547599D01*
Y547099D01*
X410599Y546599D01*
X410099D01*
X410599D01*
X411098Y546100D01*
Y545600D01*
X410599Y545100D01*
X409599D01*
X409099Y545600D01*
X558126Y595600D02*
Y597599D01*
X557626Y598099D01*
X556627D01*
X556127Y597599D01*
Y595600D01*
X556627Y595100D01*
X557626D01*
X557126Y596100D02*
X558126Y595100D01*
X557626D02*
X558126Y595600D01*
X561125Y595100D02*
X559126D01*
X561125Y597099D01*
Y597599D01*
X560625Y598099D01*
X559625D01*
X559126Y597599D01*
X408099Y595600D02*
Y597599D01*
X407599Y598099D01*
X406600D01*
X406100Y597599D01*
Y595600D01*
X406600Y595100D01*
X407599D01*
X407100Y596100D02*
X408099Y595100D01*
X407599D02*
X408099Y595600D01*
X409099Y595100D02*
X410099D01*
X409599D01*
Y598099D01*
X409099Y597599D01*
X584300Y591299D02*
Y588300D01*
Y589799D01*
X586299D01*
Y591299D01*
Y588300D01*
X587299Y591299D02*
Y589300D01*
X588299Y588300D01*
X589298Y589300D01*
Y591299D01*
X590298Y588300D02*
X591298D01*
X590798D01*
Y590299D01*
X590298D01*
X592797Y588300D02*
Y590299D01*
X594297D01*
X594797Y589799D01*
Y588300D01*
X595796D02*
X596796D01*
X596296D01*
Y591299D01*
X595796Y590799D01*
X448599Y459099D02*
X448100Y459599D01*
X447100D01*
X446600Y459099D01*
Y457100D01*
X447100Y456600D01*
X448100D01*
X448599Y457100D01*
Y458100D01*
X447600D01*
X449599Y456600D02*
Y459599D01*
X451598Y456600D01*
Y459599D01*
X452598D02*
Y456600D01*
X454098D01*
X454597Y457100D01*
Y459099D01*
X454098Y459599D01*
X452598D01*
X455597Y456600D02*
X456597D01*
X456097D01*
Y459599D01*
X455597Y459099D01*
X306000Y483499D02*
Y480500D01*
X307500D01*
X307999Y481000D01*
Y482999D01*
X307500Y483499D01*
X306000D01*
X308999D02*
X309999D01*
X309499D01*
Y480500D01*
X308999D01*
X309999D01*
X311498D02*
Y483499D01*
X313498Y480500D01*
Y483499D01*
X317496D02*
X319496D01*
X318496D01*
Y480500D01*
X320995D02*
X321995D01*
X322495Y481000D01*
Y481999D01*
X321995Y482499D01*
X320995D01*
X320495Y481999D01*
Y481000D01*
X320995Y480500D01*
X323494Y479500D02*
Y482499D01*
X324994D01*
X325494Y481999D01*
Y481000D01*
X324994Y480500D01*
X323494D01*
X330992Y483499D02*
X329992D01*
X329492Y482999D01*
Y481000D01*
X329992Y480500D01*
X330992D01*
X331492Y481000D01*
Y482999D01*
X330992Y483499D01*
X332491Y480500D02*
Y482499D01*
X333991D01*
X334491Y481999D01*
Y480500D01*
X335490D02*
X336490D01*
X335990D01*
Y483499D01*
X335490Y482999D01*
X336600Y530499D02*
Y527500D01*
X338100D01*
X338599Y528000D01*
Y529999D01*
X338100Y530499D01*
X336600D01*
X339599D02*
X340599D01*
X340099D01*
Y527500D01*
X339599D01*
X340599D01*
X342098D02*
Y530499D01*
X344098Y527500D01*
Y530499D01*
X348096D02*
X350096D01*
X349096D01*
Y527500D01*
X351595D02*
X352595D01*
X353095Y528000D01*
Y529000D01*
X352595Y529499D01*
X351595D01*
X351095Y529000D01*
Y528000D01*
X351595Y527500D01*
X354094Y526500D02*
Y529499D01*
X355594D01*
X356094Y529000D01*
Y528000D01*
X355594Y527500D01*
X354094D01*
X361592Y530499D02*
X360592D01*
X360092Y529999D01*
Y528000D01*
X360592Y527500D01*
X361592D01*
X362092Y528000D01*
Y529999D01*
X361592Y530499D01*
X363591Y527500D02*
Y529999D01*
Y529000D01*
X363091D01*
X364091D01*
X363591D01*
Y529999D01*
X364091Y530499D01*
X366090Y527500D02*
Y529999D01*
Y529000D01*
X365591D01*
X366590D01*
X366090D01*
Y529999D01*
X366590Y530499D01*
X368090Y527500D02*
X369090D01*
X368590D01*
Y530499D01*
X368090Y529999D01*
X376600Y470499D02*
Y467500D01*
X378099D01*
X378599Y468000D01*
Y469999D01*
X378099Y470499D01*
X376600D01*
X379599D02*
X380599D01*
X380099D01*
Y467500D01*
X379599D01*
X380599D01*
X382098D02*
Y470499D01*
X384098Y467500D01*
Y470499D01*
X388096D02*
Y467500D01*
X389596D01*
X390096Y468000D01*
Y468500D01*
X389596Y468999D01*
X388096D01*
X389596D01*
X390096Y469499D01*
Y469999D01*
X389596Y470499D01*
X388096D01*
X391595Y467500D02*
X392595D01*
X393095Y468000D01*
Y468999D01*
X392595Y469499D01*
X391595D01*
X391095Y468999D01*
Y468000D01*
X391595Y467500D01*
X394594Y469999D02*
Y469499D01*
X394094D01*
X395094D01*
X394594D01*
Y468000D01*
X395094Y467500D01*
X397093Y469999D02*
Y469499D01*
X396593D01*
X397593D01*
X397093D01*
Y468000D01*
X397593Y467500D01*
X399593D02*
X400592D01*
X401092Y468000D01*
Y468999D01*
X400592Y469499D01*
X399593D01*
X399093Y468999D01*
Y468000D01*
X399593Y467500D01*
X402092D02*
Y469499D01*
X402592D01*
X403091Y468999D01*
Y467500D01*
Y468999D01*
X403591Y469499D01*
X404091Y468999D01*
Y467500D01*
X408090Y470499D02*
X410089D01*
X409090D01*
Y467500D01*
X411089Y469499D02*
Y467500D01*
Y468500D01*
X411589Y468999D01*
X412088Y469499D01*
X412588D01*
X414088Y467500D02*
X415088D01*
X414588D01*
Y469499D01*
X414088D01*
X417587Y466500D02*
X418087D01*
X418586Y467000D01*
Y469499D01*
X417087D01*
X416587Y468999D01*
Y468000D01*
X417087Y467500D01*
X418586D01*
X420586Y466500D02*
X421086D01*
X421585Y467000D01*
Y469499D01*
X420086D01*
X419586Y468999D01*
Y468000D01*
X420086Y467500D01*
X421585D01*
X424085D02*
X423085D01*
X422585Y468000D01*
Y468999D01*
X423085Y469499D01*
X424085D01*
X424584Y468999D01*
Y468500D01*
X422585D01*
X425584Y469499D02*
Y467500D01*
Y468500D01*
X426084Y468999D01*
X426584Y469499D01*
X427084D01*
X428583Y467500D02*
X429583D01*
X429083D01*
Y470499D01*
X428583Y469999D01*
X363691Y551999D02*
Y549000D01*
X365191D01*
X365691Y549500D01*
Y551499D01*
X365191Y551999D01*
X363691D01*
X368690Y549000D02*
X366690D01*
X368690Y550999D01*
Y551499D01*
X368190Y551999D01*
X367190D01*
X366690Y551499D01*
X369689Y551999D02*
Y549000D01*
X371189D01*
X371689Y549500D01*
Y550000D01*
X371189Y550499D01*
X369689D01*
X371189D01*
X371689Y550999D01*
Y551499D01*
X371189Y551999D01*
X369689D01*
X515227Y551999D02*
Y549000D01*
X516726D01*
X517226Y549500D01*
Y551499D01*
X516726Y551999D01*
X515227D01*
X520225Y549000D02*
X518226D01*
X520225Y550999D01*
Y551499D01*
X519725Y551999D01*
X518725D01*
X518226Y551499D01*
X521225Y549000D02*
Y550999D01*
X522224Y551999D01*
X523224Y550999D01*
Y549000D01*
Y550499D01*
X521225D01*
X323691Y551999D02*
Y549000D01*
X325191D01*
X325691Y549500D01*
Y551499D01*
X325191Y551999D01*
X323691D01*
X326690Y549000D02*
X327690D01*
X327190D01*
Y551999D01*
X326690Y551499D01*
X329189Y551999D02*
Y549000D01*
X330689D01*
X331189Y549500D01*
Y550000D01*
X330689Y550499D01*
X329189D01*
X330689D01*
X331189Y550999D01*
Y551499D01*
X330689Y551999D01*
X329189D01*
X475227Y551999D02*
Y549000D01*
X476726D01*
X477226Y549500D01*
Y551499D01*
X476726Y551999D01*
X475227D01*
X478226Y549000D02*
X479225D01*
X478725D01*
Y551999D01*
X478226Y551499D01*
X480725Y549000D02*
Y550999D01*
X481725Y551999D01*
X482724Y550999D01*
Y549000D01*
Y550499D01*
X480725D01*
X461999Y482499D02*
X461500Y482999D01*
X460500D01*
X460000Y482499D01*
Y480500D01*
X460500Y480000D01*
X461500D01*
X461999Y480500D01*
X462999Y482999D02*
X463999D01*
X463499D01*
Y480000D01*
X462999D01*
X463999D01*
X465498D02*
Y482999D01*
X467498Y480000D01*
Y482999D01*
X471496D02*
X473496D01*
X472496D01*
Y480000D01*
X474995D02*
X475995D01*
X476495Y480500D01*
Y481499D01*
X475995Y481999D01*
X474995D01*
X474495Y481499D01*
Y480500D01*
X474995Y480000D01*
X477494Y479000D02*
Y481999D01*
X478994D01*
X479494Y481499D01*
Y480500D01*
X478994Y480000D01*
X477494D01*
X484992Y482999D02*
X483992D01*
X483492Y482499D01*
Y480500D01*
X483992Y480000D01*
X484992D01*
X485492Y480500D01*
Y482499D01*
X484992Y482999D01*
X486491Y480000D02*
Y481999D01*
X487991D01*
X488491Y481499D01*
Y480000D01*
X489491D02*
X490490D01*
X489990D01*
Y482999D01*
X489491Y482499D01*
X472399Y586699D02*
X471900Y587199D01*
X470900D01*
X470400Y586699D01*
Y584700D01*
X470900Y584200D01*
X471900D01*
X472399Y584700D01*
X473399Y587199D02*
X474399D01*
X473899D01*
Y584200D01*
X473399D01*
X474399D01*
X475898D02*
Y587199D01*
X477898Y584200D01*
Y587199D01*
X481896D02*
X483896D01*
X482896D01*
Y584200D01*
X485395D02*
X486395D01*
X486895Y584700D01*
Y585700D01*
X486395Y586199D01*
X485395D01*
X484895Y585700D01*
Y584700D01*
X485395Y584200D01*
X487894Y583200D02*
Y586199D01*
X489394D01*
X489894Y585700D01*
Y584700D01*
X489394Y584200D01*
X487894D01*
X495392Y587199D02*
X494392D01*
X493892Y586699D01*
Y584700D01*
X494392Y584200D01*
X495392D01*
X495892Y584700D01*
Y586699D01*
X495392Y587199D01*
X497391Y584200D02*
Y586699D01*
Y585700D01*
X496891D01*
X497891D01*
X497391D01*
Y586699D01*
X497891Y587199D01*
X499891Y584200D02*
Y586699D01*
Y585700D01*
X499391D01*
X500390D01*
X499891D01*
Y586699D01*
X500390Y587199D01*
X501890Y584200D02*
X502889D01*
X502390D01*
Y587199D01*
X501890Y586699D01*
X528599Y469999D02*
X528099Y470499D01*
X527100D01*
X526600Y469999D01*
Y468000D01*
X527100Y467500D01*
X528099D01*
X528599Y468000D01*
X529599Y470499D02*
X530599D01*
X530099D01*
Y467500D01*
X529599D01*
X530599D01*
X532098D02*
Y470499D01*
X534098Y467500D01*
Y470499D01*
X538096D02*
Y467500D01*
X539596D01*
X540096Y468000D01*
Y468500D01*
X539596Y468999D01*
X538096D01*
X539596D01*
X540096Y469499D01*
Y469999D01*
X539596Y470499D01*
X538096D01*
X541595Y467500D02*
X542595D01*
X543095Y468000D01*
Y468999D01*
X542595Y469499D01*
X541595D01*
X541095Y468999D01*
Y468000D01*
X541595Y467500D01*
X544594Y469999D02*
Y469499D01*
X544094D01*
X545094D01*
X544594D01*
Y468000D01*
X545094Y467500D01*
X547093Y469999D02*
Y469499D01*
X546594D01*
X547593D01*
X547093D01*
Y468000D01*
X547593Y467500D01*
X549593D02*
X550592D01*
X551092Y468000D01*
Y468999D01*
X550592Y469499D01*
X549593D01*
X549093Y468999D01*
Y468000D01*
X549593Y467500D01*
X552092D02*
Y469499D01*
X552592D01*
X553091Y468999D01*
Y467500D01*
Y468999D01*
X553591Y469499D01*
X554091Y468999D01*
Y467500D01*
X558090Y470499D02*
X560089D01*
X559090D01*
Y467500D01*
X561089Y469499D02*
Y467500D01*
Y468500D01*
X561589Y468999D01*
X562088Y469499D01*
X562588D01*
X564088Y467500D02*
X565088D01*
X564588D01*
Y469499D01*
X564088D01*
X567587Y466500D02*
X568087D01*
X568586Y467000D01*
Y469499D01*
X567087D01*
X566587Y468999D01*
Y468000D01*
X567087Y467500D01*
X568586D01*
X570586Y466500D02*
X571086D01*
X571585Y467000D01*
Y469499D01*
X570086D01*
X569586Y468999D01*
Y468000D01*
X570086Y467500D01*
X571585D01*
X574085D02*
X573085D01*
X572585Y468000D01*
Y468999D01*
X573085Y469499D01*
X574085D01*
X574584Y468999D01*
Y468500D01*
X572585D01*
X575584Y469499D02*
Y467500D01*
Y468500D01*
X576084Y468999D01*
X576584Y469499D01*
X577084D01*
X578583Y467500D02*
X579583D01*
X579083D01*
Y470499D01*
X578583Y469999D01*
X355991Y535299D02*
X355491Y535799D01*
X354491D01*
X353991Y535299D01*
Y533300D01*
X354491Y532800D01*
X355491D01*
X355991Y533300D01*
X356990Y532800D02*
X357990D01*
X357490D01*
Y535799D01*
X356990Y535299D01*
X359489Y535799D02*
Y532800D01*
X360989D01*
X361489Y533300D01*
Y533800D01*
X360989Y534300D01*
X359489D01*
X360989D01*
X361489Y534799D01*
Y535299D01*
X360989Y535799D01*
X359489D01*
X507526Y535299D02*
X507026Y535799D01*
X506027D01*
X505527Y535299D01*
Y533300D01*
X506027Y532800D01*
X507026D01*
X507526Y533300D01*
X508526Y532800D02*
X509525D01*
X509025D01*
Y535799D01*
X508526Y535299D01*
X511025Y532800D02*
Y534799D01*
X512025Y535799D01*
X513024Y534799D01*
Y532800D01*
Y534299D01*
X511025D01*
X375091Y506565D02*
X376091D01*
X375591D01*
Y509564D01*
X375091Y509064D01*
X377590D02*
X378090Y509564D01*
X379090D01*
X379590Y509064D01*
Y507064D01*
X379090Y506565D01*
X378090D01*
X377590Y507064D01*
Y509064D01*
X380590Y509564D02*
Y507564D01*
X381589Y506565D01*
X382589Y507564D01*
Y509564D01*
X383589D02*
Y506565D01*
X385088D01*
X385588Y507064D01*
Y509064D01*
X385088Y509564D01*
X383589D01*
X388587Y509064D02*
X388087Y509564D01*
X387087D01*
X386588Y509064D01*
Y507064D01*
X387087Y506565D01*
X388087D01*
X388587Y507064D01*
X389587Y509564D02*
Y506565D01*
X391086D01*
X391586Y507064D01*
Y507564D01*
X391086Y508064D01*
X389587D01*
X391086D01*
X391586Y508564D01*
Y509064D01*
X391086Y509564D01*
X389587D01*
X526627Y506565D02*
X527626D01*
X527127D01*
Y509563D01*
X526627Y509064D01*
X529126D02*
X529626Y509563D01*
X530625D01*
X531125Y509064D01*
Y507064D01*
X530625Y506565D01*
X529626D01*
X529126Y507064D01*
Y509064D01*
X532125Y509563D02*
Y507564D01*
X533125Y506565D01*
X534124Y507564D01*
Y509563D01*
X535124D02*
Y506565D01*
X536623D01*
X537123Y507064D01*
Y509064D01*
X536623Y509563D01*
X535124D01*
X540122Y509064D02*
X539622Y509563D01*
X538623D01*
X538123Y509064D01*
Y507064D01*
X538623Y506565D01*
X539622D01*
X540122Y507064D01*
X541122Y506565D02*
Y508564D01*
X542122Y509563D01*
X543121Y508564D01*
Y506565D01*
Y508064D01*
X541122D01*
D28*
X136150Y452148D02*
Y448149D01*
X138149Y446150D01*
X140149Y448149D01*
Y452148D01*
X143148Y446150D02*
X145147D01*
X146147Y447150D01*
Y449149D01*
X145147Y450149D01*
X143148D01*
X142148Y449149D01*
Y447150D01*
X143148Y446150D01*
X148146Y450149D02*
Y447150D01*
X149146Y446150D01*
X152145D01*
Y450149D01*
X155144Y451148D02*
Y450149D01*
X154144D01*
X156143D01*
X155144D01*
Y447150D01*
X156143Y446150D01*
X159143D02*
X161142D01*
X160142D01*
Y452148D01*
X159143Y451148D01*
X164141Y445150D02*
X168140D01*
X174138Y446150D02*
X170139D01*
X174138Y450149D01*
Y451148D01*
X173138Y452148D01*
X171139D01*
X170139Y451148D01*
X155650Y452448D02*
Y448449D01*
X157649Y446450D01*
X159649Y448449D01*
Y452448D01*
X162648Y446450D02*
X164647D01*
X165647Y447450D01*
Y449449D01*
X164647Y450449D01*
X162648D01*
X161648Y449449D01*
Y447450D01*
X162648Y446450D01*
X167646Y450449D02*
Y447450D01*
X168646Y446450D01*
X171645D01*
Y450449D01*
X174644Y451448D02*
Y450449D01*
X173644D01*
X175644D01*
X174644D01*
Y447450D01*
X175644Y446450D01*
X182641D02*
X178643D01*
X182641Y450449D01*
Y451448D01*
X181642Y452448D01*
X179642D01*
X178643Y451448D01*
X184641Y445450D02*
X188639D01*
X194637Y446450D02*
X190639D01*
X194637Y450449D01*
Y451448D01*
X193638Y452448D01*
X191638D01*
X190639Y451448D01*
X436850Y302548D02*
Y298549D01*
X438849Y296550D01*
X440849Y298549D01*
Y302548D01*
X443848Y296550D02*
X445847D01*
X446847Y297550D01*
Y299549D01*
X445847Y300549D01*
X443848D01*
X442848Y299549D01*
Y297550D01*
X443848Y296550D01*
X448846Y300549D02*
Y297550D01*
X449846Y296550D01*
X452845D01*
Y300549D01*
X455844Y301548D02*
Y300549D01*
X454844D01*
X456844D01*
X455844D01*
Y297550D01*
X456844Y296550D01*
X459843D02*
X461842D01*
X460842D01*
Y302548D01*
X459843Y301548D01*
X464841Y295550D02*
X468840D01*
X470839Y296550D02*
X472838D01*
X471839D01*
Y302548D01*
X470839Y301548D01*
X456350Y302848D02*
Y298849D01*
X458349Y296850D01*
X460349Y298849D01*
Y302848D01*
X463348Y296850D02*
X465347D01*
X466347Y297850D01*
Y299849D01*
X465347Y300849D01*
X463348D01*
X462348Y299849D01*
Y297850D01*
X463348Y296850D01*
X468346Y300849D02*
Y297850D01*
X469346Y296850D01*
X472345D01*
Y300849D01*
X475344Y301848D02*
Y300849D01*
X474344D01*
X476343D01*
X475344D01*
Y297850D01*
X476343Y296850D01*
X483341D02*
X479343D01*
X483341Y300849D01*
Y301848D01*
X482342Y302848D01*
X480342D01*
X479343Y301848D01*
X485341Y295850D02*
X489339D01*
X491339Y296850D02*
X493338D01*
X492338D01*
Y302848D01*
X491339Y301848D01*
X456350Y602848D02*
Y598849D01*
X458349Y596850D01*
X460349Y598849D01*
Y602848D01*
X463348Y596850D02*
X465347D01*
X466347Y597850D01*
Y599849D01*
X465347Y600849D01*
X463348D01*
X462348Y599849D01*
Y597850D01*
X463348Y596850D01*
X468346Y600849D02*
Y597850D01*
X469346Y596850D01*
X472345D01*
Y600849D01*
X475344Y601848D02*
Y600849D01*
X474344D01*
X476343D01*
X475344D01*
Y597850D01*
X476343Y596850D01*
X483341D02*
X479343D01*
X483341Y600849D01*
Y601848D01*
X482342Y602848D01*
X480342D01*
X479343Y601848D01*
X436850Y602548D02*
Y598549D01*
X438849Y596550D01*
X440849Y598549D01*
Y602548D01*
X443848Y596550D02*
X445847D01*
X446847Y597550D01*
Y599549D01*
X445847Y600549D01*
X443848D01*
X442848Y599549D01*
Y597550D01*
X443848Y596550D01*
X448846Y600549D02*
Y597550D01*
X449846Y596550D01*
X452845D01*
Y600549D01*
X455844Y601548D02*
Y600549D01*
X454844D01*
X456844D01*
X455844D01*
Y597550D01*
X456844Y596550D01*
X459843D02*
X461842D01*
X460842D01*
Y602548D01*
X459843Y601548D01*
M02*
