M48
;Layer_Color=9474304
;FILE_FORMAT=2:5
INCH,LZ
;TYPE=PLATED
T1F00S00C0.03543
%
T01
X01498Y01499
X03004Y01494
X04492
X04769Y023
X04834Y02796
X05204Y02853
X0539961Y0282976
X05307Y02503
X05855Y02643
X05877Y02906
X05887Y02031
X0578712Y0185512
X05566Y01727
X0438819Y0194319
X03965Y02273
X038Y02516
X03683Y02532
X03646Y0289
X04044Y02909
X04497Y03005
X02991
X01493Y02996
X0138119Y0343919
X00958Y03769
X00793Y04012
X00676Y04028
X00639Y04386
X01035Y04404
X01493Y04498
X01827Y04292
X02197Y04349
X0239261Y0432576
X023Y03999
X02848Y04139
X0287Y04402
X02995Y04498
X0288Y03527
X0278012Y0335112
X02559Y03223
X01762Y03796
X045Y045
X05566Y04727
X0578712Y0485512
X05887Y05031
X05855Y05643
X05877Y05906
X0539961Y0582976
X05204Y05853
X04834Y05796
X04769Y053
X05307Y05503
X0438819Y0494319
X03965Y05273
X038Y05516
X03683Y05532
X03646Y0589
X04058Y0592
M30
