G04 Layer_Color=8421504*
%FSLAX25Y25*%
%MOIN*%
G70*
G01*
G75*
G04:AMPARAMS|DCode=11|XSize=62.99mil|YSize=70.87mil|CornerRadius=0mil|HoleSize=0mil|Usage=FLASHONLY|Rotation=270.000|XOffset=0mil|YOffset=0mil|HoleType=Round|Shape=RoundedRectangle|*
%AMROUNDEDRECTD11*
21,1,0.06299,0.07087,0,0,270.0*
21,1,0.06299,0.07087,0,0,270.0*
1,1,0.00000,-0.03543,-0.03150*
1,1,0.00000,-0.03543,0.03150*
1,1,0.00000,0.03543,0.03150*
1,1,0.00000,0.03543,-0.03150*
%
%ADD11ROUNDEDRECTD11*%
%ADD12R,0.10433X0.06890*%
%ADD13R,0.06200X0.10400*%
%ADD14R,0.21400X0.22000*%
%ADD15R,0.06200X0.10300*%
%ADD16R,0.03000X0.05000*%
%ADD17R,0.05000X0.03000*%
G04:AMPARAMS|DCode=18|XSize=62.99mil|YSize=70.87mil|CornerRadius=0mil|HoleSize=0mil|Usage=FLASHONLY|Rotation=0.000|XOffset=0mil|YOffset=0mil|HoleType=Round|Shape=RoundedRectangle|*
%AMROUNDEDRECTD18*
21,1,0.06299,0.07087,0,0,0.0*
21,1,0.06299,0.07087,0,0,0.0*
1,1,0.00000,0.03150,-0.03543*
1,1,0.00000,-0.03150,-0.03543*
1,1,0.00000,-0.03150,0.03543*
1,1,0.00000,0.03150,0.03543*
%
%ADD18ROUNDEDRECTD18*%
%ADD19R,0.07874X0.21260*%
D11*
X209300Y375112D02*
D03*
Y364088D02*
D03*
X57765Y375112D02*
D03*
Y364088D02*
D03*
X289300Y324088D02*
D03*
Y335112D02*
D03*
X249300Y435112D02*
D03*
Y424088D02*
D03*
X219300Y324088D02*
D03*
Y335112D02*
D03*
X138119Y324088D02*
D03*
Y335112D02*
D03*
X93050Y439112D02*
D03*
Y428088D02*
D03*
X64812Y324088D02*
D03*
Y335112D02*
D03*
X46500Y425112D02*
D03*
Y414088D02*
D03*
X510000Y225512D02*
D03*
Y214488D02*
D03*
X358465Y225512D02*
D03*
Y214488D02*
D03*
X590000Y174488D02*
D03*
Y185512D02*
D03*
X550000Y285512D02*
D03*
Y274488D02*
D03*
X520000Y174488D02*
D03*
Y185512D02*
D03*
X438819Y174488D02*
D03*
Y185512D02*
D03*
X393750Y289512D02*
D03*
Y278488D02*
D03*
X365512Y174488D02*
D03*
Y185512D02*
D03*
X347200Y275512D02*
D03*
Y264488D02*
D03*
X358465Y525512D02*
D03*
Y514488D02*
D03*
X510000Y525512D02*
D03*
Y514488D02*
D03*
X365512Y474488D02*
D03*
Y485512D02*
D03*
X347200Y575512D02*
D03*
Y564488D02*
D03*
X393750Y589512D02*
D03*
Y578488D02*
D03*
X438819Y474488D02*
D03*
Y485512D02*
D03*
X520000Y474488D02*
D03*
Y485512D02*
D03*
X550000Y585512D02*
D03*
Y574488D02*
D03*
X590000Y474488D02*
D03*
Y485512D02*
D03*
D12*
X197765Y389600D02*
D03*
X180835D02*
D03*
X46229Y389600D02*
D03*
X29300D02*
D03*
X237765Y389600D02*
D03*
X220835D02*
D03*
X86229Y389600D02*
D03*
X69300D02*
D03*
X498465Y240000D02*
D03*
X481535D02*
D03*
X346929Y240000D02*
D03*
X330000D02*
D03*
X538465Y240000D02*
D03*
X521535D02*
D03*
X386929Y240000D02*
D03*
X370000D02*
D03*
X538465Y540000D02*
D03*
X521535D02*
D03*
X498465D02*
D03*
X481535D02*
D03*
X386929Y540000D02*
D03*
X370000D02*
D03*
X346929D02*
D03*
X330000D02*
D03*
D13*
X128300Y402300D02*
D03*
X278300D02*
D03*
X128300Y352300D02*
D03*
X278300D02*
D03*
X429000Y252700D02*
D03*
X579000D02*
D03*
X429000Y202700D02*
D03*
X579000D02*
D03*
X429000Y552700D02*
D03*
X579000D02*
D03*
X429000Y502700D02*
D03*
X579000D02*
D03*
D14*
X119300Y429600D02*
D03*
X269300D02*
D03*
X119300Y379600D02*
D03*
X269300D02*
D03*
X420000Y280000D02*
D03*
X570000D02*
D03*
X420000Y230000D02*
D03*
X570000D02*
D03*
X420000Y580000D02*
D03*
X570000D02*
D03*
X420000Y530000D02*
D03*
X570000D02*
D03*
D15*
X110300Y402300D02*
D03*
X260300D02*
D03*
X110300Y352300D02*
D03*
X260300D02*
D03*
X411000Y252700D02*
D03*
X561000D02*
D03*
X411000Y202700D02*
D03*
X561000D02*
D03*
X411000Y552700D02*
D03*
X561000D02*
D03*
X411000Y502700D02*
D03*
X561000D02*
D03*
D16*
X269300Y333600D02*
D03*
X273050Y325600D02*
D03*
X265550D02*
D03*
X239300Y413600D02*
D03*
X243050Y405600D02*
D03*
X235550D02*
D03*
X209300Y353600D02*
D03*
X213050Y345600D02*
D03*
X205550D02*
D03*
X118119Y333600D02*
D03*
X121869Y325600D02*
D03*
X114369D02*
D03*
X83050Y417600D02*
D03*
X86800Y409600D02*
D03*
X79300D02*
D03*
X54812Y353600D02*
D03*
X58562Y345600D02*
D03*
X51062D02*
D03*
X243300Y338100D02*
D03*
X247050Y330100D02*
D03*
X239550D02*
D03*
X229300Y433600D02*
D03*
X233050Y425600D02*
D03*
X225550D02*
D03*
X199300Y333600D02*
D03*
X203050Y325600D02*
D03*
X195550D02*
D03*
X97100Y336900D02*
D03*
X100850Y328900D02*
D03*
X93350D02*
D03*
X73050Y437600D02*
D03*
X76800Y429600D02*
D03*
X69300D02*
D03*
X44812Y333600D02*
D03*
X48562Y325600D02*
D03*
X41062D02*
D03*
X570000Y184000D02*
D03*
X573750Y176000D02*
D03*
X566250D02*
D03*
X540000Y264000D02*
D03*
X543750Y256000D02*
D03*
X536250D02*
D03*
X510000Y204000D02*
D03*
X513750Y196000D02*
D03*
X506250D02*
D03*
X418819Y184000D02*
D03*
X422569Y176000D02*
D03*
X415069D02*
D03*
X383750Y268000D02*
D03*
X387500Y260000D02*
D03*
X380000D02*
D03*
X355512Y204000D02*
D03*
X359262Y196000D02*
D03*
X351762D02*
D03*
X544000Y188500D02*
D03*
X547750Y180500D02*
D03*
X540250D02*
D03*
X530000Y284000D02*
D03*
X533750Y276000D02*
D03*
X526250D02*
D03*
X500000Y184000D02*
D03*
X503750Y176000D02*
D03*
X496250D02*
D03*
X397800Y187300D02*
D03*
X401550Y179300D02*
D03*
X394050D02*
D03*
X373750Y288000D02*
D03*
X377500Y280000D02*
D03*
X370000D02*
D03*
X345512Y184000D02*
D03*
X349262Y176000D02*
D03*
X341762D02*
D03*
X355512Y504000D02*
D03*
X359262Y496000D02*
D03*
X351762D02*
D03*
X345512Y484000D02*
D03*
X349262Y476000D02*
D03*
X341762D02*
D03*
X373750Y588000D02*
D03*
X377500Y580000D02*
D03*
X370000D02*
D03*
X397800Y487300D02*
D03*
X401550Y479300D02*
D03*
X394050D02*
D03*
X500000Y484000D02*
D03*
X503750Y476000D02*
D03*
X496250D02*
D03*
X530000Y584000D02*
D03*
X533750Y576000D02*
D03*
X526250D02*
D03*
X544000Y488500D02*
D03*
X547750Y480500D02*
D03*
X540250D02*
D03*
X383750Y568000D02*
D03*
X387500Y560000D02*
D03*
X380000D02*
D03*
X418819Y484000D02*
D03*
X422569Y476000D02*
D03*
X415069D02*
D03*
X510000Y504000D02*
D03*
X513750Y496000D02*
D03*
X506250D02*
D03*
X540000Y564000D02*
D03*
X543750Y556000D02*
D03*
X536250D02*
D03*
X570000Y484000D02*
D03*
X573750Y476000D02*
D03*
X566250D02*
D03*
D17*
X173300Y339600D02*
D03*
X165300Y335850D02*
D03*
Y343350D02*
D03*
X28812Y329600D02*
D03*
X20812Y325850D02*
D03*
Y333350D02*
D03*
X474000Y190000D02*
D03*
X466000Y186250D02*
D03*
Y193750D02*
D03*
X329512Y180000D02*
D03*
X321512Y176250D02*
D03*
Y183750D02*
D03*
X474000Y490000D02*
D03*
X466000Y486250D02*
D03*
Y493750D02*
D03*
X329512Y480000D02*
D03*
X321512Y476250D02*
D03*
Y483750D02*
D03*
D18*
X254812Y309600D02*
D03*
X243788D02*
D03*
X184812Y409600D02*
D03*
X173788D02*
D03*
X174812Y309600D02*
D03*
X163788D02*
D03*
X103631D02*
D03*
X92607D02*
D03*
X28562Y413600D02*
D03*
X17538D02*
D03*
X20324Y309600D02*
D03*
X9300D02*
D03*
X284812D02*
D03*
X273788D02*
D03*
X214812Y409600D02*
D03*
X203788D02*
D03*
X204812Y309600D02*
D03*
X193788D02*
D03*
X133631D02*
D03*
X122607D02*
D03*
X50324D02*
D03*
X39300D02*
D03*
X174812Y359600D02*
D03*
X163788D02*
D03*
X30324Y349600D02*
D03*
X19300D02*
D03*
X153788Y379600D02*
D03*
X164812D02*
D03*
X9300Y369600D02*
D03*
X20324D02*
D03*
X555512Y160000D02*
D03*
X544488D02*
D03*
X485512Y260000D02*
D03*
X474488D02*
D03*
X475512Y160000D02*
D03*
X464488D02*
D03*
X404331D02*
D03*
X393307D02*
D03*
X329262Y264000D02*
D03*
X318238D02*
D03*
X321024Y160000D02*
D03*
X310000D02*
D03*
X585512D02*
D03*
X574488D02*
D03*
X515512Y260000D02*
D03*
X504488D02*
D03*
X505512Y160000D02*
D03*
X494488D02*
D03*
X434331D02*
D03*
X423307D02*
D03*
X351024D02*
D03*
X340000D02*
D03*
X475512Y210000D02*
D03*
X464488D02*
D03*
X331024Y200000D02*
D03*
X320000D02*
D03*
X454488Y230000D02*
D03*
X465512D02*
D03*
X310000Y220000D02*
D03*
X321024D02*
D03*
X475512Y510000D02*
D03*
X464488D02*
D03*
X454488Y530000D02*
D03*
X465512D02*
D03*
X321024Y460000D02*
D03*
X310000D02*
D03*
X351024D02*
D03*
X340000D02*
D03*
X310000Y520000D02*
D03*
X321024D02*
D03*
X331024Y500000D02*
D03*
X320000D02*
D03*
X434331Y460000D02*
D03*
X423307D02*
D03*
X505512D02*
D03*
X494488D02*
D03*
X515512Y560000D02*
D03*
X504488D02*
D03*
X585512Y460000D02*
D03*
X574488D02*
D03*
X329262Y564000D02*
D03*
X318238D02*
D03*
X404331Y460000D02*
D03*
X393307D02*
D03*
X475512D02*
D03*
X464488D02*
D03*
X485512Y560000D02*
D03*
X474488D02*
D03*
X555512Y460000D02*
D03*
X544488D02*
D03*
D19*
X139655Y420700D02*
D03*
X158947D02*
D03*
X139655Y397200D02*
D03*
X158947D02*
D03*
X440355Y271100D02*
D03*
X459647D02*
D03*
X440355Y247600D02*
D03*
X459647D02*
D03*
X440355Y547600D02*
D03*
X459647D02*
D03*
X440355Y571100D02*
D03*
X459647D02*
D03*
M02*
