%FSLAX25Y25*%
%MOIN*%
G70*
G01*
G75*
G04 Layer_Physical_Order=2*
G04 Layer_Color=16711680*
%ADD10R,0.04500X0.05300*%
%ADD11R,0.05118X0.10630*%
%ADD12R,0.10630X0.05118*%
%ADD13O,0.00700X0.01400*%
%ADD14O,0.01400X0.00700*%
%ADD15R,0.01772X0.04134*%
%ADD16R,0.07000X0.03000*%
%ADD17C,0.04921*%
%ADD18R,0.03000X0.04100*%
%ADD19R,0.04100X0.03000*%
%ADD20R,0.06890X0.10433*%
%ADD21R,0.10433X0.06890*%
%ADD22R,0.06299X0.03150*%
%ADD23R,0.03000X0.07000*%
G04:AMPARAMS|DCode=24|XSize=43.31mil|YSize=39.37mil|CornerRadius=0mil|HoleSize=0mil|Usage=FLASHONLY|Rotation=0.000|XOffset=0mil|YOffset=0mil|HoleType=Round|Shape=RoundedRectangle|*
%AMROUNDEDRECTD24*
21,1,0.04331,0.03937,0,0,0.0*
21,1,0.04331,0.03937,0,0,0.0*
1,1,0.00000,0.02165,-0.01969*
1,1,0.00000,-0.02165,-0.01969*
1,1,0.00000,-0.02165,0.01969*
1,1,0.00000,0.02165,0.01969*
%
%ADD24ROUNDEDRECTD24*%
G04:AMPARAMS|DCode=25|XSize=118.11mil|YSize=61.02mil|CornerRadius=0mil|HoleSize=0mil|Usage=FLASHONLY|Rotation=90.000|XOffset=0mil|YOffset=0mil|HoleType=Round|Shape=RoundedRectangle|*
%AMROUNDEDRECTD25*
21,1,0.11811,0.06102,0,0,90.0*
21,1,0.11811,0.06102,0,0,90.0*
1,1,0.00000,0.03051,0.05906*
1,1,0.00000,0.03051,-0.05906*
1,1,0.00000,-0.03051,-0.05906*
1,1,0.00000,-0.03051,0.05906*
%
%ADD25ROUNDEDRECTD25*%
%ADD26R,0.09000X0.05000*%
%ADD27R,0.10000X0.15000*%
%ADD28R,0.10236X0.13976*%
%ADD29R,0.13976X0.10236*%
%ADD30R,0.07795X0.02087*%
G04:AMPARAMS|DCode=31|XSize=20.87mil|YSize=77.95mil|CornerRadius=0mil|HoleSize=0mil|Usage=FLASHONLY|Rotation=270.000|XOffset=0mil|YOffset=0mil|HoleType=Round|Shape=Octagon|*
%AMOCTAGOND31*
4,1,8,0.03898,0.00522,0.03898,-0.00522,0.03376,-0.01043,-0.03376,-0.01043,-0.03898,-0.00522,-0.03898,0.00522,-0.03376,0.01043,0.03376,0.01043,0.03898,0.00522,0.0*
%
%ADD31OCTAGOND31*%

%ADD32R,0.07874X0.21260*%
%ADD33R,0.10300X0.06200*%
%ADD34R,0.22000X0.21400*%
%ADD35R,0.10400X0.06200*%
%ADD36R,0.21260X0.07874*%
%ADD37R,0.06200X0.10300*%
%ADD38R,0.21400X0.22000*%
%ADD39R,0.06200X0.10400*%
%ADD40R,0.19685X0.02992*%
%ADD41R,0.17716X0.34646*%
%ADD42R,0.03150X0.06299*%
%ADD43R,0.05500X0.04500*%
%ADD44C,0.05000*%
%ADD45R,0.07800X0.07000*%
%ADD46R,0.07800X0.07000*%
%ADD47R,0.05906X0.05906*%
%ADD48R,0.05906X0.05906*%
G04:AMPARAMS|DCode=49|XSize=43.31mil|YSize=39.37mil|CornerRadius=0mil|HoleSize=0mil|Usage=FLASHONLY|Rotation=90.000|XOffset=0mil|YOffset=0mil|HoleType=Round|Shape=RoundedRectangle|*
%AMROUNDEDRECTD49*
21,1,0.04331,0.03937,0,0,90.0*
21,1,0.04331,0.03937,0,0,90.0*
1,1,0.00000,0.01969,0.02165*
1,1,0.00000,0.01969,-0.02165*
1,1,0.00000,-0.01969,-0.02165*
1,1,0.00000,-0.01969,0.02165*
%
%ADD49ROUNDEDRECTD49*%
%ADD50C,0.03500*%
%ADD51C,0.00787*%
%ADD52C,0.01000*%
%ADD53R,0.19000X0.12392*%
%ADD54R,0.22666X0.07400*%
%ADD55R,0.29000X0.26000*%
%ADD56R,0.48000X0.07000*%
%ADD57R,0.11000X0.11000*%
%ADD58R,0.24969X0.14000*%
%ADD59R,0.38642X0.24252*%
%ADD60C,0.15748*%
%ADD61C,0.11811*%
%ADD62C,0.09449*%
%ADD63C,0.33000*%
%ADD64C,0.05700*%
%ADD65R,0.07500X0.07500*%
%ADD66C,0.07500*%
%ADD67C,0.07874*%
%ADD68C,0.07677*%
G36*
X-69670Y115911D02*
X-70820Y114762D01*
X-114514D01*
X-115043Y115345D01*
X-115008Y115700D01*
X-115043Y116055D01*
X-114514Y116638D01*
X-69972D01*
X-69670Y115911D01*
D02*
G37*
G36*
X208502Y219917D02*
X208494Y219891D01*
X208308Y218000D01*
X208494Y216109D01*
X209045Y214291D01*
X209941Y212615D01*
X211146Y211146D01*
X212615Y209941D01*
X214291Y209045D01*
X214639Y208940D01*
Y153072D01*
X214615Y153059D01*
X213146Y151854D01*
X211941Y150385D01*
X211045Y148709D01*
X210494Y146891D01*
X210308Y145000D01*
X210494Y143109D01*
X211045Y141291D01*
X211941Y139615D01*
X213146Y138146D01*
X214615Y136941D01*
X216291Y136045D01*
X218109Y135494D01*
X220000Y135308D01*
X221891Y135494D01*
X223709Y136045D01*
X225385Y136941D01*
X226853Y138146D01*
X227667Y139138D01*
X228699Y139219D01*
X233639Y134280D01*
Y96220D01*
X225780Y88361D01*
X190971D01*
X190670Y89088D01*
X194708Y93127D01*
X195560Y94237D01*
X196096Y95530D01*
X196278Y96917D01*
Y115011D01*
X196302Y115024D01*
X197771Y116229D01*
X198976Y117698D01*
X199872Y119374D01*
X200424Y121192D01*
X200610Y123083D01*
X200433Y124872D01*
X200804Y125202D01*
X201062Y125356D01*
X215639Y110780D01*
Y108072D01*
X215615Y108059D01*
X214146Y106853D01*
X212941Y105385D01*
X212045Y103709D01*
X211494Y101891D01*
X211308Y100000D01*
X211494Y98109D01*
X212045Y96291D01*
X212941Y94615D01*
X214146Y93147D01*
X215615Y91941D01*
X217291Y91045D01*
X219109Y90494D01*
X221000Y90308D01*
X222891Y90494D01*
X224709Y91045D01*
X226385Y91941D01*
X227853Y93147D01*
X229059Y94615D01*
X229955Y96291D01*
X230506Y98109D01*
X230692Y100000D01*
X230506Y101891D01*
X229955Y103709D01*
X229059Y105385D01*
X227853Y106853D01*
X226385Y108059D01*
X226361Y108072D01*
Y113000D01*
X226178Y114388D01*
X225643Y115680D01*
X224791Y116791D01*
X184498Y157083D01*
X184506Y157109D01*
X184692Y159000D01*
X184506Y160891D01*
X183955Y162709D01*
X183059Y164385D01*
X181853Y165854D01*
X180385Y167059D01*
X178709Y167955D01*
X176891Y168506D01*
X175000Y168692D01*
X173109Y168506D01*
X171291Y167955D01*
X170148Y167344D01*
X169361Y167816D01*
Y227928D01*
X169385Y227941D01*
X170853Y229147D01*
X172059Y230615D01*
X172955Y232291D01*
X173506Y234109D01*
X173692Y236000D01*
X173506Y237891D01*
X172955Y239709D01*
X172059Y241385D01*
X170853Y242853D01*
X169385Y244059D01*
X167709Y244955D01*
X165891Y245506D01*
X164000Y245692D01*
X162109Y245506D01*
X160291Y244955D01*
X158615Y244059D01*
X157147Y242853D01*
X155941Y241385D01*
X155045Y239709D01*
X154494Y237891D01*
X154308Y236000D01*
X154494Y234109D01*
X155045Y232291D01*
X155941Y230615D01*
X157147Y229147D01*
X158615Y227941D01*
X158639Y227928D01*
Y115000D01*
X158822Y113612D01*
X159357Y112320D01*
X160209Y111209D01*
X169902Y101517D01*
X169894Y101491D01*
X169708Y99600D01*
X169894Y97709D01*
X170445Y95891D01*
X171341Y94215D01*
X172547Y92747D01*
X174015Y91541D01*
X174809Y91117D01*
X174612Y90329D01*
X146185D01*
X144797Y90147D01*
X143504Y89611D01*
X142394Y88759D01*
X137583Y83948D01*
X136989Y84468D01*
X137643Y85320D01*
X138178Y86612D01*
X138361Y88000D01*
Y103928D01*
X138385Y103941D01*
X139854Y105147D01*
X141059Y106615D01*
X141955Y108291D01*
X142506Y110109D01*
X142692Y112000D01*
X142506Y113891D01*
X141955Y115709D01*
X141059Y117385D01*
X139854Y118853D01*
X138385Y120059D01*
X136709Y120955D01*
X134891Y121506D01*
X133000Y121692D01*
X131109Y121506D01*
X129291Y120955D01*
X127615Y120059D01*
X127573Y120024D01*
X126861Y120361D01*
Y156746D01*
X126887Y156825D01*
X127579Y157448D01*
X129000Y157308D01*
X130891Y157494D01*
X132709Y158045D01*
X134385Y158941D01*
X135854Y160146D01*
X137059Y161615D01*
X137955Y163291D01*
X138506Y165109D01*
X138692Y167000D01*
X138506Y168891D01*
X137955Y170709D01*
X137059Y172385D01*
X135854Y173854D01*
X134385Y175059D01*
X132709Y175955D01*
X130891Y176506D01*
X129000Y176692D01*
X127109Y176506D01*
X125291Y175955D01*
X125036Y175819D01*
X124361Y176223D01*
Y217779D01*
X133840Y227258D01*
X133866Y227251D01*
X135757Y227064D01*
X137648Y227251D01*
X139466Y227802D01*
X141141Y228698D01*
X142610Y229903D01*
X143816Y231372D01*
X144711Y233048D01*
X145263Y234866D01*
X145449Y236757D01*
X145263Y238648D01*
X144711Y240466D01*
X143816Y242142D01*
X142610Y243610D01*
X141141Y244816D01*
X139466Y245711D01*
X139003Y245852D01*
X139120Y246639D01*
X181780D01*
X208502Y219917D01*
D02*
G37*
G36*
X104209Y78209D02*
X105320Y77357D01*
X106613Y76822D01*
X108000Y76639D01*
X127000D01*
X128387Y76822D01*
X129680Y77357D01*
X130532Y78011D01*
X131052Y77417D01*
X126241Y72606D01*
X125389Y71496D01*
X124853Y70203D01*
X124671Y68815D01*
Y49463D01*
X123943Y49162D01*
X88361Y84744D01*
Y89883D01*
X88944Y90412D01*
X90000Y90308D01*
X91891Y90494D01*
X91917Y90502D01*
X104209Y78209D01*
D02*
G37*
G36*
X76983Y-159564D02*
X76941Y-159615D01*
X76045Y-161291D01*
X75494Y-163109D01*
X75308Y-165000D01*
X75494Y-166891D01*
X76045Y-168709D01*
X76941Y-170385D01*
X78146Y-171853D01*
X79615Y-173059D01*
X81291Y-173955D01*
X83109Y-174506D01*
X85000Y-174692D01*
X86095Y-174584D01*
X86679Y-175113D01*
Y-177687D01*
X86095Y-178216D01*
X85000Y-178108D01*
X83109Y-178294D01*
X81291Y-178845D01*
X79615Y-179741D01*
X78146Y-180947D01*
X76941Y-182415D01*
X76045Y-184091D01*
X75494Y-185909D01*
X75308Y-187800D01*
X75494Y-189691D01*
X75502Y-189717D01*
X70579Y-194639D01*
X38331D01*
X37926Y-193964D01*
X38224Y-193406D01*
X38730Y-191736D01*
X38901Y-190000D01*
X38783Y-188799D01*
X50791Y-176791D01*
X51643Y-175680D01*
X52021Y-174766D01*
X52178Y-174388D01*
X52361Y-173000D01*
Y-156072D01*
X52385Y-156059D01*
X53854Y-154853D01*
X55059Y-153385D01*
X55955Y-151709D01*
X56506Y-149891D01*
X56692Y-148000D01*
X56510Y-146148D01*
X56520Y-145927D01*
X56940Y-145361D01*
X62779D01*
X76983Y-159564D01*
D02*
G37*
G36*
X171291Y150045D02*
X173109Y149494D01*
X175000Y149308D01*
X176891Y149494D01*
X176917Y149502D01*
X193191Y133228D01*
X193036Y132970D01*
X192706Y132599D01*
X190917Y132775D01*
X189026Y132589D01*
X187208Y132037D01*
X185532Y131142D01*
X184064Y129936D01*
X182858Y128468D01*
X181963Y126792D01*
X181411Y124974D01*
X181225Y123083D01*
X181411Y121192D01*
X181963Y119374D01*
X182858Y117698D01*
X184064Y116229D01*
X185532Y115024D01*
X185556Y115011D01*
Y107947D01*
X184845Y107610D01*
X184785Y107659D01*
X183109Y108555D01*
X181291Y109106D01*
X179400Y109292D01*
X177509Y109106D01*
X177483Y109098D01*
X169361Y117220D01*
Y150184D01*
X170148Y150656D01*
X171291Y150045D01*
D02*
G37*
G36*
X-103991Y191894D02*
X-102100Y191708D01*
X-100573Y191858D01*
X-100430Y191138D01*
X-99979Y189809D01*
X-99528Y188479D01*
X-98286Y185961D01*
X-96726Y183626D01*
X-94874Y181515D01*
X-65680Y152320D01*
X-63568Y150469D01*
X-61234Y148909D01*
X-58715Y147667D01*
X-56056Y146764D01*
X-53302Y146216D01*
X-51498Y146098D01*
X-51220Y145361D01*
X-69221Y127360D01*
X-153779D01*
X-174689Y148271D01*
X-174371Y149066D01*
X-172791Y149545D01*
X-171115Y150441D01*
X-169647Y151646D01*
X-168441Y153115D01*
X-168428Y153139D01*
X-145000D01*
X-143613Y153322D01*
X-142320Y153857D01*
X-141209Y154709D01*
X-104017Y191902D01*
X-103991Y191894D01*
D02*
G37*
G36*
X116139Y152529D02*
Y105072D01*
X116115Y105059D01*
X114646Y103853D01*
X113441Y102385D01*
X112545Y100709D01*
X111994Y98891D01*
X111808Y97000D01*
X111994Y95109D01*
X112545Y93291D01*
X113441Y91615D01*
X114646Y90146D01*
X116115Y88941D01*
X117598Y88148D01*
X117401Y87361D01*
X110221D01*
X99498Y98083D01*
X99506Y98109D01*
X99692Y100000D01*
X99506Y101891D01*
X98955Y103709D01*
X98059Y105385D01*
X96854Y106853D01*
X95385Y108059D01*
X93709Y108955D01*
X91891Y109506D01*
X90000Y109692D01*
X88944Y109588D01*
X88361Y110117D01*
Y125779D01*
X115412Y152830D01*
X116139Y152529D01*
D02*
G37*
G36*
X50941Y-36385D02*
X52147Y-37854D01*
X53010Y-38562D01*
X52774Y-39388D01*
X52506Y-39423D01*
X51113Y-40000D01*
X49917Y-40917D01*
X49000Y-42113D01*
X48423Y-43506D01*
X48325Y-44250D01*
X54000D01*
Y-45750D01*
X47918D01*
X47753Y-45938D01*
X38701D01*
X37472Y-46100D01*
X37165Y-45735D01*
X37033Y-45393D01*
X37401Y-44945D01*
X38224Y-43406D01*
X38730Y-41737D01*
X38901Y-40000D01*
X38730Y-38263D01*
X38392Y-37148D01*
X38974Y-36361D01*
X50928D01*
X50941Y-36385D01*
D02*
G37*
G36*
X300000Y123823D02*
Y-283312D01*
X299213Y-283653D01*
X299082Y-283531D01*
X298928Y-282363D01*
X298393Y-281070D01*
X297572Y-280000D01*
X298393Y-278930D01*
X298928Y-277638D01*
X299111Y-276250D01*
X298928Y-274863D01*
X298393Y-273570D01*
X297541Y-272459D01*
X296430Y-271607D01*
X295138Y-271072D01*
X293750Y-270889D01*
X292362Y-271072D01*
X291070Y-271607D01*
X290000Y-272428D01*
X288930Y-271607D01*
X287637Y-271072D01*
X286250Y-270889D01*
X284862Y-271072D01*
X283570Y-271607D01*
X282459Y-272459D01*
X281607Y-273570D01*
X281072Y-274863D01*
X280889Y-276250D01*
X281072Y-277638D01*
X281607Y-278930D01*
X282428Y-280000D01*
X281607Y-281070D01*
X281072Y-282363D01*
X280889Y-283750D01*
X280932Y-284076D01*
X280323Y-285069D01*
X279671Y-286644D01*
X279273Y-288301D01*
X279140Y-290000D01*
X279273Y-291699D01*
X279671Y-293356D01*
X280323Y-294931D01*
X281214Y-296384D01*
X282321Y-297679D01*
X283616Y-298786D01*
X284320Y-299217D01*
X284098Y-300005D01*
X-9714D01*
X-9912Y-299217D01*
X-9615Y-299059D01*
X-8146Y-297853D01*
X-6941Y-296385D01*
X-6045Y-294709D01*
X-5494Y-292891D01*
X-5395Y-291887D01*
X-4710Y-291603D01*
X-3600Y-290751D01*
X1791Y-285361D01*
X2643Y-284250D01*
X3178Y-282957D01*
X3361Y-281570D01*
Y-225361D01*
X21669D01*
X22074Y-226036D01*
X21776Y-226594D01*
X21270Y-228263D01*
X21099Y-230000D01*
X21270Y-231736D01*
X21776Y-233406D01*
X22599Y-234945D01*
X22644Y-235000D01*
X22599Y-235055D01*
X21776Y-236594D01*
X21270Y-238264D01*
X21099Y-240000D01*
X21270Y-241737D01*
X21776Y-243406D01*
X22599Y-244945D01*
X22644Y-245000D01*
X22599Y-245055D01*
X21776Y-246594D01*
X21270Y-248264D01*
X21099Y-250000D01*
X21270Y-251736D01*
X21776Y-253406D01*
X22599Y-254945D01*
X22644Y-255000D01*
X22599Y-255055D01*
X21776Y-256594D01*
X21270Y-258263D01*
X21099Y-260000D01*
X21270Y-261736D01*
X21776Y-263406D01*
X22599Y-264945D01*
X22644Y-265000D01*
X22599Y-265055D01*
X21776Y-266594D01*
X21270Y-268264D01*
X21099Y-270000D01*
X21270Y-271737D01*
X21776Y-273406D01*
X22599Y-274945D01*
X22644Y-275000D01*
X22599Y-275055D01*
X21776Y-276594D01*
X21270Y-278263D01*
X21099Y-280000D01*
X21270Y-281736D01*
X21776Y-283406D01*
X22599Y-284945D01*
X23706Y-286294D01*
X25055Y-287401D01*
X26594Y-288224D01*
X28264Y-288730D01*
X30000Y-288901D01*
X31736Y-288730D01*
X33406Y-288224D01*
X34945Y-287401D01*
X36294Y-286294D01*
X37401Y-284945D01*
X38224Y-283406D01*
X38730Y-281736D01*
X38828Y-280739D01*
X47928D01*
X47941Y-280763D01*
X49147Y-282231D01*
X50615Y-283437D01*
X52291Y-284332D01*
X54109Y-284884D01*
X56000Y-285070D01*
X57891Y-284884D01*
X59709Y-284332D01*
X61385Y-283437D01*
X62854Y-282231D01*
X64059Y-280763D01*
X64955Y-279087D01*
X65506Y-277269D01*
X65692Y-275378D01*
X65506Y-273487D01*
X64955Y-271669D01*
X64096Y-270063D01*
X64955Y-268457D01*
X65506Y-266639D01*
X65692Y-264748D01*
X65506Y-262857D01*
X64955Y-261039D01*
X64059Y-259363D01*
X62854Y-257894D01*
X61385Y-256689D01*
X59709Y-255793D01*
X57891Y-255242D01*
X56000Y-255056D01*
X54109Y-255242D01*
X52291Y-255793D01*
X50615Y-256689D01*
X49147Y-257894D01*
X47941Y-259363D01*
X47045Y-261039D01*
X46494Y-262857D01*
X46318Y-264639D01*
X38331D01*
X37926Y-263964D01*
X38224Y-263406D01*
X38730Y-261736D01*
X38901Y-260000D01*
X38783Y-258799D01*
X44315Y-253266D01*
X88446D01*
X89834Y-253084D01*
X91127Y-252548D01*
X92237Y-251696D01*
X245696Y-98237D01*
X246548Y-97127D01*
X247084Y-95834D01*
X247266Y-94446D01*
Y-60336D01*
X247084Y-58949D01*
X246548Y-57656D01*
X245696Y-56545D01*
X220683Y-31532D01*
X219573Y-30680D01*
X218280Y-30145D01*
X216892Y-29962D01*
X208635D01*
X167761Y10912D01*
X168063Y11639D01*
X195928D01*
X195941Y11615D01*
X197146Y10147D01*
X198615Y8941D01*
X200291Y8045D01*
X202109Y7494D01*
X204000Y7308D01*
X205891Y7494D01*
X207709Y8045D01*
X209385Y8941D01*
X210854Y10147D01*
X212059Y11615D01*
X212955Y13291D01*
X213506Y15109D01*
X213692Y17000D01*
X213506Y18891D01*
X212955Y20709D01*
X212059Y22385D01*
X210854Y23854D01*
X209385Y25059D01*
X209361Y25072D01*
Y32779D01*
X232319Y55738D01*
X233210Y55515D01*
X233581Y54291D01*
X234476Y52615D01*
X235682Y51146D01*
X237151Y49941D01*
X238826Y49045D01*
X240645Y48494D01*
X242535Y48308D01*
X244426Y48494D01*
X244452Y48502D01*
X250639Y42315D01*
Y7072D01*
X250615Y7059D01*
X249147Y5853D01*
X247941Y4385D01*
X247045Y2709D01*
X246494Y891D01*
X246308Y-1000D01*
X246494Y-2891D01*
X247045Y-4709D01*
X247941Y-6385D01*
X249147Y-7853D01*
X250615Y-9059D01*
X252291Y-9955D01*
X254109Y-10506D01*
X256000Y-10692D01*
X257891Y-10506D01*
X259709Y-9955D01*
X261385Y-9059D01*
X262854Y-7853D01*
X264059Y-6385D01*
X264955Y-4709D01*
X265506Y-2891D01*
X265692Y-1000D01*
X265506Y891D01*
X264955Y2709D01*
X264059Y4385D01*
X262854Y5853D01*
X261385Y7059D01*
X261361Y7072D01*
Y44535D01*
X261178Y45923D01*
X260643Y47216D01*
X259791Y48326D01*
X252034Y56083D01*
X252042Y56109D01*
X252228Y58000D01*
X252042Y59891D01*
X251490Y61709D01*
X250594Y63385D01*
X249389Y64854D01*
X247920Y66059D01*
X246245Y66955D01*
X245021Y67326D01*
X244798Y68216D01*
X297791Y121209D01*
X298643Y122320D01*
X299178Y123612D01*
X299213Y123874D01*
X300000Y123823D01*
D02*
G37*
G36*
X271977Y289852D02*
X270991Y289009D01*
X269692Y287489D01*
X268648Y285784D01*
X267883Y283937D01*
X267416Y281993D01*
X267259Y280000D01*
X267416Y278007D01*
X267883Y276063D01*
X268648Y274216D01*
X269692Y272511D01*
X270991Y270991D01*
X272511Y269692D01*
X274216Y268648D01*
X276063Y267883D01*
X278007Y267416D01*
X280000Y267259D01*
X281993Y267416D01*
X283937Y267883D01*
X285784Y268648D01*
X287489Y269692D01*
X287924Y270064D01*
X288639Y269734D01*
Y127220D01*
X203597Y42178D01*
X202627Y42322D01*
X202059Y43385D01*
X200853Y44854D01*
X199385Y46059D01*
X197709Y46955D01*
X195891Y47506D01*
X194000Y47692D01*
X192109Y47506D01*
X192083Y47498D01*
X186116Y53466D01*
X187059Y54615D01*
X187955Y56291D01*
X188506Y58109D01*
X188692Y60000D01*
X188506Y61891D01*
X187955Y63709D01*
X187059Y65385D01*
X185854Y66853D01*
X184385Y68059D01*
X182709Y68955D01*
X180891Y69506D01*
X179000Y69692D01*
X177109Y69506D01*
X175291Y68955D01*
X173615Y68059D01*
X172146Y66853D01*
X170941Y65385D01*
X170045Y63709D01*
X169494Y61891D01*
X169308Y60000D01*
X169494Y58109D01*
X170045Y56291D01*
X170941Y54615D01*
X172146Y53146D01*
X173615Y51941D01*
X173791Y51847D01*
X173822Y51613D01*
X174357Y50320D01*
X175209Y49209D01*
X184502Y39917D01*
X184494Y39891D01*
X184308Y38000D01*
X184494Y36109D01*
X185045Y34291D01*
X185941Y32615D01*
X187146Y31146D01*
X188615Y29941D01*
X190291Y29045D01*
X192109Y28494D01*
X194000Y28308D01*
X195891Y28494D01*
X197709Y29045D01*
X197964Y29182D01*
X198639Y28777D01*
Y25072D01*
X198615Y25059D01*
X197146Y23854D01*
X195941Y22385D01*
X195928Y22361D01*
X165220D01*
X157498Y30083D01*
X157506Y30109D01*
X157692Y32000D01*
X157506Y33891D01*
X156955Y35709D01*
X156059Y37385D01*
X154853Y38854D01*
X153385Y40059D01*
X151709Y40955D01*
X149891Y41506D01*
X148000Y41692D01*
X146109Y41506D01*
X144291Y40955D01*
X142615Y40059D01*
X141147Y38854D01*
X140920Y38578D01*
X140134Y38539D01*
X137361Y41312D01*
Y65780D01*
X149221Y77639D01*
X228000D01*
X229387Y77822D01*
X230680Y78357D01*
X231791Y79209D01*
X242791Y90209D01*
X243643Y91320D01*
X244178Y92612D01*
X244361Y94000D01*
Y136500D01*
X244178Y137888D01*
X244021Y138266D01*
X243643Y139180D01*
X242791Y140291D01*
X235400Y147681D01*
Y149158D01*
X235218Y150546D01*
X234682Y151839D01*
X234361Y152257D01*
Y249928D01*
X234385Y249941D01*
X235854Y251147D01*
X237059Y252615D01*
X237955Y254291D01*
X238506Y256109D01*
X238692Y258000D01*
X238506Y259891D01*
X237955Y261709D01*
X237059Y263385D01*
X235854Y264854D01*
X234385Y266059D01*
X232709Y266955D01*
X230891Y267506D01*
X229000Y267692D01*
X228185Y267612D01*
X227509Y268337D01*
X227373Y269717D01*
X226872Y271369D01*
X226059Y272890D01*
X224964Y274224D01*
X223630Y275319D01*
X222109Y276132D01*
X220457Y276633D01*
X218740Y276802D01*
X217023Y276633D01*
X215372Y276132D01*
X213850Y275319D01*
X212516Y274224D01*
X211421Y272890D01*
X210608Y271369D01*
X210107Y269717D01*
X209938Y268000D01*
X210107Y266283D01*
X210608Y264632D01*
X211421Y263110D01*
X212516Y261776D01*
X213850Y260681D01*
X215372Y259868D01*
X217023Y259367D01*
X218635Y259208D01*
X218948Y259072D01*
X219372Y258648D01*
X219308Y258000D01*
X219494Y256109D01*
X220045Y254291D01*
X220941Y252615D01*
X222147Y251147D01*
X223615Y249941D01*
X223639Y249928D01*
Y226816D01*
X222852Y226344D01*
X221709Y226955D01*
X219891Y227506D01*
X218000Y227692D01*
X216109Y227506D01*
X216083Y227498D01*
X187791Y255791D01*
X186680Y256643D01*
X185388Y257178D01*
X184000Y257361D01*
X127971D01*
X127670Y258088D01*
X135791Y266209D01*
X136643Y267320D01*
X137178Y268613D01*
X137361Y270000D01*
Y279000D01*
X137178Y280387D01*
X137021Y280766D01*
X136643Y281680D01*
X135791Y282791D01*
X128791Y289791D01*
X128657Y289894D01*
X128910Y290639D01*
X271687D01*
X271977Y289852D01*
D02*
G37*
G36*
X73209Y-124791D02*
X74320Y-125643D01*
X75612Y-126178D01*
X76923Y-126351D01*
X76941Y-126385D01*
X78146Y-127854D01*
X79615Y-129059D01*
X81291Y-129955D01*
X83109Y-130506D01*
X85000Y-130692D01*
X86095Y-130585D01*
X86679Y-131113D01*
Y-132887D01*
X86095Y-133415D01*
X85000Y-133308D01*
X83109Y-133494D01*
X81291Y-134045D01*
X80858Y-134277D01*
X72791Y-126209D01*
X71680Y-125357D01*
X70388Y-124822D01*
X69000Y-124639D01*
X38331D01*
X37926Y-123964D01*
X38224Y-123406D01*
X38730Y-121737D01*
X38901Y-120000D01*
X38730Y-118263D01*
X38224Y-116594D01*
X37401Y-115055D01*
X37356Y-115000D01*
X37401Y-114945D01*
X38224Y-113406D01*
X38730Y-111737D01*
X38901Y-110000D01*
X38730Y-108264D01*
X38224Y-106594D01*
X37401Y-105055D01*
X37356Y-105000D01*
X37401Y-104945D01*
X38224Y-103406D01*
X38730Y-101736D01*
X38901Y-100000D01*
X38730Y-98264D01*
X38224Y-96594D01*
X37926Y-96036D01*
X38331Y-95361D01*
X43780D01*
X73209Y-124791D01*
D02*
G37*
G36*
X197209Y-68791D02*
X198320Y-69643D01*
X199612Y-70178D01*
X201000Y-70361D01*
X213928D01*
X213941Y-70385D01*
X215146Y-71854D01*
X216615Y-73059D01*
X218291Y-73955D01*
X220109Y-74506D01*
X222000Y-74692D01*
X223891Y-74506D01*
X225709Y-73955D01*
X227385Y-73059D01*
X228854Y-71854D01*
X229852Y-70637D01*
X230639Y-70919D01*
Y-89779D01*
X123746Y-196673D01*
X122982Y-196481D01*
X122955Y-196391D01*
X122059Y-194715D01*
X120854Y-193246D01*
X119385Y-192041D01*
X117709Y-191145D01*
X115891Y-190594D01*
X114000Y-190408D01*
X112109Y-190594D01*
X110291Y-191145D01*
X108615Y-192041D01*
X107147Y-193246D01*
X105941Y-194715D01*
X105928Y-194739D01*
X104021D01*
Y-191429D01*
X104021D01*
X103550Y-190641D01*
X103896Y-189500D01*
X104063Y-187800D01*
X103941Y-186560D01*
X104021Y-186471D01*
X104021D01*
Y-183161D01*
X105928D01*
X105941Y-183185D01*
X107147Y-184653D01*
X108615Y-185859D01*
X110291Y-186755D01*
X112109Y-187306D01*
X114000Y-187492D01*
X115891Y-187306D01*
X117709Y-186755D01*
X119385Y-185859D01*
X120854Y-184653D01*
X122059Y-183185D01*
X122955Y-181509D01*
X123506Y-179691D01*
X123692Y-177800D01*
X123506Y-175909D01*
X122955Y-174091D01*
X122059Y-172415D01*
X120854Y-170947D01*
X119385Y-169741D01*
X117709Y-168845D01*
X115891Y-168294D01*
X114000Y-168108D01*
X112109Y-168294D01*
X110291Y-168845D01*
X108615Y-169741D01*
X107147Y-170947D01*
X105941Y-172415D01*
X105928Y-172439D01*
X104021D01*
Y-169129D01*
X104021D01*
X103550Y-168341D01*
X103896Y-167200D01*
X104063Y-165500D01*
X103941Y-164260D01*
X104021Y-164171D01*
X104021D01*
Y-160861D01*
X105928D01*
X105941Y-160885D01*
X107147Y-162354D01*
X108615Y-163559D01*
X110291Y-164455D01*
X112109Y-165006D01*
X114000Y-165192D01*
X115891Y-165006D01*
X117709Y-164455D01*
X119385Y-163559D01*
X120854Y-162354D01*
X122059Y-160885D01*
X122955Y-159209D01*
X123506Y-157391D01*
X123692Y-155500D01*
X123506Y-153609D01*
X122955Y-151791D01*
X122059Y-150115D01*
X120854Y-148646D01*
X119385Y-147441D01*
X117709Y-146545D01*
X115891Y-145994D01*
X114000Y-145808D01*
X112109Y-145994D01*
X110291Y-146545D01*
X108615Y-147441D01*
X107147Y-148646D01*
X105941Y-150115D01*
X105928Y-150139D01*
X104021D01*
Y-146829D01*
X104021D01*
X103550Y-146041D01*
X103896Y-144900D01*
X104063Y-143200D01*
X103941Y-141960D01*
X104021Y-141871D01*
X104021D01*
Y-138561D01*
X105928D01*
X105941Y-138585D01*
X107147Y-140053D01*
X108615Y-141259D01*
X110291Y-142155D01*
X112109Y-142706D01*
X114000Y-142892D01*
X115891Y-142706D01*
X117709Y-142155D01*
X119385Y-141259D01*
X120854Y-140053D01*
X122059Y-138585D01*
X122955Y-136909D01*
X123506Y-135091D01*
X123692Y-133200D01*
X123506Y-131309D01*
X122955Y-129491D01*
X122059Y-127815D01*
X120854Y-126347D01*
X119385Y-125141D01*
X117709Y-124245D01*
X115891Y-123694D01*
X114000Y-123508D01*
X112109Y-123694D01*
X110291Y-124245D01*
X108615Y-125141D01*
X107147Y-126347D01*
X105941Y-127815D01*
X105928Y-127839D01*
X104021D01*
Y-124529D01*
X104021D01*
X103550Y-123741D01*
X103896Y-122600D01*
X104063Y-120900D01*
X103941Y-119660D01*
X104021Y-119571D01*
X104021D01*
Y-116261D01*
X105928D01*
X105941Y-116285D01*
X107147Y-117754D01*
X108615Y-118959D01*
X110291Y-119855D01*
X112109Y-120406D01*
X114000Y-120592D01*
X115891Y-120406D01*
X117709Y-119855D01*
X119385Y-118959D01*
X120854Y-117754D01*
X122059Y-116285D01*
X122955Y-114609D01*
X123506Y-112791D01*
X123692Y-110900D01*
X123506Y-109009D01*
X122955Y-107191D01*
X122059Y-105515D01*
X120854Y-104046D01*
X119385Y-102841D01*
X117709Y-101945D01*
X115891Y-101394D01*
X114000Y-101208D01*
X112109Y-101394D01*
X110291Y-101945D01*
X108615Y-102841D01*
X107147Y-104046D01*
X105941Y-105515D01*
X105928Y-105539D01*
X104021D01*
Y-102229D01*
X86679D01*
Y-110887D01*
X86095Y-111416D01*
X85000Y-111308D01*
X83109Y-111494D01*
X81291Y-112045D01*
X79615Y-112941D01*
X78146Y-114146D01*
X77747Y-114166D01*
X54439Y-90857D01*
X54913Y-90218D01*
X56291Y-90955D01*
X58109Y-91506D01*
X60000Y-91692D01*
X61891Y-91506D01*
X63709Y-90955D01*
X65385Y-90059D01*
X66853Y-88854D01*
X68059Y-87385D01*
X68955Y-85709D01*
X69506Y-83891D01*
X69692Y-82000D01*
X69506Y-80109D01*
X68955Y-78291D01*
X68059Y-76615D01*
X67964Y-76500D01*
X68059Y-76385D01*
X68955Y-74709D01*
X69506Y-72891D01*
X69692Y-71000D01*
X69506Y-69109D01*
X68955Y-67291D01*
X68059Y-65615D01*
X67964Y-65500D01*
X68059Y-65385D01*
X68955Y-63709D01*
X69506Y-61891D01*
X69692Y-60000D01*
X69506Y-58109D01*
X68955Y-56291D01*
X68818Y-56036D01*
X69223Y-55361D01*
X85182D01*
X85839Y-56161D01*
X87159Y-57245D01*
X87848Y-57613D01*
X87372Y-58760D01*
X87308Y-59250D01*
X92000D01*
Y-60750D01*
X87308D01*
X87372Y-61240D01*
X87848Y-62387D01*
X87159Y-62755D01*
X85839Y-63839D01*
X84755Y-65159D01*
X83950Y-66666D01*
X83454Y-68300D01*
X83287Y-70000D01*
X83454Y-71700D01*
X83950Y-73334D01*
X84755Y-74841D01*
X84886Y-75000D01*
X84755Y-75159D01*
X83950Y-76666D01*
X83454Y-78300D01*
X83287Y-80000D01*
X83454Y-81700D01*
X83950Y-83334D01*
X84755Y-84841D01*
X85839Y-86161D01*
X87159Y-87245D01*
X88666Y-88050D01*
X90300Y-88546D01*
X92000Y-88713D01*
X93700Y-88546D01*
X95334Y-88050D01*
X96841Y-87245D01*
X97074Y-87054D01*
X97846Y-87207D01*
X97941Y-87385D01*
X99146Y-88854D01*
X100615Y-90059D01*
X102291Y-90955D01*
X104109Y-91506D01*
X106000Y-91692D01*
X107891Y-91506D01*
X109709Y-90955D01*
X111385Y-90059D01*
X112854Y-88854D01*
X114059Y-87385D01*
X114955Y-85709D01*
X115506Y-83891D01*
X115692Y-82000D01*
X115506Y-80109D01*
X114955Y-78291D01*
X114059Y-76615D01*
X112854Y-75147D01*
X111385Y-73941D01*
X109709Y-73045D01*
X108693Y-72737D01*
Y-71914D01*
X110209Y-71455D01*
X111885Y-70559D01*
X113354Y-69353D01*
X114559Y-67885D01*
X115455Y-66209D01*
X116006Y-64391D01*
X116192Y-62500D01*
X116006Y-60609D01*
X115455Y-58791D01*
X114559Y-57115D01*
X113354Y-55647D01*
X111885Y-54441D01*
X111020Y-53979D01*
X111000Y-53887D01*
X111577Y-52494D01*
X111675Y-51750D01*
X106000D01*
Y-51000D01*
X105250D01*
Y-45325D01*
X104506Y-45423D01*
X103113Y-46000D01*
X101917Y-46917D01*
X101459Y-47515D01*
X100671Y-47248D01*
Y-31329D01*
X93481D01*
X93455Y-31058D01*
X92903Y-29239D01*
X92007Y-27564D01*
X90802Y-26095D01*
X89333Y-24890D01*
X87657Y-23994D01*
X85839Y-23442D01*
X83948Y-23256D01*
X82057Y-23442D01*
X80239Y-23994D01*
X78564Y-24890D01*
X77095Y-26095D01*
X75889Y-27564D01*
X74994Y-29239D01*
X74442Y-31058D01*
X74256Y-32948D01*
X74442Y-34839D01*
X74994Y-36658D01*
X75889Y-38333D01*
X77095Y-39802D01*
X78564Y-41007D01*
X80239Y-41903D01*
X82057Y-42455D01*
X83329Y-42580D01*
Y-44639D01*
X59726D01*
X59577Y-43506D01*
X59000Y-42113D01*
X58478Y-41432D01*
X58895Y-40682D01*
X59000Y-40692D01*
X60891Y-40506D01*
X62709Y-39955D01*
X64385Y-39059D01*
X65854Y-37854D01*
X67059Y-36385D01*
X67955Y-34709D01*
X68506Y-32891D01*
X68692Y-31000D01*
X68506Y-29109D01*
X67955Y-27291D01*
X67059Y-25615D01*
X65854Y-24146D01*
X64385Y-22941D01*
X62709Y-22045D01*
X60891Y-21494D01*
X59000Y-21308D01*
X57109Y-21494D01*
X55291Y-22045D01*
X53615Y-22941D01*
X52147Y-24146D01*
X50941Y-25615D01*
X50928Y-25639D01*
X37713D01*
X37401Y-25055D01*
X37356Y-25000D01*
X37401Y-24945D01*
X38224Y-23406D01*
X38730Y-21736D01*
X38901Y-20000D01*
X38730Y-18263D01*
X38224Y-16594D01*
X37926Y-16036D01*
X38331Y-15361D01*
X143780D01*
X197209Y-68791D01*
D02*
G37*
G36*
X22074Y-66036D02*
X21776Y-66594D01*
X21270Y-68264D01*
X21099Y-70000D01*
X21270Y-71737D01*
X21776Y-73406D01*
X22599Y-74945D01*
X22644Y-75000D01*
X22599Y-75055D01*
X21776Y-76594D01*
X21270Y-78263D01*
X21099Y-80000D01*
X21270Y-81736D01*
X21776Y-83406D01*
X22599Y-84945D01*
X22644Y-85000D01*
X22599Y-85055D01*
X21776Y-86594D01*
X21270Y-88263D01*
X21242Y-88542D01*
X20411Y-88955D01*
X18891Y-88494D01*
X17000Y-88308D01*
X15148Y-88490D01*
X14927Y-88480D01*
X14361Y-88060D01*
Y-65361D01*
X21669D01*
X22074Y-66036D01*
D02*
G37*
G36*
X-11018Y217999D02*
X-10735D01*
X-10703Y217991D01*
X-10513Y217835D01*
X-10446Y217794D01*
X-10080Y217494D01*
X-10010Y217424D01*
X-10000Y217325D01*
Y187976D01*
X-10001Y187972D01*
Y187651D01*
X-10005Y187645D01*
X-10422Y187225D01*
X-10667Y187037D01*
X-10673Y187032D01*
X-10679Y187028D01*
X-10716Y187000D01*
X-29394D01*
Y193800D01*
X-29517Y194414D01*
X-29865Y194935D01*
X-29865Y194935D01*
X-33445Y198516D01*
X-33118Y199129D01*
X-32780Y200242D01*
X-32666Y201400D01*
X-32780Y202558D01*
X-33118Y203671D01*
X-33666Y204697D01*
X-34404Y205596D01*
X-35303Y206334D01*
X-36329Y206882D01*
X-37442Y207220D01*
X-38274Y207302D01*
X-38346Y207342D01*
X-38646Y207678D01*
X-38715Y207811D01*
X-38786Y208107D01*
X-38757Y208167D01*
X-38744Y208233D01*
X-38716Y208295D01*
X-38664Y208612D01*
X-38570Y208918D01*
X-38561Y209181D01*
X-38511Y209439D01*
X-38516Y209507D01*
X-38505Y209574D01*
X-38536Y209893D01*
X-38525Y210213D01*
X-38584Y210469D01*
X-38603Y210732D01*
X-38625Y210796D01*
X-38632Y210863D01*
X-38744Y211162D01*
X-38744Y211163D01*
X-38745Y211164D01*
X-38745Y211166D01*
X-38745Y211166D01*
X-38746Y211171D01*
X-38746Y211171D01*
X-38817Y211476D01*
X-38898Y211692D01*
X-38907Y211710D01*
X-38912Y211730D01*
X-38929Y211776D01*
X-38930Y211780D01*
X-38930Y211782D01*
X-38931Y211782D01*
X-38931Y211784D01*
X-38932Y211785D01*
X-38959Y211836D01*
X-38969Y211880D01*
X-38969Y211934D01*
X-38971Y211947D01*
X-39000Y212056D01*
Y218000D01*
X-11023D01*
X-11018Y217999D01*
D02*
G37*
G36*
X-44241Y211651D02*
X-43892Y211300D01*
X-43890Y211287D01*
X-43837Y211087D01*
X-43805Y210759D01*
X-43799Y210732D01*
X-43795Y210723D01*
X-43795Y210715D01*
X-43772Y210655D01*
X-43764Y210593D01*
X-43760Y210583D01*
X-43757Y210564D01*
X-43754Y210554D01*
X-43631Y210256D01*
X-43585Y210056D01*
X-43584Y210055D01*
X-43582Y210051D01*
X-43581Y210046D01*
X-43580Y210045D01*
X-43579Y210040D01*
X-43561Y209990D01*
X-43560Y209982D01*
X-43560Y209982D01*
X-43547Y209952D01*
X-43466Y209736D01*
X-43466Y209736D01*
X-43985Y209459D01*
X-45454Y208254D01*
X-46659Y206785D01*
X-47555Y205109D01*
X-48106Y203291D01*
X-48292Y201400D01*
X-48106Y199509D01*
X-47555Y197691D01*
X-46659Y196015D01*
X-45454Y194546D01*
X-43985Y193341D01*
X-42309Y192445D01*
X-40491Y191894D01*
X-38600Y191708D01*
X-37031Y191862D01*
X-36390Y191282D01*
X-36361Y191225D01*
Y184749D01*
X-37088Y184448D01*
X-58227Y205587D01*
Y210533D01*
X-52000D01*
X-49198Y210716D01*
X-46444Y211264D01*
X-44730Y211846D01*
X-44241Y211651D01*
D02*
G37*
G36*
X-243373Y299208D02*
X-251791Y290791D01*
X-252643Y289680D01*
X-253178Y288387D01*
X-253361Y287000D01*
Y256221D01*
X-270826Y238755D01*
X-271344Y238858D01*
X-271676Y239019D01*
X-272428Y240000D01*
X-271607Y241070D01*
X-271072Y242362D01*
X-270889Y243750D01*
X-270932Y244076D01*
X-270323Y245070D01*
X-269671Y246644D01*
X-269273Y248301D01*
X-269140Y250000D01*
X-269273Y251699D01*
X-269671Y253356D01*
X-270323Y254930D01*
X-271214Y256383D01*
X-272321Y257679D01*
X-273617Y258786D01*
X-275069Y259677D01*
X-276644Y260329D01*
X-278301Y260727D01*
X-280000Y260860D01*
X-281699Y260727D01*
X-283356Y260329D01*
X-284930Y259677D01*
X-286384Y258786D01*
X-287679Y257679D01*
X-288786Y256383D01*
X-289677Y254930D01*
X-290329Y253356D01*
X-290727Y251699D01*
X-290860Y250000D01*
X-290727Y248301D01*
X-290329Y246644D01*
X-289677Y245070D01*
X-289068Y244076D01*
X-289111Y243750D01*
X-288928Y242362D01*
X-288393Y241070D01*
X-287572Y240000D01*
X-288393Y238930D01*
X-288928Y237637D01*
X-289111Y236250D01*
X-288928Y234862D01*
X-288393Y233570D01*
X-287541Y232459D01*
X-286430Y231607D01*
X-285138Y231072D01*
X-283750Y230889D01*
X-282363Y231072D01*
X-281070Y231607D01*
X-280000Y232428D01*
X-279019Y231676D01*
X-278858Y231344D01*
X-278755Y230826D01*
X-288791Y220791D01*
X-289643Y219680D01*
X-290178Y218388D01*
X-290361Y217000D01*
Y166072D01*
X-290385Y166059D01*
X-291853Y164854D01*
X-293059Y163385D01*
X-293955Y161709D01*
X-294506Y159891D01*
X-294692Y158000D01*
X-294506Y156109D01*
X-293955Y154291D01*
X-293059Y152615D01*
X-291853Y151146D01*
X-290385Y149941D01*
X-290361Y149928D01*
Y130000D01*
X-290178Y128612D01*
X-289643Y127320D01*
X-288791Y126209D01*
X-264611Y102030D01*
Y92904D01*
X-264772Y92772D01*
X-265743Y91588D01*
X-266464Y90238D01*
X-266909Y88773D01*
X-267059Y87250D01*
X-266909Y85727D01*
X-266464Y84262D01*
X-265743Y82912D01*
X-264772Y81728D01*
X-263588Y80757D01*
X-263039Y80464D01*
X-263133Y79750D01*
X-263001Y78745D01*
X-262613Y77808D01*
X-261996Y77004D01*
X-261192Y76387D01*
X-260255Y75999D01*
X-259250Y75867D01*
X-258245Y75999D01*
X-257308Y76387D01*
X-256504Y77004D01*
X-255887Y77808D01*
X-255499Y78745D01*
X-255367Y79750D01*
X-255461Y80464D01*
X-254912Y80757D01*
X-253728Y81728D01*
X-252757Y82912D01*
X-252035Y84262D01*
X-251591Y85727D01*
X-251441Y87250D01*
X-251591Y88773D01*
X-252035Y90238D01*
X-252757Y91588D01*
X-253728Y92772D01*
X-253889Y92904D01*
Y104250D01*
X-254072Y105638D01*
X-254607Y106930D01*
X-255459Y108041D01*
X-279639Y132220D01*
Y149928D01*
X-279615Y149941D01*
X-278147Y151146D01*
X-276941Y152615D01*
X-276928Y152639D01*
X-276072D01*
X-276059Y152615D01*
X-274853Y151146D01*
X-273385Y149941D01*
X-271709Y149045D01*
X-269891Y148494D01*
X-268000Y148308D01*
X-266109Y148494D01*
X-264291Y149045D01*
X-262615Y149941D01*
X-261146Y151146D01*
X-259941Y152615D01*
X-259045Y154291D01*
X-258494Y156109D01*
X-258308Y158000D01*
X-258494Y159891D01*
X-259045Y161709D01*
X-259941Y163385D01*
X-261146Y164854D01*
X-262615Y166059D01*
X-264291Y166955D01*
X-266109Y167506D01*
X-268000Y167692D01*
X-269891Y167506D01*
X-271709Y166955D01*
X-273385Y166059D01*
X-274853Y164854D01*
X-276059Y163385D01*
X-276072Y163361D01*
X-276928D01*
X-276941Y163385D01*
X-278147Y164854D01*
X-279615Y166059D01*
X-279639Y166072D01*
Y214779D01*
X-244209Y250209D01*
X-243357Y251320D01*
X-242822Y252612D01*
X-242639Y254000D01*
Y284780D01*
X-236779Y290639D01*
X88490D01*
X88743Y289894D01*
X88609Y289791D01*
X70617Y271798D01*
X70591Y271806D01*
X68700Y271992D01*
X66809Y271806D01*
X64991Y271254D01*
X63315Y270359D01*
X61847Y269153D01*
X60641Y267685D01*
X60628Y267661D01*
X-7339D01*
X-13307Y273629D01*
X-13198Y274740D01*
X-13367Y276457D01*
X-13868Y278109D01*
X-14681Y279630D01*
X-15776Y280964D01*
X-17110Y282059D01*
X-18632Y282872D01*
X-20283Y283373D01*
X-22000Y283542D01*
X-23717Y283373D01*
X-25368Y282872D01*
X-26890Y282059D01*
X-28224Y280964D01*
X-29319Y279630D01*
X-30132Y278109D01*
X-30633Y276457D01*
X-30802Y274740D01*
X-30633Y273023D01*
X-30132Y271372D01*
X-29319Y269850D01*
X-28224Y268516D01*
X-26890Y267421D01*
X-25368Y266608D01*
X-23717Y266107D01*
X-22000Y265938D01*
X-20889Y266047D01*
X-13351Y258509D01*
X-12240Y257657D01*
X-10947Y257122D01*
X-9560Y256939D01*
X60628D01*
X60641Y256915D01*
X61847Y255446D01*
X62115Y255226D01*
Y254438D01*
X61646Y254053D01*
X60441Y252585D01*
X60428Y252561D01*
X-12060D01*
X-13447Y252378D01*
X-14740Y251843D01*
X-15851Y250991D01*
X-20889Y245953D01*
X-22000Y246062D01*
X-23717Y245893D01*
X-25368Y245392D01*
X-26890Y244579D01*
X-28224Y243484D01*
X-29319Y242150D01*
X-30132Y240628D01*
X-30633Y238977D01*
X-30696Y238333D01*
X-31497Y238241D01*
X-32167Y240215D01*
X-33409Y242734D01*
X-34969Y245068D01*
X-36820Y247180D01*
X-38932Y249031D01*
X-41266Y250591D01*
X-43785Y251833D01*
X-46444Y252736D01*
X-49198Y253284D01*
X-52000Y253467D01*
X-137775D01*
X-138100Y254185D01*
X-137693Y254648D01*
X-136133Y256983D01*
X-134891Y259501D01*
X-133989Y262160D01*
X-133441Y264914D01*
X-133257Y267717D01*
X-133441Y270519D01*
X-133989Y273273D01*
X-134891Y275932D01*
X-136133Y278450D01*
X-137693Y280785D01*
X-139545Y282896D01*
X-139828Y283180D01*
X-141939Y285031D01*
X-144274Y286591D01*
X-146793Y287833D01*
X-148122Y288284D01*
X-149452Y288736D01*
X-152206Y289284D01*
X-155008Y289467D01*
X-155008Y289467D01*
X-181260D01*
X-184062Y289284D01*
X-186816Y288736D01*
X-189475Y287833D01*
X-191993Y286591D01*
X-194328Y285031D01*
X-196440Y283180D01*
X-198291Y281068D01*
X-199527Y279219D01*
X-200473D01*
X-201709Y281068D01*
X-203560Y283180D01*
X-205672Y285031D01*
X-208007Y286591D01*
X-210525Y287833D01*
X-213184Y288736D01*
X-215938Y289284D01*
X-218740Y289467D01*
X-221542Y289284D01*
X-224296Y288736D01*
X-226955Y287833D01*
X-229474Y286591D01*
X-231809Y285031D01*
X-233920Y283180D01*
X-235771Y281068D01*
X-237331Y278734D01*
X-238573Y276215D01*
X-239476Y273556D01*
X-240024Y270802D01*
X-240207Y268000D01*
Y249240D01*
X-240207Y249240D01*
X-240024Y246438D01*
X-239476Y243684D01*
X-239025Y242354D01*
X-238573Y241025D01*
X-237331Y238507D01*
X-235771Y236172D01*
X-233920Y234061D01*
X-216680Y216820D01*
X-216680Y216820D01*
X-214568Y214969D01*
X-212234Y213409D01*
X-211758Y213174D01*
X-211681Y212391D01*
X-212083Y212083D01*
X-213000Y210887D01*
X-213577Y209494D01*
X-213675Y208750D01*
X-202325D01*
X-202423Y209494D01*
X-202606Y209935D01*
X-202147Y210575D01*
X-201500Y210533D01*
X-201500Y210533D01*
X-186972D01*
X-186759Y210245D01*
X-186521Y209745D01*
X-186692Y208000D01*
X-186506Y206109D01*
X-186498Y206083D01*
X-195791Y196791D01*
X-196643Y195680D01*
X-197178Y194387D01*
X-197361Y193000D01*
Y172020D01*
X-201591Y167790D01*
X-202337Y168158D01*
X-202325Y168250D01*
X-207250D01*
Y163325D01*
X-206506Y163423D01*
X-205113Y164000D01*
X-204018Y164840D01*
X-203653Y164731D01*
X-203274Y164463D01*
X-203361Y163800D01*
Y138099D01*
X-204148Y137901D01*
X-204941Y139385D01*
X-206147Y140854D01*
X-207615Y142059D01*
X-209291Y142955D01*
X-211109Y143506D01*
X-213000Y143692D01*
X-214891Y143506D01*
X-216709Y142955D01*
X-218385Y142059D01*
X-219853Y140854D01*
X-221059Y139385D01*
X-221955Y137709D01*
X-222506Y135891D01*
X-222692Y134000D01*
X-222506Y132109D01*
X-221955Y130291D01*
X-221059Y128615D01*
X-219853Y127146D01*
X-218385Y125941D01*
X-216709Y125045D01*
X-214891Y124494D01*
X-213000Y124308D01*
X-212621Y123964D01*
Y116332D01*
X-212645Y116319D01*
X-214113Y115113D01*
X-215319Y113645D01*
X-216214Y111969D01*
X-216766Y110151D01*
X-216952Y108260D01*
X-216766Y106369D01*
X-216214Y104551D01*
X-215319Y102875D01*
X-214113Y101406D01*
X-212645Y100201D01*
X-210969Y99305D01*
X-209151Y98754D01*
X-207260Y98567D01*
X-205369Y98754D01*
X-203551Y99305D01*
X-201875Y100201D01*
X-200406Y101406D01*
X-199201Y102875D01*
X-198578Y104041D01*
X-197685D01*
X-197319Y103355D01*
X-196113Y101887D01*
X-194645Y100681D01*
X-192969Y99786D01*
X-191151Y99234D01*
X-189260Y99048D01*
X-187369Y99234D01*
X-185551Y99786D01*
X-183875Y100681D01*
X-182406Y101887D01*
X-181201Y103355D01*
X-180305Y105031D01*
X-179754Y106849D01*
X-179568Y108740D01*
X-179754Y110631D01*
X-180305Y112449D01*
X-181201Y114125D01*
X-182406Y115594D01*
X-183875Y116799D01*
X-185551Y117695D01*
X-187369Y118246D01*
X-189260Y118432D01*
X-191151Y118246D01*
X-191177Y118238D01*
X-192639Y119701D01*
Y122184D01*
X-191852Y122656D01*
X-190709Y122045D01*
X-188891Y121494D01*
X-187000Y121308D01*
X-185109Y121494D01*
X-185083Y121502D01*
X-169192Y105610D01*
X-168081Y104758D01*
X-166788Y104223D01*
X-165401Y104040D01*
X-68599D01*
X-67212Y104223D01*
X-66534Y104503D01*
X-66059Y103615D01*
X-64854Y102146D01*
X-63385Y100941D01*
X-63361Y100928D01*
Y99221D01*
X-67730Y94851D01*
X-67756Y94859D01*
X-69647Y95046D01*
X-71538Y94859D01*
X-73356Y94308D01*
X-75032Y93412D01*
X-76500Y92207D01*
X-77706Y90738D01*
X-78601Y89062D01*
X-79153Y87244D01*
X-79339Y85353D01*
X-79153Y83462D01*
X-78601Y81644D01*
X-77706Y79968D01*
X-76500Y78500D01*
X-75032Y77294D01*
X-73356Y76399D01*
X-71538Y75847D01*
X-69647Y75661D01*
X-67756Y75847D01*
X-65938Y76399D01*
X-64262Y77294D01*
X-62793Y78500D01*
X-61588Y79968D01*
X-60692Y81644D01*
X-60141Y83462D01*
X-59955Y85353D01*
X-60141Y87244D01*
X-60149Y87270D01*
X-54209Y93209D01*
X-53357Y94320D01*
X-52822Y95613D01*
X-52639Y97000D01*
Y100928D01*
X-52615Y100941D01*
X-51146Y102146D01*
X-49941Y103615D01*
X-49045Y105291D01*
X-48494Y107109D01*
X-48308Y109000D01*
X-48494Y110891D01*
X-49045Y112709D01*
X-49941Y114385D01*
X-51146Y115854D01*
X-52412Y116893D01*
X-52603Y117815D01*
X-40017Y130402D01*
X-39991Y130394D01*
X-38100Y130208D01*
X-37547Y130262D01*
X-36964Y129733D01*
Y129528D01*
X-36964Y129528D01*
X-36964Y128741D01*
X-36964Y128741D01*
X-36964Y128741D01*
Y124651D01*
Y124651D01*
X-36964Y124651D01*
Y124325D01*
X-36921Y124002D01*
X-36921Y123676D01*
X-36863Y123461D01*
X-36854Y123319D01*
X-36854Y123319D01*
X-36839Y123276D01*
X-36829Y123176D01*
X-36829Y123176D01*
X-36804Y123110D01*
X-36795Y123041D01*
X-36781Y123008D01*
X-36781Y123008D01*
X-36670Y122739D01*
X-36586Y122425D01*
X-36572Y122392D01*
X-36524Y122308D01*
X-36481Y122205D01*
X-36481Y122205D01*
X-36481Y122205D01*
X-36465Y122178D01*
X-36436Y122093D01*
X-36388Y122021D01*
X-36367Y121965D01*
X-36325Y121908D01*
X-36285Y121810D01*
X-36236Y121726D01*
X-36106Y121557D01*
X-35879Y121163D01*
X-35833Y121083D01*
X-35833Y121083D01*
X-35375Y120625D01*
X-35303Y120553D01*
X-35302Y120552D01*
X-35301Y120552D01*
X-35125Y120375D01*
X-35111Y120359D01*
X-35104Y120355D01*
X-34917Y120167D01*
X-34917Y120167D01*
X-34853Y120130D01*
X-34445Y119895D01*
X-34274Y119764D01*
X-34189Y119715D01*
X-34154Y119700D01*
X-34152Y119699D01*
X-34106Y119679D01*
X-34038Y119633D01*
X-34038Y119633D01*
X-33925Y119594D01*
X-33794Y119519D01*
X-33794Y119519D01*
X-33718Y119488D01*
X-33718Y119488D01*
X-33694Y119477D01*
X-33693Y119477D01*
X-33608Y119428D01*
X-33594Y119422D01*
X-33593Y119422D01*
X-33593Y119422D01*
X-33575Y119414D01*
X-33277Y119334D01*
X-33022Y119227D01*
X-33021Y119227D01*
X-33006Y119225D01*
X-32992Y119219D01*
X-32992Y119219D01*
X-32959Y119205D01*
X-32957Y119205D01*
X-32954Y119204D01*
X-32954Y119204D01*
X-32634Y119162D01*
X-32323Y119079D01*
X-31998Y119079D01*
X-31998Y119079D01*
X-31997Y119079D01*
X-31997Y119079D01*
X-31996D01*
X-31675Y119036D01*
X-31350D01*
X-31349Y119036D01*
X-19011D01*
Y113570D01*
X-36083Y96498D01*
X-36109Y96506D01*
X-38000Y96692D01*
X-39891Y96506D01*
X-41709Y95955D01*
X-43385Y95059D01*
X-44854Y93853D01*
X-46059Y92385D01*
X-46955Y90709D01*
X-47506Y88891D01*
X-47692Y87000D01*
X-47506Y85109D01*
X-46955Y83291D01*
X-46059Y81615D01*
X-44854Y80146D01*
X-43385Y78941D01*
X-41709Y78045D01*
X-39891Y77494D01*
X-38000Y77308D01*
X-36109Y77494D01*
X-34291Y78045D01*
X-32615Y78941D01*
X-31146Y80146D01*
X-29941Y81615D01*
X-29045Y83291D01*
X-28494Y85109D01*
X-28308Y87000D01*
X-28494Y88891D01*
X-28502Y88917D01*
X-9859Y107559D01*
X-9007Y108670D01*
X-8472Y109962D01*
X-8289Y111350D01*
Y160145D01*
X-8343Y160550D01*
X-8000Y160719D01*
X-7855Y160816D01*
X-7694Y160883D01*
X-7694Y160884D01*
X-7654Y160915D01*
X-7609Y160940D01*
X-7609Y160940D01*
X-7609Y160940D01*
X-7609Y160941D01*
X-7392Y161107D01*
X-7174Y161233D01*
X-7132Y161265D01*
X-7029Y161368D01*
X-6923Y161439D01*
X-6889Y161477D01*
X-6765Y161560D01*
X-6691Y161645D01*
X-6581Y161729D01*
X-6529Y161781D01*
X-6243Y162154D01*
X-6216Y162181D01*
X-6206Y162198D01*
X-5911Y162534D01*
X-5839Y162680D01*
X-5740Y162809D01*
X-5569Y163222D01*
X-5559Y163238D01*
X-5546Y163275D01*
X-5338Y163697D01*
X-5314Y163767D01*
X-5288Y163902D01*
X-5244Y164006D01*
X-5225Y164154D01*
X-5205Y164201D01*
X-5189Y164327D01*
X-5142Y164465D01*
X-5132Y164516D01*
X-5115Y164769D01*
X-5062Y165036D01*
X-5057Y165109D01*
X-5059Y165138D01*
X-5043Y165224D01*
X-5043Y165225D01*
X-5053Y165355D01*
X-5036Y165485D01*
Y176952D01*
X-5055Y177097D01*
X-5045Y177243D01*
X-5045Y177244D01*
X-5059Y177317D01*
X-5058Y177322D01*
X-5062Y177378D01*
X-5111Y177631D01*
X-5127Y177900D01*
X-5140Y177966D01*
X-5189Y178111D01*
X-5205Y178236D01*
X-5228Y178291D01*
X-5247Y178434D01*
X-5285Y178527D01*
X-5309Y178650D01*
X-5334Y178724D01*
X-5526Y179117D01*
X-5552Y179195D01*
X-5579Y179236D01*
X-5743Y179631D01*
X-5835Y179752D01*
X-5902Y179889D01*
X-6168Y180194D01*
X-6223Y180287D01*
X-6316Y180378D01*
X-6532Y180659D01*
X-6587Y180715D01*
X-6686Y180791D01*
X-6752Y180867D01*
X-6955Y181004D01*
X-7019Y181066D01*
X-7124Y181171D01*
X-7134Y181179D01*
X-7149Y181193D01*
X-7149Y181193D01*
X-7164Y181202D01*
X-7209Y181236D01*
X-7283Y181279D01*
X-7346Y181337D01*
X-7425Y181380D01*
X-7495Y181430D01*
X-7573Y181471D01*
X-7615Y181503D01*
X-7645Y181521D01*
X-7645Y181521D01*
X-7645Y181521D01*
X-7657Y181531D01*
X-7770Y181607D01*
X-7785Y181615D01*
X-7794Y181623D01*
X-7797Y181624D01*
X-7944Y181698D01*
X-8076Y181799D01*
X-8181Y181842D01*
X-8217Y181936D01*
X-8244Y182390D01*
X-8183Y182629D01*
X-8151Y182709D01*
X-7646Y183099D01*
X-7136Y183490D01*
X-7132Y183496D01*
X-7126Y183501D01*
X-6480Y184151D01*
X-6289Y184400D01*
X-6067Y184622D01*
X-5901Y184909D01*
X-5701Y185169D01*
X-5699Y185175D01*
X-5694Y185181D01*
X-5575Y185472D01*
X-5417Y185743D01*
X-5331Y186062D01*
X-5205Y186366D01*
X-5204Y186373D01*
X-5202Y186380D01*
X-5162Y186691D01*
X-5080Y186994D01*
X-5080Y186995D01*
X-5079Y187324D01*
X-5036Y187651D01*
Y217428D01*
X-5068Y217673D01*
X-5061Y217920D01*
X-5153Y218313D01*
X-5205Y218713D01*
X-5300Y218941D01*
X-5356Y219181D01*
X-5547Y219537D01*
X-5701Y219910D01*
X-5852Y220106D01*
X-5968Y220323D01*
X-6244Y220618D01*
X-6490Y220938D01*
X-6686Y221088D01*
X-6855Y221268D01*
X-7553Y221840D01*
X-7896Y222053D01*
X-8216Y222299D01*
X-8444Y222393D01*
X-8654Y222523D01*
X-9040Y222640D01*
X-9413Y222795D01*
X-9658Y222827D01*
X-9894Y222898D01*
X-10137Y222906D01*
X-10190Y222920D01*
X-10190Y222920D01*
X-10370Y222920D01*
X-10698Y222964D01*
X-10846D01*
X-10846Y222964D01*
X-31826D01*
X-32242Y223632D01*
X-32167Y223785D01*
X-31264Y226444D01*
X-30716Y229198D01*
X-30533Y232000D01*
X-30605Y233106D01*
X-29831Y233327D01*
X-29319Y232370D01*
X-28224Y231036D01*
X-26890Y229941D01*
X-25368Y229128D01*
X-23717Y228627D01*
X-22000Y228458D01*
X-20283Y228627D01*
X-18632Y229128D01*
X-17110Y229941D01*
X-15776Y231036D01*
X-14681Y232370D01*
X-13868Y233891D01*
X-13367Y235543D01*
X-13198Y237260D01*
X-13307Y238371D01*
X-9839Y241839D01*
X60428D01*
X60441Y241815D01*
X61646Y240346D01*
X63115Y239141D01*
X64791Y238245D01*
X66609Y237694D01*
X68500Y237508D01*
X70391Y237694D01*
X72209Y238245D01*
X73885Y239141D01*
X75353Y240346D01*
X76559Y241815D01*
X76572Y241839D01*
X88200D01*
X89587Y242022D01*
X90880Y242557D01*
X91991Y243409D01*
X104193Y255612D01*
X104889Y255194D01*
X104494Y253891D01*
X104308Y252000D01*
X104494Y250109D01*
X104502Y250083D01*
X96209Y241791D01*
X95357Y240680D01*
X94822Y239387D01*
X94639Y238000D01*
Y194072D01*
X94615Y194059D01*
X93147Y192853D01*
X91941Y191385D01*
X91045Y189709D01*
X90494Y187891D01*
X90308Y186000D01*
X90494Y184109D01*
X91045Y182291D01*
X91941Y180615D01*
X93147Y179147D01*
X94615Y177941D01*
X96291Y177045D01*
X98109Y176494D01*
X100000Y176308D01*
X101891Y176494D01*
X103709Y177045D01*
X105385Y177941D01*
X106853Y179147D01*
X108059Y180615D01*
X108955Y182291D01*
X109506Y184109D01*
X109692Y186000D01*
X109506Y187891D01*
X108955Y189709D01*
X108059Y191385D01*
X106853Y192853D01*
X105385Y194059D01*
X105361Y194072D01*
Y235780D01*
X112083Y242502D01*
X112109Y242494D01*
X114000Y242308D01*
X115891Y242494D01*
X117709Y243045D01*
X119385Y243941D01*
X120853Y245146D01*
X122059Y246615D01*
X122072Y246639D01*
X132394D01*
X132511Y245852D01*
X132048Y245711D01*
X130372Y244816D01*
X128903Y243610D01*
X127698Y242142D01*
X126802Y240466D01*
X126251Y238648D01*
X126064Y236757D01*
X126251Y234866D01*
X126258Y234840D01*
X115209Y223791D01*
X114357Y222680D01*
X113822Y221388D01*
X113639Y220000D01*
Y166220D01*
X87088Y139670D01*
X86361Y139971D01*
Y142928D01*
X86385Y142941D01*
X87853Y144147D01*
X89059Y145615D01*
X89955Y147291D01*
X90506Y149109D01*
X90692Y151000D01*
X90506Y152891D01*
X89955Y154709D01*
X89059Y156385D01*
X87853Y157853D01*
X86385Y159059D01*
X84709Y159955D01*
X82891Y160506D01*
X81000Y160692D01*
X79109Y160506D01*
X77291Y159955D01*
X75615Y159059D01*
X74146Y157853D01*
X72941Y156385D01*
X72045Y154709D01*
X71494Y152891D01*
X71308Y151000D01*
X71494Y149109D01*
X72045Y147291D01*
X72941Y145615D01*
X74146Y144147D01*
X75615Y142941D01*
X75639Y142928D01*
Y81740D01*
X75822Y80352D01*
X76357Y79059D01*
X77209Y77949D01*
X149156Y6003D01*
X148788Y5257D01*
X148000Y5361D01*
X38331D01*
X37926Y6036D01*
X38224Y6594D01*
X38730Y8264D01*
X38901Y10000D01*
X38730Y11737D01*
X38224Y13406D01*
X37401Y14945D01*
X37356Y15000D01*
X37401Y15055D01*
X38224Y16594D01*
X38730Y18263D01*
X38901Y20000D01*
X38730Y21736D01*
X38224Y23406D01*
X37401Y24945D01*
X37356Y25000D01*
X37401Y25055D01*
X38224Y26594D01*
X38730Y28264D01*
X38901Y30000D01*
X38730Y31736D01*
X38224Y33406D01*
X37401Y34945D01*
X36294Y36294D01*
X34945Y37401D01*
X33406Y38224D01*
X31736Y38730D01*
X30000Y38901D01*
X28264Y38730D01*
X26594Y38224D01*
X25055Y37401D01*
X23706Y36294D01*
X22599Y34945D01*
X21776Y33406D01*
X21270Y31736D01*
X21099Y30000D01*
X21270Y28264D01*
X21776Y26594D01*
X22599Y25055D01*
X22644Y25000D01*
X22599Y24945D01*
X21776Y23406D01*
X21270Y21736D01*
X21099Y20000D01*
X21270Y18263D01*
X21776Y16594D01*
X22599Y15055D01*
X22644Y15000D01*
X22599Y14945D01*
X21776Y13406D01*
X21270Y11737D01*
X21099Y10000D01*
X21270Y8264D01*
X21776Y6594D01*
X22599Y5055D01*
X22644Y5000D01*
X22599Y4945D01*
X21776Y3406D01*
X21270Y1736D01*
X21099Y0D01*
X21270Y-1736D01*
X21776Y-3406D01*
X22599Y-4945D01*
X22644Y-5000D01*
X22599Y-5055D01*
X21776Y-6594D01*
X21270Y-8264D01*
X21099Y-10000D01*
X21270Y-11737D01*
X21776Y-13406D01*
X22599Y-14945D01*
X22644Y-15000D01*
X22599Y-15055D01*
X21776Y-16594D01*
X21270Y-18263D01*
X21099Y-20000D01*
X21270Y-21736D01*
X21776Y-23406D01*
X22599Y-24945D01*
X22644Y-25000D01*
X22599Y-25055D01*
X21776Y-26594D01*
X21270Y-28264D01*
X21099Y-30000D01*
X21270Y-31736D01*
X21776Y-33406D01*
X22599Y-34945D01*
X22644Y-35000D01*
X22599Y-35055D01*
X21776Y-36594D01*
X21270Y-38263D01*
X21099Y-40000D01*
X21270Y-41737D01*
X21776Y-43406D01*
X22013Y-43850D01*
X21432Y-44432D01*
X20709Y-44045D01*
X18891Y-43494D01*
X17000Y-43308D01*
X15109Y-43494D01*
X13291Y-44045D01*
X11615Y-44941D01*
X10147Y-46146D01*
X8941Y-47615D01*
X8045Y-49291D01*
X7494Y-51109D01*
X7308Y-53000D01*
X7412Y-54056D01*
X6883Y-54639D01*
X-7779D01*
X-21217Y-41201D01*
X-21099Y-40000D01*
X-21270Y-38263D01*
X-21776Y-36594D01*
X-22599Y-35055D01*
X-22644Y-35000D01*
X-22599Y-34945D01*
X-21776Y-33406D01*
X-21270Y-31736D01*
X-21099Y-30000D01*
X-21270Y-28264D01*
X-21776Y-26594D01*
X-22599Y-25055D01*
X-22644Y-25000D01*
X-22599Y-24945D01*
X-21776Y-23406D01*
X-21270Y-21736D01*
X-21099Y-20000D01*
X-21270Y-18263D01*
X-21776Y-16594D01*
X-22599Y-15055D01*
X-22644Y-15000D01*
X-22599Y-14945D01*
X-21776Y-13406D01*
X-21270Y-11737D01*
X-21099Y-10000D01*
X-21270Y-8264D01*
X-21776Y-6594D01*
X-22599Y-5055D01*
X-22644Y-5000D01*
X-22599Y-4945D01*
X-21776Y-3406D01*
X-21270Y-1736D01*
X-21099Y0D01*
X-21270Y1736D01*
X-21776Y3406D01*
X-22599Y4945D01*
X-22644Y5000D01*
X-22599Y5055D01*
X-21776Y6594D01*
X-21270Y8264D01*
X-21099Y10000D01*
X-21270Y11737D01*
X-21776Y13406D01*
X-22599Y14945D01*
X-22644Y15000D01*
X-22599Y15055D01*
X-21776Y16594D01*
X-21270Y18263D01*
X-21099Y20000D01*
X-21270Y21736D01*
X-21776Y23406D01*
X-22599Y24945D01*
X-22644Y25000D01*
X-22599Y25055D01*
X-21776Y26594D01*
X-21270Y28264D01*
X-21099Y30000D01*
X-21270Y31736D01*
X-21776Y33406D01*
X-22599Y34945D01*
X-23706Y36294D01*
X-25055Y37401D01*
X-26594Y38224D01*
X-28264Y38730D01*
X-30000Y38901D01*
X-31736Y38730D01*
X-33406Y38224D01*
X-34945Y37401D01*
X-36294Y36294D01*
X-37401Y34945D01*
X-38224Y33406D01*
X-38730Y31736D01*
X-38901Y30000D01*
X-38730Y28264D01*
X-38224Y26594D01*
X-37401Y25055D01*
X-37356Y25000D01*
X-37401Y24945D01*
X-38224Y23406D01*
X-38730Y21736D01*
X-38901Y20000D01*
X-38730Y18263D01*
X-38224Y16594D01*
X-37401Y15055D01*
X-37356Y15000D01*
X-37401Y14945D01*
X-38224Y13406D01*
X-38730Y11737D01*
X-38901Y10000D01*
X-38730Y8264D01*
X-38224Y6594D01*
X-37401Y5055D01*
X-37356Y5000D01*
X-37401Y4945D01*
X-38224Y3406D01*
X-38730Y1736D01*
X-38901Y0D01*
X-38730Y-1736D01*
X-38224Y-3406D01*
X-37401Y-4945D01*
X-37356Y-5000D01*
X-37401Y-5055D01*
X-38224Y-6594D01*
X-38730Y-8264D01*
X-38901Y-10000D01*
X-38730Y-11737D01*
X-38224Y-13406D01*
X-37401Y-14945D01*
X-37356Y-15000D01*
X-37401Y-15055D01*
X-38041Y-16252D01*
X-38936Y-16403D01*
X-39146Y-16146D01*
X-40615Y-14941D01*
X-42291Y-14045D01*
X-44109Y-13494D01*
X-46000Y-13308D01*
X-47891Y-13494D01*
X-49709Y-14045D01*
X-51385Y-14941D01*
X-52854Y-16146D01*
X-54059Y-17615D01*
X-54955Y-19291D01*
X-55506Y-21109D01*
X-55692Y-23000D01*
X-55506Y-24891D01*
X-54955Y-26709D01*
X-54059Y-28385D01*
X-52854Y-29854D01*
X-51385Y-31059D01*
X-49709Y-31955D01*
X-47891Y-32506D01*
X-46000Y-32692D01*
X-44109Y-32506D01*
X-44083Y-32498D01*
X-38634Y-37947D01*
X-38730Y-38263D01*
X-38901Y-40000D01*
X-38730Y-41737D01*
X-38405Y-42809D01*
X-39113Y-43187D01*
X-39146Y-43146D01*
X-40615Y-41941D01*
X-42291Y-41045D01*
X-44109Y-40494D01*
X-46000Y-40308D01*
X-47891Y-40494D01*
X-49709Y-41045D01*
X-51385Y-41941D01*
X-52854Y-43146D01*
X-54059Y-44615D01*
X-54955Y-46291D01*
X-55506Y-48109D01*
X-55692Y-50000D01*
X-55506Y-51891D01*
X-54955Y-53709D01*
X-54059Y-55385D01*
X-52854Y-56853D01*
X-51385Y-58059D01*
X-49709Y-58955D01*
X-47891Y-59506D01*
X-46000Y-59692D01*
X-44109Y-59506D01*
X-42291Y-58955D01*
X-40615Y-58059D01*
X-39146Y-56853D01*
X-39113Y-56813D01*
X-38405Y-57191D01*
X-38730Y-58263D01*
X-38901Y-60000D01*
X-38730Y-61737D01*
X-38224Y-63406D01*
X-37401Y-64945D01*
X-37356Y-65000D01*
X-37401Y-65055D01*
X-38224Y-66594D01*
X-38730Y-68264D01*
X-38901Y-70000D01*
X-38730Y-71737D01*
X-38224Y-73406D01*
X-37926Y-73964D01*
X-38331Y-74639D01*
X-70780D01*
X-190502Y45083D01*
X-190494Y45109D01*
X-190308Y47000D01*
X-190494Y48891D01*
X-191045Y50709D01*
X-191941Y52385D01*
X-193147Y53853D01*
X-194615Y55059D01*
X-196291Y55955D01*
X-198109Y56506D01*
X-200000Y56692D01*
X-201891Y56506D01*
X-203709Y55955D01*
X-205385Y55059D01*
X-206854Y53853D01*
X-208059Y52385D01*
X-208955Y50709D01*
X-209506Y48891D01*
X-209692Y47000D01*
X-209506Y45109D01*
X-208955Y43291D01*
X-208059Y41615D01*
X-206854Y40146D01*
X-205385Y38941D01*
X-203709Y38045D01*
X-201891Y37494D01*
X-200000Y37308D01*
X-198109Y37494D01*
X-198083Y37502D01*
X-76791Y-83791D01*
X-76657Y-83894D01*
X-76910Y-84639D01*
X-93779D01*
X-202502Y24083D01*
X-202494Y24109D01*
X-202308Y26000D01*
X-202494Y27891D01*
X-203045Y29709D01*
X-203941Y31385D01*
X-205147Y32854D01*
X-206615Y34059D01*
X-208291Y34955D01*
X-210109Y35506D01*
X-212000Y35692D01*
X-213891Y35506D01*
X-215709Y34955D01*
X-217385Y34059D01*
X-218853Y32854D01*
X-220059Y31385D01*
X-220955Y29709D01*
X-221506Y27891D01*
X-221692Y26000D01*
X-221506Y24109D01*
X-220955Y22291D01*
X-220059Y20615D01*
X-218853Y19146D01*
X-217385Y17941D01*
X-215709Y17045D01*
X-213891Y16494D01*
X-212000Y16308D01*
X-210109Y16494D01*
X-210083Y16502D01*
X-99791Y-93791D01*
X-98680Y-94643D01*
X-97387Y-95178D01*
X-96000Y-95361D01*
X-38331D01*
X-37926Y-96036D01*
X-38224Y-96594D01*
X-38730Y-98264D01*
X-38901Y-100000D01*
X-38730Y-101736D01*
X-38224Y-103406D01*
X-37401Y-104945D01*
X-37356Y-105000D01*
X-37401Y-105055D01*
X-38224Y-106594D01*
X-38586Y-107787D01*
X-39212Y-107597D01*
X-41103Y-107411D01*
X-42994Y-107597D01*
X-44812Y-108149D01*
X-46488Y-109044D01*
X-47957Y-110250D01*
X-49162Y-111718D01*
X-50058Y-113394D01*
X-50609Y-115212D01*
X-50796Y-117103D01*
X-50609Y-118994D01*
X-50058Y-120812D01*
X-49162Y-122488D01*
X-47957Y-123957D01*
X-46488Y-125162D01*
X-44812Y-126058D01*
X-42994Y-126609D01*
X-41103Y-126795D01*
X-39212Y-126609D01*
X-39035Y-126556D01*
X-38403Y-127187D01*
X-38730Y-128263D01*
X-38901Y-130000D01*
X-38730Y-131737D01*
X-38224Y-133406D01*
X-37401Y-134945D01*
X-37356Y-135000D01*
X-37401Y-135055D01*
X-38224Y-136594D01*
X-38730Y-138263D01*
X-38869Y-139672D01*
X-38925Y-139790D01*
X-39422Y-140238D01*
X-39658Y-140347D01*
X-41103Y-140205D01*
X-42994Y-140391D01*
X-44812Y-140942D01*
X-46488Y-141838D01*
X-47957Y-143043D01*
X-49162Y-144512D01*
X-50058Y-146188D01*
X-50609Y-148006D01*
X-50796Y-149897D01*
X-50609Y-151788D01*
X-50058Y-153606D01*
X-49408Y-154822D01*
X-50059Y-155615D01*
X-50955Y-157291D01*
X-51506Y-159109D01*
X-51692Y-161000D01*
X-51506Y-162891D01*
X-50955Y-164709D01*
X-50059Y-166385D01*
X-49964Y-166500D01*
X-50059Y-166615D01*
X-50955Y-168291D01*
X-51506Y-170109D01*
X-51692Y-172000D01*
X-51506Y-173891D01*
X-50955Y-175709D01*
X-50059Y-177385D01*
X-49964Y-177500D01*
X-50059Y-177615D01*
X-50955Y-179291D01*
X-51506Y-181109D01*
X-51692Y-183000D01*
X-51506Y-184891D01*
X-50955Y-186709D01*
X-50059Y-188385D01*
X-48854Y-189854D01*
X-47385Y-191059D01*
X-45709Y-191955D01*
X-43891Y-192506D01*
X-42000Y-192692D01*
X-40109Y-192506D01*
X-38633Y-192058D01*
X-38224Y-193406D01*
X-37401Y-194945D01*
X-36294Y-196294D01*
X-34945Y-197401D01*
X-34390Y-197698D01*
X-34810Y-198711D01*
X-34881Y-199250D01*
X-25119D01*
X-25190Y-198711D01*
X-25610Y-197698D01*
X-25055Y-197401D01*
X-23706Y-196294D01*
X-22599Y-194945D01*
X-21776Y-193406D01*
X-21270Y-191736D01*
X-21099Y-190000D01*
X-21270Y-188263D01*
X-21776Y-186594D01*
X-22599Y-185055D01*
X-22644Y-185000D01*
X-22599Y-184945D01*
X-21776Y-183406D01*
X-21270Y-181737D01*
X-21099Y-180000D01*
X-21270Y-178263D01*
X-21776Y-176594D01*
X-22599Y-175055D01*
X-22644Y-175000D01*
X-22599Y-174945D01*
X-21776Y-173406D01*
X-21270Y-171737D01*
X-21099Y-170000D01*
X-21270Y-168263D01*
X-21776Y-166594D01*
X-22599Y-165055D01*
X-22644Y-165000D01*
X-22599Y-164945D01*
X-21776Y-163406D01*
X-21270Y-161737D01*
X-21099Y-160000D01*
X-21270Y-158264D01*
X-21776Y-156594D01*
X-22599Y-155055D01*
X-22644Y-155000D01*
X-22599Y-154945D01*
X-21776Y-153406D01*
X-21270Y-151736D01*
X-21099Y-150000D01*
X-21270Y-148264D01*
X-21776Y-146594D01*
X-22599Y-145055D01*
X-22644Y-145000D01*
X-22599Y-144945D01*
X-21776Y-143406D01*
X-21270Y-141736D01*
X-21099Y-140000D01*
X-21270Y-138263D01*
X-21776Y-136594D01*
X-22599Y-135055D01*
X-22644Y-135000D01*
X-22599Y-134945D01*
X-21776Y-133406D01*
X-21270Y-131737D01*
X-21099Y-130000D01*
X-21270Y-128263D01*
X-21776Y-126594D01*
X-22599Y-125055D01*
X-22644Y-125000D01*
X-22599Y-124945D01*
X-21776Y-123406D01*
X-21270Y-121737D01*
X-21099Y-120000D01*
X-21270Y-118263D01*
X-21776Y-116594D01*
X-22599Y-115055D01*
X-22644Y-115000D01*
X-22599Y-114945D01*
X-21776Y-113406D01*
X-21270Y-111737D01*
X-21099Y-110000D01*
X-21270Y-108264D01*
X-21776Y-106594D01*
X-22599Y-105055D01*
X-22644Y-105000D01*
X-22599Y-104945D01*
X-21776Y-103406D01*
X-21270Y-101736D01*
X-21099Y-100000D01*
X-21270Y-98264D01*
X-21776Y-96594D01*
X-22599Y-95055D01*
X-22644Y-95000D01*
X-22599Y-94945D01*
X-21776Y-93406D01*
X-21270Y-91737D01*
X-21099Y-90000D01*
X-21270Y-88263D01*
X-21776Y-86594D01*
X-22599Y-85055D01*
X-22644Y-85000D01*
X-22599Y-84945D01*
X-21776Y-83406D01*
X-21270Y-81736D01*
X-21099Y-80000D01*
X-21270Y-78263D01*
X-21776Y-76594D01*
X-22599Y-75055D01*
X-22644Y-75000D01*
X-22599Y-74945D01*
X-21776Y-73406D01*
X-21270Y-71737D01*
X-21099Y-70000D01*
X-21270Y-68264D01*
X-21776Y-66594D01*
X-22599Y-65055D01*
X-22644Y-65000D01*
X-22599Y-64945D01*
X-21776Y-63406D01*
X-21270Y-61737D01*
X-21099Y-60000D01*
X-21270Y-58263D01*
X-21635Y-57060D01*
X-20939Y-56643D01*
X-13791Y-63791D01*
X-12680Y-64643D01*
X-11388Y-65178D01*
X-10000Y-65361D01*
X3639D01*
Y-129000D01*
X3822Y-130387D01*
X4357Y-131680D01*
X5209Y-132791D01*
X13285Y-140866D01*
X13169Y-141645D01*
X12615Y-141941D01*
X11146Y-143147D01*
X9941Y-144615D01*
X9045Y-146291D01*
X8494Y-148109D01*
X8308Y-150000D01*
X8494Y-151891D01*
X9045Y-153709D01*
X9941Y-155385D01*
X11146Y-156853D01*
X12615Y-158059D01*
X13169Y-158355D01*
X13285Y-159134D01*
X-341Y-172760D01*
X-1351Y-172656D01*
X-1917Y-171917D01*
X-3113Y-171000D01*
X-4506Y-170423D01*
X-5250Y-170325D01*
Y-176000D01*
X-6000D01*
Y-176750D01*
X-11675D01*
X-11577Y-177494D01*
X-11000Y-178887D01*
X-10083Y-180083D01*
X-9344Y-180649D01*
X-9240Y-181659D01*
X-14791Y-187209D01*
X-15643Y-188320D01*
X-16178Y-189612D01*
X-16361Y-191000D01*
Y-208780D01*
X-20939Y-213357D01*
X-21635Y-212940D01*
X-21270Y-211736D01*
X-21099Y-210000D01*
X-21270Y-208263D01*
X-21776Y-206594D01*
X-22599Y-205055D01*
X-23706Y-203706D01*
X-25055Y-202599D01*
X-25610Y-202302D01*
X-25190Y-201289D01*
X-25119Y-200750D01*
X-34881D01*
X-34810Y-201289D01*
X-34390Y-202302D01*
X-34945Y-202599D01*
X-36294Y-203706D01*
X-37401Y-205055D01*
X-38224Y-206594D01*
X-38730Y-208263D01*
X-38901Y-210000D01*
X-38730Y-211736D01*
X-38224Y-213406D01*
X-37401Y-214945D01*
X-37356Y-215000D01*
X-37401Y-215055D01*
X-38224Y-216594D01*
X-38730Y-218264D01*
X-38901Y-220000D01*
X-38739Y-221641D01*
X-39094Y-221980D01*
X-39355Y-222154D01*
X-39615Y-221941D01*
X-41291Y-221045D01*
X-43109Y-220494D01*
X-45000Y-220308D01*
X-46891Y-220494D01*
X-48709Y-221045D01*
X-50385Y-221941D01*
X-51854Y-223147D01*
X-53059Y-224615D01*
X-53955Y-226291D01*
X-54506Y-228109D01*
X-54692Y-230000D01*
X-54506Y-231891D01*
X-53955Y-233709D01*
X-53059Y-235385D01*
X-51854Y-236854D01*
X-50385Y-238059D01*
X-48709Y-238955D01*
X-46891Y-239506D01*
X-45000Y-239692D01*
X-43109Y-239506D01*
X-41291Y-238955D01*
X-39615Y-238059D01*
X-39355Y-237846D01*
X-39094Y-238020D01*
X-38739Y-238359D01*
X-38901Y-240000D01*
X-38730Y-241737D01*
X-38224Y-243406D01*
X-37401Y-244945D01*
X-37356Y-245000D01*
X-37401Y-245055D01*
X-38224Y-246594D01*
X-38730Y-248264D01*
X-38901Y-250000D01*
X-38730Y-251736D01*
X-38224Y-253406D01*
X-37401Y-254945D01*
X-37356Y-255000D01*
X-37401Y-255055D01*
X-38224Y-256594D01*
X-38730Y-258263D01*
X-38901Y-260000D01*
X-38730Y-261736D01*
X-38224Y-263406D01*
X-37401Y-264945D01*
X-37356Y-265000D01*
X-37401Y-265055D01*
X-38224Y-266594D01*
X-38730Y-268264D01*
X-38901Y-270000D01*
X-38730Y-271737D01*
X-38224Y-273406D01*
X-37401Y-274945D01*
X-37356Y-275000D01*
X-37401Y-275055D01*
X-38224Y-276594D01*
X-38730Y-278263D01*
X-38901Y-280000D01*
X-38730Y-281736D01*
X-38224Y-283406D01*
X-37401Y-284945D01*
X-36294Y-286294D01*
X-34945Y-287401D01*
X-33406Y-288224D01*
X-31736Y-288730D01*
X-30000Y-288901D01*
X-28264Y-288730D01*
X-26594Y-288224D01*
X-25055Y-287401D01*
X-24730Y-287135D01*
X-24046Y-287592D01*
X-24506Y-289109D01*
X-24692Y-291000D01*
X-24506Y-292891D01*
X-23955Y-294709D01*
X-23059Y-296385D01*
X-21854Y-297853D01*
X-20385Y-299059D01*
X-20088Y-299217D01*
X-20286Y-300005D01*
X-300000D01*
Y299995D01*
X-243700D01*
X-243373Y299208D01*
D02*
G37*
G36*
X107386Y279927D02*
X106941Y279385D01*
X106045Y277709D01*
X105494Y275891D01*
X105308Y274000D01*
X105494Y272109D01*
X105502Y272083D01*
X85979Y252561D01*
X76572D01*
X76559Y252585D01*
X75353Y254053D01*
X75085Y254274D01*
Y255062D01*
X75554Y255446D01*
X76759Y256915D01*
X77655Y258591D01*
X78206Y260409D01*
X78392Y262300D01*
X78206Y264191D01*
X78198Y264217D01*
X94621Y280639D01*
X107050D01*
X107386Y279927D01*
D02*
G37*
G36*
X-7361Y-222220D02*
Y-249060D01*
X-7927Y-249480D01*
X-8148Y-249490D01*
X-10000Y-249308D01*
X-11891Y-249494D01*
X-13709Y-250045D01*
X-15385Y-250941D01*
X-16854Y-252147D01*
X-18059Y-253615D01*
X-18606Y-254639D01*
X-21669D01*
X-22074Y-253964D01*
X-21776Y-253406D01*
X-21270Y-251736D01*
X-21099Y-250000D01*
X-21270Y-248264D01*
X-21776Y-246594D01*
X-22599Y-245055D01*
X-22644Y-245000D01*
X-22599Y-244945D01*
X-21776Y-243406D01*
X-21270Y-241737D01*
X-21099Y-240000D01*
X-21270Y-238264D01*
X-21776Y-236594D01*
X-22599Y-235055D01*
X-22644Y-235000D01*
X-22599Y-234945D01*
X-21776Y-233406D01*
X-21270Y-231736D01*
X-21099Y-230000D01*
X-21217Y-228799D01*
X-11000Y-218581D01*
X-7361Y-222220D01*
D02*
G37*
G36*
X21635Y-167060D02*
X21270Y-168263D01*
X21099Y-170000D01*
X21217Y-171201D01*
X14209Y-178209D01*
X13357Y-179320D01*
X13238Y-179608D01*
X12615Y-179941D01*
X11146Y-181147D01*
X9941Y-182615D01*
X9045Y-184291D01*
X9007Y-184418D01*
X8295Y-184755D01*
X7494Y-184423D01*
X6750Y-184325D01*
Y-190000D01*
Y-195675D01*
X7494Y-195577D01*
X8887Y-195000D01*
X10083Y-194083D01*
X10508Y-194076D01*
X11146Y-194853D01*
X12615Y-196059D01*
X14291Y-196955D01*
X16109Y-197506D01*
X18000Y-197692D01*
X19891Y-197506D01*
X20863Y-197211D01*
X21420Y-197768D01*
X21270Y-198264D01*
X21099Y-200000D01*
X21270Y-201736D01*
X21776Y-203406D01*
X22599Y-204945D01*
X23706Y-206294D01*
X25055Y-207401D01*
X25610Y-207698D01*
X25190Y-208711D01*
X25119Y-209250D01*
X34881D01*
X34810Y-208711D01*
X34390Y-207698D01*
X34945Y-207401D01*
X36294Y-206294D01*
X37060Y-205361D01*
X72800D01*
X74187Y-205178D01*
X75480Y-204643D01*
X76591Y-203791D01*
X76638Y-203744D01*
X77222Y-204273D01*
X76941Y-204615D01*
X76045Y-206291D01*
X75494Y-208109D01*
X75308Y-210000D01*
X75494Y-211891D01*
X76045Y-213709D01*
X76941Y-215385D01*
X78146Y-216853D01*
X79615Y-218059D01*
X81291Y-218955D01*
X83109Y-219506D01*
X85000Y-219692D01*
X86891Y-219506D01*
X88709Y-218955D01*
X90385Y-218059D01*
X90961Y-217586D01*
X92016Y-218150D01*
X93650Y-218646D01*
X95350Y-218813D01*
X97050Y-218646D01*
X98685Y-218150D01*
X100191Y-217345D01*
X101511Y-216261D01*
X102595Y-214941D01*
X103400Y-213434D01*
X103896Y-211800D01*
X104063Y-210100D01*
X103941Y-208860D01*
X104021Y-208771D01*
X104021D01*
Y-205461D01*
X105928D01*
X105941Y-205485D01*
X107147Y-206954D01*
X108615Y-208159D01*
X110291Y-209055D01*
X110381Y-209082D01*
X110573Y-209846D01*
X83780Y-236639D01*
X44221D01*
X38783Y-231201D01*
X38901Y-230000D01*
X38730Y-228263D01*
X38224Y-226594D01*
X37401Y-225055D01*
X37356Y-225000D01*
X37401Y-224945D01*
X38224Y-223406D01*
X38730Y-221737D01*
X38901Y-220000D01*
X38730Y-218264D01*
X38224Y-216594D01*
X37401Y-215055D01*
X36294Y-213706D01*
X34945Y-212599D01*
X34390Y-212302D01*
X34810Y-211289D01*
X34881Y-210750D01*
X25119D01*
X25190Y-211289D01*
X25610Y-212302D01*
X25055Y-212599D01*
X23706Y-213706D01*
X22940Y-214639D01*
X221D01*
X-5639Y-208780D01*
Y-193220D01*
X-79Y-187661D01*
X588Y-188107D01*
X423Y-188506D01*
X325Y-189250D01*
X5250D01*
Y-184325D01*
X4506Y-184423D01*
X4107Y-184588D01*
X3661Y-183921D01*
X20939Y-166643D01*
X21635Y-167060D01*
D02*
G37*
G36*
X-10558Y177499D02*
X-10555Y177498D01*
X-10550Y177495D01*
X-10550Y177495D01*
X-10437Y177419D01*
X-10380Y177390D01*
X-10380Y177390D01*
X-10310Y177341D01*
X-10231Y177298D01*
X-10186Y177263D01*
X-10185Y177263D01*
X-10147Y177233D01*
X-10146Y177233D01*
X-10146Y177233D01*
X-10144Y177232D01*
X-10109Y177211D01*
X-10071Y177173D01*
X-10057Y177149D01*
X-10013Y177018D01*
X-10000Y176952D01*
X-10000Y176952D01*
Y165486D01*
D01*
X-10010Y165434D01*
X-10010Y165434D01*
X-10055Y165302D01*
X-10154Y165203D01*
X-10195Y165171D01*
X-10195Y165171D01*
X-10538Y165002D01*
X-10943Y164732D01*
X-11364Y164488D01*
X-11480Y164373D01*
X-11615Y164282D01*
X-11628Y164268D01*
X-13307Y164963D01*
D01*
X-13760Y165151D01*
X-13855Y165191D01*
Y165204D01*
Y165215D01*
Y165230D01*
X-13855Y165251D01*
X-14000D01*
Y165230D01*
Y165215D01*
Y165204D01*
Y165191D01*
X-14095Y165151D01*
X-14548Y164963D01*
X-14548D01*
X-17320Y163815D01*
X-17442Y163522D01*
X-17499Y163499D01*
X-18422Y161270D01*
X-18948Y160700D01*
Y160337D01*
Y160090D01*
Y160000D01*
Y160000D01*
X-18948Y160000D01*
X-18551Y159369D01*
Y124000D01*
X-31349D01*
X-31350Y124000D01*
X-31357D01*
X-31365Y124002D01*
X-31365Y124002D01*
X-31995Y124645D01*
X-32000Y124655D01*
Y128741D01*
X-32000Y129528D01*
X-32000Y129528D01*
Y154729D01*
X-29865Y156865D01*
X-29865Y156865D01*
X-29632Y157213D01*
X-29517Y157386D01*
X-29394Y158000D01*
X-29394Y158000D01*
Y177500D01*
X-10558D01*
X-10558Y177499D01*
D02*
G37*
G36*
X-108639Y209266D02*
X-108678Y208480D01*
X-108953Y208254D01*
X-110159Y206785D01*
X-111055Y205109D01*
X-111606Y203291D01*
X-111792Y201400D01*
X-111606Y199509D01*
X-111598Y199483D01*
X-147221Y163861D01*
X-168428D01*
X-168441Y163885D01*
X-169647Y165354D01*
X-171115Y166559D01*
X-172791Y167455D01*
X-174609Y168006D01*
X-176500Y168192D01*
X-178391Y168006D01*
X-179883Y167553D01*
X-180671Y168017D01*
Y170448D01*
X-180017Y171102D01*
X-179991Y171094D01*
X-178100Y170908D01*
X-176209Y171094D01*
X-174391Y171645D01*
X-172715Y172541D01*
X-171247Y173747D01*
X-170041Y175215D01*
X-169145Y176891D01*
X-168594Y178709D01*
X-168408Y180600D01*
X-168594Y182491D01*
X-169145Y184309D01*
X-170041Y185985D01*
X-171247Y187453D01*
Y187654D01*
X-170647Y188146D01*
X-169441Y189615D01*
X-168545Y191291D01*
X-167994Y193109D01*
X-167808Y195000D01*
X-167994Y196891D01*
X-168545Y198709D01*
X-169441Y200385D01*
X-170106Y201195D01*
X-168941Y202615D01*
X-168045Y204291D01*
X-167494Y206109D01*
X-167308Y208000D01*
X-167480Y209745D01*
X-167241Y210245D01*
X-167028Y210533D01*
X-109906D01*
X-108639Y209266D01*
D02*
G37*
%LPC*%
G36*
X260000Y-267259D02*
X258007Y-267416D01*
X256063Y-267883D01*
X254216Y-268648D01*
X252511Y-269692D01*
X250991Y-270991D01*
X249692Y-272511D01*
X248648Y-274216D01*
X247883Y-276063D01*
X247416Y-278007D01*
X247259Y-280000D01*
X247416Y-281993D01*
X247883Y-283937D01*
X248648Y-285784D01*
X249692Y-287489D01*
X250991Y-289009D01*
X252511Y-290308D01*
X254216Y-291352D01*
X256063Y-292117D01*
X258007Y-292584D01*
X260000Y-292741D01*
X261993Y-292584D01*
X263937Y-292117D01*
X265784Y-291352D01*
X267489Y-290308D01*
X269009Y-289009D01*
X270308Y-287489D01*
X271352Y-285784D01*
X272117Y-283937D01*
X272584Y-281993D01*
X272741Y-280000D01*
X272584Y-278007D01*
X272117Y-276063D01*
X271352Y-274216D01*
X270308Y-272511D01*
X269009Y-270991D01*
X267489Y-269692D01*
X265784Y-268648D01*
X263937Y-267883D01*
X261993Y-267416D01*
X260000Y-267259D01*
D02*
G37*
G36*
X-256216Y65250D02*
X-263785D01*
X-263751Y64995D01*
X-263363Y64058D01*
X-263256Y63919D01*
X-263499Y62942D01*
X-264338Y62493D01*
X-265522Y61522D01*
X-266493Y60338D01*
X-267214Y58988D01*
X-267659Y57523D01*
X-267809Y56000D01*
X-267659Y54477D01*
X-267307Y53317D01*
X-267726Y52680D01*
X-267878Y52582D01*
X-269000Y52692D01*
X-270891Y52506D01*
X-272709Y51955D01*
X-274385Y51059D01*
X-275853Y49854D01*
X-277059Y48385D01*
X-277955Y46709D01*
X-278506Y44891D01*
X-278692Y43000D01*
X-278506Y41109D01*
X-277955Y39291D01*
X-277059Y37615D01*
X-275853Y36146D01*
X-274385Y34941D01*
X-272709Y34045D01*
X-270891Y33494D01*
X-269000Y33308D01*
X-267109Y33494D01*
X-265291Y34045D01*
X-263615Y34941D01*
X-262146Y36146D01*
X-260941Y37615D01*
X-260045Y39291D01*
X-259494Y41109D01*
X-259308Y43000D01*
X-259494Y44891D01*
X-259502Y44917D01*
X-256209Y48209D01*
X-255357Y49320D01*
X-255083Y49982D01*
X-254478Y50478D01*
X-253507Y51662D01*
X-252785Y53012D01*
X-252341Y54477D01*
X-252191Y56000D01*
X-252341Y57523D01*
X-252785Y58988D01*
X-253507Y60338D01*
X-254478Y61522D01*
X-255662Y62493D01*
X-256501Y62942D01*
X-256744Y63919D01*
X-256637Y64058D01*
X-256249Y64995D01*
X-256216Y65250D01*
D02*
G37*
G36*
X202250Y58250D02*
X197325D01*
X197423Y57506D01*
X198000Y56113D01*
X198917Y54917D01*
X200113Y54000D01*
X201506Y53423D01*
X202250Y53325D01*
Y58250D01*
D02*
G37*
G36*
X-280000Y-267259D02*
X-281993Y-267416D01*
X-283937Y-267883D01*
X-285784Y-268648D01*
X-287489Y-269692D01*
X-289009Y-270991D01*
X-290308Y-272511D01*
X-291352Y-274216D01*
X-292117Y-276063D01*
X-292584Y-278007D01*
X-292741Y-280000D01*
X-292584Y-281993D01*
X-292117Y-283937D01*
X-291352Y-285784D01*
X-290308Y-287489D01*
X-289009Y-289009D01*
X-287489Y-290308D01*
X-285784Y-291352D01*
X-283937Y-292117D01*
X-281993Y-292584D01*
X-280000Y-292741D01*
X-278007Y-292584D01*
X-276063Y-292117D01*
X-274216Y-291352D01*
X-272511Y-290308D01*
X-270991Y-289009D01*
X-269692Y-287489D01*
X-268648Y-285784D01*
X-267883Y-283937D01*
X-267416Y-281993D01*
X-267259Y-280000D01*
X-267416Y-278007D01*
X-267883Y-276063D01*
X-268648Y-274216D01*
X-269692Y-272511D01*
X-270991Y-270991D01*
X-272511Y-269692D01*
X-274216Y-268648D01*
X-276063Y-267883D01*
X-278007Y-267416D01*
X-280000Y-267259D01*
D02*
G37*
G36*
X275590Y-178985D02*
X273288Y-179166D01*
X271043Y-179706D01*
X268910Y-180589D01*
X266941Y-181796D01*
X265185Y-183295D01*
X263685Y-185051D01*
X262479Y-187020D01*
X261595Y-189154D01*
X261056Y-191399D01*
X260875Y-193701D01*
X261056Y-196003D01*
X261595Y-198248D01*
X262479Y-200381D01*
X263685Y-202350D01*
X265185Y-204106D01*
X266941Y-205606D01*
X268910Y-206812D01*
X271043Y-207696D01*
X273288Y-208235D01*
X275590Y-208416D01*
X277893Y-208235D01*
X280138Y-207696D01*
X282271Y-206812D01*
X284240Y-205606D01*
X285996Y-204106D01*
X287496Y-202350D01*
X288702Y-200381D01*
X289586Y-198248D01*
X290125Y-196003D01*
X290306Y-193701D01*
X290125Y-191399D01*
X289586Y-189154D01*
X288702Y-187020D01*
X287496Y-185051D01*
X285996Y-183295D01*
X284240Y-181796D01*
X282271Y-180589D01*
X280138Y-179706D01*
X277893Y-179166D01*
X275590Y-178985D01*
D02*
G37*
G36*
X5250Y-190750D02*
X325D01*
X423Y-191494D01*
X1000Y-192887D01*
X1917Y-194083D01*
X3113Y-195000D01*
X4506Y-195577D01*
X5250Y-195675D01*
Y-190750D01*
D02*
G37*
G36*
X-6750Y-170325D02*
X-7494Y-170423D01*
X-8887Y-171000D01*
X-10083Y-171917D01*
X-11000Y-173113D01*
X-11577Y-174506D01*
X-11675Y-175250D01*
X-6750D01*
Y-170325D01*
D02*
G37*
G36*
X106750Y-45325D02*
Y-50250D01*
X111675D01*
X111577Y-49506D01*
X111000Y-48113D01*
X110083Y-46917D01*
X108887Y-46000D01*
X107494Y-45423D01*
X106750Y-45325D01*
D02*
G37*
G36*
X-275590Y-178985D02*
X-277893Y-179166D01*
X-280138Y-179706D01*
X-282271Y-180589D01*
X-284240Y-181796D01*
X-285996Y-183295D01*
X-287496Y-185051D01*
X-288702Y-187020D01*
X-289586Y-189154D01*
X-290125Y-191399D01*
X-290306Y-193701D01*
X-290125Y-196003D01*
X-289586Y-198248D01*
X-288702Y-200381D01*
X-287496Y-202350D01*
X-285996Y-204106D01*
X-284240Y-205606D01*
X-282271Y-206812D01*
X-280138Y-207696D01*
X-277893Y-208235D01*
X-275590Y-208416D01*
X-273288Y-208235D01*
X-271043Y-207696D01*
X-268910Y-206812D01*
X-266941Y-205606D01*
X-265185Y-204106D01*
X-263685Y-202350D01*
X-262479Y-200381D01*
X-261595Y-198248D01*
X-261056Y-196003D01*
X-260875Y-193701D01*
X-261056Y-191399D01*
X-261595Y-189154D01*
X-262479Y-187020D01*
X-263685Y-185051D01*
X-265185Y-183295D01*
X-266941Y-181796D01*
X-268910Y-180589D01*
X-271043Y-179706D01*
X-273288Y-179166D01*
X-275590Y-178985D01*
D02*
G37*
G36*
X208675Y58250D02*
X203750D01*
Y53325D01*
X204494Y53423D01*
X205887Y54000D01*
X207083Y54917D01*
X208000Y56113D01*
X208577Y57506D01*
X208675Y58250D01*
D02*
G37*
G36*
X-208750Y168250D02*
X-213675D01*
X-213577Y167506D01*
X-213000Y166113D01*
X-212083Y164917D01*
X-210887Y164000D01*
X-209494Y163423D01*
X-208750Y163325D01*
Y168250D01*
D02*
G37*
G36*
Y174675D02*
X-209494Y174577D01*
X-210887Y174000D01*
X-212083Y173083D01*
X-213000Y171887D01*
X-213577Y170494D01*
X-213675Y169750D01*
X-208750D01*
Y174675D01*
D02*
G37*
G36*
X27000Y113692D02*
X25109Y113506D01*
X23291Y112955D01*
X21615Y112059D01*
X20146Y110854D01*
X18941Y109385D01*
X18045Y107709D01*
X17494Y105891D01*
X17308Y104000D01*
X17494Y102109D01*
X18045Y100291D01*
X18941Y98615D01*
X20146Y97146D01*
X21064Y96394D01*
Y95606D01*
X20146Y94854D01*
X18941Y93385D01*
X18045Y91709D01*
X17494Y89891D01*
X17308Y88000D01*
X17494Y86109D01*
X18045Y84291D01*
X18941Y82615D01*
X20146Y81147D01*
X21615Y79941D01*
X23291Y79045D01*
X25109Y78494D01*
X27000Y78308D01*
X28891Y78494D01*
X30709Y79045D01*
X32385Y79941D01*
X33854Y81147D01*
X35059Y82615D01*
X35955Y84291D01*
X36506Y86109D01*
X36692Y88000D01*
X36506Y89891D01*
X35955Y91709D01*
X35059Y93385D01*
X33854Y94854D01*
X32936Y95606D01*
Y96394D01*
X33854Y97146D01*
X35059Y98615D01*
X35955Y100291D01*
X36506Y102109D01*
X36692Y104000D01*
X36506Y105891D01*
X35955Y107709D01*
X35059Y109385D01*
X33854Y110854D01*
X32385Y112059D01*
X30709Y112955D01*
X28891Y113506D01*
X27000Y113692D01*
D02*
G37*
G36*
X-233000Y219692D02*
X-234891Y219506D01*
X-236709Y218955D01*
X-238385Y218059D01*
X-239854Y216853D01*
X-241059Y215385D01*
X-241955Y213709D01*
X-242506Y211891D01*
X-242692Y210000D01*
X-242506Y208109D01*
X-241955Y206291D01*
X-241059Y204615D01*
X-240361Y203765D01*
Y179072D01*
X-240385Y179059D01*
X-241853Y177854D01*
X-243059Y176385D01*
X-243955Y174709D01*
X-244506Y172891D01*
X-244692Y171000D01*
X-244506Y169109D01*
X-243955Y167291D01*
X-243059Y165615D01*
X-241853Y164146D01*
X-240385Y162941D01*
X-238709Y162045D01*
X-236891Y161494D01*
X-235000Y161308D01*
X-233109Y161494D01*
X-231291Y162045D01*
X-229615Y162941D01*
X-228147Y164146D01*
X-226941Y165615D01*
X-226045Y167291D01*
X-225494Y169109D01*
X-225308Y171000D01*
X-225494Y172891D01*
X-226045Y174709D01*
X-226941Y176385D01*
X-228147Y177854D01*
X-229615Y179059D01*
X-229639Y179072D01*
Y200940D01*
X-229291Y201045D01*
X-227615Y201941D01*
X-226147Y203147D01*
X-224941Y204615D01*
X-224045Y206291D01*
X-223494Y208109D01*
X-223308Y210000D01*
X-223494Y211891D01*
X-224045Y213709D01*
X-224941Y215385D01*
X-226147Y216853D01*
X-227615Y218059D01*
X-229291Y218955D01*
X-231109Y219506D01*
X-233000Y219692D01*
D02*
G37*
G36*
X-207250Y174675D02*
Y169750D01*
X-202325D01*
X-202423Y170494D01*
X-203000Y171887D01*
X-203917Y173083D01*
X-205113Y174000D01*
X-206506Y174577D01*
X-207250Y174675D01*
D02*
G37*
G36*
X181260Y276802D02*
X179543Y276633D01*
X177891Y276132D01*
X176370Y275319D01*
X175036Y274224D01*
X173941Y272890D01*
X173128Y271369D01*
X172627Y269717D01*
X172458Y268000D01*
X172627Y266283D01*
X173128Y264632D01*
X173941Y263110D01*
X175036Y261776D01*
X176370Y260681D01*
X177891Y259868D01*
X179543Y259367D01*
X181260Y259198D01*
X182977Y259367D01*
X184628Y259868D01*
X186150Y260681D01*
X187484Y261776D01*
X188579Y263110D01*
X189392Y264632D01*
X189893Y266283D01*
X190062Y268000D01*
X189893Y269717D01*
X189392Y271369D01*
X188579Y272890D01*
X187484Y274224D01*
X186150Y275319D01*
X184628Y276132D01*
X182977Y276633D01*
X181260Y276802D01*
D02*
G37*
G36*
X-280000Y292741D02*
X-281993Y292584D01*
X-283937Y292117D01*
X-285784Y291352D01*
X-287489Y290308D01*
X-289009Y289009D01*
X-290308Y287489D01*
X-291352Y285784D01*
X-292117Y283937D01*
X-292584Y281993D01*
X-292741Y280000D01*
X-292584Y278007D01*
X-292117Y276063D01*
X-291352Y274216D01*
X-290308Y272511D01*
X-289009Y270991D01*
X-287489Y269692D01*
X-285784Y268648D01*
X-283937Y267883D01*
X-281993Y267416D01*
X-280000Y267259D01*
X-278007Y267416D01*
X-276063Y267883D01*
X-274216Y268648D01*
X-272511Y269692D01*
X-270991Y270991D01*
X-269692Y272511D01*
X-268648Y274216D01*
X-267883Y276063D01*
X-267416Y278007D01*
X-267259Y280000D01*
X-267416Y281993D01*
X-267883Y283937D01*
X-268648Y285784D01*
X-269692Y287489D01*
X-270991Y289009D01*
X-272511Y290308D01*
X-274216Y291352D01*
X-276063Y292117D01*
X-278007Y292584D01*
X-280000Y292741D01*
D02*
G37*
G36*
X-208750Y207250D02*
X-213675D01*
X-213577Y206506D01*
X-213000Y205113D01*
X-212083Y203917D01*
X-210887Y203000D01*
X-209494Y202423D01*
X-208750Y202325D01*
Y207250D01*
D02*
G37*
G36*
X-202325D02*
X-207250D01*
Y202325D01*
X-206506Y202423D01*
X-205113Y203000D01*
X-203917Y203917D01*
X-203000Y205113D01*
X-202423Y206506D01*
X-202325Y207250D01*
D02*
G37*
G36*
X-226000Y103692D02*
X-227891Y103506D01*
X-229709Y102955D01*
X-231385Y102059D01*
X-232854Y100854D01*
X-234059Y99385D01*
X-234955Y97709D01*
X-235506Y95891D01*
X-235692Y94000D01*
X-235506Y92109D01*
X-234955Y90291D01*
X-234059Y88615D01*
X-232854Y87147D01*
X-231385Y85941D01*
X-231361Y85928D01*
Y85000D01*
X-231178Y83613D01*
X-230643Y82320D01*
X-229791Y81209D01*
X-221813Y73232D01*
X-221821Y73206D01*
X-222007Y71315D01*
X-221821Y69424D01*
X-221269Y67606D01*
X-220374Y65930D01*
X-219168Y64461D01*
X-217700Y63256D01*
X-216024Y62360D01*
X-214206Y61809D01*
X-212315Y61623D01*
X-210424Y61809D01*
X-208606Y62360D01*
X-206930Y63256D01*
X-205461Y64461D01*
X-204256Y65930D01*
X-203360Y67606D01*
X-202809Y69424D01*
X-202623Y71315D01*
X-202809Y73206D01*
X-203360Y75024D01*
X-204256Y76700D01*
X-205461Y78168D01*
X-206930Y79374D01*
X-208606Y80270D01*
X-210424Y80821D01*
X-212315Y81007D01*
X-214206Y80821D01*
X-214232Y80813D01*
X-219511Y86093D01*
X-219472Y86879D01*
X-219146Y87147D01*
X-217941Y88615D01*
X-217045Y90291D01*
X-216494Y92109D01*
X-216308Y94000D01*
X-216494Y95891D01*
X-217045Y97709D01*
X-217941Y99385D01*
X-219146Y100854D01*
X-220615Y102059D01*
X-222291Y102955D01*
X-224109Y103506D01*
X-226000Y103692D01*
D02*
G37*
G36*
X153250Y67250D02*
X148325D01*
X148423Y66506D01*
X149000Y65113D01*
X149917Y63917D01*
X151113Y63000D01*
X152506Y62423D01*
X153250Y62325D01*
Y67250D01*
D02*
G37*
G36*
X202250Y64675D02*
X201506Y64577D01*
X200113Y64000D01*
X198917Y63083D01*
X198000Y61887D01*
X197423Y60494D01*
X197325Y59750D01*
X202250D01*
Y64675D01*
D02*
G37*
G36*
X203750D02*
Y59750D01*
X208675D01*
X208577Y60494D01*
X208000Y61887D01*
X207083Y63083D01*
X205887Y64000D01*
X204494Y64577D01*
X203750Y64675D01*
D02*
G37*
G36*
X159675Y67250D02*
X154750D01*
Y62325D01*
X155494Y62423D01*
X156887Y63000D01*
X158083Y63917D01*
X159000Y65113D01*
X159577Y66506D01*
X159675Y67250D01*
D02*
G37*
G36*
X153250Y73675D02*
X152506Y73577D01*
X151113Y73000D01*
X149917Y72083D01*
X149000Y70887D01*
X148423Y69494D01*
X148325Y68750D01*
X153250D01*
Y73675D01*
D02*
G37*
G36*
X154750D02*
Y68750D01*
X159675D01*
X159577Y69494D01*
X159000Y70887D01*
X158083Y72083D01*
X156887Y73000D01*
X155494Y73577D01*
X154750Y73675D01*
D02*
G37*
G36*
X-260750Y69784D02*
X-261005Y69751D01*
X-261942Y69363D01*
X-262746Y68746D01*
X-263363Y67942D01*
X-263751Y67005D01*
X-263785Y66750D01*
X-260750D01*
Y69784D01*
D02*
G37*
G36*
X-259250D02*
Y66750D01*
X-256216D01*
X-256249Y67005D01*
X-256637Y67942D01*
X-257254Y68746D01*
X-258058Y69363D01*
X-258995Y69751D01*
X-259250Y69784D01*
D02*
G37*
%LPD*%
D13*
X-14000Y160350D02*
D03*
Y159650D02*
D03*
D17*
X290000Y-290000D02*
D03*
X-280000Y250000D02*
D03*
D51*
X85000Y-143000D02*
X85100Y-142900D01*
X82000Y-143000D02*
X85000D01*
X69000Y-130000D02*
X82000Y-143000D01*
X59000Y-70000D02*
X60000Y-71000D01*
X30000Y-60000D02*
X60000D01*
X95350Y-155500D02*
X114000D01*
X95350Y-110900D02*
X114000D01*
X95350Y-133200D02*
X114000D01*
X-30000Y-260000D02*
Y-259000D01*
Y-260000D02*
X-11000D01*
X-10000Y-259000D01*
X-30000Y-280000D02*
X-10661D01*
X-10000Y-280661D01*
X-30000Y-270000D02*
X-14000D01*
X-2000Y-281570D02*
Y-220000D01*
X-7391Y-286961D02*
X-2000Y-281570D01*
X-10961Y-286961D02*
X-7391D01*
X-15000Y-291000D02*
X-10961Y-286961D01*
X95350Y-200100D02*
X114000D01*
X95350Y-177800D02*
X114000D01*
X30000Y-270000D02*
X50748D01*
X56000Y-264748D01*
X30000Y-280000D02*
X34622Y-275378D01*
X56000D01*
X42094Y-247905D02*
X88446D01*
X34063Y-245937D02*
X87631D01*
X33968Y-243969D02*
X86815D01*
X42000Y-242000D02*
X86000D01*
X18000Y-182000D02*
X30000Y-170000D01*
X18000Y-188000D02*
Y-182000D01*
X26000Y-210000D02*
X30000D01*
X6000Y-190000D02*
X26000Y-210000D01*
X6000Y-184000D02*
X30000Y-160000D01*
X6000Y-191000D02*
Y-184000D01*
Y-191000D02*
X7000D01*
X85100Y-187700D02*
X95350D01*
X30000Y-200000D02*
X72800D01*
X85000Y-187800D01*
X85100Y-164900D02*
X95350D01*
X30000Y-140000D02*
X65000D01*
X85000Y-160000D01*
Y-165000D02*
Y-160000D01*
X85100Y-142900D02*
X95350D01*
X30000Y-130000D02*
X69000D01*
X30000Y-90000D02*
X46000D01*
X77000Y-121000D01*
X85000D01*
Y-210000D02*
X85100Y-209900D01*
X95350D01*
X85000Y-187800D02*
X85100Y-187700D01*
X85000Y-165000D02*
X85100Y-164900D01*
Y-120900D02*
X95350D01*
X85000Y-121000D02*
X85100Y-120900D01*
X-40000Y-180000D02*
X-30000D01*
X-42000Y-182000D02*
X-40000Y-180000D01*
X-42000Y-183000D02*
Y-182000D01*
Y-172000D02*
X-32000D01*
X-30000Y-170000D01*
X-42000Y-161000D02*
X-31000D01*
X24000Y-60000D02*
X30000D01*
X9000D02*
X24000D01*
X17000Y-53000D02*
X24000Y-60000D01*
X18000Y-150000D02*
X30000D01*
X-45000Y-230000D02*
X-30000D01*
Y-40000D02*
Y-39000D01*
X-46000Y-23000D02*
X-30000Y-39000D01*
X-46000Y-50000D02*
X-30000D01*
X-41000Y-150000D02*
X-30000D01*
X-41103Y-149897D02*
X-41000Y-150000D01*
X-38206Y-120000D02*
X-30000D01*
X-41103Y-117103D02*
X-38206Y-120000D01*
X30000Y-260000D02*
X42094Y-247905D01*
X30000Y-250000D02*
X34063Y-245937D01*
X30000Y-240000D02*
X33968Y-243969D01*
X30000Y-230000D02*
X42000Y-242000D01*
X203968Y-41228D02*
X214446D01*
X81000Y81740D02*
X203968Y-41228D01*
X81000Y81740D02*
Y151000D01*
X119000Y220000D02*
X135757Y236757D01*
X119000Y164000D02*
Y220000D01*
X83000Y128000D02*
X119000Y164000D01*
X83000Y82524D02*
Y128000D01*
Y82524D02*
X204784Y-39260D01*
X229000Y150198D02*
Y258000D01*
X239000Y94000D02*
Y136500D01*
X230039Y145461D02*
X239000Y136500D01*
X228000Y83000D02*
X239000Y94000D01*
X230039Y145461D02*
Y149158D01*
X229000Y150198D02*
X230039Y149158D01*
X147000Y83000D02*
X228000D01*
X132000Y68000D02*
X147000Y83000D01*
X145391Y25701D02*
X146438Y24654D01*
X132000Y39092D02*
X145391Y25701D01*
X132000Y39092D02*
Y68000D01*
X145391Y25701D02*
X145391D01*
X146438Y24654D02*
X206414Y-35323D01*
X146438Y24654D02*
X146438D01*
X146438D02*
X146438Y24654D01*
X190917Y96917D02*
Y123083D01*
X178969Y84969D02*
X190917Y96917D01*
X130032Y68815D02*
X146185Y84969D01*
X178969D01*
X130032Y38276D02*
Y68815D01*
Y38276D02*
X144469Y23839D01*
Y23839D02*
Y23839D01*
Y23839D02*
X205599Y-37291D01*
X88446Y-247905D02*
X241905Y-94446D01*
Y-60336D01*
X87631Y-245937D02*
X239937Y-93631D01*
X86815Y-243969D02*
X237968Y-92815D01*
X86000Y-242000D02*
X236000Y-92000D01*
Y-62782D01*
X216892Y-35323D02*
X241905Y-60336D01*
X206414Y-35323D02*
X216892D01*
X239937Y-93631D02*
Y-61151D01*
X216077Y-37291D02*
X239937Y-61151D01*
X205599Y-37291D02*
X216077D01*
X237968Y-92815D02*
Y-61967D01*
X215262Y-39260D02*
X237968Y-61967D01*
X204784Y-39260D02*
X215262D01*
X214446Y-41228D02*
X236000Y-62782D01*
X114000Y252000D02*
X132000Y270000D01*
X100000Y238000D02*
X114000Y252000D01*
X125000Y286000D02*
X132000Y279000D01*
Y270000D02*
Y279000D01*
X88200Y247200D02*
X115000Y274000D01*
X204000Y17000D02*
Y35000D01*
X127000Y82000D02*
X133000Y88000D01*
X108000Y82000D02*
X127000D01*
X133000Y88000D02*
Y112000D01*
X100000Y186000D02*
Y238000D01*
X114000Y252000D02*
X184000D01*
X218000Y218000D01*
X219000D01*
X220000Y217000D01*
Y145000D02*
Y217000D01*
X68700Y262300D02*
X92400Y286000D01*
X125000D01*
X68500Y247200D02*
X88200D01*
X204000Y35000D02*
X294000Y125000D01*
Y293000D01*
X291000Y296000D02*
X294000Y293000D01*
X-239000Y296000D02*
X291000D01*
X-248000Y287000D02*
X-239000Y296000D01*
X-248000Y254000D02*
Y287000D01*
X-285000Y217000D02*
X-248000Y254000D01*
X-285000Y158000D02*
Y217000D01*
Y130000D02*
Y158000D01*
Y130000D02*
X-259250Y104250D01*
Y87250D02*
Y104250D01*
X-269000Y43000D02*
X-260000Y52000D01*
Y56000D01*
X28000Y-122000D02*
X30000Y-120000D01*
X16000Y-122000D02*
X28000D01*
X39483Y-170517D02*
Y-155517D01*
X-58000Y97000D02*
Y109000D01*
X-69647Y85353D02*
X-58000Y97000D01*
X28000Y-98000D02*
X30000Y-100000D01*
X17000Y-98000D02*
X28000D01*
X18000Y-110000D02*
X30000D01*
X17000Y-109000D02*
X18000Y-110000D01*
X-38000Y87000D02*
X-13650Y111350D01*
Y160145D01*
X-13855Y160350D02*
X-13650Y160145D01*
X-14000Y160350D02*
X-13855D01*
X-38600Y201400D02*
X-31000Y193800D01*
X30000Y-190000D02*
X47000Y-173000D01*
Y-148000D01*
X30000Y-180000D02*
X39483Y-170517D01*
X202000Y-54000D02*
X213000D01*
X27000Y88000D02*
Y104000D01*
X90000Y100000D02*
X108000Y82000D01*
X121500Y159500D02*
X129000Y167000D01*
X121500Y97000D02*
Y159500D01*
X-212000Y26000D02*
X-96000Y-90000D01*
X-30000D01*
X-200000Y47000D02*
X-73000Y-80000D01*
X-30000D01*
X148000Y0D02*
X202000Y-54000D01*
X30000Y0D02*
X148000D01*
X201000Y-65000D02*
X222000D01*
X146000Y-10000D02*
X201000Y-65000D01*
X30000Y-10000D02*
X146000D01*
X-30000Y-200000D02*
X-6000Y-176000D01*
X54000Y-45000D02*
X66000D01*
X35000D02*
X53701D01*
X38701Y-51299D02*
X56609D01*
X30000Y-60000D02*
X38701Y-51299D01*
X57908Y-50000D02*
X92000D01*
X56609Y-51299D02*
X57908Y-50000D01*
X154000Y68000D02*
X158000Y72000D01*
X190000D01*
X203000Y59000D01*
X256000Y-1000D02*
Y44535D01*
X242535Y58000D02*
X256000Y44535D01*
X179000Y53000D02*
Y60000D01*
Y53000D02*
X194000Y38000D01*
X84948Y-32948D02*
X92000Y-40000D01*
X83948Y-32948D02*
X84948D01*
X93649Y-26649D02*
X97325Y-30325D01*
X81339Y-26649D02*
X93649D01*
X77649Y-30339D02*
X81339Y-26649D01*
X77649Y-33351D02*
Y-30339D01*
X66000Y-45000D02*
X77649Y-33351D01*
X97325Y-54675D02*
Y-30325D01*
X92000Y-80000D02*
X104000D01*
X106000Y-82000D01*
X101000Y-51000D02*
X106000D01*
X97325Y-54675D02*
X101000Y-51000D01*
X92000Y-70000D02*
X99000D01*
X106500Y-62500D01*
X30000Y-80000D02*
X32000Y-82000D01*
X60000D01*
X30000Y-70000D02*
X59000D01*
X30000Y-30000D02*
X31000Y-31000D01*
X58000D01*
X30000Y-50000D02*
X35000Y-45000D01*
X92000Y-60000D02*
X97325Y-54675D01*
X-11000Y-211000D02*
X-2000Y-220000D01*
X30000D01*
X-10000Y-60000D02*
X9000D01*
X-30000Y-230000D02*
X-11000Y-211000D01*
Y-191000D01*
X30000Y-150000D01*
X9000Y-129000D02*
X30000Y-150000D01*
X9000Y-129000D02*
Y-60000D01*
X-30000Y-40000D02*
X-10000Y-60000D01*
X148000Y32000D02*
X163000Y17000D01*
X204000D01*
X-213000Y134000D02*
X-207260Y128260D01*
Y108260D02*
Y128260D01*
X-198000Y163800D02*
X-192000Y169800D01*
X-198000Y117480D02*
Y163800D01*
Y117480D02*
X-189260Y108740D01*
X-208000Y169000D02*
Y208000D01*
X-192000Y169800D02*
Y193000D01*
X-235000Y208000D02*
X-233000Y210000D01*
X-235000Y171000D02*
Y208000D01*
X-192000Y193000D02*
X-177000Y208000D01*
X-188000Y184500D02*
X-177500Y195000D01*
X-188000Y148000D02*
Y184500D01*
X-186031Y172669D02*
X-178100Y180600D01*
X-186031Y152032D02*
Y172669D01*
X-226000Y85000D02*
Y94000D01*
Y85000D02*
X-212315Y71315D01*
X164000Y115000D02*
Y236000D01*
Y115000D02*
X179400Y99600D01*
X221000Y100000D02*
Y113000D01*
X175000Y159000D02*
X221000Y113000D01*
X-285000Y158000D02*
X-268000D01*
X-283750Y243750D02*
X-276250Y236250D01*
X-283750D02*
X-276250Y243750D01*
X286250Y-276250D02*
X293750Y-283750D01*
X286250D02*
X293750Y-276250D01*
X-12060Y247200D02*
X68500D01*
X-22000Y237260D02*
X-12060Y247200D01*
X-9560Y262300D02*
X68700D01*
X-22000Y274740D02*
X-9560Y262300D01*
X-145000Y158500D02*
X-102100Y201400D01*
X-176500Y158500D02*
X-145000D01*
X-155700Y115700D02*
X-124700D01*
X-155999Y121999D02*
X-67001D01*
X-31000Y158000D02*
Y193800D01*
X-186031Y152032D02*
X-155999Y121999D01*
X-188000Y148000D02*
X-155700Y115700D01*
X-187000Y131000D02*
X-165401Y109401D01*
X-68599D01*
X-67001Y121999D02*
X-31000Y158000D01*
X-68599Y109401D02*
X-38100Y139900D01*
D60*
X-275590Y-193701D02*
D03*
X275590D02*
D03*
D61*
X280000Y280000D02*
D03*
X-280000D02*
D03*
X260000Y-280000D02*
D03*
X-280000D02*
D03*
D62*
X85000Y-143000D02*
D03*
X60000Y-71000D02*
D03*
Y-60000D02*
D03*
X114000Y-155500D02*
D03*
Y-110900D02*
D03*
Y-133200D02*
D03*
X-10000Y-259000D02*
D03*
X-10000Y-280661D02*
D03*
X-14000Y-270000D02*
D03*
X-15000Y-291000D02*
D03*
X114000Y-200100D02*
D03*
Y-177800D02*
D03*
X56000Y-264748D02*
D03*
Y-275378D02*
D03*
X18000Y-188000D02*
D03*
X6000Y-190000D02*
D03*
X85000Y-210000D02*
D03*
Y-187800D02*
D03*
Y-165000D02*
D03*
Y-121000D02*
D03*
X-42000Y-183000D02*
D03*
Y-172000D02*
D03*
Y-161000D02*
D03*
X17000Y-53000D02*
D03*
X18000Y-150000D02*
D03*
X-45000Y-230000D02*
D03*
X-46000Y-23000D02*
D03*
Y-50000D02*
D03*
X-41103Y-149897D02*
D03*
Y-117103D02*
D03*
X81000Y151000D02*
D03*
X135757Y236757D02*
D03*
X229000Y258000D02*
D03*
X190917Y123083D02*
D03*
X114000Y252000D02*
D03*
X115000Y274000D02*
D03*
X100000Y186000D02*
D03*
X218000Y218000D02*
D03*
X220000Y145000D02*
D03*
X-269000Y43000D02*
D03*
X16000Y-122000D02*
D03*
X39483Y-155517D02*
D03*
X-58000Y109000D02*
D03*
X-69647Y85353D02*
D03*
X17000Y-98000D02*
D03*
Y-109000D02*
D03*
X-38000Y87000D02*
D03*
X-38600Y201400D02*
D03*
X47000Y-148000D02*
D03*
X27000Y88000D02*
D03*
Y104000D02*
D03*
X133000Y112000D02*
D03*
X90000Y100000D02*
D03*
X121500Y97000D02*
D03*
X-212000Y26000D02*
D03*
X-200000Y47000D02*
D03*
X214000Y-54000D02*
D03*
X222000Y-65000D02*
D03*
X-6000Y-176000D02*
D03*
X54000Y-45000D02*
D03*
X154000Y68000D02*
D03*
X203000Y59000D02*
D03*
X242535Y58000D02*
D03*
X256000Y-1000D02*
D03*
X179000Y60000D02*
D03*
X194000Y38000D02*
D03*
X83948Y-32948D02*
D03*
X106000Y-82000D02*
D03*
Y-51000D02*
D03*
X106500Y-62500D02*
D03*
X60000Y-82000D02*
D03*
X59000Y-31000D02*
D03*
X148000Y32000D02*
D03*
X204000Y17000D02*
D03*
X-213000Y134000D02*
D03*
X-208000Y208000D02*
D03*
Y169000D02*
D03*
X-233000Y210000D02*
D03*
X-235000Y171000D02*
D03*
X-177000Y208000D02*
D03*
X-178100Y180600D02*
D03*
X-177500Y195000D02*
D03*
X-189260Y108740D02*
D03*
X-226000Y94000D02*
D03*
X-212315Y71315D02*
D03*
X-207260Y108260D02*
D03*
X129000Y167000D02*
D03*
X164000Y236000D02*
D03*
X179400Y99600D02*
D03*
X221000Y100000D02*
D03*
X175000Y159000D02*
D03*
X-268000Y158000D02*
D03*
X-285000D02*
D03*
X68700Y262300D02*
D03*
X68500Y247200D02*
D03*
X-154724Y267717D02*
D03*
X-102100Y201400D02*
D03*
X-176500Y158500D02*
D03*
X-124700Y115700D02*
D03*
X-50500Y230500D02*
D03*
Y167500D02*
D03*
X-187000Y131000D02*
D03*
X-38100Y139900D02*
D03*
X-20000Y141000D02*
D03*
X-27000Y211000D02*
D03*
D63*
X-181260Y268000D02*
X-155008D01*
X-154724Y267717D01*
X-218740Y249240D02*
Y268000D01*
Y249240D02*
X-201500Y232000D01*
X-79694Y196695D02*
X-50500Y167500D01*
X-79694Y196695D02*
Y210681D01*
X-100000Y230986D02*
X-79694Y210681D01*
X-201500Y232000D02*
X-52000D01*
D64*
X-259250Y87250D02*
D03*
Y79750D02*
D03*
X-260000Y56000D02*
D03*
Y66000D02*
D03*
D65*
X92000Y-40000D02*
D03*
X95350Y-177800D02*
D03*
Y-200100D02*
D03*
Y-155500D02*
D03*
Y-110900D02*
D03*
Y-133200D02*
D03*
D66*
X92000Y-50000D02*
D03*
Y-60000D02*
D03*
Y-70000D02*
D03*
Y-80000D02*
D03*
X95350Y-187800D02*
D03*
Y-210100D02*
D03*
Y-165500D02*
D03*
Y-120900D02*
D03*
Y-143200D02*
D03*
D67*
X-30000Y-280000D02*
D03*
Y-270000D02*
D03*
Y-260000D02*
D03*
Y-250000D02*
D03*
Y-240000D02*
D03*
Y-230000D02*
D03*
Y-220000D02*
D03*
Y-210000D02*
D03*
Y-200000D02*
D03*
Y-190000D02*
D03*
Y-180000D02*
D03*
Y-170000D02*
D03*
Y-160000D02*
D03*
Y-150000D02*
D03*
Y-140000D02*
D03*
Y-130000D02*
D03*
Y-120000D02*
D03*
Y-110000D02*
D03*
Y-100000D02*
D03*
Y-90000D02*
D03*
Y-80000D02*
D03*
Y-70000D02*
D03*
Y-60000D02*
D03*
Y-50000D02*
D03*
Y-40000D02*
D03*
Y-30000D02*
D03*
Y-20000D02*
D03*
Y-10000D02*
D03*
Y0D02*
D03*
Y10000D02*
D03*
Y20000D02*
D03*
X30000Y-280000D02*
D03*
Y-270000D02*
D03*
Y-260000D02*
D03*
Y-250000D02*
D03*
Y-240000D02*
D03*
Y-230000D02*
D03*
Y-220000D02*
D03*
Y-210000D02*
D03*
Y-200000D02*
D03*
Y-190000D02*
D03*
Y-180000D02*
D03*
Y-170000D02*
D03*
Y-160000D02*
D03*
Y-150000D02*
D03*
Y-140000D02*
D03*
Y-130000D02*
D03*
Y-120000D02*
D03*
Y-110000D02*
D03*
Y-100000D02*
D03*
Y-90000D02*
D03*
Y-80000D02*
D03*
Y-70000D02*
D03*
Y-60000D02*
D03*
Y-50000D02*
D03*
Y-40000D02*
D03*
Y-30000D02*
D03*
Y-20000D02*
D03*
Y-10000D02*
D03*
Y0D02*
D03*
Y10000D02*
D03*
Y20000D02*
D03*
X-30000Y30000D02*
D03*
X30000D02*
D03*
D68*
X-22000Y162299D02*
D03*
Y199779D02*
D03*
Y274740D02*
D03*
Y237260D02*
D03*
X218740Y268000D02*
D03*
X181260D02*
D03*
X-218740D02*
D03*
X-181260D02*
D03*
M02*
