%FSLAX25Y25*%
%MOIN*%
G70*
G01*
G75*
G04 Layer_Physical_Order=1*
G04 Layer_Color=255*
%ADD10R,0.04500X0.05300*%
%ADD11R,0.05118X0.10630*%
%ADD12R,0.10630X0.05118*%
%ADD13O,0.00700X0.01400*%
%ADD14O,0.01400X0.00700*%
%ADD15R,0.01772X0.04134*%
%ADD16R,0.07000X0.03000*%
%ADD17C,0.04921*%
%ADD18R,0.03000X0.04100*%
%ADD19R,0.04100X0.03000*%
%ADD20R,0.06890X0.10433*%
%ADD21R,0.10433X0.06890*%
%ADD22R,0.06299X0.03150*%
%ADD23R,0.03000X0.07000*%
G04:AMPARAMS|DCode=24|XSize=43.31mil|YSize=39.37mil|CornerRadius=0mil|HoleSize=0mil|Usage=FLASHONLY|Rotation=0.000|XOffset=0mil|YOffset=0mil|HoleType=Round|Shape=RoundedRectangle|*
%AMROUNDEDRECTD24*
21,1,0.04331,0.03937,0,0,0.0*
21,1,0.04331,0.03937,0,0,0.0*
1,1,0.00000,0.02165,-0.01969*
1,1,0.00000,-0.02165,-0.01969*
1,1,0.00000,-0.02165,0.01969*
1,1,0.00000,0.02165,0.01969*
%
%ADD24ROUNDEDRECTD24*%
G04:AMPARAMS|DCode=25|XSize=118.11mil|YSize=61.02mil|CornerRadius=0mil|HoleSize=0mil|Usage=FLASHONLY|Rotation=90.000|XOffset=0mil|YOffset=0mil|HoleType=Round|Shape=RoundedRectangle|*
%AMROUNDEDRECTD25*
21,1,0.11811,0.06102,0,0,90.0*
21,1,0.11811,0.06102,0,0,90.0*
1,1,0.00000,0.03051,0.05906*
1,1,0.00000,0.03051,-0.05906*
1,1,0.00000,-0.03051,-0.05906*
1,1,0.00000,-0.03051,0.05906*
%
%ADD25ROUNDEDRECTD25*%
%ADD26R,0.09000X0.05000*%
%ADD27R,0.10000X0.15000*%
%ADD28R,0.10236X0.13976*%
%ADD29R,0.13976X0.10236*%
%ADD30R,0.07795X0.02087*%
G04:AMPARAMS|DCode=31|XSize=20.87mil|YSize=77.95mil|CornerRadius=0mil|HoleSize=0mil|Usage=FLASHONLY|Rotation=270.000|XOffset=0mil|YOffset=0mil|HoleType=Round|Shape=Octagon|*
%AMOCTAGOND31*
4,1,8,0.03898,0.00522,0.03898,-0.00522,0.03376,-0.01043,-0.03376,-0.01043,-0.03898,-0.00522,-0.03898,0.00522,-0.03376,0.01043,0.03376,0.01043,0.03898,0.00522,0.0*
%
%ADD31OCTAGOND31*%

%ADD32R,0.07874X0.21260*%
%ADD33R,0.10300X0.06200*%
%ADD34R,0.22000X0.21400*%
%ADD35R,0.10400X0.06200*%
%ADD36R,0.21260X0.07874*%
%ADD37R,0.06200X0.10300*%
%ADD38R,0.21400X0.22000*%
%ADD39R,0.06200X0.10400*%
%ADD40R,0.19685X0.02992*%
%ADD41R,0.17716X0.34646*%
%ADD42R,0.03150X0.06299*%
%ADD43R,0.05500X0.04500*%
%ADD44C,0.05000*%
%ADD45R,0.07800X0.07000*%
%ADD46R,0.07800X0.07000*%
%ADD47R,0.05906X0.05906*%
%ADD48R,0.05906X0.05906*%
G04:AMPARAMS|DCode=49|XSize=43.31mil|YSize=39.37mil|CornerRadius=0mil|HoleSize=0mil|Usage=FLASHONLY|Rotation=90.000|XOffset=0mil|YOffset=0mil|HoleType=Round|Shape=RoundedRectangle|*
%AMROUNDEDRECTD49*
21,1,0.04331,0.03937,0,0,90.0*
21,1,0.04331,0.03937,0,0,90.0*
1,1,0.00000,0.01969,0.02165*
1,1,0.00000,0.01969,-0.02165*
1,1,0.00000,-0.01969,-0.02165*
1,1,0.00000,-0.01969,0.02165*
%
%ADD49ROUNDEDRECTD49*%
%ADD50C,0.03500*%
%ADD51C,0.00787*%
%ADD52C,0.01000*%
%ADD53R,0.19000X0.12392*%
%ADD54R,0.22666X0.07400*%
%ADD55R,0.29000X0.26000*%
%ADD56R,0.48000X0.07000*%
%ADD57R,0.11000X0.11000*%
%ADD58R,0.24969X0.14000*%
%ADD59R,0.38642X0.24252*%
%ADD60C,0.15748*%
%ADD61C,0.11811*%
%ADD62C,0.09449*%
G36*
X300000Y-300000D02*
X-300000D01*
Y300000D01*
X300000D01*
Y-300000D01*
D02*
G37*
%LPC*%
G36*
X95350Y-129891D02*
X94494Y-130003D01*
X93695Y-130334D01*
X93010Y-130860D01*
X92484Y-131545D01*
X92153Y-132343D01*
X92041Y-133200D01*
X92153Y-134056D01*
X92484Y-134855D01*
X93010Y-135540D01*
X93695Y-136066D01*
X94494Y-136397D01*
X95350Y-136509D01*
X96207Y-136397D01*
X97005Y-136066D01*
X97690Y-135540D01*
X98216Y-134855D01*
X98547Y-134056D01*
X98659Y-133200D01*
X98547Y-132343D01*
X98216Y-131545D01*
X97690Y-130860D01*
X97005Y-130334D01*
X96207Y-130003D01*
X95350Y-129891D01*
D02*
G37*
G36*
X-30000Y-126784D02*
X-30832Y-126893D01*
X-31608Y-127214D01*
X-32274Y-127726D01*
X-32786Y-128392D01*
X-33107Y-129167D01*
X-33217Y-130000D01*
X-33107Y-130833D01*
X-32786Y-131608D01*
X-32274Y-132274D01*
X-31608Y-132786D01*
X-30832Y-133107D01*
X-30000Y-133217D01*
X-29168Y-133107D01*
X-28392Y-132786D01*
X-27726Y-132274D01*
X-27214Y-131608D01*
X-26893Y-130833D01*
X-26783Y-130000D01*
X-26893Y-129167D01*
X-27214Y-128392D01*
X-27726Y-127726D01*
X-28392Y-127214D01*
X-29168Y-126893D01*
X-30000Y-126784D01*
D02*
G37*
G36*
X30000D02*
X29168Y-126893D01*
X28392Y-127214D01*
X27726Y-127726D01*
X27214Y-128392D01*
X26893Y-129167D01*
X26783Y-130000D01*
X26893Y-130833D01*
X27214Y-131608D01*
X27726Y-132274D01*
X28392Y-132786D01*
X29168Y-133107D01*
X30000Y-133217D01*
X30832Y-133107D01*
X31608Y-132786D01*
X32274Y-132274D01*
X32786Y-131608D01*
X33107Y-130833D01*
X33217Y-130000D01*
X33107Y-129167D01*
X32786Y-128392D01*
X32274Y-127726D01*
X31608Y-127214D01*
X30832Y-126893D01*
X30000Y-126784D01*
D02*
G37*
G36*
X95350Y-139891D02*
X94494Y-140003D01*
X93695Y-140334D01*
X93010Y-140860D01*
X92484Y-141545D01*
X92153Y-142343D01*
X92041Y-143200D01*
X92153Y-144056D01*
X92484Y-144855D01*
X93010Y-145540D01*
X93695Y-146066D01*
X94494Y-146397D01*
X95350Y-146509D01*
X96207Y-146397D01*
X97005Y-146066D01*
X97690Y-145540D01*
X98216Y-144855D01*
X98547Y-144056D01*
X98659Y-143200D01*
X98547Y-142343D01*
X98216Y-141545D01*
X97690Y-140860D01*
X97005Y-140334D01*
X96207Y-140003D01*
X95350Y-139891D01*
D02*
G37*
G36*
X-30000Y-136784D02*
X-30832Y-136893D01*
X-31608Y-137214D01*
X-32274Y-137726D01*
X-32786Y-138392D01*
X-33107Y-139167D01*
X-33217Y-140000D01*
X-33107Y-140832D01*
X-32786Y-141608D01*
X-32274Y-142274D01*
X-31608Y-142786D01*
X-30832Y-143107D01*
X-30000Y-143217D01*
X-29168Y-143107D01*
X-28392Y-142786D01*
X-27726Y-142274D01*
X-27214Y-141608D01*
X-26893Y-140832D01*
X-26783Y-140000D01*
X-26893Y-139167D01*
X-27214Y-138392D01*
X-27726Y-137726D01*
X-28392Y-137214D01*
X-29168Y-136893D01*
X-30000Y-136784D01*
D02*
G37*
G36*
X30000D02*
X29168Y-136893D01*
X28392Y-137214D01*
X27726Y-137726D01*
X27214Y-138392D01*
X26893Y-139167D01*
X26783Y-140000D01*
X26893Y-140832D01*
X27214Y-141608D01*
X27726Y-142274D01*
X28392Y-142786D01*
X29168Y-143107D01*
X30000Y-143217D01*
X30832Y-143107D01*
X31608Y-142786D01*
X32274Y-142274D01*
X32786Y-141608D01*
X33107Y-140832D01*
X33217Y-140000D01*
X33107Y-139167D01*
X32786Y-138392D01*
X32274Y-137726D01*
X31608Y-137214D01*
X30832Y-136893D01*
X30000Y-136784D01*
D02*
G37*
G36*
X-41103Y-111169D02*
X-42261Y-111283D01*
X-43374Y-111621D01*
X-44400Y-112169D01*
X-45299Y-112907D01*
X-46037Y-113806D01*
X-46586Y-114832D01*
X-46923Y-115945D01*
X-47037Y-117103D01*
X-46923Y-118261D01*
X-46586Y-119374D01*
X-46037Y-120400D01*
X-45299Y-121299D01*
X-44400Y-122037D01*
X-43374Y-122585D01*
X-42709Y-122787D01*
Y-126212D01*
X-43205Y-126708D01*
X-43496Y-126769D01*
X-43784Y-126769D01*
X-44000D01*
X-44216D01*
X-44572Y-126769D01*
X-49578D01*
Y-128394D01*
X-54244D01*
Y-125669D01*
X-59756D01*
Y-134331D01*
X-54244D01*
Y-131606D01*
X-49578D01*
Y-133231D01*
X-44572D01*
X-44216Y-133231D01*
X-44000D01*
X-43784D01*
X-43428Y-133231D01*
X-38422D01*
Y-126769D01*
X-39498D01*
Y-122787D01*
X-38832Y-122585D01*
X-37806Y-122037D01*
X-36907Y-121299D01*
X-36169Y-120400D01*
X-35621Y-119374D01*
X-35283Y-118261D01*
X-35169Y-117103D01*
X-35283Y-115945D01*
X-35621Y-114832D01*
X-36169Y-113806D01*
X-36907Y-112907D01*
X-37806Y-112169D01*
X-38832Y-111621D01*
X-39946Y-111283D01*
X-41103Y-111169D01*
D02*
G37*
G36*
X95350Y-107591D02*
X94494Y-107703D01*
X93695Y-108034D01*
X93010Y-108560D01*
X92484Y-109245D01*
X92153Y-110044D01*
X92041Y-110900D01*
X92153Y-111757D01*
X92484Y-112555D01*
X93010Y-113240D01*
X93695Y-113766D01*
X94494Y-114097D01*
X95350Y-114209D01*
X96207Y-114097D01*
X97005Y-113766D01*
X97690Y-113240D01*
X98216Y-112555D01*
X98547Y-111757D01*
X98659Y-110900D01*
X98547Y-110044D01*
X98216Y-109245D01*
X97690Y-108560D01*
X97005Y-108034D01*
X96207Y-107703D01*
X95350Y-107591D01*
D02*
G37*
G36*
X-30000Y-106783D02*
X-30832Y-106893D01*
X-31608Y-107214D01*
X-32274Y-107726D01*
X-32786Y-108392D01*
X-33107Y-109168D01*
X-33217Y-110000D01*
X-33107Y-110833D01*
X-32786Y-111608D01*
X-32274Y-112274D01*
X-31608Y-112786D01*
X-30832Y-113107D01*
X-30000Y-113216D01*
X-29168Y-113107D01*
X-28392Y-112786D01*
X-27726Y-112274D01*
X-27214Y-111608D01*
X-26893Y-110833D01*
X-26783Y-110000D01*
X-26893Y-109168D01*
X-27214Y-108392D01*
X-27726Y-107726D01*
X-28392Y-107214D01*
X-29168Y-106893D01*
X-30000Y-106783D01*
D02*
G37*
G36*
X30000D02*
X29168Y-106893D01*
X28392Y-107214D01*
X27726Y-107726D01*
X27214Y-108392D01*
X26893Y-109168D01*
X26783Y-110000D01*
X26893Y-110833D01*
X27214Y-111608D01*
X27726Y-112274D01*
X28392Y-112786D01*
X29168Y-113107D01*
X30000Y-113216D01*
X30832Y-113107D01*
X31608Y-112786D01*
X32274Y-112274D01*
X32786Y-111608D01*
X33107Y-110833D01*
X33217Y-110000D01*
X33107Y-109168D01*
X32786Y-108392D01*
X32274Y-107726D01*
X31608Y-107214D01*
X30832Y-106893D01*
X30000Y-106783D01*
D02*
G37*
G36*
X95350Y-117591D02*
X94494Y-117703D01*
X93695Y-118034D01*
X93010Y-118560D01*
X92484Y-119245D01*
X92153Y-120044D01*
X92041Y-120900D01*
X92153Y-121756D01*
X92484Y-122555D01*
X93010Y-123240D01*
X93695Y-123766D01*
X94494Y-124097D01*
X95350Y-124209D01*
X96207Y-124097D01*
X97005Y-123766D01*
X97690Y-123240D01*
X98216Y-122555D01*
X98547Y-121756D01*
X98659Y-120900D01*
X98547Y-120044D01*
X98216Y-119245D01*
X97690Y-118560D01*
X97005Y-118034D01*
X96207Y-117703D01*
X95350Y-117591D01*
D02*
G37*
G36*
X-30000Y-116783D02*
X-30832Y-116893D01*
X-31608Y-117214D01*
X-32274Y-117726D01*
X-32786Y-118392D01*
X-33107Y-119167D01*
X-33217Y-120000D01*
X-33107Y-120833D01*
X-32786Y-121608D01*
X-32274Y-122274D01*
X-31608Y-122786D01*
X-30832Y-123107D01*
X-30000Y-123216D01*
X-29168Y-123107D01*
X-28392Y-122786D01*
X-27726Y-122274D01*
X-27214Y-121608D01*
X-26893Y-120833D01*
X-26783Y-120000D01*
X-26893Y-119167D01*
X-27214Y-118392D01*
X-27726Y-117726D01*
X-28392Y-117214D01*
X-29168Y-116893D01*
X-30000Y-116783D01*
D02*
G37*
G36*
X30000D02*
X29168Y-116893D01*
X28392Y-117214D01*
X27726Y-117726D01*
X27214Y-118392D01*
X26893Y-119167D01*
X26783Y-120000D01*
X26893Y-120833D01*
X27214Y-121608D01*
X27726Y-122274D01*
X28392Y-122786D01*
X29168Y-123107D01*
X30000Y-123216D01*
X30832Y-123107D01*
X31608Y-122786D01*
X32274Y-122274D01*
X32786Y-121608D01*
X33107Y-120833D01*
X33217Y-120000D01*
X33107Y-119167D01*
X32786Y-118392D01*
X32274Y-117726D01*
X31608Y-117214D01*
X30832Y-116893D01*
X30000Y-116783D01*
D02*
G37*
G36*
X-84397Y-156350D02*
X-86897D01*
Y-159250D01*
X-84397D01*
Y-156350D01*
D02*
G37*
G36*
X29250Y-157065D02*
X29215Y-157070D01*
X28483Y-157373D01*
X27855Y-157855D01*
X27373Y-158483D01*
X27070Y-159215D01*
X27065Y-159250D01*
X29250D01*
Y-157065D01*
D02*
G37*
G36*
X30750D02*
Y-159250D01*
X32935D01*
X32930Y-159215D01*
X32627Y-158483D01*
X32145Y-157855D01*
X31517Y-157373D01*
X30785Y-157070D01*
X30750Y-157065D01*
D02*
G37*
G36*
X29250Y-160750D02*
X27065D01*
X27070Y-160785D01*
X27373Y-161517D01*
X27855Y-162145D01*
X28483Y-162627D01*
X29215Y-162930D01*
X29250Y-162935D01*
Y-160750D01*
D02*
G37*
G36*
X32935D02*
X30750D01*
Y-162935D01*
X30785Y-162930D01*
X31517Y-162627D01*
X32145Y-162145D01*
X32627Y-161517D01*
X32930Y-160785D01*
X32935Y-160750D01*
D02*
G37*
G36*
X-54244Y-135669D02*
X-59756D01*
Y-144331D01*
X-54244D01*
Y-141606D01*
X-49578D01*
Y-143231D01*
X-44572D01*
X-44216Y-143231D01*
X-44000D01*
X-43784D01*
X-43496Y-143231D01*
X-42709Y-143395D01*
Y-144213D01*
X-43374Y-144414D01*
X-44400Y-144963D01*
X-45299Y-145701D01*
X-46037Y-146600D01*
X-46586Y-147626D01*
X-46923Y-148739D01*
X-47037Y-149897D01*
X-46923Y-151055D01*
X-46586Y-152168D01*
X-46037Y-153194D01*
X-45299Y-154093D01*
X-44486Y-154760D01*
X-44428Y-154964D01*
X-44427Y-155004D01*
X-44528Y-155655D01*
X-45297Y-156066D01*
X-46196Y-156804D01*
X-46934Y-157703D01*
X-47482Y-158729D01*
X-47684Y-159394D01*
X-48976D01*
Y-155866D01*
X-57244D01*
Y-164134D01*
X-48976D01*
Y-162606D01*
X-47684D01*
X-47482Y-163271D01*
X-46934Y-164297D01*
X-46196Y-165196D01*
X-45297Y-165934D01*
X-45073Y-166054D01*
Y-166946D01*
X-45297Y-167066D01*
X-46196Y-167804D01*
X-46681Y-168394D01*
X-48669D01*
Y-165319D01*
X-58831D01*
Y-174681D01*
X-58831D01*
Y-175319D01*
X-58831D01*
Y-184681D01*
X-48669D01*
Y-184606D01*
X-47684D01*
X-47482Y-185271D01*
X-46934Y-186297D01*
X-46196Y-187196D01*
X-45297Y-187934D01*
X-44271Y-188482D01*
X-43158Y-188820D01*
X-42000Y-188934D01*
X-40842Y-188820D01*
X-39729Y-188482D01*
X-38703Y-187934D01*
X-37804Y-187196D01*
X-37066Y-186297D01*
X-36518Y-185271D01*
X-36180Y-184158D01*
X-36066Y-183000D01*
X-36180Y-181842D01*
X-36518Y-180729D01*
X-37066Y-179703D01*
X-37804Y-178804D01*
X-38703Y-178066D01*
X-38927Y-177946D01*
Y-177054D01*
X-38703Y-176934D01*
X-37804Y-176196D01*
X-37066Y-175297D01*
X-36518Y-174271D01*
X-36180Y-173158D01*
X-36066Y-172000D01*
X-36180Y-170842D01*
X-36518Y-169729D01*
X-37066Y-168703D01*
X-37804Y-167804D01*
X-38703Y-167066D01*
X-38927Y-166946D01*
Y-166054D01*
X-38703Y-165934D01*
X-37804Y-165196D01*
X-37066Y-164297D01*
X-36518Y-163271D01*
X-36180Y-162158D01*
X-36066Y-161000D01*
X-36180Y-159842D01*
X-36518Y-158729D01*
X-37066Y-157703D01*
X-37804Y-156804D01*
X-38617Y-156137D01*
X-38675Y-155933D01*
X-38676Y-155893D01*
X-38575Y-155242D01*
X-37806Y-154831D01*
X-36907Y-154093D01*
X-36169Y-153194D01*
X-35621Y-152168D01*
X-35283Y-151055D01*
X-35169Y-149897D01*
X-35283Y-148739D01*
X-35621Y-147626D01*
X-36169Y-146600D01*
X-36907Y-145701D01*
X-37806Y-144963D01*
X-38832Y-144414D01*
X-39498Y-144213D01*
Y-143231D01*
X-38422D01*
Y-136769D01*
X-43428D01*
X-43784Y-136769D01*
X-44000D01*
X-44216D01*
X-44572Y-136769D01*
X-49578D01*
Y-138394D01*
X-54244D01*
Y-135669D01*
D02*
G37*
G36*
X95350Y-152191D02*
X94494Y-152303D01*
X93695Y-152634D01*
X93010Y-153160D01*
X92484Y-153845D01*
X92153Y-154643D01*
X92041Y-155500D01*
X92153Y-156357D01*
X92484Y-157155D01*
X93010Y-157840D01*
X93695Y-158366D01*
X94494Y-158697D01*
X95350Y-158809D01*
X96207Y-158697D01*
X97005Y-158366D01*
X97690Y-157840D01*
X98216Y-157155D01*
X98547Y-156357D01*
X98659Y-155500D01*
X98547Y-154643D01*
X98216Y-153845D01*
X97690Y-153160D01*
X97005Y-152634D01*
X96207Y-152303D01*
X95350Y-152191D01*
D02*
G37*
G36*
X3350Y-150750D02*
X1600D01*
Y-153050D01*
X3350D01*
Y-150750D01*
D02*
G37*
G36*
Y-146950D02*
X1600D01*
Y-149250D01*
X3350D01*
Y-146950D01*
D02*
G37*
G36*
X18000Y-144066D02*
X16842Y-144180D01*
X15729Y-144518D01*
X14703Y-145066D01*
X13804Y-145804D01*
X13262Y-146465D01*
X12581Y-146769D01*
X12581D01*
X12581Y-146769D01*
X12581Y-146769D01*
X7312D01*
X7221Y-146769D01*
X7219D01*
X6506Y-146950D01*
X6431Y-146950D01*
X4850D01*
Y-150000D01*
Y-153050D01*
X6431D01*
X6506Y-153050D01*
X7219Y-153231D01*
X7221D01*
X7312Y-153231D01*
X12581D01*
X12581Y-153231D01*
X13249Y-153520D01*
X13804Y-154196D01*
X14703Y-154934D01*
X15729Y-155482D01*
X16842Y-155820D01*
X18000Y-155934D01*
X19158Y-155820D01*
X20271Y-155482D01*
X21297Y-154934D01*
X22196Y-154196D01*
X22934Y-153297D01*
X23482Y-152271D01*
X23820Y-151158D01*
X23934Y-150000D01*
X23820Y-148842D01*
X23482Y-147729D01*
X22934Y-146703D01*
X22196Y-145804D01*
X21297Y-145066D01*
X20271Y-144518D01*
X19158Y-144180D01*
X18000Y-144066D01*
D02*
G37*
G36*
X-62756Y-155866D02*
X-71024D01*
Y-158394D01*
X-72922D01*
Y-156169D01*
X-79685D01*
X-79782Y-156169D01*
X-79784D01*
X-80497Y-156350D01*
X-80572Y-156350D01*
X-82897D01*
Y-160000D01*
Y-163650D01*
X-80572D01*
X-80497Y-163650D01*
X-79784Y-163831D01*
X-79782D01*
X-79685Y-163831D01*
X-72922D01*
Y-161606D01*
X-71024D01*
Y-164134D01*
X-62756D01*
Y-155866D01*
D02*
G37*
G36*
X-30000Y-146783D02*
X-30832Y-146893D01*
X-31608Y-147214D01*
X-32274Y-147726D01*
X-32786Y-148392D01*
X-33107Y-149168D01*
X-33217Y-150000D01*
X-33107Y-150832D01*
X-32786Y-151608D01*
X-32274Y-152274D01*
X-31608Y-152786D01*
X-30832Y-153107D01*
X-30000Y-153217D01*
X-29168Y-153107D01*
X-28392Y-152786D01*
X-27726Y-152274D01*
X-27214Y-151608D01*
X-26893Y-150832D01*
X-26783Y-150000D01*
X-26893Y-149168D01*
X-27214Y-148392D01*
X-27726Y-147726D01*
X-28392Y-147214D01*
X-29168Y-146893D01*
X-30000Y-146783D01*
D02*
G37*
G36*
X30000D02*
X29168Y-146893D01*
X28392Y-147214D01*
X27726Y-147726D01*
X27214Y-148392D01*
X26893Y-149168D01*
X26783Y-150000D01*
X26893Y-150832D01*
X27214Y-151608D01*
X27726Y-152274D01*
X28392Y-152786D01*
X29168Y-153107D01*
X30000Y-153217D01*
X30832Y-153107D01*
X31608Y-152786D01*
X32274Y-152274D01*
X32786Y-151608D01*
X33107Y-150832D01*
X33217Y-150000D01*
X33107Y-149168D01*
X32786Y-148392D01*
X32274Y-147726D01*
X31608Y-147214D01*
X30832Y-146893D01*
X30000Y-146783D01*
D02*
G37*
G36*
X-30000Y-96784D02*
X-30832Y-96893D01*
X-31608Y-97214D01*
X-32274Y-97726D01*
X-32786Y-98392D01*
X-33107Y-99168D01*
X-33217Y-100000D01*
X-33107Y-100832D01*
X-32786Y-101608D01*
X-32274Y-102274D01*
X-31608Y-102786D01*
X-30832Y-103107D01*
X-30000Y-103217D01*
X-29168Y-103107D01*
X-28392Y-102786D01*
X-27726Y-102274D01*
X-27214Y-101608D01*
X-26893Y-100832D01*
X-26783Y-100000D01*
X-26893Y-99168D01*
X-27214Y-98392D01*
X-27726Y-97726D01*
X-28392Y-97214D01*
X-29168Y-96893D01*
X-30000Y-96784D01*
D02*
G37*
G36*
X-42250Y-33100D02*
X-49750D01*
Y-35432D01*
X-49750Y-35506D01*
X-49931Y-36219D01*
Y-36220D01*
X-49931Y-36312D01*
Y-43081D01*
X-47606D01*
Y-44316D01*
X-48271Y-44518D01*
X-49297Y-45066D01*
X-50196Y-45804D01*
X-50934Y-46703D01*
X-51482Y-47729D01*
X-51820Y-48842D01*
X-51934Y-50000D01*
X-51820Y-51158D01*
X-51482Y-52271D01*
X-50934Y-53297D01*
X-50196Y-54196D01*
X-49297Y-54934D01*
X-48271Y-55482D01*
X-47158Y-55820D01*
X-46000Y-55934D01*
X-44842Y-55820D01*
X-43729Y-55482D01*
X-42703Y-54934D01*
X-41804Y-54196D01*
X-41066Y-53297D01*
X-40518Y-52271D01*
X-40180Y-51158D01*
X-40066Y-50000D01*
X-40180Y-48842D01*
X-40518Y-47729D01*
X-41066Y-46703D01*
X-41804Y-45804D01*
X-42703Y-45066D01*
X-43729Y-44518D01*
X-44394Y-44316D01*
Y-43081D01*
X-42069D01*
Y-36312D01*
X-42069Y-36220D01*
Y-36219D01*
X-42250Y-35506D01*
X-42250Y-35432D01*
Y-33100D01*
D02*
G37*
G36*
X92000Y-46691D02*
X91144Y-46803D01*
X90345Y-47134D01*
X89660Y-47660D01*
X89134Y-48345D01*
X88803Y-49143D01*
X88691Y-50000D01*
X88803Y-50857D01*
X89134Y-51655D01*
X89660Y-52340D01*
X90345Y-52866D01*
X91144Y-53197D01*
X92000Y-53309D01*
X92857Y-53197D01*
X93655Y-52866D01*
X94340Y-52340D01*
X94866Y-51655D01*
X95197Y-50857D01*
X95309Y-50000D01*
X95197Y-49143D01*
X94866Y-48345D01*
X94340Y-47660D01*
X93655Y-47134D01*
X92857Y-46803D01*
X92000Y-46691D01*
D02*
G37*
G36*
X-30000Y-46784D02*
X-30832Y-46893D01*
X-31608Y-47214D01*
X-32274Y-47726D01*
X-32786Y-48392D01*
X-33107Y-49167D01*
X-33217Y-50000D01*
X-33107Y-50832D01*
X-32786Y-51608D01*
X-32274Y-52274D01*
X-31608Y-52786D01*
X-30832Y-53107D01*
X-30000Y-53216D01*
X-29168Y-53107D01*
X-28392Y-52786D01*
X-27726Y-52274D01*
X-27214Y-51608D01*
X-26893Y-50832D01*
X-26783Y-50000D01*
X-26893Y-49167D01*
X-27214Y-48392D01*
X-27726Y-47726D01*
X-28392Y-47214D01*
X-29168Y-46893D01*
X-30000Y-46784D01*
D02*
G37*
G36*
X91250Y-56972D02*
X91191Y-56980D01*
X90437Y-57292D01*
X89789Y-57789D01*
X89292Y-58437D01*
X88980Y-59191D01*
X88972Y-59250D01*
X91250D01*
Y-56972D01*
D02*
G37*
G36*
X92750D02*
Y-59250D01*
X95028D01*
X95020Y-59191D01*
X94708Y-58437D01*
X94211Y-57789D01*
X93563Y-57292D01*
X92809Y-56980D01*
X92750Y-56972D01*
D02*
G37*
G36*
X20050Y-38850D02*
X13950D01*
Y-40431D01*
X13950Y-40507D01*
X13769Y-41219D01*
Y-41221D01*
X13769Y-41312D01*
Y-46581D01*
X15104D01*
X15221Y-47368D01*
X14729Y-47518D01*
X13703Y-48066D01*
X12804Y-48804D01*
X12066Y-49703D01*
X11518Y-50729D01*
X11180Y-51842D01*
X11066Y-53000D01*
X11180Y-54158D01*
X11518Y-55271D01*
X12066Y-56297D01*
X12804Y-57196D01*
X13703Y-57934D01*
X14729Y-58482D01*
X15842Y-58820D01*
X17000Y-58934D01*
X18158Y-58820D01*
X19271Y-58482D01*
X20297Y-57934D01*
X21196Y-57196D01*
X21934Y-56297D01*
X22482Y-55271D01*
X22820Y-54158D01*
X22934Y-53000D01*
X22820Y-51842D01*
X22482Y-50729D01*
X21934Y-49703D01*
X21196Y-48804D01*
X20297Y-48066D01*
X19271Y-47518D01*
X18779Y-47368D01*
X18896Y-46581D01*
X20231D01*
Y-41312D01*
X20231Y-41221D01*
Y-41219D01*
X20050Y-40507D01*
X20050Y-40431D01*
Y-38850D01*
D02*
G37*
G36*
X29250Y-50750D02*
X27065D01*
X27070Y-50785D01*
X27373Y-51517D01*
X27855Y-52145D01*
X28483Y-52627D01*
X29215Y-52930D01*
X29250Y-52935D01*
Y-50750D01*
D02*
G37*
G36*
X105250Y-45325D02*
X104506Y-45423D01*
X103113Y-46000D01*
X101917Y-46917D01*
X101000Y-48113D01*
X100423Y-49506D01*
X100325Y-50250D01*
X105250D01*
Y-45325D01*
D02*
G37*
G36*
X106750D02*
Y-50250D01*
X111675D01*
X111577Y-49506D01*
X111000Y-48113D01*
X110083Y-46917D01*
X108887Y-46000D01*
X107494Y-45423D01*
X106750Y-45325D01*
D02*
G37*
G36*
X29250Y-47065D02*
X29215Y-47069D01*
X28483Y-47373D01*
X27855Y-47855D01*
X27373Y-48483D01*
X27070Y-49215D01*
X27065Y-49250D01*
X29250D01*
Y-47065D01*
D02*
G37*
G36*
X32935Y-50750D02*
X30750D01*
Y-52935D01*
X30785Y-52930D01*
X31517Y-52627D01*
X32145Y-52145D01*
X32627Y-51517D01*
X32930Y-50785D01*
X32935Y-50750D01*
D02*
G37*
G36*
X234366Y-50380D02*
X233230D01*
Y-52697D01*
X234366D01*
Y-50380D01*
D02*
G37*
G36*
X59675Y-45750D02*
X54750D01*
Y-50675D01*
X55494Y-50577D01*
X56887Y-50000D01*
X58083Y-49083D01*
X59000Y-47887D01*
X59577Y-46494D01*
X59675Y-45750D01*
D02*
G37*
G36*
X-30000Y-76784D02*
X-30832Y-76893D01*
X-31608Y-77214D01*
X-32274Y-77726D01*
X-32786Y-78392D01*
X-33107Y-79167D01*
X-33217Y-80000D01*
X-33107Y-80832D01*
X-32786Y-81608D01*
X-32274Y-82274D01*
X-31608Y-82786D01*
X-30832Y-83107D01*
X-30000Y-83217D01*
X-29168Y-83107D01*
X-28392Y-82786D01*
X-27726Y-82274D01*
X-27214Y-81608D01*
X-26893Y-80832D01*
X-26783Y-80000D01*
X-26893Y-79167D01*
X-27214Y-78392D01*
X-27726Y-77726D01*
X-28392Y-77214D01*
X-29168Y-76893D01*
X-30000Y-76784D01*
D02*
G37*
G36*
X30000D02*
X29168Y-76893D01*
X28392Y-77214D01*
X27726Y-77726D01*
X27214Y-78392D01*
X26893Y-79167D01*
X26783Y-80000D01*
X26893Y-80832D01*
X27214Y-81608D01*
X27726Y-82274D01*
X28392Y-82786D01*
X29168Y-83107D01*
X30000Y-83217D01*
X30832Y-83107D01*
X31608Y-82786D01*
X32274Y-82274D01*
X32786Y-81608D01*
X33107Y-80832D01*
X33217Y-80000D01*
X33107Y-79167D01*
X32786Y-78392D01*
X32274Y-77726D01*
X31608Y-77214D01*
X30832Y-76893D01*
X30000Y-76784D01*
D02*
G37*
G36*
X203545Y-41496D02*
X183467D01*
Y-78504D01*
X203545D01*
Y-41496D01*
D02*
G37*
G36*
X30000Y-96784D02*
X29168Y-96893D01*
X28392Y-97214D01*
X27726Y-97726D01*
X27214Y-98392D01*
X26893Y-99168D01*
X26783Y-100000D01*
X26893Y-100832D01*
X27214Y-101608D01*
X27726Y-102274D01*
X28392Y-102786D01*
X29168Y-103107D01*
X30000Y-103217D01*
X30832Y-103107D01*
X31608Y-102786D01*
X32274Y-102274D01*
X32786Y-101608D01*
X33107Y-100832D01*
X33217Y-100000D01*
X33107Y-99168D01*
X32786Y-98392D01*
X32274Y-97726D01*
X31608Y-97214D01*
X30832Y-96893D01*
X30000Y-96784D01*
D02*
G37*
G36*
X-30000Y-86783D02*
X-30832Y-86893D01*
X-31608Y-87214D01*
X-32274Y-87726D01*
X-32786Y-88392D01*
X-33107Y-89167D01*
X-33217Y-90000D01*
X-33107Y-90833D01*
X-32786Y-91608D01*
X-32274Y-92274D01*
X-31608Y-92786D01*
X-30832Y-93107D01*
X-30000Y-93217D01*
X-29168Y-93107D01*
X-28392Y-92786D01*
X-27726Y-92274D01*
X-27214Y-91608D01*
X-26893Y-90833D01*
X-26783Y-90000D01*
X-26893Y-89167D01*
X-27214Y-88392D01*
X-27726Y-87726D01*
X-28392Y-87214D01*
X-29168Y-86893D01*
X-30000Y-86783D01*
D02*
G37*
G36*
X30000D02*
X29168Y-86893D01*
X28392Y-87214D01*
X27726Y-87726D01*
X27214Y-88392D01*
X26893Y-89167D01*
X26783Y-90000D01*
X26893Y-90833D01*
X27214Y-91608D01*
X27726Y-92274D01*
X28392Y-92786D01*
X29168Y-93107D01*
X30000Y-93217D01*
X30832Y-93107D01*
X31608Y-92786D01*
X32274Y-92274D01*
X32786Y-91608D01*
X33107Y-90833D01*
X33217Y-90000D01*
X33107Y-89167D01*
X32786Y-88392D01*
X32274Y-87726D01*
X31608Y-87214D01*
X30832Y-86893D01*
X30000Y-86783D01*
D02*
G37*
G36*
X92000Y-66691D02*
X91144Y-66803D01*
X90345Y-67134D01*
X89660Y-67660D01*
X89134Y-68345D01*
X88803Y-69143D01*
X88691Y-70000D01*
X88803Y-70856D01*
X89134Y-71655D01*
X89660Y-72340D01*
X90345Y-72866D01*
X91144Y-73197D01*
X92000Y-73309D01*
X92857Y-73197D01*
X93655Y-72866D01*
X94340Y-72340D01*
X94866Y-71655D01*
X95197Y-70856D01*
X95309Y-70000D01*
X95197Y-69143D01*
X94866Y-68345D01*
X94340Y-67660D01*
X93655Y-67134D01*
X92857Y-66803D01*
X92000Y-66691D01*
D02*
G37*
G36*
X30000Y-56783D02*
X29168Y-56893D01*
X28392Y-57214D01*
X27726Y-57726D01*
X27214Y-58392D01*
X26893Y-59167D01*
X26783Y-60000D01*
X26893Y-60833D01*
X27214Y-61608D01*
X27726Y-62274D01*
X28392Y-62786D01*
X29168Y-63107D01*
X30000Y-63217D01*
X30832Y-63107D01*
X31608Y-62786D01*
X32274Y-62274D01*
X32786Y-61608D01*
X33107Y-60833D01*
X33217Y-60000D01*
X33107Y-59167D01*
X32786Y-58392D01*
X32274Y-57726D01*
X31608Y-57214D01*
X30832Y-56893D01*
X30000Y-56783D01*
D02*
G37*
G36*
X91250Y-60750D02*
X88972D01*
X88980Y-60809D01*
X89292Y-61563D01*
X89789Y-62211D01*
X90437Y-62708D01*
X91191Y-63020D01*
X91250Y-63028D01*
Y-60750D01*
D02*
G37*
G36*
X95028D02*
X92750D01*
Y-63028D01*
X92809Y-63020D01*
X93563Y-62708D01*
X94211Y-62211D01*
X94708Y-61563D01*
X95020Y-60809D01*
X95028Y-60750D01*
D02*
G37*
G36*
X-30000Y-66783D02*
X-30832Y-66893D01*
X-31608Y-67214D01*
X-32274Y-67726D01*
X-32786Y-68392D01*
X-33107Y-69168D01*
X-33217Y-70000D01*
X-33107Y-70833D01*
X-32786Y-71608D01*
X-32274Y-72274D01*
X-31608Y-72786D01*
X-30832Y-73107D01*
X-30000Y-73216D01*
X-29168Y-73107D01*
X-28392Y-72786D01*
X-27726Y-72274D01*
X-27214Y-71608D01*
X-26893Y-70833D01*
X-26783Y-70000D01*
X-26893Y-69168D01*
X-27214Y-68392D01*
X-27726Y-67726D01*
X-28392Y-67214D01*
X-29168Y-66893D01*
X-30000Y-66783D01*
D02*
G37*
G36*
X30000D02*
X29168Y-66893D01*
X28392Y-67214D01*
X27726Y-67726D01*
X27214Y-68392D01*
X26893Y-69168D01*
X26783Y-70000D01*
X26893Y-70833D01*
X27214Y-71608D01*
X27726Y-72274D01*
X28392Y-72786D01*
X29168Y-73107D01*
X30000Y-73216D01*
X30832Y-73107D01*
X31608Y-72786D01*
X32274Y-72274D01*
X32786Y-71608D01*
X33107Y-70833D01*
X33217Y-70000D01*
X33107Y-69168D01*
X32786Y-68392D01*
X32274Y-67726D01*
X31608Y-67214D01*
X30832Y-66893D01*
X30000Y-66783D01*
D02*
G37*
G36*
X-30000Y-56783D02*
X-30832Y-56893D01*
X-31608Y-57214D01*
X-32274Y-57726D01*
X-32786Y-58392D01*
X-33107Y-59167D01*
X-33217Y-60000D01*
X-33107Y-60833D01*
X-32786Y-61608D01*
X-32274Y-62274D01*
X-31608Y-62786D01*
X-30832Y-63107D01*
X-30000Y-63217D01*
X-29168Y-63107D01*
X-28392Y-62786D01*
X-27726Y-62274D01*
X-27214Y-61608D01*
X-26893Y-60833D01*
X-26783Y-60000D01*
X-26893Y-59167D01*
X-27214Y-58392D01*
X-27726Y-57726D01*
X-28392Y-57214D01*
X-29168Y-56893D01*
X-30000Y-56783D01*
D02*
G37*
G36*
Y-156783D02*
X-30832Y-156893D01*
X-31608Y-157214D01*
X-32274Y-157726D01*
X-32786Y-158392D01*
X-33107Y-159168D01*
X-33217Y-160000D01*
X-33107Y-160833D01*
X-32786Y-161608D01*
X-32274Y-162274D01*
X-31608Y-162786D01*
X-30832Y-163107D01*
X-30000Y-163216D01*
X-29168Y-163107D01*
X-28392Y-162786D01*
X-27726Y-162274D01*
X-27214Y-161608D01*
X-26893Y-160833D01*
X-26783Y-160000D01*
X-26893Y-159168D01*
X-27214Y-158392D01*
X-27726Y-157726D01*
X-28392Y-157214D01*
X-29168Y-156893D01*
X-30000Y-156783D01*
D02*
G37*
G36*
X30000Y-226783D02*
X29168Y-226893D01*
X28392Y-227214D01*
X27726Y-227726D01*
X27214Y-228392D01*
X26893Y-229168D01*
X26783Y-230000D01*
X26893Y-230833D01*
X27214Y-231608D01*
X27726Y-232274D01*
X28392Y-232786D01*
X29168Y-233107D01*
X30000Y-233217D01*
X30832Y-233107D01*
X31608Y-232786D01*
X32274Y-232274D01*
X32786Y-231608D01*
X33107Y-230833D01*
X33217Y-230000D01*
X33107Y-229168D01*
X32786Y-228392D01*
X32274Y-227726D01*
X31608Y-227214D01*
X30832Y-226893D01*
X30000Y-226783D01*
D02*
G37*
G36*
X-30000Y-216783D02*
X-30832Y-216893D01*
X-31608Y-217214D01*
X-32274Y-217726D01*
X-32786Y-218392D01*
X-33107Y-219167D01*
X-33217Y-220000D01*
X-33107Y-220832D01*
X-32786Y-221608D01*
X-32274Y-222274D01*
X-31608Y-222786D01*
X-30832Y-223107D01*
X-30000Y-223217D01*
X-29168Y-223107D01*
X-28392Y-222786D01*
X-27726Y-222274D01*
X-27214Y-221608D01*
X-26893Y-220832D01*
X-26783Y-220000D01*
X-26893Y-219167D01*
X-27214Y-218392D01*
X-27726Y-217726D01*
X-28392Y-217214D01*
X-29168Y-216893D01*
X-30000Y-216783D01*
D02*
G37*
G36*
X30000D02*
X29168Y-216893D01*
X28392Y-217214D01*
X27726Y-217726D01*
X27214Y-218392D01*
X26893Y-219167D01*
X26783Y-220000D01*
X26893Y-220832D01*
X27214Y-221608D01*
X27726Y-222274D01*
X28392Y-222786D01*
X29168Y-223107D01*
X30000Y-223217D01*
X30832Y-223107D01*
X31608Y-222786D01*
X32274Y-222274D01*
X32786Y-221608D01*
X33107Y-220832D01*
X33217Y-220000D01*
X33107Y-219167D01*
X32786Y-218392D01*
X32274Y-217726D01*
X31608Y-217214D01*
X30832Y-216893D01*
X30000Y-216783D01*
D02*
G37*
G36*
Y-236784D02*
X29168Y-236893D01*
X28392Y-237214D01*
X27726Y-237726D01*
X27214Y-238392D01*
X26893Y-239167D01*
X26783Y-240000D01*
X26893Y-240832D01*
X27214Y-241608D01*
X27726Y-242274D01*
X28392Y-242786D01*
X29168Y-243107D01*
X30000Y-243216D01*
X30832Y-243107D01*
X31608Y-242786D01*
X32274Y-242274D01*
X32786Y-241608D01*
X33107Y-240832D01*
X33217Y-240000D01*
X33107Y-239167D01*
X32786Y-238392D01*
X32274Y-237726D01*
X31608Y-237214D01*
X30832Y-236893D01*
X30000Y-236784D01*
D02*
G37*
G36*
X-41950Y-213850D02*
X-48050D01*
Y-215431D01*
X-48050Y-215507D01*
X-48231Y-216219D01*
Y-216221D01*
X-48231Y-216312D01*
Y-221581D01*
X-46606D01*
Y-224316D01*
X-47271Y-224518D01*
X-48297Y-225066D01*
X-49196Y-225804D01*
X-49934Y-226703D01*
X-50482Y-227729D01*
X-50820Y-228842D01*
X-50934Y-230000D01*
X-50820Y-231158D01*
X-50482Y-232271D01*
X-49934Y-233297D01*
X-49196Y-234196D01*
X-48297Y-234934D01*
X-47271Y-235482D01*
X-46158Y-235820D01*
X-45000Y-235934D01*
X-43842Y-235820D01*
X-42729Y-235482D01*
X-41703Y-234934D01*
X-40804Y-234196D01*
X-40066Y-233297D01*
X-39518Y-232271D01*
X-39180Y-231158D01*
X-39066Y-230000D01*
X-39180Y-228842D01*
X-39518Y-227729D01*
X-40066Y-226703D01*
X-40804Y-225804D01*
X-41703Y-225066D01*
X-42729Y-224518D01*
X-43394Y-224316D01*
Y-221581D01*
X-41769D01*
Y-216312D01*
X-41769Y-216221D01*
Y-216219D01*
X-41950Y-215507D01*
X-41950Y-215431D01*
Y-213850D01*
D02*
G37*
G36*
X-30000Y-226783D02*
X-30832Y-226893D01*
X-31608Y-227214D01*
X-32274Y-227726D01*
X-32786Y-228392D01*
X-33107Y-229168D01*
X-33217Y-230000D01*
X-33107Y-230833D01*
X-32786Y-231608D01*
X-32274Y-232274D01*
X-31608Y-232786D01*
X-30832Y-233107D01*
X-30000Y-233217D01*
X-29168Y-233107D01*
X-28392Y-232786D01*
X-27726Y-232274D01*
X-27214Y-231608D01*
X-26893Y-230833D01*
X-26783Y-230000D01*
X-26893Y-229168D01*
X-27214Y-228392D01*
X-27726Y-227726D01*
X-28392Y-227214D01*
X-29168Y-226893D01*
X-30000Y-226783D01*
D02*
G37*
G36*
X95350Y-206791D02*
X94494Y-206903D01*
X93695Y-207234D01*
X93010Y-207760D01*
X92484Y-208445D01*
X92153Y-209243D01*
X92041Y-210100D01*
X92153Y-210957D01*
X92484Y-211755D01*
X93010Y-212440D01*
X93695Y-212966D01*
X94494Y-213297D01*
X95350Y-213409D01*
X96207Y-213297D01*
X97005Y-212966D01*
X97690Y-212440D01*
X98216Y-211755D01*
X98547Y-210957D01*
X98659Y-210100D01*
X98547Y-209243D01*
X98216Y-208445D01*
X97690Y-207760D01*
X97005Y-207234D01*
X96207Y-206903D01*
X95350Y-206791D01*
D02*
G37*
G36*
X275590Y-174856D02*
X273131Y-175018D01*
X270713Y-175499D01*
X268379Y-176291D01*
X266168Y-177381D01*
X264119Y-178751D01*
X262266Y-180376D01*
X260640Y-182229D01*
X259271Y-184279D01*
X258181Y-186489D01*
X257388Y-188823D01*
X256908Y-191241D01*
X256746Y-193701D01*
X256908Y-196160D01*
X257388Y-198578D01*
X258181Y-200912D01*
X259271Y-203123D01*
X260640Y-205172D01*
X262266Y-207026D01*
X264119Y-208651D01*
X266168Y-210020D01*
X268379Y-211111D01*
X270713Y-211903D01*
X273131Y-212384D01*
X275590Y-212545D01*
X278050Y-212384D01*
X280468Y-211903D01*
X282802Y-211111D01*
X285013Y-210020D01*
X287062Y-208651D01*
X288915Y-207026D01*
X290541Y-205172D01*
X291910Y-203123D01*
X293000Y-200912D01*
X293793Y-198578D01*
X294274Y-196160D01*
X294435Y-193701D01*
X294274Y-191241D01*
X293793Y-188823D01*
X293000Y-186489D01*
X291910Y-184279D01*
X290541Y-182229D01*
X288915Y-180376D01*
X287062Y-178751D01*
X285013Y-177381D01*
X282802Y-176291D01*
X280468Y-175499D01*
X278050Y-175018D01*
X275590Y-174856D01*
D02*
G37*
G36*
X-45750Y-210600D02*
X-48050D01*
Y-212350D01*
X-45750D01*
Y-210600D01*
D02*
G37*
G36*
X-41950D02*
X-44250D01*
Y-212350D01*
X-41950D01*
Y-210600D01*
D02*
G37*
G36*
X-30000Y-206784D02*
X-30832Y-206893D01*
X-31608Y-207214D01*
X-32274Y-207726D01*
X-32786Y-208392D01*
X-33107Y-209168D01*
X-33217Y-210000D01*
X-33107Y-210833D01*
X-32786Y-211608D01*
X-32274Y-212274D01*
X-31608Y-212786D01*
X-30832Y-213107D01*
X-30000Y-213216D01*
X-29168Y-213107D01*
X-28392Y-212786D01*
X-27726Y-212274D01*
X-27214Y-211608D01*
X-26893Y-210833D01*
X-26783Y-210000D01*
X-26893Y-209168D01*
X-27214Y-208392D01*
X-27726Y-207726D01*
X-28392Y-207214D01*
X-29168Y-206893D01*
X-30000Y-206784D01*
D02*
G37*
G36*
X29250Y-210750D02*
X27065D01*
X27070Y-210785D01*
X27373Y-211517D01*
X27855Y-212145D01*
X28483Y-212627D01*
X29215Y-212930D01*
X29250Y-212935D01*
Y-210750D01*
D02*
G37*
G36*
X32935D02*
X30750D01*
Y-212935D01*
X30785Y-212930D01*
X31517Y-212627D01*
X32145Y-212145D01*
X32627Y-211517D01*
X32930Y-210785D01*
X32935Y-210750D01*
D02*
G37*
G36*
X-30000Y-276783D02*
X-30832Y-276893D01*
X-31608Y-277214D01*
X-32274Y-277726D01*
X-32786Y-278392D01*
X-33107Y-279168D01*
X-33217Y-280000D01*
X-33107Y-280833D01*
X-32786Y-281608D01*
X-32274Y-282274D01*
X-31608Y-282786D01*
X-30832Y-283107D01*
X-30000Y-283217D01*
X-29168Y-283107D01*
X-28392Y-282786D01*
X-27726Y-282274D01*
X-27214Y-281608D01*
X-26893Y-280833D01*
X-26783Y-280000D01*
X-26893Y-279168D01*
X-27214Y-278392D01*
X-27726Y-277726D01*
X-28392Y-277214D01*
X-29168Y-276893D01*
X-30000Y-276783D01*
D02*
G37*
G36*
X221000Y-275894D02*
X221000Y-275894D01*
X219000D01*
X218386Y-276017D01*
X217865Y-276365D01*
X217865Y-276365D01*
X216865Y-277365D01*
X216517Y-277886D01*
X216496Y-277988D01*
X216394Y-278500D01*
X216394Y-278500D01*
Y-282500D01*
X216394Y-282500D01*
X216496Y-283013D01*
X216517Y-283115D01*
X216865Y-283635D01*
X217865Y-284635D01*
X217865Y-284635D01*
X218386Y-284983D01*
X219000Y-285106D01*
X221000D01*
X221000Y-285106D01*
X221513Y-285004D01*
X221615Y-284983D01*
X222135Y-284635D01*
X223135Y-283635D01*
X223483Y-283115D01*
X223606Y-282500D01*
X223483Y-281886D01*
X223135Y-281365D01*
X222614Y-281017D01*
X222000Y-280894D01*
X221386Y-281017D01*
X220865Y-281365D01*
X220418Y-281811D01*
X220369Y-281813D01*
X219606Y-281348D01*
Y-279651D01*
X220369Y-279187D01*
X220418Y-279189D01*
X220865Y-279635D01*
X221386Y-279983D01*
X222000Y-280106D01*
X222614Y-279983D01*
X223135Y-279635D01*
X223483Y-279114D01*
X223606Y-278500D01*
X223483Y-277886D01*
X223135Y-277365D01*
X222135Y-276365D01*
X221615Y-276017D01*
X221513Y-275996D01*
X221000Y-275894D01*
D02*
G37*
G36*
X230181Y-276087D02*
X230181Y-276087D01*
X228181D01*
X228181Y-276087D01*
X227669Y-276189D01*
X227567Y-276209D01*
X227046Y-276557D01*
X227046Y-276558D01*
X226030Y-277573D01*
X225682Y-278094D01*
X225662Y-278196D01*
X225560Y-278709D01*
X225560Y-278709D01*
Y-282677D01*
X225560Y-282677D01*
X225662Y-283190D01*
X225682Y-283292D01*
X226030Y-283812D01*
X227046Y-284828D01*
X227046Y-284828D01*
X227567Y-285176D01*
X227669Y-285197D01*
X228181Y-285299D01*
X228181Y-285299D01*
X230181D01*
X230181Y-285299D01*
X230694Y-285197D01*
X230796Y-285176D01*
X231316Y-284828D01*
X232316Y-283828D01*
X232664Y-283307D01*
X232787Y-282693D01*
X232664Y-282079D01*
X232316Y-281558D01*
X231796Y-281209D01*
X231181Y-281087D01*
X230567Y-281209D01*
X230046Y-281558D01*
X229535Y-282068D01*
X228771Y-281985D01*
Y-279401D01*
X229535Y-279318D01*
X230046Y-279828D01*
X230567Y-280176D01*
X231181Y-280299D01*
X231796Y-280176D01*
X232316Y-279828D01*
X232664Y-279307D01*
X232787Y-278693D01*
X232664Y-278079D01*
X232316Y-277557D01*
X231316Y-276557D01*
X230796Y-276209D01*
X230694Y-276189D01*
X230181Y-276087D01*
D02*
G37*
G36*
X286250Y-274644D02*
X285636Y-274767D01*
X285115Y-275115D01*
X284767Y-275636D01*
X284644Y-276250D01*
X284767Y-276864D01*
X285115Y-277385D01*
X287336Y-279606D01*
Y-280394D01*
X285115Y-282615D01*
X284767Y-283136D01*
X284644Y-283750D01*
X284767Y-284364D01*
X285096Y-284857D01*
X284965Y-284965D01*
X284079Y-286044D01*
X283421Y-287275D01*
X283016Y-288611D01*
X282879Y-290000D01*
X283016Y-291389D01*
X283421Y-292725D01*
X284079Y-293956D01*
X284965Y-295035D01*
X286044Y-295921D01*
X287275Y-296579D01*
X288611Y-296984D01*
X290000Y-297121D01*
X291389Y-296984D01*
X292725Y-296579D01*
X293956Y-295921D01*
X295035Y-295035D01*
X295921Y-293956D01*
X296579Y-292725D01*
X296984Y-291389D01*
X297121Y-290000D01*
X296984Y-288611D01*
X296579Y-287275D01*
X295921Y-286044D01*
X295035Y-284965D01*
X294904Y-284857D01*
X295233Y-284364D01*
X295356Y-283750D01*
X295233Y-283136D01*
X294885Y-282615D01*
X292271Y-280000D01*
X294885Y-277385D01*
X295233Y-276865D01*
X295356Y-276250D01*
X295233Y-275636D01*
X294885Y-275115D01*
X294364Y-274767D01*
X293750Y-274644D01*
X293135Y-274767D01*
X292615Y-275115D01*
X290000Y-277729D01*
X287385Y-275115D01*
X286864Y-274767D01*
X286250Y-274644D01*
D02*
G37*
G36*
X-280000Y-265877D02*
X-282209Y-266051D01*
X-284364Y-266568D01*
X-286412Y-267416D01*
X-288301Y-268574D01*
X-289986Y-270013D01*
X-291426Y-271699D01*
X-292584Y-273588D01*
X-293432Y-275636D01*
X-293949Y-277791D01*
X-294123Y-280000D01*
X-293949Y-282209D01*
X-293432Y-284364D01*
X-292584Y-286412D01*
X-291426Y-288301D01*
X-289986Y-289986D01*
X-288301Y-291426D01*
X-286412Y-292584D01*
X-284364Y-293432D01*
X-282209Y-293949D01*
X-280000Y-294123D01*
X-277791Y-293949D01*
X-275636Y-293432D01*
X-273588Y-292584D01*
X-271699Y-291426D01*
X-270013Y-289986D01*
X-268574Y-288301D01*
X-267416Y-286412D01*
X-266568Y-284364D01*
X-266051Y-282209D01*
X-265877Y-280000D01*
X-266051Y-277791D01*
X-266568Y-275636D01*
X-267416Y-273588D01*
X-268574Y-271699D01*
X-270013Y-270013D01*
X-271699Y-268574D01*
X-273588Y-267416D01*
X-275636Y-266568D01*
X-277791Y-266051D01*
X-280000Y-265877D01*
D02*
G37*
G36*
X260000D02*
X257791Y-266051D01*
X255636Y-266568D01*
X253588Y-267416D01*
X251699Y-268574D01*
X250013Y-270013D01*
X248574Y-271699D01*
X247416Y-273588D01*
X246568Y-275636D01*
X246051Y-277791D01*
X245877Y-280000D01*
X246051Y-282209D01*
X246568Y-284364D01*
X247416Y-286412D01*
X248574Y-288301D01*
X250013Y-289986D01*
X251699Y-291426D01*
X253588Y-292584D01*
X255636Y-293432D01*
X257791Y-293949D01*
X260000Y-294123D01*
X262209Y-293949D01*
X264364Y-293432D01*
X266412Y-292584D01*
X268301Y-291426D01*
X269987Y-289986D01*
X271426Y-288301D01*
X272584Y-286412D01*
X273432Y-284364D01*
X273949Y-282209D01*
X274123Y-280000D01*
X273949Y-277791D01*
X273432Y-275636D01*
X272584Y-273588D01*
X271426Y-271699D01*
X269987Y-270013D01*
X268301Y-268574D01*
X266412Y-267416D01*
X264364Y-266568D01*
X262209Y-266051D01*
X260000Y-265877D01*
D02*
G37*
G36*
X-30000Y-266783D02*
X-30832Y-266893D01*
X-31608Y-267214D01*
X-32274Y-267726D01*
X-32786Y-268392D01*
X-33107Y-269167D01*
X-33217Y-270000D01*
X-33107Y-270832D01*
X-32786Y-271608D01*
X-32274Y-272274D01*
X-31608Y-272786D01*
X-30832Y-273107D01*
X-30000Y-273217D01*
X-29168Y-273107D01*
X-28392Y-272786D01*
X-27726Y-272274D01*
X-27214Y-271608D01*
X-26893Y-270832D01*
X-26783Y-270000D01*
X-26893Y-269167D01*
X-27214Y-268392D01*
X-27726Y-267726D01*
X-28392Y-267214D01*
X-29168Y-266893D01*
X-30000Y-266783D01*
D02*
G37*
G36*
Y-246783D02*
X-30832Y-246893D01*
X-31608Y-247214D01*
X-32274Y-247726D01*
X-32786Y-248392D01*
X-33107Y-249167D01*
X-33217Y-250000D01*
X-33107Y-250833D01*
X-32786Y-251608D01*
X-32274Y-252274D01*
X-31608Y-252786D01*
X-30832Y-253107D01*
X-30000Y-253217D01*
X-29168Y-253107D01*
X-28392Y-252786D01*
X-27726Y-252274D01*
X-27214Y-251608D01*
X-26893Y-250833D01*
X-26783Y-250000D01*
X-26893Y-249167D01*
X-27214Y-248392D01*
X-27726Y-247726D01*
X-28392Y-247214D01*
X-29168Y-246893D01*
X-30000Y-246783D01*
D02*
G37*
G36*
X30000D02*
X29168Y-246893D01*
X28392Y-247214D01*
X27726Y-247726D01*
X27214Y-248392D01*
X26893Y-249167D01*
X26783Y-250000D01*
X26893Y-250833D01*
X27214Y-251608D01*
X27726Y-252274D01*
X28392Y-252786D01*
X29168Y-253107D01*
X30000Y-253217D01*
X30832Y-253107D01*
X31608Y-252786D01*
X32274Y-252274D01*
X32786Y-251608D01*
X33107Y-250833D01*
X33217Y-250000D01*
X33107Y-249167D01*
X32786Y-248392D01*
X32274Y-247726D01*
X31608Y-247214D01*
X30832Y-246893D01*
X30000Y-246783D01*
D02*
G37*
G36*
X-30000Y-236784D02*
X-30832Y-236893D01*
X-31608Y-237214D01*
X-32274Y-237726D01*
X-32786Y-238392D01*
X-33107Y-239167D01*
X-33217Y-240000D01*
X-33107Y-240832D01*
X-32786Y-241608D01*
X-32274Y-242274D01*
X-31608Y-242786D01*
X-30832Y-243107D01*
X-30000Y-243216D01*
X-29168Y-243107D01*
X-28392Y-242786D01*
X-27726Y-242274D01*
X-27214Y-241608D01*
X-26893Y-240832D01*
X-26783Y-240000D01*
X-26893Y-239167D01*
X-27214Y-238392D01*
X-27726Y-237726D01*
X-28392Y-237214D01*
X-29168Y-236893D01*
X-30000Y-236784D01*
D02*
G37*
G36*
X30000Y-266783D02*
X29168Y-266893D01*
X28392Y-267214D01*
X27726Y-267726D01*
X27214Y-268392D01*
X26893Y-269167D01*
X26783Y-270000D01*
X26893Y-270832D01*
X27214Y-271608D01*
X27726Y-272274D01*
X28392Y-272786D01*
X29168Y-273107D01*
X30000Y-273217D01*
X30832Y-273107D01*
X31608Y-272786D01*
X32274Y-272274D01*
X32786Y-271608D01*
X33107Y-270832D01*
X33217Y-270000D01*
X33107Y-269167D01*
X32786Y-268392D01*
X32274Y-267726D01*
X31608Y-267214D01*
X30832Y-266893D01*
X30000Y-266783D01*
D02*
G37*
G36*
X-30000Y-256784D02*
X-30832Y-256893D01*
X-31608Y-257214D01*
X-32274Y-257726D01*
X-32786Y-258392D01*
X-33107Y-259168D01*
X-33217Y-260000D01*
X-33107Y-260833D01*
X-32786Y-261608D01*
X-32274Y-262274D01*
X-31608Y-262786D01*
X-30832Y-263107D01*
X-30000Y-263216D01*
X-29168Y-263107D01*
X-28392Y-262786D01*
X-27726Y-262274D01*
X-27214Y-261608D01*
X-26893Y-260833D01*
X-26783Y-260000D01*
X-26893Y-259168D01*
X-27214Y-258392D01*
X-27726Y-257726D01*
X-28392Y-257214D01*
X-29168Y-256893D01*
X-30000Y-256784D01*
D02*
G37*
G36*
X30000D02*
X29168Y-256893D01*
X28392Y-257214D01*
X27726Y-257726D01*
X27214Y-258392D01*
X26893Y-259168D01*
X26783Y-260000D01*
X26893Y-260833D01*
X27214Y-261608D01*
X27726Y-262274D01*
X28392Y-262786D01*
X29168Y-263107D01*
X30000Y-263216D01*
X30832Y-263107D01*
X31608Y-262786D01*
X32274Y-262274D01*
X32786Y-261608D01*
X33107Y-260833D01*
X33217Y-260000D01*
X33107Y-259168D01*
X32786Y-258392D01*
X32274Y-257726D01*
X31608Y-257214D01*
X30832Y-256893D01*
X30000Y-256784D01*
D02*
G37*
G36*
X29250Y-207065D02*
X29215Y-207069D01*
X28483Y-207373D01*
X27855Y-207855D01*
X27373Y-208483D01*
X27070Y-209215D01*
X27065Y-209250D01*
X29250D01*
Y-207065D01*
D02*
G37*
G36*
X-84397Y-177350D02*
X-86897D01*
Y-180250D01*
X-84397D01*
Y-177350D01*
D02*
G37*
G36*
X-6750Y-170325D02*
X-7494Y-170423D01*
X-8887Y-171000D01*
X-10083Y-171917D01*
X-11000Y-173113D01*
X-11577Y-174506D01*
X-11675Y-175250D01*
X-6750D01*
Y-170325D01*
D02*
G37*
G36*
X-5250D02*
Y-175250D01*
X-325D01*
X-423Y-174506D01*
X-1000Y-173113D01*
X-1917Y-171917D01*
X-3113Y-171000D01*
X-4506Y-170423D01*
X-5250Y-170325D01*
D02*
G37*
G36*
X-6750Y-176750D02*
X-11675D01*
X-11577Y-177494D01*
X-11000Y-178887D01*
X-10083Y-180083D01*
X-8887Y-181000D01*
X-7494Y-181577D01*
X-6750Y-181675D01*
Y-176750D01*
D02*
G37*
G36*
X-325D02*
X-5250D01*
Y-181675D01*
X-4506Y-181577D01*
X-3113Y-181000D01*
X-1917Y-180083D01*
X-1000Y-178887D01*
X-423Y-177494D01*
X-325Y-176750D01*
D02*
G37*
G36*
X95350Y-174491D02*
X94494Y-174603D01*
X93695Y-174934D01*
X93010Y-175460D01*
X92484Y-176145D01*
X92153Y-176944D01*
X92041Y-177800D01*
X92153Y-178656D01*
X92484Y-179455D01*
X93010Y-180140D01*
X93695Y-180666D01*
X94494Y-180997D01*
X95350Y-181109D01*
X96207Y-180997D01*
X97005Y-180666D01*
X97690Y-180140D01*
X98216Y-179455D01*
X98547Y-178656D01*
X98659Y-177800D01*
X98547Y-176944D01*
X98216Y-176145D01*
X97690Y-175460D01*
X97005Y-174934D01*
X96207Y-174603D01*
X95350Y-174491D01*
D02*
G37*
G36*
X-84397Y-170750D02*
X-86897D01*
Y-173650D01*
X-84397D01*
Y-170750D01*
D02*
G37*
G36*
X95350Y-162191D02*
X94494Y-162303D01*
X93695Y-162634D01*
X93010Y-163160D01*
X92484Y-163845D01*
X92153Y-164644D01*
X92041Y-165500D01*
X92153Y-166357D01*
X92484Y-167155D01*
X93010Y-167840D01*
X93695Y-168366D01*
X94494Y-168697D01*
X95350Y-168809D01*
X96207Y-168697D01*
X97005Y-168366D01*
X97690Y-167840D01*
X98216Y-167155D01*
X98547Y-166357D01*
X98659Y-165500D01*
X98547Y-164644D01*
X98216Y-163845D01*
X97690Y-163160D01*
X97005Y-162634D01*
X96207Y-162303D01*
X95350Y-162191D01*
D02*
G37*
G36*
X-61169Y-165319D02*
X-71331D01*
Y-168394D01*
X-72922D01*
Y-166169D01*
X-79685D01*
X-79782Y-166169D01*
X-79784D01*
X-80497Y-166350D01*
X-80572Y-166350D01*
X-82897D01*
Y-170000D01*
Y-173650D01*
X-80572D01*
X-80497Y-173650D01*
X-79784Y-173831D01*
X-79782D01*
X-79685Y-173831D01*
X-72922D01*
Y-171606D01*
X-71888D01*
X-71331Y-172162D01*
Y-174531D01*
X-71331Y-174681D01*
Y-175000D01*
Y-175319D01*
X-71331Y-175469D01*
Y-178394D01*
X-72922D01*
Y-177169D01*
X-79685D01*
X-79782Y-177169D01*
X-79784D01*
X-80497Y-177350D01*
X-80572Y-177350D01*
X-82897D01*
Y-181000D01*
Y-184650D01*
X-80572D01*
X-80497Y-184650D01*
X-79784Y-184831D01*
X-79782D01*
X-79685Y-184831D01*
X-72922D01*
Y-181606D01*
X-71331D01*
Y-184681D01*
X-61169D01*
Y-175469D01*
X-61169Y-175319D01*
Y-175000D01*
Y-174681D01*
X-61169Y-174531D01*
Y-165319D01*
D02*
G37*
G36*
X-84397Y-160750D02*
X-86897D01*
Y-163650D01*
X-84397D01*
Y-160750D01*
D02*
G37*
G36*
X-30000Y-166783D02*
X-30832Y-166893D01*
X-31608Y-167214D01*
X-32274Y-167726D01*
X-32786Y-168392D01*
X-33107Y-169167D01*
X-33217Y-170000D01*
X-33107Y-170833D01*
X-32786Y-171608D01*
X-32274Y-172274D01*
X-31608Y-172786D01*
X-30832Y-173107D01*
X-30000Y-173216D01*
X-29168Y-173107D01*
X-28392Y-172786D01*
X-27726Y-172274D01*
X-27214Y-171608D01*
X-26893Y-170833D01*
X-26783Y-170000D01*
X-26893Y-169167D01*
X-27214Y-168392D01*
X-27726Y-167726D01*
X-28392Y-167214D01*
X-29168Y-166893D01*
X-30000Y-166783D01*
D02*
G37*
G36*
X30000D02*
X29168Y-166893D01*
X28392Y-167214D01*
X27726Y-167726D01*
X27214Y-168392D01*
X26893Y-169167D01*
X26783Y-170000D01*
X26893Y-170833D01*
X27214Y-171608D01*
X27726Y-172274D01*
X28392Y-172786D01*
X29168Y-173107D01*
X30000Y-173216D01*
X30832Y-173107D01*
X31608Y-172786D01*
X32274Y-172274D01*
X32786Y-171608D01*
X33107Y-170833D01*
X33217Y-170000D01*
X33107Y-169167D01*
X32786Y-168392D01*
X32274Y-167726D01*
X31608Y-167214D01*
X30832Y-166893D01*
X30000Y-166783D01*
D02*
G37*
G36*
X-84397Y-166350D02*
X-86897D01*
Y-169250D01*
X-84397D01*
Y-166350D01*
D02*
G37*
G36*
X-27065Y-200750D02*
X-29250D01*
Y-202935D01*
X-29215Y-202930D01*
X-28483Y-202627D01*
X-27855Y-202145D01*
X-27373Y-201517D01*
X-27070Y-200785D01*
X-27065Y-200750D01*
D02*
G37*
G36*
X-30750Y-197065D02*
X-30785Y-197070D01*
X-31517Y-197373D01*
X-32145Y-197855D01*
X-32627Y-198483D01*
X-32930Y-199215D01*
X-32935Y-199250D01*
X-30750D01*
Y-197065D01*
D02*
G37*
G36*
X-29250D02*
Y-199250D01*
X-27065D01*
X-27070Y-199215D01*
X-27373Y-198483D01*
X-27855Y-197855D01*
X-28483Y-197373D01*
X-29215Y-197070D01*
X-29250Y-197065D01*
D02*
G37*
G36*
X30750Y-207065D02*
Y-209250D01*
X32935D01*
X32930Y-209215D01*
X32627Y-208483D01*
X32145Y-207855D01*
X31517Y-207373D01*
X30785Y-207069D01*
X30750Y-207065D01*
D02*
G37*
G36*
X95350Y-196791D02*
X94494Y-196903D01*
X93695Y-197234D01*
X93010Y-197760D01*
X92484Y-198445D01*
X92153Y-199243D01*
X92041Y-200100D01*
X92153Y-200957D01*
X92484Y-201755D01*
X93010Y-202440D01*
X93695Y-202966D01*
X94494Y-203297D01*
X95350Y-203409D01*
X96207Y-203297D01*
X97005Y-202966D01*
X97690Y-202440D01*
X98216Y-201755D01*
X98547Y-200957D01*
X98659Y-200100D01*
X98547Y-199243D01*
X98216Y-198445D01*
X97690Y-197760D01*
X97005Y-197234D01*
X96207Y-196903D01*
X95350Y-196791D01*
D02*
G37*
G36*
X-30750Y-200750D02*
X-32935D01*
X-32930Y-200785D01*
X-32627Y-201517D01*
X-32145Y-202145D01*
X-31517Y-202627D01*
X-30785Y-202930D01*
X-30750Y-202935D01*
Y-200750D01*
D02*
G37*
G36*
X5250Y-190750D02*
X325D01*
X423Y-191494D01*
X1000Y-192887D01*
X1917Y-194083D01*
X3113Y-195000D01*
X4506Y-195577D01*
X5250Y-195675D01*
Y-190750D01*
D02*
G37*
G36*
X-84397Y-181750D02*
X-86897D01*
Y-184650D01*
X-84397D01*
Y-181750D01*
D02*
G37*
G36*
X-30000Y-176784D02*
X-30832Y-176893D01*
X-31608Y-177214D01*
X-32274Y-177726D01*
X-32786Y-178392D01*
X-33107Y-179167D01*
X-33217Y-180000D01*
X-33107Y-180833D01*
X-32786Y-181608D01*
X-32274Y-182274D01*
X-31608Y-182786D01*
X-30832Y-183107D01*
X-30000Y-183217D01*
X-29168Y-183107D01*
X-28392Y-182786D01*
X-27726Y-182274D01*
X-27214Y-181608D01*
X-26893Y-180833D01*
X-26783Y-180000D01*
X-26893Y-179167D01*
X-27214Y-178392D01*
X-27726Y-177726D01*
X-28392Y-177214D01*
X-29168Y-176893D01*
X-30000Y-176784D01*
D02*
G37*
G36*
X30000D02*
X29168Y-176893D01*
X28392Y-177214D01*
X27726Y-177726D01*
X27214Y-178392D01*
X26893Y-179167D01*
X26783Y-180000D01*
X26893Y-180833D01*
X27214Y-181608D01*
X27726Y-182274D01*
X28392Y-182786D01*
X29168Y-183107D01*
X30000Y-183217D01*
X30832Y-183107D01*
X31608Y-182786D01*
X32274Y-182274D01*
X32786Y-181608D01*
X33107Y-180833D01*
X33217Y-180000D01*
X33107Y-179167D01*
X32786Y-178392D01*
X32274Y-177726D01*
X31608Y-177214D01*
X30832Y-176893D01*
X30000Y-176784D01*
D02*
G37*
G36*
X-30000Y-186784D02*
X-30832Y-186893D01*
X-31608Y-187214D01*
X-32274Y-187726D01*
X-32786Y-188392D01*
X-33107Y-189167D01*
X-33217Y-190000D01*
X-33107Y-190832D01*
X-32786Y-191608D01*
X-32274Y-192274D01*
X-31608Y-192786D01*
X-30832Y-193107D01*
X-30000Y-193217D01*
X-29168Y-193107D01*
X-28392Y-192786D01*
X-27726Y-192274D01*
X-27214Y-191608D01*
X-26893Y-190832D01*
X-26783Y-190000D01*
X-26893Y-189167D01*
X-27214Y-188392D01*
X-27726Y-187726D01*
X-28392Y-187214D01*
X-29168Y-186893D01*
X-30000Y-186784D01*
D02*
G37*
G36*
X95350Y-184491D02*
X94494Y-184603D01*
X93695Y-184934D01*
X93010Y-185460D01*
X92484Y-186145D01*
X92153Y-186943D01*
X92041Y-187800D01*
X92153Y-188656D01*
X92484Y-189455D01*
X93010Y-190140D01*
X93695Y-190666D01*
X94494Y-190997D01*
X95350Y-191109D01*
X96207Y-190997D01*
X97005Y-190666D01*
X97690Y-190140D01*
X98216Y-189455D01*
X98547Y-188656D01*
X98659Y-187800D01*
X98547Y-186943D01*
X98216Y-186145D01*
X97690Y-185460D01*
X97005Y-184934D01*
X96207Y-184603D01*
X95350Y-184491D01*
D02*
G37*
G36*
X5250Y-184325D02*
X4506Y-184423D01*
X3113Y-185000D01*
X1917Y-185917D01*
X1000Y-187113D01*
X423Y-188506D01*
X325Y-189250D01*
X5250D01*
Y-184325D01*
D02*
G37*
G36*
X30750Y-47065D02*
Y-49250D01*
X32935D01*
X32930Y-49215D01*
X32627Y-48483D01*
X32145Y-47855D01*
X31517Y-47373D01*
X30785Y-47069D01*
X30750Y-47065D01*
D02*
G37*
G36*
X-260750Y68826D02*
X-260757Y68825D01*
X-261462Y68533D01*
X-262068Y68068D01*
X-262533Y67462D01*
X-262825Y66757D01*
X-262826Y66750D01*
X-260750D01*
Y68826D01*
D02*
G37*
G36*
X-259250D02*
Y66750D01*
X-257174D01*
X-257175Y66757D01*
X-257467Y67462D01*
X-257932Y68068D01*
X-258538Y68533D01*
X-259243Y68825D01*
X-259250Y68826D01*
D02*
G37*
G36*
X153250Y73675D02*
X152506Y73577D01*
X151113Y73000D01*
X149917Y72083D01*
X149000Y70887D01*
X148423Y69494D01*
X148325Y68750D01*
X153250D01*
Y73675D01*
D02*
G37*
G36*
X-257174Y65250D02*
X-259250D01*
Y63174D01*
X-259243Y63175D01*
X-258538Y63467D01*
X-257932Y63932D01*
X-257467Y64538D01*
X-257175Y65243D01*
X-257174Y65250D01*
D02*
G37*
G36*
X-38750Y66650D02*
X-41250D01*
Y63750D01*
X-38750D01*
Y66650D01*
D02*
G37*
G36*
X-15397D02*
X-17897D01*
Y63750D01*
X-15397D01*
Y66650D01*
D02*
G37*
G36*
X-260000Y82576D02*
X-260007Y82575D01*
X-260713Y82283D01*
X-261318Y81818D01*
X-261783Y81213D01*
X-262075Y80507D01*
X-262076Y80500D01*
X-260000D01*
Y82576D01*
D02*
G37*
G36*
X-258500D02*
Y80500D01*
X-256424D01*
X-256425Y80507D01*
X-256717Y81213D01*
X-257182Y81818D01*
X-257787Y82283D01*
X-258493Y82575D01*
X-258500Y82576D01*
D02*
G37*
G36*
X-259250Y90358D02*
X-260054Y90252D01*
X-260804Y89941D01*
X-261448Y89447D01*
X-261941Y88804D01*
X-262252Y88054D01*
X-262358Y87250D01*
X-262252Y86446D01*
X-261941Y85696D01*
X-261448Y85053D01*
X-260804Y84559D01*
X-260054Y84248D01*
X-259250Y84142D01*
X-258446Y84248D01*
X-257696Y84559D01*
X-257052Y85053D01*
X-256559Y85696D01*
X-256248Y86446D01*
X-256142Y87250D01*
X-256248Y88054D01*
X-256559Y88804D01*
X-257052Y89447D01*
X-257696Y89941D01*
X-258446Y90252D01*
X-259250Y90358D01*
D02*
G37*
G36*
X154750Y73675D02*
Y68750D01*
X159675D01*
X159577Y69494D01*
X159000Y70887D01*
X158083Y72083D01*
X156887Y73000D01*
X155494Y73577D01*
X154750Y73675D01*
D02*
G37*
G36*
X-260000Y79000D02*
X-262076D01*
X-262075Y78993D01*
X-261783Y78288D01*
X-261318Y77682D01*
X-260713Y77217D01*
X-260007Y76925D01*
X-260000Y76924D01*
Y79000D01*
D02*
G37*
G36*
X-256424D02*
X-258500D01*
Y76924D01*
X-258493Y76925D01*
X-257787Y77217D01*
X-257182Y77682D01*
X-256717Y78288D01*
X-256425Y78993D01*
X-256424Y79000D01*
D02*
G37*
G36*
X-260750Y65250D02*
X-262826D01*
X-262825Y65243D01*
X-262533Y64538D01*
X-262068Y63932D01*
X-261462Y63467D01*
X-260757Y63175D01*
X-260750Y63174D01*
Y65250D01*
D02*
G37*
G36*
X212785Y61512D02*
X210567D01*
Y59096D01*
X212785D01*
Y61512D01*
D02*
G37*
G36*
X216504D02*
X214285D01*
Y59096D01*
X216504D01*
Y61512D01*
D02*
G37*
G36*
X-38750Y62250D02*
X-41250D01*
Y59350D01*
X-38750D01*
Y62250D01*
D02*
G37*
G36*
X-196374Y59935D02*
X-197510D01*
Y57618D01*
X-196374D01*
Y59935D01*
D02*
G37*
G36*
X154603Y61568D02*
X153397D01*
X153394Y61512D01*
X152931D01*
Y59096D01*
X155150D01*
Y61512D01*
X154606D01*
X154603Y61568D01*
D02*
G37*
G36*
X158869Y61512D02*
X156650D01*
Y59096D01*
X158869D01*
Y61512D01*
D02*
G37*
G36*
X153250Y67250D02*
X148325D01*
X148423Y66506D01*
X149000Y65113D01*
X149917Y63917D01*
X151113Y63000D01*
X152506Y62423D01*
X153250Y62325D01*
Y67250D01*
D02*
G37*
G36*
X159675D02*
X154750D01*
Y62325D01*
X155494Y62423D01*
X156887Y63000D01*
X158083Y63917D01*
X159000Y65113D01*
X159577Y66506D01*
X159675Y67250D01*
D02*
G37*
G36*
X-70397Y65250D02*
X-72897D01*
Y62350D01*
X-70397D01*
Y65250D01*
D02*
G37*
G36*
X-15397Y62250D02*
X-17897D01*
Y59350D01*
X-15397D01*
Y62250D01*
D02*
G37*
G36*
X202250Y64675D02*
X201506Y64577D01*
X200113Y64000D01*
X198917Y63083D01*
X198000Y61887D01*
X197423Y60494D01*
X197325Y59750D01*
X202250D01*
Y64675D01*
D02*
G37*
G36*
X203750D02*
Y59750D01*
X208675D01*
X208577Y60494D01*
X208000Y61887D01*
X207083Y63083D01*
X205887Y64000D01*
X204494Y64577D01*
X203750Y64675D01*
D02*
G37*
G36*
X22180Y241341D02*
X13819D01*
Y232980D01*
X22180D01*
Y241341D01*
D02*
G37*
G36*
X-280000Y257121D02*
X-281389Y256984D01*
X-282725Y256579D01*
X-283956Y255921D01*
X-285035Y255035D01*
X-285921Y253956D01*
X-286579Y252725D01*
X-286984Y251389D01*
X-287121Y250000D01*
X-286984Y248611D01*
X-286579Y247275D01*
X-285921Y246044D01*
X-285035Y244965D01*
X-284904Y244857D01*
X-285233Y244364D01*
X-285356Y243750D01*
X-285233Y243136D01*
X-284885Y242615D01*
X-282664Y240394D01*
Y239606D01*
X-284885Y237385D01*
X-285233Y236864D01*
X-285356Y236250D01*
X-285233Y235636D01*
X-284885Y235115D01*
X-284364Y234767D01*
X-283750Y234644D01*
X-283136Y234767D01*
X-282615Y235115D01*
X-280000Y237729D01*
X-277385Y235115D01*
X-276865Y234767D01*
X-276250Y234644D01*
X-275636Y234767D01*
X-275115Y235115D01*
X-274767Y235636D01*
X-274644Y236250D01*
X-274767Y236864D01*
X-275115Y237385D01*
X-277729Y240000D01*
X-275115Y242615D01*
X-274767Y243135D01*
X-274644Y243750D01*
X-274767Y244364D01*
X-275096Y244857D01*
X-274965Y244965D01*
X-274079Y246044D01*
X-273421Y247275D01*
X-273016Y248611D01*
X-272879Y250000D01*
X-273016Y251389D01*
X-273421Y252725D01*
X-274079Y253956D01*
X-274965Y255035D01*
X-276044Y255921D01*
X-277275Y256579D01*
X-278611Y256984D01*
X-280000Y257121D01*
D02*
G37*
G36*
X237000Y289361D02*
X173000D01*
X171613Y289178D01*
X170966Y288910D01*
X170320Y288643D01*
X169209Y287791D01*
X142709Y261291D01*
X141857Y260180D01*
X141590Y259534D01*
X141322Y258888D01*
X141139Y257500D01*
Y240748D01*
X140352Y240466D01*
X139953Y240953D01*
X139053Y241691D01*
X138028Y242239D01*
X137362Y242441D01*
Y245704D01*
X139497D01*
Y258696D01*
X137362D01*
Y267504D01*
X139497D01*
Y280496D01*
X132017D01*
X131820Y281202D01*
Y284236D01*
X116859D01*
Y284096D01*
X116276Y283567D01*
X115000Y283692D01*
X113109Y283506D01*
X111291Y282955D01*
X109615Y282059D01*
X108147Y280854D01*
X106941Y279385D01*
X106045Y277709D01*
X105494Y275891D01*
X105308Y274000D01*
X105494Y272109D01*
X105740Y271299D01*
X105271Y270666D01*
X73510D01*
X72409Y271254D01*
X70591Y271806D01*
X68700Y271992D01*
X66809Y271806D01*
X64991Y271254D01*
X63890Y270666D01*
X28498D01*
Y253934D01*
Y238834D01*
X33275D01*
Y234365D01*
X33457Y232977D01*
X33725Y232331D01*
X33993Y231684D01*
X34845Y230574D01*
X43709Y221709D01*
X44265Y221283D01*
X44820Y220857D01*
X45466Y220590D01*
X46112Y220322D01*
X47500Y220139D01*
X49996D01*
Y209949D01*
Y182949D01*
X53493D01*
Y158948D01*
X53676Y157560D01*
X53944Y156914D01*
X54212Y156267D01*
X55064Y155157D01*
X74011Y136209D01*
X75122Y135357D01*
X75657Y135136D01*
X76415Y134822D01*
X77802Y134639D01*
X102110D01*
Y128091D01*
X110071D01*
X110394Y127697D01*
X110394Y127697D01*
Y103665D01*
X95835Y89106D01*
X71412D01*
X70952Y89559D01*
Y90441D01*
X71412Y90894D01*
X82500D01*
X82500Y90894D01*
X83012Y90996D01*
X83114Y91017D01*
X83635Y91365D01*
X87116Y94845D01*
X87729Y94518D01*
X88842Y94180D01*
X90000Y94066D01*
X91158Y94180D01*
X92271Y94518D01*
X93297Y95066D01*
X94196Y95804D01*
X94934Y96703D01*
X95482Y97729D01*
X95820Y98842D01*
X95934Y100000D01*
X95820Y101158D01*
X95482Y102271D01*
X94934Y103297D01*
X94196Y104196D01*
X93297Y104934D01*
X92271Y105482D01*
X91158Y105820D01*
X90000Y105934D01*
X88842Y105820D01*
X87729Y105482D01*
X86703Y104934D01*
X85804Y104196D01*
X85066Y103297D01*
X84518Y102271D01*
X84180Y101158D01*
X84066Y100000D01*
X84180Y98842D01*
X84518Y97729D01*
X84845Y97116D01*
X81835Y94106D01*
X71412D01*
X70784Y94724D01*
Y95000D01*
Y95276D01*
X70784Y95512D01*
Y99488D01*
X70784Y99724D01*
Y100000D01*
Y100276D01*
X70784Y100512D01*
Y104724D01*
X60626D01*
Y100512D01*
X60626Y100276D01*
Y100000D01*
Y99724D01*
X59997Y99106D01*
X59500D01*
X58886Y98983D01*
X58365Y98635D01*
X58365Y98635D01*
X56393Y96664D01*
X55606Y96990D01*
Y100000D01*
X55483Y100615D01*
X55135Y101135D01*
X55135Y101135D01*
X52635Y103635D01*
X52114Y103983D01*
X52012Y104004D01*
X51500Y104106D01*
X51500Y104106D01*
X50881D01*
X50262Y104724D01*
X42329D01*
X41216Y103612D01*
Y101388D01*
X42092Y100512D01*
X41766Y99724D01*
X41216D01*
Y99106D01*
X31446D01*
X31415Y99193D01*
X31269Y99893D01*
X31934Y100703D01*
X32482Y101729D01*
X32820Y102842D01*
X32934Y104000D01*
X32820Y105158D01*
X32482Y106271D01*
X31934Y107297D01*
X31196Y108196D01*
X30297Y108934D01*
X29271Y109482D01*
X28158Y109820D01*
X27000Y109934D01*
X25842Y109820D01*
X24729Y109482D01*
X23703Y108934D01*
X22804Y108196D01*
X22066Y107297D01*
X21518Y106271D01*
X21316Y105606D01*
X16665D01*
X11574Y110697D01*
Y222815D01*
X11452Y223430D01*
X11104Y223951D01*
X11104Y223951D01*
X-34442Y269497D01*
X-34964Y269845D01*
X-35065Y269865D01*
X-35578Y269968D01*
X-35578Y269968D01*
X-126296D01*
Y284252D01*
X-126387Y284713D01*
X-126648Y285104D01*
X-127039Y285365D01*
X-127500Y285456D01*
X-166142D01*
X-166603Y285365D01*
X-166993Y285104D01*
X-167254Y284713D01*
X-167346Y284252D01*
Y260000D01*
X-167254Y259539D01*
X-166993Y259149D01*
X-166679Y258939D01*
X-166443Y258173D01*
X-166469Y258044D01*
X-166516Y257921D01*
X-166514Y257816D01*
X-166535Y257713D01*
Y257596D01*
X-166519Y257518D01*
X-166524Y257438D01*
X-166502Y257274D01*
X-166524Y257108D01*
X-166519Y257029D01*
X-166535Y256951D01*
X-166535Y256783D01*
X-166577Y256623D01*
X-166583Y256543D01*
X-166608Y256468D01*
X-166630Y256304D01*
X-166694Y256149D01*
X-166709Y256071D01*
X-166744Y256000D01*
X-166799Y255794D01*
X-166810Y255779D01*
X-166903Y255554D01*
X-166995Y255395D01*
X-166995Y255394D01*
X-167023Y255345D01*
X-167025Y255338D01*
X-167026Y255337D01*
X-167047Y255277D01*
X-167067Y255247D01*
X-167067Y255246D01*
X-167068Y255239D01*
X-167095Y255200D01*
X-167097Y255193D01*
X-167119Y255082D01*
X-167150Y255018D01*
X-167218Y254766D01*
X-167218Y254766D01*
X-167218Y254765D01*
X-167218Y254764D01*
X-167218Y254761D01*
X-167276Y254547D01*
X-167276Y254546D01*
X-167277Y254544D01*
X-167295Y254475D01*
X-167296Y254474D01*
X-167298Y254466D01*
X-167309Y254307D01*
X-167325Y254225D01*
X-167337Y254163D01*
X-167337Y254163D01*
X-167340Y254151D01*
X-167340Y253955D01*
X-167340Y253955D01*
X-167340Y253955D01*
X-167339Y253831D01*
X-167339Y253831D01*
Y253829D01*
X-167339Y253828D01*
X-167340Y253827D01*
X-167339Y253159D01*
Y253159D01*
Y253159D01*
X-167335Y249180D01*
Y249180D01*
X-167329Y243995D01*
X-167328Y242907D01*
Y242907D01*
X-167322Y236846D01*
X-167312Y227017D01*
X-167309Y224978D01*
Y224978D01*
X-167204Y123999D01*
X-167158Y123768D01*
X-167113Y123539D01*
X-167112Y123539D01*
X-167112Y123538D01*
X-166981Y123343D01*
X-166851Y123149D01*
X-166851Y123148D01*
X-166851Y123148D01*
X-166655Y123017D01*
X-166461Y122887D01*
X-166460Y122887D01*
X-166460Y122887D01*
X-166230Y122842D01*
X-166000Y122796D01*
X-127500D01*
X-127381Y122698D01*
Y120963D01*
X-127997Y120634D01*
X-128896Y119896D01*
X-129634Y118997D01*
X-130182Y117971D01*
X-130520Y116858D01*
X-130634Y115700D01*
X-130520Y114542D01*
X-130182Y113429D01*
X-129634Y112403D01*
X-128896Y111504D01*
X-127997Y110766D01*
X-126971Y110218D01*
X-125858Y109880D01*
X-124700Y109766D01*
X-123542Y109880D01*
X-122429Y110218D01*
X-121403Y110766D01*
X-120504Y111504D01*
X-119766Y112403D01*
X-119218Y113429D01*
X-118880Y114542D01*
X-118766Y115700D01*
X-118880Y116858D01*
X-119218Y117971D01*
X-119766Y118997D01*
X-120504Y119896D01*
X-121403Y120634D01*
X-122429Y121182D01*
X-123542Y121520D01*
X-124169Y121582D01*
Y122796D01*
X-78956D01*
Y121315D01*
X-94665Y105606D01*
X-162335D01*
X-182565Y125836D01*
X-182663Y125901D01*
X-182790Y126717D01*
X-182757Y126860D01*
X-182066Y127703D01*
X-181518Y128729D01*
X-181180Y129842D01*
X-181066Y131000D01*
X-181180Y132158D01*
X-181518Y133271D01*
X-182066Y134297D01*
X-182804Y135196D01*
X-183703Y135934D01*
X-184729Y136482D01*
X-185394Y136684D01*
Y139669D01*
X-184476D01*
Y146131D01*
X-189838D01*
Y146131D01*
X-190269D01*
Y146131D01*
X-195632D01*
X-195632Y146131D01*
Y146131D01*
X-196394Y146190D01*
Y147000D01*
X-196517Y147615D01*
X-196865Y148135D01*
X-196865Y148135D01*
X-197765Y149035D01*
X-198285Y149383D01*
X-198388Y149404D01*
X-198900Y149506D01*
X-199219Y150168D01*
Y150581D01*
X-199400D01*
Y152150D01*
X-208400D01*
Y150581D01*
X-208581D01*
Y145219D01*
Y142690D01*
X-211542Y139729D01*
X-211842Y139820D01*
X-213000Y139934D01*
X-214158Y139820D01*
X-215271Y139482D01*
X-216297Y138934D01*
X-217196Y138196D01*
X-217934Y137297D01*
X-218482Y136271D01*
X-218820Y135158D01*
X-218905Y134290D01*
X-219679Y133950D01*
X-223569Y137840D01*
Y143175D01*
X-223569Y143175D01*
X-223671Y143687D01*
X-223692Y143790D01*
X-224040Y144310D01*
X-228765Y149035D01*
X-229286Y149383D01*
X-229387Y149404D01*
X-229900Y149506D01*
X-230219Y150168D01*
Y150219D01*
Y155219D01*
Y156294D01*
X-225100D01*
X-225100Y156294D01*
X-224587Y156396D01*
X-224485Y156417D01*
X-223965Y156765D01*
X-221711Y159018D01*
X-221711Y159018D01*
X-221363Y159539D01*
X-221343Y159641D01*
X-221241Y160153D01*
X-221241Y160154D01*
Y162950D01*
X-219500D01*
Y162950D01*
X-219319Y163131D01*
X-216903D01*
Y166100D01*
Y169069D01*
X-218788D01*
X-219500Y169250D01*
X-219500Y169250D01*
X-220287Y169250D01*
X-223725D01*
X-226611Y172135D01*
X-227132Y172483D01*
X-227234Y172504D01*
X-227747Y172606D01*
X-227747Y172606D01*
X-229316D01*
X-229518Y173271D01*
X-230066Y174297D01*
X-230804Y175196D01*
X-231703Y175934D01*
X-232729Y176482D01*
X-233842Y176820D01*
X-235000Y176934D01*
X-236158Y176820D01*
X-237271Y176482D01*
X-238297Y175934D01*
X-239196Y175196D01*
X-239934Y174297D01*
X-240482Y173271D01*
X-240820Y172158D01*
X-240934Y171000D01*
X-240820Y169842D01*
X-240482Y168729D01*
X-239934Y167703D01*
X-239196Y166804D01*
X-238297Y166066D01*
X-237271Y165518D01*
X-236158Y165180D01*
X-235000Y165066D01*
X-233842Y165180D01*
X-232729Y165518D01*
X-231703Y166066D01*
X-230804Y166804D01*
X-230066Y167703D01*
X-229518Y168729D01*
X-229316Y169394D01*
X-228412D01*
X-226193Y167176D01*
Y162950D01*
X-224452D01*
Y160819D01*
X-225765Y159506D01*
X-230219D01*
Y160581D01*
X-239581D01*
Y159506D01*
X-252374D01*
Y164862D01*
X-261626D01*
Y160044D01*
X-262414Y159927D01*
X-262518Y160271D01*
X-263066Y161297D01*
X-263804Y162196D01*
X-264703Y162934D01*
X-265729Y163482D01*
X-266842Y163820D01*
X-268000Y163934D01*
X-269158Y163820D01*
X-270271Y163482D01*
X-271297Y162934D01*
X-271906Y162434D01*
X-272694Y162806D01*
Y175036D01*
X-264353Y183376D01*
X-263626Y183074D01*
Y173138D01*
X-254374D01*
Y179594D01*
X-252385D01*
Y178519D01*
X-245922D01*
Y178994D01*
X-241335D01*
Y177919D01*
X-231972D01*
Y182919D01*
Y183994D01*
X-230265D01*
X-221135Y174865D01*
X-220615Y174517D01*
X-220513Y174496D01*
X-220000Y174394D01*
X-220000Y174394D01*
X-211667D01*
X-211400Y173607D01*
X-212083Y173083D01*
X-213000Y171887D01*
X-213577Y170494D01*
X-213765Y169069D01*
X-215404D01*
Y166100D01*
Y163131D01*
X-212988D01*
Y164873D01*
X-212243Y165126D01*
X-212083Y164917D01*
X-210887Y164000D01*
X-209494Y163423D01*
X-208750Y163325D01*
Y169000D01*
X-208000D01*
Y169750D01*
X-202325D01*
X-202423Y170494D01*
X-203000Y171887D01*
X-203917Y173083D01*
X-204601Y173607D01*
X-204333Y174394D01*
X-199304D01*
X-199304Y174394D01*
X-198791Y174496D01*
X-198689Y174517D01*
X-198169Y174865D01*
X-195664Y177369D01*
X-192023D01*
Y177369D01*
X-191591D01*
Y177369D01*
X-186229D01*
Y178994D01*
X-183784D01*
X-183582Y178329D01*
X-183034Y177303D01*
X-182296Y176404D01*
X-181397Y175666D01*
X-180371Y175118D01*
X-179258Y174780D01*
X-178100Y174666D01*
X-176942Y174780D01*
X-175829Y175118D01*
X-174803Y175666D01*
X-173904Y176404D01*
X-173166Y177303D01*
X-172618Y178329D01*
X-172280Y179442D01*
X-172166Y180600D01*
X-172280Y181758D01*
X-172618Y182871D01*
X-173166Y183897D01*
X-173904Y184796D01*
X-174803Y185534D01*
X-174940Y185607D01*
X-174742Y186394D01*
X-171000D01*
X-171000Y186394D01*
X-170487Y186496D01*
X-170386Y186517D01*
X-169865Y186865D01*
X-168865Y187865D01*
X-168865Y187865D01*
X-168517Y188385D01*
X-168394Y189000D01*
Y201000D01*
X-168517Y201614D01*
X-168865Y202135D01*
X-168865Y202135D01*
X-171845Y205116D01*
X-171518Y205729D01*
X-171180Y206842D01*
X-171066Y208000D01*
X-171180Y209158D01*
X-171518Y210271D01*
X-172066Y211297D01*
X-172804Y212196D01*
X-173703Y212934D01*
X-174729Y213482D01*
X-175842Y213820D01*
X-177000Y213934D01*
X-178158Y213820D01*
X-179271Y213482D01*
X-180297Y212934D01*
X-181196Y212196D01*
X-181934Y211297D01*
X-182482Y210271D01*
X-182820Y209158D01*
X-182934Y208000D01*
X-182820Y206842D01*
X-182482Y205729D01*
X-181934Y204703D01*
X-181196Y203804D01*
X-180297Y203066D01*
X-179271Y202518D01*
X-178158Y202180D01*
X-177000Y202066D01*
X-175842Y202180D01*
X-174729Y202518D01*
X-174116Y202845D01*
X-171606Y200335D01*
Y198170D01*
X-172393Y197973D01*
X-172566Y198297D01*
X-173304Y199196D01*
X-174203Y199934D01*
X-175229Y200482D01*
X-176342Y200820D01*
X-177500Y200934D01*
X-178658Y200820D01*
X-179771Y200482D01*
X-180797Y199934D01*
X-181696Y199196D01*
X-182434Y198297D01*
X-182750Y197706D01*
X-186229D01*
Y199331D01*
X-191591D01*
Y199331D01*
X-192023D01*
Y199331D01*
X-197385D01*
Y197206D01*
X-200972D01*
Y198281D01*
X-210335D01*
Y192919D01*
X-210154D01*
Y191350D01*
X-201153D01*
Y192919D01*
X-200972D01*
Y193994D01*
X-197385D01*
Y192869D01*
X-192023D01*
Y192869D01*
X-191591D01*
Y192869D01*
X-186229D01*
Y194494D01*
X-183384D01*
X-183320Y193842D01*
X-182982Y192729D01*
X-182434Y191703D01*
X-181696Y190804D01*
X-181195Y190393D01*
X-181477Y189606D01*
X-194737D01*
X-194737Y189606D01*
X-195352Y189483D01*
X-195872Y189135D01*
X-198475Y186533D01*
X-199262D01*
X-199465Y186735D01*
X-199986Y187083D01*
X-200087Y187104D01*
X-200600Y187206D01*
X-200972Y187832D01*
Y188281D01*
X-201153D01*
Y189850D01*
X-210154D01*
Y188281D01*
X-210335D01*
Y182919D01*
Y177919D01*
X-210992Y177606D01*
X-219335D01*
X-228465Y186735D01*
X-228986Y187083D01*
X-229087Y187104D01*
X-229600Y187206D01*
X-229600Y187206D01*
X-231972D01*
Y187919D01*
Y192919D01*
Y193994D01*
X-227400D01*
X-227400Y193994D01*
X-226887Y194096D01*
X-226785Y194117D01*
X-226265Y194465D01*
X-223011Y197718D01*
X-222663Y198239D01*
X-222643Y198341D01*
X-222541Y198854D01*
X-222541Y198854D01*
Y200594D01*
X-221984Y201150D01*
X-221331D01*
X-220911Y201150D01*
X-220800D01*
X-220088Y201331D01*
X-220013D01*
X-218203D01*
Y204300D01*
Y207269D01*
X-220013D01*
X-220088D01*
X-220800Y207450D01*
X-220911D01*
X-221331Y207450D01*
X-226806D01*
X-227364Y208237D01*
X-227180Y208842D01*
X-227066Y210000D01*
X-227180Y211158D01*
X-227518Y212271D01*
X-228066Y213297D01*
X-228804Y214196D01*
X-229703Y214934D01*
X-230729Y215482D01*
X-231842Y215820D01*
X-233000Y215934D01*
X-234158Y215820D01*
X-235271Y215482D01*
X-236297Y214934D01*
X-237196Y214196D01*
X-237934Y213297D01*
X-238482Y212271D01*
X-238820Y211158D01*
X-238934Y210000D01*
X-238820Y208842D01*
X-238482Y207729D01*
X-237934Y206703D01*
X-237196Y205804D01*
X-236297Y205066D01*
X-235271Y204518D01*
X-234158Y204180D01*
X-233000Y204066D01*
X-231842Y204180D01*
X-230729Y204518D01*
X-230116Y204845D01*
X-228435Y203165D01*
X-228435Y203165D01*
X-227915Y202817D01*
X-227813Y202796D01*
X-227493Y202733D01*
Y201150D01*
X-225752D01*
Y199519D01*
X-228065Y197206D01*
X-231972D01*
Y198281D01*
X-241335D01*
Y197206D01*
X-254374D01*
Y202862D01*
X-263626D01*
Y198070D01*
X-270535D01*
X-271150Y197948D01*
X-271671Y197600D01*
X-286135Y183135D01*
X-286483Y182615D01*
X-286504Y182512D01*
X-286606Y182000D01*
X-286606Y182000D01*
Y163684D01*
X-287271Y163482D01*
X-288297Y162934D01*
X-289196Y162196D01*
X-289934Y161297D01*
X-290482Y160271D01*
X-290820Y159158D01*
X-290934Y158000D01*
X-290820Y156842D01*
X-290482Y155729D01*
X-289934Y154703D01*
X-289196Y153804D01*
X-288297Y153066D01*
X-287271Y152518D01*
X-286158Y152180D01*
X-285000Y152066D01*
X-283842Y152180D01*
X-282729Y152518D01*
X-281703Y153066D01*
X-280804Y153804D01*
X-280066Y154703D01*
X-279518Y155729D01*
X-279180Y156842D01*
X-279066Y158000D01*
X-279180Y159158D01*
X-279518Y160271D01*
X-280066Y161297D01*
X-280804Y162196D01*
X-281703Y162934D01*
X-282729Y163482D01*
X-283394Y163684D01*
Y181335D01*
X-269870Y194859D01*
X-263626D01*
Y190067D01*
X-254374D01*
Y193994D01*
X-241335D01*
Y192919D01*
Y192206D01*
X-245553D01*
X-245553Y192206D01*
X-246066Y192104D01*
X-246168Y192083D01*
X-246689Y191735D01*
X-248743Y189681D01*
X-252385D01*
Y188606D01*
X-263000D01*
X-263000Y188606D01*
X-263614Y188483D01*
X-263787Y188368D01*
X-264135Y188135D01*
X-264135Y188135D01*
X-275435Y176836D01*
X-275783Y176315D01*
X-275803Y176213D01*
X-275905Y175701D01*
X-275905Y175701D01*
Y135299D01*
X-275905Y135299D01*
X-275803Y134787D01*
X-275783Y134685D01*
X-275435Y134164D01*
X-258135Y116865D01*
X-258135Y116865D01*
X-257614Y116517D01*
X-257512Y116496D01*
X-257000Y116394D01*
X-257000Y116394D01*
X-183665D01*
X-166135Y98865D01*
X-166135Y98865D01*
X-165614Y98517D01*
X-165000Y98394D01*
X-24000D01*
X-24000Y98394D01*
X-23487Y98496D01*
X-23385Y98517D01*
X-22865Y98865D01*
X607Y122336D01*
X1394Y122010D01*
Y90312D01*
X-13086Y75831D01*
X-18078D01*
Y68169D01*
X-11572D01*
X-11216Y68169D01*
X-11216Y68169D01*
X-10784D01*
Y68169D01*
X-10784Y68169D01*
X-8974D01*
X-8965Y67382D01*
X-9516Y66831D01*
X-10684D01*
X-10783Y66831D01*
X-10784D01*
X-11497Y66650D01*
X-11572Y66650D01*
X-13897D01*
Y63000D01*
Y59350D01*
X-11572D01*
X-11497Y59350D01*
X-10784Y59169D01*
X-10783D01*
X-10684Y59169D01*
X-9259D01*
Y-73346D01*
X-9259Y-73347D01*
X-9157Y-73859D01*
X-9137Y-73961D01*
X-8789Y-74482D01*
X11845Y-95116D01*
X11518Y-95729D01*
X11180Y-96842D01*
X11066Y-98000D01*
X11180Y-99158D01*
X11458Y-100073D01*
X10762Y-100491D01*
X-15394Y-74335D01*
Y40993D01*
X-15394Y40993D01*
X-15517Y41608D01*
X-15632Y41781D01*
X-15865Y42129D01*
X-15865Y42129D01*
X-29101Y55365D01*
Y59169D01*
X-27275D01*
Y66831D01*
X-29101D01*
Y68169D01*
X-27275D01*
Y75831D01*
X-33781D01*
X-34137Y75831D01*
X-34353D01*
X-34569D01*
X-34925Y75831D01*
X-36394D01*
Y81316D01*
X-35729Y81518D01*
X-34703Y82066D01*
X-33804Y82804D01*
X-33066Y83703D01*
X-32518Y84729D01*
X-32180Y85842D01*
X-32066Y87000D01*
X-32180Y88158D01*
X-32518Y89271D01*
X-33066Y90297D01*
X-33804Y91196D01*
X-34703Y91934D01*
X-35729Y92482D01*
X-36842Y92820D01*
X-38000Y92934D01*
X-39158Y92820D01*
X-40271Y92482D01*
X-41297Y91934D01*
X-42196Y91196D01*
X-42934Y90297D01*
X-43482Y89271D01*
X-43820Y88158D01*
X-43934Y87000D01*
X-43820Y85842D01*
X-43482Y84729D01*
X-42934Y83703D01*
X-42196Y82804D01*
X-41297Y82066D01*
X-40271Y81518D01*
X-39606Y81316D01*
Y75831D01*
X-41431D01*
Y68169D01*
X-34925D01*
X-34569Y68169D01*
X-34353D01*
X-34137D01*
X-33781Y68169D01*
X-32327D01*
X-32318Y67382D01*
X-32869Y66831D01*
X-34038D01*
X-34136Y66831D01*
X-34137D01*
X-34850Y66650D01*
X-34925Y66650D01*
X-37250D01*
Y63000D01*
Y59350D01*
X-34925D01*
X-34850Y59350D01*
X-34137Y59169D01*
X-34136D01*
X-34038Y59169D01*
X-32312D01*
Y54700D01*
X-32312Y54700D01*
X-32210Y54187D01*
X-32190Y54085D01*
X-31842Y53564D01*
X-27610Y49333D01*
X-27912Y48606D01*
X-53335D01*
X-61048Y56319D01*
Y62169D01*
X-58922D01*
Y69831D01*
X-58922D01*
Y70169D01*
X-58922D01*
Y77831D01*
X-65428D01*
X-65784Y77831D01*
X-66000D01*
X-66216D01*
X-66572Y77831D01*
X-68041D01*
Y79669D01*
X-67376Y79871D01*
X-66350Y80419D01*
X-65451Y81157D01*
X-64713Y82056D01*
X-64165Y83082D01*
X-63827Y84196D01*
X-63713Y85353D01*
X-63827Y86511D01*
X-64165Y87624D01*
X-64713Y88650D01*
X-65451Y89549D01*
X-66350Y90287D01*
X-67376Y90835D01*
X-68489Y91173D01*
X-69647Y91287D01*
X-70805Y91173D01*
X-71918Y90835D01*
X-72944Y90287D01*
X-73843Y89549D01*
X-74581Y88650D01*
X-75129Y87624D01*
X-75467Y86511D01*
X-75581Y85353D01*
X-75467Y84196D01*
X-75129Y83082D01*
X-74581Y82056D01*
X-73843Y81157D01*
X-72944Y80419D01*
X-71918Y79871D01*
X-71253Y79669D01*
Y77831D01*
X-73078D01*
Y70362D01*
X-73078Y70175D01*
Y70169D01*
X-72897Y69456D01*
Y69381D01*
Y66750D01*
X-69647D01*
Y66000D01*
X-68897D01*
Y62350D01*
X-66572D01*
X-66497Y62350D01*
X-65784Y62169D01*
X-65782D01*
X-65684Y62169D01*
X-64259D01*
Y55654D01*
X-64259Y55654D01*
X-64157Y55141D01*
X-64137Y55039D01*
X-63789Y54518D01*
X-55135Y45865D01*
X-55135Y45865D01*
X-54615Y45517D01*
X-54000Y45394D01*
X-26456D01*
X-20574Y39513D01*
Y-87031D01*
X-20574Y-87032D01*
X-20472Y-87544D01*
X-20452Y-87646D01*
X-20104Y-88167D01*
X10845Y-119116D01*
X10518Y-119729D01*
X10180Y-120842D01*
X10066Y-122000D01*
X10180Y-123158D01*
X10518Y-124271D01*
X11066Y-125297D01*
X11804Y-126196D01*
X12703Y-126934D01*
X13729Y-127482D01*
X14842Y-127820D01*
X16000Y-127934D01*
X17158Y-127820D01*
X18271Y-127482D01*
X19297Y-126934D01*
X20196Y-126196D01*
X20934Y-125297D01*
X21482Y-124271D01*
X21820Y-123158D01*
X21934Y-122000D01*
X21820Y-120842D01*
X21482Y-119729D01*
X20934Y-118703D01*
X20196Y-117804D01*
X19297Y-117066D01*
X18271Y-116518D01*
X17158Y-116180D01*
X16000Y-116066D01*
X14842Y-116180D01*
X13729Y-116518D01*
X13116Y-116845D01*
X-17363Y-86366D01*
Y-77937D01*
X-16635Y-77635D01*
X11845Y-106116D01*
X11518Y-106729D01*
X11180Y-107842D01*
X11066Y-109000D01*
X11180Y-110158D01*
X11518Y-111271D01*
X12066Y-112297D01*
X12804Y-113196D01*
X13703Y-113934D01*
X14729Y-114482D01*
X15842Y-114820D01*
X17000Y-114934D01*
X18158Y-114820D01*
X19271Y-114482D01*
X20297Y-113934D01*
X21196Y-113196D01*
X21934Y-112297D01*
X22482Y-111271D01*
X22820Y-110158D01*
X22934Y-109000D01*
X22820Y-107842D01*
X22482Y-106729D01*
X21934Y-105703D01*
X21196Y-104804D01*
X20297Y-104066D01*
X20073Y-103946D01*
Y-103054D01*
X20297Y-102934D01*
X21196Y-102196D01*
X21934Y-101297D01*
X22482Y-100271D01*
X22820Y-99158D01*
X22934Y-98000D01*
X22820Y-96842D01*
X22482Y-95729D01*
X21934Y-94703D01*
X21196Y-93804D01*
X20297Y-93066D01*
X19271Y-92518D01*
X18158Y-92180D01*
X17000Y-92066D01*
X15842Y-92180D01*
X14729Y-92518D01*
X14116Y-92845D01*
X-6048Y-72681D01*
Y59169D01*
X-3922D01*
Y66831D01*
X-5748D01*
Y68169D01*
X-3922D01*
Y75831D01*
X-7516D01*
X-7818Y76559D01*
X4135Y88512D01*
X4135Y88512D01*
X4483Y89032D01*
X4606Y89647D01*
Y196000D01*
X4606Y196000D01*
X4504Y196512D01*
X4483Y196615D01*
X4135Y197135D01*
X-3215Y204485D01*
X-3735Y204833D01*
X-3838Y204854D01*
X-4350Y204956D01*
X-4350Y204956D01*
X-8796D01*
Y210000D01*
X-8796Y210000D01*
Y214000D01*
X-8887Y214461D01*
X-9149Y214851D01*
X-9539Y215113D01*
X-10000Y215204D01*
X-22814D01*
X-23703Y215934D01*
X-24729Y216482D01*
X-25842Y216820D01*
X-27000Y216934D01*
X-28158Y216820D01*
X-29271Y216482D01*
X-30297Y215934D01*
X-31186Y215204D01*
X-33796D01*
Y248500D01*
X-33887Y248961D01*
X-34148Y249352D01*
X-34539Y249613D01*
X-35000Y249704D01*
X-56000D01*
X-56461Y249613D01*
X-56852Y249352D01*
X-57113Y248961D01*
X-57204Y248500D01*
Y238815D01*
X-57368Y238593D01*
X-57903Y238204D01*
X-125739Y238204D01*
X-126296Y238761D01*
Y248819D01*
X-114575D01*
X-114575Y248819D01*
X-114062Y248921D01*
X-113960Y248942D01*
X-113439Y249290D01*
X-106335Y256394D01*
X-28665D01*
X6394Y221335D01*
Y109216D01*
X6394Y109216D01*
X6496Y108704D01*
X6517Y108602D01*
X6865Y108081D01*
X18581Y96365D01*
X19102Y96017D01*
X19204Y95996D01*
X19716Y95894D01*
X19716Y95894D01*
X40588D01*
X41048Y95441D01*
Y94559D01*
X40588Y94106D01*
X31500D01*
X30885Y93983D01*
X30365Y93635D01*
X29884Y93155D01*
X29271Y93482D01*
X28158Y93820D01*
X27000Y93934D01*
X25842Y93820D01*
X24729Y93482D01*
X23703Y92934D01*
X22804Y92196D01*
X22066Y91297D01*
X21518Y90271D01*
X21180Y89158D01*
X21066Y88000D01*
X21180Y86842D01*
X21518Y85729D01*
X22066Y84703D01*
X22804Y83804D01*
X23703Y83066D01*
X24729Y82518D01*
X25842Y82180D01*
X27000Y82066D01*
X28158Y82180D01*
X29271Y82518D01*
X30297Y83066D01*
X31196Y83804D01*
X31934Y84703D01*
X32482Y85729D01*
X32820Y86842D01*
X32934Y88000D01*
X32820Y89158D01*
X32532Y90107D01*
X32761Y90581D01*
X33042Y90894D01*
X41216D01*
Y90276D01*
X41265D01*
X41398Y89543D01*
X41398Y89488D01*
Y88250D01*
X51193D01*
Y89488D01*
X51193Y89543D01*
X51326Y90276D01*
X51374D01*
Y94488D01*
X51374Y94724D01*
Y95000D01*
Y95276D01*
X51374Y95512D01*
Y98548D01*
X52161Y98968D01*
X52394Y98812D01*
Y5665D01*
X43865Y-2865D01*
X43517Y-3385D01*
X43496Y-3488D01*
X43394Y-4000D01*
X43394Y-4000D01*
Y-136092D01*
X38348Y-141139D01*
X38000Y-141659D01*
X37980Y-141761D01*
X37878Y-142274D01*
X37878Y-142274D01*
Y-149832D01*
X37213Y-150034D01*
X36187Y-150583D01*
X35287Y-151321D01*
X34549Y-152220D01*
X34001Y-153246D01*
X33663Y-154359D01*
X33549Y-155517D01*
X33663Y-156674D01*
X34001Y-157787D01*
X34549Y-158813D01*
X35287Y-159713D01*
X36187Y-160450D01*
X37213Y-160999D01*
X38326Y-161337D01*
X39483Y-161451D01*
X40641Y-161337D01*
X41754Y-160999D01*
X42780Y-160450D01*
X43680Y-159713D01*
X44418Y-158813D01*
X44966Y-157787D01*
X45304Y-156674D01*
X45418Y-155517D01*
X45316Y-154483D01*
X45603Y-154120D01*
X45967Y-153832D01*
X47000Y-153934D01*
X48158Y-153820D01*
X49271Y-153482D01*
X50297Y-152934D01*
X51196Y-152196D01*
X51934Y-151297D01*
X52482Y-150271D01*
X52820Y-149158D01*
X52934Y-148000D01*
X52820Y-146842D01*
X52482Y-145729D01*
X51934Y-144703D01*
X51196Y-143804D01*
X50297Y-143066D01*
X49271Y-142518D01*
X48158Y-142180D01*
X47290Y-142095D01*
X46976Y-141381D01*
X46973Y-141298D01*
X48257Y-140014D01*
X48605Y-139493D01*
X48625Y-139391D01*
X48727Y-138879D01*
X48727Y-138879D01*
Y-48825D01*
X49514Y-48558D01*
X49917Y-49083D01*
X51113Y-50000D01*
X52506Y-50577D01*
X53250Y-50675D01*
Y-45000D01*
Y-39325D01*
X52506Y-39423D01*
X51113Y-40000D01*
X49917Y-40917D01*
X49514Y-41442D01*
X48727Y-41175D01*
Y-6786D01*
X58135Y2622D01*
X58483Y3143D01*
X58504Y3245D01*
X58606Y3757D01*
X58606Y3757D01*
Y94335D01*
X59839Y95568D01*
X60626Y95276D01*
Y95000D01*
Y94724D01*
X60626Y94488D01*
Y90512D01*
X60626Y90276D01*
Y90000D01*
Y89724D01*
X60626Y89488D01*
Y85276D01*
X70784D01*
Y85894D01*
X96500D01*
X96500Y85894D01*
X97013Y85996D01*
X97114Y86017D01*
X97635Y86365D01*
X113135Y101865D01*
X113483Y102385D01*
X113504Y102488D01*
X113606Y103000D01*
X113606Y103000D01*
Y127032D01*
X113635Y127061D01*
X113635Y127061D01*
X113868Y127409D01*
X113983Y127582D01*
X114084Y128091D01*
X131763D01*
Y117796D01*
X130729Y117482D01*
X129703Y116934D01*
X128804Y116196D01*
X128066Y115297D01*
X127518Y114271D01*
X127180Y113158D01*
X127066Y112000D01*
X127180Y110842D01*
X127518Y109729D01*
X128066Y108703D01*
X128804Y107804D01*
X129703Y107066D01*
X130729Y106518D01*
X131842Y106180D01*
X133000Y106066D01*
X134158Y106180D01*
X135271Y106518D01*
X136297Y107066D01*
X137196Y107804D01*
X137934Y108703D01*
X138482Y109729D01*
X138820Y110842D01*
X138934Y112000D01*
X138820Y113158D01*
X138482Y114271D01*
X137934Y115297D01*
X137196Y116196D01*
X136297Y116934D01*
X135271Y117482D01*
X134974Y117572D01*
Y128091D01*
X139879D01*
Y124079D01*
X163840D01*
X178526Y109393D01*
X178327Y108606D01*
X168000D01*
X168000Y108606D01*
X167385Y108483D01*
X167213Y108368D01*
X166865Y108135D01*
X166865Y108135D01*
X162765Y104035D01*
X162417Y103515D01*
X162396Y103412D01*
X162294Y102900D01*
X162294Y102900D01*
Y89924D01*
X160669D01*
Y84918D01*
X160669Y84562D01*
Y84346D01*
Y84131D01*
X160669Y83775D01*
Y78768D01*
X162794D01*
Y75181D01*
X161719D01*
Y65819D01*
X167081D01*
Y66000D01*
X168650D01*
Y70500D01*
Y75000D01*
X167081D01*
Y75181D01*
X166006D01*
Y78768D01*
X167131D01*
Y83775D01*
X167131Y84131D01*
Y84346D01*
Y84562D01*
X167131Y84918D01*
Y89924D01*
X165506D01*
Y102235D01*
X168665Y105394D01*
X176042D01*
X176240Y104607D01*
X176103Y104534D01*
X175204Y103796D01*
X174466Y102897D01*
X173918Y101871D01*
X173580Y100758D01*
X173466Y99600D01*
X173580Y98442D01*
X173918Y97329D01*
X174466Y96303D01*
X175204Y95404D01*
X176103Y94666D01*
X177129Y94118D01*
X177794Y93916D01*
Y89924D01*
X176169D01*
Y84918D01*
X176169Y84562D01*
Y84346D01*
Y84131D01*
X176169Y83775D01*
Y78814D01*
X175208D01*
X174594Y78692D01*
X174073Y78344D01*
X174073Y78344D01*
X173265Y77535D01*
X172917Y77014D01*
X172896Y76912D01*
X172794Y76400D01*
X172794Y76400D01*
Y75181D01*
X171719D01*
Y75000D01*
X170150D01*
Y70500D01*
Y66000D01*
X171719D01*
Y65819D01*
X175688D01*
X175886Y65031D01*
X175703Y64934D01*
X174804Y64196D01*
X174066Y63297D01*
X173518Y62271D01*
X173180Y61158D01*
X173066Y60000D01*
X173180Y58842D01*
X173518Y57729D01*
X174066Y56703D01*
X174804Y55804D01*
X175703Y55066D01*
X176729Y54518D01*
X177842Y54180D01*
X178627Y54103D01*
X178920Y53283D01*
X173265Y47627D01*
X172917Y47106D01*
X172896Y47004D01*
X172794Y46492D01*
X172794Y46492D01*
Y44181D01*
X166006D01*
Y47600D01*
X165883Y48215D01*
X165535Y48735D01*
X161482Y52789D01*
X160961Y53137D01*
X160859Y53157D01*
X160346Y53259D01*
X160346Y53259D01*
X159606D01*
X159050Y53816D01*
Y54469D01*
X159050Y54889D01*
Y55000D01*
X158869Y55712D01*
Y55787D01*
Y57596D01*
X152931D01*
Y55787D01*
Y55712D01*
X152750Y55000D01*
Y54889D01*
X152750Y54469D01*
Y48307D01*
X159050D01*
Y49672D01*
X159837Y49892D01*
X162794Y46935D01*
Y44181D01*
X161719D01*
Y34819D01*
X162794D01*
Y21626D01*
X159645D01*
X152769Y28502D01*
X152934Y28703D01*
X153482Y29729D01*
X153820Y30842D01*
X153934Y32000D01*
X153820Y33158D01*
X153482Y34271D01*
X152934Y35297D01*
X152196Y36196D01*
X151297Y36934D01*
X150271Y37482D01*
X149158Y37820D01*
X148000Y37934D01*
X146842Y37820D01*
X145729Y37482D01*
X144703Y36934D01*
X143804Y36196D01*
X143066Y35297D01*
X142518Y34271D01*
X142180Y33158D01*
X142066Y32000D01*
X142180Y30842D01*
X142518Y29729D01*
X143066Y28703D01*
X143804Y27804D01*
X144703Y27066D01*
X145729Y26518D01*
X146842Y26180D01*
X148000Y26066D01*
X149158Y26180D01*
X150225Y26504D01*
X157038Y19692D01*
Y12374D01*
X169833D01*
X170394Y11828D01*
Y8665D01*
X169335Y7606D01*
X158665D01*
X123106Y43165D01*
Y91316D01*
X123771Y91518D01*
X124797Y92066D01*
X125696Y92804D01*
X126434Y93703D01*
X126982Y94729D01*
X127320Y95842D01*
X127434Y97000D01*
X127320Y98158D01*
X126982Y99271D01*
X126434Y100297D01*
X125696Y101196D01*
X124797Y101934D01*
X123771Y102482D01*
X122658Y102820D01*
X121500Y102934D01*
X120342Y102820D01*
X119229Y102482D01*
X118203Y101934D01*
X117304Y101196D01*
X116566Y100297D01*
X116018Y99271D01*
X115680Y98158D01*
X115566Y97000D01*
X115680Y95842D01*
X116018Y94729D01*
X116566Y93703D01*
X117304Y92804D01*
X118203Y92066D01*
X119229Y91518D01*
X119894Y91316D01*
Y42500D01*
X119894Y42500D01*
X119996Y41987D01*
X120017Y41886D01*
X120365Y41365D01*
X156865Y4865D01*
X157386Y4517D01*
X158000Y4394D01*
X158000Y4394D01*
X170000D01*
X170000Y4394D01*
X170512Y4496D01*
X170615Y4517D01*
X171135Y4865D01*
X173135Y6865D01*
X173135Y6865D01*
X173483Y7385D01*
X173504Y7487D01*
X173606Y8000D01*
X173606Y8000D01*
Y11736D01*
X173967Y12374D01*
X186762D01*
Y21626D01*
X180406D01*
Y23769D01*
X181481D01*
Y30231D01*
X181006D01*
Y34819D01*
X182081D01*
Y44181D01*
X176006D01*
Y45827D01*
X188135Y57956D01*
X188483Y58477D01*
X188606Y59092D01*
X188606Y59092D01*
Y73850D01*
X188483Y74464D01*
X188135Y74985D01*
X188135Y74985D01*
X182631Y80489D01*
Y83775D01*
X182631Y84131D01*
Y84346D01*
Y84562D01*
X182631Y84918D01*
Y89924D01*
X181006D01*
Y93916D01*
X181671Y94118D01*
X182697Y94666D01*
X183596Y95404D01*
X184334Y96303D01*
X184882Y97329D01*
X185220Y98442D01*
X185334Y99600D01*
X185220Y100758D01*
X184882Y101871D01*
X184334Y102897D01*
X183596Y103796D01*
X182697Y104534D01*
X182560Y104607D01*
X182758Y105394D01*
X217023D01*
X217305Y104607D01*
X216804Y104196D01*
X216066Y103297D01*
X215518Y102271D01*
X215180Y101158D01*
X215066Y100000D01*
X215180Y98842D01*
X215518Y97729D01*
X216066Y96703D01*
X216804Y95804D01*
X217703Y95066D01*
X218729Y94518D01*
X219842Y94180D01*
X219930Y94171D01*
Y89925D01*
X218304D01*
Y84918D01*
X218304Y84562D01*
Y84346D01*
Y84131D01*
X218304Y83775D01*
Y78769D01*
X220430D01*
Y75181D01*
X219354D01*
Y65819D01*
X224716D01*
Y66000D01*
X226285D01*
Y70500D01*
Y75000D01*
X224716D01*
Y75181D01*
X223641D01*
Y78769D01*
X224766D01*
Y83775D01*
X224766Y84131D01*
Y84346D01*
Y84562D01*
X224766Y84918D01*
Y89925D01*
X223141D01*
Y94478D01*
X223271Y94518D01*
X224297Y95066D01*
X225196Y95804D01*
X225934Y96703D01*
X226482Y97729D01*
X226820Y98842D01*
X226934Y100000D01*
X226820Y101158D01*
X226482Y102271D01*
X225934Y103297D01*
X225196Y104196D01*
X224695Y104607D01*
X224977Y105394D01*
X249000D01*
X249000Y105394D01*
X249513Y105496D01*
X249615Y105517D01*
X250135Y105865D01*
X268135Y123865D01*
X268135Y123865D01*
X268483Y124385D01*
X268606Y125000D01*
Y162000D01*
X268483Y162615D01*
X268135Y163135D01*
X268135Y163135D01*
X262835Y168435D01*
X262315Y168783D01*
X262212Y168804D01*
X261700Y168906D01*
X261700Y168906D01*
X253781D01*
Y173631D01*
X245219D01*
Y160969D01*
X253781D01*
Y165694D01*
X261035D01*
X265394Y161335D01*
Y125665D01*
X248335Y108606D01*
X225173D01*
X224974Y109393D01*
X239660Y124079D01*
X256121D01*
Y155921D01*
X224879D01*
Y154095D01*
X224203Y153690D01*
X223709Y153955D01*
X221891Y154506D01*
X220000Y154692D01*
X218291Y154524D01*
X217504Y155008D01*
Y161939D01*
X223479D01*
Y157179D01*
X239521D01*
Y175079D01*
X256121D01*
Y206921D01*
X242456D01*
Y221112D01*
X244491Y223147D01*
X245219Y222846D01*
Y211969D01*
X253781D01*
Y216694D01*
X270035D01*
X276394Y210335D01*
Y114665D01*
X250578Y88849D01*
X240266D01*
Y89925D01*
X233804D01*
Y84562D01*
X233804D01*
X233804Y84562D01*
Y84131D01*
X233804D01*
X233804Y84131D01*
Y79393D01*
X233804Y78769D01*
X233084Y78606D01*
X233084Y78606D01*
X233052D01*
X233052Y78606D01*
X232540Y78504D01*
X232437Y78483D01*
X231917Y78135D01*
X230900Y77119D01*
X230552Y76598D01*
X230532Y76496D01*
X230430Y75984D01*
X230430Y75983D01*
Y75181D01*
X229354D01*
Y75000D01*
X227785D01*
Y70500D01*
Y66000D01*
X229354D01*
Y65819D01*
X235430D01*
Y63500D01*
X235430Y63500D01*
X235532Y62987D01*
X235552Y62885D01*
X235900Y62365D01*
X237381Y60884D01*
X237053Y60271D01*
X236715Y59158D01*
X236601Y58000D01*
X236715Y56842D01*
X237053Y55729D01*
X237601Y54703D01*
X238339Y53804D01*
X239239Y53066D01*
X240265Y52518D01*
X241378Y52180D01*
X242535Y52066D01*
X243693Y52180D01*
X244806Y52518D01*
X245832Y53066D01*
X246731Y53804D01*
X247469Y54703D01*
X248018Y55729D01*
X248355Y56842D01*
X248469Y58000D01*
X248355Y59158D01*
X248018Y60271D01*
X247469Y61297D01*
X246731Y62196D01*
X245832Y62934D01*
X244806Y63482D01*
X243693Y63820D01*
X242535Y63934D01*
X241378Y63820D01*
X240265Y63482D01*
X239651Y63155D01*
X238641Y64165D01*
Y65819D01*
X239717D01*
Y75181D01*
X238641D01*
Y75964D01*
X238641Y75965D01*
X238539Y76477D01*
X238519Y76579D01*
X238513Y76588D01*
X239125Y77090D01*
X249394Y66820D01*
Y52665D01*
X247335Y50606D01*
X235535D01*
X235535Y50606D01*
X235023Y50504D01*
X234921Y50483D01*
X234400Y50135D01*
X234400Y50135D01*
X230900Y46635D01*
X230552Y46115D01*
X230532Y46013D01*
X230430Y45500D01*
X230430Y45500D01*
Y44181D01*
X223641D01*
Y46965D01*
X223519Y47579D01*
X223171Y48100D01*
X223171Y48100D01*
X218482Y52789D01*
X217961Y53137D01*
X217859Y53157D01*
X217346Y53259D01*
X216685Y53663D01*
Y54469D01*
X216685Y54889D01*
Y55000D01*
X216504Y55712D01*
Y55787D01*
Y57596D01*
X210567D01*
Y55787D01*
Y55712D01*
X210386Y55000D01*
Y54889D01*
X210386Y54469D01*
Y48307D01*
X216685D01*
Y49015D01*
X217412Y49317D01*
X220430Y46299D01*
Y44181D01*
X219354D01*
Y34819D01*
X220430D01*
Y21626D01*
X214673D01*
Y18606D01*
X209684D01*
X209482Y19271D01*
X208934Y20297D01*
X208196Y21196D01*
X207297Y21934D01*
X206271Y22482D01*
X205158Y22820D01*
X204000Y22934D01*
X202842Y22820D01*
X201729Y22482D01*
X200703Y21934D01*
X199804Y21196D01*
X199066Y20297D01*
X198518Y19271D01*
X198180Y18158D01*
X198066Y17000D01*
X198180Y15842D01*
X198518Y14729D01*
X199066Y13703D01*
X199804Y12804D01*
X200703Y12066D01*
X201729Y11518D01*
X202842Y11180D01*
X204000Y11066D01*
X205158Y11180D01*
X206271Y11518D01*
X207297Y12066D01*
X208196Y12804D01*
X208934Y13703D01*
X209482Y14729D01*
X209684Y15394D01*
X214673D01*
Y12374D01*
X227468D01*
X227494Y11597D01*
Y9900D01*
X227494Y9900D01*
X227596Y9387D01*
X227617Y9285D01*
X227965Y8765D01*
X230865Y5865D01*
X231385Y5517D01*
X231487Y5496D01*
X232000Y5394D01*
X232000Y5394D01*
X246000D01*
X246000Y5394D01*
X246513Y5496D01*
X246615Y5517D01*
X247135Y5865D01*
X288135Y46865D01*
X288135Y46865D01*
X288368Y47213D01*
X288483Y47386D01*
X288606Y48000D01*
X288606Y48000D01*
Y220000D01*
X288483Y220615D01*
X288135Y221135D01*
X288135Y221135D01*
X276135Y233135D01*
X275615Y233483D01*
X275513Y233504D01*
X275000Y233606D01*
X275000Y233606D01*
X252613D01*
X252087Y234393D01*
X252178Y234612D01*
X252361Y236000D01*
Y274000D01*
X252178Y275388D01*
X251910Y276034D01*
X251643Y276680D01*
X251217Y277236D01*
X250791Y277791D01*
X240791Y287791D01*
X239680Y288643D01*
X239034Y288910D01*
X238387Y289178D01*
X237000Y289361D01*
D02*
G37*
G36*
X-208750Y213675D02*
X-209494Y213577D01*
X-210887Y213000D01*
X-212083Y212083D01*
X-213000Y210887D01*
X-213577Y209494D01*
X-213774Y208000D01*
X-213752Y207834D01*
X-214472Y207269D01*
X-216704D01*
Y205050D01*
X-214288D01*
Y206165D01*
X-213501Y206322D01*
X-213000Y205113D01*
X-212083Y203917D01*
X-210887Y203000D01*
X-209494Y202423D01*
X-208750Y202325D01*
Y208000D01*
Y213675D01*
D02*
G37*
G36*
X-207250D02*
Y208750D01*
X-202325D01*
X-202423Y209494D01*
X-203000Y210887D01*
X-203917Y212083D01*
X-205113Y213000D01*
X-206506Y213577D01*
X-207250Y213675D01*
D02*
G37*
G36*
X-22000Y244776D02*
X-23466Y244632D01*
X-24876Y244204D01*
X-26176Y243510D01*
X-27315Y242575D01*
X-28250Y241436D01*
X-28944Y240136D01*
X-29372Y238726D01*
X-29517Y237260D01*
X-29372Y235793D01*
X-28944Y234383D01*
X-28250Y233084D01*
X-27315Y231945D01*
X-26176Y231010D01*
X-24876Y230315D01*
X-23466Y229888D01*
X-22000Y229743D01*
X-20534Y229888D01*
X-19124Y230315D01*
X-17824Y231010D01*
X-16685Y231945D01*
X-15750Y233084D01*
X-15056Y234383D01*
X-14628Y235793D01*
X-14483Y237260D01*
X-14628Y238726D01*
X-15056Y240136D01*
X-15750Y241436D01*
X-16685Y242575D01*
X-17824Y243510D01*
X-19124Y244204D01*
X-20534Y244632D01*
X-22000Y244776D01*
D02*
G37*
G36*
X280000Y294123D02*
X277791Y293949D01*
X275636Y293432D01*
X273588Y292584D01*
X271699Y291426D01*
X270013Y289986D01*
X268574Y288301D01*
X267416Y286412D01*
X266568Y284364D01*
X266051Y282209D01*
X265877Y280000D01*
X266051Y277791D01*
X266568Y275636D01*
X267416Y273588D01*
X268574Y271699D01*
X270013Y270013D01*
X271699Y268574D01*
X273588Y267416D01*
X275636Y266568D01*
X277791Y266051D01*
X280000Y265877D01*
X282209Y266051D01*
X284364Y266568D01*
X286412Y267416D01*
X288301Y268574D01*
X289986Y270013D01*
X291426Y271699D01*
X292584Y273588D01*
X293432Y275636D01*
X293949Y277791D01*
X294123Y280000D01*
X293949Y282209D01*
X293432Y284364D01*
X292584Y286412D01*
X291426Y288301D01*
X289986Y289986D01*
X288301Y291426D01*
X286412Y292584D01*
X284364Y293432D01*
X282209Y293949D01*
X280000Y294123D01*
D02*
G37*
G36*
X-22000Y282257D02*
X-23466Y282112D01*
X-24876Y281684D01*
X-26176Y280990D01*
X-27315Y280055D01*
X-28250Y278916D01*
X-28944Y277617D01*
X-29372Y276207D01*
X-29517Y274740D01*
X-29372Y273274D01*
X-28944Y271864D01*
X-28250Y270564D01*
X-27315Y269425D01*
X-26176Y268490D01*
X-24876Y267796D01*
X-23466Y267368D01*
X-22000Y267224D01*
X-20534Y267368D01*
X-19124Y267796D01*
X-17824Y268490D01*
X-16685Y269425D01*
X-15750Y270564D01*
X-15056Y271864D01*
X-14628Y273274D01*
X-14483Y274740D01*
X-14628Y276207D01*
X-15056Y277617D01*
X-15750Y278916D01*
X-16685Y280055D01*
X-17824Y280990D01*
X-19124Y281684D01*
X-20534Y282112D01*
X-22000Y282257D01*
D02*
G37*
G36*
X21680Y277342D02*
X13319D01*
Y272979D01*
X21680D01*
Y277342D01*
D02*
G37*
G36*
X-218740Y271772D02*
X-219717Y271644D01*
X-220626Y271267D01*
X-221408Y270668D01*
X-222007Y269886D01*
X-222384Y268976D01*
X-222513Y268000D01*
X-222384Y267024D01*
X-222007Y266114D01*
X-221408Y265333D01*
X-220626Y264733D01*
X-219717Y264356D01*
X-218740Y264228D01*
X-217764Y264356D01*
X-216854Y264733D01*
X-216073Y265333D01*
X-215473Y266114D01*
X-215096Y267024D01*
X-214968Y268000D01*
X-215096Y268976D01*
X-215473Y269886D01*
X-216073Y270668D01*
X-216854Y271267D01*
X-217764Y271644D01*
X-218740Y271772D01*
D02*
G37*
G36*
X-181260D02*
X-182236Y271644D01*
X-183146Y271267D01*
X-183927Y270668D01*
X-184527Y269886D01*
X-184904Y268976D01*
X-185032Y268000D01*
X-184904Y267024D01*
X-184527Y266114D01*
X-183927Y265333D01*
X-183146Y264733D01*
X-182236Y264356D01*
X-181260Y264228D01*
X-180283Y264356D01*
X-179374Y264733D01*
X-178592Y265333D01*
X-177993Y266114D01*
X-177616Y267024D01*
X-177487Y268000D01*
X-177616Y268976D01*
X-177993Y269886D01*
X-178592Y270668D01*
X-179374Y271267D01*
X-180283Y271644D01*
X-181260Y271772D01*
D02*
G37*
G36*
X-280000Y294123D02*
X-282209Y293949D01*
X-284364Y293432D01*
X-286412Y292584D01*
X-288301Y291426D01*
X-289986Y289986D01*
X-291426Y288301D01*
X-292584Y286412D01*
X-293432Y284364D01*
X-293949Y282209D01*
X-294123Y280000D01*
X-293949Y277791D01*
X-293432Y275636D01*
X-292584Y273588D01*
X-291426Y271699D01*
X-289986Y270013D01*
X-288301Y268574D01*
X-286412Y267416D01*
X-284364Y266568D01*
X-282209Y266051D01*
X-280000Y265877D01*
X-277791Y266051D01*
X-275636Y266568D01*
X-273588Y267416D01*
X-271699Y268574D01*
X-270013Y270013D01*
X-268574Y271699D01*
X-267416Y273588D01*
X-266568Y275636D01*
X-266051Y277791D01*
X-265877Y280000D01*
X-266051Y282209D01*
X-266568Y284364D01*
X-267416Y286412D01*
X-268574Y288301D01*
X-270013Y289986D01*
X-271699Y291426D01*
X-273588Y292584D01*
X-275636Y293432D01*
X-277791Y293949D01*
X-280000Y294123D01*
D02*
G37*
G36*
X-202325Y207250D02*
X-207250D01*
Y202325D01*
X-206506Y202423D01*
X-205113Y203000D01*
X-203917Y203917D01*
X-203000Y205113D01*
X-202423Y206506D01*
X-202325Y207250D01*
D02*
G37*
G36*
X-187374Y87935D02*
X-188510D01*
Y85618D01*
X-187374D01*
Y87935D01*
D02*
G37*
G36*
Y91752D02*
X-188510D01*
Y89435D01*
X-187374D01*
Y91752D01*
D02*
G37*
G36*
X-207260Y114194D02*
X-208418Y114080D01*
X-209531Y113742D01*
X-210557Y113194D01*
X-211456Y112456D01*
X-212194Y111557D01*
X-212742Y110531D01*
X-213080Y109417D01*
X-213194Y108260D01*
X-213080Y107102D01*
X-212742Y105989D01*
X-212194Y104963D01*
X-211456Y104064D01*
X-210557Y103326D01*
X-209936Y102994D01*
X-209327Y102563D01*
Y96393D01*
X-209327Y96067D01*
X-209923Y95606D01*
X-209923Y95606D01*
X-210335D01*
X-212673Y97944D01*
Y102563D01*
X-216807D01*
Y100921D01*
X-220685D01*
X-220685Y100921D01*
X-221198Y100819D01*
X-221300Y100798D01*
X-221820Y100450D01*
X-221820Y100450D01*
X-223116Y99155D01*
X-223729Y99482D01*
X-224842Y99820D01*
X-226000Y99934D01*
X-227158Y99820D01*
X-228271Y99482D01*
X-229297Y98934D01*
X-230196Y98196D01*
X-230934Y97297D01*
X-231482Y96271D01*
X-231684Y95606D01*
X-236914D01*
X-237529Y95483D01*
X-238050Y95135D01*
X-238050Y95135D01*
X-249071Y84114D01*
X-249419Y83593D01*
X-249439Y83491D01*
X-249541Y82978D01*
X-249541Y82978D01*
Y79729D01*
X-255665Y73606D01*
X-268000D01*
X-268000Y73606D01*
X-268513Y73504D01*
X-268615Y73483D01*
X-269135Y73135D01*
X-269135Y73135D01*
X-282135Y60135D01*
X-282483Y59614D01*
X-282504Y59513D01*
X-282606Y59000D01*
X-282606Y59000D01*
Y27000D01*
X-282606Y27000D01*
X-282504Y26487D01*
X-282483Y26386D01*
X-282135Y25865D01*
X-270881Y14610D01*
Y10819D01*
X-266806D01*
Y200D01*
X-266806Y200D01*
X-266704Y-313D01*
X-266683Y-415D01*
X-266335Y-935D01*
X-265135Y-2135D01*
X-265135Y-2135D01*
X-264615Y-2483D01*
X-264512Y-2504D01*
X-264039Y-2598D01*
Y-8087D01*
X-257906D01*
Y-185267D01*
X-258693Y-185450D01*
X-259271Y-184279D01*
X-260640Y-182229D01*
X-262266Y-180376D01*
X-264119Y-178751D01*
X-266168Y-177381D01*
X-268379Y-176291D01*
X-270713Y-175499D01*
X-273131Y-175018D01*
X-275590Y-174856D01*
X-278050Y-175018D01*
X-280468Y-175499D01*
X-282802Y-176291D01*
X-285013Y-177381D01*
X-287062Y-178751D01*
X-288915Y-180376D01*
X-290541Y-182229D01*
X-291910Y-184279D01*
X-293000Y-186489D01*
X-293793Y-188823D01*
X-294274Y-191241D01*
X-294435Y-193701D01*
X-294274Y-196160D01*
X-293793Y-198578D01*
X-293000Y-200912D01*
X-291910Y-203123D01*
X-290541Y-205172D01*
X-288915Y-207026D01*
X-287062Y-208651D01*
X-285013Y-210020D01*
X-282802Y-211111D01*
X-280468Y-211903D01*
X-278050Y-212384D01*
X-275590Y-212545D01*
X-273131Y-212384D01*
X-270713Y-211903D01*
X-268379Y-211111D01*
X-266168Y-210020D01*
X-264119Y-208651D01*
X-262266Y-207026D01*
X-260640Y-205172D01*
X-259271Y-203123D01*
X-258693Y-201951D01*
X-257906Y-202135D01*
Y-256700D01*
X-257906Y-256700D01*
X-257804Y-257212D01*
X-257784Y-257314D01*
X-257435Y-257835D01*
X-223135Y-292135D01*
X-223135Y-292135D01*
X-222615Y-292483D01*
X-222513Y-292504D01*
X-222000Y-292606D01*
X-222000Y-292606D01*
X-20684D01*
X-20482Y-293271D01*
X-19934Y-294297D01*
X-19196Y-295196D01*
X-18297Y-295934D01*
X-17271Y-296482D01*
X-16158Y-296820D01*
X-15000Y-296934D01*
X-13842Y-296820D01*
X-12729Y-296482D01*
X-11703Y-295934D01*
X-10804Y-295196D01*
X-10066Y-294297D01*
X-9518Y-293271D01*
X-9353Y-292727D01*
X125878D01*
X125878Y-292727D01*
X126391Y-292625D01*
X126493Y-292605D01*
X127014Y-292257D01*
X169135Y-250135D01*
X169135Y-250135D01*
X169483Y-249615D01*
X169606Y-249000D01*
Y-99000D01*
Y-57000D01*
Y-48665D01*
X184126Y-34145D01*
X212874D01*
X218865Y-40135D01*
X219386Y-40483D01*
X219488Y-40504D01*
X220000Y-40606D01*
X220000Y-40606D01*
X222933D01*
Y-42248D01*
X224452D01*
X224754Y-42976D01*
X223865Y-43865D01*
X223517Y-44385D01*
X223496Y-44488D01*
X223394Y-45000D01*
X223394Y-45000D01*
Y-46382D01*
X222933D01*
Y-52394D01*
X219684D01*
X219482Y-51729D01*
X218934Y-50703D01*
X218196Y-49804D01*
X217297Y-49066D01*
X216271Y-48518D01*
X215158Y-48180D01*
X214000Y-48066D01*
X212842Y-48180D01*
X211729Y-48518D01*
X210703Y-49066D01*
X209804Y-49804D01*
X209066Y-50703D01*
X208518Y-51729D01*
X208180Y-52842D01*
X208066Y-54000D01*
X208180Y-55158D01*
X208518Y-56271D01*
X209066Y-57297D01*
X209804Y-58196D01*
X210703Y-58934D01*
X211729Y-59482D01*
X212842Y-59820D01*
X214000Y-59934D01*
X215158Y-59820D01*
X216271Y-59482D01*
X217297Y-58934D01*
X218196Y-58196D01*
X218934Y-57297D01*
X219482Y-56271D01*
X219684Y-55606D01*
X224000D01*
X224000Y-55606D01*
X224513Y-55504D01*
X224615Y-55483D01*
X225135Y-55135D01*
X226135Y-54135D01*
X226135Y-54135D01*
X226347Y-53819D01*
X227134Y-54057D01*
Y-57595D01*
X224884Y-59845D01*
X224271Y-59518D01*
X223158Y-59180D01*
X222000Y-59066D01*
X220842Y-59180D01*
X219729Y-59518D01*
X218703Y-60066D01*
X217804Y-60804D01*
X217066Y-61703D01*
X216518Y-62729D01*
X216180Y-63842D01*
X216066Y-65000D01*
X216180Y-66158D01*
X216518Y-67271D01*
X217066Y-68297D01*
X217804Y-69196D01*
X218703Y-69934D01*
X219729Y-70482D01*
X220842Y-70820D01*
X222000Y-70934D01*
X223158Y-70820D01*
X224271Y-70482D01*
X225297Y-69934D01*
X226196Y-69196D01*
X226934Y-68297D01*
X227482Y-67271D01*
X227820Y-66158D01*
X227934Y-65000D01*
X227820Y-63842D01*
X227482Y-62729D01*
X227155Y-62116D01*
X229875Y-59395D01*
X229875Y-59395D01*
X230108Y-59047D01*
X230224Y-58874D01*
X230346Y-58260D01*
X230346Y-58260D01*
Y-52878D01*
X230807D01*
Y-52697D01*
X231730D01*
Y-49630D01*
X232480D01*
Y-48880D01*
X234366D01*
Y-46563D01*
X233736D01*
X233435Y-45836D01*
X238876Y-40395D01*
X238876Y-40395D01*
X239224Y-39874D01*
X239346Y-39260D01*
Y-24878D01*
X239807D01*
Y-24697D01*
X240730D01*
Y-21630D01*
Y-18563D01*
X239807D01*
Y-18382D01*
X232720D01*
D01*
X232632Y-18382D01*
X232391Y-17620D01*
X232611Y-17484D01*
X232614Y-17484D01*
X232614Y-17483D01*
X232642Y-17465D01*
X232642Y-17465D01*
X232642Y-17465D01*
X232642D01*
X233135Y-17135D01*
X233246Y-17024D01*
X235135Y-15135D01*
X235135Y-15135D01*
X235483Y-14615D01*
X235504Y-14513D01*
X235556Y-14248D01*
X236067D01*
Y-7752D01*
X231933D01*
Y-13796D01*
X231335Y-14394D01*
X226274D01*
X225547Y-14248D01*
X225547Y-13607D01*
Y-7752D01*
X225086D01*
Y-6480D01*
X225086Y-6480D01*
X224984Y-5968D01*
X224964Y-5866D01*
X224616Y-5345D01*
X220135Y-865D01*
X219615Y-517D01*
X219513Y-496D01*
X219000Y-394D01*
X219000Y-394D01*
X200665D01*
X195606Y4665D01*
Y32316D01*
X196271Y32518D01*
X197297Y33066D01*
X198196Y33804D01*
X198934Y34703D01*
X199482Y35729D01*
X199820Y36842D01*
X199934Y38000D01*
X199820Y39158D01*
X199482Y40271D01*
X198934Y41297D01*
X198196Y42196D01*
X197297Y42934D01*
X196271Y43482D01*
X195158Y43820D01*
X194000Y43934D01*
X192842Y43820D01*
X191729Y43482D01*
X190703Y42934D01*
X189804Y42196D01*
X189066Y41297D01*
X188518Y40271D01*
X188180Y39158D01*
X188066Y38000D01*
X188180Y36842D01*
X188518Y35729D01*
X189066Y34703D01*
X189804Y33804D01*
X190703Y33066D01*
X191729Y32518D01*
X192394Y32316D01*
Y4000D01*
X192394Y4000D01*
X192496Y3488D01*
X192517Y3385D01*
X192865Y2865D01*
X198865Y-3135D01*
X199385Y-3483D01*
X200000Y-3606D01*
X218335D01*
X221694Y-6965D01*
X221438Y-7752D01*
X221413D01*
Y-13607D01*
X221413Y-14248D01*
X220687Y-14394D01*
X218665D01*
X218067Y-13796D01*
Y-7752D01*
X213933D01*
Y-14248D01*
X214394D01*
Y-15785D01*
X212404Y-17775D01*
X212056Y-18296D01*
X212036Y-18398D01*
X211934Y-18911D01*
X211934Y-18911D01*
Y-30934D01*
X183461D01*
X182846Y-31056D01*
X182325Y-31404D01*
X182325Y-31404D01*
X166865Y-46865D01*
X166517Y-47385D01*
X166496Y-47488D01*
X166394Y-48000D01*
X166394Y-48000D01*
Y-52095D01*
X165667Y-52396D01*
X164635Y-51365D01*
X164114Y-51017D01*
X164013Y-50996D01*
X163500Y-50894D01*
X163500Y-50894D01*
X141528D01*
Y-50177D01*
Y-44823D01*
X119480D01*
Y-45894D01*
X116165D01*
X100135Y-29865D01*
X99615Y-29517D01*
X99512Y-29496D01*
X99000Y-29394D01*
X99000Y-29394D01*
X89897D01*
X89282Y-29517D01*
X89026Y-29688D01*
X88882Y-29652D01*
X88144Y-28752D01*
X87245Y-28014D01*
X86219Y-27466D01*
X85106Y-27128D01*
X83948Y-27014D01*
X82791Y-27128D01*
X81678Y-27466D01*
X80652Y-28014D01*
X79752Y-28752D01*
X79014Y-29652D01*
X78466Y-30678D01*
X78128Y-31791D01*
X78014Y-32948D01*
X78128Y-34106D01*
X78466Y-35219D01*
X78873Y-35982D01*
X78506Y-36769D01*
X78216Y-36769D01*
X78000D01*
X77784D01*
X77428Y-36769D01*
X72422D01*
Y-38394D01*
X68665D01*
X64155Y-33884D01*
X64482Y-33271D01*
X64820Y-32158D01*
X64934Y-31000D01*
X64820Y-29842D01*
X64482Y-28729D01*
X63934Y-27703D01*
X63196Y-26804D01*
X62297Y-26066D01*
X61271Y-25518D01*
X60158Y-25180D01*
X59000Y-25066D01*
X57842Y-25180D01*
X56729Y-25518D01*
X55703Y-26066D01*
X54804Y-26804D01*
X54066Y-27703D01*
X53518Y-28729D01*
X53180Y-29842D01*
X53066Y-31000D01*
X53180Y-32158D01*
X53518Y-33271D01*
X54066Y-34297D01*
X54804Y-35196D01*
X55703Y-35934D01*
X56729Y-36482D01*
X57842Y-36820D01*
X59000Y-36934D01*
X60158Y-36820D01*
X61271Y-36482D01*
X61884Y-36155D01*
X66865Y-41135D01*
X66865Y-41135D01*
X67386Y-41483D01*
X68000Y-41606D01*
X72422D01*
Y-43231D01*
X77428D01*
X77784Y-43231D01*
X78000D01*
X78216D01*
X78504Y-43231D01*
X79291Y-43395D01*
Y-56212D01*
X78795Y-56708D01*
X78504Y-56769D01*
X78216Y-56769D01*
X78000D01*
X77784D01*
X77428Y-56769D01*
X72422D01*
Y-58394D01*
X65684D01*
X65482Y-57729D01*
X64934Y-56703D01*
X64196Y-55804D01*
X63297Y-55066D01*
X62271Y-54518D01*
X61158Y-54180D01*
X60000Y-54066D01*
X58842Y-54180D01*
X57729Y-54518D01*
X56703Y-55066D01*
X55804Y-55804D01*
X55066Y-56703D01*
X54518Y-57729D01*
X54180Y-58842D01*
X54066Y-60000D01*
X54180Y-61158D01*
X54518Y-62271D01*
X55066Y-63297D01*
X55804Y-64196D01*
X56703Y-64934D01*
X56927Y-65054D01*
Y-65946D01*
X56703Y-66066D01*
X55804Y-66804D01*
X55066Y-67703D01*
X54518Y-68729D01*
X54180Y-69842D01*
X54066Y-71000D01*
X54180Y-72158D01*
X54518Y-73271D01*
X55066Y-74297D01*
X55804Y-75196D01*
X56703Y-75934D01*
X56927Y-76054D01*
Y-76946D01*
X56703Y-77066D01*
X55804Y-77804D01*
X55066Y-78703D01*
X54518Y-79729D01*
X54180Y-80842D01*
X54066Y-82000D01*
X54180Y-83158D01*
X54518Y-84271D01*
X55066Y-85297D01*
X55804Y-86196D01*
X56703Y-86934D01*
X57729Y-87482D01*
X58842Y-87820D01*
X60000Y-87934D01*
X61158Y-87820D01*
X62271Y-87482D01*
X63297Y-86934D01*
X64196Y-86196D01*
X64934Y-85297D01*
X65482Y-84271D01*
X65684Y-83606D01*
X73103D01*
X73103Y-83606D01*
X73616Y-83504D01*
X73718Y-83483D01*
X74095Y-83231D01*
X77428D01*
X77784Y-83231D01*
X78000D01*
X78216D01*
X78572Y-83231D01*
X79960D01*
X87865Y-91135D01*
X87865Y-91135D01*
X88385Y-91483D01*
X89000Y-91606D01*
X131000D01*
X131000Y-91606D01*
X131512Y-91504D01*
X131614Y-91483D01*
X132135Y-91135D01*
X151135Y-72135D01*
X151135Y-72135D01*
X151483Y-71614D01*
X151504Y-71513D01*
X151606Y-71000D01*
X151606Y-71000D01*
Y-66000D01*
X151606Y-66000D01*
X151504Y-65487D01*
X151483Y-65386D01*
X151135Y-64865D01*
X151135Y-64865D01*
X147635Y-61365D01*
X147115Y-61017D01*
X147012Y-60996D01*
X146500Y-60894D01*
X146500Y-60894D01*
X141528D01*
Y-59823D01*
X141347D01*
Y-58250D01*
X119661D01*
Y-59823D01*
X119480D01*
Y-60894D01*
X112184D01*
X111982Y-60229D01*
X111434Y-59203D01*
X110696Y-58304D01*
X109797Y-57566D01*
X108771Y-57018D01*
X108608Y-56968D01*
X108567Y-56133D01*
X108887Y-56000D01*
X110083Y-55083D01*
X111000Y-53887D01*
X111577Y-52494D01*
X111675Y-51750D01*
X100325D01*
X100423Y-52494D01*
X101000Y-53887D01*
X101917Y-55083D01*
X103113Y-56000D01*
X103886Y-56320D01*
X103916Y-57185D01*
X103203Y-57566D01*
X102304Y-58304D01*
X101566Y-59203D01*
X101018Y-60229D01*
X100680Y-61342D01*
X100566Y-62500D01*
X100680Y-63658D01*
X101018Y-64771D01*
X101566Y-65797D01*
X102304Y-66696D01*
X103203Y-67434D01*
X104229Y-67982D01*
X105342Y-68320D01*
X106500Y-68434D01*
X107658Y-68320D01*
X108573Y-68042D01*
X108991Y-68739D01*
X100865Y-76865D01*
X100865Y-76865D01*
X95146Y-82583D01*
X94553Y-82063D01*
X94866Y-81655D01*
X95197Y-80857D01*
X95309Y-80000D01*
X95197Y-79144D01*
X94866Y-78345D01*
X94340Y-77660D01*
X93655Y-77134D01*
X92857Y-76803D01*
X92000Y-76691D01*
X91144Y-76803D01*
X90345Y-77134D01*
X89660Y-77660D01*
X89134Y-78345D01*
X88803Y-79144D01*
X88691Y-80000D01*
X88803Y-80857D01*
X89134Y-81655D01*
X89447Y-82063D01*
X88854Y-82583D01*
X85577Y-79307D01*
Y-77298D01*
X85455Y-76683D01*
X85107Y-76162D01*
X85107Y-76162D01*
X82963Y-74019D01*
X83289Y-73231D01*
X83578D01*
Y-66769D01*
X78572D01*
X78216Y-66769D01*
X78000D01*
X77784D01*
X77428Y-66769D01*
X72422D01*
Y-69394D01*
X65684D01*
X65482Y-68729D01*
X64934Y-67703D01*
X64196Y-66804D01*
X63297Y-66066D01*
X63073Y-65946D01*
Y-65054D01*
X63297Y-64934D01*
X64196Y-64196D01*
X64934Y-63297D01*
X65482Y-62271D01*
X65684Y-61606D01*
X72422D01*
Y-63231D01*
X77428D01*
X77784Y-63231D01*
X78000D01*
X78216D01*
X78572Y-63231D01*
X83578D01*
Y-56769D01*
X82503D01*
Y-43231D01*
X83578D01*
Y-39590D01*
X84322Y-38846D01*
X85106Y-38769D01*
X86219Y-38431D01*
X87245Y-37882D01*
X88144Y-37145D01*
X88882Y-36245D01*
X89431Y-35219D01*
X89768Y-34106D01*
X89846Y-33322D01*
X90562Y-32606D01*
X98335D01*
X114365Y-48635D01*
X114365Y-48635D01*
X114885Y-48983D01*
X115500Y-49106D01*
X119480D01*
Y-50177D01*
Y-55177D01*
X119661D01*
Y-56750D01*
X141347D01*
Y-55177D01*
X141528D01*
Y-54106D01*
X162835D01*
X166394Y-57665D01*
Y-97394D01*
X94000D01*
X93385Y-97517D01*
X92865Y-97865D01*
X92865Y-97865D01*
X81335Y-109394D01*
X78578D01*
Y-107769D01*
X77477D01*
X77380Y-107282D01*
X77032Y-106762D01*
X75135Y-104865D01*
X74615Y-104517D01*
X74512Y-104496D01*
X74000Y-104394D01*
X74000Y-104394D01*
X66000D01*
X65386Y-104517D01*
X64865Y-104865D01*
X64517Y-105385D01*
X64394Y-106000D01*
Y-126000D01*
Y-148000D01*
X64394Y-148000D01*
X64394Y-148000D01*
Y-171000D01*
X64394Y-171000D01*
X64394Y-171000D01*
Y-187000D01*
X64394Y-187000D01*
X64496Y-187513D01*
X64517Y-187615D01*
X64865Y-188135D01*
X65423Y-188693D01*
Y-190502D01*
X65423Y-190502D01*
X65525Y-191015D01*
X65545Y-191117D01*
X65893Y-191638D01*
X66816Y-192560D01*
X66816Y-192560D01*
X67336Y-192908D01*
X67951Y-193030D01*
X69760D01*
X72711Y-195982D01*
X72385Y-196769D01*
X67422D01*
Y-203231D01*
X68498D01*
Y-206769D01*
X67422D01*
Y-212019D01*
X56290D01*
X38135Y-193865D01*
X37615Y-193517D01*
X37512Y-193496D01*
X37000Y-193394D01*
X37000Y-193394D01*
X32108D01*
X31841Y-192607D01*
X32274Y-192274D01*
X32786Y-191608D01*
X33107Y-190832D01*
X33217Y-190000D01*
X33107Y-189167D01*
X32786Y-188392D01*
X32274Y-187726D01*
X31608Y-187214D01*
X30832Y-186893D01*
X30000Y-186784D01*
X29168Y-186893D01*
X28392Y-187214D01*
X27726Y-187726D01*
X27214Y-188392D01*
X26893Y-189167D01*
X26783Y-190000D01*
X26893Y-190832D01*
X27214Y-191608D01*
X27726Y-192274D01*
X28159Y-192607D01*
X27892Y-193394D01*
X25665D01*
X23155Y-190884D01*
X23482Y-190271D01*
X23820Y-189158D01*
X23934Y-188000D01*
X23820Y-186842D01*
X23482Y-185729D01*
X22934Y-184703D01*
X22196Y-183804D01*
X21297Y-183066D01*
X20271Y-182518D01*
X19158Y-182180D01*
X18000Y-182066D01*
X16842Y-182180D01*
X15729Y-182518D01*
X14703Y-183066D01*
X13804Y-183804D01*
X13066Y-184703D01*
X12518Y-185729D01*
X12180Y-186842D01*
X12095Y-187700D01*
X11293Y-187819D01*
X11000Y-187113D01*
X10083Y-185917D01*
X8887Y-185000D01*
X7494Y-184423D01*
X6750Y-184325D01*
Y-190000D01*
Y-195675D01*
X7494Y-195577D01*
X8887Y-195000D01*
X10083Y-194083D01*
X11000Y-192887D01*
X11577Y-191494D01*
X11725Y-190371D01*
X12475Y-190276D01*
X12529Y-190293D01*
X13066Y-191297D01*
X13804Y-192196D01*
X14703Y-192934D01*
X15729Y-193482D01*
X16842Y-193820D01*
X18000Y-193934D01*
X19158Y-193820D01*
X20271Y-193482D01*
X20884Y-193155D01*
X23865Y-196135D01*
X23865Y-196135D01*
X24385Y-196483D01*
X25000Y-196606D01*
X27892D01*
X28159Y-197393D01*
X27726Y-197726D01*
X27214Y-198392D01*
X26893Y-199168D01*
X26783Y-200000D01*
X26893Y-200833D01*
X27214Y-201608D01*
X27726Y-202274D01*
X28392Y-202786D01*
X29168Y-203107D01*
X30000Y-203217D01*
X30832Y-203107D01*
X31608Y-202786D01*
X32274Y-202274D01*
X32786Y-201608D01*
X33107Y-200833D01*
X33217Y-200000D01*
X33107Y-199168D01*
X32786Y-198392D01*
X32274Y-197726D01*
X31841Y-197393D01*
X32108Y-196606D01*
X36335D01*
X54489Y-214760D01*
X54489Y-214760D01*
X55010Y-215108D01*
X55625Y-215230D01*
X75897D01*
X76511Y-215108D01*
X77032Y-214760D01*
X77380Y-214239D01*
X77503Y-213625D01*
Y-213231D01*
X78578D01*
Y-211886D01*
X79365Y-211769D01*
X79518Y-212271D01*
X80066Y-213297D01*
X80804Y-214196D01*
X81703Y-214934D01*
X82729Y-215482D01*
X83842Y-215820D01*
X85000Y-215934D01*
X86158Y-215820D01*
X87271Y-215482D01*
X88297Y-214934D01*
X89196Y-214196D01*
X89934Y-213297D01*
X90482Y-212271D01*
X90820Y-211158D01*
X90934Y-210000D01*
X90820Y-208842D01*
X90482Y-207729D01*
X89934Y-206703D01*
X89196Y-205804D01*
X88297Y-205066D01*
X87271Y-204518D01*
X86158Y-204180D01*
X85000Y-204066D01*
X83842Y-204180D01*
X82729Y-204518D01*
X81703Y-205066D01*
X80804Y-205804D01*
X80066Y-206703D01*
X79518Y-207729D01*
X79365Y-208231D01*
X78578Y-208114D01*
Y-206769D01*
X73216D01*
Y-206769D01*
X72784D01*
Y-206769D01*
X71709D01*
Y-203788D01*
X72205Y-203292D01*
X72496Y-203231D01*
X72784Y-203231D01*
X73000D01*
X73216D01*
X73572Y-203231D01*
X78578D01*
Y-196769D01*
X77477D01*
X77401Y-196384D01*
X77380Y-196282D01*
X77032Y-195762D01*
X77032Y-195762D01*
X73000Y-191729D01*
X73415Y-191031D01*
X73572Y-191031D01*
X78578D01*
Y-189686D01*
X79365Y-189569D01*
X79518Y-190071D01*
X80066Y-191097D01*
X80804Y-191996D01*
X81703Y-192734D01*
X82729Y-193282D01*
X83842Y-193620D01*
X85000Y-193734D01*
X86158Y-193620D01*
X87271Y-193282D01*
X88297Y-192734D01*
X89196Y-191996D01*
X89934Y-191097D01*
X90482Y-190071D01*
X90820Y-188958D01*
X90934Y-187800D01*
X90820Y-186642D01*
X90482Y-185529D01*
X89934Y-184503D01*
X89196Y-183604D01*
X88297Y-182866D01*
X87271Y-182318D01*
X86158Y-181980D01*
X85000Y-181866D01*
X83842Y-181980D01*
X82729Y-182318D01*
X81703Y-182866D01*
X80804Y-183604D01*
X80066Y-184503D01*
X79518Y-185529D01*
X79365Y-186031D01*
X78578Y-185914D01*
Y-184569D01*
X73572D01*
X73216Y-184569D01*
X73000D01*
X72784D01*
X72496Y-184569D01*
X71709Y-184405D01*
Y-181031D01*
X72784D01*
X72784Y-181031D01*
X72784D01*
X73164D01*
X73216Y-181031D01*
X73360Y-181031D01*
X73572Y-181031D01*
D01*
X73572D01*
Y-181031D01*
X78578D01*
Y-174569D01*
X74678D01*
X74661Y-174483D01*
X74313Y-173962D01*
X74313Y-173962D01*
X73391Y-173040D01*
X72870Y-172692D01*
X72768Y-172671D01*
X72255Y-172570D01*
X72255Y-172570D01*
X69840D01*
X67606Y-170335D01*
Y-168788D01*
X68162Y-168231D01*
X72428D01*
X72784Y-168231D01*
X73000D01*
X73216D01*
X73572Y-168231D01*
X78578D01*
Y-166886D01*
X79365Y-166769D01*
X79518Y-167271D01*
X80066Y-168297D01*
X80804Y-169196D01*
X81703Y-169934D01*
X82729Y-170482D01*
X83842Y-170820D01*
X85000Y-170934D01*
X86158Y-170820D01*
X87271Y-170482D01*
X88297Y-169934D01*
X89196Y-169196D01*
X89934Y-168297D01*
X90482Y-167271D01*
X90820Y-166158D01*
X90934Y-165000D01*
X90820Y-163842D01*
X90482Y-162729D01*
X89934Y-161703D01*
X89196Y-160804D01*
X88297Y-160066D01*
X87271Y-159518D01*
X86158Y-159180D01*
X85000Y-159066D01*
X83842Y-159180D01*
X82729Y-159518D01*
X81703Y-160066D01*
X80804Y-160804D01*
X80066Y-161703D01*
X79518Y-162729D01*
X79365Y-163231D01*
X78578Y-163114D01*
Y-161769D01*
X73572D01*
X73216Y-161769D01*
X73000D01*
X72784D01*
X72496Y-161769D01*
X71709Y-161605D01*
Y-159231D01*
X72784D01*
X72784Y-159231D01*
X72784D01*
X73164D01*
X73216Y-159231D01*
X73360Y-159231D01*
X73572Y-159231D01*
D01*
X73572D01*
Y-159231D01*
X78578D01*
Y-152769D01*
X74678D01*
X74661Y-152683D01*
X74313Y-152162D01*
X74313Y-152162D01*
X73391Y-151240D01*
X72870Y-150892D01*
X72768Y-150872D01*
X72255Y-150769D01*
X72255Y-150770D01*
X71040D01*
X67606Y-147335D01*
Y-146788D01*
X68162Y-146231D01*
X72428D01*
X72784Y-146231D01*
X73000D01*
X73216D01*
X73572Y-146231D01*
X78578D01*
Y-144886D01*
X79365Y-144769D01*
X79518Y-145271D01*
X80066Y-146297D01*
X80804Y-147196D01*
X81703Y-147934D01*
X82729Y-148482D01*
X83842Y-148820D01*
X85000Y-148934D01*
X86158Y-148820D01*
X87271Y-148482D01*
X88297Y-147934D01*
X89196Y-147196D01*
X89934Y-146297D01*
X90482Y-145271D01*
X90820Y-144158D01*
X90934Y-143000D01*
X90820Y-141842D01*
X90482Y-140729D01*
X89934Y-139703D01*
X89196Y-138804D01*
X88297Y-138066D01*
X87271Y-137518D01*
X86158Y-137180D01*
X85000Y-137066D01*
X83842Y-137180D01*
X82729Y-137518D01*
X81703Y-138066D01*
X80804Y-138804D01*
X80066Y-139703D01*
X79518Y-140729D01*
X79365Y-141231D01*
X78578Y-141114D01*
Y-139769D01*
X73572D01*
X73216Y-139769D01*
X73000D01*
X72784D01*
X72496Y-139769D01*
X71709Y-139605D01*
Y-137231D01*
X72784D01*
X72784Y-137231D01*
X72784D01*
X73164D01*
X73216Y-137231D01*
X73360Y-137231D01*
X73572Y-137231D01*
D01*
X73572D01*
Y-137231D01*
X78578D01*
Y-130769D01*
X74936D01*
X69186Y-125019D01*
X69353Y-124415D01*
X69484Y-124231D01*
X72428D01*
X72784Y-124231D01*
X73000D01*
X73216D01*
X73572Y-124231D01*
X78578D01*
Y-122886D01*
X79365Y-122769D01*
X79518Y-123271D01*
X80066Y-124297D01*
X80804Y-125196D01*
X81703Y-125934D01*
X82729Y-126482D01*
X83842Y-126820D01*
X85000Y-126934D01*
X86158Y-126820D01*
X87271Y-126482D01*
X88297Y-125934D01*
X89196Y-125196D01*
X89934Y-124297D01*
X90482Y-123271D01*
X90820Y-122158D01*
X90934Y-121000D01*
X90820Y-119842D01*
X90482Y-118729D01*
X89934Y-117703D01*
X89196Y-116804D01*
X88297Y-116066D01*
X87271Y-115518D01*
X86158Y-115180D01*
X85000Y-115066D01*
X83842Y-115180D01*
X82729Y-115518D01*
X81703Y-116066D01*
X80804Y-116804D01*
X80066Y-117703D01*
X79518Y-118729D01*
X79365Y-119231D01*
X78578Y-119114D01*
Y-117769D01*
X73572D01*
X73216Y-117769D01*
X73000D01*
X72784D01*
X72496Y-117769D01*
X71709Y-117605D01*
Y-114231D01*
X72784D01*
Y-114231D01*
X73216D01*
Y-114231D01*
X78578D01*
Y-112606D01*
X82000D01*
X82000Y-112606D01*
X82512Y-112504D01*
X82614Y-112483D01*
X83135Y-112135D01*
X94665Y-100606D01*
X166394D01*
Y-159995D01*
X165667Y-160296D01*
X119155Y-113784D01*
X119482Y-113171D01*
X119820Y-112058D01*
X119934Y-110900D01*
X119820Y-109742D01*
X119482Y-108629D01*
X118934Y-107603D01*
X118196Y-106704D01*
X117297Y-105966D01*
X116271Y-105418D01*
X115158Y-105080D01*
X114000Y-104966D01*
X112842Y-105080D01*
X111729Y-105418D01*
X110703Y-105966D01*
X109804Y-106704D01*
X109066Y-107603D01*
X108518Y-108629D01*
X108180Y-109742D01*
X108066Y-110900D01*
X108180Y-112058D01*
X108518Y-113171D01*
X109066Y-114197D01*
X109804Y-115096D01*
X110703Y-115834D01*
X111729Y-116382D01*
X112842Y-116720D01*
X114000Y-116834D01*
X115158Y-116720D01*
X116271Y-116382D01*
X116884Y-116055D01*
X164426Y-163597D01*
Y-180326D01*
X163698Y-180628D01*
X119155Y-136084D01*
X119482Y-135471D01*
X119820Y-134358D01*
X119934Y-133200D01*
X119820Y-132042D01*
X119482Y-130929D01*
X118934Y-129903D01*
X118196Y-129004D01*
X117297Y-128266D01*
X116271Y-127718D01*
X115158Y-127380D01*
X114000Y-127266D01*
X112842Y-127380D01*
X111729Y-127718D01*
X110703Y-128266D01*
X109804Y-129004D01*
X109066Y-129903D01*
X108518Y-130929D01*
X108180Y-132042D01*
X108066Y-133200D01*
X108180Y-134358D01*
X108518Y-135471D01*
X109066Y-136497D01*
X109804Y-137396D01*
X110703Y-138134D01*
X111729Y-138682D01*
X112842Y-139020D01*
X114000Y-139134D01*
X115158Y-139020D01*
X116271Y-138682D01*
X116884Y-138355D01*
X162457Y-183928D01*
Y-200658D01*
X161730Y-200959D01*
X119155Y-158384D01*
X119482Y-157771D01*
X119820Y-156658D01*
X119934Y-155500D01*
X119820Y-154342D01*
X119482Y-153229D01*
X118934Y-152203D01*
X118196Y-151304D01*
X117297Y-150566D01*
X116271Y-150018D01*
X115158Y-149680D01*
X114000Y-149566D01*
X112842Y-149680D01*
X111729Y-150018D01*
X110703Y-150566D01*
X109804Y-151304D01*
X109066Y-152203D01*
X108518Y-153229D01*
X108180Y-154342D01*
X108066Y-155500D01*
X108180Y-156658D01*
X108518Y-157771D01*
X109066Y-158797D01*
X109804Y-159696D01*
X110703Y-160434D01*
X111729Y-160982D01*
X112842Y-161320D01*
X114000Y-161434D01*
X115158Y-161320D01*
X116271Y-160982D01*
X116884Y-160655D01*
X160489Y-204260D01*
Y-220989D01*
X159761Y-221291D01*
X119155Y-180684D01*
X119482Y-180071D01*
X119820Y-178958D01*
X119934Y-177800D01*
X119820Y-176642D01*
X119482Y-175529D01*
X118934Y-174503D01*
X118196Y-173604D01*
X117297Y-172866D01*
X116271Y-172318D01*
X115158Y-171980D01*
X114000Y-171866D01*
X112842Y-171980D01*
X111729Y-172318D01*
X110703Y-172866D01*
X109804Y-173604D01*
X109066Y-174503D01*
X108518Y-175529D01*
X108180Y-176642D01*
X108066Y-177800D01*
X108180Y-178958D01*
X108518Y-180071D01*
X109066Y-181097D01*
X109804Y-181996D01*
X110703Y-182734D01*
X111729Y-183282D01*
X112842Y-183620D01*
X114000Y-183734D01*
X115158Y-183620D01*
X116271Y-183282D01*
X116884Y-182955D01*
X158520Y-224591D01*
Y-241236D01*
X157733Y-241562D01*
X119155Y-202984D01*
X119482Y-202371D01*
X119820Y-201258D01*
X119934Y-200100D01*
X119820Y-198942D01*
X119482Y-197829D01*
X118934Y-196803D01*
X118196Y-195904D01*
X117297Y-195166D01*
X116271Y-194618D01*
X115158Y-194280D01*
X114000Y-194166D01*
X112842Y-194280D01*
X111729Y-194618D01*
X110703Y-195166D01*
X109804Y-195904D01*
X109066Y-196803D01*
X108518Y-197829D01*
X108180Y-198942D01*
X108066Y-200100D01*
X108180Y-201258D01*
X108518Y-202371D01*
X109066Y-203397D01*
X109804Y-204296D01*
X110703Y-205034D01*
X111729Y-205582D01*
X112842Y-205920D01*
X114000Y-206034D01*
X115158Y-205920D01*
X116271Y-205582D01*
X116884Y-205255D01*
X155394Y-243765D01*
Y-244677D01*
X132677Y-267394D01*
X62115D01*
X61607Y-266607D01*
X61820Y-265906D01*
X61934Y-264748D01*
X61820Y-263590D01*
X61482Y-262477D01*
X60934Y-261451D01*
X60196Y-260552D01*
X59297Y-259814D01*
X58271Y-259266D01*
X57158Y-258928D01*
X56000Y-258814D01*
X54842Y-258928D01*
X53729Y-259266D01*
X52703Y-259814D01*
X51804Y-260552D01*
X51066Y-261451D01*
X50518Y-262477D01*
X50180Y-263590D01*
X50066Y-264748D01*
X50180Y-265906D01*
X50518Y-267019D01*
X51066Y-268045D01*
X51804Y-268944D01*
X52607Y-269603D01*
X52661Y-270063D01*
X52607Y-270523D01*
X51804Y-271182D01*
X51066Y-272081D01*
X50518Y-273107D01*
X50180Y-274220D01*
X50066Y-275378D01*
X50180Y-276536D01*
X50518Y-277649D01*
X51066Y-278675D01*
X51804Y-279574D01*
X52703Y-280312D01*
X53729Y-280860D01*
X54842Y-281198D01*
X56000Y-281312D01*
X57158Y-281198D01*
X58271Y-280860D01*
X59297Y-280312D01*
X60196Y-279574D01*
X60934Y-278675D01*
X61482Y-277649D01*
X61820Y-276536D01*
X61934Y-275378D01*
X61820Y-274220D01*
X61607Y-273519D01*
X62115Y-272732D01*
X69401D01*
X69702Y-273459D01*
X59551Y-283611D01*
X31674D01*
X31518Y-282823D01*
X31608Y-282786D01*
X32274Y-282274D01*
X32786Y-281608D01*
X33107Y-280833D01*
X33217Y-280000D01*
X33107Y-279168D01*
X32786Y-278392D01*
X32274Y-277726D01*
X31608Y-277214D01*
X30832Y-276893D01*
X30000Y-276783D01*
X29168Y-276893D01*
X28392Y-277214D01*
X27726Y-277726D01*
X27214Y-278392D01*
X26893Y-279168D01*
X26783Y-280000D01*
X26893Y-280833D01*
X27214Y-281608D01*
X27726Y-282274D01*
X28392Y-282786D01*
X28482Y-282823D01*
X28326Y-283611D01*
X23881D01*
X7198Y-266928D01*
X6678Y-266580D01*
X6576Y-266559D01*
X6063Y-266457D01*
X6063Y-266457D01*
X-6335D01*
X-7592Y-265200D01*
X-7382Y-264297D01*
X-6703Y-263934D01*
X-5804Y-263196D01*
X-5066Y-262297D01*
X-4518Y-261271D01*
X-4180Y-260158D01*
X-4066Y-259000D01*
X-4180Y-257842D01*
X-4518Y-256729D01*
X-5066Y-255703D01*
X-5804Y-254804D01*
X-6703Y-254066D01*
X-7729Y-253518D01*
X-8842Y-253180D01*
X-10000Y-253066D01*
X-11158Y-253180D01*
X-12271Y-253518D01*
X-13297Y-254066D01*
X-14196Y-254804D01*
X-14934Y-255703D01*
X-15482Y-256729D01*
X-15820Y-257842D01*
X-15934Y-259000D01*
X-15820Y-260158D01*
X-15482Y-261271D01*
X-14934Y-262297D01*
X-14196Y-263196D01*
X-14089Y-263283D01*
X-14337Y-264099D01*
X-15158Y-264180D01*
X-16271Y-264518D01*
X-17297Y-265066D01*
X-18196Y-265804D01*
X-18934Y-266703D01*
X-19482Y-267729D01*
X-19820Y-268842D01*
X-19934Y-270000D01*
X-19820Y-271158D01*
X-19482Y-272271D01*
X-18934Y-273297D01*
X-18196Y-274196D01*
X-17297Y-274934D01*
X-16271Y-275482D01*
X-15158Y-275820D01*
X-14700Y-275865D01*
X-14592Y-275994D01*
X-14379Y-276688D01*
X-14934Y-277365D01*
X-15482Y-278391D01*
X-15820Y-279504D01*
X-15934Y-280661D01*
X-15820Y-281819D01*
X-15482Y-282932D01*
X-14934Y-283958D01*
X-14646Y-284310D01*
X-14950Y-284959D01*
X-15040Y-285070D01*
X-16158Y-285180D01*
X-17271Y-285518D01*
X-18297Y-286066D01*
X-19196Y-286804D01*
X-19934Y-287703D01*
X-20482Y-288729D01*
X-20684Y-289394D01*
X-221335D01*
X-254694Y-256035D01*
Y-4507D01*
X-254817Y-3893D01*
X-255165Y-3372D01*
X-255165Y-3372D01*
X-255575Y-2962D01*
Y6087D01*
X-263594D01*
Y10819D01*
X-259519D01*
Y18181D01*
X-269910D01*
X-271113Y19384D01*
X-270829Y19736D01*
X-270719Y19872D01*
X-270671Y19931D01*
X-270649Y19959D01*
X-270627Y19986D01*
X-270076Y20000D01*
X-269948Y20000D01*
X-269917D01*
X-269917D01*
X-265950D01*
Y22750D01*
X-270700D01*
Y20783D01*
Y20783D01*
Y20752D01*
X-270700Y20624D01*
X-270714Y20073D01*
X-270741Y20051D01*
X-270769Y20029D01*
X-270829Y19981D01*
X-270965Y19871D01*
X-271316Y19587D01*
X-279394Y27665D01*
Y58335D01*
X-267335Y70394D01*
X-255000D01*
X-255000Y70394D01*
X-254487Y70496D01*
X-254385Y70517D01*
X-253865Y70865D01*
X-246800Y77929D01*
X-246800Y77929D01*
X-246452Y78450D01*
X-246330Y79064D01*
Y82313D01*
X-236249Y92394D01*
X-231684D01*
X-231482Y91729D01*
X-230934Y90703D01*
X-230196Y89804D01*
X-229297Y89066D01*
X-228271Y88518D01*
X-227158Y88180D01*
X-226000Y88066D01*
X-224842Y88180D01*
X-223729Y88518D01*
X-222703Y89066D01*
X-221804Y89804D01*
X-221066Y90703D01*
X-220518Y91729D01*
X-220180Y92842D01*
X-220066Y94000D01*
X-220180Y95158D01*
X-220518Y96271D01*
X-220845Y96884D01*
X-220020Y97709D01*
X-216807D01*
Y96067D01*
X-215338D01*
X-212135Y92865D01*
X-212135Y92865D01*
X-211920Y92721D01*
X-212158Y91933D01*
X-216807D01*
Y87464D01*
X-221135Y83135D01*
X-221483Y82614D01*
X-221504Y82512D01*
X-221606Y82000D01*
X-221606Y82000D01*
Y69000D01*
X-221606Y69000D01*
X-221504Y68488D01*
X-221483Y68385D01*
X-221135Y67865D01*
X-212820Y59550D01*
X-212299Y59202D01*
X-212198Y59181D01*
X-211685Y59079D01*
X-211685Y59079D01*
X-207807D01*
Y57437D01*
X-207346D01*
Y53925D01*
X-213135Y48135D01*
X-213483Y47614D01*
X-213504Y47513D01*
X-213606Y47000D01*
X-213606Y47000D01*
Y31684D01*
X-214271Y31482D01*
X-215297Y30934D01*
X-216196Y30196D01*
X-216934Y29297D01*
X-217482Y28271D01*
X-217820Y27158D01*
X-217934Y26000D01*
X-217820Y24842D01*
X-217482Y23729D01*
X-216934Y22703D01*
X-216196Y21804D01*
X-215297Y21066D01*
X-214271Y20518D01*
X-213158Y20180D01*
X-212000Y20066D01*
X-210842Y20180D01*
X-209729Y20518D01*
X-208703Y21066D01*
X-207804Y21804D01*
X-207066Y22703D01*
X-206518Y23729D01*
X-206180Y24842D01*
X-206066Y26000D01*
X-206180Y27158D01*
X-206518Y28271D01*
X-207066Y29297D01*
X-207804Y30196D01*
X-208703Y30934D01*
X-209729Y31482D01*
X-210394Y31684D01*
Y46335D01*
X-204745Y51984D01*
X-204190Y51894D01*
X-203914Y51741D01*
X-203873Y51461D01*
X-204196Y51196D01*
X-204934Y50297D01*
X-205482Y49271D01*
X-205820Y48158D01*
X-205934Y47000D01*
X-205820Y45842D01*
X-205482Y44729D01*
X-204934Y43703D01*
X-204196Y42804D01*
X-203297Y42066D01*
X-202271Y41518D01*
X-201158Y41180D01*
X-200000Y41066D01*
X-198842Y41180D01*
X-197729Y41518D01*
X-196703Y42066D01*
X-195804Y42804D01*
X-195066Y43703D01*
X-194518Y44729D01*
X-194180Y45842D01*
X-194066Y47000D01*
X-194180Y48158D01*
X-194518Y49271D01*
X-195066Y50297D01*
X-195804Y51196D01*
X-196703Y51934D01*
X-197729Y52482D01*
X-198842Y52820D01*
X-200000Y52934D01*
X-200394Y53291D01*
Y57437D01*
X-199933D01*
Y57618D01*
X-199010D01*
Y60685D01*
X-198260D01*
Y61435D01*
X-196374D01*
Y63752D01*
X-196374Y63752D01*
X-196384Y64402D01*
X-196360Y64534D01*
X-195865Y64865D01*
X-191865Y68865D01*
X-191865Y68865D01*
X-191517Y69385D01*
X-191394Y70000D01*
Y85437D01*
X-190933D01*
Y85618D01*
X-190010D01*
Y88685D01*
Y91752D01*
X-190933D01*
Y91933D01*
X-198807D01*
Y85437D01*
X-198807D01*
X-198621Y84650D01*
X-200515Y82756D01*
X-206555D01*
Y81606D01*
X-209335D01*
X-209394Y81665D01*
Y85437D01*
X-208933D01*
Y85618D01*
X-208010D01*
Y88685D01*
X-207260D01*
Y89435D01*
X-205374D01*
Y91607D01*
X-205374Y91752D01*
X-205024Y92394D01*
X-201000D01*
X-201000Y92394D01*
X-200487Y92496D01*
X-200385Y92517D01*
X-199865Y92865D01*
X-196662Y96067D01*
X-194673D01*
Y102563D01*
X-198807D01*
Y98464D01*
X-201665Y95606D01*
X-204597D01*
X-205193Y96067D01*
X-205193Y96393D01*
Y102563D01*
X-204584Y102994D01*
X-203963Y103326D01*
X-203064Y104064D01*
X-202326Y104963D01*
X-201778Y105989D01*
X-201440Y107102D01*
X-201326Y108260D01*
X-201440Y109417D01*
X-201778Y110531D01*
X-202326Y111557D01*
X-203064Y112456D01*
X-203963Y113194D01*
X-204989Y113742D01*
X-206102Y114080D01*
X-207260Y114194D01*
D02*
G37*
G36*
X45545Y86750D02*
X41398D01*
Y85457D01*
X45545D01*
Y86750D01*
D02*
G37*
G36*
X51193D02*
X47045D01*
Y85457D01*
X51193D01*
Y86750D01*
D02*
G37*
G36*
X-205374Y87935D02*
X-206510D01*
Y85618D01*
X-205374D01*
Y87935D01*
D02*
G37*
G36*
X-202325Y168250D02*
X-207250D01*
Y163325D01*
X-206506Y163423D01*
X-205113Y164000D01*
X-203917Y164917D01*
X-203000Y166113D01*
X-202423Y167506D01*
X-202325Y168250D01*
D02*
G37*
G36*
X21680Y202381D02*
X13319D01*
Y198019D01*
X21680D01*
Y202381D01*
D02*
G37*
G36*
X-214288Y203550D02*
X-216704D01*
Y201331D01*
X-214288D01*
Y203550D01*
D02*
G37*
G36*
X-189260Y114674D02*
X-190418Y114560D01*
X-191531Y114223D01*
X-192557Y113674D01*
X-193456Y112936D01*
X-194194Y112037D01*
X-194742Y111011D01*
X-195080Y109898D01*
X-195194Y108740D01*
X-195080Y107582D01*
X-194742Y106469D01*
X-194194Y105443D01*
X-193456Y104544D01*
X-192557Y103806D01*
X-191577Y103282D01*
X-191327Y102563D01*
Y102563D01*
X-191327Y102563D01*
X-191327Y102563D01*
Y96067D01*
X-187193D01*
Y102563D01*
X-187193D01*
X-186980Y103262D01*
X-185963Y103806D01*
X-185064Y104544D01*
X-184326Y105443D01*
X-183777Y106469D01*
X-183440Y107582D01*
X-183326Y108740D01*
X-183440Y109898D01*
X-183777Y111011D01*
X-184326Y112037D01*
X-185064Y112936D01*
X-185963Y113674D01*
X-186989Y114223D01*
X-188102Y114560D01*
X-189260Y114674D01*
D02*
G37*
G36*
X22180Y166380D02*
X13819D01*
Y158019D01*
X22180D01*
Y166380D01*
D02*
G37*
G36*
X-176500Y164434D02*
X-177658Y164320D01*
X-178771Y163982D01*
X-179797Y163434D01*
X-180696Y162696D01*
X-181434Y161797D01*
X-181982Y160771D01*
X-182320Y159658D01*
X-182335Y159506D01*
X-184476D01*
Y161131D01*
X-189482D01*
X-189838Y161131D01*
X-190053D01*
X-190269D01*
X-190625Y161131D01*
X-195632D01*
Y159506D01*
X-199219D01*
Y160581D01*
X-208581D01*
Y155219D01*
X-208400D01*
Y153650D01*
X-199400D01*
Y155219D01*
X-199219D01*
Y156294D01*
X-195632D01*
Y154669D01*
X-190625D01*
X-190269Y154669D01*
X-190053D01*
X-189838D01*
X-189482Y154669D01*
X-184476D01*
Y156294D01*
X-182002D01*
X-181982Y156229D01*
X-181434Y155203D01*
X-180696Y154304D01*
X-179797Y153566D01*
X-178771Y153018D01*
X-177658Y152680D01*
X-176500Y152566D01*
X-175342Y152680D01*
X-174229Y153018D01*
X-173203Y153566D01*
X-172304Y154304D01*
X-171566Y155203D01*
X-171018Y156229D01*
X-170680Y157342D01*
X-170566Y158500D01*
X-170680Y159658D01*
X-171018Y160771D01*
X-171566Y161797D01*
X-172304Y162696D01*
X-173203Y163434D01*
X-174229Y163982D01*
X-175342Y164320D01*
X-176500Y164434D01*
D02*
G37*
G36*
X30000Y-16783D02*
X29168Y-16893D01*
X28392Y-17214D01*
X27726Y-17726D01*
X27214Y-18392D01*
X26893Y-19168D01*
X26783Y-20000D01*
X26893Y-20832D01*
X27214Y-21608D01*
X27726Y-22274D01*
X28392Y-22786D01*
X29168Y-23107D01*
X30000Y-23216D01*
X30832Y-23107D01*
X31608Y-22786D01*
X32274Y-22274D01*
X32786Y-21608D01*
X33107Y-20832D01*
X33217Y-20000D01*
X33107Y-19168D01*
X32786Y-18392D01*
X32274Y-17726D01*
X31608Y-17214D01*
X30832Y-16893D01*
X30000Y-16783D01*
D02*
G37*
G36*
X243366Y-18563D02*
X242230D01*
Y-20880D01*
X243366D01*
Y-18563D01*
D02*
G37*
G36*
X-30000Y-16783D02*
X-30832Y-16893D01*
X-31608Y-17214D01*
X-32274Y-17726D01*
X-32786Y-18392D01*
X-33107Y-19168D01*
X-33217Y-20000D01*
X-33107Y-20832D01*
X-32786Y-21608D01*
X-32274Y-22274D01*
X-31608Y-22786D01*
X-30832Y-23107D01*
X-30000Y-23216D01*
X-29168Y-23107D01*
X-28392Y-22786D01*
X-27726Y-22274D01*
X-27214Y-21608D01*
X-26893Y-20832D01*
X-26783Y-20000D01*
X-26893Y-19168D01*
X-27214Y-18392D01*
X-27726Y-17726D01*
X-28392Y-17214D01*
X-29168Y-16893D01*
X-30000Y-16783D01*
D02*
G37*
G36*
X-55425Y-27850D02*
X-57250D01*
Y-31250D01*
X-55425D01*
Y-27850D01*
D02*
G37*
G36*
X243366Y-22380D02*
X242230D01*
Y-24697D01*
X243366D01*
Y-22380D01*
D02*
G37*
G36*
X-30000Y-6784D02*
X-30832Y-6893D01*
X-31608Y-7214D01*
X-32274Y-7726D01*
X-32786Y-8392D01*
X-33107Y-9167D01*
X-33217Y-10000D01*
X-33107Y-10832D01*
X-32786Y-11608D01*
X-32274Y-12274D01*
X-31608Y-12786D01*
X-30832Y-13107D01*
X-30000Y-13216D01*
X-29168Y-13107D01*
X-28392Y-12786D01*
X-27726Y-12274D01*
X-27214Y-11608D01*
X-26893Y-10832D01*
X-26783Y-10000D01*
X-26893Y-9167D01*
X-27214Y-8392D01*
X-27726Y-7726D01*
X-28392Y-7214D01*
X-29168Y-6893D01*
X-30000Y-6784D01*
D02*
G37*
G36*
X-248943Y-1750D02*
X-252244D01*
Y-7905D01*
X-248943D01*
Y-1750D01*
D02*
G37*
G36*
X-244142D02*
X-247443D01*
Y-7905D01*
X-244142D01*
Y-1750D01*
D02*
G37*
G36*
X-42950Y-7600D02*
X-45250D01*
Y-9350D01*
X-42950D01*
Y-7600D01*
D02*
G37*
G36*
X30000Y-6784D02*
X29168Y-6893D01*
X28392Y-7214D01*
X27726Y-7726D01*
X27214Y-8392D01*
X26893Y-9167D01*
X26783Y-10000D01*
X26893Y-10832D01*
X27214Y-11608D01*
X27726Y-12274D01*
X28392Y-12786D01*
X29168Y-13107D01*
X30000Y-13216D01*
X30832Y-13107D01*
X31608Y-12786D01*
X32274Y-12274D01*
X32786Y-11608D01*
X33107Y-10832D01*
X33217Y-10000D01*
X33107Y-9167D01*
X32786Y-8392D01*
X32274Y-7726D01*
X31608Y-7214D01*
X30832Y-6893D01*
X30000Y-6784D01*
D02*
G37*
G36*
X-46750Y-7600D02*
X-49050D01*
Y-9350D01*
X-46750D01*
Y-7600D01*
D02*
G37*
G36*
X-58750Y-27850D02*
X-60575D01*
Y-31250D01*
X-58750D01*
Y-27850D01*
D02*
G37*
G36*
X30000Y-36783D02*
X29168Y-36893D01*
X28392Y-37214D01*
X27726Y-37726D01*
X27214Y-38392D01*
X26893Y-39167D01*
X26783Y-40000D01*
X26893Y-40832D01*
X27214Y-41608D01*
X27726Y-42274D01*
X28392Y-42786D01*
X29168Y-43107D01*
X30000Y-43216D01*
X30832Y-43107D01*
X31608Y-42786D01*
X32274Y-42274D01*
X32786Y-41608D01*
X33107Y-40832D01*
X33217Y-40000D01*
X33107Y-39167D01*
X32786Y-38392D01*
X32274Y-37726D01*
X31608Y-37214D01*
X30832Y-36893D01*
X30000Y-36783D01*
D02*
G37*
G36*
X16250Y-35600D02*
X13950D01*
Y-37350D01*
X16250D01*
Y-35600D01*
D02*
G37*
G36*
X-30000Y-36783D02*
X-30832Y-36893D01*
X-31608Y-37214D01*
X-32274Y-37726D01*
X-32786Y-38392D01*
X-33107Y-39167D01*
X-33217Y-40000D01*
X-33107Y-40832D01*
X-32786Y-41608D01*
X-32274Y-42274D01*
X-31608Y-42786D01*
X-30832Y-43107D01*
X-30000Y-43216D01*
X-29168Y-43107D01*
X-28392Y-42786D01*
X-27726Y-42274D01*
X-27214Y-41608D01*
X-26893Y-40832D01*
X-26783Y-40000D01*
X-26893Y-39167D01*
X-27214Y-38392D01*
X-27726Y-37726D01*
X-28392Y-37214D01*
X-29168Y-36893D01*
X-30000Y-36783D01*
D02*
G37*
G36*
X54750Y-39325D02*
Y-44250D01*
X59675D01*
X59577Y-43506D01*
X59000Y-42113D01*
X58083Y-40917D01*
X56887Y-40000D01*
X55494Y-39423D01*
X54750Y-39325D01*
D02*
G37*
G36*
X92000Y-36691D02*
X91144Y-36803D01*
X90345Y-37134D01*
X89660Y-37660D01*
X89134Y-38345D01*
X88803Y-39143D01*
X88691Y-40000D01*
X88803Y-40857D01*
X89134Y-41655D01*
X89660Y-42340D01*
X90345Y-42866D01*
X91144Y-43197D01*
X92000Y-43309D01*
X92857Y-43197D01*
X93655Y-42866D01*
X94340Y-42340D01*
X94866Y-41655D01*
X95197Y-40857D01*
X95309Y-40000D01*
X95197Y-39143D01*
X94866Y-38345D01*
X94340Y-37660D01*
X93655Y-37134D01*
X92857Y-36803D01*
X92000Y-36691D01*
D02*
G37*
G36*
X20050Y-35600D02*
X17750D01*
Y-37350D01*
X20050D01*
Y-35600D01*
D02*
G37*
G36*
X30000Y-26783D02*
X29168Y-26893D01*
X28392Y-27214D01*
X27726Y-27726D01*
X27214Y-28392D01*
X26893Y-29168D01*
X26783Y-30000D01*
X26893Y-30832D01*
X27214Y-31608D01*
X27726Y-32274D01*
X28392Y-32786D01*
X29168Y-33107D01*
X30000Y-33217D01*
X30832Y-33107D01*
X31608Y-32786D01*
X32274Y-32274D01*
X32786Y-31608D01*
X33107Y-30832D01*
X33217Y-30000D01*
X33107Y-29168D01*
X32786Y-28392D01*
X32274Y-27726D01*
X31608Y-27214D01*
X30832Y-26893D01*
X30000Y-26783D01*
D02*
G37*
G36*
X-42950Y-10850D02*
X-49050D01*
Y-12432D01*
X-49050Y-12506D01*
X-49231Y-13219D01*
Y-13221D01*
X-49231Y-13312D01*
Y-18031D01*
X-49297Y-18066D01*
X-50196Y-18804D01*
X-50934Y-19703D01*
X-51482Y-20729D01*
X-51820Y-21842D01*
X-51934Y-23000D01*
X-51820Y-24158D01*
X-51482Y-25271D01*
X-50934Y-26297D01*
X-50196Y-27196D01*
X-49297Y-27934D01*
X-48588Y-28313D01*
X-48786Y-29100D01*
X-49750D01*
Y-31600D01*
X-42250D01*
Y-29100D01*
X-43214D01*
X-43411Y-28313D01*
X-42703Y-27934D01*
X-41804Y-27196D01*
X-41066Y-26297D01*
X-40518Y-25271D01*
X-40180Y-24158D01*
X-40066Y-23000D01*
X-40180Y-21842D01*
X-40518Y-20729D01*
X-41066Y-19703D01*
X-41804Y-18804D01*
X-42703Y-18066D01*
X-42769Y-18031D01*
Y-13312D01*
X-42769Y-13221D01*
Y-13219D01*
X-42950Y-12506D01*
X-42950Y-12432D01*
Y-10850D01*
D02*
G37*
G36*
X-30000Y-26783D02*
X-30832Y-26893D01*
X-31608Y-27214D01*
X-32274Y-27726D01*
X-32786Y-28392D01*
X-33107Y-29168D01*
X-33217Y-30000D01*
X-33107Y-30832D01*
X-32786Y-31608D01*
X-32274Y-32274D01*
X-31608Y-32786D01*
X-30832Y-33107D01*
X-30000Y-33217D01*
X-29168Y-33107D01*
X-28392Y-32786D01*
X-27726Y-32274D01*
X-27214Y-31608D01*
X-26893Y-30832D01*
X-26783Y-30000D01*
X-26893Y-29168D01*
X-27214Y-28392D01*
X-27726Y-27726D01*
X-28392Y-27214D01*
X-29168Y-26893D01*
X-30000Y-26783D01*
D02*
G37*
G36*
X-58750Y-32750D02*
X-60575D01*
Y-36149D01*
X-58750D01*
Y-32750D01*
D02*
G37*
G36*
X-55425D02*
X-57250D01*
Y-36149D01*
X-55425D01*
Y-32750D01*
D02*
G37*
G36*
X256000Y4934D02*
X254842Y4820D01*
X253729Y4482D01*
X252703Y3934D01*
X251804Y3196D01*
X251066Y2297D01*
X250518Y1271D01*
X250180Y158D01*
X250066Y-1000D01*
X250180Y-2158D01*
X250518Y-3271D01*
X250845Y-3884D01*
X245335Y-9394D01*
X243547D01*
Y-7752D01*
X239413D01*
Y-14248D01*
X243547D01*
Y-12606D01*
X246000D01*
X246000Y-12606D01*
X246513Y-12504D01*
X246615Y-12483D01*
X247135Y-12135D01*
X253116Y-6155D01*
X253729Y-6482D01*
X254842Y-6820D01*
X256000Y-6934D01*
X257158Y-6820D01*
X258271Y-6482D01*
X259297Y-5934D01*
X260196Y-5196D01*
X260934Y-4297D01*
X261482Y-3271D01*
X261820Y-2158D01*
X261934Y-1000D01*
X261820Y158D01*
X261482Y1271D01*
X260934Y2297D01*
X260196Y3196D01*
X259297Y3934D01*
X258271Y4482D01*
X257158Y4820D01*
X256000Y4934D01*
D02*
G37*
G36*
X-269000Y48934D02*
X-270158Y48820D01*
X-271271Y48482D01*
X-272297Y47934D01*
X-273196Y47196D01*
X-273934Y46297D01*
X-274482Y45271D01*
X-274820Y44158D01*
X-274934Y43000D01*
X-274820Y41842D01*
X-274482Y40729D01*
X-273934Y39703D01*
X-273196Y38804D01*
X-272297Y38066D01*
X-271271Y37518D01*
X-270158Y37180D01*
X-269000Y37066D01*
X-267842Y37180D01*
X-266729Y37518D01*
X-265703Y38066D01*
X-264804Y38804D01*
X-264066Y39703D01*
X-263697Y40394D01*
X-262693D01*
Y38850D01*
X-260952D01*
Y37319D01*
X-262090Y36181D01*
X-270881D01*
Y28819D01*
X-259519D01*
Y34210D01*
X-258211Y35518D01*
X-258211Y35518D01*
X-257863Y36039D01*
X-257741Y36654D01*
Y38294D01*
X-257184Y38850D01*
X-256531D01*
X-256111Y38850D01*
X-256000D01*
X-255288Y39031D01*
X-255213D01*
X-253403D01*
Y42000D01*
Y44969D01*
X-255213D01*
X-255288D01*
X-256000Y45150D01*
X-256111D01*
X-256531Y45150D01*
X-262693D01*
X-262693Y45150D01*
Y45150D01*
X-263480Y45148D01*
X-263518Y45271D01*
X-264066Y46297D01*
X-264804Y47196D01*
X-265703Y47934D01*
X-266729Y48482D01*
X-267842Y48820D01*
X-269000Y48934D01*
D02*
G37*
G36*
X-259700Y22750D02*
X-264450D01*
Y20000D01*
X-259700D01*
Y22750D01*
D02*
G37*
G36*
X-249488Y41250D02*
X-251904D01*
Y39031D01*
X-249488D01*
Y41250D01*
D02*
G37*
G36*
X30000Y23216D02*
X29168Y23107D01*
X28392Y22786D01*
X27726Y22274D01*
X27214Y21608D01*
X26893Y20832D01*
X26783Y20000D01*
X26893Y19168D01*
X27214Y18392D01*
X27726Y17726D01*
X28392Y17214D01*
X29168Y16893D01*
X30000Y16783D01*
X30832Y16893D01*
X31608Y17214D01*
X32274Y17726D01*
X32786Y18392D01*
X33107Y19168D01*
X33217Y20000D01*
X33107Y20832D01*
X32786Y21608D01*
X32274Y22274D01*
X31608Y22786D01*
X30832Y23107D01*
X30000Y23216D01*
D02*
G37*
G36*
X-251904Y44969D02*
Y42750D01*
X-249488D01*
Y44969D01*
X-251904D01*
D02*
G37*
G36*
X-265950Y27000D02*
X-270700D01*
Y24250D01*
X-265950D01*
Y27000D01*
D02*
G37*
G36*
X-235000Y32000D02*
X-240250D01*
Y24250D01*
X-235000D01*
Y32000D01*
D02*
G37*
G36*
X-241750D02*
X-247000D01*
Y24250D01*
X-241750D01*
Y32000D01*
D02*
G37*
G36*
X-30000Y33217D02*
X-30832Y33107D01*
X-31608Y32786D01*
X-32274Y32274D01*
X-32786Y31608D01*
X-33107Y30832D01*
X-33217Y30000D01*
X-33107Y29168D01*
X-32786Y28392D01*
X-32274Y27726D01*
X-31608Y27214D01*
X-30832Y26893D01*
X-30000Y26783D01*
X-29168Y26893D01*
X-28392Y27214D01*
X-27726Y27726D01*
X-27214Y28392D01*
X-26893Y29168D01*
X-26783Y30000D01*
X-26893Y30832D01*
X-27214Y31608D01*
X-27726Y32274D01*
X-28392Y32786D01*
X-29168Y33107D01*
X-30000Y33217D01*
D02*
G37*
G36*
X30000D02*
X29168Y33107D01*
X28392Y32786D01*
X27726Y32274D01*
X27214Y31608D01*
X26893Y30832D01*
X26783Y30000D01*
X26893Y29168D01*
X27214Y28392D01*
X27726Y27726D01*
X28392Y27214D01*
X29168Y26893D01*
X30000Y26783D01*
X30832Y26893D01*
X31608Y27214D01*
X32274Y27726D01*
X32786Y28392D01*
X33107Y29168D01*
X33217Y30000D01*
X33107Y30832D01*
X32786Y31608D01*
X32274Y32274D01*
X31608Y32786D01*
X30832Y33107D01*
X30000Y33217D01*
D02*
G37*
G36*
X-259700Y27000D02*
X-264450D01*
Y24250D01*
X-259700D01*
Y27000D01*
D02*
G37*
G36*
X-30000Y23216D02*
X-30832Y23107D01*
X-31608Y22786D01*
X-32274Y22274D01*
X-32786Y21608D01*
X-33107Y20832D01*
X-33217Y20000D01*
X-33107Y19168D01*
X-32786Y18392D01*
X-32274Y17726D01*
X-31608Y17214D01*
X-30832Y16893D01*
X-30000Y16783D01*
X-29168Y16893D01*
X-28392Y17214D01*
X-27726Y17726D01*
X-27214Y18392D01*
X-26893Y19168D01*
X-26783Y20000D01*
X-26893Y20832D01*
X-27214Y21608D01*
X-27726Y22274D01*
X-28392Y22786D01*
X-29168Y23107D01*
X-30000Y23216D01*
D02*
G37*
G36*
X-244142Y5906D02*
X-247443D01*
Y-250D01*
X-244142D01*
Y5906D01*
D02*
G37*
G36*
X-30000Y13216D02*
X-30832Y13107D01*
X-31608Y12786D01*
X-32274Y12274D01*
X-32786Y11608D01*
X-33107Y10832D01*
X-33217Y10000D01*
X-33107Y9167D01*
X-32786Y8392D01*
X-32274Y7726D01*
X-31608Y7214D01*
X-30832Y6893D01*
X-30000Y6784D01*
X-29168Y6893D01*
X-28392Y7214D01*
X-27726Y7726D01*
X-27214Y8392D01*
X-26893Y9167D01*
X-26783Y10000D01*
X-26893Y10832D01*
X-27214Y11608D01*
X-27726Y12274D01*
X-28392Y12786D01*
X-29168Y13107D01*
X-30000Y13216D01*
D02*
G37*
G36*
X30000D02*
X29168Y13107D01*
X28392Y12786D01*
X27726Y12274D01*
X27214Y11608D01*
X26893Y10832D01*
X26783Y10000D01*
X26893Y9167D01*
X27214Y8392D01*
X27726Y7726D01*
X28392Y7214D01*
X29168Y6893D01*
X30000Y6784D01*
X30832Y6893D01*
X31608Y7214D01*
X32274Y7726D01*
X32786Y8392D01*
X33107Y9167D01*
X33217Y10000D01*
X33107Y10832D01*
X32786Y11608D01*
X32274Y12274D01*
X31608Y12786D01*
X30832Y13107D01*
X30000Y13216D01*
D02*
G37*
G36*
X-30000Y3216D02*
X-30832Y3107D01*
X-31608Y2786D01*
X-32274Y2274D01*
X-32786Y1608D01*
X-33107Y833D01*
X-33217Y0D01*
X-33107Y-833D01*
X-32786Y-1608D01*
X-32274Y-2274D01*
X-31608Y-2786D01*
X-30832Y-3107D01*
X-30000Y-3216D01*
X-29168Y-3107D01*
X-28392Y-2786D01*
X-27726Y-2274D01*
X-27214Y-1608D01*
X-26893Y-833D01*
X-26783Y0D01*
X-26893Y833D01*
X-27214Y1608D01*
X-27726Y2274D01*
X-28392Y2786D01*
X-29168Y3107D01*
X-30000Y3216D01*
D02*
G37*
G36*
X30000D02*
X29168Y3107D01*
X28392Y2786D01*
X27726Y2274D01*
X27214Y1608D01*
X26893Y833D01*
X26783Y0D01*
X26893Y-833D01*
X27214Y-1608D01*
X27726Y-2274D01*
X28392Y-2786D01*
X29168Y-3107D01*
X30000Y-3216D01*
X30832Y-3107D01*
X31608Y-2786D01*
X32274Y-2274D01*
X32786Y-1608D01*
X33107Y-833D01*
X33217Y0D01*
X33107Y833D01*
X32786Y1608D01*
X32274Y2274D01*
X31608Y2786D01*
X30832Y3107D01*
X30000Y3216D01*
D02*
G37*
G36*
X-248943Y5906D02*
X-252244D01*
Y-250D01*
X-248943D01*
Y5906D01*
D02*
G37*
G36*
X202250Y58250D02*
X197325D01*
X197423Y57506D01*
X198000Y56113D01*
X198917Y54917D01*
X200113Y54000D01*
X201506Y53423D01*
X202250Y53325D01*
Y58250D01*
D02*
G37*
G36*
X-260000Y59108D02*
X-260804Y59002D01*
X-261554Y58691D01*
X-262197Y58197D01*
X-262691Y57554D01*
X-263002Y56804D01*
X-263108Y56000D01*
X-263002Y55196D01*
X-262691Y54446D01*
X-262197Y53803D01*
X-261554Y53309D01*
X-260804Y52998D01*
X-260000Y52892D01*
X-259196Y52998D01*
X-258446Y53309D01*
X-257803Y53803D01*
X-257309Y54446D01*
X-256998Y55196D01*
X-256892Y56000D01*
X-256998Y56804D01*
X-257309Y57554D01*
X-257803Y58197D01*
X-258446Y58691D01*
X-259196Y59002D01*
X-260000Y59108D01*
D02*
G37*
G36*
X-235000Y22750D02*
X-240250D01*
Y15000D01*
X-235000D01*
Y22750D01*
D02*
G37*
G36*
X-241750D02*
X-247000D01*
Y15000D01*
X-241750D01*
Y22750D01*
D02*
G37*
G36*
X208675Y58250D02*
X203750D01*
Y53325D01*
X204494Y53423D01*
X205887Y54000D01*
X207083Y54917D01*
X208000Y56113D01*
X208577Y57506D01*
X208675Y58250D01*
D02*
G37*
%LPD*%
G36*
X-127500Y252031D02*
X-138493D01*
X-138773Y252218D01*
X-139370Y252336D01*
X-139968Y252218D01*
X-140474Y251879D01*
X-140812Y251373D01*
X-140931Y250775D01*
Y250649D01*
X-140976Y250425D01*
X-140931Y250201D01*
Y250075D01*
X-140812Y249478D01*
X-140474Y248971D01*
X-139968Y248633D01*
X-139370Y248514D01*
X-138773Y248633D01*
X-138493Y248819D01*
X-127500D01*
Y236349D01*
Y223827D01*
Y214974D01*
Y209748D01*
Y193053D01*
Y183163D01*
Y176952D01*
Y162327D01*
Y153474D01*
Y148248D01*
Y124000D01*
X-166000D01*
X-166105Y224980D01*
X-166107Y227018D01*
X-166118Y236847D01*
Y236847D01*
X-166124Y242909D01*
X-166125Y243996D01*
X-166130Y249182D01*
X-166135Y253160D01*
Y253160D01*
Y253160D01*
X-166135Y253828D01*
X-166135Y253829D01*
Y253831D01*
X-166135Y253831D01*
X-166135Y253956D01*
X-166135Y254152D01*
X-166133Y254160D01*
X-166133Y254162D01*
X-166113Y254233D01*
X-166056Y254448D01*
X-166055Y254449D01*
Y254451D01*
X-166055Y254452D01*
X-166055Y254454D01*
X-166054Y254455D01*
X-165987Y254708D01*
X-165983Y254736D01*
X-165980Y254743D01*
X-165951Y254793D01*
X-165951Y254793D01*
X-165821Y255020D01*
X-165814Y255036D01*
X-165813Y255038D01*
X-165697Y255318D01*
X-165666Y255373D01*
X-165581Y255688D01*
X-165456Y255990D01*
X-165414Y256311D01*
X-165330Y256624D01*
X-165330Y256951D01*
X-165288Y257275D01*
X-165330Y257596D01*
Y257713D01*
X-165012Y258214D01*
X-164701Y258500D01*
X-127500D01*
Y252031D01*
D02*
G37*
G36*
X-57204Y177445D02*
X-57157Y177221D01*
X-57113Y176995D01*
X-57109Y176991D01*
X-57108Y176985D01*
X-57089Y176939D01*
X-57088Y176936D01*
X-57042Y176827D01*
X-57028Y176758D01*
Y176758D01*
X-57032Y176694D01*
X-57032Y176693D01*
X-57031Y176690D01*
X-57032Y176672D01*
X-57000Y176430D01*
Y176205D01*
X-57000Y176204D01*
X-57000Y176204D01*
Y171621D01*
X-56985Y171543D01*
X-56990Y171464D01*
X-56988Y171454D01*
X-56988Y171453D01*
X-56988Y171453D01*
X-56969Y171303D01*
X-56943Y171228D01*
X-56938Y171149D01*
X-56916Y171069D01*
X-56907Y171049D01*
X-56906Y171040D01*
X-56898Y171012D01*
X-56872Y170960D01*
X-56861Y170907D01*
X-56854Y170892D01*
X-56841Y170873D01*
X-56837Y170852D01*
X-56816Y170800D01*
X-56813Y170789D01*
X-56810Y170785D01*
X-56660Y170425D01*
X-56650Y170410D01*
X-56646Y170391D01*
X-56609Y170300D01*
Y170300D01*
X-56492Y169865D01*
X-56483Y169847D01*
X-56481Y169827D01*
X-56379Y169490D01*
X-56373Y169432D01*
X-56356Y169375D01*
X-56356Y169316D01*
X-56345Y169258D01*
X-56345Y168906D01*
X-56341Y168886D01*
X-56344Y168867D01*
X-56333Y168527D01*
X-56434Y167500D01*
X-56352Y166664D01*
X-56380Y166321D01*
X-56376Y166291D01*
X-56383Y166262D01*
X-56394Y165919D01*
X-56410Y165853D01*
X-56411Y165803D01*
X-56428Y165756D01*
X-56438Y165689D01*
X-56554Y165366D01*
X-56558Y165337D01*
X-56572Y165310D01*
X-56672Y164982D01*
X-56704Y164922D01*
X-56718Y164874D01*
X-56747Y164833D01*
X-56774Y164771D01*
X-56780Y164762D01*
X-56784Y164753D01*
X-56846Y164664D01*
X-56889Y164564D01*
X-56895Y164555D01*
X-56899Y164546D01*
X-56900Y164541D01*
X-56968Y164439D01*
X-56989Y164332D01*
X-57033Y164233D01*
X-57035Y164110D01*
X-57037Y164105D01*
X-57039Y164095D01*
Y164085D01*
X-57060Y163978D01*
Y163870D01*
X-57062Y163860D01*
Y162181D01*
X-57081D01*
Y162084D01*
Y153716D01*
Y153619D01*
X-57062D01*
Y153547D01*
Y152751D01*
X-57039Y152635D01*
X-57039Y152517D01*
X-57005Y152436D01*
X-56995Y152361D01*
X-56978Y152331D01*
X-56970Y152290D01*
X-56904Y152192D01*
X-56859Y152083D01*
X-56857Y152079D01*
X-56800Y152023D01*
X-56761Y151954D01*
X-56663Y151843D01*
X-56657Y151838D01*
X-56644Y151816D01*
X-56644Y151816D01*
X-56623Y151799D01*
X-56608Y151777D01*
X-56595Y151763D01*
X-56589Y151753D01*
X-56534Y151690D01*
X-56529Y151686D01*
X-56514Y151659D01*
X-56513Y151659D01*
X-56490Y151641D01*
X-56476Y151619D01*
X-56468Y151611D01*
X-56457Y151602D01*
X-56449Y151593D01*
X-56400Y151550D01*
X-56385Y151530D01*
X-56345Y151495D01*
X-56345Y151495D01*
X-56345Y151495D01*
X-56339Y151490D01*
X-56321Y151473D01*
X-56284Y151429D01*
X-56275Y151410D01*
X-56264Y151399D01*
X-56254Y151383D01*
X-56233Y151361D01*
X-56223Y151354D01*
X-56189Y151302D01*
X-56155Y151267D01*
X-56073Y151212D01*
X-56031Y151167D01*
X-56000Y151154D01*
X-55932Y151090D01*
X-55843Y151057D01*
X-55765Y151004D01*
X-55625Y150976D01*
X-55491Y150926D01*
X-55463Y150921D01*
X-55374Y150924D01*
X-55305Y150910D01*
X-55302Y150910D01*
X-55276Y150905D01*
X-35600Y150799D01*
X-35557Y150807D01*
X-35549Y150806D01*
X-35508Y150813D01*
X-35440Y150809D01*
X-35388Y150815D01*
X-35241Y150865D01*
X-35088Y150895D01*
X-35020Y150939D01*
X-34943Y150965D01*
X-34844Y151052D01*
X-34823Y151061D01*
X-34813Y151067D01*
X-34786Y151094D01*
X-34696Y151154D01*
X-34639Y151210D01*
X-34604Y151261D01*
X-34589Y151274D01*
X-34588Y151277D01*
X-34569Y151289D01*
X-34549Y151309D01*
X-34541Y151320D01*
X-34523Y151336D01*
X-34519Y151342D01*
X-34508Y151349D01*
X-34319Y151537D01*
X-34309Y151553D01*
X-34298Y151560D01*
X-34280Y151578D01*
X-34269Y151593D01*
X-34251Y151607D01*
X-34247Y151616D01*
X-34237Y151623D01*
X-34216Y151646D01*
X-34205Y151664D01*
X-34205Y151664D01*
X-34198Y151673D01*
X-34198Y151674D01*
X-34196Y151676D01*
X-34196Y151676D01*
X-34186Y151695D01*
X-34144Y151734D01*
X-34136Y151744D01*
X-34110Y151798D01*
X-34097Y151815D01*
X-34075Y151861D01*
X-34053Y151884D01*
X-34045Y151902D01*
X-34043Y151904D01*
X-34041Y151910D01*
X-34036Y151916D01*
X-34025Y151929D01*
X-34024Y151930D01*
X-34023Y151933D01*
X-34014Y151946D01*
X-33991Y151994D01*
X-33978Y152011D01*
X-33970Y152027D01*
X-33960Y152067D01*
X-33940Y152096D01*
X-33936Y152106D01*
X-33924Y152165D01*
X-33924Y152166D01*
X-33923Y152168D01*
X-33922Y152170D01*
X-33920Y152174D01*
X-33917Y152192D01*
X-33895Y152239D01*
X-33893Y152268D01*
X-33872Y152318D01*
X-33871Y152321D01*
Y152325D01*
X-33866Y152339D01*
X-33855Y152396D01*
X-33855Y152404D01*
X-33855Y152404D01*
X-33849Y152435D01*
X-33835Y152487D01*
X-33833Y152520D01*
X-33821Y152550D01*
X-33821Y152553D01*
X-33819Y152556D01*
X-33819Y152557D01*
X-33819Y152612D01*
X-33814Y152632D01*
X-33812Y152668D01*
X-33815Y152689D01*
X-33812Y152703D01*
X-33813Y152708D01*
X-33796Y152793D01*
Y152793D01*
Y153009D01*
X-33796Y153010D01*
Y153010D01*
Y171796D01*
X-10000D01*
Y124000D01*
X-72449D01*
Y128964D01*
X-67964D01*
Y145036D01*
X-72857D01*
X-73294Y145691D01*
X-72752Y147000D01*
X-74201Y150499D01*
X-76925Y151627D01*
X-77000Y151948D01*
D01*
X-77079D01*
X-77621D01*
X-77700D01*
D01*
X-77767Y151658D01*
X-77775Y151627D01*
Y151627D01*
X-80499Y150499D01*
X-81948Y147000D01*
X-81406Y145691D01*
X-81843Y145036D01*
X-87036D01*
Y128964D01*
X-82251D01*
Y124000D01*
X-124169D01*
Y135619D01*
X-114369D01*
Y144181D01*
X-126296D01*
Y148248D01*
Y153474D01*
Y162327D01*
Y176952D01*
Y177500D01*
X-57959D01*
X-57204Y177445D01*
D02*
G37*
G36*
X-71022Y197886D02*
X-70007Y197465D01*
Y197465D01*
X-69728Y196793D01*
X-69686Y196691D01*
X-70124Y196036D01*
X-72853D01*
X-73291Y196691D01*
X-72697Y198125D01*
X-72376Y198446D01*
X-71022Y197886D01*
D02*
G37*
G36*
X-40569Y185494D02*
X-40487Y185460D01*
X-40424Y185397D01*
X-40415Y185390D01*
X-40371Y185285D01*
X-40369Y185281D01*
X-40293Y185097D01*
X-40259Y185045D01*
X-40237Y184994D01*
X-40206Y184947D01*
X-40182Y184889D01*
X-40147Y184837D01*
X-40117Y184806D01*
X-40051Y184684D01*
X-40015Y184641D01*
X-39987Y184619D01*
X-39976Y184603D01*
X-39966Y184596D01*
X-39945Y184565D01*
X-39793Y184461D01*
X-39650Y184346D01*
X-39599Y184331D01*
X-39556Y184301D01*
X-38898Y184025D01*
X-38733Y183991D01*
X-38572Y183939D01*
X-38372Y183915D01*
X-38206Y183928D01*
X-38040Y183922D01*
X-37949Y183937D01*
X-37908Y183952D01*
X-37903Y183952D01*
X-37894Y183957D01*
X-37735Y184016D01*
X-37522Y184092D01*
X-35787Y185127D01*
X-35000Y184680D01*
Y180251D01*
X-39673D01*
X-39673Y180251D01*
X-39673Y180251D01*
X-40768D01*
X-41000D01*
X-41000D01*
X-41565Y179714D01*
X-44499Y178499D01*
X-45105Y177036D01*
X-49036D01*
Y174572D01*
X-45481D01*
X-44499Y172201D01*
X-41565Y170986D01*
X-41000Y170449D01*
X-41000D01*
X-40768D01*
X-39673D01*
X-39673Y170449D01*
X-39673Y170449D01*
X-35000D01*
Y153010D01*
X-35000Y153009D01*
Y152793D01*
Y152793D01*
X-35000Y152793D01*
X-35014Y152740D01*
X-35016Y152704D01*
Y152704D01*
X-35030Y152670D01*
X-35036Y152640D01*
Y152627D01*
X-35036Y152627D01*
X-35037Y152624D01*
X-35048Y152567D01*
X-35052Y152557D01*
X-35053Y152554D01*
Y152554D01*
X-35053Y152554D01*
X-35053Y152554D01*
X-35061Y152537D01*
X-35062Y152536D01*
X-35074Y152519D01*
X-35074Y152519D01*
X-35075Y152519D01*
X-35075Y152519D01*
X-35075Y152518D01*
X-35077Y152513D01*
X-35078Y152513D01*
X-35100Y152465D01*
X-35100Y152465D01*
X-35100Y152465D01*
X-35108Y152455D01*
X-35108Y152454D01*
X-35129Y152432D01*
X-35129Y152432D01*
X-35129Y152432D01*
X-35147Y152414D01*
X-35148Y152413D01*
X-35149Y152411D01*
X-35150Y152411D01*
X-35150Y152410D01*
X-35151Y152410D01*
X-35157Y152401D01*
X-35160Y152397D01*
X-35169Y152391D01*
X-35327Y152233D01*
X-35333Y152228D01*
X-35335Y152225D01*
X-35357Y152203D01*
X-35364Y152193D01*
X-35380Y152184D01*
X-35383Y152180D01*
X-35396Y152168D01*
X-35407Y152154D01*
X-35418Y152143D01*
X-35435Y152118D01*
X-35450Y152099D01*
X-35463Y152085D01*
X-35473Y152077D01*
X-35476Y152072D01*
X-35477Y152072D01*
X-35486Y152066D01*
X-35529Y152023D01*
X-35544Y152017D01*
X-35625Y152007D01*
X-35634Y152003D01*
X-41326Y152034D01*
X-55239Y152109D01*
X-55297Y152119D01*
X-55307Y152123D01*
X-55329Y152145D01*
X-55359Y152200D01*
X-55396Y152244D01*
X-55418Y152262D01*
X-55420Y152266D01*
X-55420Y152266D01*
X-55447Y152288D01*
X-55464Y152311D01*
X-55472Y152316D01*
X-55485Y152333D01*
X-55494Y152347D01*
Y152347D01*
X-55495Y152348D01*
X-55500Y152354D01*
X-55518Y152371D01*
X-55538Y152384D01*
X-55551Y152401D01*
X-55591Y152436D01*
X-55592Y152436D01*
X-55592Y152436D01*
X-55592Y152437D01*
X-55606Y152455D01*
X-55617Y152465D01*
X-55628Y152484D01*
X-55683Y152546D01*
X-55705Y152563D01*
X-55729Y152600D01*
X-55742Y152614D01*
X-55743Y152614D01*
X-55743Y152614D01*
X-55743Y152614D01*
X-55747Y152617D01*
X-55758Y152637D01*
X-55855Y152748D01*
X-55857Y152751D01*
Y153547D01*
Y153619D01*
X-55877Y153716D01*
Y162084D01*
X-55857Y162181D01*
Y163850D01*
X-55857Y163850D01*
Y163860D01*
X-55856Y163870D01*
Y163974D01*
X-55855Y163978D01*
X-55853Y163981D01*
X-55794Y164067D01*
X-55794Y164067D01*
X-55794Y164067D01*
X-55793Y164070D01*
X-55790Y164076D01*
X-55790Y164076D01*
X-55790Y164076D01*
X-55784Y164085D01*
X-55784Y164085D01*
X-55783Y164086D01*
X-55756Y164148D01*
X-55728Y164189D01*
X-55712Y164226D01*
X-55679Y164274D01*
X-55675Y164283D01*
X-55669Y164292D01*
X-55642Y164354D01*
X-55642Y164354D01*
X-55610Y164414D01*
X-55590Y164480D01*
X-55566Y164525D01*
X-55552Y164572D01*
X-55520Y164632D01*
X-55420Y164961D01*
X-55304Y165284D01*
X-55295Y165351D01*
X-55278Y165398D01*
X-55270Y165448D01*
X-55247Y165513D01*
X-55237Y165580D01*
Y165580D01*
X-55222Y165646D01*
X-55219Y165715D01*
X-55208Y165764D01*
X-55206Y165814D01*
X-55191Y165880D01*
X-55180Y166223D01*
X-55151Y166566D01*
X-55164Y166674D01*
X-55153Y166782D01*
X-55224Y167500D01*
X-55134Y168409D01*
X-55142Y168488D01*
X-55129Y168566D01*
X-55141Y168906D01*
X-55141Y169258D01*
X-55152Y169315D01*
X-55152Y169375D01*
X-55164Y169434D01*
X-55164Y169493D01*
X-55175Y169550D01*
X-55181Y169608D01*
X-55198Y169665D01*
X-55204Y169725D01*
X-55221Y169782D01*
X-55227Y169840D01*
X-55329Y170177D01*
Y170177D01*
X-55445Y170612D01*
X-55481Y170683D01*
X-55496Y170761D01*
X-55534Y170852D01*
X-55544Y170868D01*
X-55548Y170886D01*
X-55697Y171246D01*
X-55702Y171253D01*
X-55703Y171261D01*
X-55725Y171313D01*
X-55739Y171334D01*
X-55739Y171337D01*
X-55747Y171365D01*
X-55753Y171381D01*
X-55775Y171461D01*
Y171461D01*
X-55794Y171610D01*
X-55796Y171620D01*
X-55796Y171621D01*
X-55796Y171621D01*
Y176204D01*
X-55796Y176204D01*
X-55796Y176205D01*
Y176430D01*
X-55811Y176508D01*
X-55806Y176587D01*
X-55827Y176743D01*
X-55824Y176758D01*
Y176758D01*
X-55839Y176832D01*
X-55838Y176838D01*
X-55839Y176843D01*
X-55838Y176850D01*
X-55838Y176851D01*
X-55843Y176866D01*
X-55847Y176883D01*
X-55847Y176992D01*
X-55861Y177061D01*
X-55884Y177119D01*
X-55888Y177144D01*
X-55908Y177179D01*
X-55915Y177218D01*
X-55917Y177222D01*
X-55933Y177298D01*
X-55955Y177349D01*
X-55976Y177455D01*
X-55978Y177461D01*
X-55979Y177466D01*
X-56000Y177570D01*
Y181784D01*
X-56000Y181786D01*
Y181890D01*
X-56000Y181890D01*
X-56000Y181890D01*
X-56000Y181890D01*
X-55990Y181918D01*
X-55984Y181962D01*
X-55970Y181989D01*
X-55970Y181989D01*
X-55964Y182058D01*
X-55939Y182131D01*
X-55937Y182144D01*
X-55937Y182157D01*
X-55934Y182167D01*
X-55935Y182182D01*
X-55931Y182197D01*
X-55931Y182197D01*
X-55931Y182198D01*
X-55930Y182200D01*
X-55929Y182214D01*
X-55928Y182216D01*
X-55928Y182217D01*
X-55929Y182218D01*
X-55928Y182221D01*
X-55928Y182223D01*
X-55920Y182320D01*
X-55920Y182321D01*
X-55888Y182434D01*
X-55886Y182455D01*
X-55887Y182456D01*
X-55886Y182457D01*
X-55882Y182512D01*
X-55877Y182536D01*
X-55875Y182627D01*
X-55875Y182628D01*
X-55875Y182656D01*
Y182656D01*
X-55864Y182688D01*
X-55848Y182806D01*
X-55854Y182886D01*
X-55838Y182964D01*
Y183084D01*
Y183084D01*
X-55832Y183132D01*
X-55834Y183157D01*
X-55829Y183179D01*
Y183210D01*
X-55825Y183241D01*
X-55827Y183263D01*
X-55822Y183289D01*
Y183336D01*
Y183336D01*
X-55806Y183454D01*
X-55811Y183534D01*
X-55796Y183612D01*
Y185262D01*
X-55791Y185287D01*
Y185363D01*
X-55787Y185373D01*
X-55778Y185379D01*
X-55703Y185390D01*
X-55703Y185390D01*
X-55703Y185390D01*
X-55679Y185399D01*
X-55650Y185404D01*
X-55649Y185404D01*
X-55024Y185500D01*
X-40579D01*
X-40569Y185494D01*
D02*
G37*
G36*
X231283Y-17606D02*
X231307D01*
X231528Y-17685D01*
X231922Y-18052D01*
X231933Y-18382D01*
Y-18382D01*
Y-18382D01*
X231933Y-18382D01*
D01*
X231933Y-18382D01*
Y-18402D01*
X231933Y-18711D01*
X231933Y-19110D01*
X231933Y-19110D01*
D01*
X231933Y-19130D01*
Y-19130D01*
Y-24878D01*
X231933D01*
X232119Y-25665D01*
X230225Y-27559D01*
X224185D01*
Y-28709D01*
X222980D01*
X221346Y-27075D01*
Y-24878D01*
X221807D01*
Y-24697D01*
X222730D01*
Y-21630D01*
Y-18563D01*
X222524D01*
X222374Y-18393D01*
X222729Y-17606D01*
X231223D01*
X231283D01*
D02*
G37*
G36*
X-35000Y215189D02*
X-35068Y215175D01*
X-35215Y215168D01*
X-35852Y215009D01*
X-35904Y215005D01*
X-36361Y215007D01*
X-36378Y215007D01*
D01*
X-36378D01*
D01*
X-36668Y215009D01*
X-43653Y215047D01*
X-43691Y215055D01*
X-43771Y215055D01*
X-43847Y215076D01*
X-43886Y215079D01*
X-43944Y215095D01*
D01*
X-44195Y215187D01*
X-44195Y215187D01*
X-44195Y215187D01*
X-44210Y215195D01*
X-44229Y215201D01*
X-44280Y215232D01*
X-44307Y215242D01*
X-44319Y215244D01*
X-44337Y215254D01*
X-44340Y215254D01*
X-44347Y215255D01*
X-44354Y215259D01*
X-44429Y215287D01*
X-44429D01*
X-44429Y215287D01*
X-44465Y215300D01*
X-44465Y215300D01*
X-44666Y215417D01*
X-44666Y215417D01*
X-44700Y215441D01*
X-44941Y215626D01*
X-45103Y215705D01*
X-45257Y215800D01*
X-45695Y215962D01*
X-45695Y215962D01*
X-46127Y216141D01*
X-46305Y216176D01*
X-46477Y216227D01*
X-46943Y216270D01*
X-46943D01*
D01*
X-47266Y216313D01*
X-47345Y216308D01*
X-47423Y216323D01*
X-55877D01*
Y223584D01*
X-55857Y223681D01*
Y223856D01*
Y226468D01*
X-55848Y226517D01*
Y226585D01*
X-55829Y226650D01*
X-55824Y226711D01*
X-55785Y226795D01*
X-55705Y226929D01*
X-55678Y227003D01*
X-55633Y227069D01*
X-55556Y227244D01*
X-55539Y227322D01*
X-55503Y227392D01*
X-55357Y227899D01*
Y227899D01*
X-55215Y228366D01*
X-55199Y228531D01*
X-55164Y228693D01*
X-55155Y229163D01*
Y229163D01*
D01*
X-55142Y229560D01*
X-55155Y229639D01*
X-55147Y229718D01*
X-55224Y230500D01*
X-55134Y231409D01*
X-55142Y231488D01*
X-55129Y231566D01*
X-55141Y231906D01*
X-55140Y232377D01*
X-55175Y232550D01*
X-55192Y232727D01*
X-55329Y233177D01*
Y233177D01*
X-55445Y233612D01*
X-55481Y233683D01*
X-55496Y233761D01*
X-55534Y233852D01*
X-55544Y233868D01*
X-55548Y233886D01*
X-55725Y234313D01*
X-55739Y234334D01*
X-55739Y234337D01*
X-55747Y234365D01*
X-55753Y234381D01*
X-55775Y234461D01*
D01*
Y234461D01*
X-55794Y234610D01*
D01*
X-55796Y234620D01*
X-55796Y234621D01*
X-55796Y234621D01*
Y235191D01*
Y235438D01*
X-55811Y235516D01*
X-55806Y235595D01*
X-55843Y235877D01*
X-55843Y235877D01*
X-55843Y235877D01*
Y236024D01*
X-55874Y236178D01*
X-55884Y236336D01*
X-55922Y236478D01*
X-55922Y236478D01*
Y236478D01*
X-55962Y236780D01*
X-55998Y236885D01*
X-55998Y236887D01*
X-55999Y236892D01*
X-56000Y236896D01*
Y248500D01*
X-35000D01*
Y215189D01*
D02*
G37*
G36*
X-57572Y236874D02*
X-57156Y236622D01*
X-57116Y236321D01*
X-57091Y236246D01*
X-57086Y236167D01*
X-57078Y236139D01*
X-57076Y236100D01*
X-57055Y236023D01*
Y235944D01*
X-57047Y235905D01*
Y235877D01*
X-57039Y235834D01*
X-57044Y235791D01*
X-57035Y235756D01*
X-57037Y235719D01*
X-57000Y235438D01*
Y235191D01*
Y234621D01*
X-56998Y234612D01*
X-56999Y234610D01*
X-56985Y234540D01*
X-56990Y234464D01*
X-56988Y234454D01*
X-56988Y234454D01*
X-56988Y234453D01*
X-56969Y234303D01*
X-56943Y234228D01*
X-56938Y234149D01*
X-56916Y234069D01*
X-56907Y234049D01*
X-56906Y234040D01*
X-56898Y234013D01*
X-56872Y233960D01*
X-56861Y233907D01*
X-56854Y233892D01*
X-56841Y233874D01*
X-56837Y233852D01*
X-56816Y233800D01*
X-56813Y233789D01*
X-56810Y233785D01*
X-56660Y233425D01*
X-56650Y233410D01*
X-56646Y233391D01*
X-56609Y233300D01*
Y233300D01*
X-56492Y232865D01*
X-56483Y232847D01*
X-56481Y232827D01*
X-56379Y232490D01*
X-56373Y232432D01*
X-56356Y232375D01*
X-56356Y232315D01*
X-56345Y232258D01*
X-56345Y231906D01*
X-56341Y231886D01*
X-56344Y231867D01*
X-56333Y231527D01*
X-56434Y230500D01*
X-56367Y229815D01*
X-56345Y229600D01*
X-56358Y229202D01*
X-56357Y229194D01*
X-56359Y229185D01*
X-56365Y228834D01*
X-56375Y228787D01*
X-56377Y228717D01*
X-56397Y228649D01*
X-56402Y228602D01*
X-56509Y228248D01*
X-56510Y228240D01*
X-56514Y228232D01*
X-56660Y227725D01*
Y227725D01*
X-56736Y227550D01*
Y227550D01*
X-56817Y227416D01*
X-56840Y227351D01*
X-56881Y227295D01*
X-56919Y227211D01*
X-56957Y227051D01*
X-56960Y227046D01*
X-56964Y227026D01*
X-56986Y226984D01*
X-57005Y226919D01*
X-57010Y226861D01*
X-57024Y226812D01*
X-57029Y226752D01*
X-57029Y226752D01*
X-57029Y226752D01*
X-57039Y226703D01*
Y226652D01*
X-57052Y226585D01*
Y226517D01*
X-57062Y226468D01*
Y223856D01*
Y223681D01*
X-57081D01*
Y223584D01*
Y216323D01*
Y215119D01*
X-47423D01*
X-47100Y215076D01*
X-47076Y215078D01*
X-47054Y215071D01*
X-46706Y215039D01*
X-46647Y215021D01*
X-46591Y215016D01*
X-46539Y214995D01*
X-46479Y214983D01*
X-46156Y214849D01*
X-46133Y214845D01*
X-46113Y214832D01*
X-45786Y214711D01*
X-45733Y214679D01*
X-45680Y214660D01*
X-45636Y214625D01*
X-45580Y214598D01*
X-45433Y214485D01*
X-45412Y214475D01*
X-45396Y214458D01*
X-45362Y214434D01*
X-45311Y214411D01*
X-45269Y214374D01*
X-45068Y214258D01*
X-44992Y214232D01*
X-44926Y214188D01*
X-44903Y214183D01*
X-44903Y214183D01*
X-44890Y214174D01*
X-44888Y214174D01*
X-44883Y214171D01*
X-44846Y214158D01*
X-44846Y214158D01*
X-44846Y214157D01*
X-44771Y214130D01*
X-44756Y214122D01*
X-44724Y214112D01*
X-44697Y214102D01*
X-44683Y214100D01*
X-44680Y214099D01*
X-44612Y214058D01*
X-44362Y213965D01*
X-44310Y213957D01*
X-44262Y213933D01*
X-44204Y213917D01*
X-44165Y213914D01*
X-44165Y213914D01*
X-44089Y213894D01*
X-44009Y213888D01*
X-43971Y213878D01*
X-43933Y213875D01*
X-43894Y213867D01*
X-43855Y213867D01*
X-43777Y213851D01*
X-43698Y213850D01*
X-43660Y213843D01*
X-36674Y213805D01*
X-36674D01*
X-36674D01*
X-36385Y213803D01*
X-36385Y213803D01*
X-36385Y213803D01*
X-36368Y213803D01*
X-36368D01*
X-35910Y213801D01*
X-35860Y213810D01*
X-35808Y213804D01*
X-35756Y213809D01*
X-35660Y213836D01*
X-35559Y213841D01*
X-35038Y213971D01*
X-35009Y213973D01*
X-34922Y213994D01*
X-34833Y213994D01*
X-34804Y214000D01*
X-10000D01*
Y210000D01*
X-10000Y208251D01*
X-15000D01*
X-15000Y208251D01*
X-15513Y207735D01*
X-18499Y206499D01*
X-19422Y204270D01*
X-19948Y203700D01*
Y203350D01*
Y203000D01*
X-19422Y202430D01*
X-18499Y200201D01*
X-17223Y199673D01*
X-17377Y198901D01*
X-32364D01*
X-32948Y199688D01*
X-32780Y200242D01*
X-32666Y201400D01*
X-32780Y202558D01*
X-33118Y203671D01*
X-33666Y204697D01*
X-34404Y205596D01*
X-35303Y206334D01*
X-36329Y206882D01*
X-37442Y207220D01*
X-38600Y207334D01*
X-39758Y207220D01*
X-40871Y206882D01*
X-41897Y206334D01*
X-42796Y205596D01*
X-43534Y204697D01*
X-43582Y204608D01*
X-44369Y204805D01*
Y205681D01*
X-57031D01*
Y198901D01*
X-71442D01*
X-74132Y201590D01*
X-73319Y199628D01*
X-73812Y198760D01*
X-76938Y197465D01*
X-78232Y194340D01*
X-79100Y193847D01*
X-81063Y194660D01*
X-78477Y192075D01*
X-77921Y191518D01*
X-77921D01*
X-77708Y191305D01*
X-76976Y190573D01*
X-76938Y190535D01*
X-77238Y191260D01*
X-77238Y191260D01*
X-77238Y191260D01*
X-77057Y191487D01*
X-76932Y191643D01*
X-76278Y191964D01*
X-70124D01*
X-69686Y191309D01*
X-70007Y190535D01*
X-73472Y189099D01*
X-10000D01*
Y187000D01*
X-35000D01*
X-38139Y185126D01*
X-38231Y185111D01*
X-38431Y185135D01*
X-39089Y185411D01*
X-39125Y185454D01*
X-39146Y185506D01*
X-39180Y185557D01*
X-39302Y185851D01*
X-39368Y185950D01*
X-39413Y186059D01*
X-39473Y186148D01*
X-39473Y186148D01*
X-39473Y186148D01*
X-39557Y186232D01*
X-39563Y186242D01*
X-39573Y186249D01*
X-39694Y186370D01*
X-39805Y186480D01*
X-39805Y186480D01*
X-39805Y186480D01*
X-40024Y186571D01*
X-40108Y186606D01*
X-40118Y186613D01*
X-40130Y186615D01*
X-40239Y186660D01*
X-40239D01*
X-40239Y186660D01*
X-40344Y186681D01*
X-40462Y186681D01*
X-40579Y186704D01*
X-55024D01*
X-55115Y186686D01*
X-55208Y186690D01*
X-55862Y186589D01*
X-55887Y186580D01*
X-55975Y186567D01*
X-56062Y186535D01*
X-56091Y186530D01*
X-56115Y186522D01*
X-56128Y186514D01*
X-56252Y186489D01*
X-56329Y186438D01*
X-56416Y186406D01*
X-56522Y186308D01*
X-56642Y186228D01*
X-56694Y186151D01*
X-56762Y186088D01*
X-56823Y185957D01*
X-56903Y185837D01*
X-56921Y185747D01*
X-56961Y185662D01*
X-56966Y185536D01*
X-56972Y185522D01*
X-56977Y185497D01*
Y185468D01*
X-56995Y185377D01*
Y185287D01*
X-57000Y185262D01*
Y183612D01*
X-57016Y183493D01*
X-57011Y183422D01*
X-57019Y183398D01*
X-57023Y183368D01*
X-57022Y183354D01*
X-57026Y183336D01*
Y183336D01*
Y183289D01*
X-57032Y183241D01*
X-57031Y183223D01*
X-57034Y183210D01*
Y183179D01*
X-57029Y183154D01*
X-57042Y183084D01*
Y183084D01*
Y182964D01*
X-57058Y182845D01*
X-57054Y182789D01*
X-57079Y182674D01*
X-57079Y182646D01*
X-57079Y182645D01*
X-57087Y182550D01*
X-57087Y182550D01*
X-57089Y182529D01*
X-57089Y182526D01*
X-57096Y182501D01*
Y182501D01*
X-57120Y182417D01*
X-57128Y182320D01*
X-57128Y182320D01*
X-57128Y182319D01*
X-57130Y182305D01*
Y182305D01*
X-57130Y182305D01*
X-57140Y182276D01*
X-57141Y182268D01*
X-57170Y182184D01*
X-57184Y182075D01*
X-57180Y182022D01*
X-57181Y182021D01*
X-57181Y182019D01*
Y182004D01*
X-57204Y181890D01*
Y181786D01*
X-57204Y181784D01*
Y180000D01*
X-125739Y180000D01*
X-126296Y180557D01*
Y183163D01*
Y193053D01*
Y197119D01*
X-114369D01*
Y199794D01*
X-107784D01*
X-107582Y199129D01*
X-107034Y198103D01*
X-106296Y197204D01*
X-105397Y196466D01*
X-104371Y195918D01*
X-103258Y195580D01*
X-102100Y195466D01*
X-100942Y195580D01*
X-99829Y195918D01*
X-98803Y196466D01*
X-97904Y197204D01*
X-97166Y198103D01*
X-96618Y199129D01*
X-96280Y200242D01*
X-96166Y201400D01*
X-96280Y202558D01*
X-96618Y203671D01*
X-97166Y204697D01*
X-97904Y205596D01*
X-98803Y206334D01*
X-99829Y206882D01*
X-100942Y207220D01*
X-102100Y207334D01*
X-103258Y207220D01*
X-104371Y206882D01*
X-105397Y206334D01*
X-106296Y205596D01*
X-107034Y204697D01*
X-107582Y203671D01*
X-107784Y203006D01*
X-114369D01*
Y205681D01*
X-126296D01*
Y209748D01*
Y214974D01*
Y223827D01*
Y236349D01*
Y237000D01*
X-57903Y237000D01*
X-57572Y236874D01*
D02*
G37*
%LPC*%
G36*
X225366Y-18563D02*
X224230D01*
Y-20880D01*
X225366D01*
Y-18563D01*
D02*
G37*
G36*
X-38100Y145834D02*
X-39258Y145720D01*
X-40371Y145382D01*
X-41397Y144834D01*
X-42296Y144096D01*
X-43034Y143197D01*
X-43582Y142171D01*
X-44369Y142291D01*
Y144181D01*
X-57031D01*
Y135619D01*
X-44369D01*
Y137509D01*
X-43582Y137629D01*
X-43034Y136603D01*
X-42296Y135704D01*
X-41397Y134966D01*
X-40371Y134418D01*
X-39258Y134080D01*
X-38100Y133966D01*
X-36942Y134080D01*
X-35829Y134418D01*
X-34803Y134966D01*
X-33904Y135704D01*
X-33166Y136603D01*
X-32618Y137629D01*
X-32280Y138742D01*
X-32166Y139900D01*
X-32280Y141058D01*
X-32618Y142171D01*
X-33166Y143197D01*
X-33904Y144096D01*
X-34803Y144834D01*
X-35829Y145382D01*
X-36942Y145720D01*
X-38100Y145834D01*
D02*
G37*
G36*
X-76300Y212948D02*
X-76650D01*
X-77000D01*
X-77570Y212422D01*
X-79799Y211499D01*
X-81248Y208000D01*
X-79799Y204501D01*
X-77570Y203578D01*
X-77000Y203052D01*
X-76650D01*
X-76300D01*
X-75730Y203578D01*
X-73501Y204501D01*
X-72052Y208000D01*
X-73501Y211499D01*
X-75730Y212422D01*
X-76300Y212948D01*
D02*
G37*
G36*
X225366Y-22380D02*
X224230D01*
Y-24697D01*
X225366D01*
Y-22380D01*
D02*
G37*
%LPD*%
D10*
X-69647Y66000D02*
D03*
X-62353D02*
D03*
X-38000Y63000D02*
D03*
X-30706D02*
D03*
X-14647D02*
D03*
X-7353D02*
D03*
X-62353Y74000D02*
D03*
X-69647D02*
D03*
X-30706Y72000D02*
D03*
X-38000D02*
D03*
X-7353D02*
D03*
X-14647D02*
D03*
X-76353Y-181000D02*
D03*
X-83647D02*
D03*
X-76353Y-170000D02*
D03*
X-83647D02*
D03*
X-76353Y-160000D02*
D03*
X-83647D02*
D03*
D11*
X124339Y252200D02*
D03*
X135757D02*
D03*
Y274000D02*
D03*
X124339D02*
D03*
D12*
X98000Y171757D02*
D03*
Y160339D02*
D03*
X207083Y144757D02*
D03*
Y133339D02*
D03*
X228000Y233243D02*
D03*
Y244661D02*
D03*
X81000Y160243D02*
D03*
Y171661D02*
D03*
X190917Y133243D02*
D03*
Y144661D02*
D03*
X212000Y244757D02*
D03*
Y233339D02*
D03*
D13*
X-41000Y175350D02*
D03*
Y174650D02*
D03*
X-15000Y203350D02*
D03*
Y202650D02*
D03*
X146000Y168350D02*
D03*
Y167650D02*
D03*
X-139370Y250425D02*
D03*
Y267662D02*
D03*
Y268362D02*
D03*
D14*
X54650Y264000D02*
D03*
X55350D02*
D03*
X-77350Y208000D02*
D03*
X-76650D02*
D03*
X240150Y191000D02*
D03*
X240850D02*
D03*
X-76650Y147000D02*
D03*
X-77350D02*
D03*
X-162000Y278000D02*
D03*
X133369Y140600D02*
D03*
X111800Y140000D02*
D03*
X112500D02*
D03*
D15*
X-214740Y99315D02*
D03*
X-207260D02*
D03*
Y88685D02*
D03*
X-211000D02*
D03*
X-214740D02*
D03*
X-196740Y99315D02*
D03*
X-189260D02*
D03*
Y88685D02*
D03*
X-193000D02*
D03*
X-196740D02*
D03*
X234000Y-11000D02*
D03*
X241480D02*
D03*
Y-21630D02*
D03*
X237740D02*
D03*
X234000D02*
D03*
X216000Y-11000D02*
D03*
X223480D02*
D03*
Y-21630D02*
D03*
X219740D02*
D03*
X216000D02*
D03*
X-205740Y71315D02*
D03*
X-198260D02*
D03*
Y60685D02*
D03*
X-202000D02*
D03*
X-205740D02*
D03*
X225000Y-39000D02*
D03*
X232480D02*
D03*
Y-49630D02*
D03*
X228740D02*
D03*
X225000D02*
D03*
D16*
X-203900Y142900D02*
D03*
Y147900D02*
D03*
Y152900D02*
D03*
Y157900D02*
D03*
X-234900Y142900D02*
D03*
Y147900D02*
D03*
Y152900D02*
D03*
Y157900D02*
D03*
X-205654Y180600D02*
D03*
Y185600D02*
D03*
Y190600D02*
D03*
Y195600D02*
D03*
X-236653Y180600D02*
D03*
Y185600D02*
D03*
Y190600D02*
D03*
Y195600D02*
D03*
D17*
X290000Y-290000D02*
D03*
X-280000Y250000D02*
D03*
D18*
X-194704Y180600D02*
D03*
X-188910D02*
D03*
X229100Y29000D02*
D03*
X234900D02*
D03*
X-194704Y196100D02*
D03*
X-188910D02*
D03*
X80897Y-70000D02*
D03*
X75103D02*
D03*
X80897Y-80000D02*
D03*
X75103D02*
D03*
X80897Y-40000D02*
D03*
X75103D02*
D03*
Y-60000D02*
D03*
X80897D02*
D03*
X-41103Y-130000D02*
D03*
X-46897D02*
D03*
X-41103Y-140000D02*
D03*
X-46897D02*
D03*
X4100Y-150000D02*
D03*
X9900D02*
D03*
X-192950Y157900D02*
D03*
X-187157D02*
D03*
X-192950Y142900D02*
D03*
X-187157D02*
D03*
X173000Y27000D02*
D03*
X178800D02*
D03*
X75897Y-187800D02*
D03*
X70103D02*
D03*
Y-177800D02*
D03*
X75897D02*
D03*
Y-210000D02*
D03*
X70103D02*
D03*
Y-200000D02*
D03*
X75897D02*
D03*
Y-165000D02*
D03*
X70103D02*
D03*
Y-156000D02*
D03*
X75897D02*
D03*
Y-121000D02*
D03*
X70103D02*
D03*
Y-111000D02*
D03*
X75897D02*
D03*
Y-143000D02*
D03*
X70103D02*
D03*
Y-134000D02*
D03*
X75897D02*
D03*
D19*
X-249153Y187000D02*
D03*
Y181200D02*
D03*
X237035Y81450D02*
D03*
Y87243D02*
D03*
X221535Y81450D02*
D03*
Y87243D02*
D03*
X-45000Y-213100D02*
D03*
Y-218900D02*
D03*
X17000Y-38100D02*
D03*
Y-43900D02*
D03*
X-46000Y-10100D02*
D03*
Y-15900D02*
D03*
X-247400Y149300D02*
D03*
Y143500D02*
D03*
X163900Y81450D02*
D03*
Y87243D02*
D03*
X179400Y81450D02*
D03*
Y87243D02*
D03*
D20*
X-259000Y196465D02*
D03*
Y179535D02*
D03*
X-257000Y158465D02*
D03*
Y141535D02*
D03*
D21*
X221071Y17000D02*
D03*
X238000D02*
D03*
X38635Y247200D02*
D03*
X55565D02*
D03*
X38635Y262300D02*
D03*
X55565D02*
D03*
X82035Y247200D02*
D03*
X98965D02*
D03*
X82035Y262300D02*
D03*
X98965D02*
D03*
X163435Y17000D02*
D03*
X180365D02*
D03*
D22*
X-202225Y80000D02*
D03*
X228516Y-30315D02*
D03*
D23*
X237035Y70500D02*
D03*
X232035D02*
D03*
X227035D02*
D03*
X222035D02*
D03*
X237035Y39500D02*
D03*
X232035D02*
D03*
X227035D02*
D03*
X222035D02*
D03*
X179400Y70500D02*
D03*
X174400D02*
D03*
X169400D02*
D03*
X164400D02*
D03*
X179400Y39500D02*
D03*
X174400D02*
D03*
X169400D02*
D03*
X164400D02*
D03*
D24*
X-252654Y42000D02*
D03*
X-259347D02*
D03*
X-217454Y204300D02*
D03*
X-224147D02*
D03*
X-216154Y166100D02*
D03*
X-222847D02*
D03*
D25*
X-248193Y-1000D02*
D03*
X-259807D02*
D03*
D26*
X-265200Y32500D02*
D03*
Y23500D02*
D03*
Y14500D02*
D03*
D27*
X-241000Y23500D02*
D03*
D28*
X130850Y140000D02*
D03*
X112150D02*
D03*
D29*
X-139370Y249311D02*
D03*
Y268012D02*
D03*
D30*
X65705Y102500D02*
D03*
Y97500D02*
D03*
Y92500D02*
D03*
Y87500D02*
D03*
X46295Y97500D02*
D03*
Y92500D02*
D03*
Y87500D02*
D03*
D31*
Y102500D02*
D03*
D32*
X58854Y198500D02*
D03*
X78146D02*
D03*
X58854Y225500D02*
D03*
X78146D02*
D03*
X189354Y187800D02*
D03*
X208646D02*
D03*
X189354Y164300D02*
D03*
X208646D02*
D03*
D33*
X-120700Y139900D02*
D03*
Y201400D02*
D03*
X-50700Y139900D02*
D03*
Y201400D02*
D03*
D34*
X-148000Y148900D02*
D03*
Y210400D02*
D03*
X-78000Y148900D02*
D03*
Y210400D02*
D03*
D35*
X-120700Y157900D02*
D03*
Y219400D02*
D03*
X-50700Y157900D02*
D03*
Y219400D02*
D03*
D36*
X-101000Y169354D02*
D03*
Y188646D02*
D03*
D37*
X164500Y167300D02*
D03*
X249500D02*
D03*
X164500Y218300D02*
D03*
X249500D02*
D03*
D38*
X155500Y140000D02*
D03*
X240500D02*
D03*
X155500Y191000D02*
D03*
X240500D02*
D03*
D39*
X146500Y167300D02*
D03*
X231500D02*
D03*
X146500Y218300D02*
D03*
X231500D02*
D03*
D40*
X130504Y-47500D02*
D03*
Y-52500D02*
D03*
Y-62500D02*
D03*
Y-57500D02*
D03*
Y-67500D02*
D03*
Y-72500D02*
D03*
D41*
X193506Y-60000D02*
D03*
D42*
X-57000Y-130000D02*
D03*
Y-140000D02*
D03*
X-58000Y-32000D02*
D03*
D43*
X-46000Y-32350D02*
D03*
Y-39650D02*
D03*
D44*
X-159700Y278000D02*
D03*
D45*
X-66250Y-180000D02*
D03*
Y-170000D02*
D03*
D46*
X-53750Y-180000D02*
D03*
Y-170000D02*
D03*
D47*
X-66890Y-160000D02*
D03*
D48*
X-53110D02*
D03*
D49*
X155900Y58346D02*
D03*
Y51653D02*
D03*
X213535Y58346D02*
D03*
Y51654D02*
D03*
D50*
X-139370Y248425D02*
D03*
X131369Y140600D02*
D03*
D51*
X168000Y-99000D02*
Y-57000D01*
Y-249000D02*
Y-99000D01*
X94000D02*
X168000D01*
X82000Y-111000D02*
X94000Y-99000D01*
X75897Y-111000D02*
X82000D01*
X66000Y-171000D02*
Y-148000D01*
Y-187000D02*
Y-171000D01*
X69175Y-174175D01*
X72255D01*
X73178Y-175098D01*
Y-177800D02*
Y-175098D01*
Y-177800D02*
X75897D01*
X66000Y-148000D02*
Y-126000D01*
Y-148000D02*
X70375Y-152375D01*
X72255D01*
X73178Y-153298D01*
Y-155178D02*
Y-153298D01*
Y-155178D02*
X74000Y-156000D01*
X75897D01*
X66000Y-126000D02*
Y-106000D01*
Y-126000D02*
X67897D01*
X75897Y-134000D01*
Y-143000D02*
X85000D01*
X75897Y-111000D02*
Y-107897D01*
X74000Y-106000D02*
X75897Y-107897D01*
X66000Y-106000D02*
X74000D01*
X60000Y-71000D02*
X74103D01*
X60000Y-60000D02*
X75103D01*
X52000Y-144092D02*
Y-47000D01*
Y-144092D02*
X53299Y-145391D01*
X52000Y-47000D02*
X54000Y-45000D01*
X66000Y-187000D02*
X67028Y-188028D01*
Y-190502D02*
Y-188028D01*
Y-190502D02*
X67951Y-191425D01*
X70425D01*
X75897Y-196897D01*
Y-200000D02*
Y-196897D01*
X-171000Y269000D02*
X-162000Y278000D01*
X-171000Y260000D02*
Y269000D01*
X-45000Y-213100D02*
Y-206000D01*
X-41000Y175350D02*
X-26000D01*
X-18350Y183000D01*
X114000Y-155500D02*
X162094Y-203594D01*
X134815Y-273095D02*
X162094Y-245815D01*
Y-203594D01*
X72338Y-273095D02*
X134815D01*
X114000Y-110900D02*
X166032Y-162932D01*
X136446Y-277031D02*
X166032Y-247446D01*
Y-162932D01*
X73968Y-277031D02*
X136446D01*
X114000Y-133200D02*
X164063Y-183263D01*
X135631Y-275063D02*
X164063Y-246631D01*
Y-183263D01*
X73153Y-275063D02*
X135631D01*
X-10000Y-265063D02*
X-7000Y-268063D01*
X-10000Y-265063D02*
Y-259000D01*
X-10000Y-280661D02*
Y-275000D01*
X-7000Y-272000D01*
X-13969Y-270031D02*
X5248D01*
X-14000Y-270000D02*
X-13969Y-270031D01*
X-15000Y-291000D02*
X-14878Y-291122D01*
X-222000Y-291000D02*
X-15000D01*
X-7000Y-268063D02*
X6063D01*
X-7000Y-272000D02*
X4432D01*
X21585Y-289153D01*
X125878Y-291122D02*
X168000Y-249000D01*
X21585Y-289153D02*
X61847D01*
X-14878Y-291122D02*
X125878D01*
X5248Y-270031D02*
X22401Y-287185D01*
X61032D01*
X6063Y-268063D02*
X23216Y-285216D01*
X60216D01*
X72338Y-273095D01*
X61032Y-287185D02*
X73153Y-275063D01*
X61847Y-289153D02*
X73968Y-277031D01*
X60252Y-271126D02*
X134000D01*
X60252Y-269000D02*
X133342D01*
X114000Y-200100D02*
X157000Y-243100D01*
X133342Y-269000D02*
X157000Y-245342D01*
Y-243100D01*
X114000Y-177800D02*
X160126Y-223926D01*
X134000Y-271126D02*
X160126Y-245000D01*
Y-223926D01*
X56000Y-264748D02*
X60252Y-269000D01*
X56000Y-275378D02*
X60252Y-271126D01*
X18000Y-188000D02*
X25000Y-195000D01*
X37000D01*
X55625Y-213625D01*
X75897D01*
Y-210000D01*
X17000Y-165000D02*
X48000D01*
X9000Y-173000D02*
X17000Y-165000D01*
X9000Y-176000D02*
Y-173000D01*
X48000Y-165000D02*
X53299Y-159701D01*
X-6000Y-176000D02*
X9000D01*
Y-187000D02*
Y-176000D01*
X6000Y-190000D02*
X9000Y-187000D01*
X70103Y-121000D02*
Y-111000D01*
Y-143000D02*
Y-134000D01*
Y-165000D02*
Y-156000D01*
Y-187800D02*
Y-177800D01*
Y-210000D02*
Y-200000D01*
X75897Y-210000D02*
X85000D01*
X75897Y-187800D02*
X85000D01*
X75897Y-165000D02*
X85000D01*
X75897Y-121000D02*
X85000D01*
X-211700Y204300D02*
X-209000Y207000D01*
Y222000D01*
X-171000Y260000D01*
X-75353Y-180000D02*
X-66250D01*
X-76353Y-170000D02*
X-66250D01*
X-76353Y-160000D02*
X-66890D01*
X-44000Y-170000D02*
X-42000Y-172000D01*
X-53750Y-170000D02*
X-44000D01*
X-50750Y-183000D02*
X-42000D01*
X-53750Y-180000D02*
X-50750Y-183000D01*
X-52110Y-161000D02*
X-42000D01*
X-53110Y-160000D02*
X-52110Y-161000D01*
X17000Y-53000D02*
Y-43900D01*
X9900Y-150000D02*
X18000D01*
X-45000Y-230000D02*
Y-218900D01*
X-46000Y-23000D02*
Y-15900D01*
Y-50000D02*
Y-39650D01*
X-41103Y-149897D02*
Y-140000D01*
Y-130000D02*
Y-117103D01*
X-57000Y-140000D02*
X-46897D01*
X-57000Y-130000D02*
X-46897D01*
X81000Y160243D02*
X97904D01*
X81000Y151000D02*
Y160243D01*
X135757Y252200D02*
Y274000D01*
Y236757D02*
Y252200D01*
X229000Y245661D02*
Y258000D01*
X228000Y244661D02*
X229000Y245661D01*
X212000Y244757D02*
X227904D01*
X191013Y133339D02*
X207083D01*
X190917Y123083D02*
Y133243D01*
X221043Y113043D02*
X240500Y132500D01*
X155500Y140000D02*
X182457Y113043D01*
X221043D01*
X114000Y252000D02*
X124139D01*
X115000Y274000D02*
X124339D01*
X77802Y140000D02*
X112500D01*
X58854Y158948D02*
Y198500D01*
Y158948D02*
X77802Y140000D01*
X100000Y173757D02*
Y186000D01*
X228000Y228815D02*
Y233243D01*
X226199Y228815D02*
X228000D01*
X223085Y225701D02*
X226199Y228815D01*
X223085Y223085D02*
Y225701D01*
X218000Y218000D02*
X223085Y223085D01*
X207326Y145000D02*
X220000D01*
X207083Y144757D02*
X207326Y145000D01*
X189354Y146224D02*
Y164300D01*
X130850Y140000D02*
X155500D01*
X240500Y132500D02*
Y140000D01*
X249000Y107000D02*
X267000Y125000D01*
X168000Y107000D02*
X249000D01*
X163900Y102900D02*
X168000Y107000D01*
X199000Y234000D02*
Y248260D01*
Y197446D02*
Y234000D01*
X199661Y233339D01*
X212000D01*
X199000Y248260D02*
X218740Y268000D01*
X199000Y197446D02*
X208646Y187800D01*
X231500Y220500D02*
X247000Y236000D01*
X231500Y218300D02*
Y220500D01*
X247000Y236000D02*
Y274000D01*
X251073Y232000D02*
X275000D01*
X240850Y221777D02*
X251073Y232000D01*
X240850Y191000D02*
Y221777D01*
X124139Y252000D02*
X124339Y252200D01*
X78146Y171661D02*
X81000D01*
X78146D02*
Y198500D01*
X-62653Y65700D02*
X-62353Y66000D01*
X-54000Y47000D02*
X-25791D01*
X-62653Y55654D02*
X-54000Y47000D01*
X-62653Y55654D02*
Y65700D01*
X-30706Y54700D02*
Y63000D01*
X-8000Y62000D02*
X-7654Y61654D01*
Y-73347D02*
Y61654D01*
Y-73347D02*
X17000Y-98000D01*
X-268000Y72000D02*
X-255000D01*
X-281000Y59000D02*
X-268000Y72000D01*
X-281000Y27000D02*
Y59000D01*
X-255000Y72000D02*
X-247936Y79064D01*
Y82978D02*
X-236914Y94000D01*
X-247936Y79064D02*
Y82978D01*
X-236914Y94000D02*
X-226000D01*
X183461Y-32539D02*
X213539D01*
X168000Y-48000D02*
X183461Y-32539D01*
X168000Y-57000D02*
Y-48000D01*
X130504Y-52500D02*
X163500D01*
X168000Y-57000D01*
X-256300Y-256700D02*
X-222000Y-291000D01*
X-256300Y-256700D02*
Y-4507D01*
X-259807Y-1000D02*
X-256300Y-4507D01*
X-281000Y27000D02*
X-268500Y14500D01*
X-265200D01*
X-264000Y-1000D02*
X-259807D01*
X-265200Y200D02*
X-264000Y-1000D01*
X-265200Y200D02*
Y14500D01*
X-259347Y36654D02*
Y42000D01*
X-263500Y32500D02*
X-259347Y36654D01*
X-265200Y32500D02*
X-263500D01*
X-268000Y42000D02*
X-259347D01*
X-269000Y43000D02*
X-268000Y42000D01*
X-18969Y-87032D02*
X16000Y-122000D01*
X-18969Y-87032D02*
Y40178D01*
X39483Y-155517D02*
Y-142274D01*
X-25791Y47000D02*
X-18969Y40178D01*
X-17000Y-75000D02*
Y40993D01*
X-30706Y54700D02*
X-17000Y40993D01*
X-69647Y74000D02*
Y85353D01*
X-62353Y66000D02*
Y74000D01*
X-183000Y118000D02*
X-165000Y100000D01*
X-24000D01*
X-58000Y109000D02*
X-21000D01*
X-5000Y125000D01*
Y181000D01*
X-7000Y183000D02*
X-5000Y181000D01*
X-18350Y183000D02*
X-7000D01*
X-17000Y-75000D02*
X17000Y-109000D01*
X0Y124000D02*
Y190000D01*
X-4000Y194000D02*
X0Y190000D01*
X-73472Y194000D02*
X-4000D01*
X3000Y89647D02*
Y196000D01*
X-4350Y203350D02*
X3000Y196000D01*
X-15000Y203350D02*
X-4350D01*
X-14647Y72000D02*
X3000Y89647D01*
X-7353Y63000D02*
Y72000D01*
X-30706Y63000D02*
Y72000D01*
X-38000D02*
Y87000D01*
X-24000Y100000D02*
X0Y124000D01*
X-77597Y198125D02*
X-73472Y194000D01*
X-28000Y258000D02*
X8000Y222000D01*
Y109216D02*
Y222000D01*
X-35578Y268362D02*
X9968Y222815D01*
Y110031D02*
Y222815D01*
X-50700Y201400D02*
X-38600D01*
X-107000Y258000D02*
X-28000D01*
X-139370Y268362D02*
X-35578D01*
X51500Y102500D02*
X54000Y100000D01*
Y5000D02*
Y100000D01*
X46295Y102500D02*
X51500D01*
X45000Y-4000D02*
X54000Y5000D01*
X45000Y-136757D02*
Y-4000D01*
X39483Y-142274D02*
X45000Y-136757D01*
X59500Y97500D02*
X65705D01*
X57000Y95000D02*
X59500Y97500D01*
X47121Y-6121D02*
X57000Y3757D01*
Y95000D01*
X47121Y-138879D02*
Y-6121D01*
X45000Y-141000D02*
X47121Y-138879D01*
X53299Y-159701D02*
Y-145391D01*
X45000Y-146000D02*
X47000Y-148000D01*
X45000Y-146000D02*
Y-141000D01*
X31500Y92500D02*
X46295D01*
X27000Y88000D02*
X31500Y92500D01*
X16000Y104000D02*
X27000D01*
X9968Y110031D02*
X16000Y104000D01*
X8000Y109216D02*
X19716Y97500D01*
X46295D01*
X-114575Y250425D02*
X-107000Y258000D01*
X-139370Y250425D02*
X-114575D01*
X133000Y112000D02*
X133369Y112369D01*
Y140600D01*
X82500Y92500D02*
X90000Y100000D01*
X65705Y87500D02*
X96500D01*
X112000Y103000D01*
X65705Y92500D02*
X82500D01*
X121500Y42500D02*
Y97000D01*
Y42500D02*
X158000Y6000D01*
X112000Y127697D02*
X112500Y128197D01*
Y140000D01*
X112000Y103000D02*
Y127697D01*
X-205740Y53260D02*
Y60685D01*
X-212000Y47000D02*
X-205740Y53260D01*
X-212000Y26000D02*
Y47000D01*
X-202000Y49000D02*
Y60685D01*
Y49000D02*
X-200000Y47000D01*
X225000Y-53000D02*
Y-49630D01*
X224000Y-54000D02*
X225000Y-53000D01*
X214000Y-54000D02*
X224000D01*
X228740Y-58260D02*
Y-49630D01*
X222000Y-65000D02*
X228740Y-58260D01*
X53701Y-45299D02*
X54000Y-45000D01*
X213535Y59134D02*
X225134D01*
X154000Y60246D02*
X155900Y58346D01*
X154000Y60246D02*
Y68000D01*
X203000Y59000D02*
X203654Y58346D01*
X213535D01*
X251000Y52000D02*
Y67485D01*
X248000Y49000D02*
X251000Y52000D01*
X235535Y49000D02*
X248000D01*
X237035Y81450D02*
X251000Y67485D01*
X232035Y45500D02*
X235535Y49000D01*
X237035Y63500D02*
X242535Y58000D01*
X237035Y63500D02*
Y70500D01*
X246000Y-11000D02*
X256000Y-1000D01*
X241480Y-11000D02*
X246000D01*
X174400Y39500D02*
Y46492D01*
X179000Y70100D02*
X179400Y70500D01*
X179000Y60000D02*
Y70100D01*
X187000Y59092D02*
Y73850D01*
X174400Y46492D02*
X187000Y59092D01*
X194000Y4000D02*
Y38000D01*
Y4000D02*
X200000Y-2000D01*
X219000D01*
X223480Y-6480D01*
Y-11000D02*
Y-6480D01*
Y-21630D02*
X227110Y-18000D01*
X232450D01*
X232462Y-17988D01*
X240988D01*
X241480Y-18480D01*
Y-21630D02*
Y-18480D01*
Y-40630D02*
Y-21630D01*
X232480Y-49630D02*
X241480Y-40630D01*
X237740Y-39260D02*
Y-21630D01*
X231012Y-45988D02*
X237740Y-39260D01*
X230942Y-45988D02*
X231012D01*
X228740Y-48190D02*
X230942Y-45988D01*
X228740Y-49630D02*
Y-48190D01*
X225000Y-49630D02*
Y-45000D01*
X229000Y-41000D01*
Y-36000D01*
X228000Y-35000D02*
X229000Y-36000D01*
X221000Y-35000D02*
X228000D01*
X216000Y-30000D02*
X221000Y-35000D01*
X216000Y-30000D02*
Y-21630D01*
X220000Y-39000D02*
X225000D01*
X213539Y-32539D02*
X220000Y-39000D01*
X213539Y-32539D02*
Y-18911D01*
X216000Y-16450D01*
Y-14000D01*
X219740Y-27740D02*
Y-21630D01*
X234000Y-14000D02*
Y-11000D01*
X232000Y-16000D02*
X234000Y-14000D01*
X218000Y-16000D02*
X232000D01*
X216000Y-14000D02*
X218000Y-16000D01*
X216000Y-14000D02*
Y-11000D01*
X229100Y9900D02*
Y29000D01*
X-77350Y120650D02*
Y136625D01*
X-94000Y104000D02*
X-77350Y120650D01*
X-163000Y104000D02*
X-94000D01*
X87948Y-32948D02*
X89897Y-31000D01*
X80897Y-40000D02*
X85948Y-34948D01*
X83948Y-32948D02*
X87948D01*
X102000Y-78000D02*
X112500Y-67500D01*
X94000Y-86000D02*
X102000Y-78000D01*
X106000Y-82000D01*
X89000Y-90000D02*
X131000D01*
X80897Y-81897D02*
X89000Y-90000D01*
X131000D02*
X150000Y-71000D01*
X114500Y-57500D02*
X130504D01*
X108000Y-51000D02*
X114500Y-57500D01*
X106000Y-51000D02*
X108000D01*
X106500Y-62500D02*
X130504D01*
X60000Y-82000D02*
X73103D01*
X75103Y-80000D01*
X74103Y-71000D02*
X75103Y-70000D01*
X59000Y-31000D02*
X68000Y-40000D01*
X75103D01*
X130504Y-62500D02*
X146500D01*
X150000Y-66000D01*
Y-71000D02*
Y-66000D01*
X80897Y-81897D02*
Y-80000D01*
X112500Y-67500D02*
X130504D01*
X90000Y-86000D02*
X94000D01*
X83972Y-79972D02*
X90000Y-86000D01*
X83972Y-79972D02*
Y-77298D01*
X80897Y-74223D02*
X83972Y-77298D01*
X80897Y-74223D02*
Y-70000D01*
X115500Y-47500D02*
X130504D01*
X99000Y-31000D02*
X115500Y-47500D01*
X89897Y-31000D02*
X99000D01*
X80897Y-60000D02*
Y-40000D01*
X162000Y17000D02*
X163435D01*
X148000Y31000D02*
X162000Y17000D01*
X148000Y31000D02*
Y32000D01*
X204000Y17000D02*
X221071D01*
X-206100Y142900D02*
X-199100D01*
X-213000Y136000D02*
X-206100Y142900D01*
X-213000Y134000D02*
Y136000D01*
X-208150Y127701D02*
X-192950Y142900D01*
X-225175Y137175D02*
X-215701Y127701D01*
X-208150D01*
X-254701Y124701D02*
X-183701D01*
X-267000Y137000D02*
X-254701Y124701D01*
X-229900Y147900D02*
X-225175Y143175D01*
Y137175D02*
Y143175D01*
X-234900Y147900D02*
X-229900D01*
X-217454Y204300D02*
X-211700D01*
X-210900Y166100D02*
X-208000Y169000D01*
X-220000Y176000D02*
X-199304D01*
X-216154Y166100D02*
X-210900D01*
X-227300Y204300D02*
X-224147D01*
X-233000Y210000D02*
X-227300Y204300D01*
X-235000Y171000D02*
X-227747D01*
X-222847Y166100D01*
X-198869Y183869D02*
X-194737Y188000D01*
X-171000D01*
X-170000Y189000D01*
Y201000D01*
X-177000Y208000D02*
X-170000Y201000D01*
X-188910Y180600D02*
X-178100D01*
X-178600Y196100D02*
X-177500Y195000D01*
X-229600Y185600D02*
X-220000Y176000D01*
X-200600Y185600D02*
X-198869Y183869D01*
Y182132D02*
Y183869D01*
X-200400Y180600D02*
X-198869Y182132D01*
X-205654Y180600D02*
X-200400D01*
X-205654Y185600D02*
X-200600D01*
X-199304Y176000D02*
X-194704Y180600D01*
X-203900Y157900D02*
X-192950D01*
X-216154Y157153D02*
Y166100D01*
Y157153D02*
X-211900Y152900D01*
X-203900D01*
X-198000Y144000D02*
Y147000D01*
X-198900Y147900D02*
X-198000Y147000D01*
X-203900Y147900D02*
X-198900D01*
X-189260Y99315D02*
Y108740D01*
X-220685Y99315D02*
X-214740D01*
X-226000Y94000D02*
X-220685Y99315D01*
X-212315Y71315D02*
X-205740D01*
X-214740Y87260D02*
Y88685D01*
X-220000Y82000D02*
X-214740Y87260D01*
X-220000Y69000D02*
Y82000D01*
Y69000D02*
X-211685Y60685D01*
X-205740D01*
X-207260Y99315D02*
Y108260D01*
X-210000Y80000D02*
X-202225D01*
X-211000Y81000D02*
X-210000Y80000D01*
X-211000Y81000D02*
Y88685D01*
X-189260Y70740D02*
Y88685D01*
X-198260Y61740D02*
X-189260Y70740D01*
X-198260Y60685D02*
Y61740D01*
X-193000Y70000D02*
Y88685D01*
X-197000Y66000D02*
X-193000Y70000D01*
X-201000Y66000D02*
X-197000D01*
X-202000Y65000D02*
X-201000Y66000D01*
X-202000Y60685D02*
Y65000D01*
X-193135Y94000D02*
X-189260Y90125D01*
Y88685D02*
Y90125D01*
X-197000Y94000D02*
X-193135D01*
X-202315Y88685D02*
X-197000Y94000D01*
X-207260Y88685D02*
X-202315D01*
X-214740Y97740D02*
Y99315D01*
Y97740D02*
X-211000Y94000D01*
X-201000D01*
X-196740Y98260D01*
Y99315D01*
X219740Y-27740D02*
X222315Y-30315D01*
X228516D01*
X229100Y9900D02*
X232000Y7000D01*
X232480Y-39000D02*
Y-33055D01*
X229740Y-30315D02*
X232480Y-33055D01*
X234000Y-26055D02*
Y-21630D01*
X229740Y-30315D02*
X234000Y-26055D01*
X228516Y-30315D02*
X229740D01*
X-198260Y71315D02*
Y77260D01*
X-201000Y80000D02*
X-198260Y77260D01*
X-202225Y80000D02*
X-201000D01*
X-196740Y84260D02*
Y88685D01*
X-201000Y80000D02*
X-196740Y84260D01*
X-199100Y142900D02*
X-198000Y144000D01*
X164400Y70500D02*
Y80950D01*
X275000Y232000D02*
X287000Y220000D01*
Y48000D02*
Y220000D01*
X246000Y7000D02*
X287000Y48000D01*
X232000Y7000D02*
X246000D01*
X129000Y167000D02*
X129650Y167650D01*
X146000D01*
X158000Y6000D02*
X170000D01*
X172000Y8000D01*
Y21000D01*
X173000Y22000D01*
Y27000D01*
X179400Y81450D02*
X187000Y73850D01*
X178800Y18564D02*
Y27000D01*
X163435Y17000D02*
X164400Y17965D01*
Y39500D01*
X169400Y30600D02*
X173000Y27000D01*
X169400Y30600D02*
Y39500D01*
X178800Y27000D02*
X179400Y27600D01*
Y39500D01*
X164400D02*
Y47600D01*
X160346Y51653D02*
X164400Y47600D01*
X155900Y51653D02*
X160346D01*
X155900Y58346D02*
X163347D01*
X169400Y64400D01*
Y70500D01*
X174400Y76400D02*
X175208Y77208D01*
X174400Y70500D02*
Y76400D01*
X175208Y77208D02*
X178792D01*
X179400Y76600D01*
Y70500D02*
Y76600D01*
X221071Y17000D02*
X222035Y17965D01*
Y39500D01*
X234900Y20100D02*
Y29000D01*
X227035Y31065D02*
X229100Y29000D01*
X227035Y31065D02*
Y39500D01*
X234900Y29000D02*
X237035Y31135D01*
Y39500D01*
X232035D02*
Y45500D01*
X222035Y39500D02*
Y46965D01*
X217346Y51654D02*
X222035Y46965D01*
X213535Y51654D02*
X217346D01*
X225134Y59134D02*
X227035Y61035D01*
Y70500D01*
X232035Y75984D02*
X233052Y77000D01*
X232035Y70500D02*
Y75984D01*
X233052Y77000D02*
X236000D01*
X237035Y75965D01*
Y70500D02*
Y75965D01*
X222035Y70500D02*
Y80950D01*
X131300Y218300D02*
X146500D01*
X111500Y198500D02*
X131300Y218300D01*
X78146Y198500D02*
X111500D01*
X237000Y284000D02*
X247000Y274000D01*
X173000Y284000D02*
X237000D01*
X146500Y257500D02*
X173000Y284000D01*
X146500Y218300D02*
Y257500D01*
X164500Y218300D02*
Y235500D01*
X164000Y236000D02*
X164500Y235500D01*
X179400Y87243D02*
Y99600D01*
X249500Y167300D02*
X261700D01*
X267000Y162000D01*
Y125000D02*
Y162000D01*
X251243Y87243D02*
X278000Y114000D01*
X237035Y87243D02*
X251243D01*
X278000Y114000D02*
Y211000D01*
X163900Y87243D02*
Y102900D01*
X249500Y218300D02*
X270700D01*
X278000Y211000D01*
X221535Y87243D02*
Y99465D01*
X221000Y100000D02*
X221535Y99465D01*
X175000Y159000D02*
Y163000D01*
X170700Y167300D02*
X175000Y163000D01*
X164500Y167300D02*
X170700D01*
X98965Y233965D02*
Y247200D01*
X90500Y225500D02*
X98965Y233965D01*
X78146Y225500D02*
X90500D01*
X78146Y198500D02*
Y225500D01*
X98965Y247200D02*
Y262300D01*
X68500Y247200D02*
X82035D01*
X55565D02*
X68500D01*
X68700Y262300D02*
X82035D01*
X55565D02*
X68700D01*
X47500Y225500D02*
X58854D01*
X38635Y234365D02*
X47500Y225500D01*
X38635Y234365D02*
Y247200D01*
Y262300D01*
X58854Y198500D02*
Y225500D01*
X111800Y140000D02*
X112150D01*
X146500Y167300D02*
Y182000D01*
X164000Y187800D02*
X189354D01*
X231500Y182000D02*
X240500Y191000D01*
X231500Y167300D02*
Y182000D01*
X208646Y164300D02*
X211646Y167300D01*
X231500D01*
X208646Y164300D02*
Y187800D01*
X189354Y164300D02*
Y187800D01*
X181260Y268000D02*
X189354Y259906D01*
Y187800D02*
Y259906D01*
X-268000Y158000D02*
X-256536D01*
X-256435Y157900D01*
X-274299Y135299D02*
X-257000Y118000D01*
X-274299Y135299D02*
Y175701D01*
X-285000Y158000D02*
Y182000D01*
X-270535Y196465D01*
X-259000D01*
X-217454Y193454D02*
Y204300D01*
Y193454D02*
X-214600Y190600D01*
X-205654D01*
X-124700Y138300D02*
Y139900D01*
X-125775Y137225D02*
X-124700Y138300D01*
X-125775Y118775D02*
Y137225D01*
X-124700Y115700D02*
Y117700D01*
X-125775Y118775D02*
X-124700Y117700D01*
X286250Y-283750D02*
X293750Y-276250D01*
X286250D02*
X293750Y-283750D01*
X-283750Y236250D02*
X-276250Y243750D01*
X-283750D02*
X-276250Y236250D01*
X-120700Y201400D02*
X-102100D01*
X-177100Y157900D02*
X-176500Y158500D01*
X-187157Y157900D02*
X-177100D01*
X-188910Y196100D02*
X-178600D01*
X-187000Y131000D02*
Y142743D01*
X-187157Y142900D02*
X-187000Y142743D01*
X-222847Y160153D02*
Y166100D01*
X-225100Y157900D02*
X-222847Y160153D01*
X-234900Y157900D02*
X-225100D01*
X-243800Y152900D02*
X-234900D01*
X-247400Y149300D02*
X-243800Y152900D01*
X-246800Y142900D02*
X-234900D01*
X-247400Y143500D02*
X-246800Y142900D01*
X-255035Y143500D02*
X-247400D01*
X-256435Y157900D02*
X-234900D01*
X-261700Y149300D02*
X-247400D01*
X-267000Y144000D02*
X-261700Y149300D01*
X-267000Y137000D02*
Y144000D01*
X-183701Y124701D02*
X-163000Y104000D01*
X-205654Y195600D02*
X-195204D01*
X-194704Y196100D01*
X-236653Y195600D02*
X-227400D01*
X-236653Y185600D02*
X-229600D01*
X-245553Y190600D02*
X-236653D01*
X-248553Y180600D02*
X-236653D01*
X-249153Y181200D02*
X-248553Y180600D01*
X-258136Y195600D02*
X-236653D01*
X-257335Y181200D02*
X-249153D01*
X-257000Y118000D02*
X-183000D01*
X-50700Y139900D02*
X-38100D01*
X-227400Y195600D02*
X-224147Y198854D01*
Y204300D01*
X-249153Y187000D02*
X-245553Y190600D01*
X-263000Y187000D02*
X-249153D01*
X-274299Y175701D02*
X-263000Y187000D01*
D52*
X16000Y162200D02*
X19999D01*
X17999Y164199D02*
Y160201D01*
X15500Y200200D02*
X19499D01*
X15500Y275160D02*
X19499D01*
X16000Y237160D02*
X19999D01*
X17999Y239160D02*
Y235161D01*
D53*
X-44500Y175804D02*
D03*
D54*
X-21333Y197700D02*
D03*
D55*
X-77500Y137000D02*
D03*
D56*
X-34000Y191500D02*
D03*
D57*
X-15500Y204500D02*
D03*
D58*
X-69516Y194000D02*
D03*
D59*
X-146821Y272126D02*
D03*
D60*
X-275590Y-193701D02*
D03*
X275590D02*
D03*
D61*
X280000Y280000D02*
D03*
X-280000D02*
D03*
X260000Y-280000D02*
D03*
X-280000D02*
D03*
D62*
X85000Y-143000D02*
D03*
X60000Y-71000D02*
D03*
Y-60000D02*
D03*
X114000Y-155500D02*
D03*
Y-110900D02*
D03*
Y-133200D02*
D03*
X-10000Y-259000D02*
D03*
X-10000Y-280661D02*
D03*
X-14000Y-270000D02*
D03*
X-15000Y-291000D02*
D03*
X114000Y-200100D02*
D03*
Y-177800D02*
D03*
X56000Y-264748D02*
D03*
Y-275378D02*
D03*
X18000Y-188000D02*
D03*
X6000Y-190000D02*
D03*
X85000Y-210000D02*
D03*
Y-187800D02*
D03*
Y-165000D02*
D03*
Y-121000D02*
D03*
X-42000Y-183000D02*
D03*
Y-172000D02*
D03*
Y-161000D02*
D03*
X17000Y-53000D02*
D03*
X18000Y-150000D02*
D03*
X-45000Y-230000D02*
D03*
X-46000Y-23000D02*
D03*
Y-50000D02*
D03*
X-41103Y-149897D02*
D03*
Y-117103D02*
D03*
X81000Y151000D02*
D03*
X135757Y236757D02*
D03*
X229000Y258000D02*
D03*
X190917Y123083D02*
D03*
X114000Y252000D02*
D03*
X115000Y274000D02*
D03*
X100000Y186000D02*
D03*
X218000Y218000D02*
D03*
X220000Y145000D02*
D03*
X-269000Y43000D02*
D03*
X16000Y-122000D02*
D03*
X39483Y-155517D02*
D03*
X-58000Y109000D02*
D03*
X-69647Y85353D02*
D03*
X17000Y-98000D02*
D03*
Y-109000D02*
D03*
X-38000Y87000D02*
D03*
X-38600Y201400D02*
D03*
X47000Y-148000D02*
D03*
X27000Y88000D02*
D03*
Y104000D02*
D03*
X133000Y112000D02*
D03*
X90000Y100000D02*
D03*
X121500Y97000D02*
D03*
X-212000Y26000D02*
D03*
X-200000Y47000D02*
D03*
X214000Y-54000D02*
D03*
X222000Y-65000D02*
D03*
X-6000Y-176000D02*
D03*
X54000Y-45000D02*
D03*
X154000Y68000D02*
D03*
X203000Y59000D02*
D03*
X242535Y58000D02*
D03*
X256000Y-1000D02*
D03*
X179000Y60000D02*
D03*
X194000Y38000D02*
D03*
X83948Y-32948D02*
D03*
X106000Y-82000D02*
D03*
Y-51000D02*
D03*
X106500Y-62500D02*
D03*
X60000Y-82000D02*
D03*
X59000Y-31000D02*
D03*
X148000Y32000D02*
D03*
X204000Y17000D02*
D03*
X-213000Y134000D02*
D03*
X-208000Y208000D02*
D03*
Y169000D02*
D03*
X-233000Y210000D02*
D03*
X-235000Y171000D02*
D03*
X-177000Y208000D02*
D03*
X-178100Y180600D02*
D03*
X-177500Y195000D02*
D03*
X-189260Y108740D02*
D03*
X-226000Y94000D02*
D03*
X-212315Y71315D02*
D03*
X-207260Y108260D02*
D03*
X129000Y167000D02*
D03*
X164000Y236000D02*
D03*
X179400Y99600D02*
D03*
X221000Y100000D02*
D03*
X175000Y159000D02*
D03*
X-268000Y158000D02*
D03*
X-285000D02*
D03*
X68700Y262300D02*
D03*
X68500Y247200D02*
D03*
X-154724Y267717D02*
D03*
X-102100Y201400D02*
D03*
X-176500Y158500D02*
D03*
X-124700Y115700D02*
D03*
X-50500Y230500D02*
D03*
Y167500D02*
D03*
X-187000Y131000D02*
D03*
X-38100Y139900D02*
D03*
X-20000Y141000D02*
D03*
X-27000Y211000D02*
D03*
M02*
