%FSLAX25Y25*%
%MOIN*%
G70*
G01*
G75*
G04 Layer_Color=8388736*
%ADD10R,0.04500X0.05300*%
%ADD11R,0.05118X0.10630*%
%ADD12R,0.10630X0.05118*%
%ADD13O,0.00700X0.01400*%
%ADD14O,0.01400X0.00700*%
%ADD15R,0.01772X0.04134*%
%ADD16R,0.07000X0.03000*%
%ADD17C,0.04921*%
%ADD18R,0.03000X0.04100*%
%ADD19R,0.04100X0.03000*%
%ADD20R,0.06890X0.10433*%
%ADD21R,0.10433X0.06890*%
%ADD22R,0.06299X0.03150*%
%ADD23R,0.03000X0.07000*%
G04:AMPARAMS|DCode=24|XSize=43.31mil|YSize=39.37mil|CornerRadius=0mil|HoleSize=0mil|Usage=FLASHONLY|Rotation=0.000|XOffset=0mil|YOffset=0mil|HoleType=Round|Shape=RoundedRectangle|*
%AMROUNDEDRECTD24*
21,1,0.04331,0.03937,0,0,0.0*
21,1,0.04331,0.03937,0,0,0.0*
1,1,0.00000,0.02165,-0.01969*
1,1,0.00000,-0.02165,-0.01969*
1,1,0.00000,-0.02165,0.01969*
1,1,0.00000,0.02165,0.01969*
%
%ADD24ROUNDEDRECTD24*%
G04:AMPARAMS|DCode=25|XSize=118.11mil|YSize=61.02mil|CornerRadius=0mil|HoleSize=0mil|Usage=FLASHONLY|Rotation=90.000|XOffset=0mil|YOffset=0mil|HoleType=Round|Shape=RoundedRectangle|*
%AMROUNDEDRECTD25*
21,1,0.11811,0.06102,0,0,90.0*
21,1,0.11811,0.06102,0,0,90.0*
1,1,0.00000,0.03051,0.05906*
1,1,0.00000,0.03051,-0.05906*
1,1,0.00000,-0.03051,-0.05906*
1,1,0.00000,-0.03051,0.05906*
%
%ADD25ROUNDEDRECTD25*%
%ADD26R,0.09000X0.05000*%
%ADD27R,0.10000X0.15000*%
%ADD28R,0.10236X0.13976*%
%ADD29R,0.13976X0.10236*%
%ADD30R,0.07795X0.02087*%
G04:AMPARAMS|DCode=31|XSize=20.87mil|YSize=77.95mil|CornerRadius=0mil|HoleSize=0mil|Usage=FLASHONLY|Rotation=270.000|XOffset=0mil|YOffset=0mil|HoleType=Round|Shape=Octagon|*
%AMOCTAGOND31*
4,1,8,0.03898,0.00522,0.03898,-0.00522,0.03376,-0.01043,-0.03376,-0.01043,-0.03898,-0.00522,-0.03898,0.00522,-0.03376,0.01043,0.03376,0.01043,0.03898,0.00522,0.0*
%
%ADD31OCTAGOND31*%

%ADD32R,0.07874X0.21260*%
%ADD33R,0.10300X0.06200*%
%ADD34R,0.22000X0.21400*%
%ADD35R,0.10400X0.06200*%
%ADD36R,0.21260X0.07874*%
%ADD37R,0.06200X0.10300*%
%ADD38R,0.21400X0.22000*%
%ADD39R,0.06200X0.10400*%
%ADD40R,0.19685X0.02992*%
%ADD41R,0.17716X0.34646*%
%ADD42R,0.03150X0.06299*%
%ADD43R,0.05500X0.04500*%
%ADD44C,0.05000*%
%ADD45R,0.07800X0.07000*%
%ADD46R,0.07800X0.07000*%
%ADD47R,0.05906X0.05906*%
%ADD48R,0.05906X0.05906*%
G04:AMPARAMS|DCode=49|XSize=43.31mil|YSize=39.37mil|CornerRadius=0mil|HoleSize=0mil|Usage=FLASHONLY|Rotation=90.000|XOffset=0mil|YOffset=0mil|HoleType=Round|Shape=RoundedRectangle|*
%AMROUNDEDRECTD49*
21,1,0.04331,0.03937,0,0,90.0*
21,1,0.04331,0.03937,0,0,90.0*
1,1,0.00000,0.01969,0.02165*
1,1,0.00000,0.01969,-0.02165*
1,1,0.00000,-0.01969,-0.02165*
1,1,0.00000,-0.01969,0.02165*
%
%ADD49ROUNDEDRECTD49*%
%ADD50C,0.03500*%
%ADD51C,0.00787*%
%ADD52C,0.01000*%
%ADD53R,0.19000X0.12392*%
%ADD54R,0.22666X0.07400*%
%ADD55R,0.29000X0.26000*%
%ADD56R,0.48000X0.07000*%
%ADD57R,0.11000X0.11000*%
%ADD58R,0.24969X0.14000*%
%ADD59R,0.38642X0.24252*%
%ADD60C,0.15748*%
%ADD61C,0.11811*%
%ADD62C,0.09449*%
%ADD63C,0.33000*%
%ADD64C,0.05700*%
%ADD65R,0.07500X0.07500*%
%ADD66C,0.07500*%
%ADD67C,0.07874*%
%ADD68C,0.07677*%
%ADD69C,0.00600*%
%ADD70C,0.00800*%
%ADD71C,0.00787*%
%ADD72C,0.00500*%
%ADD73C,0.00700*%
%ADD74R,0.05300X0.06100*%
%ADD75R,0.05918X0.11430*%
%ADD76R,0.11430X0.05918*%
%ADD77R,0.02572X0.04934*%
%ADD78R,0.07800X0.03800*%
%ADD79C,0.12795*%
%ADD80R,0.03800X0.04900*%
%ADD81R,0.04900X0.03800*%
%ADD82R,0.07690X0.11233*%
%ADD83R,0.11233X0.07690*%
%ADD84R,0.07099X0.03950*%
%ADD85R,0.03800X0.07800*%
G04:AMPARAMS|DCode=86|XSize=51.31mil|YSize=47.37mil|CornerRadius=0mil|HoleSize=0mil|Usage=FLASHONLY|Rotation=0.000|XOffset=0mil|YOffset=0mil|HoleType=Round|Shape=RoundedRectangle|*
%AMROUNDEDRECTD86*
21,1,0.05131,0.04737,0,0,0.0*
21,1,0.05131,0.04737,0,0,0.0*
1,1,0.00000,0.02565,-0.02369*
1,1,0.00000,-0.02565,-0.02369*
1,1,0.00000,-0.02565,0.02369*
1,1,0.00000,0.02565,0.02369*
%
%ADD86ROUNDEDRECTD86*%
G04:AMPARAMS|DCode=87|XSize=126.11mil|YSize=69.02mil|CornerRadius=0mil|HoleSize=0mil|Usage=FLASHONLY|Rotation=90.000|XOffset=0mil|YOffset=0mil|HoleType=Round|Shape=RoundedRectangle|*
%AMROUNDEDRECTD87*
21,1,0.12611,0.06902,0,0,90.0*
21,1,0.12611,0.06902,0,0,90.0*
1,1,0.00000,0.03451,0.06306*
1,1,0.00000,0.03451,-0.06306*
1,1,0.00000,-0.03451,-0.06306*
1,1,0.00000,-0.03451,0.06306*
%
%ADD87ROUNDEDRECTD87*%
%ADD88R,0.09800X0.05800*%
%ADD89R,0.10800X0.15800*%
%ADD90R,0.11036X0.14776*%
%ADD91R,0.14776X0.11036*%
%ADD92R,0.08595X0.02887*%
G04:AMPARAMS|DCode=93|XSize=28.87mil|YSize=85.95mil|CornerRadius=0mil|HoleSize=0mil|Usage=FLASHONLY|Rotation=270.000|XOffset=0mil|YOffset=0mil|HoleType=Round|Shape=Octagon|*
%AMOCTAGOND93*
4,1,8,0.04298,0.00722,0.04298,-0.00722,0.03576,-0.01443,-0.03576,-0.01443,-0.04298,-0.00722,-0.04298,0.00722,-0.03576,0.01443,0.03576,0.01443,0.04298,0.00722,0.0*
%
%ADD93OCTAGOND93*%

%ADD94R,0.08674X0.22060*%
%ADD95R,0.11100X0.07000*%
%ADD96R,0.22800X0.22200*%
%ADD97R,0.11200X0.07000*%
%ADD98R,0.22060X0.08674*%
%ADD99R,0.07000X0.11100*%
%ADD100R,0.22200X0.22800*%
%ADD101R,0.07000X0.11200*%
%ADD102R,0.20485X0.03792*%
%ADD103R,0.18517X0.35446*%
%ADD104R,0.03950X0.07099*%
%ADD105R,0.06300X0.05300*%
%ADD106R,0.08600X0.07800*%
%ADD107R,0.08600X0.07800*%
%ADD108R,0.06706X0.06706*%
%ADD109R,0.06706X0.06706*%
G04:AMPARAMS|DCode=110|XSize=51.31mil|YSize=47.37mil|CornerRadius=0mil|HoleSize=0mil|Usage=FLASHONLY|Rotation=90.000|XOffset=0mil|YOffset=0mil|HoleType=Round|Shape=RoundedRectangle|*
%AMROUNDEDRECTD110*
21,1,0.05131,0.04737,0,0,90.0*
21,1,0.05131,0.04737,0,0,90.0*
1,1,0.00000,0.02369,0.02565*
1,1,0.00000,0.02369,-0.02565*
1,1,0.00000,-0.02369,-0.02565*
1,1,0.00000,-0.02369,0.02565*
%
%ADD110ROUNDEDRECTD110*%
%ADD111C,0.00800*%
%ADD112R,0.00800X0.00800*%
%ADD113C,0.16548*%
%ADD114C,0.12611*%
%ADD115R,0.01000X0.01000*%
%ADD116C,0.01000*%
%ADD117C,0.09049*%
D74*
X-69647Y66000D02*
D03*
X-62353D02*
D03*
X-38000Y63000D02*
D03*
X-30706D02*
D03*
X-14647D02*
D03*
X-7353D02*
D03*
X-62353Y74000D02*
D03*
X-69647D02*
D03*
X-30706Y72000D02*
D03*
X-38000D02*
D03*
X-7353D02*
D03*
X-14647D02*
D03*
X-76353Y-181000D02*
D03*
X-83647D02*
D03*
X-76353Y-170000D02*
D03*
X-83647D02*
D03*
X-76353Y-160000D02*
D03*
X-83647D02*
D03*
D75*
X124339Y252200D02*
D03*
X135757D02*
D03*
Y274000D02*
D03*
X124339D02*
D03*
D76*
X98000Y171757D02*
D03*
Y160339D02*
D03*
X207083Y144757D02*
D03*
Y133339D02*
D03*
X228000Y233243D02*
D03*
Y244661D02*
D03*
X81000Y160243D02*
D03*
Y171661D02*
D03*
X190917Y133243D02*
D03*
Y144661D02*
D03*
X212000Y244757D02*
D03*
Y233339D02*
D03*
D77*
X-214740Y99315D02*
D03*
X-207260D02*
D03*
Y88685D02*
D03*
X-211000D02*
D03*
X-214740D02*
D03*
X-196740Y99315D02*
D03*
X-189260D02*
D03*
Y88685D02*
D03*
X-193000D02*
D03*
X-196740D02*
D03*
X234000Y-11000D02*
D03*
X241480D02*
D03*
Y-21630D02*
D03*
X237740D02*
D03*
X234000D02*
D03*
X216000Y-11000D02*
D03*
X223480D02*
D03*
Y-21630D02*
D03*
X219740D02*
D03*
X216000D02*
D03*
X-205740Y71315D02*
D03*
X-198260D02*
D03*
Y60685D02*
D03*
X-202000D02*
D03*
X-205740D02*
D03*
X225000Y-39000D02*
D03*
X232480D02*
D03*
Y-49630D02*
D03*
X228740D02*
D03*
X225000D02*
D03*
D78*
X-203900Y142900D02*
D03*
Y147900D02*
D03*
Y152900D02*
D03*
Y157900D02*
D03*
X-234900Y142900D02*
D03*
Y147900D02*
D03*
Y152900D02*
D03*
Y157900D02*
D03*
X-205654Y180600D02*
D03*
Y185600D02*
D03*
Y190600D02*
D03*
Y195600D02*
D03*
X-236653Y180600D02*
D03*
Y185600D02*
D03*
Y190600D02*
D03*
Y195600D02*
D03*
D79*
X290000Y-290000D02*
D03*
X-280000Y250000D02*
D03*
D80*
X-194704Y180600D02*
D03*
X-188910D02*
D03*
X229100Y29000D02*
D03*
X234900D02*
D03*
X-194704Y196100D02*
D03*
X-188910D02*
D03*
X80897Y-70000D02*
D03*
X75103D02*
D03*
X80897Y-80000D02*
D03*
X75103D02*
D03*
X80897Y-40000D02*
D03*
X75103D02*
D03*
Y-60000D02*
D03*
X80897D02*
D03*
X-41103Y-130000D02*
D03*
X-46897D02*
D03*
X-41103Y-140000D02*
D03*
X-46897D02*
D03*
X4100Y-150000D02*
D03*
X9900D02*
D03*
X-192950Y157900D02*
D03*
X-187157D02*
D03*
X-192950Y142900D02*
D03*
X-187157D02*
D03*
X173000Y27000D02*
D03*
X178800D02*
D03*
X75897Y-187800D02*
D03*
X70103D02*
D03*
Y-177800D02*
D03*
X75897D02*
D03*
Y-210000D02*
D03*
X70103D02*
D03*
Y-200000D02*
D03*
X75897D02*
D03*
Y-165000D02*
D03*
X70103D02*
D03*
Y-156000D02*
D03*
X75897D02*
D03*
Y-121000D02*
D03*
X70103D02*
D03*
Y-111000D02*
D03*
X75897D02*
D03*
Y-143000D02*
D03*
X70103D02*
D03*
Y-134000D02*
D03*
X75897D02*
D03*
D81*
X-249153Y187000D02*
D03*
Y181200D02*
D03*
X237035Y81450D02*
D03*
Y87243D02*
D03*
X221535Y81450D02*
D03*
Y87243D02*
D03*
X-45000Y-213100D02*
D03*
Y-218900D02*
D03*
X17000Y-38100D02*
D03*
Y-43900D02*
D03*
X-46000Y-10100D02*
D03*
Y-15900D02*
D03*
X-247400Y149300D02*
D03*
Y143500D02*
D03*
X163900Y81450D02*
D03*
Y87243D02*
D03*
X179400Y81450D02*
D03*
Y87243D02*
D03*
D82*
X-259000Y196465D02*
D03*
Y179535D02*
D03*
X-257000Y158465D02*
D03*
Y141535D02*
D03*
D83*
X221071Y17000D02*
D03*
X238000D02*
D03*
X38635Y247200D02*
D03*
X55565D02*
D03*
X38635Y262300D02*
D03*
X55565D02*
D03*
X82035Y247200D02*
D03*
X98965D02*
D03*
X82035Y262300D02*
D03*
X98965D02*
D03*
X163435Y17000D02*
D03*
X180365D02*
D03*
D84*
X-202225Y80000D02*
D03*
X228516Y-30315D02*
D03*
D85*
X237035Y70500D02*
D03*
X232035D02*
D03*
X227035D02*
D03*
X222035D02*
D03*
X237035Y39500D02*
D03*
X232035D02*
D03*
X227035D02*
D03*
X222035D02*
D03*
X179400Y70500D02*
D03*
X174400D02*
D03*
X169400D02*
D03*
X164400D02*
D03*
X179400Y39500D02*
D03*
X174400D02*
D03*
X169400D02*
D03*
X164400D02*
D03*
D86*
X-252654Y42000D02*
D03*
X-259347D02*
D03*
X-217454Y204300D02*
D03*
X-224147D02*
D03*
X-216154Y166100D02*
D03*
X-222847D02*
D03*
D87*
X-248193Y-1000D02*
D03*
X-259807D02*
D03*
D88*
X-265200Y32500D02*
D03*
Y23500D02*
D03*
Y14500D02*
D03*
D89*
X-241000Y23500D02*
D03*
D90*
X130850Y140000D02*
D03*
X112150D02*
D03*
D91*
X-139370Y249311D02*
D03*
Y268012D02*
D03*
D92*
X65705Y102500D02*
D03*
Y97500D02*
D03*
Y92500D02*
D03*
Y87500D02*
D03*
X46295Y97500D02*
D03*
Y92500D02*
D03*
Y87500D02*
D03*
D93*
Y102500D02*
D03*
D94*
X58854Y198500D02*
D03*
X78146D02*
D03*
X58854Y225500D02*
D03*
X78146D02*
D03*
X189354Y187800D02*
D03*
X208646D02*
D03*
X189354Y164300D02*
D03*
X208646D02*
D03*
D95*
X-120700Y139900D02*
D03*
Y201400D02*
D03*
X-50700Y139900D02*
D03*
Y201400D02*
D03*
D96*
X-148000Y148900D02*
D03*
Y210400D02*
D03*
X-78000Y148900D02*
D03*
Y210400D02*
D03*
D97*
X-120700Y157900D02*
D03*
Y219400D02*
D03*
X-50700Y157900D02*
D03*
Y219400D02*
D03*
D98*
X-101000Y169354D02*
D03*
Y188646D02*
D03*
D99*
X164500Y167300D02*
D03*
X249500D02*
D03*
X164500Y218300D02*
D03*
X249500D02*
D03*
D100*
X155500Y140000D02*
D03*
X240500D02*
D03*
X155500Y191000D02*
D03*
X240500D02*
D03*
D101*
X146500Y167300D02*
D03*
X231500D02*
D03*
X146500Y218300D02*
D03*
X231500D02*
D03*
D102*
X130504Y-47500D02*
D03*
Y-52500D02*
D03*
Y-62500D02*
D03*
Y-57500D02*
D03*
Y-67500D02*
D03*
Y-72500D02*
D03*
D103*
X193506Y-60000D02*
D03*
D104*
X-57000Y-130000D02*
D03*
Y-140000D02*
D03*
X-58000Y-32000D02*
D03*
D105*
X-46000Y-32350D02*
D03*
Y-39650D02*
D03*
D106*
X-66250Y-180000D02*
D03*
Y-170000D02*
D03*
D107*
X-53750Y-180000D02*
D03*
Y-170000D02*
D03*
D108*
X-66890Y-160000D02*
D03*
D109*
X-53110D02*
D03*
D110*
X155900Y58346D02*
D03*
Y51653D02*
D03*
X213535Y58346D02*
D03*
Y51654D02*
D03*
D111*
X-259250Y87250D02*
D03*
Y79750D02*
D03*
X-260000Y56000D02*
D03*
Y66000D02*
D03*
X92000Y-50000D02*
D03*
Y-60000D02*
D03*
Y-70000D02*
D03*
Y-80000D02*
D03*
X-30000Y-280000D02*
D03*
Y-270000D02*
D03*
Y-260000D02*
D03*
Y-250000D02*
D03*
Y-240000D02*
D03*
Y-230000D02*
D03*
Y-220000D02*
D03*
Y-210000D02*
D03*
Y-200000D02*
D03*
Y-190000D02*
D03*
Y-180000D02*
D03*
Y-170000D02*
D03*
Y-160000D02*
D03*
Y-150000D02*
D03*
Y-140000D02*
D03*
Y-130000D02*
D03*
Y-120000D02*
D03*
Y-110000D02*
D03*
Y-100000D02*
D03*
Y-90000D02*
D03*
Y-80000D02*
D03*
Y-70000D02*
D03*
Y-60000D02*
D03*
Y-50000D02*
D03*
Y-40000D02*
D03*
Y-30000D02*
D03*
Y-20000D02*
D03*
Y-10000D02*
D03*
Y0D02*
D03*
Y10000D02*
D03*
Y20000D02*
D03*
X30000Y-280000D02*
D03*
Y-270000D02*
D03*
Y-260000D02*
D03*
Y-250000D02*
D03*
Y-240000D02*
D03*
Y-230000D02*
D03*
Y-220000D02*
D03*
Y-210000D02*
D03*
Y-200000D02*
D03*
Y-190000D02*
D03*
Y-180000D02*
D03*
Y-170000D02*
D03*
Y-160000D02*
D03*
Y-150000D02*
D03*
Y-140000D02*
D03*
Y-130000D02*
D03*
Y-120000D02*
D03*
Y-110000D02*
D03*
Y-100000D02*
D03*
Y-90000D02*
D03*
Y-80000D02*
D03*
Y-70000D02*
D03*
Y-60000D02*
D03*
Y-50000D02*
D03*
Y-40000D02*
D03*
Y-30000D02*
D03*
Y-20000D02*
D03*
Y-10000D02*
D03*
Y0D02*
D03*
Y10000D02*
D03*
Y20000D02*
D03*
X-30000Y30000D02*
D03*
X30000D02*
D03*
X-22000Y162299D02*
D03*
Y199779D02*
D03*
Y274740D02*
D03*
Y237260D02*
D03*
X218740Y268000D02*
D03*
X181260D02*
D03*
X-218740D02*
D03*
X-181260D02*
D03*
D112*
X92000Y-40000D02*
D03*
D113*
X-275590Y-193701D02*
D03*
X275590D02*
D03*
D114*
X280000Y280000D02*
D03*
X-280000D02*
D03*
X260000Y-280000D02*
D03*
X-280000D02*
D03*
D115*
X95350Y-177800D02*
D03*
Y-200100D02*
D03*
Y-155500D02*
D03*
Y-110900D02*
D03*
Y-133200D02*
D03*
D116*
Y-187800D02*
D03*
Y-210100D02*
D03*
Y-165500D02*
D03*
Y-120900D02*
D03*
Y-143200D02*
D03*
D117*
X85000Y-143000D02*
D03*
X60000Y-71000D02*
D03*
Y-60000D02*
D03*
X114000Y-155500D02*
D03*
Y-110900D02*
D03*
Y-133200D02*
D03*
X-10000Y-259000D02*
D03*
X-10000Y-280661D02*
D03*
X-14000Y-270000D02*
D03*
X-15000Y-291000D02*
D03*
X114000Y-200100D02*
D03*
Y-177800D02*
D03*
X56000Y-264748D02*
D03*
Y-275378D02*
D03*
X18000Y-188000D02*
D03*
X6000Y-190000D02*
D03*
X85000Y-210000D02*
D03*
Y-187800D02*
D03*
Y-165000D02*
D03*
Y-121000D02*
D03*
X-42000Y-183000D02*
D03*
Y-172000D02*
D03*
Y-161000D02*
D03*
X17000Y-53000D02*
D03*
X18000Y-150000D02*
D03*
X-45000Y-230000D02*
D03*
X-46000Y-23000D02*
D03*
Y-50000D02*
D03*
X-41103Y-149897D02*
D03*
Y-117103D02*
D03*
X81000Y151000D02*
D03*
X135757Y236757D02*
D03*
X229000Y258000D02*
D03*
X190917Y123083D02*
D03*
X114000Y252000D02*
D03*
X115000Y274000D02*
D03*
X100000Y186000D02*
D03*
X218000Y218000D02*
D03*
X220000Y145000D02*
D03*
X-269000Y43000D02*
D03*
X16000Y-122000D02*
D03*
X39483Y-155517D02*
D03*
X-58000Y109000D02*
D03*
X-69647Y85353D02*
D03*
X17000Y-98000D02*
D03*
Y-109000D02*
D03*
X-38000Y87000D02*
D03*
X-38600Y201400D02*
D03*
X47000Y-148000D02*
D03*
X27000Y88000D02*
D03*
Y104000D02*
D03*
X133000Y112000D02*
D03*
X90000Y100000D02*
D03*
X121500Y97000D02*
D03*
X-212000Y26000D02*
D03*
X-200000Y47000D02*
D03*
X214000Y-54000D02*
D03*
X222000Y-65000D02*
D03*
X-6000Y-176000D02*
D03*
X54000Y-45000D02*
D03*
X154000Y68000D02*
D03*
X203000Y59000D02*
D03*
X242535Y58000D02*
D03*
X256000Y-1000D02*
D03*
X179000Y60000D02*
D03*
X194000Y38000D02*
D03*
X83948Y-32948D02*
D03*
X106000Y-82000D02*
D03*
Y-51000D02*
D03*
X106500Y-62500D02*
D03*
X60000Y-82000D02*
D03*
X59000Y-31000D02*
D03*
X148000Y32000D02*
D03*
X204000Y17000D02*
D03*
X-213000Y134000D02*
D03*
X-208000Y208000D02*
D03*
Y169000D02*
D03*
X-233000Y210000D02*
D03*
X-235000Y171000D02*
D03*
X-177000Y208000D02*
D03*
X-178100Y180600D02*
D03*
X-177500Y195000D02*
D03*
X-189260Y108740D02*
D03*
X-226000Y94000D02*
D03*
X-212315Y71315D02*
D03*
X-207260Y108260D02*
D03*
X129000Y167000D02*
D03*
X164000Y236000D02*
D03*
X179400Y99600D02*
D03*
X221000Y100000D02*
D03*
X175000Y159000D02*
D03*
X-268000Y158000D02*
D03*
X-285000D02*
D03*
X68700Y262300D02*
D03*
X68500Y247200D02*
D03*
X-154724Y267717D02*
D03*
X-102100Y201400D02*
D03*
X-176500Y158500D02*
D03*
X-124700Y115700D02*
D03*
X-50500Y230500D02*
D03*
Y167500D02*
D03*
X-187000Y131000D02*
D03*
X-38100Y139900D02*
D03*
X-20000Y141000D02*
D03*
X-27000Y211000D02*
D03*
M02*
