%FSLAX25Y25*%
%MOIN*%
G70*
G01*
G75*
G04 Layer_Color=65535*
%ADD10R,0.04500X0.05300*%
%ADD11R,0.05118X0.10630*%
%ADD12R,0.10630X0.05118*%
%ADD13O,0.00700X0.01400*%
%ADD14O,0.01400X0.00700*%
%ADD15R,0.01772X0.04134*%
%ADD16R,0.07000X0.03000*%
%ADD17C,0.04921*%
%ADD18R,0.03000X0.04100*%
%ADD19R,0.04100X0.03000*%
%ADD20R,0.06890X0.10433*%
%ADD21R,0.10433X0.06890*%
%ADD22R,0.06299X0.03150*%
%ADD23R,0.03000X0.07000*%
G04:AMPARAMS|DCode=24|XSize=43.31mil|YSize=39.37mil|CornerRadius=0mil|HoleSize=0mil|Usage=FLASHONLY|Rotation=0.000|XOffset=0mil|YOffset=0mil|HoleType=Round|Shape=RoundedRectangle|*
%AMROUNDEDRECTD24*
21,1,0.04331,0.03937,0,0,0.0*
21,1,0.04331,0.03937,0,0,0.0*
1,1,0.00000,0.02165,-0.01969*
1,1,0.00000,-0.02165,-0.01969*
1,1,0.00000,-0.02165,0.01969*
1,1,0.00000,0.02165,0.01969*
%
%ADD24ROUNDEDRECTD24*%
G04:AMPARAMS|DCode=25|XSize=118.11mil|YSize=61.02mil|CornerRadius=0mil|HoleSize=0mil|Usage=FLASHONLY|Rotation=90.000|XOffset=0mil|YOffset=0mil|HoleType=Round|Shape=RoundedRectangle|*
%AMROUNDEDRECTD25*
21,1,0.11811,0.06102,0,0,90.0*
21,1,0.11811,0.06102,0,0,90.0*
1,1,0.00000,0.03051,0.05906*
1,1,0.00000,0.03051,-0.05906*
1,1,0.00000,-0.03051,-0.05906*
1,1,0.00000,-0.03051,0.05906*
%
%ADD25ROUNDEDRECTD25*%
%ADD26R,0.09000X0.05000*%
%ADD27R,0.10000X0.15000*%
%ADD28R,0.10236X0.13976*%
%ADD29R,0.13976X0.10236*%
%ADD30R,0.07795X0.02087*%
G04:AMPARAMS|DCode=31|XSize=20.87mil|YSize=77.95mil|CornerRadius=0mil|HoleSize=0mil|Usage=FLASHONLY|Rotation=270.000|XOffset=0mil|YOffset=0mil|HoleType=Round|Shape=Octagon|*
%AMOCTAGOND31*
4,1,8,0.03898,0.00522,0.03898,-0.00522,0.03376,-0.01043,-0.03376,-0.01043,-0.03898,-0.00522,-0.03898,0.00522,-0.03376,0.01043,0.03376,0.01043,0.03898,0.00522,0.0*
%
%ADD31OCTAGOND31*%

%ADD32R,0.07874X0.21260*%
%ADD33R,0.10300X0.06200*%
%ADD34R,0.22000X0.21400*%
%ADD35R,0.10400X0.06200*%
%ADD36R,0.21260X0.07874*%
%ADD37R,0.06200X0.10300*%
%ADD38R,0.21400X0.22000*%
%ADD39R,0.06200X0.10400*%
%ADD40R,0.19685X0.02992*%
%ADD41R,0.17716X0.34646*%
%ADD42R,0.03150X0.06299*%
%ADD43R,0.05500X0.04500*%
%ADD44C,0.05000*%
%ADD45R,0.07800X0.07000*%
%ADD46R,0.07800X0.07000*%
%ADD47R,0.05906X0.05906*%
%ADD48R,0.05906X0.05906*%
G04:AMPARAMS|DCode=49|XSize=43.31mil|YSize=39.37mil|CornerRadius=0mil|HoleSize=0mil|Usage=FLASHONLY|Rotation=90.000|XOffset=0mil|YOffset=0mil|HoleType=Round|Shape=RoundedRectangle|*
%AMROUNDEDRECTD49*
21,1,0.04331,0.03937,0,0,90.0*
21,1,0.04331,0.03937,0,0,90.0*
1,1,0.00000,0.01969,0.02165*
1,1,0.00000,0.01969,-0.02165*
1,1,0.00000,-0.01969,-0.02165*
1,1,0.00000,-0.01969,0.02165*
%
%ADD49ROUNDEDRECTD49*%
%ADD50C,0.03500*%
%ADD51C,0.00787*%
%ADD52C,0.01000*%
%ADD53R,0.19000X0.12392*%
%ADD54R,0.22666X0.07400*%
%ADD55R,0.29000X0.26000*%
%ADD56R,0.48000X0.07000*%
%ADD57R,0.11000X0.11000*%
%ADD58R,0.24969X0.14000*%
%ADD59R,0.38642X0.24252*%
%ADD60C,0.15748*%
%ADD61C,0.11811*%
%ADD62C,0.09449*%
%ADD63C,0.33000*%
%ADD64C,0.05700*%
%ADD65R,0.07500X0.07500*%
%ADD66C,0.07500*%
%ADD67C,0.07874*%
%ADD68C,0.07677*%
%ADD69C,0.00600*%
%ADD70C,0.00800*%
%ADD71C,0.00787*%
%ADD72C,0.00500*%
%ADD73C,0.00700*%
D51*
X63800Y187864D02*
X73100D01*
X63800Y209136D02*
X73100D01*
X63800Y214864D02*
X73100D01*
X63800Y236136D02*
X73100D01*
X-90364Y174300D02*
Y183600D01*
X-111636Y174300D02*
Y183600D01*
X194300Y177164D02*
X203600D01*
X194300Y198436D02*
X203600D01*
X194300Y153664D02*
X203600D01*
X194300Y174936D02*
X203600D01*
D52*
X-217400Y140400D02*
G03*
X-221400Y140400I-2000J0D01*
G01*
X-217400D02*
G03*
X-221400Y140400I-2000J0D01*
G01*
X-219153Y178100D02*
G03*
X-223153Y178100I-2000J0D01*
G01*
X-219153D02*
G03*
X-223153Y178100I-2000J0D01*
G01*
X239535Y57000D02*
G03*
X239535Y53000I0J-2000D01*
G01*
Y57000D02*
G03*
X239535Y53000I0J-2000D01*
G01*
X181900Y57000D02*
G03*
X181900Y53000I0J-2000D01*
G01*
Y57000D02*
G03*
X181900Y53000I0J-2000D01*
G01*
X-217400Y140400D02*
X-209500D01*
X-229300D02*
Y160400D01*
X-209500D01*
Y140400D02*
Y160400D01*
X-229300Y140400D02*
X-221400D01*
X-217400D02*
X-209500D01*
X-229300D02*
Y160400D01*
X-209500D01*
Y140400D02*
Y160400D01*
X-229300Y140400D02*
X-221400D01*
X-219153Y178100D02*
X-211253D01*
X-231053D02*
Y198100D01*
X-211253D01*
Y178100D02*
Y198100D01*
X-231053Y178100D02*
X-223153D01*
X-219153D02*
X-211253D01*
X-231053D02*
Y198100D01*
X-211253D01*
Y178100D02*
Y198100D01*
X-231053Y178100D02*
X-223153D01*
X239535Y57000D02*
Y64900D01*
X219535Y45100D02*
X239535D01*
X219535D02*
Y64900D01*
X239535D01*
Y45100D02*
Y53000D01*
Y57000D02*
Y64900D01*
X219535Y45100D02*
X239535D01*
X219535D02*
Y64900D01*
X239535D01*
Y45100D02*
Y53000D01*
X-259350Y37000D02*
X-247850D01*
X-259350Y10000D02*
Y37000D01*
Y10000D02*
X-247850D01*
Y37000D01*
X82000Y-85000D02*
Y-35000D01*
X130405Y-40000D02*
Y-33996D01*
X130504Y-86004D02*
Y-81800D01*
X204421Y-60000D02*
Y-42776D01*
X130494Y-33996D02*
X191685D01*
Y-40905D02*
Y-33996D01*
Y-40905D02*
X202551D01*
X204421Y-42776D01*
X130514Y-86004D02*
X191685D01*
X204421Y-77323D02*
Y-60000D01*
X191685Y-79094D02*
X202650D01*
X204421Y-77323D01*
X191685Y-86004D02*
Y-79094D01*
X181900Y57000D02*
Y64900D01*
X161900Y45100D02*
X181900D01*
X161900D02*
Y64900D01*
X181900D01*
Y45100D02*
Y53000D01*
Y57000D02*
Y64900D01*
X161900Y45100D02*
X181900D01*
X161900D02*
Y64900D01*
X181900D01*
Y45100D02*
Y53000D01*
X209727Y248300D02*
Y254298D01*
X212726D01*
X213725Y253298D01*
Y251299D01*
X212726Y250299D01*
X209727D01*
X211726D02*
X213725Y248300D01*
X215725D02*
X217724D01*
X216724D01*
Y254298D01*
X215725Y253298D01*
X223722Y248300D02*
Y254298D01*
X220723Y251299D01*
X224722D01*
X226721Y248300D02*
Y252299D01*
X228720Y254298D01*
X230720Y252299D01*
Y248300D01*
Y251299D01*
X226721D01*
X225650Y248250D02*
Y254248D01*
X228649D01*
X229649Y253248D01*
Y251249D01*
X228649Y250249D01*
X225650D01*
X227649D02*
X229649Y248250D01*
X231648D02*
X233647D01*
X232648D01*
Y254248D01*
X231648Y253248D01*
X240645Y254248D02*
X236646D01*
Y251249D01*
X238646Y252249D01*
X239646D01*
X240645Y251249D01*
Y249250D01*
X239646Y248250D01*
X237646D01*
X236646Y249250D01*
X242645Y248250D02*
Y252249D01*
X244644Y254248D01*
X246643Y252249D01*
Y248250D01*
Y251249D01*
X242645D01*
X122427Y261100D02*
Y267098D01*
X125426D01*
X126425Y266098D01*
Y264099D01*
X125426Y263099D01*
X122427D01*
X124426D02*
X126425Y261100D01*
X128425D02*
X130424D01*
X129424D01*
Y267098D01*
X128425Y266098D01*
X137422Y267098D02*
X133423D01*
Y264099D01*
X135423Y265099D01*
X136422D01*
X137422Y264099D01*
Y262100D01*
X136422Y261100D01*
X134423D01*
X133423Y262100D01*
X139421Y267098D02*
Y261100D01*
X142420D01*
X143420Y262100D01*
Y266098D01*
X142420Y267098D01*
X139421D01*
X95727Y175300D02*
Y181298D01*
X98726D01*
X99725Y180298D01*
Y178299D01*
X98726Y177299D01*
X95727D01*
X97726D02*
X99725Y175300D01*
X101725D02*
X103724D01*
X102724D01*
Y181298D01*
X101725Y180298D01*
X110722Y181298D02*
X106723D01*
Y178299D01*
X108722Y179299D01*
X109722D01*
X110722Y178299D01*
Y176300D01*
X109722Y175300D01*
X107723D01*
X106723Y176300D01*
X116720Y180298D02*
X115720Y181298D01*
X113721D01*
X112721Y180298D01*
Y176300D01*
X113721Y175300D01*
X115720D01*
X116720Y176300D01*
X202209Y150700D02*
Y156698D01*
X205208D01*
X206208Y155698D01*
Y153699D01*
X205208Y152699D01*
X202209D01*
X204209D02*
X206208Y150700D01*
X208207D02*
X210207D01*
X209207D01*
Y156698D01*
X208207Y155698D01*
X217204Y156698D02*
X213206D01*
Y153699D01*
X215205Y154699D01*
X216205D01*
X217204Y153699D01*
Y151700D01*
X216205Y150700D01*
X214206D01*
X213206Y151700D01*
X219204Y156698D02*
Y150700D01*
X222203D01*
X223203Y151700D01*
Y152699D01*
X222203Y153699D01*
X219204D01*
X222203D01*
X223203Y154699D01*
Y155698D01*
X222203Y156698D01*
X219204D01*
X122427Y282900D02*
Y288898D01*
X125426D01*
X126425Y287898D01*
Y285899D01*
X125426Y284899D01*
X122427D01*
X124426D02*
X126425Y282900D01*
X128425D02*
X130424D01*
X129424D01*
Y288898D01*
X128425Y287898D01*
X136422Y282900D02*
Y288898D01*
X133423Y285899D01*
X137422D01*
X139421Y288898D02*
Y282900D01*
X142420D01*
X143420Y283900D01*
Y287898D01*
X142420Y288898D01*
X139421D01*
X78727Y175303D02*
Y181301D01*
X81726D01*
X82725Y180301D01*
Y178302D01*
X81726Y177302D01*
X78727D01*
X80726D02*
X82725Y175303D01*
X84725D02*
X86724D01*
X85724D01*
Y181301D01*
X84725Y180301D01*
X92722Y175303D02*
Y181301D01*
X89723Y178302D01*
X93722D01*
X99720Y180301D02*
X98720Y181301D01*
X96721D01*
X95721Y180301D01*
Y176303D01*
X96721Y175303D01*
X98720D01*
X99720Y176303D01*
X186044Y150600D02*
Y156598D01*
X189043D01*
X190043Y155598D01*
Y153599D01*
X189043Y152599D01*
X186044D01*
X188043D02*
X190043Y150600D01*
X192042D02*
X194041D01*
X193042D01*
Y156598D01*
X192042Y155598D01*
X200040Y150600D02*
Y156598D01*
X197040Y153599D01*
X201039D01*
X203039Y156598D02*
Y150600D01*
X206037D01*
X207037Y151600D01*
Y152599D01*
X206037Y153599D01*
X203039D01*
X206037D01*
X207037Y154599D01*
Y155598D01*
X206037Y156598D01*
X203039D01*
X-40350Y179050D02*
Y185048D01*
X-36351Y179050D01*
Y185048D01*
X-31353Y179050D02*
X-33352D01*
X-34352Y180050D01*
Y182049D01*
X-33352Y183049D01*
X-31353D01*
X-30353Y182049D01*
Y181049D01*
X-34352D01*
X-27354Y184048D02*
Y183049D01*
X-28354D01*
X-26355D01*
X-27354D01*
Y180050D01*
X-26355Y179050D01*
X-23356Y185048D02*
X-19357D01*
X-21356D01*
Y179050D01*
X-17357D02*
X-15358D01*
X-16358D01*
Y183049D01*
X-17357D01*
X-9360Y179050D02*
X-11359D01*
X-12359Y180050D01*
Y182049D01*
X-11359Y183049D01*
X-9360D01*
X-8360Y182049D01*
Y181049D01*
X-12359D01*
X-6361Y185048D02*
X-2362D01*
Y184048D01*
X-6361Y180050D01*
Y179050D01*
X-14350Y207050D02*
Y213048D01*
X-10351Y207050D01*
Y213048D01*
X-5353Y207050D02*
X-7352D01*
X-8352Y208050D01*
Y210049D01*
X-7352Y211049D01*
X-5353D01*
X-4353Y210049D01*
Y209049D01*
X-8352D01*
X-1354Y212048D02*
Y211049D01*
X-2354D01*
X-354D01*
X-1354D01*
Y208050D01*
X-354Y207050D01*
X2644Y213048D02*
X6643D01*
X4644D01*
Y207050D01*
X8643D02*
X10642D01*
X9642D01*
Y211049D01*
X8643D01*
X16640Y207050D02*
X14641D01*
X13641Y208050D01*
Y210049D01*
X14641Y211049D01*
X16640D01*
X17640Y210049D01*
Y209049D01*
X13641D01*
X19639Y208050D02*
X20639Y207050D01*
X22638D01*
X23638Y208050D01*
Y212048D01*
X22638Y213048D01*
X20639D01*
X19639Y212048D01*
Y211049D01*
X20639Y210049D01*
X23638D01*
X69227Y-172100D02*
Y-166102D01*
X72226D01*
X73225Y-167102D01*
Y-169101D01*
X72226Y-170101D01*
X69227D01*
X71226D02*
X73225Y-172100D01*
X75225D02*
X77224D01*
X76224D01*
Y-166102D01*
X75225Y-167102D01*
X84222Y-166102D02*
X82222Y-167102D01*
X80223Y-169101D01*
Y-171100D01*
X81223Y-172100D01*
X83222D01*
X84222Y-171100D01*
Y-170101D01*
X83222Y-169101D01*
X80223D01*
X86221Y-172100D02*
Y-168101D01*
X88221Y-166102D01*
X90220Y-168101D01*
Y-172100D01*
Y-169101D01*
X86221D01*
X69227Y-194300D02*
Y-188302D01*
X72226D01*
X73225Y-189302D01*
Y-191301D01*
X72226Y-192301D01*
X69227D01*
X71226D02*
X73225Y-194300D01*
X75225D02*
X77224D01*
X76224D01*
Y-188302D01*
X75225Y-189302D01*
X84222Y-188302D02*
X82222Y-189302D01*
X80223Y-191301D01*
Y-193300D01*
X81223Y-194300D01*
X83222D01*
X84222Y-193300D01*
Y-192301D01*
X83222Y-191301D01*
X80223D01*
X86221Y-188302D02*
Y-194300D01*
X89220D01*
X90220Y-193300D01*
Y-192301D01*
X89220Y-191301D01*
X86221D01*
X89220D01*
X90220Y-190301D01*
Y-189302D01*
X89220Y-188302D01*
X86221D01*
X69227Y-150300D02*
Y-144302D01*
X72226D01*
X73225Y-145302D01*
Y-147301D01*
X72226Y-148301D01*
X69227D01*
X71226D02*
X73225Y-150300D01*
X75225D02*
X77224D01*
X76224D01*
Y-144302D01*
X75225Y-145302D01*
X84222Y-144302D02*
X82222Y-145302D01*
X80223Y-147301D01*
Y-149300D01*
X81223Y-150300D01*
X83222D01*
X84222Y-149300D01*
Y-148301D01*
X83222Y-147301D01*
X80223D01*
X90220Y-145302D02*
X89220Y-144302D01*
X87221D01*
X86221Y-145302D01*
Y-149300D01*
X87221Y-150300D01*
X89220D01*
X90220Y-149300D01*
X69227Y-105300D02*
Y-99302D01*
X72226D01*
X73225Y-100302D01*
Y-102301D01*
X72226Y-103301D01*
X69227D01*
X71226D02*
X73225Y-105300D01*
X75225D02*
X77224D01*
X76224D01*
Y-99302D01*
X75225Y-100302D01*
X84222Y-99302D02*
X82222Y-100302D01*
X80223Y-102301D01*
Y-104300D01*
X81223Y-105300D01*
X83222D01*
X84222Y-104300D01*
Y-103301D01*
X83222Y-102301D01*
X80223D01*
X86221Y-99302D02*
Y-105300D01*
X89220D01*
X90220Y-104300D01*
Y-100302D01*
X89220Y-99302D01*
X86221D01*
X69227Y-128300D02*
Y-122302D01*
X72226D01*
X73225Y-123302D01*
Y-125301D01*
X72226Y-126301D01*
X69227D01*
X71226D02*
X73225Y-128300D01*
X75225D02*
X77224D01*
X76224D01*
Y-122302D01*
X75225Y-123302D01*
X84222Y-122302D02*
X82222Y-123302D01*
X80223Y-125301D01*
Y-127300D01*
X81223Y-128300D01*
X83222D01*
X84222Y-127300D01*
Y-126301D01*
X83222Y-125301D01*
X80223D01*
X90220Y-122302D02*
X86221D01*
Y-128300D01*
X90220D01*
X86221Y-125301D02*
X88221D01*
X69227Y-182100D02*
Y-176102D01*
X72226D01*
X73225Y-177102D01*
Y-179101D01*
X72226Y-180101D01*
X69227D01*
X71226D02*
X73225Y-182100D01*
X75225D02*
X77224D01*
X76224D01*
Y-176102D01*
X75225Y-177102D01*
X80223Y-176102D02*
X84222D01*
Y-177102D01*
X80223Y-181100D01*
Y-182100D01*
X86221D02*
Y-178101D01*
X88221Y-176102D01*
X90220Y-178101D01*
Y-182100D01*
Y-179101D01*
X86221D01*
X69227Y-204300D02*
Y-198302D01*
X72226D01*
X73225Y-199302D01*
Y-201301D01*
X72226Y-202301D01*
X69227D01*
X71226D02*
X73225Y-204300D01*
X75225D02*
X77224D01*
X76224D01*
Y-198302D01*
X75225Y-199302D01*
X80223Y-198302D02*
X84222D01*
Y-199302D01*
X80223Y-203300D01*
Y-204300D01*
X86221Y-198302D02*
Y-204300D01*
X89220D01*
X90220Y-203300D01*
Y-202301D01*
X89220Y-201301D01*
X86221D01*
X89220D01*
X90220Y-200301D01*
Y-199302D01*
X89220Y-198302D01*
X86221D01*
X69230Y-159300D02*
Y-153302D01*
X72229D01*
X73229Y-154302D01*
Y-156301D01*
X72229Y-157301D01*
X69230D01*
X71229D02*
X73229Y-159300D01*
X75228D02*
X77227D01*
X76228D01*
Y-153302D01*
X75228Y-154302D01*
X80226Y-153302D02*
X84225D01*
Y-154302D01*
X80226Y-158300D01*
Y-159300D01*
X90223Y-154302D02*
X89223Y-153302D01*
X87224D01*
X86224Y-154302D01*
Y-158300D01*
X87224Y-159300D01*
X89223D01*
X90223Y-158300D01*
X69227Y-115300D02*
Y-109302D01*
X72226D01*
X73225Y-110302D01*
Y-112301D01*
X72226Y-113301D01*
X69227D01*
X71226D02*
X73225Y-115300D01*
X75225D02*
X77224D01*
X76224D01*
Y-109302D01*
X75225Y-110302D01*
X80223Y-109302D02*
X84222D01*
Y-110302D01*
X80223Y-114300D01*
Y-115300D01*
X86221Y-109302D02*
Y-115300D01*
X89220D01*
X90220Y-114300D01*
Y-110302D01*
X89220Y-109302D01*
X86221D01*
X69227Y-137300D02*
Y-131302D01*
X72226D01*
X73225Y-132302D01*
Y-134301D01*
X72226Y-135301D01*
X69227D01*
X71226D02*
X73225Y-137300D01*
X75225D02*
X77224D01*
X76224D01*
Y-131302D01*
X75225Y-132302D01*
X80223Y-131302D02*
X84222D01*
Y-132302D01*
X80223Y-136300D01*
Y-137300D01*
X90220Y-131302D02*
X86221D01*
Y-137300D01*
X90220D01*
X86221Y-134301D02*
X88221D01*
X83500Y-169350D02*
Y-163352D01*
X86499D01*
X87499Y-164352D01*
Y-166351D01*
X86499Y-167351D01*
X83500D01*
X85499D02*
X87499Y-169350D01*
X89498Y-163352D02*
X93497D01*
X91497D01*
Y-169350D01*
X95496D02*
X97496D01*
X96496D01*
Y-163352D01*
X95496Y-164352D01*
X100495Y-169350D02*
Y-165351D01*
X102494Y-163352D01*
X104493Y-165351D01*
Y-169350D01*
Y-166351D01*
X100495D01*
X83500Y-191650D02*
Y-185652D01*
X86499D01*
X87499Y-186652D01*
Y-188651D01*
X86499Y-189651D01*
X83500D01*
X85499D02*
X87499Y-191650D01*
X89498Y-185652D02*
X93497D01*
X91497D01*
Y-191650D01*
X95496D02*
X97496D01*
X96496D01*
Y-185652D01*
X95496Y-186652D01*
X100495Y-185652D02*
Y-191650D01*
X103493D01*
X104493Y-190650D01*
Y-189651D01*
X103493Y-188651D01*
X100495D01*
X103493D01*
X104493Y-187651D01*
Y-186652D01*
X103493Y-185652D01*
X100495D01*
X83500Y-147050D02*
Y-141052D01*
X86499D01*
X87499Y-142052D01*
Y-144051D01*
X86499Y-145051D01*
X83500D01*
X85499D02*
X87499Y-147050D01*
X89498Y-141052D02*
X93497D01*
X91497D01*
Y-147050D01*
X95496D02*
X97496D01*
X96496D01*
Y-141052D01*
X95496Y-142052D01*
X104493D02*
X103493Y-141052D01*
X101494D01*
X100495Y-142052D01*
Y-146050D01*
X101494Y-147050D01*
X103493D01*
X104493Y-146050D01*
X83500Y-102450D02*
Y-96452D01*
X86499D01*
X87499Y-97452D01*
Y-99451D01*
X86499Y-100451D01*
X83500D01*
X85499D02*
X87499Y-102450D01*
X89498Y-96452D02*
X93497D01*
X91497D01*
Y-102450D01*
X95496D02*
X97496D01*
X96496D01*
Y-96452D01*
X95496Y-97452D01*
X100495Y-96452D02*
Y-102450D01*
X103493D01*
X104493Y-101450D01*
Y-97452D01*
X103493Y-96452D01*
X100495D01*
X83500Y-124750D02*
Y-118752D01*
X86499D01*
X87499Y-119752D01*
Y-121751D01*
X86499Y-122751D01*
X83500D01*
X85499D02*
X87499Y-124750D01*
X89498Y-118752D02*
X93497D01*
X91497D01*
Y-124750D01*
X95496D02*
X97496D01*
X96496D01*
Y-118752D01*
X95496Y-119752D01*
X104493Y-118752D02*
X100495D01*
Y-124750D01*
X104493D01*
X100495Y-121751D02*
X102494D01*
X-203357Y138589D02*
X-204190D01*
Y139422D01*
X-203357D01*
Y138589D01*
X-205110Y176289D02*
X-205943D01*
Y177122D01*
X-205110D01*
Y176289D01*
X241347Y71043D02*
Y70210D01*
X240513D01*
Y71043D01*
X241347D01*
X183711Y71043D02*
Y70210D01*
X182878D01*
Y71043D01*
X183711D01*
D69*
X-216600Y87300D02*
G03*
X-216600Y87300I-300J0D01*
G01*
X-198600D02*
G03*
X-198600Y87300I-300J0D01*
G01*
X232140Y-23015D02*
G03*
X232140Y-23015I-300J0D01*
G01*
X214140D02*
G03*
X214140Y-23015I-300J0D01*
G01*
X-207600Y59300D02*
G03*
X-207600Y59300I-300J0D01*
G01*
X223140Y-51015D02*
G03*
X223140Y-51015I-300J0D01*
G01*
X-259842Y-193701D02*
G03*
X-259842Y-193701I-15748J0D01*
G01*
X291339D02*
G03*
X291339Y-193701I-15748J0D01*
G01*
X291024Y280000D02*
G03*
X291024Y280000I-11024J0D01*
G01*
X-268976D02*
G03*
X-268976Y280000I-11024J0D01*
G01*
X271024Y-280000D02*
G03*
X271024Y-280000I-11024J0D01*
G01*
X-268976D02*
G03*
X-268976Y-280000I-11024J0D01*
G01*
X-66600Y69000D02*
X-65400D01*
X-66600Y63000D02*
X-65400D01*
X-34953Y66000D02*
X-33753D01*
X-34953Y60000D02*
X-33753D01*
X-11600Y66000D02*
X-10400D01*
X-11600Y60000D02*
X-10400D01*
X-66600Y71000D02*
X-65400D01*
X-66600Y77000D02*
X-65400D01*
X-34953Y69000D02*
X-33753D01*
X-34953Y75000D02*
X-33753D01*
X-11600Y69000D02*
X-10400D01*
X-11600Y75000D02*
X-10400D01*
X127696Y246600D02*
X132396D01*
X127696Y257800D02*
X132396D01*
X92400Y163700D02*
Y168400D01*
X103600Y163700D02*
Y168400D01*
X201483Y136700D02*
Y141400D01*
X212683Y136700D02*
Y141400D01*
X233600Y236600D02*
Y241300D01*
X222400Y236600D02*
Y241300D01*
X127700Y279600D02*
X132400D01*
X127700Y268400D02*
X132400D01*
X86600Y163600D02*
Y168300D01*
X75400Y163600D02*
Y168300D01*
X196517Y136600D02*
Y141300D01*
X185317Y136600D02*
Y141300D01*
X206400Y236700D02*
Y241400D01*
X217600Y236700D02*
Y241400D01*
X-216749Y95000D02*
Y96000D01*
Y95000D02*
X-216100Y94351D01*
X-216749Y92000D02*
Y93000D01*
X-216100Y93649D01*
Y94351D01*
X-216749Y92000D02*
X-205249D01*
Y96000D01*
X-216749D02*
X-205249D01*
X-198749Y95000D02*
Y96000D01*
Y95000D02*
X-198100Y94351D01*
X-198749Y92000D02*
Y93000D01*
X-198100Y93649D01*
Y94351D01*
X-198749Y92000D02*
X-187249D01*
Y96000D01*
X-198749D02*
X-187249D01*
X231991Y-15315D02*
Y-14315D01*
Y-15315D02*
X232640Y-15964D01*
X231991Y-18315D02*
Y-17315D01*
X232640Y-16666D01*
Y-15964D01*
X231991Y-18315D02*
X243491D01*
Y-14315D01*
X231991D02*
X243491D01*
X213991Y-15315D02*
Y-14315D01*
Y-15315D02*
X214640Y-15964D01*
X213991Y-18315D02*
Y-17315D01*
X214640Y-16666D01*
Y-15964D01*
X213991Y-18315D02*
X225491D01*
Y-14315D01*
X213991D02*
X225491D01*
X-207749Y67000D02*
Y68000D01*
Y67000D02*
X-207100Y66351D01*
X-207749Y64000D02*
Y65000D01*
X-207100Y65649D01*
Y66351D01*
X-207749Y64000D02*
X-196249D01*
Y68000D01*
X-207749D02*
X-196249D01*
X222991Y-43315D02*
Y-42315D01*
Y-43315D02*
X223640Y-43964D01*
X222991Y-46315D02*
Y-45315D01*
X223640Y-44666D01*
Y-43964D01*
X222991Y-46315D02*
X234491D01*
Y-42315D01*
X222991D02*
X234491D01*
X-192407Y178200D02*
X-191207D01*
X-192407Y183000D02*
X-191207D01*
X-247354Y183500D02*
Y184700D01*
X-250853Y183500D02*
Y184700D01*
X231400Y30800D02*
X232600D01*
X231400Y27300D02*
X232600D01*
X239435Y83746D02*
Y84947D01*
X234635Y83746D02*
Y84947D01*
X-192407Y193700D02*
X-191207D01*
X-192407Y198500D02*
X-191207D01*
X223935Y83746D02*
Y84947D01*
X219135Y83746D02*
Y84947D01*
X118700Y132700D02*
X124212D01*
X118700Y147300D02*
X124212D01*
X-146670Y255950D02*
Y261461D01*
X-132070Y255950D02*
Y261461D01*
X57968Y104842D02*
X59937D01*
X56984Y103858D02*
X57968Y104842D01*
X52063D02*
X54031D01*
X55016Y103858D01*
X56984D01*
X59937Y85158D02*
Y104842D01*
X52063Y85158D02*
X59937D01*
X52063D02*
Y104842D01*
X77400Y-67600D02*
X78600D01*
X77400Y-72400D02*
X78600D01*
X77400Y-77600D02*
X78600D01*
X77400Y-82400D02*
X78600D01*
X77400Y-37600D02*
X78600D01*
X77400Y-42400D02*
X78600D01*
X77400Y-62400D02*
X78600D01*
X77400Y-57600D02*
X78600D01*
X-44600Y-127600D02*
X-43400D01*
X-44600Y-132400D02*
X-43400D01*
X-44600Y-137600D02*
X-43400D01*
X-44600Y-142400D02*
X-43400D01*
X6400Y-148200D02*
X7600D01*
X6400Y-151700D02*
X7600D01*
X-43200Y-216600D02*
Y-215400D01*
X-46700Y-216600D02*
Y-215400D01*
X18800Y-41600D02*
Y-40400D01*
X15300Y-41600D02*
Y-40400D01*
X-44200Y-13600D02*
Y-12400D01*
X-47700Y-13600D02*
Y-12400D01*
X-48400Y-36600D02*
Y-35400D01*
X-43600Y-36600D02*
Y-35400D01*
X-80600Y-184000D02*
X-79400D01*
X-80600Y-178000D02*
X-79400D01*
X-80600Y-173000D02*
X-79400D01*
X-80600Y-167000D02*
X-79400D01*
X-80600Y-163000D02*
X-79400D01*
X-80600Y-157000D02*
X-79400D01*
X-61400Y-176800D02*
X-58600D01*
X-61400Y-183200D02*
X-58600D01*
X-61400Y-166800D02*
X-58600D01*
X-61400Y-173200D02*
X-58600D01*
X-72300Y-164200D02*
Y-155800D01*
X-48900Y-164200D02*
Y-155800D01*
X-71100Y-164200D02*
X-48900D01*
X-71100D02*
Y-155800D01*
X-48900D01*
X-190654Y155500D02*
X-189453D01*
X-190654Y160300D02*
X-189453D01*
X-190654Y140500D02*
X-189453D01*
X-190654Y145300D02*
X-189453D01*
X-245600Y145800D02*
Y147000D01*
X-249100Y145800D02*
Y147000D01*
X166300Y83746D02*
Y84947D01*
X161500Y83746D02*
Y84947D01*
X181800Y83746D02*
Y84947D01*
X177000Y83746D02*
Y84947D01*
X175300Y28800D02*
X176500D01*
X175300Y25300D02*
X176500D01*
X72400Y-185400D02*
X73600D01*
X72400Y-190200D02*
X73600D01*
X72400Y-180200D02*
X73600D01*
X72400Y-175400D02*
X73600D01*
X72400Y-207600D02*
X73600D01*
X72400Y-212400D02*
X73600D01*
X72400Y-202400D02*
X73600D01*
X72400Y-197600D02*
X73600D01*
X72400Y-162600D02*
X73600D01*
X72400Y-167400D02*
X73600D01*
X72400Y-158400D02*
X73600D01*
X72400Y-153600D02*
X73600D01*
X72400Y-118600D02*
X73600D01*
X72400Y-123400D02*
X73600D01*
X72400Y-113400D02*
X73600D01*
X72400Y-108600D02*
X73600D01*
X72400Y-140600D02*
X73600D01*
X72400Y-145400D02*
X73600D01*
X72400Y-136400D02*
X73600D01*
X72400Y-131600D02*
X73600D01*
X-259874Y96099D02*
X-260874D01*
X-260374D01*
Y93600D01*
X-260874Y93100D01*
X-261373D01*
X-261873Y93600D01*
X-258874Y93100D02*
X-257875D01*
X-258375D01*
Y96099D01*
X-258874Y95599D01*
X-254376Y93100D02*
X-256375D01*
X-254376Y95099D01*
Y95599D01*
X-254876Y96099D01*
X-255875D01*
X-256375Y95599D01*
X-264750Y88749D02*
X-265750D01*
X-265250D01*
Y85751D01*
X-264750Y86250D01*
X-270248Y88749D02*
Y85751D01*
X-271748D01*
X-272247Y86250D01*
Y87250D01*
X-271748Y87750D01*
X-270248D01*
X-273247Y88749D02*
X-274247D01*
X-273747D01*
Y86750D01*
X-273247D01*
X-275746Y88749D02*
Y86750D01*
X-277246D01*
X-277746Y87250D01*
Y88749D01*
X-283744D02*
X-281744D01*
X-283744Y86750D01*
Y86250D01*
X-283244Y85751D01*
X-282244D01*
X-281744Y86250D01*
X-286743Y88749D02*
X-284743D01*
X-286743Y86750D01*
Y86250D01*
X-286243Y85751D01*
X-285243D01*
X-284743Y86250D01*
X-287742Y87250D02*
X-289742D01*
X-292741Y86250D02*
X-292241Y85751D01*
X-291241D01*
X-290741Y86250D01*
Y88250D01*
X-291241Y88749D01*
X-292241D01*
X-292741Y88250D01*
Y87250D01*
X-291741D01*
X-294240Y86750D02*
X-295240D01*
X-295740Y87250D01*
Y88749D01*
X-294240D01*
X-293741Y88250D01*
X-294240Y87750D01*
X-295740D01*
X-296740Y86750D02*
Y88250D01*
X-297239Y88749D01*
X-298739D01*
Y86750D01*
X-300738Y89749D02*
X-301238D01*
X-301738Y89249D01*
Y86750D01*
X-300238D01*
X-299739Y87250D01*
Y88250D01*
X-300238Y88749D01*
X-301738D01*
X-304237D02*
X-303237D01*
X-302737Y88250D01*
Y87250D01*
X-303237Y86750D01*
X-304237D01*
X-304737Y87250D01*
Y87750D01*
X-302737D01*
X-308736Y85751D02*
Y88749D01*
X-309735Y87750D01*
X-310735Y88749D01*
Y85751D01*
X-311735Y88749D02*
X-312734D01*
X-312234D01*
Y86750D01*
X-311735D01*
X-314234D02*
Y88749D01*
Y87750D01*
X-314734Y87250D01*
X-315233Y86750D01*
X-315733D01*
X-318732Y88749D02*
X-317733D01*
X-317233Y88250D01*
Y87250D01*
X-317733Y86750D01*
X-318732D01*
X-319232Y87250D01*
Y87750D01*
X-317233D01*
X-325230Y86750D02*
X-323731D01*
X-323231Y87250D01*
Y88250D01*
X-323731Y88749D01*
X-325230D01*
X-326730D02*
X-327730D01*
X-328229Y88250D01*
Y87250D01*
X-327730Y86750D01*
X-326730D01*
X-326230Y87250D01*
Y88250D01*
X-326730Y88749D01*
X-329229D02*
Y86750D01*
X-330729D01*
X-331228Y87250D01*
Y88749D01*
X-332228D02*
Y86750D01*
X-333728D01*
X-334227Y87250D01*
Y88749D01*
X-336726D02*
X-335727D01*
X-335227Y88250D01*
Y87250D01*
X-335727Y86750D01*
X-336726D01*
X-337226Y87250D01*
Y87750D01*
X-335227D01*
X-340225Y86750D02*
X-338726D01*
X-338226Y87250D01*
Y88250D01*
X-338726Y88749D01*
X-340225D01*
X-341725Y86250D02*
Y86750D01*
X-341225D01*
X-342225D01*
X-341725D01*
Y88250D01*
X-342225Y88749D01*
X-344224D02*
X-345224D01*
X-345724Y88250D01*
Y87250D01*
X-345224Y86750D01*
X-344224D01*
X-343724Y87250D01*
Y88250D01*
X-344224Y88749D01*
X-346723Y86750D02*
Y88749D01*
Y87750D01*
X-347223Y87250D01*
X-347723Y86750D01*
X-348223D01*
X-259874Y88599D02*
X-260874D01*
X-260374D01*
Y86100D01*
X-260874Y85600D01*
X-261373D01*
X-261873Y86100D01*
X-258874Y85600D02*
X-257875D01*
X-258375D01*
Y88599D01*
X-258874Y88099D01*
X-256375Y85600D02*
X-255375D01*
X-255875D01*
Y88599D01*
X-256375Y88099D01*
X-264750Y81249D02*
X-265750D01*
X-265250D01*
Y78250D01*
X-264750Y78750D01*
X-270248Y81249D02*
Y78250D01*
X-271748D01*
X-272247Y78750D01*
Y79750D01*
X-271748Y80250D01*
X-270248D01*
X-273247Y81249D02*
X-274247D01*
X-273747D01*
Y79250D01*
X-273247D01*
X-275746Y81249D02*
Y79250D01*
X-277246D01*
X-277746Y79750D01*
Y81249D01*
X-283744D02*
X-281744D01*
X-283744Y79250D01*
Y78750D01*
X-283244Y78250D01*
X-282244D01*
X-281744Y78750D01*
X-286743Y81249D02*
X-284743D01*
X-286743Y79250D01*
Y78750D01*
X-286243Y78250D01*
X-285243D01*
X-284743Y78750D01*
X-287742Y79750D02*
X-289742D01*
X-292741Y78750D02*
X-292241Y78250D01*
X-291241D01*
X-290741Y78750D01*
Y80750D01*
X-291241Y81249D01*
X-292241D01*
X-292741Y80750D01*
Y79750D01*
X-291741D01*
X-294240Y79250D02*
X-295240D01*
X-295740Y79750D01*
Y81249D01*
X-294240D01*
X-293741Y80750D01*
X-294240Y80250D01*
X-295740D01*
X-296740Y79250D02*
Y80750D01*
X-297239Y81249D01*
X-298739D01*
Y79250D01*
X-300738Y82249D02*
X-301238D01*
X-301738Y81749D01*
Y79250D01*
X-300238D01*
X-299739Y79750D01*
Y80750D01*
X-300238Y81249D01*
X-301738D01*
X-304237D02*
X-303237D01*
X-302737Y80750D01*
Y79750D01*
X-303237Y79250D01*
X-304237D01*
X-304737Y79750D01*
Y80250D01*
X-302737D01*
X-308736Y78250D02*
Y81249D01*
X-309735Y80250D01*
X-310735Y81249D01*
Y78250D01*
X-311735Y81249D02*
X-312734D01*
X-312234D01*
Y79250D01*
X-311735D01*
X-314234D02*
Y81249D01*
Y80250D01*
X-314734Y79750D01*
X-315233Y79250D01*
X-315733D01*
X-318732Y81249D02*
X-317733D01*
X-317233Y80750D01*
Y79750D01*
X-317733Y79250D01*
X-318732D01*
X-319232Y79750D01*
Y80250D01*
X-317233D01*
X-325230Y79250D02*
X-323731D01*
X-323231Y79750D01*
Y80750D01*
X-323731Y81249D01*
X-325230D01*
X-326730D02*
X-327730D01*
X-328229Y80750D01*
Y79750D01*
X-327730Y79250D01*
X-326730D01*
X-326230Y79750D01*
Y80750D01*
X-326730Y81249D01*
X-329229D02*
Y79250D01*
X-330729D01*
X-331228Y79750D01*
Y81249D01*
X-332228D02*
Y79250D01*
X-333728D01*
X-334227Y79750D01*
Y81249D01*
X-336726D02*
X-335727D01*
X-335227Y80750D01*
Y79750D01*
X-335727Y79250D01*
X-336726D01*
X-337226Y79750D01*
Y80250D01*
X-335227D01*
X-340225Y79250D02*
X-338726D01*
X-338226Y79750D01*
Y80750D01*
X-338726Y81249D01*
X-340225D01*
X-341725Y78750D02*
Y79250D01*
X-341225D01*
X-342225D01*
X-341725D01*
Y80750D01*
X-342225Y81249D01*
X-344224D02*
X-345224D01*
X-345724Y80750D01*
Y79750D01*
X-345224Y79250D01*
X-344224D01*
X-343724Y79750D01*
Y80750D01*
X-344224Y81249D01*
X-346723Y79250D02*
Y81249D01*
Y80250D01*
X-347223Y79750D01*
X-347723Y79250D01*
X-348223D01*
X-260624Y64835D02*
X-261624D01*
X-261124D01*
Y62336D01*
X-261624Y61836D01*
X-262123D01*
X-262623Y62336D01*
X-259624Y61836D02*
X-258625D01*
X-259124D01*
Y64835D01*
X-259624Y64335D01*
X-257125D02*
X-256625Y64835D01*
X-255626D01*
X-255126Y64335D01*
Y62336D01*
X-255626Y61836D01*
X-256625D01*
X-257125Y62336D01*
Y64335D01*
X-254500Y54501D02*
X-253501D01*
X-254000D01*
Y57499D01*
X-254500Y57000D01*
X-249002Y54501D02*
Y57499D01*
X-247502D01*
X-247003Y57000D01*
Y56000D01*
X-247502Y55500D01*
X-249002D01*
X-246003Y54501D02*
X-245003D01*
X-245503D01*
Y56500D01*
X-246003D01*
X-243504Y54501D02*
Y56500D01*
X-242004D01*
X-241504Y56000D01*
Y54501D01*
X-235506D02*
X-237506D01*
X-235506Y56500D01*
Y57000D01*
X-236006Y57499D01*
X-237006D01*
X-237506Y57000D01*
X-232507Y54501D02*
X-234507D01*
X-232507Y56500D01*
Y57000D01*
X-233007Y57499D01*
X-234007D01*
X-234507Y57000D01*
X-231508Y56000D02*
X-229508D01*
X-226509Y57000D02*
X-227009Y57499D01*
X-228009D01*
X-228509Y57000D01*
Y55000D01*
X-228009Y54501D01*
X-227009D01*
X-226509Y55000D01*
Y56000D01*
X-227509D01*
X-225010Y56500D02*
X-224010D01*
X-223510Y56000D01*
Y54501D01*
X-225010D01*
X-225510Y55000D01*
X-225010Y55500D01*
X-223510D01*
X-222511Y56500D02*
Y55000D01*
X-222011Y54501D01*
X-220511D01*
Y56500D01*
X-218512Y53501D02*
X-218012D01*
X-217512Y54001D01*
Y56500D01*
X-219012D01*
X-219512Y56000D01*
Y55000D01*
X-219012Y54501D01*
X-217512D01*
X-215013D02*
X-216013D01*
X-216512Y55000D01*
Y56000D01*
X-216013Y56500D01*
X-215013D01*
X-214513Y56000D01*
Y55500D01*
X-216512D01*
X-210514Y57499D02*
Y54501D01*
X-209515Y55500D01*
X-208515Y54501D01*
Y57499D01*
X-207515Y54501D02*
X-206516D01*
X-207015D01*
Y56500D01*
X-207515D01*
X-205016D02*
Y54501D01*
Y55500D01*
X-204516Y56000D01*
X-204016Y56500D01*
X-203517D01*
X-200518Y54501D02*
X-201517D01*
X-202017Y55000D01*
Y56000D01*
X-201517Y56500D01*
X-200518D01*
X-200018Y56000D01*
Y55500D01*
X-202017D01*
X-194020Y56500D02*
X-195519D01*
X-196019Y56000D01*
Y55000D01*
X-195519Y54501D01*
X-194020D01*
X-192520D02*
X-191521D01*
X-191021Y55000D01*
Y56000D01*
X-191521Y56500D01*
X-192520D01*
X-193020Y56000D01*
Y55000D01*
X-192520Y54501D01*
X-190021D02*
Y56500D01*
X-188522D01*
X-188022Y56000D01*
Y54501D01*
X-187022D02*
Y56500D01*
X-185522D01*
X-185023Y56000D01*
Y54501D01*
X-182524D02*
X-183523D01*
X-184023Y55000D01*
Y56000D01*
X-183523Y56500D01*
X-182524D01*
X-182024Y56000D01*
Y55500D01*
X-184023D01*
X-179025Y56500D02*
X-180524D01*
X-181024Y56000D01*
Y55000D01*
X-180524Y54501D01*
X-179025D01*
X-177525Y57000D02*
Y56500D01*
X-178025D01*
X-177025D01*
X-177525D01*
Y55000D01*
X-177025Y54501D01*
X-175026D02*
X-174026D01*
X-173526Y55000D01*
Y56000D01*
X-174026Y56500D01*
X-175026D01*
X-175526Y56000D01*
Y55000D01*
X-175026Y54501D01*
X-172527Y56500D02*
Y54501D01*
Y55500D01*
X-172027Y56000D01*
X-171527Y56500D01*
X-171027D01*
X-260624Y74835D02*
X-261624D01*
X-261124D01*
Y72336D01*
X-261624Y71836D01*
X-262123D01*
X-262623Y72336D01*
X-259624D02*
X-259124Y71836D01*
X-258125D01*
X-257625Y72336D01*
Y74335D01*
X-258125Y74835D01*
X-259124D01*
X-259624Y74335D01*
Y73835D01*
X-259124Y73335D01*
X-257625D01*
X-254500Y64500D02*
X-253501D01*
X-254000D01*
Y67500D01*
X-254500Y67000D01*
X-249002Y64500D02*
Y67500D01*
X-247502D01*
X-247003Y67000D01*
Y66000D01*
X-247502Y65500D01*
X-249002D01*
X-246003Y64500D02*
X-245003D01*
X-245503D01*
Y66500D01*
X-246003D01*
X-243504Y64500D02*
Y66500D01*
X-242004D01*
X-241504Y66000D01*
Y64500D01*
X-235506D02*
X-237506D01*
X-235506Y66500D01*
Y67000D01*
X-236006Y67500D01*
X-237006D01*
X-237506Y67000D01*
X-232507Y64500D02*
X-234507D01*
X-232507Y66500D01*
Y67000D01*
X-233007Y67500D01*
X-234007D01*
X-234507Y67000D01*
X-231508Y66000D02*
X-229508D01*
X-226509Y67000D02*
X-227009Y67500D01*
X-228009D01*
X-228509Y67000D01*
Y65000D01*
X-228009Y64500D01*
X-227009D01*
X-226509Y65000D01*
Y66000D01*
X-227509D01*
X-225010Y66500D02*
X-224010D01*
X-223510Y66000D01*
Y64500D01*
X-225010D01*
X-225510Y65000D01*
X-225010Y65500D01*
X-223510D01*
X-222511Y66500D02*
Y65000D01*
X-222011Y64500D01*
X-220511D01*
Y66500D01*
X-218512Y63501D02*
X-218012D01*
X-217512Y64001D01*
Y66500D01*
X-219012D01*
X-219512Y66000D01*
Y65000D01*
X-219012Y64500D01*
X-217512D01*
X-215013D02*
X-216013D01*
X-216512Y65000D01*
Y66000D01*
X-216013Y66500D01*
X-215013D01*
X-214513Y66000D01*
Y65500D01*
X-216512D01*
X-210514Y67500D02*
Y64500D01*
X-209515Y65500D01*
X-208515Y64500D01*
Y67500D01*
X-207515Y64500D02*
X-206516D01*
X-207015D01*
Y66500D01*
X-207515D01*
X-205016D02*
Y64500D01*
Y65500D01*
X-204516Y66000D01*
X-204016Y66500D01*
X-203517D01*
X-200518Y64500D02*
X-201517D01*
X-202017Y65000D01*
Y66000D01*
X-201517Y66500D01*
X-200518D01*
X-200018Y66000D01*
Y65500D01*
X-202017D01*
X-194020Y66500D02*
X-195519D01*
X-196019Y66000D01*
Y65000D01*
X-195519Y64500D01*
X-194020D01*
X-192520D02*
X-191521D01*
X-191021Y65000D01*
Y66000D01*
X-191521Y66500D01*
X-192520D01*
X-193020Y66000D01*
Y65000D01*
X-192520Y64500D01*
X-190021D02*
Y66500D01*
X-188522D01*
X-188022Y66000D01*
Y64500D01*
X-187022D02*
Y66500D01*
X-185522D01*
X-185023Y66000D01*
Y64500D01*
X-182524D02*
X-183523D01*
X-184023Y65000D01*
Y66000D01*
X-183523Y66500D01*
X-182524D01*
X-182024Y66000D01*
Y65500D01*
X-184023D01*
X-179025Y66500D02*
X-180524D01*
X-181024Y66000D01*
Y65000D01*
X-180524Y64500D01*
X-179025D01*
X-177525Y67000D02*
Y66500D01*
X-178025D01*
X-177025D01*
X-177525D01*
Y65000D01*
X-177025Y64500D01*
X-175026D02*
X-174026D01*
X-173526Y65000D01*
Y66000D01*
X-174026Y66500D01*
X-175026D01*
X-175526Y66000D01*
Y65000D01*
X-175026Y64500D01*
X-172527Y66500D02*
Y64500D01*
Y65500D01*
X-172027Y66000D01*
X-171527Y66500D01*
X-171027D01*
X54527Y267000D02*
Y269999D01*
X56526Y267000D01*
Y269999D01*
X59025Y267000D02*
X58025D01*
X57526Y267500D01*
Y268499D01*
X58025Y268999D01*
X59025D01*
X59525Y268499D01*
Y268000D01*
X57526D01*
X61025Y269499D02*
Y268999D01*
X60525D01*
X61524D01*
X61025D01*
Y267500D01*
X61524Y267000D01*
X63024Y269999D02*
X65023D01*
X64024D01*
Y267000D01*
X66023D02*
X67023D01*
X66523D01*
Y268999D01*
X66023D01*
X70022Y267000D02*
X69022D01*
X68522Y267500D01*
Y268499D01*
X69022Y268999D01*
X70022D01*
X70521Y268499D01*
Y268000D01*
X68522D01*
X71521Y269499D02*
X72021Y269999D01*
X73021D01*
X73520Y269499D01*
Y268999D01*
X73021Y268499D01*
X72521D01*
X73021D01*
X73520Y268000D01*
Y267500D01*
X73021Y267000D01*
X72021D01*
X71521Y267500D01*
X-215173Y95499D02*
Y93000D01*
X-214673Y92500D01*
X-213674D01*
X-213174Y93000D01*
Y95499D01*
X-212174Y94999D02*
X-211674Y95499D01*
X-210675D01*
X-210175Y94999D01*
Y94499D01*
X-210675Y93999D01*
X-211175D01*
X-210675D01*
X-210175Y93500D01*
Y93000D01*
X-210675Y92500D01*
X-211674D01*
X-212174Y93000D01*
X-209175Y95499D02*
Y92500D01*
X-207676D01*
X-207176Y93000D01*
Y93500D01*
X-207676Y93999D01*
X-209175D01*
X-207676D01*
X-207176Y94499D01*
Y94999D01*
X-207676Y95499D01*
X-209175D01*
X-197173Y95545D02*
Y93045D01*
X-196674Y92546D01*
X-195674D01*
X-195174Y93045D01*
Y95545D01*
X-194174D02*
X-192175D01*
Y95045D01*
X-194174Y93045D01*
Y92546D01*
X-191175Y95545D02*
Y92546D01*
X-189676D01*
X-189176Y93045D01*
Y93545D01*
X-189676Y94045D01*
X-191175D01*
X-189676D01*
X-189176Y94545D01*
Y95045D01*
X-189676Y95545D01*
X-191175D01*
X233567Y-14770D02*
Y-17269D01*
X234067Y-17769D01*
X235066D01*
X235566Y-17269D01*
Y-14770D01*
X236566D02*
X238565D01*
Y-15270D01*
X236566Y-17269D01*
Y-17769D01*
X239565D02*
Y-15770D01*
X240565Y-14770D01*
X241564Y-15770D01*
Y-17769D01*
Y-16270D01*
X239565D01*
X-100974Y179999D02*
X-101474Y180499D01*
X-102473D01*
X-102973Y179999D01*
Y178000D01*
X-102473Y177500D01*
X-101474D01*
X-100974Y178000D01*
X-99974Y177500D02*
X-98975D01*
X-99475D01*
Y180499D01*
X-99974Y179999D01*
X198526Y165299D02*
X198026Y165799D01*
X197027D01*
X196527Y165299D01*
Y163300D01*
X197027Y162800D01*
X198026D01*
X198526Y163300D01*
X201525Y162800D02*
X199526D01*
X201525Y164799D01*
Y165299D01*
X201025Y165799D01*
X200026D01*
X199526Y165299D01*
X198526Y188799D02*
X198026Y189299D01*
X197027D01*
X196527Y188799D01*
Y186800D01*
X197027Y186300D01*
X198026D01*
X198526Y186800D01*
X199526Y188799D02*
X200026Y189299D01*
X201025D01*
X201525Y188799D01*
Y188299D01*
X201025Y187800D01*
X200525D01*
X201025D01*
X201525Y187300D01*
Y186800D01*
X201025Y186300D01*
X200026D01*
X199526Y186800D01*
X-46474Y-35001D02*
X-46974Y-34501D01*
X-47973D01*
X-48473Y-35001D01*
Y-37000D01*
X-47973Y-37500D01*
X-46974D01*
X-46474Y-37000D01*
X-43975Y-37500D02*
Y-34501D01*
X-45474Y-36000D01*
X-43475D01*
X6526Y-149001D02*
X6026Y-148501D01*
X5026D01*
X4527Y-149001D01*
Y-151000D01*
X5026Y-151500D01*
X6026D01*
X6526Y-151000D01*
X9525Y-148501D02*
X7526D01*
Y-150001D01*
X8525Y-149501D01*
X9025D01*
X9525Y-150001D01*
Y-151000D01*
X9025Y-151500D01*
X8026D01*
X7526Y-151000D01*
X-45474Y-215001D02*
X-45974Y-214501D01*
X-46973D01*
X-47473Y-215001D01*
Y-217000D01*
X-46973Y-217500D01*
X-45974D01*
X-45474Y-217000D01*
X-42475Y-214501D02*
X-43475Y-215001D01*
X-44474Y-216001D01*
Y-217000D01*
X-43975Y-217500D01*
X-42975D01*
X-42475Y-217000D01*
Y-216500D01*
X-42975Y-216001D01*
X-44474D01*
X16526Y-40001D02*
X16026Y-39501D01*
X15026D01*
X14527Y-40001D01*
Y-42000D01*
X15026Y-42500D01*
X16026D01*
X16526Y-42000D01*
X17526Y-39501D02*
X19525D01*
Y-40001D01*
X17526Y-42000D01*
Y-42500D01*
X-46474Y-12001D02*
X-46974Y-11501D01*
X-47973D01*
X-48473Y-12001D01*
Y-14000D01*
X-47973Y-14500D01*
X-46974D01*
X-46474Y-14000D01*
X-45474Y-12001D02*
X-44974Y-11501D01*
X-43975D01*
X-43475Y-12001D01*
Y-12501D01*
X-43975Y-13001D01*
X-43475Y-13500D01*
Y-14000D01*
X-43975Y-14500D01*
X-44974D01*
X-45474Y-14000D01*
Y-13500D01*
X-44974Y-13001D01*
X-45474Y-12501D01*
Y-12001D01*
X-44974Y-13001D02*
X-43975D01*
X68026Y199499D02*
X67526Y199999D01*
X66527D01*
X66027Y199499D01*
Y197500D01*
X66527Y197000D01*
X67526D01*
X68026Y197500D01*
X69026D02*
X69525Y197000D01*
X70525D01*
X71025Y197500D01*
Y199499D01*
X70525Y199999D01*
X69525D01*
X69026Y199499D01*
Y198999D01*
X69525Y198500D01*
X71025D01*
X66726Y226499D02*
X66226Y226999D01*
X65227D01*
X64727Y226499D01*
Y224500D01*
X65227Y224000D01*
X66226D01*
X66726Y224500D01*
X67726Y224000D02*
X68725D01*
X68226D01*
Y226999D01*
X67726Y226499D01*
X70225D02*
X70725Y226999D01*
X71724D01*
X72224Y226499D01*
Y224500D01*
X71724Y224000D01*
X70725D01*
X70225Y224500D01*
Y226499D01*
X-252374Y185099D02*
X-252874Y185599D01*
X-253873D01*
X-254373Y185099D01*
Y183100D01*
X-253873Y182600D01*
X-252874D01*
X-252374Y183100D01*
X-251374Y182600D02*
X-250375D01*
X-250874D01*
Y185599D01*
X-251374Y185099D01*
X-246876Y185599D02*
X-248875D01*
Y184099D01*
X-247875Y184599D01*
X-247376D01*
X-246876Y184099D01*
Y183100D01*
X-247376Y182600D01*
X-248375D01*
X-248875Y183100D01*
X-245876Y182600D02*
Y184599D01*
X-244876Y185599D01*
X-243877Y184599D01*
Y182600D01*
Y184099D01*
X-245876D01*
X-250674Y147399D02*
X-251174Y147899D01*
X-252173D01*
X-252673Y147399D01*
Y145400D01*
X-252173Y144900D01*
X-251174D01*
X-250674Y145400D01*
X-249674Y144900D02*
X-248675D01*
X-249174D01*
Y147899D01*
X-249674Y147399D01*
X-245176Y147899D02*
X-247175D01*
Y146399D01*
X-246175Y146899D01*
X-245676D01*
X-245176Y146399D01*
Y145400D01*
X-245676Y144900D01*
X-246675D01*
X-247175Y145400D01*
X-244176Y147899D02*
Y144900D01*
X-242677D01*
X-242177Y145400D01*
Y145900D01*
X-242677Y146399D01*
X-244176D01*
X-242677D01*
X-242177Y146899D01*
Y147399D01*
X-242677Y147899D01*
X-244176D01*
X228791Y29999D02*
X228291Y30499D01*
X227291D01*
X226791Y29999D01*
Y28000D01*
X227291Y27500D01*
X228291D01*
X228791Y28000D01*
X229790Y27500D02*
X230790D01*
X230290D01*
Y30499D01*
X229790Y29999D01*
X234289Y30499D02*
X232290D01*
Y28999D01*
X233289Y29499D01*
X233789D01*
X234289Y28999D01*
Y28000D01*
X233789Y27500D01*
X232789D01*
X232290Y28000D01*
X237288Y29999D02*
X236788Y30499D01*
X235788D01*
X235289Y29999D01*
Y28000D01*
X235788Y27500D01*
X236788D01*
X237288Y28000D01*
X172626Y27999D02*
X172126Y28499D01*
X171126D01*
X170627Y27999D01*
Y26000D01*
X171126Y25500D01*
X172126D01*
X172626Y26000D01*
X173626Y25500D02*
X174625D01*
X174126D01*
Y28499D01*
X173626Y27999D01*
X178124Y28499D02*
X176125D01*
Y27000D01*
X177125Y27499D01*
X177624D01*
X178124Y27000D01*
Y26000D01*
X177624Y25500D01*
X176625D01*
X176125Y26000D01*
X179124Y28499D02*
Y25500D01*
X180623D01*
X181123Y26000D01*
Y27999D01*
X180623Y28499D01*
X179124D01*
X-257274Y42999D02*
X-257774Y43499D01*
X-258773D01*
X-259273Y42999D01*
Y41000D01*
X-258773Y40500D01*
X-257774D01*
X-257274Y41000D01*
X-256274Y40500D02*
X-255275D01*
X-255774D01*
Y43499D01*
X-256274Y42999D01*
X-253775Y40500D02*
X-252775D01*
X-253275D01*
Y43499D01*
X-253775Y42999D01*
X-256474Y-1D02*
X-256974Y499D01*
X-257974D01*
X-258473Y-1D01*
Y-2000D01*
X-257974Y-2500D01*
X-256974D01*
X-256474Y-2000D01*
X-255474Y-2500D02*
X-254475D01*
X-254975D01*
Y499D01*
X-255474Y-1D01*
X-250976Y-2500D02*
X-252975D01*
X-250976Y-501D01*
Y-1D01*
X-251476Y499D01*
X-252475D01*
X-252975Y-1D01*
X88527Y248699D02*
Y245700D01*
X90026D01*
X90526Y246200D01*
Y248199D01*
X90026Y248699D01*
X88527D01*
X91526Y245700D02*
X92525D01*
X92026D01*
Y248699D01*
X91526Y248199D01*
X88027Y263799D02*
Y260800D01*
X89526D01*
X90026Y261300D01*
Y263299D01*
X89526Y263799D01*
X88027D01*
X93025Y260800D02*
X91026D01*
X93025Y262799D01*
Y263299D01*
X92525Y263799D01*
X91526D01*
X91026Y263299D01*
X44627Y248699D02*
Y245700D01*
X46126D01*
X46626Y246200D01*
Y248199D01*
X46126Y248699D01*
X44627D01*
X47626Y248199D02*
X48125Y248699D01*
X49125D01*
X49625Y248199D01*
Y247699D01*
X49125Y247199D01*
X48625D01*
X49125D01*
X49625Y246700D01*
Y246200D01*
X49125Y245700D01*
X48125D01*
X47626Y246200D01*
X44627Y263799D02*
Y260800D01*
X46126D01*
X46626Y261300D01*
Y263299D01*
X46126Y263799D01*
X44627D01*
X49125Y260800D02*
Y263799D01*
X47626Y262299D01*
X49625D01*
X-63073Y-178501D02*
Y-181500D01*
X-61574D01*
X-61074Y-181000D01*
Y-179001D01*
X-61574Y-178501D01*
X-63073D01*
X-58075D02*
X-60074D01*
Y-180000D01*
X-59075Y-179501D01*
X-58575D01*
X-58075Y-180000D01*
Y-181000D01*
X-58575Y-181500D01*
X-59575D01*
X-60074Y-181000D01*
X-63073Y-168501D02*
Y-171500D01*
X-61574D01*
X-61074Y-171000D01*
Y-169001D01*
X-61574Y-168501D01*
X-63073D01*
X-58075D02*
X-59075Y-169001D01*
X-60074Y-170001D01*
Y-171000D01*
X-59575Y-171500D01*
X-58575D01*
X-58075Y-171000D01*
Y-170500D01*
X-58575Y-170001D01*
X-60074D01*
X-63073Y-158501D02*
Y-161500D01*
X-61574D01*
X-61074Y-161000D01*
Y-159001D01*
X-61574Y-158501D01*
X-63073D01*
X-60074D02*
X-58075D01*
Y-159001D01*
X-60074Y-161000D01*
Y-161500D01*
X-263020Y189499D02*
Y186500D01*
X-261520D01*
X-261020Y187000D01*
Y188999D01*
X-261520Y189499D01*
X-263020D01*
X-260021Y188999D02*
X-259521Y189499D01*
X-258521D01*
X-258021Y188999D01*
Y188499D01*
X-258521Y187999D01*
X-258021Y187500D01*
Y187000D01*
X-258521Y186500D01*
X-259521D01*
X-260021Y187000D01*
Y187500D01*
X-259521Y187999D01*
X-260021Y188499D01*
Y188999D01*
X-259521Y187999D02*
X-258521D01*
X-257022Y186500D02*
Y188499D01*
X-256022Y189499D01*
X-255022Y188499D01*
Y186500D01*
Y187999D01*
X-257022D01*
X-260973Y151499D02*
Y148500D01*
X-259474D01*
X-258974Y149000D01*
Y150999D01*
X-259474Y151499D01*
X-260973D01*
X-257974Y150999D02*
X-257474Y151499D01*
X-256475D01*
X-255975Y150999D01*
Y150499D01*
X-256475Y149999D01*
X-255975Y149500D01*
Y149000D01*
X-256475Y148500D01*
X-257474D01*
X-257974Y149000D01*
Y149500D01*
X-257474Y149999D01*
X-257974Y150499D01*
Y150999D01*
X-257474Y149999D02*
X-256475D01*
X-254975Y151499D02*
Y148500D01*
X-253476D01*
X-252976Y149000D01*
Y149500D01*
X-253476Y149999D01*
X-254975D01*
X-253476D01*
X-252976Y150499D01*
Y150999D01*
X-253476Y151499D01*
X-254975D01*
X225527Y18499D02*
Y15500D01*
X227026D01*
X227526Y16000D01*
Y17999D01*
X227026Y18499D01*
X225527D01*
X228526Y17999D02*
X229026Y18499D01*
X230025D01*
X230525Y17999D01*
Y17499D01*
X230025Y16999D01*
X230525Y16500D01*
Y16000D01*
X230025Y15500D01*
X229026D01*
X228526Y16000D01*
Y16500D01*
X229026Y16999D01*
X228526Y17499D01*
Y17999D01*
X229026Y16999D02*
X230025D01*
X233524Y17999D02*
X233024Y18499D01*
X232025D01*
X231525Y17999D01*
Y16000D01*
X232025Y15500D01*
X233024D01*
X233524Y16000D01*
X167927Y18499D02*
Y15500D01*
X169426D01*
X169926Y16000D01*
Y17999D01*
X169426Y18499D01*
X167927D01*
X170926Y17999D02*
X171425Y18499D01*
X172425D01*
X172925Y17999D01*
Y17499D01*
X172425Y16999D01*
X172925Y16500D01*
Y16000D01*
X172425Y15500D01*
X171425D01*
X170926Y16000D01*
Y16500D01*
X171425Y16999D01*
X170926Y17499D01*
Y17999D01*
X171425Y16999D02*
X172425D01*
X173925Y18499D02*
Y15500D01*
X175424D01*
X175924Y16000D01*
Y17999D01*
X175424Y18499D01*
X173925D01*
X162126Y-58501D02*
X161126D01*
X161626D01*
Y-61000D01*
X161126Y-61500D01*
X160626D01*
X160127Y-61000D01*
X164625Y-61500D02*
Y-58501D01*
X163126Y-60000D01*
X165125D01*
X91526Y-58501D02*
X90526D01*
X91026D01*
Y-61000D01*
X90526Y-61500D01*
X90026D01*
X89527Y-61000D01*
X94525Y-58501D02*
X92526D01*
Y-60000D01*
X93525Y-59501D01*
X94025D01*
X94525Y-60000D01*
Y-61000D01*
X94025Y-61500D01*
X93025D01*
X92526Y-61000D01*
X-169473Y276500D02*
Y279499D01*
X-167474Y276500D01*
Y279499D01*
X-164975Y276500D02*
X-165974D01*
X-166474Y277000D01*
Y277999D01*
X-165974Y278499D01*
X-164975D01*
X-164475Y277999D01*
Y277500D01*
X-166474D01*
X-162975Y278999D02*
Y278499D01*
X-163475D01*
X-162476D01*
X-162975D01*
Y277000D01*
X-162476Y276500D01*
X-160976Y279499D02*
X-158977D01*
X-159976D01*
Y276500D01*
X-157977D02*
X-156977D01*
X-157477D01*
Y278499D01*
X-157977D01*
X-153978Y276500D02*
X-154978D01*
X-155478Y277000D01*
Y277999D01*
X-154978Y278499D01*
X-153978D01*
X-153479Y277999D01*
Y277500D01*
X-155478D01*
X-150479Y276500D02*
X-152479D01*
X-150479Y278499D01*
Y278999D01*
X-150979Y279499D01*
X-151979D01*
X-152479Y278999D01*
X-66974Y147900D02*
Y149899D01*
X-67474Y150399D01*
X-68474D01*
X-68973Y149899D01*
Y147900D01*
X-68474Y147400D01*
X-67474D01*
X-67974Y148400D02*
X-66974Y147400D01*
X-67474D02*
X-66974Y147900D01*
X-65974Y147400D02*
X-64975D01*
X-65474D01*
Y150399D01*
X-65974Y149899D01*
X-67474Y209400D02*
Y211399D01*
X-67974Y211899D01*
X-68973D01*
X-69473Y211399D01*
Y209400D01*
X-68973Y208900D01*
X-67974D01*
X-68474Y209900D02*
X-67474Y208900D01*
X-67974D02*
X-67474Y209400D01*
X-64475Y208900D02*
X-66474D01*
X-64475Y210899D01*
Y211399D01*
X-64975Y211899D01*
X-65974D01*
X-66474Y211399D01*
X-137474Y147900D02*
Y149899D01*
X-137974Y150399D01*
X-138973D01*
X-139473Y149899D01*
Y147900D01*
X-138973Y147400D01*
X-137974D01*
X-138474Y148400D02*
X-137474Y147400D01*
X-137974D02*
X-137474Y147900D01*
X-136474Y149899D02*
X-135975Y150399D01*
X-134975D01*
X-134475Y149899D01*
Y149399D01*
X-134975Y148899D01*
X-135475D01*
X-134975D01*
X-134475Y148400D01*
Y147900D01*
X-134975Y147400D01*
X-135975D01*
X-136474Y147900D01*
X-137474Y209400D02*
Y211399D01*
X-137974Y211899D01*
X-138973D01*
X-139473Y211399D01*
Y209400D01*
X-138973Y208900D01*
X-137974D01*
X-138474Y209900D02*
X-137474Y208900D01*
X-137974D02*
X-137474Y209400D01*
X-134975Y208900D02*
Y211899D01*
X-136474Y210399D01*
X-134475D01*
X155026Y201000D02*
Y202999D01*
X154526Y203499D01*
X153526D01*
X153027Y202999D01*
Y201000D01*
X153526Y200500D01*
X154526D01*
X154026Y201500D02*
X155026Y200500D01*
X154526D02*
X155026Y201000D01*
X158025Y203499D02*
X156026D01*
Y201999D01*
X157025Y202499D01*
X157525D01*
X158025Y201999D01*
Y201000D01*
X157525Y200500D01*
X156526D01*
X156026Y201000D01*
X240026D02*
Y202999D01*
X239526Y203499D01*
X238527D01*
X238027Y202999D01*
Y201000D01*
X238527Y200500D01*
X239526D01*
X239026Y201500D02*
X240026Y200500D01*
X239526D02*
X240026Y201000D01*
X243025Y203499D02*
X242025Y202999D01*
X241026Y201999D01*
Y201000D01*
X241526Y200500D01*
X242525D01*
X243025Y201000D01*
Y201500D01*
X242525Y201999D01*
X241026D01*
X155026Y150000D02*
Y151999D01*
X154526Y152499D01*
X153526D01*
X153027Y151999D01*
Y150000D01*
X153526Y149500D01*
X154526D01*
X154026Y150500D02*
X155026Y149500D01*
X154526D02*
X155026Y150000D01*
X156026Y152499D02*
X158025D01*
Y151999D01*
X156026Y150000D01*
Y149500D01*
X240026Y150000D02*
Y151999D01*
X239526Y152499D01*
X238527D01*
X238027Y151999D01*
Y150000D01*
X238527Y149500D01*
X239526D01*
X239026Y150500D02*
X240026Y149500D01*
X239526D02*
X240026Y150000D01*
X241026Y151999D02*
X241526Y152499D01*
X242525D01*
X243025Y151999D01*
Y151499D01*
X242525Y150999D01*
X243025Y150500D01*
Y150000D01*
X242525Y149500D01*
X241526D01*
X241026Y150000D01*
Y150500D01*
X241526Y150999D01*
X241026Y151499D01*
Y151999D01*
X241526Y150999D02*
X242525D01*
X-141843Y257161D02*
Y260160D01*
X-140344D01*
X-139844Y259661D01*
Y258661D01*
X-140344Y258161D01*
X-141843D01*
X-140844D02*
X-139844Y257161D01*
X-136845D02*
X-138844D01*
X-136845Y259161D01*
Y259661D01*
X-137345Y260160D01*
X-138345D01*
X-138844Y259661D01*
X119027Y138500D02*
Y141499D01*
X120526D01*
X121026Y140999D01*
Y139999D01*
X120526Y139500D01*
X119027D01*
X120026D02*
X121026Y138500D01*
X122026Y140999D02*
X122526Y141499D01*
X123525D01*
X124025Y140999D01*
Y140499D01*
X123525Y139999D01*
X123025D01*
X123525D01*
X124025Y139500D01*
Y139000D01*
X123525Y138500D01*
X122526D01*
X122026Y139000D01*
X75527Y-61500D02*
Y-58501D01*
X77026D01*
X77526Y-59001D01*
Y-60000D01*
X77026Y-60500D01*
X75527D01*
X76526D02*
X77526Y-61500D01*
X80025D02*
Y-58501D01*
X78526Y-60000D01*
X80525D01*
X75527Y-41500D02*
Y-38501D01*
X77026D01*
X77526Y-39001D01*
Y-40001D01*
X77026Y-40500D01*
X75527D01*
X76526D02*
X77526Y-41500D01*
X80525Y-38501D02*
X78526D01*
Y-40001D01*
X79525Y-39501D01*
X80025D01*
X80525Y-40001D01*
Y-41000D01*
X80025Y-41500D01*
X79026D01*
X78526Y-41000D01*
X75527Y-81500D02*
Y-78501D01*
X77026D01*
X77526Y-79001D01*
Y-80001D01*
X77026Y-80500D01*
X75527D01*
X76526D02*
X77526Y-81500D01*
X80525Y-78501D02*
X79525Y-79001D01*
X78526Y-80001D01*
Y-81000D01*
X79026Y-81500D01*
X80025D01*
X80525Y-81000D01*
Y-80500D01*
X80025Y-80001D01*
X78526D01*
X75527Y-71500D02*
Y-68501D01*
X77026D01*
X77526Y-69001D01*
Y-70000D01*
X77026Y-70500D01*
X75527D01*
X76526D02*
X77526Y-71500D01*
X78526Y-68501D02*
X80525D01*
Y-69001D01*
X78526Y-71000D01*
Y-71500D01*
X-82464Y-182490D02*
Y-179491D01*
X-80964D01*
X-80464Y-179991D01*
Y-180990D01*
X-80964Y-181490D01*
X-82464D01*
X-81464D02*
X-80464Y-182490D01*
X-79465Y-179991D02*
X-78965Y-179491D01*
X-77965D01*
X-77465Y-179991D01*
Y-180491D01*
X-77965Y-180990D01*
X-77465Y-181490D01*
Y-181990D01*
X-77965Y-182490D01*
X-78965D01*
X-79465Y-181990D01*
Y-181490D01*
X-78965Y-180990D01*
X-79465Y-180491D01*
Y-179991D01*
X-78965Y-180990D02*
X-77965D01*
X-82489Y-171490D02*
Y-168491D01*
X-80989D01*
X-80490Y-168991D01*
Y-169990D01*
X-80989Y-170490D01*
X-82489D01*
X-81489D02*
X-80490Y-171490D01*
X-79490Y-170990D02*
X-78990Y-171490D01*
X-77990D01*
X-77491Y-170990D01*
Y-168991D01*
X-77990Y-168491D01*
X-78990D01*
X-79490Y-168991D01*
Y-169491D01*
X-78990Y-169990D01*
X-77491D01*
X-83773Y-161500D02*
Y-158501D01*
X-82274D01*
X-81774Y-159001D01*
Y-160001D01*
X-82274Y-160500D01*
X-83773D01*
X-82774D02*
X-81774Y-161500D01*
X-80774D02*
X-79775D01*
X-80274D01*
Y-158501D01*
X-80774Y-159001D01*
X-78275D02*
X-77775Y-158501D01*
X-76776D01*
X-76276Y-159001D01*
Y-161000D01*
X-76776Y-161500D01*
X-77775D01*
X-78275Y-161000D01*
Y-159001D01*
X-15973Y70500D02*
Y73499D01*
X-14474D01*
X-13974Y72999D01*
Y72000D01*
X-14474Y71500D01*
X-15973D01*
X-14974D02*
X-13974Y70500D01*
X-12974D02*
X-11975D01*
X-12474D01*
Y73499D01*
X-12974Y72999D01*
X-10475Y70500D02*
X-9475D01*
X-9975D01*
Y73499D01*
X-10475Y72999D01*
X-7976Y70500D02*
Y72499D01*
X-6976Y73499D01*
X-5977Y72499D01*
Y70500D01*
Y72000D01*
X-7976D01*
X-39327Y70500D02*
Y73499D01*
X-37827D01*
X-37327Y72999D01*
Y72000D01*
X-37827Y71500D01*
X-39327D01*
X-38327D02*
X-37327Y70500D01*
X-36327D02*
X-35328D01*
X-35828D01*
Y73499D01*
X-36327Y72999D01*
X-33828Y70500D02*
X-32829D01*
X-33328D01*
Y73499D01*
X-33828Y72999D01*
X-31329Y73499D02*
Y70500D01*
X-29830D01*
X-29330Y71000D01*
Y71500D01*
X-29830Y72000D01*
X-31329D01*
X-29830D01*
X-29330Y72499D01*
Y72999D01*
X-29830Y73499D01*
X-31329D01*
X-70973Y72500D02*
Y75499D01*
X-69474D01*
X-68974Y74999D01*
Y74000D01*
X-69474Y73500D01*
X-70973D01*
X-69974D02*
X-68974Y72500D01*
X-67974D02*
X-66975D01*
X-67475D01*
Y75499D01*
X-67974Y74999D01*
X-65475Y72500D02*
X-64475D01*
X-64975D01*
Y75499D01*
X-65475Y74999D01*
X-60977D02*
X-61476Y75499D01*
X-62476D01*
X-62976Y74999D01*
Y73000D01*
X-62476Y72500D01*
X-61476D01*
X-60977Y73000D01*
X-16517Y61459D02*
Y64458D01*
X-15017D01*
X-14517Y63958D01*
Y62959D01*
X-15017Y62459D01*
X-16517D01*
X-15517D02*
X-14517Y61459D01*
X-11518D02*
X-13518D01*
X-11518Y63458D01*
Y63958D01*
X-12018Y64458D01*
X-13018D01*
X-13518Y63958D01*
X-10519D02*
X-10019Y64458D01*
X-9019D01*
X-8519Y63958D01*
Y61959D01*
X-9019Y61459D01*
X-10019D01*
X-10519Y61959D01*
Y63958D01*
X-7519Y61459D02*
Y63458D01*
X-6520Y64458D01*
X-5520Y63458D01*
Y61459D01*
Y62959D01*
X-7519D01*
X-197073Y179100D02*
Y182099D01*
X-195574D01*
X-195074Y181599D01*
Y180599D01*
X-195574Y180100D01*
X-197073D01*
X-196074D02*
X-195074Y179100D01*
X-194074D02*
X-193075D01*
X-193575D01*
Y182099D01*
X-194074Y181599D01*
X-189576Y179100D02*
X-191575D01*
X-189576Y181099D01*
Y181599D01*
X-190076Y182099D01*
X-191075D01*
X-191575Y181599D01*
X-188576Y179100D02*
Y181099D01*
X-187576Y182099D01*
X-186577Y181099D01*
Y179100D01*
Y180599D01*
X-188576D01*
X-39870Y61459D02*
Y64458D01*
X-38370D01*
X-37870Y63958D01*
Y62959D01*
X-38370Y62459D01*
X-39870D01*
X-38870D02*
X-37870Y61459D01*
X-34871D02*
X-36871D01*
X-34871Y63458D01*
Y63958D01*
X-35371Y64458D01*
X-36371D01*
X-36871Y63958D01*
X-33872D02*
X-33372Y64458D01*
X-32372D01*
X-31872Y63958D01*
Y61959D01*
X-32372Y61459D01*
X-33372D01*
X-33872Y61959D01*
Y63958D01*
X-30873Y64458D02*
Y61459D01*
X-29373D01*
X-28873Y61959D01*
Y62459D01*
X-29373Y62959D01*
X-30873D01*
X-29373D01*
X-28873Y63458D01*
Y63958D01*
X-29373Y64458D01*
X-30873D01*
X-195273Y141400D02*
Y144399D01*
X-193774D01*
X-193274Y143899D01*
Y142900D01*
X-193774Y142400D01*
X-195273D01*
X-194274D02*
X-193274Y141400D01*
X-192274D02*
X-191275D01*
X-191774D01*
Y144399D01*
X-192274Y143899D01*
X-187776Y141400D02*
X-189775D01*
X-187776Y143399D01*
Y143899D01*
X-188276Y144399D01*
X-189275D01*
X-189775Y143899D01*
X-186776Y144399D02*
Y141400D01*
X-185277D01*
X-184777Y141900D01*
Y142400D01*
X-185277Y142900D01*
X-186776D01*
X-185277D01*
X-184777Y143399D01*
Y143899D01*
X-185277Y144399D01*
X-186776D01*
X-71473Y64500D02*
Y67499D01*
X-69974D01*
X-69474Y66999D01*
Y66000D01*
X-69974Y65500D01*
X-71473D01*
X-70474D02*
X-69474Y64500D01*
X-66475D02*
X-68474D01*
X-66475Y66499D01*
Y66999D01*
X-66975Y67499D01*
X-67975D01*
X-68474Y66999D01*
X-65475D02*
X-64975Y67499D01*
X-63976D01*
X-63476Y66999D01*
Y65000D01*
X-63976Y64500D01*
X-64975D01*
X-65475Y65000D01*
Y66999D01*
X-60477D02*
X-60977Y67499D01*
X-61976D01*
X-62476Y66999D01*
Y65000D01*
X-61976Y64500D01*
X-60977D01*
X-60477Y65000D01*
X231827Y82800D02*
Y85799D01*
X233326D01*
X233826Y85299D01*
Y84299D01*
X233326Y83800D01*
X231827D01*
X232826D02*
X233826Y82800D01*
X234826D02*
X235825D01*
X235326D01*
Y85799D01*
X234826Y85299D01*
X239324Y82800D02*
X237325D01*
X239324Y84799D01*
Y85299D01*
X238824Y85799D01*
X237825D01*
X237325Y85299D01*
X242323D02*
X241823Y85799D01*
X240824D01*
X240324Y85299D01*
Y83300D01*
X240824Y82800D01*
X241823D01*
X242323Y83300D01*
X174127Y82800D02*
Y85799D01*
X175626D01*
X176126Y85299D01*
Y84299D01*
X175626Y83800D01*
X174127D01*
X175126D02*
X176126Y82800D01*
X177126D02*
X178125D01*
X177626D01*
Y85799D01*
X177126Y85299D01*
X181624Y82800D02*
X179625D01*
X181624Y84799D01*
Y85299D01*
X181124Y85799D01*
X180125D01*
X179625Y85299D01*
X182624Y85799D02*
Y82800D01*
X184123D01*
X184623Y83300D01*
Y85299D01*
X184123Y85799D01*
X182624D01*
X-197073Y194600D02*
Y197599D01*
X-195574D01*
X-195074Y197099D01*
Y196099D01*
X-195574Y195600D01*
X-197073D01*
X-196074D02*
X-195074Y194600D01*
X-194074D02*
X-193075D01*
X-193575D01*
Y197599D01*
X-194074Y197099D01*
X-191575D02*
X-191075Y197599D01*
X-190076D01*
X-189576Y197099D01*
Y196599D01*
X-190076Y196099D01*
X-190575D01*
X-190076D01*
X-189576Y195600D01*
Y195100D01*
X-190076Y194600D01*
X-191075D01*
X-191575Y195100D01*
X-188576Y194600D02*
Y196599D01*
X-187576Y197599D01*
X-186577Y196599D01*
Y194600D01*
Y196099D01*
X-188576D01*
X-195273Y156400D02*
Y159399D01*
X-193774D01*
X-193274Y158899D01*
Y157899D01*
X-193774Y157400D01*
X-195273D01*
X-194274D02*
X-193274Y156400D01*
X-192274D02*
X-191275D01*
X-191774D01*
Y159399D01*
X-192274Y158899D01*
X-189775D02*
X-189275Y159399D01*
X-188276D01*
X-187776Y158899D01*
Y158399D01*
X-188276Y157899D01*
X-188775D01*
X-188276D01*
X-187776Y157400D01*
Y156900D01*
X-188276Y156400D01*
X-189275D01*
X-189775Y156900D01*
X-186776Y159399D02*
Y156400D01*
X-185277D01*
X-184777Y156900D01*
Y157400D01*
X-185277Y157899D01*
X-186776D01*
X-185277D01*
X-184777Y158399D01*
Y158899D01*
X-185277Y159399D01*
X-186776D01*
X216327Y82800D02*
Y85799D01*
X217826D01*
X218326Y85299D01*
Y84299D01*
X217826Y83800D01*
X216327D01*
X217326D02*
X218326Y82800D01*
X219326D02*
X220325D01*
X219826D01*
Y85799D01*
X219326Y85299D01*
X221825D02*
X222325Y85799D01*
X223324D01*
X223824Y85299D01*
Y84799D01*
X223324Y84299D01*
X222825D01*
X223324D01*
X223824Y83800D01*
Y83300D01*
X223324Y82800D01*
X222325D01*
X221825Y83300D01*
X226823Y85299D02*
X226323Y85799D01*
X225324D01*
X224824Y85299D01*
Y83300D01*
X225324Y82800D01*
X226323D01*
X226823Y83300D01*
X158627Y82800D02*
Y85799D01*
X160126D01*
X160626Y85299D01*
Y84299D01*
X160126Y83800D01*
X158627D01*
X159626D02*
X160626Y82800D01*
X161626D02*
X162625D01*
X162126D01*
Y85799D01*
X161626Y85299D01*
X164125D02*
X164625Y85799D01*
X165624D01*
X166124Y85299D01*
Y84799D01*
X165624Y84299D01*
X165125D01*
X165624D01*
X166124Y83800D01*
Y83300D01*
X165624Y82800D01*
X164625D01*
X164125Y83300D01*
X167124Y85799D02*
Y82800D01*
X168623D01*
X169123Y83300D01*
Y85299D01*
X168623Y85799D01*
X167124D01*
X-47773Y-141500D02*
Y-138501D01*
X-46274D01*
X-45774Y-139001D01*
Y-140000D01*
X-46274Y-140500D01*
X-47773D01*
X-46774D02*
X-45774Y-141500D01*
X-44774D02*
X-43775D01*
X-44275D01*
Y-138501D01*
X-44774Y-139001D01*
X-42275D02*
X-41775Y-138501D01*
X-40776D01*
X-40276Y-139001D01*
Y-139501D01*
X-40776Y-140000D01*
X-40276Y-140500D01*
Y-141000D01*
X-40776Y-141500D01*
X-41775D01*
X-42275Y-141000D01*
Y-140500D01*
X-41775Y-140000D01*
X-42275Y-139501D01*
Y-139001D01*
X-41775Y-140000D02*
X-40776D01*
X-47773Y-131500D02*
Y-128501D01*
X-46274D01*
X-45774Y-129001D01*
Y-130000D01*
X-46274Y-130500D01*
X-47773D01*
X-46774D02*
X-45774Y-131500D01*
X-44774D02*
X-43775D01*
X-44275D01*
Y-128501D01*
X-44774Y-129001D01*
X-42275Y-131000D02*
X-41775Y-131500D01*
X-40776D01*
X-40276Y-131000D01*
Y-129001D01*
X-40776Y-128501D01*
X-41775D01*
X-42275Y-129001D01*
Y-129501D01*
X-41775Y-130000D01*
X-40276D01*
X-61524Y-30541D02*
X-59524D01*
X-60524D01*
Y-33540D01*
X-58525D02*
Y-30541D01*
X-57025D01*
X-56525Y-31041D01*
Y-32041D01*
X-57025Y-32541D01*
X-58525D01*
X-55526Y-33540D02*
X-54526D01*
X-55026D01*
Y-30541D01*
X-55526Y-31041D01*
X-60974Y-138541D02*
X-58975D01*
X-59974D01*
Y-141540D01*
X-57975D02*
Y-138541D01*
X-56476D01*
X-55976Y-139041D01*
Y-140041D01*
X-56476Y-140541D01*
X-57975D01*
X-52977Y-141540D02*
X-54976D01*
X-52977Y-139541D01*
Y-139041D01*
X-53476Y-138541D01*
X-54476D01*
X-54976Y-139041D01*
X-60975Y-128541D02*
X-58975D01*
X-59975D01*
Y-131540D01*
X-57976D02*
Y-128541D01*
X-56476D01*
X-55976Y-129041D01*
Y-130041D01*
X-56476Y-130541D01*
X-57976D01*
X-54977Y-129041D02*
X-54477Y-128541D01*
X-53477D01*
X-52977Y-129041D01*
Y-129541D01*
X-53477Y-130041D01*
X-53977D01*
X-53477D01*
X-52977Y-130541D01*
Y-131040D01*
X-53477Y-131540D01*
X-54477D01*
X-54977Y-131040D01*
X223062Y-28771D02*
X225061D01*
X224062D01*
Y-31770D01*
X226061D02*
Y-28771D01*
X227560D01*
X228060Y-29271D01*
Y-30271D01*
X227560Y-30770D01*
X226061D01*
X230559Y-31770D02*
Y-28771D01*
X229060Y-30271D01*
X231059D01*
X232059Y-31770D02*
Y-29771D01*
X233059Y-28771D01*
X234058Y-29771D01*
Y-31770D01*
Y-30271D01*
X232059D01*
X-207678Y81544D02*
X-205679D01*
X-206679D01*
Y78545D01*
X-204679D02*
Y81544D01*
X-203180D01*
X-202680Y81044D01*
Y80044D01*
X-203180Y79545D01*
X-204679D01*
X-200181Y78545D02*
Y81544D01*
X-201680Y80044D01*
X-199681D01*
X-198681Y81544D02*
Y78545D01*
X-197182D01*
X-196682Y79045D01*
Y79545D01*
X-197182Y80044D01*
X-198681D01*
X-197182D01*
X-196682Y80544D01*
Y81044D01*
X-197182Y81544D01*
X-198681D01*
X-1973Y-123501D02*
Y-126000D01*
X-1474Y-126500D01*
X-474D01*
X26Y-126000D01*
Y-123501D01*
X1026Y-126500D02*
X2025D01*
X1526D01*
Y-123501D01*
X1026Y-124001D01*
X53527Y96499D02*
Y94000D01*
X54027Y93500D01*
X55026D01*
X55526Y94000D01*
Y96499D01*
X58525Y93500D02*
X56526D01*
X58525Y95499D01*
Y95999D01*
X58025Y96499D01*
X57025D01*
X56526Y95999D01*
X215567Y-14816D02*
Y-17315D01*
X216067Y-17815D01*
X217066D01*
X217566Y-17315D01*
Y-14816D01*
X218566Y-15316D02*
X219066Y-14816D01*
X220065D01*
X220565Y-15316D01*
Y-15816D01*
X220065Y-16316D01*
X219566D01*
X220065D01*
X220565Y-16815D01*
Y-17315D01*
X220065Y-17815D01*
X219066D01*
X218566Y-17315D01*
X221565Y-17815D02*
Y-15816D01*
X222565Y-14816D01*
X223564Y-15816D01*
Y-17815D01*
Y-16316D01*
X221565D01*
X224836Y-42806D02*
Y-45305D01*
X225336Y-45805D01*
X226336D01*
X226835Y-45305D01*
Y-42806D01*
X229335Y-45805D02*
Y-42806D01*
X227835Y-44305D01*
X229835D01*
X230834Y-45805D02*
Y-43805D01*
X231834Y-42806D01*
X232834Y-43805D01*
Y-45805D01*
Y-44305D01*
X230834D01*
X-205904Y67509D02*
Y65010D01*
X-205404Y64510D01*
X-204404D01*
X-203905Y65010D01*
Y67509D01*
X-201406Y64510D02*
Y67509D01*
X-202905Y66010D01*
X-200906D01*
X-199906Y67509D02*
Y64510D01*
X-198407D01*
X-197907Y65010D01*
Y65510D01*
X-198407Y66010D01*
X-199906D01*
X-198407D01*
X-197907Y66509D01*
Y67009D01*
X-198407Y67509D01*
X-199906D01*
X-225173Y188599D02*
Y186100D01*
X-224674Y185600D01*
X-223674D01*
X-223174Y186100D01*
Y188599D01*
X-220175D02*
X-221175Y188099D01*
X-222174Y187100D01*
Y186100D01*
X-221674Y185600D01*
X-220675D01*
X-220175Y186100D01*
Y186600D01*
X-220675Y187100D01*
X-222174D01*
X-219175Y185600D02*
Y187599D01*
X-218176Y188599D01*
X-217176Y187599D01*
Y185600D01*
Y187100D01*
X-219175D01*
X-223373Y150899D02*
Y148400D01*
X-222873Y147900D01*
X-221874D01*
X-221374Y148400D01*
Y150899D01*
X-218375D02*
X-219375Y150399D01*
X-220374Y149399D01*
Y148400D01*
X-219875Y147900D01*
X-218875D01*
X-218375Y148400D01*
Y148900D01*
X-218875Y149399D01*
X-220374D01*
X-217375Y150899D02*
Y147900D01*
X-215876D01*
X-215376Y148400D01*
Y148900D01*
X-215876Y149399D01*
X-217375D01*
X-215876D01*
X-215376Y149899D01*
Y150399D01*
X-215876Y150899D01*
X-217375D01*
X226527Y56499D02*
Y54000D01*
X227027Y53500D01*
X228026D01*
X228526Y54000D01*
Y56499D01*
X231525D02*
X230525Y55999D01*
X229526Y55000D01*
Y54000D01*
X230026Y53500D01*
X231025D01*
X231525Y54000D01*
Y54500D01*
X231025Y55000D01*
X229526D01*
X234524Y55999D02*
X234024Y56499D01*
X233025D01*
X232525Y55999D01*
Y54000D01*
X233025Y53500D01*
X234024D01*
X234524Y54000D01*
X168927Y56499D02*
Y54000D01*
X169427Y53500D01*
X170426D01*
X170926Y54000D01*
Y56499D01*
X173925D02*
X172925Y55999D01*
X171926Y55000D01*
Y54000D01*
X172425Y53500D01*
X173425D01*
X173925Y54000D01*
Y54500D01*
X173425Y55000D01*
X171926D01*
X174925Y56499D02*
Y53500D01*
X176424D01*
X176924Y54000D01*
Y55999D01*
X176424Y56499D01*
X174925D01*
X-255073Y24999D02*
Y22500D01*
X-254573Y22000D01*
X-253574D01*
X-253074Y22500D01*
Y24999D01*
X-250075D02*
X-252074D01*
Y23499D01*
X-251075Y23999D01*
X-250575D01*
X-250075Y23499D01*
Y22500D01*
X-250575Y22000D01*
X-251574D01*
X-252074Y22500D01*
X-224020Y205299D02*
X-224520Y205799D01*
X-225520D01*
X-226020Y205299D01*
Y203300D01*
X-225520Y202800D01*
X-224520D01*
X-224020Y203300D01*
X-223021Y202800D02*
X-222021D01*
X-222521D01*
Y205799D01*
X-223021Y205299D01*
X-220522D02*
X-220022Y205799D01*
X-219022D01*
X-218522Y205299D01*
Y204799D01*
X-219022Y204299D01*
X-219522D01*
X-219022D01*
X-218522Y203800D01*
Y203300D01*
X-219022Y202800D01*
X-220022D01*
X-220522Y203300D01*
X-217523Y202800D02*
Y204799D01*
X-216523Y205799D01*
X-215523Y204799D01*
Y202800D01*
Y204299D01*
X-217523D01*
X-222774Y167099D02*
X-223274Y167599D01*
X-224273D01*
X-224773Y167099D01*
Y165100D01*
X-224273Y164600D01*
X-223274D01*
X-222774Y165100D01*
X-221774Y164600D02*
X-220775D01*
X-221274D01*
Y167599D01*
X-221774Y167099D01*
X-219275D02*
X-218775Y167599D01*
X-217776D01*
X-217276Y167099D01*
Y166599D01*
X-217776Y166100D01*
X-218275D01*
X-217776D01*
X-217276Y165600D01*
Y165100D01*
X-217776Y164600D01*
X-218775D01*
X-219275Y165100D01*
X-216276Y167599D02*
Y164600D01*
X-214777D01*
X-214277Y165100D01*
Y165600D01*
X-214777Y166100D01*
X-216276D01*
X-214777D01*
X-214277Y166599D01*
Y167099D01*
X-214777Y167599D01*
X-216276D01*
X210326Y55999D02*
X209826Y56499D01*
X208826D01*
X208327Y55999D01*
Y54000D01*
X208826Y53500D01*
X209826D01*
X210326Y54000D01*
X211326Y53500D02*
X212325D01*
X211825D01*
Y56499D01*
X211326Y55999D01*
X213825D02*
X214325Y56499D01*
X215324D01*
X215824Y55999D01*
Y55499D01*
X215324Y55000D01*
X214825D01*
X215324D01*
X215824Y54500D01*
Y54000D01*
X215324Y53500D01*
X214325D01*
X213825Y54000D01*
X218823Y55999D02*
X218323Y56499D01*
X217324D01*
X216824Y55999D01*
Y54000D01*
X217324Y53500D01*
X218323D01*
X218823Y54000D01*
X152626Y55999D02*
X152126Y56499D01*
X151127D01*
X150627Y55999D01*
Y54000D01*
X151127Y53500D01*
X152126D01*
X152626Y54000D01*
X153626Y53500D02*
X154625D01*
X154125D01*
Y56499D01*
X153626Y55999D01*
X156125D02*
X156625Y56499D01*
X157624D01*
X158124Y55999D01*
Y55499D01*
X157624Y55000D01*
X157125D01*
X157624D01*
X158124Y54500D01*
Y54000D01*
X157624Y53500D01*
X156625D01*
X156125Y54000D01*
X159124Y56499D02*
Y53500D01*
X160623D01*
X161123Y54000D01*
Y55999D01*
X160623Y56499D01*
X159124D01*
X-201674Y275999D02*
X-202674D01*
X-202174D01*
Y273500D01*
X-202674Y273000D01*
X-203173D01*
X-203673Y273500D01*
X-200674Y275499D02*
X-200174Y275999D01*
X-199175D01*
X-198675Y275499D01*
Y274999D01*
X-199175Y274499D01*
X-199675D01*
X-199175D01*
X-198675Y274000D01*
Y273500D01*
X-199175Y273000D01*
X-200174D01*
X-200674Y273500D01*
X198326Y275999D02*
X197326D01*
X197826D01*
Y273500D01*
X197326Y273000D01*
X196827D01*
X196327Y273500D01*
X201325Y275999D02*
X200325Y275499D01*
X199326Y274499D01*
Y273500D01*
X199826Y273000D01*
X200825D01*
X201325Y273500D01*
Y274000D01*
X200825Y274499D01*
X199326D01*
X-15974Y258699D02*
X-16974D01*
X-16474D01*
Y256200D01*
X-16974Y255700D01*
X-17473D01*
X-17973Y256200D01*
X-14974Y258199D02*
X-14475Y258699D01*
X-13475D01*
X-12975Y258199D01*
Y257699D01*
X-13475Y257199D01*
X-12975Y256700D01*
Y256200D01*
X-13475Y255700D01*
X-14475D01*
X-14974Y256200D01*
Y256700D01*
X-14475Y257199D01*
X-14974Y257699D01*
Y258199D01*
X-14475Y257199D02*
X-13475D01*
X-15974Y183699D02*
X-16974D01*
X-16474D01*
Y181200D01*
X-16974Y180700D01*
X-17473D01*
X-17973Y181200D01*
X-14974Y183699D02*
X-12975D01*
Y183199D01*
X-14974Y181200D01*
Y180700D01*
D70*
X-264807Y203000D02*
X-253193D01*
Y175776D02*
Y203000D01*
X-255275Y173000D02*
X-253193Y175776D01*
X-262725Y173000D02*
X-255275D01*
X-264807Y175776D02*
X-262725Y173000D01*
X-264807Y175776D02*
Y203000D01*
X214535Y11193D02*
Y22807D01*
X241759D01*
X244535Y20725D01*
Y13275D02*
Y20725D01*
X241759Y11193D02*
X244535Y13275D01*
X214535Y11193D02*
X241759D01*
X32100Y241393D02*
Y253007D01*
X59324D01*
X62100Y250925D01*
Y243475D02*
Y250925D01*
X59324Y241393D02*
X62100Y243475D01*
X32100Y241393D02*
X59324D01*
X32100Y256493D02*
Y268107D01*
X59324D01*
X62100Y266025D01*
Y258575D02*
Y266025D01*
X59324Y256493D02*
X62100Y258575D01*
X32100Y256493D02*
X59324D01*
X75500Y241393D02*
Y253007D01*
X102724D01*
X105500Y250925D01*
Y243475D02*
Y250925D01*
X102724Y241393D02*
X105500Y243475D01*
X75500Y241393D02*
X102724D01*
X75500Y256493D02*
Y268107D01*
X102724D01*
X105500Y266025D01*
Y258575D02*
Y266025D01*
X102724Y256493D02*
X105500Y258575D01*
X75500Y256493D02*
X102724D01*
X-136000Y139900D02*
X-127100D01*
Y135900D02*
Y139900D01*
Y135900D02*
X-114000D01*
Y143900D01*
X-127100D02*
X-114000D01*
X-127100Y142800D02*
Y143900D01*
X-127000Y157900D02*
Y161900D01*
X-113930D01*
Y153900D02*
Y161900D01*
X-127000Y153900D02*
X-113930D01*
X-127000D02*
Y154900D01*
X-136000Y157900D02*
X-127000D01*
X-160000Y134900D02*
Y160900D01*
Y134900D02*
X-136000D01*
Y162900D01*
X-160000D02*
X-136000D01*
X-160000Y160900D02*
Y162900D01*
X-127100Y139900D02*
Y142800D01*
X-127000Y154900D02*
Y157800D01*
X-136000Y201400D02*
X-127100D01*
Y197400D02*
Y201400D01*
Y197400D02*
X-114000D01*
Y205400D01*
X-127100D02*
X-114000D01*
X-127100Y204300D02*
Y205400D01*
X-127000Y219400D02*
Y223400D01*
X-113930D01*
Y215400D02*
Y223400D01*
X-127000Y215400D02*
X-113930D01*
X-127000D02*
Y216400D01*
X-136000Y219400D02*
X-127000D01*
X-160000Y196400D02*
Y222400D01*
Y196400D02*
X-136000D01*
Y224400D01*
X-160000D02*
X-136000D01*
X-160000Y222400D02*
Y224400D01*
X-127100Y201400D02*
Y204300D01*
X-127000Y216400D02*
Y219300D01*
X-66000Y139900D02*
X-57100D01*
Y135900D02*
Y139900D01*
Y135900D02*
X-44000D01*
Y143900D01*
X-57100D02*
X-44000D01*
X-57100Y142800D02*
Y143900D01*
X-57000Y157900D02*
Y161900D01*
X-43930D01*
Y153900D02*
Y161900D01*
X-57000Y153900D02*
X-43930D01*
X-57000D02*
Y154900D01*
X-66000Y157900D02*
X-57000D01*
X-90000Y134900D02*
Y160900D01*
Y134900D02*
X-66000D01*
Y162900D01*
X-90000D02*
X-66000D01*
X-90000Y160900D02*
Y162900D01*
X-57100Y139900D02*
Y142800D01*
X-57000Y154900D02*
Y157800D01*
X-66000Y201400D02*
X-57100D01*
Y197400D02*
Y201400D01*
Y197400D02*
X-44000D01*
Y205400D01*
X-57100D02*
X-44000D01*
X-57100Y204300D02*
Y205400D01*
X-57000Y219400D02*
Y223400D01*
X-43930D01*
Y215400D02*
Y223400D01*
X-57000Y215400D02*
X-43930D01*
X-57000D02*
Y216400D01*
X-66000Y219400D02*
X-57000D01*
X-90000Y196400D02*
Y222400D01*
Y196400D02*
X-66000D01*
Y224400D01*
X-90000D02*
X-66000D01*
X-90000Y222400D02*
Y224400D01*
X-57100Y201400D02*
Y204300D01*
X-57000Y216400D02*
Y219300D01*
X164500Y152000D02*
Y160900D01*
X168500D01*
Y174000D01*
X160500D02*
X168500D01*
X160500Y160900D02*
Y174000D01*
Y160900D02*
X161600D01*
X142500Y161000D02*
X146500D01*
X142500D02*
Y174070D01*
X150500D01*
Y161000D02*
Y174070D01*
X149500Y161000D02*
X150500D01*
X146500Y152000D02*
Y161000D01*
X143500Y128000D02*
X169500D01*
Y152000D01*
X141500D02*
X169500D01*
X141500Y128000D02*
Y152000D01*
Y128000D02*
X143500D01*
X161600Y160900D02*
X164500D01*
X146600Y161000D02*
X149500D01*
X249500Y152000D02*
Y160900D01*
X253500D01*
Y174000D01*
X245500D02*
X253500D01*
X245500Y160900D02*
Y174000D01*
Y160900D02*
X246600D01*
X227500Y161000D02*
X231500D01*
X227500D02*
Y174070D01*
X235500D01*
Y161000D02*
Y174070D01*
X234500Y161000D02*
X235500D01*
X231500Y152000D02*
Y161000D01*
X228500Y128000D02*
X254500D01*
Y152000D01*
X226500D02*
X254500D01*
X226500Y128000D02*
Y152000D01*
Y128000D02*
X228500D01*
X246600Y160900D02*
X249500D01*
X231600Y161000D02*
X234500D01*
X164500Y203000D02*
Y211900D01*
X168500D01*
Y225000D01*
X160500D02*
X168500D01*
X160500Y211900D02*
Y225000D01*
Y211900D02*
X161600D01*
X142500Y212000D02*
X146500D01*
X142500D02*
Y225070D01*
X150500D01*
Y212000D02*
Y225070D01*
X149500Y212000D02*
X150500D01*
X146500Y203000D02*
Y212000D01*
X143500Y179000D02*
X169500D01*
Y203000D01*
X141500D02*
X169500D01*
X141500Y179000D02*
Y203000D01*
Y179000D02*
X143500D01*
X161600Y211900D02*
X164500D01*
X146600Y212000D02*
X149500D01*
X249500Y203000D02*
Y211900D01*
X253500D01*
Y225000D01*
X245500D02*
X253500D01*
X245500Y211900D02*
Y225000D01*
Y211900D02*
X246600D01*
X227500Y212000D02*
X231500D01*
X227500D02*
Y225070D01*
X235500D01*
Y212000D02*
Y225070D01*
X234500Y212000D02*
X235500D01*
X231500Y203000D02*
Y212000D01*
X228500Y179000D02*
X254500D01*
Y203000D01*
X226500D02*
X254500D01*
X226500Y179000D02*
Y203000D01*
Y179000D02*
X228500D01*
X246600Y211900D02*
X249500D01*
X231600Y212000D02*
X234500D01*
X82000Y-35000D02*
X104500D01*
Y-85000D02*
Y-35000D01*
X79500Y-85000D02*
X104500D01*
X79500D02*
Y-35000D01*
X82000D01*
X-71300Y-183000D02*
Y-177000D01*
Y-173000D02*
Y-167000D01*
X-262807Y165000D02*
X-251193D01*
Y137776D02*
Y165000D01*
X-253275Y135000D02*
X-251193Y137776D01*
X-260725Y135000D02*
X-253275D01*
X-262807Y137776D02*
X-260725Y135000D01*
X-262807Y137776D02*
Y165000D01*
X156900Y11193D02*
Y22807D01*
X184124D01*
X186900Y20725D01*
Y13275D02*
Y20725D01*
X184124Y11193D02*
X186900Y13275D01*
X156900Y11193D02*
X184124D01*
X85350Y-172800D02*
X105350D01*
Y-193300D02*
Y-172800D01*
X85350Y-193300D02*
X105350D01*
X85350D02*
Y-172800D01*
Y-195100D02*
X105350D01*
Y-215600D02*
Y-195100D01*
X85350Y-215600D02*
X105350D01*
X85350D02*
Y-195100D01*
Y-150500D02*
X105350D01*
Y-171000D02*
Y-150500D01*
X85350Y-171000D02*
X105350D01*
X85350D02*
Y-150500D01*
Y-105900D02*
X105350D01*
Y-126400D02*
Y-105900D01*
X85350Y-126400D02*
X105350D01*
X85350D02*
Y-105900D01*
Y-128200D02*
X105350D01*
Y-148700D02*
Y-128200D01*
X85350Y-148700D02*
X105350D01*
X85350D02*
Y-128200D01*
D71*
X-262693Y38850D02*
X-249307D01*
Y45150D01*
X-262693D02*
X-249307D01*
X-262693Y38850D02*
Y45150D01*
X-227493Y201150D02*
X-214107D01*
Y207450D01*
X-227493D02*
X-214107D01*
X-227493Y201150D02*
Y207450D01*
X159050Y48307D02*
Y61693D01*
X152750D02*
X159050D01*
X152750Y48307D02*
Y61693D01*
Y48307D02*
X159050D01*
X-226193Y162950D02*
X-212807D01*
Y169250D01*
X-226193D02*
X-212807D01*
X-226193Y162950D02*
Y169250D01*
X216685Y48307D02*
Y61693D01*
X210386D02*
X216685D01*
X210386Y48307D02*
Y61693D01*
Y48307D02*
X216685D01*
D72*
X-265500Y-8000D02*
Y6000D01*
X-264000D02*
X-244000D01*
X-264000Y-8000D02*
Y6000D01*
Y-8000D02*
X-244000D01*
Y6000D01*
X-2000Y176039D02*
X3000Y181039D01*
X-2000Y176039D02*
Y186039D01*
X3000Y181039D01*
X-12000D02*
X3000D01*
X-40110Y143560D02*
Y220883D01*
X9102D01*
X9102Y220883D02*
X9102Y220883D01*
X9102Y143560D02*
Y220883D01*
X9102Y143560D02*
X9102Y143560D01*
X-40110Y143560D02*
X9102D01*
X-40110Y218521D02*
X9102D01*
X9102Y218521D01*
Y295843D01*
X9102Y295844D01*
X-40110D02*
X9102D01*
X-40110Y218521D02*
Y295844D01*
X-12000Y256000D02*
X3000D01*
X-2000Y261000D02*
X3000Y256000D01*
X-2000Y251000D02*
Y261000D01*
Y251000D02*
X3000Y256000D01*
X200000Y293000D02*
X205000Y288000D01*
X195000D02*
X205000D01*
X195000D02*
X200000Y293000D01*
Y278000D02*
Y293000D01*
X160157Y249890D02*
X237479D01*
X160157D02*
Y299102D01*
X160157Y299102D01*
X237479D01*
X237479Y299102D01*
Y249890D02*
Y299102D01*
X-162521Y249890D02*
Y299102D01*
X-162521Y299102D02*
X-162521Y299102D01*
X-239843Y299102D02*
X-162521D01*
X-239844Y299102D02*
X-239843Y299102D01*
X-239844Y249890D02*
Y299102D01*
Y249890D02*
X-162521D01*
X-200000Y278000D02*
Y293000D01*
X-205000Y288000D02*
X-200000Y293000D01*
X-205000Y288000D02*
X-195000D01*
X-200000Y293000D02*
X-195000Y288000D01*
D73*
X126500Y-75600D02*
Y-76433D01*
Y-76016D01*
X128999D01*
X128583Y-75600D01*
X129099Y-43866D02*
X128683Y-43033D01*
X127850Y-42200D01*
X127016D01*
X126600Y-42617D01*
Y-43450D01*
X127016Y-43866D01*
X127433D01*
X127850Y-43450D01*
Y-42200D01*
M02*
