M48
;Layer_Color=9474304
;FILE_FORMAT=2:5
INCH,LZ
;TYPE=PLATED
T1F00S00C0.03800
T2F00S00C0.04200
T3F00S00C0.04724
T4F00S00C0.05118
;TYPE=NON_PLATED
T5F00S00C0.04016
T6F00S00C0.11811
T7F00S00C0.15748
%
T01
X-026Y0056
Y0066
X-025925Y007975
Y008725
T02
X009535Y-02101
Y-02001
Y-01878
Y-01778
Y-01655
Y-01555
Y-01432
Y-01332
Y-01209
Y-01109
X0092Y-008
Y-007
Y-006
Y-005
Y-004
T03
X-0015Y-0291
X-001Y-0280661
X-0014Y-027
X-001Y-0259
X-0045Y-023
X-0042Y-0183
Y-0172
Y-0161
X-0041103Y-0149897
X-0006Y-0176
X0006Y-019
X0018Y-0188
Y-015
X0039483Y-0155517
X0047Y-0148
X0085Y-0143
Y-0165
Y-01878
Y-021
X0114Y-02001
Y-01778
Y-01555
X0056Y-0264748
Y-0275378
X0222Y-0065
X0214Y-0054
X0204Y0017
X0256Y-0001
X0106Y-0051
X01065Y-00625
X0106Y-0082
X0114Y-01109
Y-01332
X0085Y-0121
X006Y-0082
Y-0071
Y-006
X0054Y-0045
X0059Y-0031
X0083948Y-0032948
X0017Y-0053
Y-0098
Y-0109
X0016Y-0122
X-0041103Y-0117103
X-0046Y-005
Y-0023
X-0212Y0026
X-02Y0047
X-0212315Y0071315
X-0226Y0094
X-020726Y010826
X-018926Y010874
X-0187Y0131
X-0213Y0134
X-0208Y0169
X-0235Y0171
X-0268Y0158
X-0285
X-01765Y01585
X-0269Y0043
X-01247Y01157
X-0058Y0109
X-0069647Y0085353
X-0038Y0087
X-00381Y01399
X-002Y0141
X-00505Y01675
X0027Y0104
Y0088
X009Y01
X01215Y0097
X0133Y0112
X0129Y0167
X0081Y0151
X0154Y0068
X0148Y0032
X0194Y0038
X0203Y0059
X0179Y006
X01794Y00996
X0190917Y0123083
X022Y0145
X0221Y01
X0242535Y0058
X0175Y0159
X0164Y0236
X0218Y0218
X0229Y0258
X0135757Y0236757
X0114Y0252
X0115Y0274
X00687Y02623
X00685Y02472
X01Y0186
X-0027Y0211
X-00386Y02014
X-00505Y02305
X-01021Y02014
X-0177Y0208
X-01775Y0195
X-01781Y01806
X-0208Y0208
X-0233Y021
X-0154724Y0267717
T04
X-0022Y0162299
X018126Y0268
X021874
X-0022Y027474
Y023726
Y0199779
X-018126Y0268
X-021874
T05
X-003Y-028
Y-027
Y-026
Y-025
Y-024
Y-023
Y-022
Y-021
Y-02
Y-019
Y-018
Y-017
Y-016
Y-015
Y-014
X003
Y-015
Y-016
Y-017
Y-018
Y-019
Y-02
Y-021
Y-022
Y-023
Y-024
Y-025
Y-026
Y-027
Y-028
Y-013
Y-012
Y-011
Y-01
Y-009
Y-008
Y-007
Y-006
Y-005
Y-004
Y-003
Y-002
Y-001
Y0
Y001
X-003
Y0
Y-001
Y-002
Y-003
Y-004
Y-005
Y-006
Y-007
Y-008
Y-009
Y-01
Y-011
Y-012
Y-013
Y002
Y003
X003
Y002
T06
X-028Y-028
X026
X028Y028
X-028
T07
X-027559Y-0193701
X027559
M30
